<?xml version="1.0" encoding="utf-8" standalone="no"?>
<!DOCTYPE svg PUBLIC "-//W3C//DTD SVG 1.1//EN"
  "http://www.w3.org/Graphics/SVG/1.1/DTD/svg11.dtd">
<svg xmlns:xlink="http://www.w3.org/1999/xlink" width="460.8pt" height="345.6pt" viewBox="0 0 460.8 345.6" xmlns="http://www.w3.org/2000/svg" version="1.1">
 <metadata>
  <rdf:RDF xmlns:dc="http://purl.org/dc/elements/1.1/" xmlns:cc="http://creativecommons.org/ns#" xmlns:rdf="http://www.w3.org/1999/02/22-rdf-syntax-ns#">
   <cc:Work>
    <dc:type rdf:resource="http://purl.org/dc/dcmitype/StillImage"/>
    <dc:date>2022-04-26T12:12:43.539801</dc:date>
    <dc:format>image/svg+xml</dc:format>
    <dc:creator>
     <cc:Agent>
      <dc:title>Matplotlib v3.5.1, https://matplotlib.org/</dc:title>
     </cc:Agent>
    </dc:creator>
   </cc:Work>
  </rdf:RDF>
 </metadata>
 <defs>
  <style type="text/css">*{stroke-linejoin: round; stroke-linecap: butt}</style>
 </defs>
 <g id="figure_1">
  <g id="patch_1">
   <path d="M 0 345.6 
L 460.8 345.6 
L 460.8 0 
L 0 0 
z
" style="fill: #ffffff"/>
  </g>
  <g id="axes_1">
   <g id="patch_2">
    <path d="M 57.6 307.584 
L 414.72 307.584 
L 414.72 41.472 
L 57.6 41.472 
z
" style="fill: #ffffff"/>
   </g>
   <g id="matplotlib.axis_1">
    <g id="xtick_1">
     <g id="line2d_1">
      <defs>
       <path id="m401b876127" d="M 0 0 
L 0 3.5 
" style="stroke: #000000; stroke-width: 0.8"/>
      </defs>
      <g>
       <use xlink:href="#m401b876127" x="94.30298" y="307.584" style="stroke: #000000; stroke-width: 0.8"/>
      </g>
     </g>
     <g id="text_1">
      <!-- 400 -->
      <g transform="translate(84.75923 322.182437)scale(0.1 -0.1)">
       <defs>
        <path id="DejaVuSans-34" d="M 2419 4116 
L 825 1625 
L 2419 1625 
L 2419 4116 
z
M 2253 4666 
L 3047 4666 
L 3047 1625 
L 3713 1625 
L 3713 1100 
L 3047 1100 
L 3047 0 
L 2419 0 
L 2419 1100 
L 313 1100 
L 313 1709 
L 2253 4666 
z
" transform="scale(0.015625)"/>
        <path id="DejaVuSans-30" d="M 2034 4250 
Q 1547 4250 1301 3770 
Q 1056 3291 1056 2328 
Q 1056 1369 1301 889 
Q 1547 409 2034 409 
Q 2525 409 2770 889 
Q 3016 1369 3016 2328 
Q 3016 3291 2770 3770 
Q 2525 4250 2034 4250 
z
M 2034 4750 
Q 2819 4750 3233 4129 
Q 3647 3509 3647 2328 
Q 3647 1150 3233 529 
Q 2819 -91 2034 -91 
Q 1250 -91 836 529 
Q 422 1150 422 2328 
Q 422 3509 836 4129 
Q 1250 4750 2034 4750 
z
" transform="scale(0.015625)"/>
       </defs>
       <use xlink:href="#DejaVuSans-34"/>
       <use xlink:href="#DejaVuSans-30" x="63.623047"/>
       <use xlink:href="#DejaVuSans-30" x="127.246094"/>
      </g>
     </g>
    </g>
    <g id="xtick_2">
     <g id="line2d_2">
      <g>
       <use xlink:href="#m401b876127" x="167.708941" y="307.584" style="stroke: #000000; stroke-width: 0.8"/>
      </g>
     </g>
     <g id="text_2">
      <!-- 600 -->
      <g transform="translate(158.165191 322.182437)scale(0.1 -0.1)">
       <defs>
        <path id="DejaVuSans-36" d="M 2113 2584 
Q 1688 2584 1439 2293 
Q 1191 2003 1191 1497 
Q 1191 994 1439 701 
Q 1688 409 2113 409 
Q 2538 409 2786 701 
Q 3034 994 3034 1497 
Q 3034 2003 2786 2293 
Q 2538 2584 2113 2584 
z
M 3366 4563 
L 3366 3988 
Q 3128 4100 2886 4159 
Q 2644 4219 2406 4219 
Q 1781 4219 1451 3797 
Q 1122 3375 1075 2522 
Q 1259 2794 1537 2939 
Q 1816 3084 2150 3084 
Q 2853 3084 3261 2657 
Q 3669 2231 3669 1497 
Q 3669 778 3244 343 
Q 2819 -91 2113 -91 
Q 1303 -91 875 529 
Q 447 1150 447 2328 
Q 447 3434 972 4092 
Q 1497 4750 2381 4750 
Q 2619 4750 2861 4703 
Q 3103 4656 3366 4563 
z
" transform="scale(0.015625)"/>
       </defs>
       <use xlink:href="#DejaVuSans-36"/>
       <use xlink:href="#DejaVuSans-30" x="63.623047"/>
       <use xlink:href="#DejaVuSans-30" x="127.246094"/>
      </g>
     </g>
    </g>
    <g id="xtick_3">
     <g id="line2d_3">
      <g>
       <use xlink:href="#m401b876127" x="241.114902" y="307.584" style="stroke: #000000; stroke-width: 0.8"/>
      </g>
     </g>
     <g id="text_3">
      <!-- 800 -->
      <g transform="translate(231.571152 322.182437)scale(0.1 -0.1)">
       <defs>
        <path id="DejaVuSans-38" d="M 2034 2216 
Q 1584 2216 1326 1975 
Q 1069 1734 1069 1313 
Q 1069 891 1326 650 
Q 1584 409 2034 409 
Q 2484 409 2743 651 
Q 3003 894 3003 1313 
Q 3003 1734 2745 1975 
Q 2488 2216 2034 2216 
z
M 1403 2484 
Q 997 2584 770 2862 
Q 544 3141 544 3541 
Q 544 4100 942 4425 
Q 1341 4750 2034 4750 
Q 2731 4750 3128 4425 
Q 3525 4100 3525 3541 
Q 3525 3141 3298 2862 
Q 3072 2584 2669 2484 
Q 3125 2378 3379 2068 
Q 3634 1759 3634 1313 
Q 3634 634 3220 271 
Q 2806 -91 2034 -91 
Q 1263 -91 848 271 
Q 434 634 434 1313 
Q 434 1759 690 2068 
Q 947 2378 1403 2484 
z
M 1172 3481 
Q 1172 3119 1398 2916 
Q 1625 2713 2034 2713 
Q 2441 2713 2670 2916 
Q 2900 3119 2900 3481 
Q 2900 3844 2670 4047 
Q 2441 4250 2034 4250 
Q 1625 4250 1398 4047 
Q 1172 3844 1172 3481 
z
" transform="scale(0.015625)"/>
       </defs>
       <use xlink:href="#DejaVuSans-38"/>
       <use xlink:href="#DejaVuSans-30" x="63.623047"/>
       <use xlink:href="#DejaVuSans-30" x="127.246094"/>
      </g>
     </g>
    </g>
    <g id="xtick_4">
     <g id="line2d_4">
      <g>
       <use xlink:href="#m401b876127" x="314.520863" y="307.584" style="stroke: #000000; stroke-width: 0.8"/>
      </g>
     </g>
     <g id="text_4">
      <!-- 1000 -->
      <g transform="translate(301.795863 322.182437)scale(0.1 -0.1)">
       <defs>
        <path id="DejaVuSans-31" d="M 794 531 
L 1825 531 
L 1825 4091 
L 703 3866 
L 703 4441 
L 1819 4666 
L 2450 4666 
L 2450 531 
L 3481 531 
L 3481 0 
L 794 0 
L 794 531 
z
" transform="scale(0.015625)"/>
       </defs>
       <use xlink:href="#DejaVuSans-31"/>
       <use xlink:href="#DejaVuSans-30" x="63.623047"/>
       <use xlink:href="#DejaVuSans-30" x="127.246094"/>
       <use xlink:href="#DejaVuSans-30" x="190.869141"/>
      </g>
     </g>
    </g>
    <g id="xtick_5">
     <g id="line2d_5">
      <g>
       <use xlink:href="#m401b876127" x="387.926824" y="307.584" style="stroke: #000000; stroke-width: 0.8"/>
      </g>
     </g>
     <g id="text_5">
      <!-- 1200 -->
      <g transform="translate(375.201824 322.182437)scale(0.1 -0.1)">
       <defs>
        <path id="DejaVuSans-32" d="M 1228 531 
L 3431 531 
L 3431 0 
L 469 0 
L 469 531 
Q 828 903 1448 1529 
Q 2069 2156 2228 2338 
Q 2531 2678 2651 2914 
Q 2772 3150 2772 3378 
Q 2772 3750 2511 3984 
Q 2250 4219 1831 4219 
Q 1534 4219 1204 4116 
Q 875 4013 500 3803 
L 500 4441 
Q 881 4594 1212 4672 
Q 1544 4750 1819 4750 
Q 2544 4750 2975 4387 
Q 3406 4025 3406 3419 
Q 3406 3131 3298 2873 
Q 3191 2616 2906 2266 
Q 2828 2175 2409 1742 
Q 1991 1309 1228 531 
z
" transform="scale(0.015625)"/>
       </defs>
       <use xlink:href="#DejaVuSans-31"/>
       <use xlink:href="#DejaVuSans-32" x="63.623047"/>
       <use xlink:href="#DejaVuSans-30" x="127.246094"/>
       <use xlink:href="#DejaVuSans-30" x="190.869141"/>
      </g>
     </g>
    </g>
    <g id="text_6">
     <!-- Temperature (K) -->
     <g transform="translate(195.720937 335.860562)scale(0.1 -0.1)">
      <defs>
       <path id="DejaVuSans-54" d="M -19 4666 
L 3928 4666 
L 3928 4134 
L 2272 4134 
L 2272 0 
L 1638 0 
L 1638 4134 
L -19 4134 
L -19 4666 
z
" transform="scale(0.015625)"/>
       <path id="DejaVuSans-65" d="M 3597 1894 
L 3597 1613 
L 953 1613 
Q 991 1019 1311 708 
Q 1631 397 2203 397 
Q 2534 397 2845 478 
Q 3156 559 3463 722 
L 3463 178 
Q 3153 47 2828 -22 
Q 2503 -91 2169 -91 
Q 1331 -91 842 396 
Q 353 884 353 1716 
Q 353 2575 817 3079 
Q 1281 3584 2069 3584 
Q 2775 3584 3186 3129 
Q 3597 2675 3597 1894 
z
M 3022 2063 
Q 3016 2534 2758 2815 
Q 2500 3097 2075 3097 
Q 1594 3097 1305 2825 
Q 1016 2553 972 2059 
L 3022 2063 
z
" transform="scale(0.015625)"/>
       <path id="DejaVuSans-6d" d="M 3328 2828 
Q 3544 3216 3844 3400 
Q 4144 3584 4550 3584 
Q 5097 3584 5394 3201 
Q 5691 2819 5691 2113 
L 5691 0 
L 5113 0 
L 5113 2094 
Q 5113 2597 4934 2840 
Q 4756 3084 4391 3084 
Q 3944 3084 3684 2787 
Q 3425 2491 3425 1978 
L 3425 0 
L 2847 0 
L 2847 2094 
Q 2847 2600 2669 2842 
Q 2491 3084 2119 3084 
Q 1678 3084 1418 2786 
Q 1159 2488 1159 1978 
L 1159 0 
L 581 0 
L 581 3500 
L 1159 3500 
L 1159 2956 
Q 1356 3278 1631 3431 
Q 1906 3584 2284 3584 
Q 2666 3584 2933 3390 
Q 3200 3197 3328 2828 
z
" transform="scale(0.015625)"/>
       <path id="DejaVuSans-70" d="M 1159 525 
L 1159 -1331 
L 581 -1331 
L 581 3500 
L 1159 3500 
L 1159 2969 
Q 1341 3281 1617 3432 
Q 1894 3584 2278 3584 
Q 2916 3584 3314 3078 
Q 3713 2572 3713 1747 
Q 3713 922 3314 415 
Q 2916 -91 2278 -91 
Q 1894 -91 1617 61 
Q 1341 213 1159 525 
z
M 3116 1747 
Q 3116 2381 2855 2742 
Q 2594 3103 2138 3103 
Q 1681 3103 1420 2742 
Q 1159 2381 1159 1747 
Q 1159 1113 1420 752 
Q 1681 391 2138 391 
Q 2594 391 2855 752 
Q 3116 1113 3116 1747 
z
" transform="scale(0.015625)"/>
       <path id="DejaVuSans-72" d="M 2631 2963 
Q 2534 3019 2420 3045 
Q 2306 3072 2169 3072 
Q 1681 3072 1420 2755 
Q 1159 2438 1159 1844 
L 1159 0 
L 581 0 
L 581 3500 
L 1159 3500 
L 1159 2956 
Q 1341 3275 1631 3429 
Q 1922 3584 2338 3584 
Q 2397 3584 2469 3576 
Q 2541 3569 2628 3553 
L 2631 2963 
z
" transform="scale(0.015625)"/>
       <path id="DejaVuSans-61" d="M 2194 1759 
Q 1497 1759 1228 1600 
Q 959 1441 959 1056 
Q 959 750 1161 570 
Q 1363 391 1709 391 
Q 2188 391 2477 730 
Q 2766 1069 2766 1631 
L 2766 1759 
L 2194 1759 
z
M 3341 1997 
L 3341 0 
L 2766 0 
L 2766 531 
Q 2569 213 2275 61 
Q 1981 -91 1556 -91 
Q 1019 -91 701 211 
Q 384 513 384 1019 
Q 384 1609 779 1909 
Q 1175 2209 1959 2209 
L 2766 2209 
L 2766 2266 
Q 2766 2663 2505 2880 
Q 2244 3097 1772 3097 
Q 1472 3097 1187 3025 
Q 903 2953 641 2809 
L 641 3341 
Q 956 3463 1253 3523 
Q 1550 3584 1831 3584 
Q 2591 3584 2966 3190 
Q 3341 2797 3341 1997 
z
" transform="scale(0.015625)"/>
       <path id="DejaVuSans-74" d="M 1172 4494 
L 1172 3500 
L 2356 3500 
L 2356 3053 
L 1172 3053 
L 1172 1153 
Q 1172 725 1289 603 
Q 1406 481 1766 481 
L 2356 481 
L 2356 0 
L 1766 0 
Q 1100 0 847 248 
Q 594 497 594 1153 
L 594 3053 
L 172 3053 
L 172 3500 
L 594 3500 
L 594 4494 
L 1172 4494 
z
" transform="scale(0.015625)"/>
       <path id="DejaVuSans-75" d="M 544 1381 
L 544 3500 
L 1119 3500 
L 1119 1403 
Q 1119 906 1312 657 
Q 1506 409 1894 409 
Q 2359 409 2629 706 
Q 2900 1003 2900 1516 
L 2900 3500 
L 3475 3500 
L 3475 0 
L 2900 0 
L 2900 538 
Q 2691 219 2414 64 
Q 2138 -91 1772 -91 
Q 1169 -91 856 284 
Q 544 659 544 1381 
z
M 1991 3584 
L 1991 3584 
z
" transform="scale(0.015625)"/>
       <path id="DejaVuSans-20" transform="scale(0.015625)"/>
       <path id="DejaVuSans-28" d="M 1984 4856 
Q 1566 4138 1362 3434 
Q 1159 2731 1159 2009 
Q 1159 1288 1364 580 
Q 1569 -128 1984 -844 
L 1484 -844 
Q 1016 -109 783 600 
Q 550 1309 550 2009 
Q 550 2706 781 3412 
Q 1013 4119 1484 4856 
L 1984 4856 
z
" transform="scale(0.015625)"/>
       <path id="DejaVuSans-4b" d="M 628 4666 
L 1259 4666 
L 1259 2694 
L 3353 4666 
L 4166 4666 
L 1850 2491 
L 4331 0 
L 3500 0 
L 1259 2247 
L 1259 0 
L 628 0 
L 628 4666 
z
" transform="scale(0.015625)"/>
       <path id="DejaVuSans-29" d="M 513 4856 
L 1013 4856 
Q 1481 4119 1714 3412 
Q 1947 2706 1947 2009 
Q 1947 1309 1714 600 
Q 1481 -109 1013 -844 
L 513 -844 
Q 928 -128 1133 580 
Q 1338 1288 1338 2009 
Q 1338 2731 1133 3434 
Q 928 4138 513 4856 
z
" transform="scale(0.015625)"/>
      </defs>
      <use xlink:href="#DejaVuSans-54"/>
      <use xlink:href="#DejaVuSans-65" x="44.083984"/>
      <use xlink:href="#DejaVuSans-6d" x="105.607422"/>
      <use xlink:href="#DejaVuSans-70" x="203.019531"/>
      <use xlink:href="#DejaVuSans-65" x="266.496094"/>
      <use xlink:href="#DejaVuSans-72" x="328.019531"/>
      <use xlink:href="#DejaVuSans-61" x="369.132812"/>
      <use xlink:href="#DejaVuSans-74" x="430.412109"/>
      <use xlink:href="#DejaVuSans-75" x="469.621094"/>
      <use xlink:href="#DejaVuSans-72" x="533"/>
      <use xlink:href="#DejaVuSans-65" x="571.863281"/>
      <use xlink:href="#DejaVuSans-20" x="633.386719"/>
      <use xlink:href="#DejaVuSans-28" x="665.173828"/>
      <use xlink:href="#DejaVuSans-4b" x="704.1875"/>
      <use xlink:href="#DejaVuSans-29" x="769.763672"/>
     </g>
    </g>
   </g>
   <g id="matplotlib.axis_2">
    <g id="ytick_1">
     <g id="line2d_6">
      <defs>
       <path id="m3cbbfec653" d="M 0 0 
L -3.5 0 
" style="stroke: #000000; stroke-width: 0.8"/>
      </defs>
      <g>
       <use xlink:href="#m3cbbfec653" x="57.6" y="274.078257" style="stroke: #000000; stroke-width: 0.8"/>
      </g>
     </g>
     <g id="text_7">
      <!-- $\mathdefault{10^{2}}$ -->
      <g transform="translate(33 277.877476)scale(0.1 -0.1)">
       <use xlink:href="#DejaVuSans-31" transform="translate(0 0.765625)"/>
       <use xlink:href="#DejaVuSans-30" transform="translate(63.623047 0.765625)"/>
       <use xlink:href="#DejaVuSans-32" transform="translate(128.203125 39.046875)scale(0.7)"/>
      </g>
     </g>
    </g>
    <g id="ytick_2">
     <g id="line2d_7">
      <g>
       <use xlink:href="#m3cbbfec653" x="57.6" y="238.395352" style="stroke: #000000; stroke-width: 0.8"/>
      </g>
     </g>
     <g id="text_8">
      <!-- $\mathdefault{10^{7}}$ -->
      <g transform="translate(33 242.19457)scale(0.1 -0.1)">
       <defs>
        <path id="DejaVuSans-37" d="M 525 4666 
L 3525 4666 
L 3525 4397 
L 1831 0 
L 1172 0 
L 2766 4134 
L 525 4134 
L 525 4666 
z
" transform="scale(0.015625)"/>
       </defs>
       <use xlink:href="#DejaVuSans-31" transform="translate(0 0.684375)"/>
       <use xlink:href="#DejaVuSans-30" transform="translate(63.623047 0.684375)"/>
       <use xlink:href="#DejaVuSans-37" transform="translate(128.203125 38.965625)scale(0.7)"/>
      </g>
     </g>
    </g>
    <g id="ytick_3">
     <g id="line2d_8">
      <g>
       <use xlink:href="#m3cbbfec653" x="57.6" y="202.712446" style="stroke: #000000; stroke-width: 0.8"/>
      </g>
     </g>
     <g id="text_9">
      <!-- $\mathdefault{10^{12}}$ -->
      <g transform="translate(28.5 206.511665)scale(0.1 -0.1)">
       <use xlink:href="#DejaVuSans-31" transform="translate(0 0.765625)"/>
       <use xlink:href="#DejaVuSans-30" transform="translate(63.623047 0.765625)"/>
       <use xlink:href="#DejaVuSans-31" transform="translate(128.203125 39.046875)scale(0.7)"/>
       <use xlink:href="#DejaVuSans-32" transform="translate(172.739258 39.046875)scale(0.7)"/>
      </g>
     </g>
    </g>
    <g id="ytick_4">
     <g id="line2d_9">
      <g>
       <use xlink:href="#m3cbbfec653" x="57.6" y="167.029541" style="stroke: #000000; stroke-width: 0.8"/>
      </g>
     </g>
     <g id="text_10">
      <!-- $\mathdefault{10^{17}}$ -->
      <g transform="translate(28.5 170.82876)scale(0.1 -0.1)">
       <use xlink:href="#DejaVuSans-31" transform="translate(0 0.684375)"/>
       <use xlink:href="#DejaVuSans-30" transform="translate(63.623047 0.684375)"/>
       <use xlink:href="#DejaVuSans-31" transform="translate(128.203125 38.965625)scale(0.7)"/>
       <use xlink:href="#DejaVuSans-37" transform="translate(172.739258 38.965625)scale(0.7)"/>
      </g>
     </g>
    </g>
    <g id="ytick_5">
     <g id="line2d_10">
      <g>
       <use xlink:href="#m3cbbfec653" x="57.6" y="131.346636" style="stroke: #000000; stroke-width: 0.8"/>
      </g>
     </g>
     <g id="text_11">
      <!-- $\mathdefault{10^{22}}$ -->
      <g transform="translate(28.5 135.145855)scale(0.1 -0.1)">
       <use xlink:href="#DejaVuSans-31" transform="translate(0 0.765625)"/>
       <use xlink:href="#DejaVuSans-30" transform="translate(63.623047 0.765625)"/>
       <use xlink:href="#DejaVuSans-32" transform="translate(128.203125 39.046875)scale(0.7)"/>
       <use xlink:href="#DejaVuSans-32" transform="translate(172.739258 39.046875)scale(0.7)"/>
      </g>
     </g>
    </g>
    <g id="ytick_6">
     <g id="line2d_11">
      <g>
       <use xlink:href="#m3cbbfec653" x="57.6" y="95.663731" style="stroke: #000000; stroke-width: 0.8"/>
      </g>
     </g>
     <g id="text_12">
      <!-- $\mathdefault{10^{27}}$ -->
      <g transform="translate(28.5 99.46295)scale(0.1 -0.1)">
       <use xlink:href="#DejaVuSans-31" transform="translate(0 0.765625)"/>
       <use xlink:href="#DejaVuSans-30" transform="translate(63.623047 0.765625)"/>
       <use xlink:href="#DejaVuSans-32" transform="translate(128.203125 39.046875)scale(0.7)"/>
       <use xlink:href="#DejaVuSans-37" transform="translate(172.739258 39.046875)scale(0.7)"/>
      </g>
     </g>
    </g>
    <g id="ytick_7">
     <g id="line2d_12">
      <g>
       <use xlink:href="#m3cbbfec653" x="57.6" y="59.980826" style="stroke: #000000; stroke-width: 0.8"/>
      </g>
     </g>
     <g id="text_13">
      <!-- $\mathdefault{10^{32}}$ -->
      <g transform="translate(28.5 63.780044)scale(0.1 -0.1)">
       <defs>
        <path id="DejaVuSans-33" d="M 2597 2516 
Q 3050 2419 3304 2112 
Q 3559 1806 3559 1356 
Q 3559 666 3084 287 
Q 2609 -91 1734 -91 
Q 1441 -91 1130 -33 
Q 819 25 488 141 
L 488 750 
Q 750 597 1062 519 
Q 1375 441 1716 441 
Q 2309 441 2620 675 
Q 2931 909 2931 1356 
Q 2931 1769 2642 2001 
Q 2353 2234 1838 2234 
L 1294 2234 
L 1294 2753 
L 1863 2753 
Q 2328 2753 2575 2939 
Q 2822 3125 2822 3475 
Q 2822 3834 2567 4026 
Q 2313 4219 1838 4219 
Q 1578 4219 1281 4162 
Q 984 4106 628 3988 
L 628 4550 
Q 988 4650 1302 4700 
Q 1616 4750 1894 4750 
Q 2613 4750 3031 4423 
Q 3450 4097 3450 3541 
Q 3450 3153 3228 2886 
Q 3006 2619 2597 2516 
z
" transform="scale(0.015625)"/>
       </defs>
       <use xlink:href="#DejaVuSans-31" transform="translate(0 0.765625)"/>
       <use xlink:href="#DejaVuSans-30" transform="translate(63.623047 0.765625)"/>
       <use xlink:href="#DejaVuSans-33" transform="translate(128.203125 39.046875)scale(0.7)"/>
       <use xlink:href="#DejaVuSans-32" transform="translate(172.739258 39.046875)scale(0.7)"/>
      </g>
     </g>
    </g>
    <g id="text_14">
     <!-- Pyrolysis number -->
     <g transform="translate(22.420312 217.554563)rotate(-90)scale(0.1 -0.1)">
      <defs>
       <path id="DejaVuSans-50" d="M 1259 4147 
L 1259 2394 
L 2053 2394 
Q 2494 2394 2734 2622 
Q 2975 2850 2975 3272 
Q 2975 3691 2734 3919 
Q 2494 4147 2053 4147 
L 1259 4147 
z
M 628 4666 
L 2053 4666 
Q 2838 4666 3239 4311 
Q 3641 3956 3641 3272 
Q 3641 2581 3239 2228 
Q 2838 1875 2053 1875 
L 1259 1875 
L 1259 0 
L 628 0 
L 628 4666 
z
" transform="scale(0.015625)"/>
       <path id="DejaVuSans-79" d="M 2059 -325 
Q 1816 -950 1584 -1140 
Q 1353 -1331 966 -1331 
L 506 -1331 
L 506 -850 
L 844 -850 
Q 1081 -850 1212 -737 
Q 1344 -625 1503 -206 
L 1606 56 
L 191 3500 
L 800 3500 
L 1894 763 
L 2988 3500 
L 3597 3500 
L 2059 -325 
z
" transform="scale(0.015625)"/>
       <path id="DejaVuSans-6f" d="M 1959 3097 
Q 1497 3097 1228 2736 
Q 959 2375 959 1747 
Q 959 1119 1226 758 
Q 1494 397 1959 397 
Q 2419 397 2687 759 
Q 2956 1122 2956 1747 
Q 2956 2369 2687 2733 
Q 2419 3097 1959 3097 
z
M 1959 3584 
Q 2709 3584 3137 3096 
Q 3566 2609 3566 1747 
Q 3566 888 3137 398 
Q 2709 -91 1959 -91 
Q 1206 -91 779 398 
Q 353 888 353 1747 
Q 353 2609 779 3096 
Q 1206 3584 1959 3584 
z
" transform="scale(0.015625)"/>
       <path id="DejaVuSans-6c" d="M 603 4863 
L 1178 4863 
L 1178 0 
L 603 0 
L 603 4863 
z
" transform="scale(0.015625)"/>
       <path id="DejaVuSans-73" d="M 2834 3397 
L 2834 2853 
Q 2591 2978 2328 3040 
Q 2066 3103 1784 3103 
Q 1356 3103 1142 2972 
Q 928 2841 928 2578 
Q 928 2378 1081 2264 
Q 1234 2150 1697 2047 
L 1894 2003 
Q 2506 1872 2764 1633 
Q 3022 1394 3022 966 
Q 3022 478 2636 193 
Q 2250 -91 1575 -91 
Q 1294 -91 989 -36 
Q 684 19 347 128 
L 347 722 
Q 666 556 975 473 
Q 1284 391 1588 391 
Q 1994 391 2212 530 
Q 2431 669 2431 922 
Q 2431 1156 2273 1281 
Q 2116 1406 1581 1522 
L 1381 1569 
Q 847 1681 609 1914 
Q 372 2147 372 2553 
Q 372 3047 722 3315 
Q 1072 3584 1716 3584 
Q 2034 3584 2315 3537 
Q 2597 3491 2834 3397 
z
" transform="scale(0.015625)"/>
       <path id="DejaVuSans-69" d="M 603 3500 
L 1178 3500 
L 1178 0 
L 603 0 
L 603 3500 
z
M 603 4863 
L 1178 4863 
L 1178 4134 
L 603 4134 
L 603 4863 
z
" transform="scale(0.015625)"/>
       <path id="DejaVuSans-6e" d="M 3513 2113 
L 3513 0 
L 2938 0 
L 2938 2094 
Q 2938 2591 2744 2837 
Q 2550 3084 2163 3084 
Q 1697 3084 1428 2787 
Q 1159 2491 1159 1978 
L 1159 0 
L 581 0 
L 581 3500 
L 1159 3500 
L 1159 2956 
Q 1366 3272 1645 3428 
Q 1925 3584 2291 3584 
Q 2894 3584 3203 3211 
Q 3513 2838 3513 2113 
z
" transform="scale(0.015625)"/>
       <path id="DejaVuSans-62" d="M 3116 1747 
Q 3116 2381 2855 2742 
Q 2594 3103 2138 3103 
Q 1681 3103 1420 2742 
Q 1159 2381 1159 1747 
Q 1159 1113 1420 752 
Q 1681 391 2138 391 
Q 2594 391 2855 752 
Q 3116 1113 3116 1747 
z
M 1159 2969 
Q 1341 3281 1617 3432 
Q 1894 3584 2278 3584 
Q 2916 3584 3314 3078 
Q 3713 2572 3713 1747 
Q 3713 922 3314 415 
Q 2916 -91 2278 -91 
Q 1894 -91 1617 61 
Q 1341 213 1159 525 
L 1159 0 
L 581 0 
L 581 4863 
L 1159 4863 
L 1159 2969 
z
" transform="scale(0.015625)"/>
      </defs>
      <use xlink:href="#DejaVuSans-50"/>
      <use xlink:href="#DejaVuSans-79" x="60.302734"/>
      <use xlink:href="#DejaVuSans-72" x="119.482422"/>
      <use xlink:href="#DejaVuSans-6f" x="158.345703"/>
      <use xlink:href="#DejaVuSans-6c" x="219.527344"/>
      <use xlink:href="#DejaVuSans-79" x="247.310547"/>
      <use xlink:href="#DejaVuSans-73" x="306.490234"/>
      <use xlink:href="#DejaVuSans-69" x="358.589844"/>
      <use xlink:href="#DejaVuSans-73" x="386.373047"/>
      <use xlink:href="#DejaVuSans-20" x="438.472656"/>
      <use xlink:href="#DejaVuSans-6e" x="470.259766"/>
      <use xlink:href="#DejaVuSans-75" x="533.638672"/>
      <use xlink:href="#DejaVuSans-6d" x="597.017578"/>
      <use xlink:href="#DejaVuSans-62" x="694.429688"/>
      <use xlink:href="#DejaVuSans-65" x="757.90625"/>
      <use xlink:href="#DejaVuSans-72" x="819.429688"/>
     </g>
    </g>
   </g>
   <g id="line2d_13">
    <path d="M 57.6 243.670019 
L 57.6 243.669612 
L 57.710109 243.710683 
L 60.25803 244.615407 
L 61.331592 244.968302 
L 65.182102 246.08281 
L 65.683831 246.207711 
L 68.925806 246.893074 
L 71.914162 247.299614 
L 74.544665 247.438827 
L 76.960822 247.349139 
L 79.193465 247.046749 
L 81.282598 246.541055 
L 83.25832 245.839582 
L 83.432659 245.761473 
L 83.659116 245.662668 
L 85.552256 244.706982 
L 85.717419 244.606208 
L 87.613862 243.369949 
L 89.715108 241.723146 
L 93.098022 239.03016 
L 93.263185 238.933269 
L 94.229575 238.510601 
L 94.456032 238.451696 
L 95.3002 238.374839 
L 95.718981 238.417073 
L 96.676562 238.680752 
L 101.102208 241.18449 
L 107.656626 245.157739 
L 114.092126 248.737455 
L 119.383228 251.413371 
L 123.919349 253.464893 
L 127.73022 254.956039 
L 128.363346 255.17738 
L 129.760996 255.637367 
L 132.871573 256.494811 
L 135.746885 257.058277 
L 138.771578 257.420127 
L 138.976747 257.435593 
L 139.50894 257.477777 
L 150.580762 258.202877 
L 153.208328 258.058732 
L 153.382667 258.040275 
L 153.761809 258.005041 
L 156.746862 257.830902 
L 157.319062 257.855037 
L 158.838932 258.063777 
L 160.438815 258.506426 
L 162.598051 259.343158 
L 163.283296 259.636365 
L 170.51048 262.595615 
L 173.887154 263.614207 
L 176.058869 263.982236 
L 177.802261 264.011585 
L 179.328371 263.773302 
L 179.515189 263.720709 
L 180.952478 263.181784 
L 182.478955 262.315122 
L 182.634942 262.20509 
L 184.989806 260.442168 
L 187.241167 258.82349 
L 187.415506 258.709281 
L 192.410047 255.575448 
L 192.602738 255.467797 
L 192.758726 255.372869 
L 194.336954 254.599671 
L 194.572587 254.510712 
L 195.835536 254.171884 
L 196.181279 254.12229 
L 196.346442 254.099838 
L 197.762443 254.058011 
L 198.303812 254.086216 
L 205.234803 254.448234 
L 205.399966 254.4339 
L 207.510388 254.16304 
L 209.519876 253.679184 
L 211.455958 252.983845 
L 213.251101 252.106176 
L 214.961093 251.02357 
L 215.11708 250.903736 
L 216.737884 249.576106 
L 218.490451 247.840876 
L 224.005074 242.114646 
L 224.170237 241.984036 
L 225.656708 240.960245 
L 225.852702 240.846146 
L 227.216585 240.197653 
L 227.482681 240.103214 
L 228.684704 239.816382 
L 229.103852 239.769982 
L 230.367169 239.781722 
L 231.459082 239.940922 
L 233.395164 240.431579 
L 251.287867 246.243806 
L 258.619288 248.408579 
L 266.183038 250.446274 
L 269.813697 251.333564 
L 275.777931 252.619011 
L 280.781649 253.477567 
L 281.243372 253.543285 
L 285.553036 254.038302 
L 285.871251 254.063738 
L 289.602476 254.257455 
L 293.120089 254.223066 
L 296.750381 253.961843 
L 301.919629 253.330144 
L 306.525853 252.855711 
L 306.993816 252.826098 
L 307.180267 252.81196 
L 315.376043 252.174252 
L 317.057039 251.826765 
L 317.251565 251.773397 
L 318.620586 251.364115 
L 322.074337 249.779103 
L 322.184446 249.705886 
L 322.36062 249.599329 
L 323.990232 248.470199 
L 324.151725 248.350774 
L 324.3279 248.205758 
L 324.489393 248.081117 
L 324.661897 247.930005 
L 324.808709 247.808691 
L 325.762986 246.945947 
L 325.895117 246.82752 
L 326.071291 246.649842 
L 326.203422 246.516354 
L 326.91913 245.777024 
L 327.722925 244.877509 
L 327.855056 244.733028 
L 327.965165 244.590714 
L 328.071604 244.467052 
L 328.790982 243.581635 
L 328.897421 243.450537 
L 329.587437 242.561712 
L 329.690205 242.439756 
L 329.800314 242.281999 
L 329.903082 242.159522 
L 330.075586 241.921065 
L 330.178355 241.798423 
L 330.350859 241.560268 
L 330.453627 241.438123 
L 330.626131 241.201632 
L 330.73257 241.067183 
L 331.330828 240.311873 
L 331.433597 240.185642 
L 333.470612 238.288103 
L 333.676149 238.177145 
L 334.788249 237.836342 
L 335.225015 237.804851 
L 335.459914 237.802727 
L 339.978051 238.663771 
L 341.831551 239.08635 
L 342.708752 239.279042 
L 348.632613 240.430707 
L 355.811716 241.334531 
L 360.003197 241.489489 
L 363.152312 241.351895 
L 365.442578 241.082147 
L 365.659126 241.045288 
L 367.534648 240.679557 
L 369.145909 240.261703 
L 369.256018 240.224715 
L 369.571664 240.131396 
L 369.76986 240.065671 
L 374.159536 238.168571 
L 374.346721 238.059036 
L 375.67904 237.245892 
L 375.855214 237.130827 
L 376.963644 236.347516 
L 377.125137 236.231667 
L 377.301311 236.09225 
L 377.466475 235.963776 
L 378.402401 235.195082 
L 378.563894 235.061467 
L 378.740068 234.901288 
L 378.901561 234.763258 
L 379.074065 234.597901 
L 379.209866 234.473816 
L 380.054035 233.658734 
L 380.197177 233.513452 
L 380.901874 232.774249 
L 381.676307 231.904875 
L 381.804767 231.759637 
L 381.980941 231.544301 
L 382.113072 231.395048 
L 382.285576 231.173865 
L 382.392015 231.045617 
L 383.111393 230.122535 
L 383.217832 229.984711 
L 383.93721 228.993259 
L 384.039979 228.859809 
L 384.212483 228.598733 
L 384.315251 228.462087 
L 384.487755 228.194884 
L 384.590523 228.05498 
L 384.763027 227.781523 
L 384.865796 227.638299 
L 385.0383 227.358476 
L 385.141068 227.211869 
L 385.313572 226.925556 
L 385.397989 226.793726 
L 386.080664 225.669666 
L 386.183433 225.492651 
L 386.844086 224.332079 
L 386.943184 224.161677 
L 387.119359 223.829723 
L 387.218457 223.655447 
L 387.394631 223.316015 
L 387.493729 223.137779 
L 387.669903 222.790743 
L 387.769001 222.608473 
L 387.945176 222.253696 
L 388.044274 222.067318 
L 388.220448 221.704644 
L 388.319546 221.514081 
L 388.49572 221.143376 
L 388.594818 220.948553 
L 388.770993 220.569661 
L 388.870091 220.370497 
L 389.046265 219.983271 
L 389.145363 219.779676 
L 389.321538 219.383963 
L 389.420636 219.175873 
L 389.59681 218.771509 
L 389.695908 218.55882 
L 389.872082 218.145659 
L 389.952829 217.955244 
L 390.521725 216.625821 
L 390.697899 216.185241 
L 390.778646 215.982186 
L 391.32185 214.618416 
L 391.920109 213.040376 
L 391.989844 212.868318 
L 392.166018 212.375163 
L 392.246765 212.147831 
L 392.789969 210.621602 
L 393.388228 208.856799 
L 393.439612 208.699936 
L 393.979146 207.059903 
L 394.15532 206.486936 
L 394.228726 206.252202 
L 394.856347 204.183546 
L 394.907731 204.008459 
L 395.447265 202.178324 
L 395.623439 201.53939 
L 395.696845 201.277607 
L 396.324466 198.971293 
L 396.37585 198.776154 
L 396.915384 196.736869 
L 397.091558 196.025331 
L 397.164964 195.733789 
L 397.792585 193.166064 
L 397.836629 192.987283 
L 398.434888 190.42492 
L 398.478931 190.237636 
L 399.07719 187.553763 
L 399.121233 187.357626 
L 399.719492 184.547122 
L 399.763535 184.341759 
L 400.361794 181.3993 
L 400.405838 181.184317 
L 401.004096 178.104355 
L 401.04814 177.879352 
L 401.646398 174.656143 
L 401.690442 174.420679 
L 402.288701 171.048227 
L 402.332744 170.801911 
L 402.931003 167.273983 
L 402.975046 167.016323 
L 403.573305 163.326447 
L 403.617348 163.057003 
L 404.215607 159.198457 
L 404.259651 158.916729 
L 404.857909 154.88251 
L 404.901953 154.587995 
L 405.500211 150.37085 
L 405.544255 150.062996 
L 406.142513 145.65538 
L 406.186557 145.333647 
L 406.784816 140.727685 
L 406.828859 140.391509 
L 407.427118 135.579058 
L 407.471161 135.227855 
L 408.06942 130.200423 
L 408.113464 129.833558 
L 408.711722 124.582354 
L 408.755766 124.199186 
L 409.354024 118.715035 
L 409.398068 118.314923 
L 409.996326 112.588299 
L 410.04037 112.170532 
L 410.638629 106.191576 
L 410.682672 105.755429 
L 411.280931 99.513849 
L 411.321304 99.157654 
L 411.508489 97.09187 
L 412.106748 90.496893 
L 412.147121 90.120499 
L 412.334306 87.938055 
L 412.932565 80.971133 
L 412.972938 80.573495 
L 413.160123 78.268282 
L 413.758382 70.90993 
L 413.798755 70.489935 
L 413.98594 68.055529 
L 414.584199 60.285283 
L 414.624572 59.841766 
L 414.72 58.250037 
L 414.72 58.250037 
" clip-path="url(#p7303bc91c5)" style="fill: none; stroke: #1f77b4; stroke-width: 1.5; stroke-linecap: square"/>
   </g>
   <g id="line2d_14">
    <path d="M 57.6 236.026389 
L 57.6 236.025982 
L 57.710109 236.068568 
L 60.260966 237.008851 
L 64.206536 238.270365 
L 67.69332 239.152276 
L 70.760955 239.704286 
L 73.535333 239.98134 
L 76.043248 240.011525 
L 78.364711 239.819572 
L 78.53905 239.792513 
L 78.896904 239.738087 
L 81.007326 239.285577 
L 82.995526 238.632392 
L 84.909954 237.773394 
L 85.075117 237.682361 
L 86.97156 236.555865 
L 88.950585 235.11408 
L 93.60856 231.57158 
L 94.526135 231.267034 
L 95.361127 231.218169 
L 95.801563 231.276755 
L 96.76832 231.573223 
L 101.316186 234.229115 
L 107.800502 238.226799 
L 113.296773 241.360983 
L 118.606593 244.144266 
L 122.45123 245.978331 
L 126.479382 247.686035 
L 129.996629 248.940016 
L 133.052152 249.799665 
L 133.330361 249.86451 
L 136.205672 250.421641 
L 139.322122 250.791958 
L 139.527292 250.807813 
L 140.056182 250.853508 
L 140.261352 250.867697 
L 140.790241 250.910147 
L 140.995411 250.923442 
L 141.524301 250.964575 
L 141.729471 250.977745 
L 142.261664 251.017683 
L 151.678915 251.620692 
L 151.853254 251.610486 
L 152.259923 251.591341 
L 152.446741 251.577259 
L 157.358701 251.364012 
L 158.101936 251.450056 
L 158.358857 251.490159 
L 159.897446 251.864809 
L 162.84286 253.00588 
L 163.50645 253.298068 
L 165.66899 254.255336 
L 170.418722 256.193203 
L 173.856691 257.269072 
L 176.055933 257.665274 
L 176.373781 257.692961 
L 178.016239 257.694343 
L 179.515189 257.434407 
L 180.949542 256.914332 
L 181.114705 256.831295 
L 182.582824 255.981396 
L 184.714533 254.415353 
L 187.118579 252.686243 
L 187.292918 252.572602 
L 191.859503 249.732795 
L 192.052193 249.621489 
L 192.208181 249.522679 
L 194.000387 248.582099 
L 194.226845 248.487977 
L 195.499337 248.094255 
L 195.814249 248.036711 
L 195.970236 248.008596 
L 197.303656 247.920822 
L 197.802449 247.936419 
L 197.9889 247.94413 
L 200.57646 248.202425 
L 201.166644 248.265822 
L 201.383926 248.284893 
L 203.980662 248.420916 
L 204.155001 248.417974 
L 204.564973 248.411323 
L 206.733385 248.243738 
L 206.889373 248.21896 
L 208.905101 247.824386 
L 209.061088 247.780104 
L 211.027634 247.144865 
L 212.862783 246.318838 
L 214.566535 245.308399 
L 216.187339 244.086756 
L 217.869804 242.530481 
L 220.038216 240.193719 
L 220.194203 240.009718 
L 222.72047 237.327047 
L 222.85517 237.200239 
L 224.402934 235.900931 
L 224.568098 235.779731 
L 226.023738 234.858358 
L 226.228908 234.750671 
L 227.522688 234.209859 
L 227.810072 234.124374 
L 229.012095 233.909415 
L 230.266235 233.914661 
L 231.755642 234.155227 
L 233.893591 234.752837 
L 235.303719 235.217458 
L 252.550817 240.939868 
L 255.84491 241.944812 
L 262.24958 243.797536 
L 269.467955 245.68655 
L 275.49018 247.040362 
L 276.196712 247.181502 
L 280.977275 248.020495 
L 285.430815 248.573554 
L 285.748663 248.601754 
L 289.471079 248.827926 
L 293.019156 248.824512 
L 296.637336 248.594726 
L 301.518832 248.038137 
L 301.693172 248.014317 
L 302.103144 247.964729 
L 306.648074 247.53479 
L 307.116037 247.508956 
L 307.302488 247.496312 
L 314.946618 246.988209 
L 315.152155 246.954479 
L 315.4678 246.906532 
L 315.4678 246.903064 
L 317.130445 246.560151 
L 320.433713 245.41455 
L 324.104012 243.181878 
L 325.091322 242.367924 
L 325.227123 242.249315 
L 326.130016 241.401478 
L 326.262147 241.278929 
L 326.438321 241.095217 
L 326.570452 240.968529 
L 326.680561 240.842903 
L 326.79434 240.724061 
L 327.488026 239.977094 
L 327.598135 239.839872 
L 327.704574 239.720661 
L 328.456985 238.826524 
L 328.570764 238.687562 
L 329.282802 237.789961 
L 329.396581 237.644453 
L 330.046224 236.797626 
L 330.148992 236.675611 
L 330.259101 236.518139 
L 330.36187 236.396399 
L 330.534374 236.160251 
L 330.637142 236.039494 
L 330.809646 235.806037 
L 330.916085 235.673716 
L 331.484981 234.972195 
L 331.617112 234.82615 
L 331.727221 234.686606 
L 331.841 234.558789 
L 333.595402 233.078275 
L 333.81929 232.974444 
L 333.929399 232.922085 
L 334.197331 232.827856 
L 334.846974 232.694805 
L 335.53332 232.675073 
L 336.77388 232.830187 
L 350.977934 235.760643 
L 350.977934 235.76033 
L 357.158716 236.420251 
L 359.907769 236.507205 
L 360.194052 236.505384 
L 363.130291 236.388121 
L 365.442578 236.129899 
L 365.659126 236.094286 
L 367.527308 235.741386 
L 371.590328 234.48581 
L 371.777513 234.405401 
L 372.948338 233.883002 
L 374.005384 233.349309 
L 374.192569 233.242655 
L 375.172539 232.672434 
L 376.321342 231.921149 
L 376.486505 231.805645 
L 377.345355 231.174574 
L 378.310643 230.394417 
L 378.472136 230.262901 
L 378.648311 230.105096 
L 378.809804 229.969188 
L 378.982308 229.806224 
L 379.118109 229.683965 
L 379.962277 228.880559 
L 380.105419 228.737301 
L 380.828468 227.996565 
L 381.000972 227.80016 
L 381.125762 227.666182 
L 381.257893 227.517043 
L 381.95892 226.719801 
L 382.135094 226.502561 
L 382.263554 226.351946 
L 382.439729 226.128759 
L 382.571859 225.974009 
L 382.744363 225.744755 
L 382.850802 225.611849 
L 383.57018 224.655258 
L 383.672949 224.526547 
L 383.845453 224.274435 
L 383.948221 224.142608 
L 384.120725 223.884517 
L 384.223494 223.749513 
L 384.395998 223.485317 
L 384.498766 223.347081 
L 384.67127 223.076672 
L 384.774038 222.93513 
L 384.946542 222.658393 
L 385.049311 222.513502 
L 385.221815 222.230307 
L 385.306231 222.099962 
L 385.988907 220.988182 
L 386.091675 220.813076 
L 386.752329 219.664839 
L 386.851427 219.496281 
L 387.027601 219.167752 
L 387.126699 218.995315 
L 387.302874 218.659357 
L 387.401972 218.482995 
L 387.578146 218.13948 
L 387.677244 217.959106 
L 387.853418 217.607894 
L 387.952516 217.423442 
L 388.128691 217.064384 
L 388.227789 216.875773 
L 388.403963 216.508728 
L 388.503061 216.315878 
L 388.679235 215.9407 
L 388.778333 215.743533 
L 388.954508 215.360074 
L 389.053606 215.158506 
L 389.22978 214.766607 
L 389.328878 214.560564 
L 389.505052 214.160074 
L 389.60415 213.949465 
L 389.780325 213.540224 
L 389.861071 213.351621 
L 390.429968 212.034812 
L 390.606142 211.598314 
L 390.686888 211.39714 
L 391.230092 210.045981 
L 391.828351 208.482298 
L 391.898087 208.311841 
L 392.074261 207.82308 
L 392.155008 207.597774 
L 392.698212 206.085145 
L 393.29647 204.335793 
L 393.347854 204.180289 
L 393.887388 202.55448 
L 394.063563 201.986387 
L 394.136969 201.753667 
L 394.76459 199.702516 
L 394.815974 199.528899 
L 395.355508 197.71411 
L 395.531682 197.080455 
L 395.605088 196.820838 
L 396.232709 194.533446 
L 396.284093 194.3399 
L 396.823627 192.317198 
L 396.999801 191.611367 
L 397.073207 191.322172 
L 397.671466 188.901271 
L 397.744872 188.597538 
L 398.34313 186.055352 
L 398.387174 185.869542 
L 398.985432 183.206563 
L 399.029476 183.011952 
L 399.627734 180.223075 
L 399.671778 180.019292 
L 400.270037 177.099235 
L 400.31408 176.885896 
L 400.912339 173.829127 
L 400.956382 173.60582 
L 401.554641 170.406639 
L 401.598684 170.172942 
L 402.196943 166.825381 
L 402.240987 166.580881 
L 402.839245 163.078744 
L 402.883289 162.822987 
L 403.481547 159.159844 
L 403.525591 158.892354 
L 404.12385 155.061515 
L 404.167893 154.781802 
L 404.766152 150.776317 
L 404.810195 150.483883 
L 405.408454 146.296516 
L 405.452497 145.990833 
L 406.050756 141.614081 
L 406.0948 141.294589 
L 406.693058 136.720639 
L 406.737102 136.386806 
L 407.33536 131.607535 
L 407.379404 131.258746 
L 407.977662 126.26573 
L 408.021706 125.901371 
L 408.619965 120.685852 
L 408.664008 120.305278 
L 409.262267 114.858146 
L 409.30631 114.460721 
L 409.904569 108.772504 
L 409.948613 108.357528 
L 410.546871 102.418399 
L 410.590915 101.985152 
L 411.189173 95.784887 
L 411.229547 95.431085 
L 411.416732 93.378874 
L 412.01499 86.827213 
L 412.055364 86.453334 
L 412.242549 84.28512 
L 412.840807 77.363619 
L 412.881181 76.96861 
L 413.068366 74.678323 
L 413.666624 67.367592 
L 413.706998 66.950353 
L 413.894183 64.531613 
L 414.492442 56.811303 
L 414.532815 56.370673 
L 414.72 53.568 
L 414.72 53.568 
" clip-path="url(#p7303bc91c5)" style="fill: none; stroke-dasharray: 5.55,2.4; stroke-dashoffset: 0; stroke: #ff7f0e; stroke-width: 1.5"/>
   </g>
   <g id="line2d_15">
    <path d="M 57.6 280.707789 
L 126.234573 281.540801 
L 210.896237 282.336681 
L 318.117755 283.112975 
L 414.72 283.669382 
L 414.72 283.669382 
" clip-path="url(#p7303bc91c5)" style="fill: none; stroke: #ff0000; stroke-width: 1.5; stroke-linecap: square"/>
   </g>
   <g id="line2d_16">
    <path d="M -1 295.488 
L 461.8 295.488 
" clip-path="url(#p7303bc91c5)" style="fill: none; stroke-dasharray: 5.55,2.4; stroke-dashoffset: 0; stroke: #2ca02c; stroke-width: 1.5"/>
   </g>
   <g id="line2d_17">
    <path d="M -1 281.214838 
L 461.8 281.214838 
" clip-path="url(#p7303bc91c5)" style="fill: none; stroke-dasharray: 5.55,2.4; stroke-dashoffset: 0; stroke: #d62728; stroke-width: 1.5"/>
   </g>
   <g id="patch_3">
    <path d="M 57.6 307.584 
L 57.6 41.472 
" style="fill: none; stroke: #000000; stroke-width: 0.8; stroke-linejoin: miter; stroke-linecap: square"/>
   </g>
   <g id="patch_4">
    <path d="M 414.72 307.584 
L 414.72 41.472 
" style="fill: none; stroke: #000000; stroke-width: 0.8; stroke-linejoin: miter; stroke-linecap: square"/>
   </g>
   <g id="patch_5">
    <path d="M 57.6 307.584 
L 414.72 307.584 
" style="fill: none; stroke: #000000; stroke-width: 0.8; stroke-linejoin: miter; stroke-linecap: square"/>
   </g>
   <g id="patch_6">
    <path d="M 57.6 41.472 
L 414.72 41.472 
" style="fill: none; stroke: #000000; stroke-width: 0.8; stroke-linejoin: miter; stroke-linecap: square"/>
   </g>
   <g id="legend_1">
    <g id="patch_7">
     <path d="M 306.121563 93.506375 
L 407.72 93.506375 
Q 409.72 93.506375 409.72 91.506375 
L 409.72 48.472 
Q 409.72 46.472 407.72 46.472 
L 306.121563 46.472 
Q 304.121563 46.472 304.121563 48.472 
L 304.121563 91.506375 
Q 304.121563 93.506375 306.121563 93.506375 
z
" style="fill: #ffffff; opacity: 0.8; stroke: #cccccc; stroke-linejoin: miter"/>
    </g>
    <g id="line2d_18">
     <path d="M 308.121563 54.570438 
L 318.121563 54.570438 
L 328.121563 54.570438 
" style="fill: none; stroke: #1f77b4; stroke-width: 1.5; stroke-linecap: square"/>
    </g>
    <g id="text_15">
     <!-- Py2 0.177mm -->
     <g transform="translate(336.121563 58.070438)scale(0.1 -0.1)">
      <defs>
       <path id="DejaVuSans-2e" d="M 684 794 
L 1344 794 
L 1344 0 
L 684 0 
L 684 794 
z
" transform="scale(0.015625)"/>
      </defs>
      <use xlink:href="#DejaVuSans-50"/>
      <use xlink:href="#DejaVuSans-79" x="60.302734"/>
      <use xlink:href="#DejaVuSans-32" x="119.482422"/>
      <use xlink:href="#DejaVuSans-20" x="183.105469"/>
      <use xlink:href="#DejaVuSans-30" x="214.892578"/>
      <use xlink:href="#DejaVuSans-2e" x="278.515625"/>
      <use xlink:href="#DejaVuSans-31" x="310.302734"/>
      <use xlink:href="#DejaVuSans-37" x="373.925781"/>
      <use xlink:href="#DejaVuSans-37" x="437.548828"/>
      <use xlink:href="#DejaVuSans-6d" x="501.171875"/>
      <use xlink:href="#DejaVuSans-6d" x="598.583984"/>
     </g>
    </g>
    <g id="line2d_19">
     <path d="M 308.121563 69.248563 
L 318.121563 69.248563 
L 328.121563 69.248563 
" style="fill: none; stroke-dasharray: 5.55,2.4; stroke-dashoffset: 0; stroke: #ff7f0e; stroke-width: 1.5"/>
    </g>
    <g id="text_16">
     <!-- Py1 0.177mm -->
     <g transform="translate(336.121563 72.748563)scale(0.1 -0.1)">
      <use xlink:href="#DejaVuSans-50"/>
      <use xlink:href="#DejaVuSans-79" x="60.302734"/>
      <use xlink:href="#DejaVuSans-31" x="119.482422"/>
      <use xlink:href="#DejaVuSans-20" x="183.105469"/>
      <use xlink:href="#DejaVuSans-30" x="214.892578"/>
      <use xlink:href="#DejaVuSans-2e" x="278.515625"/>
      <use xlink:href="#DejaVuSans-31" x="310.302734"/>
      <use xlink:href="#DejaVuSans-37" x="373.925781"/>
      <use xlink:href="#DejaVuSans-37" x="437.548828"/>
      <use xlink:href="#DejaVuSans-6d" x="501.171875"/>
      <use xlink:href="#DejaVuSans-6d" x="598.583984"/>
     </g>
    </g>
    <g id="line2d_20">
     <path d="M 308.121563 83.926688 
L 318.121563 83.926688 
L 328.121563 83.926688 
" style="fill: none; stroke: #ff0000; stroke-width: 1.5; stroke-linecap: square"/>
    </g>
    <g id="text_17">
     <!-- Bi -->
     <g transform="translate(336.121563 87.426688)scale(0.1 -0.1)">
      <defs>
       <path id="DejaVuSans-42" d="M 1259 2228 
L 1259 519 
L 2272 519 
Q 2781 519 3026 730 
Q 3272 941 3272 1375 
Q 3272 1813 3026 2020 
Q 2781 2228 2272 2228 
L 1259 2228 
z
M 1259 4147 
L 1259 2741 
L 2194 2741 
Q 2656 2741 2882 2914 
Q 3109 3088 3109 3444 
Q 3109 3797 2882 3972 
Q 2656 4147 2194 4147 
L 1259 4147 
z
M 628 4666 
L 2241 4666 
Q 2963 4666 3353 4366 
Q 3744 4066 3744 3513 
Q 3744 3084 3544 2831 
Q 3344 2578 2956 2516 
Q 3422 2416 3680 2098 
Q 3938 1781 3938 1306 
Q 3938 681 3513 340 
Q 3088 0 2303 0 
L 628 0 
L 628 4666 
z
" transform="scale(0.015625)"/>
      </defs>
      <use xlink:href="#DejaVuSans-42"/>
      <use xlink:href="#DejaVuSans-69" x="68.603516"/>
     </g>
    </g>
   </g>
  </g>
 </g>
 <defs>
  <clipPath id="p7303bc91c5">
   <rect x="57.6" y="41.472" width="357.12" height="266.112"/>
  </clipPath>
 </defs>
</svg>
