<?xml version="1.0" encoding="utf-8" standalone="no"?>
<!DOCTYPE svg PUBLIC "-//W3C//DTD SVG 1.1//EN"
  "http://www.w3.org/Graphics/SVG/1.1/DTD/svg11.dtd">
<svg xmlns:xlink="http://www.w3.org/1999/xlink" width="460.8pt" height="345.6pt" viewBox="0 0 460.8 345.6" xmlns="http://www.w3.org/2000/svg" version="1.1">
 <metadata>
  <rdf:RDF xmlns:dc="http://purl.org/dc/elements/1.1/" xmlns:cc="http://creativecommons.org/ns#" xmlns:rdf="http://www.w3.org/1999/02/22-rdf-syntax-ns#">
   <cc:Work>
    <dc:type rdf:resource="http://purl.org/dc/dcmitype/StillImage"/>
    <dc:date>2022-04-26T11:50:21.458719</dc:date>
    <dc:format>image/svg+xml</dc:format>
    <dc:creator>
     <cc:Agent>
      <dc:title>Matplotlib v3.5.1, https://matplotlib.org/</dc:title>
     </cc:Agent>
    </dc:creator>
   </cc:Work>
  </rdf:RDF>
 </metadata>
 <defs>
  <style type="text/css">*{stroke-linejoin: round; stroke-linecap: butt}</style>
 </defs>
 <g id="figure_1">
  <g id="patch_1">
   <path d="M 0 345.6 
L 460.8 345.6 
L 460.8 0 
L 0 0 
z
" style="fill: #ffffff"/>
  </g>
  <g id="axes_1">
   <g id="patch_2">
    <path d="M 57.6 307.584 
L 414.72 307.584 
L 414.72 41.472 
L 57.6 41.472 
z
" style="fill: #ffffff"/>
   </g>
   <g id="matplotlib.axis_1">
    <g id="xtick_1">
     <g id="line2d_1">
      <defs>
       <path id="mfd1b053bae" d="M 0 0 
L 0 3.5 
" style="stroke: #000000; stroke-width: 0.8"/>
      </defs>
      <g>
       <use xlink:href="#mfd1b053bae" x="94.30298" y="307.584" style="stroke: #000000; stroke-width: 0.8"/>
      </g>
     </g>
     <g id="text_1">
      <!-- 400 -->
      <g transform="translate(84.75923 322.182437)scale(0.1 -0.1)">
       <defs>
        <path id="DejaVuSans-34" d="M 2419 4116 
L 825 1625 
L 2419 1625 
L 2419 4116 
z
M 2253 4666 
L 3047 4666 
L 3047 1625 
L 3713 1625 
L 3713 1100 
L 3047 1100 
L 3047 0 
L 2419 0 
L 2419 1100 
L 313 1100 
L 313 1709 
L 2253 4666 
z
" transform="scale(0.015625)"/>
        <path id="DejaVuSans-30" d="M 2034 4250 
Q 1547 4250 1301 3770 
Q 1056 3291 1056 2328 
Q 1056 1369 1301 889 
Q 1547 409 2034 409 
Q 2525 409 2770 889 
Q 3016 1369 3016 2328 
Q 3016 3291 2770 3770 
Q 2525 4250 2034 4250 
z
M 2034 4750 
Q 2819 4750 3233 4129 
Q 3647 3509 3647 2328 
Q 3647 1150 3233 529 
Q 2819 -91 2034 -91 
Q 1250 -91 836 529 
Q 422 1150 422 2328 
Q 422 3509 836 4129 
Q 1250 4750 2034 4750 
z
" transform="scale(0.015625)"/>
       </defs>
       <use xlink:href="#DejaVuSans-34"/>
       <use xlink:href="#DejaVuSans-30" x="63.623047"/>
       <use xlink:href="#DejaVuSans-30" x="127.246094"/>
      </g>
     </g>
    </g>
    <g id="xtick_2">
     <g id="line2d_2">
      <g>
       <use xlink:href="#mfd1b053bae" x="167.708941" y="307.584" style="stroke: #000000; stroke-width: 0.8"/>
      </g>
     </g>
     <g id="text_2">
      <!-- 600 -->
      <g transform="translate(158.165191 322.182437)scale(0.1 -0.1)">
       <defs>
        <path id="DejaVuSans-36" d="M 2113 2584 
Q 1688 2584 1439 2293 
Q 1191 2003 1191 1497 
Q 1191 994 1439 701 
Q 1688 409 2113 409 
Q 2538 409 2786 701 
Q 3034 994 3034 1497 
Q 3034 2003 2786 2293 
Q 2538 2584 2113 2584 
z
M 3366 4563 
L 3366 3988 
Q 3128 4100 2886 4159 
Q 2644 4219 2406 4219 
Q 1781 4219 1451 3797 
Q 1122 3375 1075 2522 
Q 1259 2794 1537 2939 
Q 1816 3084 2150 3084 
Q 2853 3084 3261 2657 
Q 3669 2231 3669 1497 
Q 3669 778 3244 343 
Q 2819 -91 2113 -91 
Q 1303 -91 875 529 
Q 447 1150 447 2328 
Q 447 3434 972 4092 
Q 1497 4750 2381 4750 
Q 2619 4750 2861 4703 
Q 3103 4656 3366 4563 
z
" transform="scale(0.015625)"/>
       </defs>
       <use xlink:href="#DejaVuSans-36"/>
       <use xlink:href="#DejaVuSans-30" x="63.623047"/>
       <use xlink:href="#DejaVuSans-30" x="127.246094"/>
      </g>
     </g>
    </g>
    <g id="xtick_3">
     <g id="line2d_3">
      <g>
       <use xlink:href="#mfd1b053bae" x="241.114902" y="307.584" style="stroke: #000000; stroke-width: 0.8"/>
      </g>
     </g>
     <g id="text_3">
      <!-- 800 -->
      <g transform="translate(231.571152 322.182437)scale(0.1 -0.1)">
       <defs>
        <path id="DejaVuSans-38" d="M 2034 2216 
Q 1584 2216 1326 1975 
Q 1069 1734 1069 1313 
Q 1069 891 1326 650 
Q 1584 409 2034 409 
Q 2484 409 2743 651 
Q 3003 894 3003 1313 
Q 3003 1734 2745 1975 
Q 2488 2216 2034 2216 
z
M 1403 2484 
Q 997 2584 770 2862 
Q 544 3141 544 3541 
Q 544 4100 942 4425 
Q 1341 4750 2034 4750 
Q 2731 4750 3128 4425 
Q 3525 4100 3525 3541 
Q 3525 3141 3298 2862 
Q 3072 2584 2669 2484 
Q 3125 2378 3379 2068 
Q 3634 1759 3634 1313 
Q 3634 634 3220 271 
Q 2806 -91 2034 -91 
Q 1263 -91 848 271 
Q 434 634 434 1313 
Q 434 1759 690 2068 
Q 947 2378 1403 2484 
z
M 1172 3481 
Q 1172 3119 1398 2916 
Q 1625 2713 2034 2713 
Q 2441 2713 2670 2916 
Q 2900 3119 2900 3481 
Q 2900 3844 2670 4047 
Q 2441 4250 2034 4250 
Q 1625 4250 1398 4047 
Q 1172 3844 1172 3481 
z
" transform="scale(0.015625)"/>
       </defs>
       <use xlink:href="#DejaVuSans-38"/>
       <use xlink:href="#DejaVuSans-30" x="63.623047"/>
       <use xlink:href="#DejaVuSans-30" x="127.246094"/>
      </g>
     </g>
    </g>
    <g id="xtick_4">
     <g id="line2d_4">
      <g>
       <use xlink:href="#mfd1b053bae" x="314.520863" y="307.584" style="stroke: #000000; stroke-width: 0.8"/>
      </g>
     </g>
     <g id="text_4">
      <!-- 1000 -->
      <g transform="translate(301.795863 322.182437)scale(0.1 -0.1)">
       <defs>
        <path id="DejaVuSans-31" d="M 794 531 
L 1825 531 
L 1825 4091 
L 703 3866 
L 703 4441 
L 1819 4666 
L 2450 4666 
L 2450 531 
L 3481 531 
L 3481 0 
L 794 0 
L 794 531 
z
" transform="scale(0.015625)"/>
       </defs>
       <use xlink:href="#DejaVuSans-31"/>
       <use xlink:href="#DejaVuSans-30" x="63.623047"/>
       <use xlink:href="#DejaVuSans-30" x="127.246094"/>
       <use xlink:href="#DejaVuSans-30" x="190.869141"/>
      </g>
     </g>
    </g>
    <g id="xtick_5">
     <g id="line2d_5">
      <g>
       <use xlink:href="#mfd1b053bae" x="387.926824" y="307.584" style="stroke: #000000; stroke-width: 0.8"/>
      </g>
     </g>
     <g id="text_5">
      <!-- 1200 -->
      <g transform="translate(375.201824 322.182437)scale(0.1 -0.1)">
       <defs>
        <path id="DejaVuSans-32" d="M 1228 531 
L 3431 531 
L 3431 0 
L 469 0 
L 469 531 
Q 828 903 1448 1529 
Q 2069 2156 2228 2338 
Q 2531 2678 2651 2914 
Q 2772 3150 2772 3378 
Q 2772 3750 2511 3984 
Q 2250 4219 1831 4219 
Q 1534 4219 1204 4116 
Q 875 4013 500 3803 
L 500 4441 
Q 881 4594 1212 4672 
Q 1544 4750 1819 4750 
Q 2544 4750 2975 4387 
Q 3406 4025 3406 3419 
Q 3406 3131 3298 2873 
Q 3191 2616 2906 2266 
Q 2828 2175 2409 1742 
Q 1991 1309 1228 531 
z
" transform="scale(0.015625)"/>
       </defs>
       <use xlink:href="#DejaVuSans-31"/>
       <use xlink:href="#DejaVuSans-32" x="63.623047"/>
       <use xlink:href="#DejaVuSans-30" x="127.246094"/>
       <use xlink:href="#DejaVuSans-30" x="190.869141"/>
      </g>
     </g>
    </g>
    <g id="text_6">
     <!-- Temperature (K) -->
     <g transform="translate(195.720937 335.860562)scale(0.1 -0.1)">
      <defs>
       <path id="DejaVuSans-54" d="M -19 4666 
L 3928 4666 
L 3928 4134 
L 2272 4134 
L 2272 0 
L 1638 0 
L 1638 4134 
L -19 4134 
L -19 4666 
z
" transform="scale(0.015625)"/>
       <path id="DejaVuSans-65" d="M 3597 1894 
L 3597 1613 
L 953 1613 
Q 991 1019 1311 708 
Q 1631 397 2203 397 
Q 2534 397 2845 478 
Q 3156 559 3463 722 
L 3463 178 
Q 3153 47 2828 -22 
Q 2503 -91 2169 -91 
Q 1331 -91 842 396 
Q 353 884 353 1716 
Q 353 2575 817 3079 
Q 1281 3584 2069 3584 
Q 2775 3584 3186 3129 
Q 3597 2675 3597 1894 
z
M 3022 2063 
Q 3016 2534 2758 2815 
Q 2500 3097 2075 3097 
Q 1594 3097 1305 2825 
Q 1016 2553 972 2059 
L 3022 2063 
z
" transform="scale(0.015625)"/>
       <path id="DejaVuSans-6d" d="M 3328 2828 
Q 3544 3216 3844 3400 
Q 4144 3584 4550 3584 
Q 5097 3584 5394 3201 
Q 5691 2819 5691 2113 
L 5691 0 
L 5113 0 
L 5113 2094 
Q 5113 2597 4934 2840 
Q 4756 3084 4391 3084 
Q 3944 3084 3684 2787 
Q 3425 2491 3425 1978 
L 3425 0 
L 2847 0 
L 2847 2094 
Q 2847 2600 2669 2842 
Q 2491 3084 2119 3084 
Q 1678 3084 1418 2786 
Q 1159 2488 1159 1978 
L 1159 0 
L 581 0 
L 581 3500 
L 1159 3500 
L 1159 2956 
Q 1356 3278 1631 3431 
Q 1906 3584 2284 3584 
Q 2666 3584 2933 3390 
Q 3200 3197 3328 2828 
z
" transform="scale(0.015625)"/>
       <path id="DejaVuSans-70" d="M 1159 525 
L 1159 -1331 
L 581 -1331 
L 581 3500 
L 1159 3500 
L 1159 2969 
Q 1341 3281 1617 3432 
Q 1894 3584 2278 3584 
Q 2916 3584 3314 3078 
Q 3713 2572 3713 1747 
Q 3713 922 3314 415 
Q 2916 -91 2278 -91 
Q 1894 -91 1617 61 
Q 1341 213 1159 525 
z
M 3116 1747 
Q 3116 2381 2855 2742 
Q 2594 3103 2138 3103 
Q 1681 3103 1420 2742 
Q 1159 2381 1159 1747 
Q 1159 1113 1420 752 
Q 1681 391 2138 391 
Q 2594 391 2855 752 
Q 3116 1113 3116 1747 
z
" transform="scale(0.015625)"/>
       <path id="DejaVuSans-72" d="M 2631 2963 
Q 2534 3019 2420 3045 
Q 2306 3072 2169 3072 
Q 1681 3072 1420 2755 
Q 1159 2438 1159 1844 
L 1159 0 
L 581 0 
L 581 3500 
L 1159 3500 
L 1159 2956 
Q 1341 3275 1631 3429 
Q 1922 3584 2338 3584 
Q 2397 3584 2469 3576 
Q 2541 3569 2628 3553 
L 2631 2963 
z
" transform="scale(0.015625)"/>
       <path id="DejaVuSans-61" d="M 2194 1759 
Q 1497 1759 1228 1600 
Q 959 1441 959 1056 
Q 959 750 1161 570 
Q 1363 391 1709 391 
Q 2188 391 2477 730 
Q 2766 1069 2766 1631 
L 2766 1759 
L 2194 1759 
z
M 3341 1997 
L 3341 0 
L 2766 0 
L 2766 531 
Q 2569 213 2275 61 
Q 1981 -91 1556 -91 
Q 1019 -91 701 211 
Q 384 513 384 1019 
Q 384 1609 779 1909 
Q 1175 2209 1959 2209 
L 2766 2209 
L 2766 2266 
Q 2766 2663 2505 2880 
Q 2244 3097 1772 3097 
Q 1472 3097 1187 3025 
Q 903 2953 641 2809 
L 641 3341 
Q 956 3463 1253 3523 
Q 1550 3584 1831 3584 
Q 2591 3584 2966 3190 
Q 3341 2797 3341 1997 
z
" transform="scale(0.015625)"/>
       <path id="DejaVuSans-74" d="M 1172 4494 
L 1172 3500 
L 2356 3500 
L 2356 3053 
L 1172 3053 
L 1172 1153 
Q 1172 725 1289 603 
Q 1406 481 1766 481 
L 2356 481 
L 2356 0 
L 1766 0 
Q 1100 0 847 248 
Q 594 497 594 1153 
L 594 3053 
L 172 3053 
L 172 3500 
L 594 3500 
L 594 4494 
L 1172 4494 
z
" transform="scale(0.015625)"/>
       <path id="DejaVuSans-75" d="M 544 1381 
L 544 3500 
L 1119 3500 
L 1119 1403 
Q 1119 906 1312 657 
Q 1506 409 1894 409 
Q 2359 409 2629 706 
Q 2900 1003 2900 1516 
L 2900 3500 
L 3475 3500 
L 3475 0 
L 2900 0 
L 2900 538 
Q 2691 219 2414 64 
Q 2138 -91 1772 -91 
Q 1169 -91 856 284 
Q 544 659 544 1381 
z
M 1991 3584 
L 1991 3584 
z
" transform="scale(0.015625)"/>
       <path id="DejaVuSans-20" transform="scale(0.015625)"/>
       <path id="DejaVuSans-28" d="M 1984 4856 
Q 1566 4138 1362 3434 
Q 1159 2731 1159 2009 
Q 1159 1288 1364 580 
Q 1569 -128 1984 -844 
L 1484 -844 
Q 1016 -109 783 600 
Q 550 1309 550 2009 
Q 550 2706 781 3412 
Q 1013 4119 1484 4856 
L 1984 4856 
z
" transform="scale(0.015625)"/>
       <path id="DejaVuSans-4b" d="M 628 4666 
L 1259 4666 
L 1259 2694 
L 3353 4666 
L 4166 4666 
L 1850 2491 
L 4331 0 
L 3500 0 
L 1259 2247 
L 1259 0 
L 628 0 
L 628 4666 
z
" transform="scale(0.015625)"/>
       <path id="DejaVuSans-29" d="M 513 4856 
L 1013 4856 
Q 1481 4119 1714 3412 
Q 1947 2706 1947 2009 
Q 1947 1309 1714 600 
Q 1481 -109 1013 -844 
L 513 -844 
Q 928 -128 1133 580 
Q 1338 1288 1338 2009 
Q 1338 2731 1133 3434 
Q 928 4138 513 4856 
z
" transform="scale(0.015625)"/>
      </defs>
      <use xlink:href="#DejaVuSans-54"/>
      <use xlink:href="#DejaVuSans-65" x="44.083984"/>
      <use xlink:href="#DejaVuSans-6d" x="105.607422"/>
      <use xlink:href="#DejaVuSans-70" x="203.019531"/>
      <use xlink:href="#DejaVuSans-65" x="266.496094"/>
      <use xlink:href="#DejaVuSans-72" x="328.019531"/>
      <use xlink:href="#DejaVuSans-61" x="369.132812"/>
      <use xlink:href="#DejaVuSans-74" x="430.412109"/>
      <use xlink:href="#DejaVuSans-75" x="469.621094"/>
      <use xlink:href="#DejaVuSans-72" x="533"/>
      <use xlink:href="#DejaVuSans-65" x="571.863281"/>
      <use xlink:href="#DejaVuSans-20" x="633.386719"/>
      <use xlink:href="#DejaVuSans-28" x="665.173828"/>
      <use xlink:href="#DejaVuSans-4b" x="704.1875"/>
      <use xlink:href="#DejaVuSans-29" x="769.763672"/>
     </g>
    </g>
   </g>
   <g id="matplotlib.axis_2">
    <g id="ytick_1">
     <g id="line2d_6">
      <defs>
       <path id="m9f767907e7" d="M 0 0 
L -3.5 0 
" style="stroke: #000000; stroke-width: 0.8"/>
      </defs>
      <g>
       <use xlink:href="#m9f767907e7" x="57.6" y="277.853379" style="stroke: #000000; stroke-width: 0.8"/>
      </g>
     </g>
     <g id="text_7">
      <!-- $\mathdefault{10^{0}}$ -->
      <g transform="translate(33 281.652598)scale(0.1 -0.1)">
       <use xlink:href="#DejaVuSans-31" transform="translate(0 0.765625)"/>
       <use xlink:href="#DejaVuSans-30" transform="translate(63.623047 0.765625)"/>
       <use xlink:href="#DejaVuSans-30" transform="translate(128.203125 39.046875)scale(0.7)"/>
      </g>
     </g>
    </g>
    <g id="ytick_2">
     <g id="line2d_7">
      <g>
       <use xlink:href="#m9f767907e7" x="57.6" y="242.584136" style="stroke: #000000; stroke-width: 0.8"/>
      </g>
     </g>
     <g id="text_8">
      <!-- $\mathdefault{10^{2}}$ -->
      <g transform="translate(33 246.383355)scale(0.1 -0.1)">
       <use xlink:href="#DejaVuSans-31" transform="translate(0 0.765625)"/>
       <use xlink:href="#DejaVuSans-30" transform="translate(63.623047 0.765625)"/>
       <use xlink:href="#DejaVuSans-32" transform="translate(128.203125 39.046875)scale(0.7)"/>
      </g>
     </g>
    </g>
    <g id="ytick_3">
     <g id="line2d_8">
      <g>
       <use xlink:href="#m9f767907e7" x="57.6" y="207.314894" style="stroke: #000000; stroke-width: 0.8"/>
      </g>
     </g>
     <g id="text_9">
      <!-- $\mathdefault{10^{4}}$ -->
      <g transform="translate(33 211.114113)scale(0.1 -0.1)">
       <use xlink:href="#DejaVuSans-31" transform="translate(0 0.684375)"/>
       <use xlink:href="#DejaVuSans-30" transform="translate(63.623047 0.684375)"/>
       <use xlink:href="#DejaVuSans-34" transform="translate(128.203125 38.965625)scale(0.7)"/>
      </g>
     </g>
    </g>
    <g id="ytick_4">
     <g id="line2d_9">
      <g>
       <use xlink:href="#m9f767907e7" x="57.6" y="172.045651" style="stroke: #000000; stroke-width: 0.8"/>
      </g>
     </g>
     <g id="text_10">
      <!-- $\mathdefault{10^{6}}$ -->
      <g transform="translate(33 175.84487)scale(0.1 -0.1)">
       <use xlink:href="#DejaVuSans-31" transform="translate(0 0.765625)"/>
       <use xlink:href="#DejaVuSans-30" transform="translate(63.623047 0.765625)"/>
       <use xlink:href="#DejaVuSans-36" transform="translate(128.203125 39.046875)scale(0.7)"/>
      </g>
     </g>
    </g>
    <g id="ytick_5">
     <g id="line2d_10">
      <g>
       <use xlink:href="#m9f767907e7" x="57.6" y="136.776409" style="stroke: #000000; stroke-width: 0.8"/>
      </g>
     </g>
     <g id="text_11">
      <!-- $\mathdefault{10^{8}}$ -->
      <g transform="translate(33 140.575628)scale(0.1 -0.1)">
       <use xlink:href="#DejaVuSans-31" transform="translate(0 0.765625)"/>
       <use xlink:href="#DejaVuSans-30" transform="translate(63.623047 0.765625)"/>
       <use xlink:href="#DejaVuSans-38" transform="translate(128.203125 39.046875)scale(0.7)"/>
      </g>
     </g>
    </g>
    <g id="ytick_6">
     <g id="line2d_11">
      <g>
       <use xlink:href="#m9f767907e7" x="57.6" y="101.507166" style="stroke: #000000; stroke-width: 0.8"/>
      </g>
     </g>
     <g id="text_12">
      <!-- $\mathdefault{10^{10}}$ -->
      <g transform="translate(28.5 105.306385)scale(0.1 -0.1)">
       <use xlink:href="#DejaVuSans-31" transform="translate(0 0.765625)"/>
       <use xlink:href="#DejaVuSans-30" transform="translate(63.623047 0.765625)"/>
       <use xlink:href="#DejaVuSans-31" transform="translate(128.203125 39.046875)scale(0.7)"/>
       <use xlink:href="#DejaVuSans-30" transform="translate(172.739258 39.046875)scale(0.7)"/>
      </g>
     </g>
    </g>
    <g id="ytick_7">
     <g id="line2d_12">
      <g>
       <use xlink:href="#m9f767907e7" x="57.6" y="66.237924" style="stroke: #000000; stroke-width: 0.8"/>
      </g>
     </g>
     <g id="text_13">
      <!-- $\mathdefault{10^{12}}$ -->
      <g transform="translate(28.5 70.037143)scale(0.1 -0.1)">
       <use xlink:href="#DejaVuSans-31" transform="translate(0 0.765625)"/>
       <use xlink:href="#DejaVuSans-30" transform="translate(63.623047 0.765625)"/>
       <use xlink:href="#DejaVuSans-31" transform="translate(128.203125 39.046875)scale(0.7)"/>
       <use xlink:href="#DejaVuSans-32" transform="translate(172.739258 39.046875)scale(0.7)"/>
      </g>
     </g>
    </g>
    <g id="text_14">
     <!-- Pyrolysis number -->
     <g transform="translate(22.420312 217.554563)rotate(-90)scale(0.1 -0.1)">
      <defs>
       <path id="DejaVuSans-50" d="M 1259 4147 
L 1259 2394 
L 2053 2394 
Q 2494 2394 2734 2622 
Q 2975 2850 2975 3272 
Q 2975 3691 2734 3919 
Q 2494 4147 2053 4147 
L 1259 4147 
z
M 628 4666 
L 2053 4666 
Q 2838 4666 3239 4311 
Q 3641 3956 3641 3272 
Q 3641 2581 3239 2228 
Q 2838 1875 2053 1875 
L 1259 1875 
L 1259 0 
L 628 0 
L 628 4666 
z
" transform="scale(0.015625)"/>
       <path id="DejaVuSans-79" d="M 2059 -325 
Q 1816 -950 1584 -1140 
Q 1353 -1331 966 -1331 
L 506 -1331 
L 506 -850 
L 844 -850 
Q 1081 -850 1212 -737 
Q 1344 -625 1503 -206 
L 1606 56 
L 191 3500 
L 800 3500 
L 1894 763 
L 2988 3500 
L 3597 3500 
L 2059 -325 
z
" transform="scale(0.015625)"/>
       <path id="DejaVuSans-6f" d="M 1959 3097 
Q 1497 3097 1228 2736 
Q 959 2375 959 1747 
Q 959 1119 1226 758 
Q 1494 397 1959 397 
Q 2419 397 2687 759 
Q 2956 1122 2956 1747 
Q 2956 2369 2687 2733 
Q 2419 3097 1959 3097 
z
M 1959 3584 
Q 2709 3584 3137 3096 
Q 3566 2609 3566 1747 
Q 3566 888 3137 398 
Q 2709 -91 1959 -91 
Q 1206 -91 779 398 
Q 353 888 353 1747 
Q 353 2609 779 3096 
Q 1206 3584 1959 3584 
z
" transform="scale(0.015625)"/>
       <path id="DejaVuSans-6c" d="M 603 4863 
L 1178 4863 
L 1178 0 
L 603 0 
L 603 4863 
z
" transform="scale(0.015625)"/>
       <path id="DejaVuSans-73" d="M 2834 3397 
L 2834 2853 
Q 2591 2978 2328 3040 
Q 2066 3103 1784 3103 
Q 1356 3103 1142 2972 
Q 928 2841 928 2578 
Q 928 2378 1081 2264 
Q 1234 2150 1697 2047 
L 1894 2003 
Q 2506 1872 2764 1633 
Q 3022 1394 3022 966 
Q 3022 478 2636 193 
Q 2250 -91 1575 -91 
Q 1294 -91 989 -36 
Q 684 19 347 128 
L 347 722 
Q 666 556 975 473 
Q 1284 391 1588 391 
Q 1994 391 2212 530 
Q 2431 669 2431 922 
Q 2431 1156 2273 1281 
Q 2116 1406 1581 1522 
L 1381 1569 
Q 847 1681 609 1914 
Q 372 2147 372 2553 
Q 372 3047 722 3315 
Q 1072 3584 1716 3584 
Q 2034 3584 2315 3537 
Q 2597 3491 2834 3397 
z
" transform="scale(0.015625)"/>
       <path id="DejaVuSans-69" d="M 603 3500 
L 1178 3500 
L 1178 0 
L 603 0 
L 603 3500 
z
M 603 4863 
L 1178 4863 
L 1178 4134 
L 603 4134 
L 603 4863 
z
" transform="scale(0.015625)"/>
       <path id="DejaVuSans-6e" d="M 3513 2113 
L 3513 0 
L 2938 0 
L 2938 2094 
Q 2938 2591 2744 2837 
Q 2550 3084 2163 3084 
Q 1697 3084 1428 2787 
Q 1159 2491 1159 1978 
L 1159 0 
L 581 0 
L 581 3500 
L 1159 3500 
L 1159 2956 
Q 1366 3272 1645 3428 
Q 1925 3584 2291 3584 
Q 2894 3584 3203 3211 
Q 3513 2838 3513 2113 
z
" transform="scale(0.015625)"/>
       <path id="DejaVuSans-62" d="M 3116 1747 
Q 3116 2381 2855 2742 
Q 2594 3103 2138 3103 
Q 1681 3103 1420 2742 
Q 1159 2381 1159 1747 
Q 1159 1113 1420 752 
Q 1681 391 2138 391 
Q 2594 391 2855 752 
Q 3116 1113 3116 1747 
z
M 1159 2969 
Q 1341 3281 1617 3432 
Q 1894 3584 2278 3584 
Q 2916 3584 3314 3078 
Q 3713 2572 3713 1747 
Q 3713 922 3314 415 
Q 2916 -91 2278 -91 
Q 1894 -91 1617 61 
Q 1341 213 1159 525 
L 1159 0 
L 581 0 
L 581 4863 
L 1159 4863 
L 1159 2969 
z
" transform="scale(0.015625)"/>
      </defs>
      <use xlink:href="#DejaVuSans-50"/>
      <use xlink:href="#DejaVuSans-79" x="60.302734"/>
      <use xlink:href="#DejaVuSans-72" x="119.482422"/>
      <use xlink:href="#DejaVuSans-6f" x="158.345703"/>
      <use xlink:href="#DejaVuSans-6c" x="219.527344"/>
      <use xlink:href="#DejaVuSans-79" x="247.310547"/>
      <use xlink:href="#DejaVuSans-73" x="306.490234"/>
      <use xlink:href="#DejaVuSans-69" x="358.589844"/>
      <use xlink:href="#DejaVuSans-73" x="386.373047"/>
      <use xlink:href="#DejaVuSans-20" x="438.472656"/>
      <use xlink:href="#DejaVuSans-6e" x="470.259766"/>
      <use xlink:href="#DejaVuSans-75" x="533.638672"/>
      <use xlink:href="#DejaVuSans-6d" x="597.017578"/>
      <use xlink:href="#DejaVuSans-62" x="694.429688"/>
      <use xlink:href="#DejaVuSans-65" x="757.90625"/>
      <use xlink:href="#DejaVuSans-72" x="819.429688"/>
     </g>
    </g>
   </g>
   <g id="line2d_13">
    <path d="M 57.6 169.153816 
L 57.6 169.152786 
L 57.710109 169.264416 
L 61.141838 172.620299 
L 65.050705 176.156825 
L 67.69332 178.374078 
L 71.363618 181.212431 
L 74.850401 183.631303 
L 78.135318 185.6432 
L 78.447293 185.812154 
L 79.419922 186.348897 
L 79.676843 186.476792 
L 82.539675 187.856828 
L 82.741542 187.93366 
L 85.365805 188.929461 
L 87.861607 189.646554 
L 87.990068 189.660161 
L 88.412152 189.766721 
L 88.540613 189.776458 
L 88.962697 189.873365 
L 89.091157 189.879139 
L 89.513242 189.966109 
L 89.641702 189.967813 
L 90.063786 190.044534 
L 90.192247 190.042043 
L 90.504222 190.077541 
L 92.632995 190.209583 
L 92.761455 190.185793 
L 93.018376 190.180671 
L 95.018689 190.038394 
L 95.147149 189.992156 
L 95.385718 189.981958 
L 95.514179 189.932023 
L 95.752748 189.917102 
L 95.881209 189.8634 
L 96.119778 189.843698 
L 96.248238 189.786199 
L 96.486808 189.761587 
L 96.615268 189.700248 
L 96.853838 189.670687 
L 96.982298 189.605401 
L 97.220867 189.570886 
L 97.349328 189.50164 
L 97.587897 189.462047 
L 97.716358 189.388708 
L 97.954927 189.344057 
L 98.083387 189.266645 
L 98.321957 189.216777 
L 98.450417 189.135188 
L 98.578878 189.086955 
L 100.414027 188.270261 
L 102.249176 187.211915 
L 104.212785 185.823652 
L 106.781994 183.710152 
L 109.277797 181.673686 
L 109.351202 181.620545 
L 110.562401 180.856687 
L 110.690861 180.790589 
L 111.66349 180.407929 
L 111.791951 180.374454 
L 112.581065 180.265731 
L 112.819634 180.302735 
L 112.948095 180.274383 
L 113.186664 180.333622 
L 113.315124 180.321581 
L 113.553694 180.403015 
L 113.682154 180.407171 
L 113.939075 180.489605 
L 114.783244 180.884976 
L 115.223679 181.161471 
L 116.379823 182.079764 
L 117.902997 183.602463 
L 129.904872 197.632573 
L 133.997254 201.978601 
L 137.612497 205.504685 
L 140.897414 208.405632 
L 141.282795 208.7176 
L 144.200682 210.967106 
L 144.402549 211.101886 
L 147.136921 212.906037 
L 147.265381 212.970878 
L 147.87098 213.338003 
L 147.999441 213.398249 
L 148.60504 213.74858 
L 148.733501 213.804239 
L 149.228991 214.066287 
L 151.798199 215.273059 
L 154.477517 216.298251 
L 154.605977 216.320575 
L 154.917953 216.420931 
L 157.670676 217.172337 
L 160.349994 217.684961 
L 160.478454 217.67668 
L 160.735375 217.708596 
L 163.286232 217.914138 
L 163.414693 217.889064 
L 163.653262 217.921536 
L 163.781723 217.894811 
L 164.020292 217.92521 
L 164.148752 217.897062 
L 164.387322 217.925699 
L 164.515782 217.896402 
L 164.754351 217.923632 
L 164.882812 217.893477 
L 165.121381 217.919758 
L 165.249842 217.889083 
L 165.488411 217.914885 
L 165.616872 217.88411 
L 165.855441 217.909992 
L 165.983901 217.879571 
L 166.222471 217.906137 
L 166.350931 217.876546 
L 166.589501 217.904474 
L 166.717961 217.876286 
L 166.95653 217.906294 
L 167.084991 217.880099 
L 167.32356 217.912976 
L 167.452021 217.889399 
L 167.708941 217.901088 
L 169.103655 218.040663 
L 169.41563 218.09758 
L 170.571774 218.408377 
L 171.067264 218.598084 
L 172.223408 219.177194 
L 175.398216 221.625314 
L 175.838652 222.035876 
L 183.050787 228.445898 
L 184.647367 229.494762 
L 186.427461 230.350868 
L 188.13415 230.738188 
L 189.3637 230.689664 
L 190.813468 230.227702 
L 190.941928 230.114235 
L 191.070388 230.042289 
L 192.171478 229.241534 
L 193.401028 228.008542 
L 197.731979 222.780699 
L 197.805385 222.715948 
L 198.649554 222.033806 
L 198.778014 221.944394 
L 199.934158 221.265031 
L 200.062619 221.200242 
L 204.466976 218.881106 
L 206.412234 217.48783 
L 206.540695 217.331675 
L 206.614101 217.271731 
L 209.531988 214.764592 
L 209.660448 214.593191 
L 209.733854 214.527909 
L 211.862627 212.732657 
L 211.936033 212.676496 
L 213.330746 211.706476 
L 213.404152 211.661221 
L 214.61535 210.99767 
L 214.743811 210.936442 
L 216.08347 210.388749 
L 216.21193 210.343708 
L 218.102134 209.772922 
L 218.230594 209.737476 
L 221.478808 208.73341 
L 223.369011 207.902753 
L 225.130754 206.938736 
L 225.259215 206.803535 
L 225.332621 206.754794 
L 227.149418 205.461222 
L 227.277879 205.299516 
L 227.351285 205.238248 
L 229.369949 203.404948 
L 234.06793 198.957628 
L 234.196391 198.854873 
L 235.719564 197.745635 
L 235.848025 197.660121 
L 238.288773 196.153517 
L 238.417233 196.075857 
L 241.298417 194.205405 
L 243.66576 192.435945 
L 243.79422 192.284166 
L 243.92268 192.177132 
L 246.601998 189.839095 
L 246.730458 189.668144 
L 246.803864 189.598926 
L 252.052391 184.738246 
L 252.180851 184.636663 
L 253.52051 183.694406 
L 253.64897 183.616845 
L 254.805114 183.037568 
L 254.933575 182.987227 
L 255.906203 182.702914 
L 256.144773 182.68868 
L 256.273233 182.640738 
L 256.511803 182.640452 
L 256.640263 182.60319 
L 256.897184 182.591378 
L 257.924867 182.658151 
L 258.346952 182.752195 
L 258.475412 182.763781 
L 258.915848 182.879878 
L 260.310561 183.404925 
L 261.356596 183.921994 
L 263.558775 185.223969 
L 267.834672 188.070408 
L 273.285065 191.714402 
L 279.818195 195.865728 
L 281.414775 196.834776 
L 284.424419 198.612094 
L 289.801406 201.594169 
L 294.517739 203.963563 
L 298.72023 205.838761 
L 299.032206 205.96 
L 300.004835 206.356515 
L 300.261755 206.449084 
L 303.876999 207.728293 
L 307.161916 208.668049 
L 307.290376 208.686718 
L 307.785866 208.803212 
L 310.832214 209.396502 
L 310.960674 209.399383 
L 311.382758 209.474562 
L 311.511219 209.474887 
L 311.933303 209.544045 
L 312.061764 209.541758 
L 312.483848 209.604761 
L 312.612308 209.59985 
L 312.924284 209.628782 
L 315.621953 209.7572 
L 318.356325 209.683542 
L 318.484785 209.648687 
L 318.741706 209.626504 
L 321.476078 209.297047 
L 321.604539 209.246476 
L 321.843108 209.232882 
L 321.971568 209.180571 
L 322.210138 209.164896 
L 322.338598 209.110847 
L 322.577168 209.093156 
L 322.705628 209.037366 
L 322.944197 209.017778 
L 323.072658 208.960248 
L 323.311227 208.938715 
L 323.439688 208.879498 
L 323.678257 208.856027 
L 323.806717 208.795122 
L 324.045287 208.769775 
L 324.173747 208.707237 
L 324.412317 208.680018 
L 324.540777 208.615787 
L 324.779346 208.5867 
L 324.907807 208.520891 
L 325.146376 208.48994 
L 325.274837 208.422492 
L 325.513406 208.389677 
L 325.641866 208.320587 
L 325.880436 208.286032 
L 326.008896 208.215298 
L 326.247466 208.178821 
L 326.375926 208.106438 
L 326.614495 208.068161 
L 326.742956 207.994126 
L 326.981525 207.953986 
L 327.109986 207.878231 
L 327.238446 207.836789 
L 329.99117 206.834373 
L 332.376863 205.744804 
L 334.395527 204.592626 
L 336.175622 203.33354 
L 337.827256 201.899746 
L 339.460539 200.236317 
L 339.588999 200.01818 
L 339.662405 199.930638 
L 341.185579 197.934006 
L 342.653698 195.646032 
L 344.121817 192.955474 
L 345.700045 189.679492 
L 345.828506 189.272013 
L 345.88356 189.252985 
L 346.012021 188.838975 
L 346.067075 188.819206 
L 346.195535 188.398749 
L 346.25059 188.378258 
L 346.37905 187.951374 
L 346.434105 187.930168 
L 346.562565 187.496903 
L 346.61762 187.47498 
L 346.74608 187.035417 
L 346.801135 187.012787 
L 346.929595 186.566999 
L 346.98465 186.543682 
L 347.11311 186.091771 
L 347.168164 186.067782 
L 347.296625 185.609894 
L 347.351679 185.585246 
L 347.48014 185.121546 
L 347.535194 185.096247 
L 347.663655 184.626938 
L 347.718709 184.60103 
L 347.84717 184.126335 
L 347.902224 184.09983 
L 348.030684 183.620024 
L 348.085739 183.592971 
L 348.214199 183.10835 
L 348.269254 183.08078 
L 348.397714 182.591723 
L 348.452769 182.563695 
L 348.581229 182.070609 
L 348.636284 182.042159 
L 348.764744 181.545522 
L 348.819799 181.516696 
L 348.948259 181.017047 
L 349.003313 180.987923 
L 349.131774 180.485861 
L 349.186828 180.456512 
L 349.315289 179.952717 
L 349.370343 179.923205 
L 349.498804 179.418438 
L 349.553858 179.388889 
L 349.682319 178.883999 
L 349.737373 178.854449 
L 349.865834 178.350362 
L 349.920888 178.320969 
L 350.049348 177.818693 
L 350.104403 177.789578 
L 350.232863 177.290223 
L 350.287918 177.261485 
L 350.416378 176.766262 
L 350.471433 176.738084 
L 350.599893 176.248261 
L 350.654948 176.220768 
L 350.783408 175.737733 
L 350.838462 175.711056 
L 350.966923 175.23631 
L 351.021977 175.210634 
L 351.150438 174.745596 
L 351.205492 174.721065 
L 351.333953 174.267362 
L 351.389007 174.244226 
L 351.517468 173.80334 
L 351.572522 173.781701 
L 351.700983 173.355287 
L 351.756037 173.335346 
L 351.884497 172.924948 
L 351.939552 172.906843 
L 352.068012 172.513899 
L 352.123067 172.497819 
L 352.251527 172.123746 
L 352.306582 172.109869 
L 352.435042 171.755836 
L 352.490097 171.744252 
L 352.618557 171.411415 
L 352.673612 171.402183 
L 352.802072 171.091441 
L 352.875478 170.970548 
L 353.536132 170.067583 
L 353.609538 169.987983 
L 354.270191 169.448133 
L 354.398652 169.377987 
L 355.004251 169.17886 
L 355.24282 169.178569 
L 355.371281 169.148814 
L 355.683256 169.166498 
L 356.60083 169.386122 
L 357.940489 169.956113 
L 359.537069 170.762003 
L 364.785595 173.347438 
L 365.09757 173.483345 
L 366.143605 173.947167 
L 369.758849 175.401369 
L 373.043766 176.497667 
L 373.245632 176.544902 
L 376.163519 177.274681 
L 376.291979 177.28655 
L 376.732415 177.370714 
L 379.283272 177.746126 
L 379.411733 177.740337 
L 379.723708 177.766159 
L 382.035996 177.854239 
L 382.164456 177.829549 
L 382.421377 177.820852 
L 384.605205 177.642827 
L 384.733665 177.597092 
L 384.972234 177.584808 
L 385.100695 177.535794 
L 385.339264 177.519363 
L 385.467725 177.466969 
L 385.706294 177.44623 
L 385.834754 177.390379 
L 386.073324 177.365332 
L 386.201784 177.305934 
L 386.440354 177.276388 
L 386.568814 177.213377 
L 386.807383 177.179267 
L 386.935844 177.112493 
L 387.174413 177.073738 
L 387.302874 177.003182 
L 387.541443 176.959613 
L 387.669903 176.885134 
L 387.908473 176.836673 
L 388.036933 176.758191 
L 388.275503 176.704707 
L 388.403963 176.622128 
L 388.532423 176.572296 
L 390.312518 175.758902 
L 392.129316 174.716969 
L 392.257776 174.584918 
L 392.386236 174.49598 
L 394.147979 173.173543 
L 394.27644 173.01019 
L 394.349846 172.945403 
L 396.00148 171.339783 
L 397.653114 169.426179 
L 399.304748 167.170534 
L 400.956382 164.535175 
L 402.608016 161.478415 
L 404.259651 157.95422 
L 405.911285 153.9117 
L 407.617973 149.130137 
L 409.379716 143.622635 
L 409.508177 143.035173 
L 409.563231 142.990529 
L 409.691692 142.39508 
L 409.746746 142.349536 
L 409.875207 141.746048 
L 409.930261 141.699584 
L 410.058721 141.087937 
L 410.113776 141.040568 
L 410.242236 140.420678 
L 410.297291 140.372381 
L 410.425751 139.744111 
L 410.480806 139.694906 
L 410.609266 139.058207 
L 410.664321 139.008066 
L 410.792781 138.36284 
L 410.847836 138.311723 
L 410.976296 137.657858 
L 411.03135 137.605778 
L 411.159811 136.94315 
L 411.214865 136.890119 
L 411.343326 136.218674 
L 411.39838 136.164667 
L 411.526841 135.484273 
L 411.581895 135.429268 
L 411.710356 134.73983 
L 411.76541 134.683821 
L 411.893871 133.985249 
L 411.948925 133.92822 
L 412.077385 133.220394 
L 412.13244 133.162349 
L 412.2609 132.445166 
L 412.315955 132.386088 
L 412.444415 131.659452 
L 412.49947 131.599307 
L 412.62793 130.863116 
L 412.682985 130.801922 
L 412.811445 130.05604 
L 412.866499 129.993772 
L 412.99496 129.238107 
L 413.050014 129.17475 
L 413.178475 128.409193 
L 413.233529 128.344754 
L 413.36199 127.569179 
L 413.417044 127.503641 
L 413.545505 126.717939 
L 413.600559 126.651257 
L 413.72902 125.855357 
L 413.784074 125.787529 
L 413.912534 124.981253 
L 413.967589 124.912316 
L 414.096049 124.095555 
L 414.151104 124.025449 
L 414.279564 123.198108 
L 414.334619 123.12684 
L 414.463079 122.288786 
L 414.518134 122.216325 
L 414.646594 121.367447 
L 414.701649 121.293756 
L 414.72 119.257046 
L 414.72 65.137397 
L 414.72 65.137397 
" clip-path="url(#p41a020fa79)" style="fill: none; stroke: #1f77b4; stroke-width: 1.5; stroke-linecap: square"/>
   </g>
   <g id="line2d_14">
    <path d="M 57.6 150.266269 
L 57.6 150.265238 
L 57.710109 150.380611 
L 61.141838 153.852332 
L 65.10576 157.570073 
L 67.069369 159.291972 
L 69.455063 161.278781 
L 71.528781 162.91022 
L 72.207786 163.419204 
L 73.914475 164.664447 
L 74.409965 165.007492 
L 75.767975 165.928562 
L 78.942783 167.894381 
L 81.879022 169.454661 
L 84.576691 170.640228 
L 87.127548 171.527734 
L 87.256008 171.55019 
L 87.696444 171.671738 
L 89.953677 172.158914 
L 92.08245 172.414355 
L 92.210911 172.399203 
L 92.467831 172.409566 
L 94.468144 172.389571 
L 94.596604 172.352532 
L 94.835174 172.356323 
L 94.963634 172.315688 
L 95.202203 172.314884 
L 95.330664 172.270601 
L 95.569233 172.265064 
L 95.697694 172.21702 
L 95.936263 172.206749 
L 96.064724 172.154971 
L 96.303293 172.139795 
L 96.431753 172.084144 
L 96.670323 172.064135 
L 96.798783 172.004561 
L 97.037353 171.979567 
L 97.165813 171.916062 
L 97.404382 171.886019 
L 97.532843 171.818457 
L 97.771412 171.783339 
L 97.899873 171.711689 
L 98.138442 171.671399 
L 98.266902 171.595675 
L 98.450417 171.534134 
L 98.578878 171.489647 
L 100.414027 170.726276 
L 102.249176 169.720903 
L 104.212785 168.388936 
L 106.763642 166.41829 
L 106.892103 166.257565 
L 106.965509 166.19682 
L 109.277797 164.382385 
L 109.332851 164.397859 
L 109.351202 164.331304 
L 110.562401 163.601354 
L 110.690861 163.538845 
L 111.66349 163.183298 
L 111.791951 163.153397 
L 112.581065 163.066594 
L 112.819634 163.110213 
L 112.948095 163.085421 
L 113.186664 163.151267 
L 113.315124 163.142781 
L 113.553694 163.230813 
L 113.572045 163.205797 
L 114.416214 163.541957 
L 114.838298 163.800913 
L 114.911704 163.826194 
L 116.012793 164.656713 
L 117.352452 165.952857 
L 132.162105 183.398325 
L 136.015918 187.41317 
L 139.447646 190.674896 
L 142.549048 193.325132 
L 142.861024 193.565785 
L 143.833653 194.324939 
L 144.090573 194.508898 
L 146.788243 196.378386 
L 149.357451 197.892691 
L 151.92666 199.149795 
L 154.661032 200.24762 
L 154.789492 200.272139 
L 155.101468 200.378182 
L 157.854191 201.17952 
L 160.4234 201.696622 
L 162.937554 201.96229 
L 166.607852 202.048963 
L 168.369595 202.159637 
L 168.626516 202.19409 
L 169.837714 202.437729 
L 170.259799 202.581678 
L 170.388259 202.606688 
L 170.828695 202.773353 
L 171.984839 203.338558 
L 173.214388 204.151119 
L 174.609102 205.286447 
L 176.205681 206.771394 
L 182.628703 212.671319 
L 184.830882 214.184136 
L 186.610976 215.038819 
L 188.317665 215.410595 
L 189.547215 215.341473 
L 190.996983 214.848203 
L 191.125443 214.729899 
L 191.253903 214.654696 
L 192.354993 213.826957 
L 193.639597 212.50316 
L 195.841776 209.73254 
L 197.181435 208.176556 
L 197.254841 208.104298 
L 198.099009 207.329373 
L 198.172415 207.272313 
L 199.016584 206.67701 
L 199.145044 206.599293 
L 200.301188 206.000563 
L 200.429649 205.941862 
L 203.861377 204.262652 
L 205.696526 203.03103 
L 207.898705 201.247939 
L 212.046142 197.753703 
L 212.119548 197.700258 
L 213.514261 196.785026 
L 213.642721 196.711259 
L 214.98238 196.047678 
L 215.110841 195.993705 
L 216.634014 195.457088 
L 216.762475 195.418843 
L 219.386738 194.725012 
L 219.515198 194.690436 
L 221.845838 193.948836 
L 223.680987 193.135359 
L 225.497784 192.126149 
L 225.626245 191.988644 
L 225.699651 191.938988 
L 227.516448 190.625613 
L 227.644909 190.461908 
L 227.718314 190.39994 
L 229.792033 188.506676 
L 233.7009 184.849224 
L 233.774306 184.789208 
L 235.352534 183.617447 
L 235.480995 183.531186 
L 237.554713 182.258644 
L 237.683174 182.183773 
L 241.169957 180.028131 
L 243.500596 178.301736 
L 246.051453 176.174164 
L 246.179914 176.008435 
L 246.25332 175.941695 
L 252.602935 170.260267 
L 252.731396 170.16902 
L 253.88754 169.447653 
L 254.016 169.379727 
L 255.172144 168.893168 
L 255.410713 168.855312 
L 255.539174 168.788171 
L 255.777743 168.764258 
L 255.906203 168.707864 
L 256.144773 168.697965 
L 256.273233 168.652356 
L 256.511803 168.656402 
L 256.640263 168.621471 
L 256.897184 168.614318 
L 257.924867 168.699703 
L 258.346952 168.801376 
L 258.475412 168.815283 
L 258.915848 168.93933 
L 260.310561 169.489498 
L 261.356596 170.025349 
L 263.558775 171.36671 
L 267.834672 174.289019 
L 273.285065 178.028588 
L 279.818195 182.292838 
L 281.414775 183.289217 
L 284.424419 185.117775 
L 289.801406 188.1905 
L 294.517739 190.638477 
L 298.72023 192.582981 
L 299.032206 192.709337 
L 300.004835 193.121787 
L 300.261755 193.218559 
L 303.876999 194.556652 
L 307.161916 195.549495 
L 307.290376 195.570232 
L 307.785866 195.694697 
L 310.832214 196.336803 
L 310.960674 196.341735 
L 311.382758 196.423648 
L 311.511219 196.426023 
L 311.933303 196.501907 
L 312.061764 196.501666 
L 312.483848 196.571388 
L 312.612308 196.568521 
L 313.034393 196.632034 
L 313.162853 196.626468 
L 313.474828 196.655245 
L 316.172497 196.781086 
L 318.906869 196.704634 
L 319.03533 196.668958 
L 319.273899 196.673953 
L 319.40236 196.63639 
L 319.640929 196.639173 
L 319.76939 196.599733 
L 320.007959 196.600331 
L 320.136419 196.559024 
L 320.374989 196.557511 
L 320.503449 196.514395 
L 320.742018 196.510688 
L 320.870479 196.465769 
L 321.109048 196.45999 
L 321.237509 196.41322 
L 321.476078 196.405332 
L 321.604539 196.356765 
L 321.843108 196.34689 
L 321.971568 196.296581 
L 322.210138 196.284622 
L 322.338598 196.232573 
L 322.577168 196.218595 
L 322.705628 196.164804 
L 322.944197 196.148926 
L 323.072658 196.093393 
L 323.311227 196.075567 
L 323.439688 196.018346 
L 323.678257 195.998579 
L 323.806717 195.939668 
L 324.045287 195.918022 
L 324.173747 195.857476 
L 324.412317 195.833956 
L 324.540777 195.771716 
L 324.779346 195.746325 
L 324.907807 195.682504 
L 325.146376 195.655246 
L 325.274837 195.589785 
L 325.513406 195.56066 
L 325.641866 195.493556 
L 325.880436 195.462688 
L 326.008896 195.393937 
L 326.247466 195.361144 
L 326.375926 195.290744 
L 326.614495 195.256148 
L 326.742956 195.184094 
L 326.981525 195.147631 
L 327.109986 195.073856 
L 327.293501 195.017437 
L 327.421961 194.977316 
L 330.284793 193.996447 
L 330.413254 193.905221 
L 330.541714 193.852375 
L 332.872354 192.768493 
L 334.872666 191.643547 
L 335.001126 191.509617 
L 335.074532 191.460303 
L 336.89133 190.147728 
L 337.01979 189.983382 
L 337.093196 189.92033 
L 338.726479 188.425334 
L 338.854939 188.225526 
L 338.928345 188.146485 
L 340.451519 186.339316 
L 341.919638 184.257816 
L 343.387757 181.795849 
L 344.965986 178.779191 
L 345.094446 178.399447 
L 345.149501 178.384165 
L 345.277961 177.997975 
L 345.333015 177.98193 
L 345.461476 177.589339 
L 345.51653 177.572546 
L 345.644991 177.173438 
L 345.700045 177.15592 
L 345.828506 176.750343 
L 345.88356 176.73213 
L 346.012021 176.320021 
L 346.067075 176.301068 
L 346.195535 175.882511 
L 346.25059 175.862834 
L 346.37905 175.43785 
L 346.434105 175.417459 
L 346.562565 174.986093 
L 346.61762 174.964984 
L 346.74608 174.527319 
L 346.801135 174.505503 
L 346.929595 174.061613 
L 346.98465 174.039108 
L 347.11311 173.589095 
L 347.168164 173.565919 
L 347.296625 173.109926 
L 347.351679 173.086091 
L 347.48014 172.624287 
L 347.535194 172.5998 
L 347.663655 172.132386 
L 347.718709 172.10729 
L 347.84717 171.634489 
L 347.902224 171.608796 
L 348.030684 171.130883 
L 348.085739 171.104642 
L 348.214199 170.621913 
L 348.269254 170.595154 
L 348.397714 170.107989 
L 348.452769 170.080772 
L 348.581229 169.589577 
L 348.636284 169.561937 
L 348.764744 169.067191 
L 348.819799 169.039175 
L 348.948259 168.541416 
L 349.003313 168.513102 
L 349.131774 168.012929 
L 349.186828 167.98439 
L 349.315289 167.482483 
L 349.370343 167.45378 
L 349.498804 166.9509 
L 349.553858 166.922161 
L 349.682319 166.419157 
L 349.737373 166.390416 
L 349.865834 165.888215 
L 349.920888 165.859631 
L 350.049348 165.35924 
L 350.104403 165.330933 
L 350.232863 164.833462 
L 350.287918 164.805532 
L 350.416378 164.312193 
L 350.471433 164.284822 
L 350.599893 163.796883 
L 350.654948 163.770197 
L 350.783408 163.289044 
L 350.838462 163.263174 
L 350.966923 162.79031 
L 351.021977 162.76544 
L 351.150438 162.302283 
L 351.205492 162.278558 
L 351.333953 161.826735 
L 351.389007 161.804406 
L 351.517468 161.3654 
L 351.572522 161.344566 
L 351.700983 160.920031 
L 351.756037 160.900895 
L 351.884497 160.492375 
L 351.939552 160.475076 
L 352.068012 160.084008 
L 352.123067 160.068733 
L 352.251527 159.696537 
L 352.306582 159.683464 
L 352.435042 159.331308 
L 352.490097 159.320528 
L 352.618557 158.989566 
L 352.673612 158.981138 
L 352.802072 158.67227 
L 352.857126 158.666345 
L 352.985587 158.380224 
L 353.058993 158.270651 
L 353.719646 157.470257 
L 353.793052 157.401809 
L 354.453706 156.955975 
L 354.582166 156.902358 
L 355.187766 156.771888 
L 355.444687 156.768994 
L 356.288855 156.920269 
L 356.96786 157.163706 
L 358.674549 157.986223 
L 360.381237 158.890926 
L 360.876728 159.146743 
L 362.399901 159.934842 
L 362.840337 160.151193 
L 366.877665 162.045033 
L 370.474557 163.501841 
L 370.676423 163.566261 
L 373.851231 164.594618 
L 376.714064 165.303222 
L 376.842524 165.314005 
L 377.28296 165.396384 
L 379.833817 165.757306 
L 379.962277 165.749737 
L 380.274253 165.773072 
L 382.586541 165.838688 
L 382.715001 165.811543 
L 382.971922 165.799666 
L 385.04564 165.581669 
L 387.00925 165.154289 
L 388.844399 164.534453 
L 390.661196 163.724258 
L 390.789657 163.614289 
L 390.918117 163.543133 
L 392.67986 162.473397 
L 392.808321 162.334938 
L 392.936781 162.241296 
L 394.698524 160.850991 
L 394.826985 160.680131 
L 394.900391 160.612187 
L 396.552025 158.929578 
L 398.203659 156.927966 
L 399.855293 154.572104 
L 401.506927 151.823017 
L 403.158561 148.637643 
L 404.810195 144.968357 
L 406.461829 140.762547 
L 408.168518 135.791131 
L 409.930261 130.068032 
L 410.058721 129.45806 
L 410.113776 129.411408 
L 410.242236 128.793192 
L 410.297291 128.745612 
L 410.425751 128.119015 
L 410.480806 128.070527 
L 410.609266 127.435501 
L 410.664321 127.386076 
L 410.792781 126.742522 
L 410.847836 126.692122 
L 410.976296 126.039929 
L 411.03135 125.988565 
L 411.159811 125.327607 
L 411.214865 125.275292 
L 411.343326 124.605517 
L 411.39838 124.552227 
L 411.526841 123.873502 
L 411.581895 123.819213 
L 411.710356 123.131444 
L 411.76541 123.07615 
L 411.893871 122.379246 
L 411.948925 122.322932 
L 412.077385 121.616774 
L 412.13244 121.559444 
L 412.2609 120.843928 
L 412.315955 120.785564 
L 412.444415 120.060595 
L 412.49947 120.001164 
L 412.62793 119.26664 
L 412.682985 119.20616 
L 412.811445 118.461944 
L 412.866499 118.400389 
L 412.99496 117.646389 
L 413.050014 117.583746 
L 413.178475 116.819853 
L 413.233529 116.756127 
L 413.36199 115.982216 
L 413.417044 115.917392 
L 413.545505 115.133353 
L 413.600559 115.067383 
L 413.72902 114.273146 
L 413.784074 114.206031 
L 413.912534 113.401417 
L 413.967589 113.333192 
L 414.096049 112.518092 
L 414.151104 112.448699 
L 414.279564 111.623018 
L 414.334619 111.552463 
L 414.463079 110.716069 
L 414.518134 110.644319 
L 414.646594 109.797101 
L 414.701649 109.724122 
L 414.72 107.687649 
L 414.72 53.568 
L 414.72 53.568 
" clip-path="url(#p41a020fa79)" style="fill: none; stroke-dasharray: 5.55,2.4; stroke-dashoffset: 0; stroke: #ff7f0e; stroke-width: 1.5"/>
   </g>
   <g id="line2d_15">
    <path d="M 57.6 258.965832 
L 100.285566 260.305672 
L 148.678446 261.596733 
L 204.650491 262.862009 
L 269.853336 264.107535 
L 346.140481 265.336326 
L 414.72 266.283982 
L 414.72 266.283982 
" clip-path="url(#p41a020fa79)" style="fill: none; stroke: #ff0000; stroke-width: 1.5; stroke-linecap: square"/>
   </g>
   <g id="line2d_16">
    <path d="M -1 295.488 
L 461.8 295.488 
" clip-path="url(#p41a020fa79)" style="fill: none; stroke-dasharray: 5.55,2.4; stroke-dashoffset: 0; stroke: #2ca02c; stroke-width: 1.5"/>
   </g>
   <g id="line2d_17">
    <path d="M -1 260.218758 
L 461.8 260.218758 
" clip-path="url(#p41a020fa79)" style="fill: none; stroke-dasharray: 5.55,2.4; stroke-dashoffset: 0; stroke: #d62728; stroke-width: 1.5"/>
   </g>
   <g id="patch_3">
    <path d="M 57.6 307.584 
L 57.6 41.472 
" style="fill: none; stroke: #000000; stroke-width: 0.8; stroke-linejoin: miter; stroke-linecap: square"/>
   </g>
   <g id="patch_4">
    <path d="M 414.72 307.584 
L 414.72 41.472 
" style="fill: none; stroke: #000000; stroke-width: 0.8; stroke-linejoin: miter; stroke-linecap: square"/>
   </g>
   <g id="patch_5">
    <path d="M 57.6 307.584 
L 414.72 307.584 
" style="fill: none; stroke: #000000; stroke-width: 0.8; stroke-linejoin: miter; stroke-linecap: square"/>
   </g>
   <g id="patch_6">
    <path d="M 57.6 41.472 
L 414.72 41.472 
" style="fill: none; stroke: #000000; stroke-width: 0.8; stroke-linejoin: miter; stroke-linecap: square"/>
   </g>
   <g id="legend_1">
    <g id="patch_7">
     <path d="M 306.121563 93.506375 
L 407.72 93.506375 
Q 409.72 93.506375 409.72 91.506375 
L 409.72 48.472 
Q 409.72 46.472 407.72 46.472 
L 306.121563 46.472 
Q 304.121563 46.472 304.121563 48.472 
L 304.121563 91.506375 
Q 304.121563 93.506375 306.121563 93.506375 
z
" style="fill: #ffffff; opacity: 0.8; stroke: #cccccc; stroke-linejoin: miter"/>
    </g>
    <g id="line2d_18">
     <path d="M 308.121563 54.570438 
L 318.121563 54.570438 
L 328.121563 54.570438 
" style="fill: none; stroke: #1f77b4; stroke-width: 1.5; stroke-linecap: square"/>
    </g>
    <g id="text_15">
     <!-- Py2 0.177mm -->
     <g transform="translate(336.121563 58.070438)scale(0.1 -0.1)">
      <defs>
       <path id="DejaVuSans-2e" d="M 684 794 
L 1344 794 
L 1344 0 
L 684 0 
L 684 794 
z
" transform="scale(0.015625)"/>
       <path id="DejaVuSans-37" d="M 525 4666 
L 3525 4666 
L 3525 4397 
L 1831 0 
L 1172 0 
L 2766 4134 
L 525 4134 
L 525 4666 
z
" transform="scale(0.015625)"/>
      </defs>
      <use xlink:href="#DejaVuSans-50"/>
      <use xlink:href="#DejaVuSans-79" x="60.302734"/>
      <use xlink:href="#DejaVuSans-32" x="119.482422"/>
      <use xlink:href="#DejaVuSans-20" x="183.105469"/>
      <use xlink:href="#DejaVuSans-30" x="214.892578"/>
      <use xlink:href="#DejaVuSans-2e" x="278.515625"/>
      <use xlink:href="#DejaVuSans-31" x="310.302734"/>
      <use xlink:href="#DejaVuSans-37" x="373.925781"/>
      <use xlink:href="#DejaVuSans-37" x="437.548828"/>
      <use xlink:href="#DejaVuSans-6d" x="501.171875"/>
      <use xlink:href="#DejaVuSans-6d" x="598.583984"/>
     </g>
    </g>
    <g id="line2d_19">
     <path d="M 308.121563 69.248563 
L 318.121563 69.248563 
L 328.121563 69.248563 
" style="fill: none; stroke-dasharray: 5.55,2.4; stroke-dashoffset: 0; stroke: #ff7f0e; stroke-width: 1.5"/>
    </g>
    <g id="text_16">
     <!-- Py1 0.177mm -->
     <g transform="translate(336.121563 72.748563)scale(0.1 -0.1)">
      <use xlink:href="#DejaVuSans-50"/>
      <use xlink:href="#DejaVuSans-79" x="60.302734"/>
      <use xlink:href="#DejaVuSans-31" x="119.482422"/>
      <use xlink:href="#DejaVuSans-20" x="183.105469"/>
      <use xlink:href="#DejaVuSans-30" x="214.892578"/>
      <use xlink:href="#DejaVuSans-2e" x="278.515625"/>
      <use xlink:href="#DejaVuSans-31" x="310.302734"/>
      <use xlink:href="#DejaVuSans-37" x="373.925781"/>
      <use xlink:href="#DejaVuSans-37" x="437.548828"/>
      <use xlink:href="#DejaVuSans-6d" x="501.171875"/>
      <use xlink:href="#DejaVuSans-6d" x="598.583984"/>
     </g>
    </g>
    <g id="line2d_20">
     <path d="M 308.121563 83.926688 
L 318.121563 83.926688 
L 328.121563 83.926688 
" style="fill: none; stroke: #ff0000; stroke-width: 1.5; stroke-linecap: square"/>
    </g>
    <g id="text_17">
     <!-- Bi -->
     <g transform="translate(336.121563 87.426688)scale(0.1 -0.1)">
      <defs>
       <path id="DejaVuSans-42" d="M 1259 2228 
L 1259 519 
L 2272 519 
Q 2781 519 3026 730 
Q 3272 941 3272 1375 
Q 3272 1813 3026 2020 
Q 2781 2228 2272 2228 
L 1259 2228 
z
M 1259 4147 
L 1259 2741 
L 2194 2741 
Q 2656 2741 2882 2914 
Q 3109 3088 3109 3444 
Q 3109 3797 2882 3972 
Q 2656 4147 2194 4147 
L 1259 4147 
z
M 628 4666 
L 2241 4666 
Q 2963 4666 3353 4366 
Q 3744 4066 3744 3513 
Q 3744 3084 3544 2831 
Q 3344 2578 2956 2516 
Q 3422 2416 3680 2098 
Q 3938 1781 3938 1306 
Q 3938 681 3513 340 
Q 3088 0 2303 0 
L 628 0 
L 628 4666 
z
" transform="scale(0.015625)"/>
      </defs>
      <use xlink:href="#DejaVuSans-42"/>
      <use xlink:href="#DejaVuSans-69" x="68.603516"/>
     </g>
    </g>
   </g>
  </g>
 </g>
 <defs>
  <clipPath id="p41a020fa79">
   <rect x="57.6" y="41.472" width="357.12" height="266.112"/>
  </clipPath>
 </defs>
</svg>
