<?xml version="1.0" encoding="utf-8" standalone="no"?>
<!DOCTYPE svg PUBLIC "-//W3C//DTD SVG 1.1//EN"
  "http://www.w3.org/Graphics/SVG/1.1/DTD/svg11.dtd">
<svg xmlns:xlink="http://www.w3.org/1999/xlink" width="460.8pt" height="345.6pt" viewBox="0 0 460.8 345.6" xmlns="http://www.w3.org/2000/svg" version="1.1">
 <metadata>
  <rdf:RDF xmlns:dc="http://purl.org/dc/elements/1.1/" xmlns:cc="http://creativecommons.org/ns#" xmlns:rdf="http://www.w3.org/1999/02/22-rdf-syntax-ns#">
   <cc:Work>
    <dc:type rdf:resource="http://purl.org/dc/dcmitype/StillImage"/>
    <dc:date>2022-04-26T12:12:34.117061</dc:date>
    <dc:format>image/svg+xml</dc:format>
    <dc:creator>
     <cc:Agent>
      <dc:title>Matplotlib v3.5.1, https://matplotlib.org/</dc:title>
     </cc:Agent>
    </dc:creator>
   </cc:Work>
  </rdf:RDF>
 </metadata>
 <defs>
  <style type="text/css">*{stroke-linejoin: round; stroke-linecap: butt}</style>
 </defs>
 <g id="figure_1">
  <g id="patch_1">
   <path d="M 0 345.6 
L 460.8 345.6 
L 460.8 0 
L 0 0 
z
" style="fill: #ffffff"/>
  </g>
  <g id="axes_1">
   <g id="patch_2">
    <path d="M 57.6 307.584 
L 414.72 307.584 
L 414.72 41.472 
L 57.6 41.472 
z
" style="fill: #ffffff"/>
   </g>
   <g id="matplotlib.axis_1">
    <g id="xtick_1">
     <g id="line2d_1">
      <defs>
       <path id="m42193292af" d="M 0 0 
L 0 3.5 
" style="stroke: #000000; stroke-width: 0.8"/>
      </defs>
      <g>
       <use xlink:href="#m42193292af" x="94.30298" y="307.584" style="stroke: #000000; stroke-width: 0.8"/>
      </g>
     </g>
     <g id="text_1">
      <!-- 400 -->
      <g transform="translate(84.75923 322.182437)scale(0.1 -0.1)">
       <defs>
        <path id="DejaVuSans-34" d="M 2419 4116 
L 825 1625 
L 2419 1625 
L 2419 4116 
z
M 2253 4666 
L 3047 4666 
L 3047 1625 
L 3713 1625 
L 3713 1100 
L 3047 1100 
L 3047 0 
L 2419 0 
L 2419 1100 
L 313 1100 
L 313 1709 
L 2253 4666 
z
" transform="scale(0.015625)"/>
        <path id="DejaVuSans-30" d="M 2034 4250 
Q 1547 4250 1301 3770 
Q 1056 3291 1056 2328 
Q 1056 1369 1301 889 
Q 1547 409 2034 409 
Q 2525 409 2770 889 
Q 3016 1369 3016 2328 
Q 3016 3291 2770 3770 
Q 2525 4250 2034 4250 
z
M 2034 4750 
Q 2819 4750 3233 4129 
Q 3647 3509 3647 2328 
Q 3647 1150 3233 529 
Q 2819 -91 2034 -91 
Q 1250 -91 836 529 
Q 422 1150 422 2328 
Q 422 3509 836 4129 
Q 1250 4750 2034 4750 
z
" transform="scale(0.015625)"/>
       </defs>
       <use xlink:href="#DejaVuSans-34"/>
       <use xlink:href="#DejaVuSans-30" x="63.623047"/>
       <use xlink:href="#DejaVuSans-30" x="127.246094"/>
      </g>
     </g>
    </g>
    <g id="xtick_2">
     <g id="line2d_2">
      <g>
       <use xlink:href="#m42193292af" x="167.708941" y="307.584" style="stroke: #000000; stroke-width: 0.8"/>
      </g>
     </g>
     <g id="text_2">
      <!-- 600 -->
      <g transform="translate(158.165191 322.182437)scale(0.1 -0.1)">
       <defs>
        <path id="DejaVuSans-36" d="M 2113 2584 
Q 1688 2584 1439 2293 
Q 1191 2003 1191 1497 
Q 1191 994 1439 701 
Q 1688 409 2113 409 
Q 2538 409 2786 701 
Q 3034 994 3034 1497 
Q 3034 2003 2786 2293 
Q 2538 2584 2113 2584 
z
M 3366 4563 
L 3366 3988 
Q 3128 4100 2886 4159 
Q 2644 4219 2406 4219 
Q 1781 4219 1451 3797 
Q 1122 3375 1075 2522 
Q 1259 2794 1537 2939 
Q 1816 3084 2150 3084 
Q 2853 3084 3261 2657 
Q 3669 2231 3669 1497 
Q 3669 778 3244 343 
Q 2819 -91 2113 -91 
Q 1303 -91 875 529 
Q 447 1150 447 2328 
Q 447 3434 972 4092 
Q 1497 4750 2381 4750 
Q 2619 4750 2861 4703 
Q 3103 4656 3366 4563 
z
" transform="scale(0.015625)"/>
       </defs>
       <use xlink:href="#DejaVuSans-36"/>
       <use xlink:href="#DejaVuSans-30" x="63.623047"/>
       <use xlink:href="#DejaVuSans-30" x="127.246094"/>
      </g>
     </g>
    </g>
    <g id="xtick_3">
     <g id="line2d_3">
      <g>
       <use xlink:href="#m42193292af" x="241.114902" y="307.584" style="stroke: #000000; stroke-width: 0.8"/>
      </g>
     </g>
     <g id="text_3">
      <!-- 800 -->
      <g transform="translate(231.571152 322.182437)scale(0.1 -0.1)">
       <defs>
        <path id="DejaVuSans-38" d="M 2034 2216 
Q 1584 2216 1326 1975 
Q 1069 1734 1069 1313 
Q 1069 891 1326 650 
Q 1584 409 2034 409 
Q 2484 409 2743 651 
Q 3003 894 3003 1313 
Q 3003 1734 2745 1975 
Q 2488 2216 2034 2216 
z
M 1403 2484 
Q 997 2584 770 2862 
Q 544 3141 544 3541 
Q 544 4100 942 4425 
Q 1341 4750 2034 4750 
Q 2731 4750 3128 4425 
Q 3525 4100 3525 3541 
Q 3525 3141 3298 2862 
Q 3072 2584 2669 2484 
Q 3125 2378 3379 2068 
Q 3634 1759 3634 1313 
Q 3634 634 3220 271 
Q 2806 -91 2034 -91 
Q 1263 -91 848 271 
Q 434 634 434 1313 
Q 434 1759 690 2068 
Q 947 2378 1403 2484 
z
M 1172 3481 
Q 1172 3119 1398 2916 
Q 1625 2713 2034 2713 
Q 2441 2713 2670 2916 
Q 2900 3119 2900 3481 
Q 2900 3844 2670 4047 
Q 2441 4250 2034 4250 
Q 1625 4250 1398 4047 
Q 1172 3844 1172 3481 
z
" transform="scale(0.015625)"/>
       </defs>
       <use xlink:href="#DejaVuSans-38"/>
       <use xlink:href="#DejaVuSans-30" x="63.623047"/>
       <use xlink:href="#DejaVuSans-30" x="127.246094"/>
      </g>
     </g>
    </g>
    <g id="xtick_4">
     <g id="line2d_4">
      <g>
       <use xlink:href="#m42193292af" x="314.520863" y="307.584" style="stroke: #000000; stroke-width: 0.8"/>
      </g>
     </g>
     <g id="text_4">
      <!-- 1000 -->
      <g transform="translate(301.795863 322.182437)scale(0.1 -0.1)">
       <defs>
        <path id="DejaVuSans-31" d="M 794 531 
L 1825 531 
L 1825 4091 
L 703 3866 
L 703 4441 
L 1819 4666 
L 2450 4666 
L 2450 531 
L 3481 531 
L 3481 0 
L 794 0 
L 794 531 
z
" transform="scale(0.015625)"/>
       </defs>
       <use xlink:href="#DejaVuSans-31"/>
       <use xlink:href="#DejaVuSans-30" x="63.623047"/>
       <use xlink:href="#DejaVuSans-30" x="127.246094"/>
       <use xlink:href="#DejaVuSans-30" x="190.869141"/>
      </g>
     </g>
    </g>
    <g id="xtick_5">
     <g id="line2d_5">
      <g>
       <use xlink:href="#m42193292af" x="387.926824" y="307.584" style="stroke: #000000; stroke-width: 0.8"/>
      </g>
     </g>
     <g id="text_5">
      <!-- 1200 -->
      <g transform="translate(375.201824 322.182437)scale(0.1 -0.1)">
       <defs>
        <path id="DejaVuSans-32" d="M 1228 531 
L 3431 531 
L 3431 0 
L 469 0 
L 469 531 
Q 828 903 1448 1529 
Q 2069 2156 2228 2338 
Q 2531 2678 2651 2914 
Q 2772 3150 2772 3378 
Q 2772 3750 2511 3984 
Q 2250 4219 1831 4219 
Q 1534 4219 1204 4116 
Q 875 4013 500 3803 
L 500 4441 
Q 881 4594 1212 4672 
Q 1544 4750 1819 4750 
Q 2544 4750 2975 4387 
Q 3406 4025 3406 3419 
Q 3406 3131 3298 2873 
Q 3191 2616 2906 2266 
Q 2828 2175 2409 1742 
Q 1991 1309 1228 531 
z
" transform="scale(0.015625)"/>
       </defs>
       <use xlink:href="#DejaVuSans-31"/>
       <use xlink:href="#DejaVuSans-32" x="63.623047"/>
       <use xlink:href="#DejaVuSans-30" x="127.246094"/>
       <use xlink:href="#DejaVuSans-30" x="190.869141"/>
      </g>
     </g>
    </g>
    <g id="text_6">
     <!-- Temperature (K) -->
     <g transform="translate(195.720937 335.860562)scale(0.1 -0.1)">
      <defs>
       <path id="DejaVuSans-54" d="M -19 4666 
L 3928 4666 
L 3928 4134 
L 2272 4134 
L 2272 0 
L 1638 0 
L 1638 4134 
L -19 4134 
L -19 4666 
z
" transform="scale(0.015625)"/>
       <path id="DejaVuSans-65" d="M 3597 1894 
L 3597 1613 
L 953 1613 
Q 991 1019 1311 708 
Q 1631 397 2203 397 
Q 2534 397 2845 478 
Q 3156 559 3463 722 
L 3463 178 
Q 3153 47 2828 -22 
Q 2503 -91 2169 -91 
Q 1331 -91 842 396 
Q 353 884 353 1716 
Q 353 2575 817 3079 
Q 1281 3584 2069 3584 
Q 2775 3584 3186 3129 
Q 3597 2675 3597 1894 
z
M 3022 2063 
Q 3016 2534 2758 2815 
Q 2500 3097 2075 3097 
Q 1594 3097 1305 2825 
Q 1016 2553 972 2059 
L 3022 2063 
z
" transform="scale(0.015625)"/>
       <path id="DejaVuSans-6d" d="M 3328 2828 
Q 3544 3216 3844 3400 
Q 4144 3584 4550 3584 
Q 5097 3584 5394 3201 
Q 5691 2819 5691 2113 
L 5691 0 
L 5113 0 
L 5113 2094 
Q 5113 2597 4934 2840 
Q 4756 3084 4391 3084 
Q 3944 3084 3684 2787 
Q 3425 2491 3425 1978 
L 3425 0 
L 2847 0 
L 2847 2094 
Q 2847 2600 2669 2842 
Q 2491 3084 2119 3084 
Q 1678 3084 1418 2786 
Q 1159 2488 1159 1978 
L 1159 0 
L 581 0 
L 581 3500 
L 1159 3500 
L 1159 2956 
Q 1356 3278 1631 3431 
Q 1906 3584 2284 3584 
Q 2666 3584 2933 3390 
Q 3200 3197 3328 2828 
z
" transform="scale(0.015625)"/>
       <path id="DejaVuSans-70" d="M 1159 525 
L 1159 -1331 
L 581 -1331 
L 581 3500 
L 1159 3500 
L 1159 2969 
Q 1341 3281 1617 3432 
Q 1894 3584 2278 3584 
Q 2916 3584 3314 3078 
Q 3713 2572 3713 1747 
Q 3713 922 3314 415 
Q 2916 -91 2278 -91 
Q 1894 -91 1617 61 
Q 1341 213 1159 525 
z
M 3116 1747 
Q 3116 2381 2855 2742 
Q 2594 3103 2138 3103 
Q 1681 3103 1420 2742 
Q 1159 2381 1159 1747 
Q 1159 1113 1420 752 
Q 1681 391 2138 391 
Q 2594 391 2855 752 
Q 3116 1113 3116 1747 
z
" transform="scale(0.015625)"/>
       <path id="DejaVuSans-72" d="M 2631 2963 
Q 2534 3019 2420 3045 
Q 2306 3072 2169 3072 
Q 1681 3072 1420 2755 
Q 1159 2438 1159 1844 
L 1159 0 
L 581 0 
L 581 3500 
L 1159 3500 
L 1159 2956 
Q 1341 3275 1631 3429 
Q 1922 3584 2338 3584 
Q 2397 3584 2469 3576 
Q 2541 3569 2628 3553 
L 2631 2963 
z
" transform="scale(0.015625)"/>
       <path id="DejaVuSans-61" d="M 2194 1759 
Q 1497 1759 1228 1600 
Q 959 1441 959 1056 
Q 959 750 1161 570 
Q 1363 391 1709 391 
Q 2188 391 2477 730 
Q 2766 1069 2766 1631 
L 2766 1759 
L 2194 1759 
z
M 3341 1997 
L 3341 0 
L 2766 0 
L 2766 531 
Q 2569 213 2275 61 
Q 1981 -91 1556 -91 
Q 1019 -91 701 211 
Q 384 513 384 1019 
Q 384 1609 779 1909 
Q 1175 2209 1959 2209 
L 2766 2209 
L 2766 2266 
Q 2766 2663 2505 2880 
Q 2244 3097 1772 3097 
Q 1472 3097 1187 3025 
Q 903 2953 641 2809 
L 641 3341 
Q 956 3463 1253 3523 
Q 1550 3584 1831 3584 
Q 2591 3584 2966 3190 
Q 3341 2797 3341 1997 
z
" transform="scale(0.015625)"/>
       <path id="DejaVuSans-74" d="M 1172 4494 
L 1172 3500 
L 2356 3500 
L 2356 3053 
L 1172 3053 
L 1172 1153 
Q 1172 725 1289 603 
Q 1406 481 1766 481 
L 2356 481 
L 2356 0 
L 1766 0 
Q 1100 0 847 248 
Q 594 497 594 1153 
L 594 3053 
L 172 3053 
L 172 3500 
L 594 3500 
L 594 4494 
L 1172 4494 
z
" transform="scale(0.015625)"/>
       <path id="DejaVuSans-75" d="M 544 1381 
L 544 3500 
L 1119 3500 
L 1119 1403 
Q 1119 906 1312 657 
Q 1506 409 1894 409 
Q 2359 409 2629 706 
Q 2900 1003 2900 1516 
L 2900 3500 
L 3475 3500 
L 3475 0 
L 2900 0 
L 2900 538 
Q 2691 219 2414 64 
Q 2138 -91 1772 -91 
Q 1169 -91 856 284 
Q 544 659 544 1381 
z
M 1991 3584 
L 1991 3584 
z
" transform="scale(0.015625)"/>
       <path id="DejaVuSans-20" transform="scale(0.015625)"/>
       <path id="DejaVuSans-28" d="M 1984 4856 
Q 1566 4138 1362 3434 
Q 1159 2731 1159 2009 
Q 1159 1288 1364 580 
Q 1569 -128 1984 -844 
L 1484 -844 
Q 1016 -109 783 600 
Q 550 1309 550 2009 
Q 550 2706 781 3412 
Q 1013 4119 1484 4856 
L 1984 4856 
z
" transform="scale(0.015625)"/>
       <path id="DejaVuSans-4b" d="M 628 4666 
L 1259 4666 
L 1259 2694 
L 3353 4666 
L 4166 4666 
L 1850 2491 
L 4331 0 
L 3500 0 
L 1259 2247 
L 1259 0 
L 628 0 
L 628 4666 
z
" transform="scale(0.015625)"/>
       <path id="DejaVuSans-29" d="M 513 4856 
L 1013 4856 
Q 1481 4119 1714 3412 
Q 1947 2706 1947 2009 
Q 1947 1309 1714 600 
Q 1481 -109 1013 -844 
L 513 -844 
Q 928 -128 1133 580 
Q 1338 1288 1338 2009 
Q 1338 2731 1133 3434 
Q 928 4138 513 4856 
z
" transform="scale(0.015625)"/>
      </defs>
      <use xlink:href="#DejaVuSans-54"/>
      <use xlink:href="#DejaVuSans-65" x="44.083984"/>
      <use xlink:href="#DejaVuSans-6d" x="105.607422"/>
      <use xlink:href="#DejaVuSans-70" x="203.019531"/>
      <use xlink:href="#DejaVuSans-65" x="266.496094"/>
      <use xlink:href="#DejaVuSans-72" x="328.019531"/>
      <use xlink:href="#DejaVuSans-61" x="369.132812"/>
      <use xlink:href="#DejaVuSans-74" x="430.412109"/>
      <use xlink:href="#DejaVuSans-75" x="469.621094"/>
      <use xlink:href="#DejaVuSans-72" x="533"/>
      <use xlink:href="#DejaVuSans-65" x="571.863281"/>
      <use xlink:href="#DejaVuSans-20" x="633.386719"/>
      <use xlink:href="#DejaVuSans-28" x="665.173828"/>
      <use xlink:href="#DejaVuSans-4b" x="704.1875"/>
      <use xlink:href="#DejaVuSans-29" x="769.763672"/>
     </g>
    </g>
   </g>
   <g id="matplotlib.axis_2">
    <g id="ytick_1">
     <g id="line2d_6">
      <defs>
       <path id="m06cfcecb28" d="M 0 0 
L -3.5 0 
" style="stroke: #000000; stroke-width: 0.8"/>
      </defs>
      <g>
       <use xlink:href="#m06cfcecb28" x="57.6" y="277.08966" style="stroke: #000000; stroke-width: 0.8"/>
      </g>
     </g>
     <g id="text_7">
      <!-- $\mathdefault{10^{3}}$ -->
      <g transform="translate(33 280.888879)scale(0.1 -0.1)">
       <defs>
        <path id="DejaVuSans-33" d="M 2597 2516 
Q 3050 2419 3304 2112 
Q 3559 1806 3559 1356 
Q 3559 666 3084 287 
Q 2609 -91 1734 -91 
Q 1441 -91 1130 -33 
Q 819 25 488 141 
L 488 750 
Q 750 597 1062 519 
Q 1375 441 1716 441 
Q 2309 441 2620 675 
Q 2931 909 2931 1356 
Q 2931 1769 2642 2001 
Q 2353 2234 1838 2234 
L 1294 2234 
L 1294 2753 
L 1863 2753 
Q 2328 2753 2575 2939 
Q 2822 3125 2822 3475 
Q 2822 3834 2567 4026 
Q 2313 4219 1838 4219 
Q 1578 4219 1281 4162 
Q 984 4106 628 3988 
L 628 4550 
Q 988 4650 1302 4700 
Q 1616 4750 1894 4750 
Q 2613 4750 3031 4423 
Q 3450 4097 3450 3541 
Q 3450 3153 3228 2886 
Q 3006 2619 2597 2516 
z
" transform="scale(0.015625)"/>
       </defs>
       <use xlink:href="#DejaVuSans-31" transform="translate(0 0.765625)"/>
       <use xlink:href="#DejaVuSans-30" transform="translate(63.623047 0.765625)"/>
       <use xlink:href="#DejaVuSans-33" transform="translate(128.203125 39.046875)scale(0.7)"/>
      </g>
     </g>
    </g>
    <g id="ytick_2">
     <g id="line2d_7">
      <g>
       <use xlink:href="#m06cfcecb28" x="57.6" y="244.892565" style="stroke: #000000; stroke-width: 0.8"/>
      </g>
     </g>
     <g id="text_8">
      <!-- $\mathdefault{10^{10}}$ -->
      <g transform="translate(28.5 248.691784)scale(0.1 -0.1)">
       <use xlink:href="#DejaVuSans-31" transform="translate(0 0.765625)"/>
       <use xlink:href="#DejaVuSans-30" transform="translate(63.623047 0.765625)"/>
       <use xlink:href="#DejaVuSans-31" transform="translate(128.203125 39.046875)scale(0.7)"/>
       <use xlink:href="#DejaVuSans-30" transform="translate(172.739258 39.046875)scale(0.7)"/>
      </g>
     </g>
    </g>
    <g id="ytick_3">
     <g id="line2d_8">
      <g>
       <use xlink:href="#m06cfcecb28" x="57.6" y="212.695471" style="stroke: #000000; stroke-width: 0.8"/>
      </g>
     </g>
     <g id="text_9">
      <!-- $\mathdefault{10^{17}}$ -->
      <g transform="translate(28.5 216.494689)scale(0.1 -0.1)">
       <defs>
        <path id="DejaVuSans-37" d="M 525 4666 
L 3525 4666 
L 3525 4397 
L 1831 0 
L 1172 0 
L 2766 4134 
L 525 4134 
L 525 4666 
z
" transform="scale(0.015625)"/>
       </defs>
       <use xlink:href="#DejaVuSans-31" transform="translate(0 0.684375)"/>
       <use xlink:href="#DejaVuSans-30" transform="translate(63.623047 0.684375)"/>
       <use xlink:href="#DejaVuSans-31" transform="translate(128.203125 38.965625)scale(0.7)"/>
       <use xlink:href="#DejaVuSans-37" transform="translate(172.739258 38.965625)scale(0.7)"/>
      </g>
     </g>
    </g>
    <g id="ytick_4">
     <g id="line2d_9">
      <g>
       <use xlink:href="#m06cfcecb28" x="57.6" y="180.498376" style="stroke: #000000; stroke-width: 0.8"/>
      </g>
     </g>
     <g id="text_10">
      <!-- $\mathdefault{10^{24}}$ -->
      <g transform="translate(28.5 184.297595)scale(0.1 -0.1)">
       <use xlink:href="#DejaVuSans-31" transform="translate(0 0.765625)"/>
       <use xlink:href="#DejaVuSans-30" transform="translate(63.623047 0.765625)"/>
       <use xlink:href="#DejaVuSans-32" transform="translate(128.203125 39.046875)scale(0.7)"/>
       <use xlink:href="#DejaVuSans-34" transform="translate(172.739258 39.046875)scale(0.7)"/>
      </g>
     </g>
    </g>
    <g id="ytick_5">
     <g id="line2d_10">
      <g>
       <use xlink:href="#m06cfcecb28" x="57.6" y="148.301281" style="stroke: #000000; stroke-width: 0.8"/>
      </g>
     </g>
     <g id="text_11">
      <!-- $\mathdefault{10^{31}}$ -->
      <g transform="translate(28.5 152.1005)scale(0.1 -0.1)">
       <use xlink:href="#DejaVuSans-31" transform="translate(0 0.765625)"/>
       <use xlink:href="#DejaVuSans-30" transform="translate(63.623047 0.765625)"/>
       <use xlink:href="#DejaVuSans-33" transform="translate(128.203125 39.046875)scale(0.7)"/>
       <use xlink:href="#DejaVuSans-31" transform="translate(172.739258 39.046875)scale(0.7)"/>
      </g>
     </g>
    </g>
    <g id="ytick_6">
     <g id="line2d_11">
      <g>
       <use xlink:href="#m06cfcecb28" x="57.6" y="116.104186" style="stroke: #000000; stroke-width: 0.8"/>
      </g>
     </g>
     <g id="text_12">
      <!-- $\mathdefault{10^{38}}$ -->
      <g transform="translate(28.5 119.903405)scale(0.1 -0.1)">
       <use xlink:href="#DejaVuSans-31" transform="translate(0 0.765625)"/>
       <use xlink:href="#DejaVuSans-30" transform="translate(63.623047 0.765625)"/>
       <use xlink:href="#DejaVuSans-33" transform="translate(128.203125 39.046875)scale(0.7)"/>
       <use xlink:href="#DejaVuSans-38" transform="translate(172.739258 39.046875)scale(0.7)"/>
      </g>
     </g>
    </g>
    <g id="ytick_7">
     <g id="line2d_12">
      <g>
       <use xlink:href="#m06cfcecb28" x="57.6" y="83.907091" style="stroke: #000000; stroke-width: 0.8"/>
      </g>
     </g>
     <g id="text_13">
      <!-- $\mathdefault{10^{45}}$ -->
      <g transform="translate(28.5 87.70631)scale(0.1 -0.1)">
       <defs>
        <path id="DejaVuSans-35" d="M 691 4666 
L 3169 4666 
L 3169 4134 
L 1269 4134 
L 1269 2991 
Q 1406 3038 1543 3061 
Q 1681 3084 1819 3084 
Q 2600 3084 3056 2656 
Q 3513 2228 3513 1497 
Q 3513 744 3044 326 
Q 2575 -91 1722 -91 
Q 1428 -91 1123 -41 
Q 819 9 494 109 
L 494 744 
Q 775 591 1075 516 
Q 1375 441 1709 441 
Q 2250 441 2565 725 
Q 2881 1009 2881 1497 
Q 2881 1984 2565 2268 
Q 2250 2553 1709 2553 
Q 1456 2553 1204 2497 
Q 953 2441 691 2322 
L 691 4666 
z
" transform="scale(0.015625)"/>
       </defs>
       <use xlink:href="#DejaVuSans-31" transform="translate(0 0.684375)"/>
       <use xlink:href="#DejaVuSans-30" transform="translate(63.623047 0.684375)"/>
       <use xlink:href="#DejaVuSans-34" transform="translate(128.203125 38.965625)scale(0.7)"/>
       <use xlink:href="#DejaVuSans-35" transform="translate(172.739258 38.965625)scale(0.7)"/>
      </g>
     </g>
    </g>
    <g id="ytick_8">
     <g id="line2d_13">
      <g>
       <use xlink:href="#m06cfcecb28" x="57.6" y="51.709997" style="stroke: #000000; stroke-width: 0.8"/>
      </g>
     </g>
     <g id="text_14">
      <!-- $\mathdefault{10^{52}}$ -->
      <g transform="translate(28.5 55.509215)scale(0.1 -0.1)">
       <use xlink:href="#DejaVuSans-31" transform="translate(0 0.765625)"/>
       <use xlink:href="#DejaVuSans-30" transform="translate(63.623047 0.765625)"/>
       <use xlink:href="#DejaVuSans-35" transform="translate(128.203125 39.046875)scale(0.7)"/>
       <use xlink:href="#DejaVuSans-32" transform="translate(172.739258 39.046875)scale(0.7)"/>
      </g>
     </g>
    </g>
    <g id="text_15">
     <!-- Pyrolysis number -->
     <g transform="translate(22.420312 217.554563)rotate(-90)scale(0.1 -0.1)">
      <defs>
       <path id="DejaVuSans-50" d="M 1259 4147 
L 1259 2394 
L 2053 2394 
Q 2494 2394 2734 2622 
Q 2975 2850 2975 3272 
Q 2975 3691 2734 3919 
Q 2494 4147 2053 4147 
L 1259 4147 
z
M 628 4666 
L 2053 4666 
Q 2838 4666 3239 4311 
Q 3641 3956 3641 3272 
Q 3641 2581 3239 2228 
Q 2838 1875 2053 1875 
L 1259 1875 
L 1259 0 
L 628 0 
L 628 4666 
z
" transform="scale(0.015625)"/>
       <path id="DejaVuSans-79" d="M 2059 -325 
Q 1816 -950 1584 -1140 
Q 1353 -1331 966 -1331 
L 506 -1331 
L 506 -850 
L 844 -850 
Q 1081 -850 1212 -737 
Q 1344 -625 1503 -206 
L 1606 56 
L 191 3500 
L 800 3500 
L 1894 763 
L 2988 3500 
L 3597 3500 
L 2059 -325 
z
" transform="scale(0.015625)"/>
       <path id="DejaVuSans-6f" d="M 1959 3097 
Q 1497 3097 1228 2736 
Q 959 2375 959 1747 
Q 959 1119 1226 758 
Q 1494 397 1959 397 
Q 2419 397 2687 759 
Q 2956 1122 2956 1747 
Q 2956 2369 2687 2733 
Q 2419 3097 1959 3097 
z
M 1959 3584 
Q 2709 3584 3137 3096 
Q 3566 2609 3566 1747 
Q 3566 888 3137 398 
Q 2709 -91 1959 -91 
Q 1206 -91 779 398 
Q 353 888 353 1747 
Q 353 2609 779 3096 
Q 1206 3584 1959 3584 
z
" transform="scale(0.015625)"/>
       <path id="DejaVuSans-6c" d="M 603 4863 
L 1178 4863 
L 1178 0 
L 603 0 
L 603 4863 
z
" transform="scale(0.015625)"/>
       <path id="DejaVuSans-73" d="M 2834 3397 
L 2834 2853 
Q 2591 2978 2328 3040 
Q 2066 3103 1784 3103 
Q 1356 3103 1142 2972 
Q 928 2841 928 2578 
Q 928 2378 1081 2264 
Q 1234 2150 1697 2047 
L 1894 2003 
Q 2506 1872 2764 1633 
Q 3022 1394 3022 966 
Q 3022 478 2636 193 
Q 2250 -91 1575 -91 
Q 1294 -91 989 -36 
Q 684 19 347 128 
L 347 722 
Q 666 556 975 473 
Q 1284 391 1588 391 
Q 1994 391 2212 530 
Q 2431 669 2431 922 
Q 2431 1156 2273 1281 
Q 2116 1406 1581 1522 
L 1381 1569 
Q 847 1681 609 1914 
Q 372 2147 372 2553 
Q 372 3047 722 3315 
Q 1072 3584 1716 3584 
Q 2034 3584 2315 3537 
Q 2597 3491 2834 3397 
z
" transform="scale(0.015625)"/>
       <path id="DejaVuSans-69" d="M 603 3500 
L 1178 3500 
L 1178 0 
L 603 0 
L 603 3500 
z
M 603 4863 
L 1178 4863 
L 1178 4134 
L 603 4134 
L 603 4863 
z
" transform="scale(0.015625)"/>
       <path id="DejaVuSans-6e" d="M 3513 2113 
L 3513 0 
L 2938 0 
L 2938 2094 
Q 2938 2591 2744 2837 
Q 2550 3084 2163 3084 
Q 1697 3084 1428 2787 
Q 1159 2491 1159 1978 
L 1159 0 
L 581 0 
L 581 3500 
L 1159 3500 
L 1159 2956 
Q 1366 3272 1645 3428 
Q 1925 3584 2291 3584 
Q 2894 3584 3203 3211 
Q 3513 2838 3513 2113 
z
" transform="scale(0.015625)"/>
       <path id="DejaVuSans-62" d="M 3116 1747 
Q 3116 2381 2855 2742 
Q 2594 3103 2138 3103 
Q 1681 3103 1420 2742 
Q 1159 2381 1159 1747 
Q 1159 1113 1420 752 
Q 1681 391 2138 391 
Q 2594 391 2855 752 
Q 3116 1113 3116 1747 
z
M 1159 2969 
Q 1341 3281 1617 3432 
Q 1894 3584 2278 3584 
Q 2916 3584 3314 3078 
Q 3713 2572 3713 1747 
Q 3713 922 3314 415 
Q 2916 -91 2278 -91 
Q 1894 -91 1617 61 
Q 1341 213 1159 525 
L 1159 0 
L 581 0 
L 581 4863 
L 1159 4863 
L 1159 2969 
z
" transform="scale(0.015625)"/>
      </defs>
      <use xlink:href="#DejaVuSans-50"/>
      <use xlink:href="#DejaVuSans-79" x="60.302734"/>
      <use xlink:href="#DejaVuSans-72" x="119.482422"/>
      <use xlink:href="#DejaVuSans-6f" x="158.345703"/>
      <use xlink:href="#DejaVuSans-6c" x="219.527344"/>
      <use xlink:href="#DejaVuSans-79" x="247.310547"/>
      <use xlink:href="#DejaVuSans-73" x="306.490234"/>
      <use xlink:href="#DejaVuSans-69" x="358.589844"/>
      <use xlink:href="#DejaVuSans-73" x="386.373047"/>
      <use xlink:href="#DejaVuSans-20" x="438.472656"/>
      <use xlink:href="#DejaVuSans-6e" x="470.259766"/>
      <use xlink:href="#DejaVuSans-75" x="533.638672"/>
      <use xlink:href="#DejaVuSans-6d" x="597.017578"/>
      <use xlink:href="#DejaVuSans-62" x="694.429688"/>
      <use xlink:href="#DejaVuSans-65" x="757.90625"/>
      <use xlink:href="#DejaVuSans-72" x="819.429688"/>
     </g>
    </g>
   </g>
   <g id="line2d_14">
    <path d="M 57.6 262.090886 
L 57.6 262.090624 
L 57.710109 262.117095 
L 61.083847 262.876355 
L 62.594542 263.180863 
L 67.081481 263.934895 
L 70.901894 264.359747 
L 71.311499 264.390043 
L 74.66395 264.52165 
L 74.951334 264.520258 
L 77.905924 264.399206 
L 78.132381 264.378237 
L 80.780868 264.035539 
L 80.99815 263.994593 
L 83.423483 263.441378 
L 85.735771 262.690752 
L 85.922589 262.616098 
L 88.213222 261.6161 
L 88.387561 261.526151 
L 88.623194 261.408232 
L 93.984766 258.818195 
L 94.330508 258.750368 
L 94.495671 258.722031 
L 95.544642 258.690079 
L 96.56315 258.849527 
L 96.890541 258.929927 
L 102.365524 260.99693 
L 109.889635 263.874305 
L 116.84485 266.275548 
L 122.717327 268.070002 
L 127.589648 269.331901 
L 131.645327 270.158055 
L 132.168344 270.245403 
L 135.774412 270.723334 
L 136.101436 270.754213 
L 137.028186 270.835918 
L 137.355577 270.859959 
L 138.221033 270.920206 
L 138.539248 270.938194 
L 149.244406 271.448126 
L 152.425086 271.406138 
L 157.737843 271.26346 
L 159.634286 271.501676 
L 161.906934 272.017465 
L 173.498837 274.909883 
L 176.159803 275.227004 
L 178.199754 275.230616 
L 180.00444 274.983429 
L 181.744895 274.484699 
L 181.919234 274.417016 
L 182.206619 274.305972 
L 184.589376 273.219218 
L 184.75454 273.134688 
L 187.63866 271.842257 
L 187.926044 271.727343 
L 193.511137 269.61775 
L 193.856879 269.521501 
L 194.031218 269.472094 
L 194.407423 269.383108 
L 194.581763 269.342151 
L 195.000544 269.261388 
L 196.600427 269.097213 
L 197.312831 269.088887 
L 197.591407 269.091671 
L 200.606924 269.270262 
L 201.506147 269.327288 
L 204.714721 269.400256 
L 204.941179 269.393393 
L 207.589666 269.213386 
L 207.806948 269.185797 
L 210.281463 268.776484 
L 210.455802 268.735715 
L 210.80448 268.655896 
L 213.037122 268.013667 
L 215.05285 267.207838 
L 215.218013 267.126055 
L 217.132441 266.097387 
L 217.30678 265.98616 
L 217.502774 265.864537 
L 219.824237 264.281285 
L 219.989401 264.15653 
L 223.026572 262.097237 
L 223.252663 261.96531 
L 225.0757 261.045799 
L 225.363084 260.924145 
L 227.03307 260.353856 
L 227.440106 260.256206 
L 227.626557 260.213318 
L 229.103852 260.019648 
L 230.685016 260.042225 
L 232.722032 260.310971 
L 259.353347 265.70987 
L 268.865292 267.321471 
L 276.377291 268.377155 
L 277.490492 268.510563 
L 283.506845 269.09634 
L 288.501386 269.35769 
L 292.98539 269.368744 
L 293.28195 269.359993 
L 294.116942 269.334383 
L 294.435157 269.320788 
L 299.133139 269.022582 
L 299.368772 269.001602 
L 300.02025 268.948389 
L 300.255516 268.926681 
L 300.888642 268.87224 
L 307.259913 268.432769 
L 307.984797 268.404492 
L 315.376043 268.02658 
L 315.486152 268.012217 
L 316.051378 267.944809 
L 319.688643 267.252375 
L 319.798752 267.219483 
L 320.158441 267.12047 
L 324.059968 265.614541 
L 324.247153 265.515953 
L 325.267496 264.96072 
L 326.559441 264.153971 
L 326.753967 264.029194 
L 326.864076 263.946272 
L 327.058601 263.817534 
L 327.245787 263.679737 
L 328.240437 262.933247 
L 328.405601 262.803595 
L 329.290143 262.091826 
L 329.477328 261.929891 
L 330.405913 261.147702 
L 331.117951 260.556945 
L 331.290455 260.41734 
L 333.56237 259.044416 
L 333.911048 258.939684 
L 333.911048 258.936069 
L 335.184641 258.763651 
L 340.34508 259.371572 
L 343.035409 259.758974 
L 354.464717 260.964272 
L 354.464717 260.963814 
L 354.574826 260.970622 
L 356.483381 261.06961 
L 356.483381 261.068969 
L 356.59349 261.073451 
L 358.135015 261.122116 
L 358.135015 261.121302 
L 358.226772 261.124062 
L 358.245124 261.123608 
L 359.544409 261.138863 
L 363.284443 261.042889 
L 367.43555 260.63189 
L 371.931665 259.700074 
L 376.820502 257.897709 
L 377.026039 257.795762 
L 377.27929 257.675339 
L 377.477486 257.573304 
L 378.861188 256.822787 
L 379.085076 256.69675 
L 379.279602 256.575456 
L 380.248561 255.971495 
L 380.35867 255.891628 
L 380.556866 255.760183 
L 381.584549 255.03045 
L 381.779075 254.883663 
L 382.630584 254.219066 
L 382.817769 254.059775 
L 383.621565 253.369169 
L 384.410679 252.646671 
L 385.221815 251.846481 
L 385.357616 251.708777 
L 386.139389 250.876339 
L 386.27152 250.738835 
L 386.458705 250.522491 
L 387.211116 249.647926 
L 387.346917 249.485791 
L 388.066296 248.585394 
L 388.180075 248.439438 
L 388.840728 247.569771 
L 389.027914 247.303856 
L 389.71793 246.319205 
L 389.820698 246.180807 
L 390.007883 245.893659 
L 390.697899 244.83055 
L 390.811679 244.650985 
L 391.494354 243.534883 
L 391.604463 243.343956 
L 392.210062 242.299065 
L 392.870716 241.096799 
L 392.973484 240.902004 
L 393.634138 239.628049 
L 393.736906 239.421684 
L 394.320483 238.238333 
L 394.948104 236.895906 
L 395.02151 236.735389 
L 395.583066 235.482188 
L 396.232709 233.956787 
L 396.302444 233.803271 
L 396.48963 233.334856 
L 397.051185 231.938701 
L 397.671466 230.321788 
L 397.770564 230.069259 
L 397.957749 229.548024 
L 398.504623 228.047455 
L 398.691808 227.497871 
L 399.238683 225.915748 
L 399.425868 225.336452 
L 399.972742 223.668842 
L 400.159928 223.058394 
L 400.706802 221.30117 
L 400.893987 220.658071 
L 401.41517 218.880683 
L 402.013428 216.748806 
L 402.064812 216.559639 
L 402.604346 214.583969 
L 402.791531 213.849096 
L 403.38979 211.501195 
L 403.441174 211.292907 
L 403.980708 209.117799 
L 404.167893 208.309043 
L 404.766152 205.725419 
L 404.810195 205.53679 
L 405.408454 202.835944 
L 405.452497 202.63878 
L 406.050756 199.815869 
L 406.0948 199.609819 
L 406.693058 196.659816 
L 406.737102 196.444506 
L 407.33536 193.362182 
L 407.379404 193.137231 
L 407.977662 189.917148 
L 408.021706 189.68216 
L 408.619965 186.31868 
L 408.664008 186.073256 
L 409.262267 182.560491 
L 409.30631 182.304201 
L 409.904569 178.636063 
L 409.948613 178.368457 
L 410.546871 174.538603 
L 410.590915 174.259224 
L 411.189173 170.261073 
L 411.233217 169.969444 
L 411.831475 165.796148 
L 411.875519 165.491768 
L 412.473778 161.136217 
L 412.517821 160.818574 
L 413.11608 156.273377 
L 413.160123 155.94193 
L 413.758382 151.199412 
L 413.802425 150.853606 
L 414.400684 145.905784 
L 414.444728 145.545038 
L 414.72 141.519158 
L 414.72 56.585611 
L 414.72 56.585611 
" clip-path="url(#p857da87f10)" style="fill: none; stroke: #1f77b4; stroke-width: 1.5; stroke-linecap: square"/>
   </g>
   <g id="line2d_15">
    <path d="M 57.6 257.164504 
L 57.6 257.164242 
L 57.710109 257.191689 
L 61.083847 257.980655 
L 62.594542 258.298342 
L 67.081481 259.091068 
L 70.901894 259.54835 
L 71.311499 259.582095 
L 74.66395 259.741729 
L 74.951334 259.742724 
L 77.887572 259.645709 
L 80.56689 259.340625 
L 80.771693 259.305167 
L 81.212128 259.228558 
L 83.628653 258.677209 
L 85.919286 257.932374 
L 86.106104 257.857588 
L 88.396737 256.857008 
L 88.571076 256.767101 
L 88.806709 256.649376 
L 93.853369 254.225163 
L 94.933171 254.064149 
L 95.492891 254.075003 
L 95.688518 254.090309 
L 96.890541 254.327197 
L 102.386812 256.4444 
L 109.51343 259.228813 
L 116.107487 261.573278 
L 127.424484 264.912513 
L 128.476392 265.158347 
L 132.40985 265.937919 
L 132.889925 266.01517 
L 134.104427 266.19428 
L 137.704255 266.573194 
L 143.056651 266.866564 
L 151.782784 267.212104 
L 158.306739 267.132921 
L 162.90709 268.136058 
L 171.93896 270.521636 
L 175.077065 271.055018 
L 176.015927 271.145468 
L 177.003971 271.194425 
L 177.361825 271.196609 
L 178.056246 271.179112 
L 179.820925 270.971179 
L 181.56138 270.510048 
L 181.735719 270.44601 
L 182.023104 270.340654 
L 184.25281 269.359137 
L 184.417973 269.275593 
L 187.577366 267.861848 
L 187.865117 267.748214 
L 193.449843 265.664308 
L 193.795585 265.568438 
L 193.969924 265.519128 
L 194.346129 265.43031 
L 194.520469 265.38935 
L 194.930441 265.310187 
L 196.508669 265.146089 
L 197.202722 265.135947 
L 199.658886 265.265872 
L 200.6161 265.339823 
L 200.955602 265.363236 
L 204.359804 265.492068 
L 207.0516 265.369951 
L 209.550339 265.036009 
L 211.883915 264.503776 
L 214.015991 263.790879 
L 215.970425 262.904306 
L 216.135588 262.81285 
L 218.083782 261.651329 
L 221.020021 259.592561 
L 223.240551 258.160544 
L 223.476184 258.028397 
L 225.289678 257.153333 
L 225.586605 257.034451 
L 227.247415 256.507868 
L 227.666196 256.416062 
L 229.143491 256.235898 
L 230.009315 256.230882 
L 230.305875 256.242471 
L 237.056287 257.459718 
L 250.532153 260.353613 
L 258.597633 261.93454 
L 265.929053 263.247684 
L 274.095467 264.516589 
L 280.610246 265.30911 
L 285.953833 265.74119 
L 290.572169 265.898253 
L 294.884769 265.82744 
L 299.747914 265.516792 
L 307.565649 265.000389 
L 308.290532 264.976667 
L 315.232901 264.651671 
L 317.468113 264.352919 
L 321.065005 263.481833 
L 321.175114 263.441548 
L 321.490759 263.338146 
L 321.696296 263.262642 
L 321.982579 263.162183 
L 321.982579 263.157557 
L 323.186437 262.668258 
L 327.521059 260.142076 
L 328.486347 259.40641 
L 328.64784 259.283631 
L 328.835026 259.127634 
L 329.701216 258.412926 
L 330.442616 257.787819 
L 330.60778 257.658604 
L 330.717889 257.558303 
L 330.883052 257.430808 
L 330.993161 257.33219 
L 331.158324 257.207399 
L 331.268433 257.111252 
L 331.433597 256.981966 
L 333.595402 255.719874 
L 333.944081 255.615491 
L 334.718513 255.481881 
L 335.78657 255.467831 
L 337.551984 255.659806 
L 341.07914 256.195494 
L 343.78782 256.588283 
L 345.02471 256.756136 
L 347.85818 257.11176 
L 347.85818 257.111737 
L 356.373272 257.838514 
L 359.907769 257.927625 
L 360.326183 257.925993 
L 361.386899 257.91265 
L 364.7232 257.746961 
L 368.962394 257.200818 
L 370.889301 256.800689 
L 370.99941 256.771083 
L 371.410483 256.669283 
L 373.010733 256.217897 
L 377.983987 254.168264 
L 378.178513 254.059708 
L 379.209866 253.476262 
L 380.186166 252.873758 
L 380.380691 252.740179 
L 381.290925 252.111973 
L 382.285576 251.360474 
L 382.45074 251.229439 
L 383.272886 250.553788 
L 383.460072 250.38609 
L 384.252856 249.677246 
L 384.440041 249.494937 
L 385.254847 248.695598 
L 385.41634 248.536906 
L 385.603526 248.335943 
L 386.385299 247.489262 
L 386.528441 247.327786 
L 387.218457 246.532408 
L 387.405642 246.299417 
L 388.080977 245.460004 
L 388.800355 244.507619 
L 388.906794 244.36585 
L 389.626172 243.348812 
L 389.728941 243.21177 
L 389.916126 242.927332 
L 390.606142 241.874226 
L 390.719921 241.69635 
L 391.369564 240.641368 
L 391.472332 240.484257 
L 391.659517 240.158647 
L 392.320171 239.008149 
L 392.422939 238.821691 
L 393.083593 237.602038 
L 393.186361 237.40442 
L 393.769939 236.271064 
L 394.39756 234.984927 
L 394.470966 234.831111 
L 395.032521 233.630062 
L 395.682164 232.167693 
L 395.7519 232.020552 
L 395.939085 231.571336 
L 396.50064 230.232351 
L 397.120921 228.681232 
L 397.220019 228.438997 
L 397.407204 227.938818 
L 397.954079 226.498823 
L 398.141264 225.971281 
L 398.688138 224.452578 
L 398.875323 223.896346 
L 399.422198 222.295126 
L 399.609383 221.708829 
L 400.156257 220.021099 
L 400.343443 219.40329 
L 400.890317 217.624887 
L 401.077502 216.974031 
L 401.598684 215.175239 
L 402.196943 213.017706 
L 402.248327 212.826264 
L 402.787861 210.826862 
L 402.975046 210.08314 
L 403.573305 207.70705 
L 403.624689 207.49626 
L 404.164223 205.295078 
L 404.351408 204.476618 
L 404.949667 201.862036 
L 404.99371 201.671157 
L 405.591969 198.937992 
L 405.636012 198.738474 
L 406.234271 195.881829 
L 406.278314 195.673315 
L 406.876573 192.688093 
L 406.920617 192.470218 
L 407.518875 189.351149 
L 407.562919 189.123525 
L 408.161177 185.865098 
L 408.205221 185.627323 
L 408.80348 182.22384 
L 408.847523 181.975491 
L 409.445782 178.421016 
L 409.489825 178.161686 
L 410.088084 174.450035 
L 410.132127 174.179256 
L 410.730386 170.30404 
L 410.77443 170.021356 
L 411.372688 165.975905 
L 411.416732 165.680831 
L 412.01499 161.458226 
L 412.059034 161.150262 
L 412.657292 156.74332 
L 412.701336 156.421934 
L 413.299595 151.823182 
L 413.343638 151.487835 
L 413.941897 146.689513 
L 413.98594 146.339638 
L 414.584199 141.333665 
L 414.628243 140.968698 
L 414.72 138.848539 
L 414.72 53.568 
L 414.72 53.568 
" clip-path="url(#p857da87f10)" style="fill: none; stroke-dasharray: 5.55,2.4; stroke-dashoffset: 0; stroke: #ff7f0e; stroke-width: 1.5"/>
   </g>
   <g id="line2d_16">
    <path d="M 57.6 285.962033 
L 144.463843 286.621028 
L 258.007449 287.248065 
L 410.77443 287.85746 
L 414.72 287.870804 
L 414.72 287.870804 
" clip-path="url(#p857da87f10)" style="fill: none; stroke: #ff0000; stroke-width: 1.5; stroke-linecap: square"/>
   </g>
   <g id="line2d_17">
    <path d="M -1 295.488 
L 461.8 295.488 
" clip-path="url(#p857da87f10)" style="fill: none; stroke-dasharray: 5.55,2.4; stroke-dashoffset: 0; stroke: #2ca02c; stroke-width: 1.5"/>
   </g>
   <g id="line2d_18">
    <path d="M -1 286.28883 
L 461.8 286.28883 
" clip-path="url(#p857da87f10)" style="fill: none; stroke-dasharray: 5.55,2.4; stroke-dashoffset: 0; stroke: #d62728; stroke-width: 1.5"/>
   </g>
   <g id="patch_3">
    <path d="M 57.6 307.584 
L 57.6 41.472 
" style="fill: none; stroke: #000000; stroke-width: 0.8; stroke-linejoin: miter; stroke-linecap: square"/>
   </g>
   <g id="patch_4">
    <path d="M 414.72 307.584 
L 414.72 41.472 
" style="fill: none; stroke: #000000; stroke-width: 0.8; stroke-linejoin: miter; stroke-linecap: square"/>
   </g>
   <g id="patch_5">
    <path d="M 57.6 307.584 
L 414.72 307.584 
" style="fill: none; stroke: #000000; stroke-width: 0.8; stroke-linejoin: miter; stroke-linecap: square"/>
   </g>
   <g id="patch_6">
    <path d="M 57.6 41.472 
L 414.72 41.472 
" style="fill: none; stroke: #000000; stroke-width: 0.8; stroke-linejoin: miter; stroke-linecap: square"/>
   </g>
   <g id="legend_1">
    <g id="patch_7">
     <path d="M 306.121563 93.506375 
L 407.72 93.506375 
Q 409.72 93.506375 409.72 91.506375 
L 409.72 48.472 
Q 409.72 46.472 407.72 46.472 
L 306.121563 46.472 
Q 304.121563 46.472 304.121563 48.472 
L 304.121563 91.506375 
Q 304.121563 93.506375 306.121563 93.506375 
z
" style="fill: #ffffff; opacity: 0.8; stroke: #cccccc; stroke-linejoin: miter"/>
    </g>
    <g id="line2d_19">
     <path d="M 308.121563 54.570438 
L 318.121563 54.570438 
L 328.121563 54.570438 
" style="fill: none; stroke: #1f77b4; stroke-width: 1.5; stroke-linecap: square"/>
    </g>
    <g id="text_16">
     <!-- Py2 0.177mm -->
     <g transform="translate(336.121563 58.070438)scale(0.1 -0.1)">
      <defs>
       <path id="DejaVuSans-2e" d="M 684 794 
L 1344 794 
L 1344 0 
L 684 0 
L 684 794 
z
" transform="scale(0.015625)"/>
      </defs>
      <use xlink:href="#DejaVuSans-50"/>
      <use xlink:href="#DejaVuSans-79" x="60.302734"/>
      <use xlink:href="#DejaVuSans-32" x="119.482422"/>
      <use xlink:href="#DejaVuSans-20" x="183.105469"/>
      <use xlink:href="#DejaVuSans-30" x="214.892578"/>
      <use xlink:href="#DejaVuSans-2e" x="278.515625"/>
      <use xlink:href="#DejaVuSans-31" x="310.302734"/>
      <use xlink:href="#DejaVuSans-37" x="373.925781"/>
      <use xlink:href="#DejaVuSans-37" x="437.548828"/>
      <use xlink:href="#DejaVuSans-6d" x="501.171875"/>
      <use xlink:href="#DejaVuSans-6d" x="598.583984"/>
     </g>
    </g>
    <g id="line2d_20">
     <path d="M 308.121563 69.248563 
L 318.121563 69.248563 
L 328.121563 69.248563 
" style="fill: none; stroke-dasharray: 5.55,2.4; stroke-dashoffset: 0; stroke: #ff7f0e; stroke-width: 1.5"/>
    </g>
    <g id="text_17">
     <!-- Py1 0.177mm -->
     <g transform="translate(336.121563 72.748563)scale(0.1 -0.1)">
      <use xlink:href="#DejaVuSans-50"/>
      <use xlink:href="#DejaVuSans-79" x="60.302734"/>
      <use xlink:href="#DejaVuSans-31" x="119.482422"/>
      <use xlink:href="#DejaVuSans-20" x="183.105469"/>
      <use xlink:href="#DejaVuSans-30" x="214.892578"/>
      <use xlink:href="#DejaVuSans-2e" x="278.515625"/>
      <use xlink:href="#DejaVuSans-31" x="310.302734"/>
      <use xlink:href="#DejaVuSans-37" x="373.925781"/>
      <use xlink:href="#DejaVuSans-37" x="437.548828"/>
      <use xlink:href="#DejaVuSans-6d" x="501.171875"/>
      <use xlink:href="#DejaVuSans-6d" x="598.583984"/>
     </g>
    </g>
    <g id="line2d_21">
     <path d="M 308.121563 83.926688 
L 318.121563 83.926688 
L 328.121563 83.926688 
" style="fill: none; stroke: #ff0000; stroke-width: 1.5; stroke-linecap: square"/>
    </g>
    <g id="text_18">
     <!-- Bi -->
     <g transform="translate(336.121563 87.426688)scale(0.1 -0.1)">
      <defs>
       <path id="DejaVuSans-42" d="M 1259 2228 
L 1259 519 
L 2272 519 
Q 2781 519 3026 730 
Q 3272 941 3272 1375 
Q 3272 1813 3026 2020 
Q 2781 2228 2272 2228 
L 1259 2228 
z
M 1259 4147 
L 1259 2741 
L 2194 2741 
Q 2656 2741 2882 2914 
Q 3109 3088 3109 3444 
Q 3109 3797 2882 3972 
Q 2656 4147 2194 4147 
L 1259 4147 
z
M 628 4666 
L 2241 4666 
Q 2963 4666 3353 4366 
Q 3744 4066 3744 3513 
Q 3744 3084 3544 2831 
Q 3344 2578 2956 2516 
Q 3422 2416 3680 2098 
Q 3938 1781 3938 1306 
Q 3938 681 3513 340 
Q 3088 0 2303 0 
L 628 0 
L 628 4666 
z
" transform="scale(0.015625)"/>
      </defs>
      <use xlink:href="#DejaVuSans-42"/>
      <use xlink:href="#DejaVuSans-69" x="68.603516"/>
     </g>
    </g>
   </g>
  </g>
 </g>
 <defs>
  <clipPath id="p857da87f10">
   <rect x="57.6" y="41.472" width="357.12" height="266.112"/>
  </clipPath>
 </defs>
</svg>
