<?xml version="1.0" encoding="utf-8" standalone="no"?>
<!DOCTYPE svg PUBLIC "-//W3C//DTD SVG 1.1//EN"
  "http://www.w3.org/Graphics/SVG/1.1/DTD/svg11.dtd">
<svg xmlns:xlink="http://www.w3.org/1999/xlink" width="460.8pt" height="345.6pt" viewBox="0 0 460.8 345.6" xmlns="http://www.w3.org/2000/svg" version="1.1">
 <metadata>
  <rdf:RDF xmlns:dc="http://purl.org/dc/elements/1.1/" xmlns:cc="http://creativecommons.org/ns#" xmlns:rdf="http://www.w3.org/1999/02/22-rdf-syntax-ns#">
   <cc:Work>
    <dc:type rdf:resource="http://purl.org/dc/dcmitype/StillImage"/>
    <dc:date>2022-04-26T12:07:11.266136</dc:date>
    <dc:format>image/svg+xml</dc:format>
    <dc:creator>
     <cc:Agent>
      <dc:title>Matplotlib v3.5.1, https://matplotlib.org/</dc:title>
     </cc:Agent>
    </dc:creator>
   </cc:Work>
  </rdf:RDF>
 </metadata>
 <defs>
  <style type="text/css">*{stroke-linejoin: round; stroke-linecap: butt}</style>
 </defs>
 <g id="figure_1">
  <g id="patch_1">
   <path d="M 0 345.6 
L 460.8 345.6 
L 460.8 0 
L 0 0 
z
" style="fill: #ffffff"/>
  </g>
  <g id="axes_1">
   <g id="patch_2">
    <path d="M 57.6 307.584 
L 414.72 307.584 
L 414.72 41.472 
L 57.6 41.472 
z
" style="fill: #ffffff"/>
   </g>
   <g id="matplotlib.axis_1">
    <g id="xtick_1">
     <g id="line2d_1">
      <defs>
       <path id="m877a1382e9" d="M 0 0 
L 0 3.5 
" style="stroke: #000000; stroke-width: 0.8"/>
      </defs>
      <g>
       <use xlink:href="#m877a1382e9" x="94.30298" y="307.584" style="stroke: #000000; stroke-width: 0.8"/>
      </g>
     </g>
     <g id="text_1">
      <!-- 400 -->
      <g transform="translate(84.75923 322.182437)scale(0.1 -0.1)">
       <defs>
        <path id="DejaVuSans-34" d="M 2419 4116 
L 825 1625 
L 2419 1625 
L 2419 4116 
z
M 2253 4666 
L 3047 4666 
L 3047 1625 
L 3713 1625 
L 3713 1100 
L 3047 1100 
L 3047 0 
L 2419 0 
L 2419 1100 
L 313 1100 
L 313 1709 
L 2253 4666 
z
" transform="scale(0.015625)"/>
        <path id="DejaVuSans-30" d="M 2034 4250 
Q 1547 4250 1301 3770 
Q 1056 3291 1056 2328 
Q 1056 1369 1301 889 
Q 1547 409 2034 409 
Q 2525 409 2770 889 
Q 3016 1369 3016 2328 
Q 3016 3291 2770 3770 
Q 2525 4250 2034 4250 
z
M 2034 4750 
Q 2819 4750 3233 4129 
Q 3647 3509 3647 2328 
Q 3647 1150 3233 529 
Q 2819 -91 2034 -91 
Q 1250 -91 836 529 
Q 422 1150 422 2328 
Q 422 3509 836 4129 
Q 1250 4750 2034 4750 
z
" transform="scale(0.015625)"/>
       </defs>
       <use xlink:href="#DejaVuSans-34"/>
       <use xlink:href="#DejaVuSans-30" x="63.623047"/>
       <use xlink:href="#DejaVuSans-30" x="127.246094"/>
      </g>
     </g>
    </g>
    <g id="xtick_2">
     <g id="line2d_2">
      <g>
       <use xlink:href="#m877a1382e9" x="167.708941" y="307.584" style="stroke: #000000; stroke-width: 0.8"/>
      </g>
     </g>
     <g id="text_2">
      <!-- 600 -->
      <g transform="translate(158.165191 322.182437)scale(0.1 -0.1)">
       <defs>
        <path id="DejaVuSans-36" d="M 2113 2584 
Q 1688 2584 1439 2293 
Q 1191 2003 1191 1497 
Q 1191 994 1439 701 
Q 1688 409 2113 409 
Q 2538 409 2786 701 
Q 3034 994 3034 1497 
Q 3034 2003 2786 2293 
Q 2538 2584 2113 2584 
z
M 3366 4563 
L 3366 3988 
Q 3128 4100 2886 4159 
Q 2644 4219 2406 4219 
Q 1781 4219 1451 3797 
Q 1122 3375 1075 2522 
Q 1259 2794 1537 2939 
Q 1816 3084 2150 3084 
Q 2853 3084 3261 2657 
Q 3669 2231 3669 1497 
Q 3669 778 3244 343 
Q 2819 -91 2113 -91 
Q 1303 -91 875 529 
Q 447 1150 447 2328 
Q 447 3434 972 4092 
Q 1497 4750 2381 4750 
Q 2619 4750 2861 4703 
Q 3103 4656 3366 4563 
z
" transform="scale(0.015625)"/>
       </defs>
       <use xlink:href="#DejaVuSans-36"/>
       <use xlink:href="#DejaVuSans-30" x="63.623047"/>
       <use xlink:href="#DejaVuSans-30" x="127.246094"/>
      </g>
     </g>
    </g>
    <g id="xtick_3">
     <g id="line2d_3">
      <g>
       <use xlink:href="#m877a1382e9" x="241.114902" y="307.584" style="stroke: #000000; stroke-width: 0.8"/>
      </g>
     </g>
     <g id="text_3">
      <!-- 800 -->
      <g transform="translate(231.571152 322.182437)scale(0.1 -0.1)">
       <defs>
        <path id="DejaVuSans-38" d="M 2034 2216 
Q 1584 2216 1326 1975 
Q 1069 1734 1069 1313 
Q 1069 891 1326 650 
Q 1584 409 2034 409 
Q 2484 409 2743 651 
Q 3003 894 3003 1313 
Q 3003 1734 2745 1975 
Q 2488 2216 2034 2216 
z
M 1403 2484 
Q 997 2584 770 2862 
Q 544 3141 544 3541 
Q 544 4100 942 4425 
Q 1341 4750 2034 4750 
Q 2731 4750 3128 4425 
Q 3525 4100 3525 3541 
Q 3525 3141 3298 2862 
Q 3072 2584 2669 2484 
Q 3125 2378 3379 2068 
Q 3634 1759 3634 1313 
Q 3634 634 3220 271 
Q 2806 -91 2034 -91 
Q 1263 -91 848 271 
Q 434 634 434 1313 
Q 434 1759 690 2068 
Q 947 2378 1403 2484 
z
M 1172 3481 
Q 1172 3119 1398 2916 
Q 1625 2713 2034 2713 
Q 2441 2713 2670 2916 
Q 2900 3119 2900 3481 
Q 2900 3844 2670 4047 
Q 2441 4250 2034 4250 
Q 1625 4250 1398 4047 
Q 1172 3844 1172 3481 
z
" transform="scale(0.015625)"/>
       </defs>
       <use xlink:href="#DejaVuSans-38"/>
       <use xlink:href="#DejaVuSans-30" x="63.623047"/>
       <use xlink:href="#DejaVuSans-30" x="127.246094"/>
      </g>
     </g>
    </g>
    <g id="xtick_4">
     <g id="line2d_4">
      <g>
       <use xlink:href="#m877a1382e9" x="314.520863" y="307.584" style="stroke: #000000; stroke-width: 0.8"/>
      </g>
     </g>
     <g id="text_4">
      <!-- 1000 -->
      <g transform="translate(301.795863 322.182437)scale(0.1 -0.1)">
       <defs>
        <path id="DejaVuSans-31" d="M 794 531 
L 1825 531 
L 1825 4091 
L 703 3866 
L 703 4441 
L 1819 4666 
L 2450 4666 
L 2450 531 
L 3481 531 
L 3481 0 
L 794 0 
L 794 531 
z
" transform="scale(0.015625)"/>
       </defs>
       <use xlink:href="#DejaVuSans-31"/>
       <use xlink:href="#DejaVuSans-30" x="63.623047"/>
       <use xlink:href="#DejaVuSans-30" x="127.246094"/>
       <use xlink:href="#DejaVuSans-30" x="190.869141"/>
      </g>
     </g>
    </g>
    <g id="xtick_5">
     <g id="line2d_5">
      <g>
       <use xlink:href="#m877a1382e9" x="387.926824" y="307.584" style="stroke: #000000; stroke-width: 0.8"/>
      </g>
     </g>
     <g id="text_5">
      <!-- 1200 -->
      <g transform="translate(375.201824 322.182437)scale(0.1 -0.1)">
       <defs>
        <path id="DejaVuSans-32" d="M 1228 531 
L 3431 531 
L 3431 0 
L 469 0 
L 469 531 
Q 828 903 1448 1529 
Q 2069 2156 2228 2338 
Q 2531 2678 2651 2914 
Q 2772 3150 2772 3378 
Q 2772 3750 2511 3984 
Q 2250 4219 1831 4219 
Q 1534 4219 1204 4116 
Q 875 4013 500 3803 
L 500 4441 
Q 881 4594 1212 4672 
Q 1544 4750 1819 4750 
Q 2544 4750 2975 4387 
Q 3406 4025 3406 3419 
Q 3406 3131 3298 2873 
Q 3191 2616 2906 2266 
Q 2828 2175 2409 1742 
Q 1991 1309 1228 531 
z
" transform="scale(0.015625)"/>
       </defs>
       <use xlink:href="#DejaVuSans-31"/>
       <use xlink:href="#DejaVuSans-32" x="63.623047"/>
       <use xlink:href="#DejaVuSans-30" x="127.246094"/>
       <use xlink:href="#DejaVuSans-30" x="190.869141"/>
      </g>
     </g>
    </g>
    <g id="text_6">
     <!-- Temperature (K) -->
     <g transform="translate(195.720937 335.860562)scale(0.1 -0.1)">
      <defs>
       <path id="DejaVuSans-54" d="M -19 4666 
L 3928 4666 
L 3928 4134 
L 2272 4134 
L 2272 0 
L 1638 0 
L 1638 4134 
L -19 4134 
L -19 4666 
z
" transform="scale(0.015625)"/>
       <path id="DejaVuSans-65" d="M 3597 1894 
L 3597 1613 
L 953 1613 
Q 991 1019 1311 708 
Q 1631 397 2203 397 
Q 2534 397 2845 478 
Q 3156 559 3463 722 
L 3463 178 
Q 3153 47 2828 -22 
Q 2503 -91 2169 -91 
Q 1331 -91 842 396 
Q 353 884 353 1716 
Q 353 2575 817 3079 
Q 1281 3584 2069 3584 
Q 2775 3584 3186 3129 
Q 3597 2675 3597 1894 
z
M 3022 2063 
Q 3016 2534 2758 2815 
Q 2500 3097 2075 3097 
Q 1594 3097 1305 2825 
Q 1016 2553 972 2059 
L 3022 2063 
z
" transform="scale(0.015625)"/>
       <path id="DejaVuSans-6d" d="M 3328 2828 
Q 3544 3216 3844 3400 
Q 4144 3584 4550 3584 
Q 5097 3584 5394 3201 
Q 5691 2819 5691 2113 
L 5691 0 
L 5113 0 
L 5113 2094 
Q 5113 2597 4934 2840 
Q 4756 3084 4391 3084 
Q 3944 3084 3684 2787 
Q 3425 2491 3425 1978 
L 3425 0 
L 2847 0 
L 2847 2094 
Q 2847 2600 2669 2842 
Q 2491 3084 2119 3084 
Q 1678 3084 1418 2786 
Q 1159 2488 1159 1978 
L 1159 0 
L 581 0 
L 581 3500 
L 1159 3500 
L 1159 2956 
Q 1356 3278 1631 3431 
Q 1906 3584 2284 3584 
Q 2666 3584 2933 3390 
Q 3200 3197 3328 2828 
z
" transform="scale(0.015625)"/>
       <path id="DejaVuSans-70" d="M 1159 525 
L 1159 -1331 
L 581 -1331 
L 581 3500 
L 1159 3500 
L 1159 2969 
Q 1341 3281 1617 3432 
Q 1894 3584 2278 3584 
Q 2916 3584 3314 3078 
Q 3713 2572 3713 1747 
Q 3713 922 3314 415 
Q 2916 -91 2278 -91 
Q 1894 -91 1617 61 
Q 1341 213 1159 525 
z
M 3116 1747 
Q 3116 2381 2855 2742 
Q 2594 3103 2138 3103 
Q 1681 3103 1420 2742 
Q 1159 2381 1159 1747 
Q 1159 1113 1420 752 
Q 1681 391 2138 391 
Q 2594 391 2855 752 
Q 3116 1113 3116 1747 
z
" transform="scale(0.015625)"/>
       <path id="DejaVuSans-72" d="M 2631 2963 
Q 2534 3019 2420 3045 
Q 2306 3072 2169 3072 
Q 1681 3072 1420 2755 
Q 1159 2438 1159 1844 
L 1159 0 
L 581 0 
L 581 3500 
L 1159 3500 
L 1159 2956 
Q 1341 3275 1631 3429 
Q 1922 3584 2338 3584 
Q 2397 3584 2469 3576 
Q 2541 3569 2628 3553 
L 2631 2963 
z
" transform="scale(0.015625)"/>
       <path id="DejaVuSans-61" d="M 2194 1759 
Q 1497 1759 1228 1600 
Q 959 1441 959 1056 
Q 959 750 1161 570 
Q 1363 391 1709 391 
Q 2188 391 2477 730 
Q 2766 1069 2766 1631 
L 2766 1759 
L 2194 1759 
z
M 3341 1997 
L 3341 0 
L 2766 0 
L 2766 531 
Q 2569 213 2275 61 
Q 1981 -91 1556 -91 
Q 1019 -91 701 211 
Q 384 513 384 1019 
Q 384 1609 779 1909 
Q 1175 2209 1959 2209 
L 2766 2209 
L 2766 2266 
Q 2766 2663 2505 2880 
Q 2244 3097 1772 3097 
Q 1472 3097 1187 3025 
Q 903 2953 641 2809 
L 641 3341 
Q 956 3463 1253 3523 
Q 1550 3584 1831 3584 
Q 2591 3584 2966 3190 
Q 3341 2797 3341 1997 
z
" transform="scale(0.015625)"/>
       <path id="DejaVuSans-74" d="M 1172 4494 
L 1172 3500 
L 2356 3500 
L 2356 3053 
L 1172 3053 
L 1172 1153 
Q 1172 725 1289 603 
Q 1406 481 1766 481 
L 2356 481 
L 2356 0 
L 1766 0 
Q 1100 0 847 248 
Q 594 497 594 1153 
L 594 3053 
L 172 3053 
L 172 3500 
L 594 3500 
L 594 4494 
L 1172 4494 
z
" transform="scale(0.015625)"/>
       <path id="DejaVuSans-75" d="M 544 1381 
L 544 3500 
L 1119 3500 
L 1119 1403 
Q 1119 906 1312 657 
Q 1506 409 1894 409 
Q 2359 409 2629 706 
Q 2900 1003 2900 1516 
L 2900 3500 
L 3475 3500 
L 3475 0 
L 2900 0 
L 2900 538 
Q 2691 219 2414 64 
Q 2138 -91 1772 -91 
Q 1169 -91 856 284 
Q 544 659 544 1381 
z
M 1991 3584 
L 1991 3584 
z
" transform="scale(0.015625)"/>
       <path id="DejaVuSans-20" transform="scale(0.015625)"/>
       <path id="DejaVuSans-28" d="M 1984 4856 
Q 1566 4138 1362 3434 
Q 1159 2731 1159 2009 
Q 1159 1288 1364 580 
Q 1569 -128 1984 -844 
L 1484 -844 
Q 1016 -109 783 600 
Q 550 1309 550 2009 
Q 550 2706 781 3412 
Q 1013 4119 1484 4856 
L 1984 4856 
z
" transform="scale(0.015625)"/>
       <path id="DejaVuSans-4b" d="M 628 4666 
L 1259 4666 
L 1259 2694 
L 3353 4666 
L 4166 4666 
L 1850 2491 
L 4331 0 
L 3500 0 
L 1259 2247 
L 1259 0 
L 628 0 
L 628 4666 
z
" transform="scale(0.015625)"/>
       <path id="DejaVuSans-29" d="M 513 4856 
L 1013 4856 
Q 1481 4119 1714 3412 
Q 1947 2706 1947 2009 
Q 1947 1309 1714 600 
Q 1481 -109 1013 -844 
L 513 -844 
Q 928 -128 1133 580 
Q 1338 1288 1338 2009 
Q 1338 2731 1133 3434 
Q 928 4138 513 4856 
z
" transform="scale(0.015625)"/>
      </defs>
      <use xlink:href="#DejaVuSans-54"/>
      <use xlink:href="#DejaVuSans-65" x="44.083984"/>
      <use xlink:href="#DejaVuSans-6d" x="105.607422"/>
      <use xlink:href="#DejaVuSans-70" x="203.019531"/>
      <use xlink:href="#DejaVuSans-65" x="266.496094"/>
      <use xlink:href="#DejaVuSans-72" x="328.019531"/>
      <use xlink:href="#DejaVuSans-61" x="369.132812"/>
      <use xlink:href="#DejaVuSans-74" x="430.412109"/>
      <use xlink:href="#DejaVuSans-75" x="469.621094"/>
      <use xlink:href="#DejaVuSans-72" x="533"/>
      <use xlink:href="#DejaVuSans-65" x="571.863281"/>
      <use xlink:href="#DejaVuSans-20" x="633.386719"/>
      <use xlink:href="#DejaVuSans-28" x="665.173828"/>
      <use xlink:href="#DejaVuSans-4b" x="704.1875"/>
      <use xlink:href="#DejaVuSans-29" x="769.763672"/>
     </g>
    </g>
   </g>
   <g id="matplotlib.axis_2">
    <g id="ytick_1">
     <g id="line2d_6">
      <defs>
       <path id="m14338cb769" d="M 0 0 
L -3.5 0 
" style="stroke: #000000; stroke-width: 0.8"/>
      </defs>
      <g>
       <use xlink:href="#m14338cb769" x="57.6" y="276.962724" style="stroke: #000000; stroke-width: 0.8"/>
      </g>
     </g>
     <g id="text_7">
      <!-- $\mathdefault{10^{0}}$ -->
      <g transform="translate(33 280.761942)scale(0.1 -0.1)">
       <use xlink:href="#DejaVuSans-31" transform="translate(0 0.765625)"/>
       <use xlink:href="#DejaVuSans-30" transform="translate(63.623047 0.765625)"/>
       <use xlink:href="#DejaVuSans-30" transform="translate(128.203125 39.046875)scale(0.7)"/>
      </g>
     </g>
    </g>
    <g id="ytick_2">
     <g id="line2d_7">
      <g>
       <use xlink:href="#m14338cb769" x="57.6" y="239.912171" style="stroke: #000000; stroke-width: 0.8"/>
      </g>
     </g>
     <g id="text_8">
      <!-- $\mathdefault{10^{2}}$ -->
      <g transform="translate(33 243.711389)scale(0.1 -0.1)">
       <use xlink:href="#DejaVuSans-31" transform="translate(0 0.765625)"/>
       <use xlink:href="#DejaVuSans-30" transform="translate(63.623047 0.765625)"/>
       <use xlink:href="#DejaVuSans-32" transform="translate(128.203125 39.046875)scale(0.7)"/>
      </g>
     </g>
    </g>
    <g id="ytick_3">
     <g id="line2d_8">
      <g>
       <use xlink:href="#m14338cb769" x="57.6" y="202.861618" style="stroke: #000000; stroke-width: 0.8"/>
      </g>
     </g>
     <g id="text_9">
      <!-- $\mathdefault{10^{4}}$ -->
      <g transform="translate(33 206.660836)scale(0.1 -0.1)">
       <use xlink:href="#DejaVuSans-31" transform="translate(0 0.684375)"/>
       <use xlink:href="#DejaVuSans-30" transform="translate(63.623047 0.684375)"/>
       <use xlink:href="#DejaVuSans-34" transform="translate(128.203125 38.965625)scale(0.7)"/>
      </g>
     </g>
    </g>
    <g id="ytick_4">
     <g id="line2d_9">
      <g>
       <use xlink:href="#m14338cb769" x="57.6" y="165.811065" style="stroke: #000000; stroke-width: 0.8"/>
      </g>
     </g>
     <g id="text_10">
      <!-- $\mathdefault{10^{6}}$ -->
      <g transform="translate(33 169.610283)scale(0.1 -0.1)">
       <use xlink:href="#DejaVuSans-31" transform="translate(0 0.765625)"/>
       <use xlink:href="#DejaVuSans-30" transform="translate(63.623047 0.765625)"/>
       <use xlink:href="#DejaVuSans-36" transform="translate(128.203125 39.046875)scale(0.7)"/>
      </g>
     </g>
    </g>
    <g id="ytick_5">
     <g id="line2d_10">
      <g>
       <use xlink:href="#m14338cb769" x="57.6" y="128.760512" style="stroke: #000000; stroke-width: 0.8"/>
      </g>
     </g>
     <g id="text_11">
      <!-- $\mathdefault{10^{8}}$ -->
      <g transform="translate(33 132.559731)scale(0.1 -0.1)">
       <use xlink:href="#DejaVuSans-31" transform="translate(0 0.765625)"/>
       <use xlink:href="#DejaVuSans-30" transform="translate(63.623047 0.765625)"/>
       <use xlink:href="#DejaVuSans-38" transform="translate(128.203125 39.046875)scale(0.7)"/>
      </g>
     </g>
    </g>
    <g id="ytick_6">
     <g id="line2d_11">
      <g>
       <use xlink:href="#m14338cb769" x="57.6" y="91.709959" style="stroke: #000000; stroke-width: 0.8"/>
      </g>
     </g>
     <g id="text_12">
      <!-- $\mathdefault{10^{10}}$ -->
      <g transform="translate(28.5 95.509178)scale(0.1 -0.1)">
       <use xlink:href="#DejaVuSans-31" transform="translate(0 0.765625)"/>
       <use xlink:href="#DejaVuSans-30" transform="translate(63.623047 0.765625)"/>
       <use xlink:href="#DejaVuSans-31" transform="translate(128.203125 39.046875)scale(0.7)"/>
       <use xlink:href="#DejaVuSans-30" transform="translate(172.739258 39.046875)scale(0.7)"/>
      </g>
     </g>
    </g>
    <g id="ytick_7">
     <g id="line2d_12">
      <g>
       <use xlink:href="#m14338cb769" x="57.6" y="54.659406" style="stroke: #000000; stroke-width: 0.8"/>
      </g>
     </g>
     <g id="text_13">
      <!-- $\mathdefault{10^{12}}$ -->
      <g transform="translate(28.5 58.458625)scale(0.1 -0.1)">
       <use xlink:href="#DejaVuSans-31" transform="translate(0 0.765625)"/>
       <use xlink:href="#DejaVuSans-30" transform="translate(63.623047 0.765625)"/>
       <use xlink:href="#DejaVuSans-31" transform="translate(128.203125 39.046875)scale(0.7)"/>
       <use xlink:href="#DejaVuSans-32" transform="translate(172.739258 39.046875)scale(0.7)"/>
      </g>
     </g>
    </g>
    <g id="text_14">
     <!-- Pyrolysis number -->
     <g transform="translate(22.420312 217.554563)rotate(-90)scale(0.1 -0.1)">
      <defs>
       <path id="DejaVuSans-50" d="M 1259 4147 
L 1259 2394 
L 2053 2394 
Q 2494 2394 2734 2622 
Q 2975 2850 2975 3272 
Q 2975 3691 2734 3919 
Q 2494 4147 2053 4147 
L 1259 4147 
z
M 628 4666 
L 2053 4666 
Q 2838 4666 3239 4311 
Q 3641 3956 3641 3272 
Q 3641 2581 3239 2228 
Q 2838 1875 2053 1875 
L 1259 1875 
L 1259 0 
L 628 0 
L 628 4666 
z
" transform="scale(0.015625)"/>
       <path id="DejaVuSans-79" d="M 2059 -325 
Q 1816 -950 1584 -1140 
Q 1353 -1331 966 -1331 
L 506 -1331 
L 506 -850 
L 844 -850 
Q 1081 -850 1212 -737 
Q 1344 -625 1503 -206 
L 1606 56 
L 191 3500 
L 800 3500 
L 1894 763 
L 2988 3500 
L 3597 3500 
L 2059 -325 
z
" transform="scale(0.015625)"/>
       <path id="DejaVuSans-6f" d="M 1959 3097 
Q 1497 3097 1228 2736 
Q 959 2375 959 1747 
Q 959 1119 1226 758 
Q 1494 397 1959 397 
Q 2419 397 2687 759 
Q 2956 1122 2956 1747 
Q 2956 2369 2687 2733 
Q 2419 3097 1959 3097 
z
M 1959 3584 
Q 2709 3584 3137 3096 
Q 3566 2609 3566 1747 
Q 3566 888 3137 398 
Q 2709 -91 1959 -91 
Q 1206 -91 779 398 
Q 353 888 353 1747 
Q 353 2609 779 3096 
Q 1206 3584 1959 3584 
z
" transform="scale(0.015625)"/>
       <path id="DejaVuSans-6c" d="M 603 4863 
L 1178 4863 
L 1178 0 
L 603 0 
L 603 4863 
z
" transform="scale(0.015625)"/>
       <path id="DejaVuSans-73" d="M 2834 3397 
L 2834 2853 
Q 2591 2978 2328 3040 
Q 2066 3103 1784 3103 
Q 1356 3103 1142 2972 
Q 928 2841 928 2578 
Q 928 2378 1081 2264 
Q 1234 2150 1697 2047 
L 1894 2003 
Q 2506 1872 2764 1633 
Q 3022 1394 3022 966 
Q 3022 478 2636 193 
Q 2250 -91 1575 -91 
Q 1294 -91 989 -36 
Q 684 19 347 128 
L 347 722 
Q 666 556 975 473 
Q 1284 391 1588 391 
Q 1994 391 2212 530 
Q 2431 669 2431 922 
Q 2431 1156 2273 1281 
Q 2116 1406 1581 1522 
L 1381 1569 
Q 847 1681 609 1914 
Q 372 2147 372 2553 
Q 372 3047 722 3315 
Q 1072 3584 1716 3584 
Q 2034 3584 2315 3537 
Q 2597 3491 2834 3397 
z
" transform="scale(0.015625)"/>
       <path id="DejaVuSans-69" d="M 603 3500 
L 1178 3500 
L 1178 0 
L 603 0 
L 603 3500 
z
M 603 4863 
L 1178 4863 
L 1178 4134 
L 603 4134 
L 603 4863 
z
" transform="scale(0.015625)"/>
       <path id="DejaVuSans-6e" d="M 3513 2113 
L 3513 0 
L 2938 0 
L 2938 2094 
Q 2938 2591 2744 2837 
Q 2550 3084 2163 3084 
Q 1697 3084 1428 2787 
Q 1159 2491 1159 1978 
L 1159 0 
L 581 0 
L 581 3500 
L 1159 3500 
L 1159 2956 
Q 1366 3272 1645 3428 
Q 1925 3584 2291 3584 
Q 2894 3584 3203 3211 
Q 3513 2838 3513 2113 
z
" transform="scale(0.015625)"/>
       <path id="DejaVuSans-62" d="M 3116 1747 
Q 3116 2381 2855 2742 
Q 2594 3103 2138 3103 
Q 1681 3103 1420 2742 
Q 1159 2381 1159 1747 
Q 1159 1113 1420 752 
Q 1681 391 2138 391 
Q 2594 391 2855 752 
Q 3116 1113 3116 1747 
z
M 1159 2969 
Q 1341 3281 1617 3432 
Q 1894 3584 2278 3584 
Q 2916 3584 3314 3078 
Q 3713 2572 3713 1747 
Q 3713 922 3314 415 
Q 2916 -91 2278 -91 
Q 1894 -91 1617 61 
Q 1341 213 1159 525 
L 1159 0 
L 581 0 
L 581 4863 
L 1159 4863 
L 1159 2969 
z
" transform="scale(0.015625)"/>
      </defs>
      <use xlink:href="#DejaVuSans-50"/>
      <use xlink:href="#DejaVuSans-79" x="60.302734"/>
      <use xlink:href="#DejaVuSans-72" x="119.482422"/>
      <use xlink:href="#DejaVuSans-6f" x="158.345703"/>
      <use xlink:href="#DejaVuSans-6c" x="219.527344"/>
      <use xlink:href="#DejaVuSans-79" x="247.310547"/>
      <use xlink:href="#DejaVuSans-73" x="306.490234"/>
      <use xlink:href="#DejaVuSans-69" x="358.589844"/>
      <use xlink:href="#DejaVuSans-73" x="386.373047"/>
      <use xlink:href="#DejaVuSans-20" x="438.472656"/>
      <use xlink:href="#DejaVuSans-6e" x="470.259766"/>
      <use xlink:href="#DejaVuSans-75" x="533.638672"/>
      <use xlink:href="#DejaVuSans-6d" x="597.017578"/>
      <use xlink:href="#DejaVuSans-62" x="694.429688"/>
      <use xlink:href="#DejaVuSans-65" x="757.90625"/>
      <use xlink:href="#DejaVuSans-72" x="819.429688"/>
     </g>
    </g>
   </g>
   <g id="line2d_13">
    <path d="M 57.6 160.977871 
L 61.392519 164.821206 
L 65.062817 168.227285 
L 68.525376 171.144792 
L 71.791941 173.612198 
L 74.838289 175.640767 
L 75.09521 175.793078 
L 77.823342 177.324058 
L 80.355848 178.495429 
L 82.680248 179.330301 
L 84.870314 179.891455 
L 85.005014 179.904265 
L 86.999087 180.16249 
L 88.907642 180.201043 
L 89.042342 180.175719 
L 90.865012 179.970503 
L 90.999712 179.923475 
L 92.71264 179.469152 
L 94.413089 178.812012 
L 94.547789 178.720226 
L 96.248238 177.800645 
L 96.382938 177.683586 
L 98.132202 176.42159 
L 100.053236 174.747868 
L 102.90359 171.91567 
L 104.653221 170.28397 
L 104.738739 170.213552 
L 105.75431 169.488482 
L 105.839828 169.438073 
L 106.733179 169.03496 
L 106.892103 169.020739 
L 107.026803 168.955904 
L 107.834268 168.888792 
L 107.993192 168.927825 
L 108.005304 168.903762 
L 108.81277 169.111855 
L 109.106394 169.242147 
L 109.999744 169.802065 
L 111.064131 170.741142 
L 112.483068 172.315323 
L 123.420556 186.536272 
L 127.580472 191.515296 
L 131.360879 195.702371 
L 132.425265 196.810584 
L 134.187008 198.573164 
L 137.15995 201.307515 
L 139.802564 203.449193 
L 139.9736 203.569606 
L 142.371773 205.214378 
L 142.506106 205.287858 
L 144.708285 206.509932 
L 146.898351 207.479859 
L 146.983869 207.497558 
L 147.314196 207.618369 
L 149.589781 208.327791 
L 149.675666 208.332663 
L 149.956811 208.419402 
L 150.042696 208.422866 
L 150.323841 208.506201 
L 150.409726 208.508379 
L 150.69087 208.588536 
L 150.82557 208.600069 
L 154.043321 209.173527 
L 158.166166 209.683223 
L 160.980184 209.798432 
L 165.824977 209.865129 
L 166.106122 209.927166 
L 166.240822 209.937002 
L 167.415318 210.26344 
L 167.867865 210.446561 
L 169.005658 211.0541 
L 171.991078 213.52154 
L 174.303366 215.867347 
L 174.682508 216.266056 
L 179.03805 220.462496 
L 181.533853 222.377687 
L 183.527926 223.454575 
L 184.959342 223.88039 
L 186.415349 223.935147 
L 186.549682 223.897614 
L 187.883469 223.491628 
L 188.017802 223.39692 
L 189.351588 222.497793 
L 189.485921 222.343002 
L 191.064149 220.67673 
L 191.198849 220.465191 
L 194.453302 216.284224 
L 194.53882 216.189724 
L 195.676613 215.068376 
L 195.76213 214.994158 
L 197.022511 214.018351 
L 197.181435 213.938361 
L 197.316135 213.812903 
L 200.496815 211.441722 
L 202.246446 209.765534 
L 204.411922 207.341468 
L 207.543787 203.786092 
L 207.629672 203.699804 
L 208.889686 202.554969 
L 208.975203 202.486535 
L 210.112996 201.69911 
L 210.272287 201.641454 
L 210.40662 201.532241 
L 211.581115 200.997704 
L 211.740406 200.969972 
L 211.874739 200.89274 
L 213.416264 200.464646 
L 213.575555 200.455646 
L 213.709888 200.397187 
L 217.001044 199.569847 
L 217.135744 199.492001 
L 218.836193 198.797761 
L 218.970893 198.695331 
L 220.561233 197.753153 
L 222.151573 196.557516 
L 223.778984 195.056874 
L 225.491545 193.169238 
L 227.644909 190.479636 
L 227.779608 190.251969 
L 230.789253 186.385422 
L 230.874771 186.285342 
L 232.501814 184.530698 
L 232.587699 184.445479 
L 234.703993 182.478534 
L 234.863284 182.369068 
L 234.997617 182.215137 
L 238.178664 179.212528 
L 240.870093 176.33017 
L 245.225636 171.590829 
L 245.311154 171.509303 
L 246.693755 170.334618 
L 246.852679 170.251592 
L 246.987379 170.125354 
L 248.039654 169.514498 
L 248.198578 169.469085 
L 248.333278 169.385684 
L 249.262964 169.104348 
L 249.47107 169.067994 
L 250.486274 169.025971 
L 250.779898 169.053996 
L 251.832173 169.286861 
L 252.358126 169.481416 
L 252.492826 169.526171 
L 253.912131 170.227546 
L 255.551286 171.254017 
L 258.56093 173.414744 
L 264.763734 178.027211 
L 271.37027 182.721027 
L 277.328632 186.688232 
L 282.699379 190.004713 
L 283.396736 190.411572 
L 285.195182 191.441169 
L 289.59954 193.790283 
L 293.514646 195.634484 
L 297.025654 197.049088 
L 300.206701 198.096181 
L 303.142939 198.831526 
L 305.871072 199.289061 
L 308.513686 199.519216 
L 308.648386 199.509498 
L 311.205483 199.499118 
L 311.339816 199.474748 
L 313.945728 199.210396 
L 316.723042 198.702165 
L 319.941894 197.881752 
L 323.733311 196.684656 
L 326.79067 195.507737 
L 329.066254 194.427682 
L 329.202055 194.321502 
L 331.026194 193.203123 
L 331.158324 193.071627 
L 332.787937 191.755386 
L 334.329462 190.256415 
L 334.461593 190.0614 
L 335.929712 188.236878 
L 337.38682 186.117492 
L 337.522621 185.83875 
L 338.976059 183.270902 
L 339.148563 182.866107 
L 340.616682 179.682086 
L 342.158208 175.876981 
L 342.294009 175.42788 
L 344.041071 170.328027 
L 347.259922 160.718642 
L 347.307636 160.597738 
L 348.115101 158.846302 
L 348.166486 158.756372 
L 348.849161 157.708204 
L 348.937248 157.605128 
L 349.583221 157.017353 
L 349.744714 156.952481 
L 349.876844 156.855039 
L 350.44207 156.696859 
L 350.721013 156.698136 
L 350.856814 156.686538 
L 351.66428 156.851368 
L 352.361636 157.121053 
L 354.112368 158.017301 
L 355.73831 158.920768 
L 356.314547 159.233033 
L 357.70926 159.981332 
L 361.731907 161.978907 
L 361.988828 162.091791 
L 365.416886 163.531224 
L 368.474245 164.582087 
L 371.201276 165.292109 
L 373.722771 165.731763 
L 373.858572 165.735502 
L 376.097454 165.885198 
L 378.174842 165.809806 
L 380.134782 165.522007 
L 381.969931 165.034894 
L 383.753695 164.357992 
L 383.889496 164.269395 
L 385.603526 163.338096 
L 387.302874 162.185945 
L 387.438675 162.046851 
L 389.064617 160.617662 
L 390.727262 158.889729 
L 390.899766 158.645871 
L 392.489005 156.592587 
L 394.15532 154.116636 
L 394.287451 153.839498 
L 395.917063 150.909234 
L 397.579708 147.500019 
L 397.715509 147.127186 
L 399.341451 143.157992 
L 401.018777 138.463475 
L 402.718125 133.09928 
L 402.853926 132.537297 
L 404.553274 126.337298 
L 404.689075 125.691403 
L 406.388423 118.55342 
L 406.524224 117.813361 
L 408.234583 109.418746 
L 409.985316 99.685115 
L 411.772751 88.57826 
L 411.904881 87.490824 
L 413.72902 74.485154 
L 413.864821 73.239824 
L 414.72 65.721722 
L 414.72 65.721722 
" clip-path="url(#pbd0ac111bd)" style="fill: none; stroke: #1f77b4; stroke-width: 1.5; stroke-linecap: square"/>
   </g>
   <g id="line2d_14">
    <path d="M 57.6 141.136389 
L 61.392519 145.114169 
L 65.09952 148.682267 
L 68.610894 151.756651 
L 71.90205 154.349435 
L 72.317895 154.651248 
L 75.32754 156.70939 
L 75.58446 156.865852 
L 78.312593 158.439791 
L 80.832987 159.647873 
L 81.00439 159.710781 
L 83.292086 160.540434 
L 85.408747 161.075622 
L 87.366117 161.347831 
L 89.274672 161.402317 
L 89.409372 161.37736 
L 91.158636 161.174382 
L 92.871564 160.752577 
L 94.547789 160.10979 
L 96.248238 159.242889 
L 96.382938 159.129989 
L 98.095499 157.949836 
L 99.967351 156.384465 
L 102.622445 153.835187 
L 104.531 152.080851 
L 104.616518 152.011334 
L 105.75431 151.219346 
L 105.839828 151.17149 
L 106.733179 150.794992 
L 106.892103 150.785497 
L 107.026803 150.724665 
L 107.834268 150.681513 
L 108.042007 150.707184 
L 108.81277 150.933519 
L 109.106394 151.072477 
L 110.036447 151.687646 
L 110.611216 152.185046 
L 111.871596 153.513443 
L 126.4302 172.501286 
L 129.696766 176.319152 
L 133.20814 180.118469 
L 136.303302 183.149551 
L 139.068505 185.556663 
L 139.276244 185.71743 
L 140.047006 186.32746 
L 140.218409 186.450228 
L 142.616215 188.12917 
L 142.750915 188.204191 
L 144.953094 189.454974 
L 147.14316 190.453688 
L 147.228678 190.472327 
L 147.559005 190.597651 
L 149.883405 191.337754 
L 152.697422 191.982218 
L 156.942856 192.69556 
L 160.001316 192.99591 
L 163.426805 193.047107 
L 165.33536 193.147997 
L 165.616872 193.203162 
L 165.751571 193.2072 
L 166.926067 193.482937 
L 167.3298 193.635072 
L 167.464133 193.676169 
L 168.565222 194.214962 
L 169.739717 195.005233 
L 172.113299 197.147237 
L 174.547808 199.684617 
L 174.927317 200.091497 
L 179.123568 204.209612 
L 181.521374 206.098638 
L 183.246414 207.104595 
L 184.94723 207.697584 
L 185.081563 207.711637 
L 186.464164 207.75164 
L 187.565254 207.475061 
L 188.666343 206.891865 
L 189.840839 205.964948 
L 189.975539 205.794417 
L 191.724803 203.748631 
L 194.453302 200.309568 
L 194.53882 200.216991 
L 195.676613 199.121194 
L 195.76213 199.048892 
L 197.022511 198.101286 
L 197.181435 198.024845 
L 197.316135 197.902393 
L 200.496815 195.601871 
L 202.246446 193.964282 
L 204.411922 191.587727 
L 207.543787 188.100559 
L 207.629672 188.016133 
L 208.889686 186.898565 
L 208.975203 186.831979 
L 210.112996 186.06909 
L 210.272287 186.014862 
L 210.40662 185.908539 
L 211.581115 185.399228 
L 211.740406 185.374912 
L 211.874739 185.300558 
L 213.416264 184.905424 
L 213.575555 184.899821 
L 213.709888 184.844227 
L 217.001044 184.086736 
L 217.135744 184.011735 
L 218.836193 183.353328 
L 218.970893 183.253729 
L 220.561233 182.344902 
L 222.151573 181.182474 
L 223.778984 179.715668 
L 225.491545 177.863479 
L 227.644909 175.218221 
L 227.779608 174.993319 
L 230.789253 171.188304 
L 230.874771 171.089965 
L 232.501814 169.368376 
L 232.587699 169.284898 
L 234.703993 167.360727 
L 234.863284 167.254472 
L 234.997617 167.103246 
L 238.166552 164.212561 
L 238.300885 164.042645 
L 241.029384 161.160805 
L 245.103415 156.797759 
L 245.188933 156.716719 
L 246.571534 155.544163 
L 246.730458 155.461175 
L 246.865158 155.334128 
L 247.917066 154.717721 
L 248.076357 154.671766 
L 248.21069 154.586786 
L 249.140743 154.298136 
L 249.311779 154.266092 
L 250.241833 154.205212 
L 250.522977 154.239185 
L 250.657677 154.237474 
L 251.709952 154.467458 
L 252.162499 154.624756 
L 253.508398 155.258231 
L 255.257662 156.343973 
L 267.284127 165.364101 
L 281.121151 174.822755 
L 286.014759 177.750132 
L 290.407005 180.125164 
L 290.737332 180.288019 
L 291.801718 180.81368 
L 295.545422 182.508964 
L 295.753528 182.588928 
L 296.524291 182.905767 
L 296.73203 182.980959 
L 297.392683 183.233826 
L 300.561619 184.312455 
L 300.732655 184.354526 
L 303.620078 185.097245 
L 303.754778 185.114912 
L 306.446208 185.562366 
L 309.015416 185.769453 
L 311.572513 185.770454 
L 311.706846 185.746346 
L 314.312757 185.494726 
L 317.126775 184.99692 
L 320.430043 184.180032 
L 324.221461 183.014457 
L 327.120997 181.911471 
L 329.312164 180.875123 
L 329.447965 180.768433 
L 331.195027 179.659788 
L 332.861343 178.370135 
L 332.993473 178.208835 
L 334.498296 176.687502 
L 335.966415 174.877695 
L 337.397831 172.753826 
L 338.854939 170.245513 
L 338.99074 169.920402 
L 340.45886 166.813092 
L 342.037088 162.992043 
L 342.169218 162.549462 
L 343.919951 157.518617 
L 347.381042 147.289215 
L 347.432426 147.173008 
L 348.239891 145.50844 
L 348.287605 145.42421 
L 348.973951 144.457482 
L 349.058368 144.364428 
L 349.708011 143.848426 
L 349.865834 143.797482 
L 350.001635 143.715065 
L 350.647607 143.602329 
L 351.41837 143.713067 
L 351.994606 143.909559 
L 353.378309 144.583208 
L 355.004251 145.501806 
L 355.580488 145.826114 
L 357.08531 146.671944 
L 357.58447 146.94327 
L 361.610787 149.009812 
L 361.904411 149.144556 
L 365.402205 150.677152 
L 365.611412 150.753005 
L 366.272066 151.007057 
L 369.245007 152.007677 
L 371.898633 152.674672 
L 374.346721 153.063703 
L 376.585603 153.196615 
L 378.629959 153.102228 
L 380.575217 152.813203 
L 380.707348 152.762658 
L 382.542497 152.230551 
L 384.293229 151.493285 
L 386.007258 150.527093 
L 387.669903 149.363561 
L 387.805704 149.220484 
L 389.431646 147.749895 
L 391.020886 146.017093 
L 392.687201 143.905772 
L 392.819332 143.665465 
L 394.448944 141.13813 
L 396.038183 138.258918 
L 397.700828 134.835781 
L 397.873332 134.377081 
L 399.535977 130.358393 
L 399.708481 129.824462 
L 401.385807 125.009868 
L 403.085155 119.509733 
L 403.220956 118.93363 
L 404.920304 112.578105 
L 405.056105 111.916112 
L 406.755453 104.600712 
L 406.891254 103.842343 
L 408.601613 95.240807 
L 410.352345 85.269084 
L 412.13978 73.892391 
L 412.271911 72.778595 
L 414.096049 59.459224 
L 414.23185 58.18397 
L 414.72 53.568 
L 414.72 53.568 
" clip-path="url(#pbd0ac111bd)" style="fill: none; stroke-dasharray: 5.55,2.4; stroke-dashoffset: 0; stroke: #ff7f0e; stroke-width: 1.5"/>
   </g>
   <g id="line2d_15">
    <path d="M 57.6 257.121241 
L 99.233292 258.496662 
L 146.24981 259.822037 
L 200.448 261.121793 
L 263.258912 262.399968 
L 336.458235 263.661447 
L 414.72 264.809002 
L 414.72 264.809002 
" clip-path="url(#pbd0ac111bd)" style="fill: none; stroke: #ff0000; stroke-width: 1.5; stroke-linecap: square"/>
   </g>
   <g id="line2d_16">
    <path d="M -1 295.488 
L 461.8 295.488 
" clip-path="url(#pbd0ac111bd)" style="fill: none; stroke-dasharray: 5.55,2.4; stroke-dashoffset: 0; stroke: #2ca02c; stroke-width: 1.5"/>
   </g>
   <g id="line2d_17">
    <path d="M -1 258.437447 
L 461.8 258.437447 
" clip-path="url(#pbd0ac111bd)" style="fill: none; stroke-dasharray: 5.55,2.4; stroke-dashoffset: 0; stroke: #d62728; stroke-width: 1.5"/>
   </g>
   <g id="patch_3">
    <path d="M 57.6 307.584 
L 57.6 41.472 
" style="fill: none; stroke: #000000; stroke-width: 0.8; stroke-linejoin: miter; stroke-linecap: square"/>
   </g>
   <g id="patch_4">
    <path d="M 414.72 307.584 
L 414.72 41.472 
" style="fill: none; stroke: #000000; stroke-width: 0.8; stroke-linejoin: miter; stroke-linecap: square"/>
   </g>
   <g id="patch_5">
    <path d="M 57.6 307.584 
L 414.72 307.584 
" style="fill: none; stroke: #000000; stroke-width: 0.8; stroke-linejoin: miter; stroke-linecap: square"/>
   </g>
   <g id="patch_6">
    <path d="M 57.6 41.472 
L 414.72 41.472 
" style="fill: none; stroke: #000000; stroke-width: 0.8; stroke-linejoin: miter; stroke-linecap: square"/>
   </g>
   <g id="legend_1">
    <g id="patch_7">
     <path d="M 64.6 93.506375 
L 166.198438 93.506375 
Q 168.198438 93.506375 168.198438 91.506375 
L 168.198438 48.472 
Q 168.198438 46.472 166.198438 46.472 
L 64.6 46.472 
Q 62.6 46.472 62.6 48.472 
L 62.6 91.506375 
Q 62.6 93.506375 64.6 93.506375 
z
" style="fill: #ffffff; opacity: 0.8; stroke: #cccccc; stroke-linejoin: miter"/>
    </g>
    <g id="line2d_18">
     <path d="M 66.6 54.570438 
L 76.6 54.570438 
L 86.6 54.570438 
" style="fill: none; stroke: #1f77b4; stroke-width: 1.5; stroke-linecap: square"/>
    </g>
    <g id="text_15">
     <!-- Py2 0.177mm -->
     <g transform="translate(94.6 58.070438)scale(0.1 -0.1)">
      <defs>
       <path id="DejaVuSans-2e" d="M 684 794 
L 1344 794 
L 1344 0 
L 684 0 
L 684 794 
z
" transform="scale(0.015625)"/>
       <path id="DejaVuSans-37" d="M 525 4666 
L 3525 4666 
L 3525 4397 
L 1831 0 
L 1172 0 
L 2766 4134 
L 525 4134 
L 525 4666 
z
" transform="scale(0.015625)"/>
      </defs>
      <use xlink:href="#DejaVuSans-50"/>
      <use xlink:href="#DejaVuSans-79" x="60.302734"/>
      <use xlink:href="#DejaVuSans-32" x="119.482422"/>
      <use xlink:href="#DejaVuSans-20" x="183.105469"/>
      <use xlink:href="#DejaVuSans-30" x="214.892578"/>
      <use xlink:href="#DejaVuSans-2e" x="278.515625"/>
      <use xlink:href="#DejaVuSans-31" x="310.302734"/>
      <use xlink:href="#DejaVuSans-37" x="373.925781"/>
      <use xlink:href="#DejaVuSans-37" x="437.548828"/>
      <use xlink:href="#DejaVuSans-6d" x="501.171875"/>
      <use xlink:href="#DejaVuSans-6d" x="598.583984"/>
     </g>
    </g>
    <g id="line2d_19">
     <path d="M 66.6 69.248563 
L 76.6 69.248563 
L 86.6 69.248563 
" style="fill: none; stroke-dasharray: 5.55,2.4; stroke-dashoffset: 0; stroke: #ff7f0e; stroke-width: 1.5"/>
    </g>
    <g id="text_16">
     <!-- Py1 0.177mm -->
     <g transform="translate(94.6 72.748563)scale(0.1 -0.1)">
      <use xlink:href="#DejaVuSans-50"/>
      <use xlink:href="#DejaVuSans-79" x="60.302734"/>
      <use xlink:href="#DejaVuSans-31" x="119.482422"/>
      <use xlink:href="#DejaVuSans-20" x="183.105469"/>
      <use xlink:href="#DejaVuSans-30" x="214.892578"/>
      <use xlink:href="#DejaVuSans-2e" x="278.515625"/>
      <use xlink:href="#DejaVuSans-31" x="310.302734"/>
      <use xlink:href="#DejaVuSans-37" x="373.925781"/>
      <use xlink:href="#DejaVuSans-37" x="437.548828"/>
      <use xlink:href="#DejaVuSans-6d" x="501.171875"/>
      <use xlink:href="#DejaVuSans-6d" x="598.583984"/>
     </g>
    </g>
    <g id="line2d_20">
     <path d="M 66.6 83.926688 
L 76.6 83.926688 
L 86.6 83.926688 
" style="fill: none; stroke: #ff0000; stroke-width: 1.5; stroke-linecap: square"/>
    </g>
    <g id="text_17">
     <!-- Bi -->
     <g transform="translate(94.6 87.426688)scale(0.1 -0.1)">
      <defs>
       <path id="DejaVuSans-42" d="M 1259 2228 
L 1259 519 
L 2272 519 
Q 2781 519 3026 730 
Q 3272 941 3272 1375 
Q 3272 1813 3026 2020 
Q 2781 2228 2272 2228 
L 1259 2228 
z
M 1259 4147 
L 1259 2741 
L 2194 2741 
Q 2656 2741 2882 2914 
Q 3109 3088 3109 3444 
Q 3109 3797 2882 3972 
Q 2656 4147 2194 4147 
L 1259 4147 
z
M 628 4666 
L 2241 4666 
Q 2963 4666 3353 4366 
Q 3744 4066 3744 3513 
Q 3744 3084 3544 2831 
Q 3344 2578 2956 2516 
Q 3422 2416 3680 2098 
Q 3938 1781 3938 1306 
Q 3938 681 3513 340 
Q 3088 0 2303 0 
L 628 0 
L 628 4666 
z
" transform="scale(0.015625)"/>
      </defs>
      <use xlink:href="#DejaVuSans-42"/>
      <use xlink:href="#DejaVuSans-69" x="68.603516"/>
     </g>
    </g>
   </g>
  </g>
 </g>
 <defs>
  <clipPath id="pbd0ac111bd">
   <rect x="57.6" y="41.472" width="357.12" height="266.112"/>
  </clipPath>
 </defs>
</svg>
