<?xml version="1.0" encoding="utf-8" standalone="no"?>
<!DOCTYPE svg PUBLIC "-//W3C//DTD SVG 1.1//EN"
  "http://www.w3.org/Graphics/SVG/1.1/DTD/svg11.dtd">
<svg xmlns:xlink="http://www.w3.org/1999/xlink" width="460.8pt" height="345.6pt" viewBox="0 0 460.8 345.6" xmlns="http://www.w3.org/2000/svg" version="1.1">
 <metadata>
  <rdf:RDF xmlns:dc="http://purl.org/dc/elements/1.1/" xmlns:cc="http://creativecommons.org/ns#" xmlns:rdf="http://www.w3.org/1999/02/22-rdf-syntax-ns#">
   <cc:Work>
    <dc:type rdf:resource="http://purl.org/dc/dcmitype/StillImage"/>
    <dc:date>2022-04-26T12:12:25.608772</dc:date>
    <dc:format>image/svg+xml</dc:format>
    <dc:creator>
     <cc:Agent>
      <dc:title>Matplotlib v3.5.1, https://matplotlib.org/</dc:title>
     </cc:Agent>
    </dc:creator>
   </cc:Work>
  </rdf:RDF>
 </metadata>
 <defs>
  <style type="text/css">*{stroke-linejoin: round; stroke-linecap: butt}</style>
 </defs>
 <g id="figure_1">
  <g id="patch_1">
   <path d="M 0 345.6 
L 460.8 345.6 
L 460.8 0 
L 0 0 
z
" style="fill: #ffffff"/>
  </g>
  <g id="axes_1">
   <g id="patch_2">
    <path d="M 57.6 307.584 
L 414.72 307.584 
L 414.72 41.472 
L 57.6 41.472 
z
" style="fill: #ffffff"/>
   </g>
   <g id="matplotlib.axis_1">
    <g id="xtick_1">
     <g id="line2d_1">
      <defs>
       <path id="ma84d6313f3" d="M 0 0 
L 0 3.5 
" style="stroke: #000000; stroke-width: 0.8"/>
      </defs>
      <g>
       <use xlink:href="#ma84d6313f3" x="102.95424" y="307.584" style="stroke: #000000; stroke-width: 0.8"/>
      </g>
     </g>
     <g id="text_1">
      <!-- 400 -->
      <g transform="translate(93.41049 322.182437)scale(0.1 -0.1)">
       <defs>
        <path id="DejaVuSans-34" d="M 2419 4116 
L 825 1625 
L 2419 1625 
L 2419 4116 
z
M 2253 4666 
L 3047 4666 
L 3047 1625 
L 3713 1625 
L 3713 1100 
L 3047 1100 
L 3047 0 
L 2419 0 
L 2419 1100 
L 313 1100 
L 313 1709 
L 2253 4666 
z
" transform="scale(0.015625)"/>
        <path id="DejaVuSans-30" d="M 2034 4250 
Q 1547 4250 1301 3770 
Q 1056 3291 1056 2328 
Q 1056 1369 1301 889 
Q 1547 409 2034 409 
Q 2525 409 2770 889 
Q 3016 1369 3016 2328 
Q 3016 3291 2770 3770 
Q 2525 4250 2034 4250 
z
M 2034 4750 
Q 2819 4750 3233 4129 
Q 3647 3509 3647 2328 
Q 3647 1150 3233 529 
Q 2819 -91 2034 -91 
Q 1250 -91 836 529 
Q 422 1150 422 2328 
Q 422 3509 836 4129 
Q 1250 4750 2034 4750 
z
" transform="scale(0.015625)"/>
       </defs>
       <use xlink:href="#DejaVuSans-34"/>
       <use xlink:href="#DejaVuSans-30" x="63.623047"/>
       <use xlink:href="#DejaVuSans-30" x="127.246094"/>
      </g>
     </g>
    </g>
    <g id="xtick_2">
     <g id="line2d_2">
      <g>
       <use xlink:href="#ma84d6313f3" x="174.37824" y="307.584" style="stroke: #000000; stroke-width: 0.8"/>
      </g>
     </g>
     <g id="text_2">
      <!-- 600 -->
      <g transform="translate(164.83449 322.182437)scale(0.1 -0.1)">
       <defs>
        <path id="DejaVuSans-36" d="M 2113 2584 
Q 1688 2584 1439 2293 
Q 1191 2003 1191 1497 
Q 1191 994 1439 701 
Q 1688 409 2113 409 
Q 2538 409 2786 701 
Q 3034 994 3034 1497 
Q 3034 2003 2786 2293 
Q 2538 2584 2113 2584 
z
M 3366 4563 
L 3366 3988 
Q 3128 4100 2886 4159 
Q 2644 4219 2406 4219 
Q 1781 4219 1451 3797 
Q 1122 3375 1075 2522 
Q 1259 2794 1537 2939 
Q 1816 3084 2150 3084 
Q 2853 3084 3261 2657 
Q 3669 2231 3669 1497 
Q 3669 778 3244 343 
Q 2819 -91 2113 -91 
Q 1303 -91 875 529 
Q 447 1150 447 2328 
Q 447 3434 972 4092 
Q 1497 4750 2381 4750 
Q 2619 4750 2861 4703 
Q 3103 4656 3366 4563 
z
" transform="scale(0.015625)"/>
       </defs>
       <use xlink:href="#DejaVuSans-36"/>
       <use xlink:href="#DejaVuSans-30" x="63.623047"/>
       <use xlink:href="#DejaVuSans-30" x="127.246094"/>
      </g>
     </g>
    </g>
    <g id="xtick_3">
     <g id="line2d_3">
      <g>
       <use xlink:href="#ma84d6313f3" x="245.80224" y="307.584" style="stroke: #000000; stroke-width: 0.8"/>
      </g>
     </g>
     <g id="text_3">
      <!-- 800 -->
      <g transform="translate(236.25849 322.182437)scale(0.1 -0.1)">
       <defs>
        <path id="DejaVuSans-38" d="M 2034 2216 
Q 1584 2216 1326 1975 
Q 1069 1734 1069 1313 
Q 1069 891 1326 650 
Q 1584 409 2034 409 
Q 2484 409 2743 651 
Q 3003 894 3003 1313 
Q 3003 1734 2745 1975 
Q 2488 2216 2034 2216 
z
M 1403 2484 
Q 997 2584 770 2862 
Q 544 3141 544 3541 
Q 544 4100 942 4425 
Q 1341 4750 2034 4750 
Q 2731 4750 3128 4425 
Q 3525 4100 3525 3541 
Q 3525 3141 3298 2862 
Q 3072 2584 2669 2484 
Q 3125 2378 3379 2068 
Q 3634 1759 3634 1313 
Q 3634 634 3220 271 
Q 2806 -91 2034 -91 
Q 1263 -91 848 271 
Q 434 634 434 1313 
Q 434 1759 690 2068 
Q 947 2378 1403 2484 
z
M 1172 3481 
Q 1172 3119 1398 2916 
Q 1625 2713 2034 2713 
Q 2441 2713 2670 2916 
Q 2900 3119 2900 3481 
Q 2900 3844 2670 4047 
Q 2441 4250 2034 4250 
Q 1625 4250 1398 4047 
Q 1172 3844 1172 3481 
z
" transform="scale(0.015625)"/>
       </defs>
       <use xlink:href="#DejaVuSans-38"/>
       <use xlink:href="#DejaVuSans-30" x="63.623047"/>
       <use xlink:href="#DejaVuSans-30" x="127.246094"/>
      </g>
     </g>
    </g>
    <g id="xtick_4">
     <g id="line2d_4">
      <g>
       <use xlink:href="#ma84d6313f3" x="317.22624" y="307.584" style="stroke: #000000; stroke-width: 0.8"/>
      </g>
     </g>
     <g id="text_4">
      <!-- 1000 -->
      <g transform="translate(304.50124 322.182437)scale(0.1 -0.1)">
       <defs>
        <path id="DejaVuSans-31" d="M 794 531 
L 1825 531 
L 1825 4091 
L 703 3866 
L 703 4441 
L 1819 4666 
L 2450 4666 
L 2450 531 
L 3481 531 
L 3481 0 
L 794 0 
L 794 531 
z
" transform="scale(0.015625)"/>
       </defs>
       <use xlink:href="#DejaVuSans-31"/>
       <use xlink:href="#DejaVuSans-30" x="63.623047"/>
       <use xlink:href="#DejaVuSans-30" x="127.246094"/>
       <use xlink:href="#DejaVuSans-30" x="190.869141"/>
      </g>
     </g>
    </g>
    <g id="xtick_5">
     <g id="line2d_5">
      <g>
       <use xlink:href="#ma84d6313f3" x="388.65024" y="307.584" style="stroke: #000000; stroke-width: 0.8"/>
      </g>
     </g>
     <g id="text_5">
      <!-- 1200 -->
      <g transform="translate(375.92524 322.182437)scale(0.1 -0.1)">
       <defs>
        <path id="DejaVuSans-32" d="M 1228 531 
L 3431 531 
L 3431 0 
L 469 0 
L 469 531 
Q 828 903 1448 1529 
Q 2069 2156 2228 2338 
Q 2531 2678 2651 2914 
Q 2772 3150 2772 3378 
Q 2772 3750 2511 3984 
Q 2250 4219 1831 4219 
Q 1534 4219 1204 4116 
Q 875 4013 500 3803 
L 500 4441 
Q 881 4594 1212 4672 
Q 1544 4750 1819 4750 
Q 2544 4750 2975 4387 
Q 3406 4025 3406 3419 
Q 3406 3131 3298 2873 
Q 3191 2616 2906 2266 
Q 2828 2175 2409 1742 
Q 1991 1309 1228 531 
z
" transform="scale(0.015625)"/>
       </defs>
       <use xlink:href="#DejaVuSans-31"/>
       <use xlink:href="#DejaVuSans-32" x="63.623047"/>
       <use xlink:href="#DejaVuSans-30" x="127.246094"/>
       <use xlink:href="#DejaVuSans-30" x="190.869141"/>
      </g>
     </g>
    </g>
    <g id="text_6">
     <!-- Temperature (K) -->
     <g transform="translate(195.720937 335.860562)scale(0.1 -0.1)">
      <defs>
       <path id="DejaVuSans-54" d="M -19 4666 
L 3928 4666 
L 3928 4134 
L 2272 4134 
L 2272 0 
L 1638 0 
L 1638 4134 
L -19 4134 
L -19 4666 
z
" transform="scale(0.015625)"/>
       <path id="DejaVuSans-65" d="M 3597 1894 
L 3597 1613 
L 953 1613 
Q 991 1019 1311 708 
Q 1631 397 2203 397 
Q 2534 397 2845 478 
Q 3156 559 3463 722 
L 3463 178 
Q 3153 47 2828 -22 
Q 2503 -91 2169 -91 
Q 1331 -91 842 396 
Q 353 884 353 1716 
Q 353 2575 817 3079 
Q 1281 3584 2069 3584 
Q 2775 3584 3186 3129 
Q 3597 2675 3597 1894 
z
M 3022 2063 
Q 3016 2534 2758 2815 
Q 2500 3097 2075 3097 
Q 1594 3097 1305 2825 
Q 1016 2553 972 2059 
L 3022 2063 
z
" transform="scale(0.015625)"/>
       <path id="DejaVuSans-6d" d="M 3328 2828 
Q 3544 3216 3844 3400 
Q 4144 3584 4550 3584 
Q 5097 3584 5394 3201 
Q 5691 2819 5691 2113 
L 5691 0 
L 5113 0 
L 5113 2094 
Q 5113 2597 4934 2840 
Q 4756 3084 4391 3084 
Q 3944 3084 3684 2787 
Q 3425 2491 3425 1978 
L 3425 0 
L 2847 0 
L 2847 2094 
Q 2847 2600 2669 2842 
Q 2491 3084 2119 3084 
Q 1678 3084 1418 2786 
Q 1159 2488 1159 1978 
L 1159 0 
L 581 0 
L 581 3500 
L 1159 3500 
L 1159 2956 
Q 1356 3278 1631 3431 
Q 1906 3584 2284 3584 
Q 2666 3584 2933 3390 
Q 3200 3197 3328 2828 
z
" transform="scale(0.015625)"/>
       <path id="DejaVuSans-70" d="M 1159 525 
L 1159 -1331 
L 581 -1331 
L 581 3500 
L 1159 3500 
L 1159 2969 
Q 1341 3281 1617 3432 
Q 1894 3584 2278 3584 
Q 2916 3584 3314 3078 
Q 3713 2572 3713 1747 
Q 3713 922 3314 415 
Q 2916 -91 2278 -91 
Q 1894 -91 1617 61 
Q 1341 213 1159 525 
z
M 3116 1747 
Q 3116 2381 2855 2742 
Q 2594 3103 2138 3103 
Q 1681 3103 1420 2742 
Q 1159 2381 1159 1747 
Q 1159 1113 1420 752 
Q 1681 391 2138 391 
Q 2594 391 2855 752 
Q 3116 1113 3116 1747 
z
" transform="scale(0.015625)"/>
       <path id="DejaVuSans-72" d="M 2631 2963 
Q 2534 3019 2420 3045 
Q 2306 3072 2169 3072 
Q 1681 3072 1420 2755 
Q 1159 2438 1159 1844 
L 1159 0 
L 581 0 
L 581 3500 
L 1159 3500 
L 1159 2956 
Q 1341 3275 1631 3429 
Q 1922 3584 2338 3584 
Q 2397 3584 2469 3576 
Q 2541 3569 2628 3553 
L 2631 2963 
z
" transform="scale(0.015625)"/>
       <path id="DejaVuSans-61" d="M 2194 1759 
Q 1497 1759 1228 1600 
Q 959 1441 959 1056 
Q 959 750 1161 570 
Q 1363 391 1709 391 
Q 2188 391 2477 730 
Q 2766 1069 2766 1631 
L 2766 1759 
L 2194 1759 
z
M 3341 1997 
L 3341 0 
L 2766 0 
L 2766 531 
Q 2569 213 2275 61 
Q 1981 -91 1556 -91 
Q 1019 -91 701 211 
Q 384 513 384 1019 
Q 384 1609 779 1909 
Q 1175 2209 1959 2209 
L 2766 2209 
L 2766 2266 
Q 2766 2663 2505 2880 
Q 2244 3097 1772 3097 
Q 1472 3097 1187 3025 
Q 903 2953 641 2809 
L 641 3341 
Q 956 3463 1253 3523 
Q 1550 3584 1831 3584 
Q 2591 3584 2966 3190 
Q 3341 2797 3341 1997 
z
" transform="scale(0.015625)"/>
       <path id="DejaVuSans-74" d="M 1172 4494 
L 1172 3500 
L 2356 3500 
L 2356 3053 
L 1172 3053 
L 1172 1153 
Q 1172 725 1289 603 
Q 1406 481 1766 481 
L 2356 481 
L 2356 0 
L 1766 0 
Q 1100 0 847 248 
Q 594 497 594 1153 
L 594 3053 
L 172 3053 
L 172 3500 
L 594 3500 
L 594 4494 
L 1172 4494 
z
" transform="scale(0.015625)"/>
       <path id="DejaVuSans-75" d="M 544 1381 
L 544 3500 
L 1119 3500 
L 1119 1403 
Q 1119 906 1312 657 
Q 1506 409 1894 409 
Q 2359 409 2629 706 
Q 2900 1003 2900 1516 
L 2900 3500 
L 3475 3500 
L 3475 0 
L 2900 0 
L 2900 538 
Q 2691 219 2414 64 
Q 2138 -91 1772 -91 
Q 1169 -91 856 284 
Q 544 659 544 1381 
z
M 1991 3584 
L 1991 3584 
z
" transform="scale(0.015625)"/>
       <path id="DejaVuSans-20" transform="scale(0.015625)"/>
       <path id="DejaVuSans-28" d="M 1984 4856 
Q 1566 4138 1362 3434 
Q 1159 2731 1159 2009 
Q 1159 1288 1364 580 
Q 1569 -128 1984 -844 
L 1484 -844 
Q 1016 -109 783 600 
Q 550 1309 550 2009 
Q 550 2706 781 3412 
Q 1013 4119 1484 4856 
L 1984 4856 
z
" transform="scale(0.015625)"/>
       <path id="DejaVuSans-4b" d="M 628 4666 
L 1259 4666 
L 1259 2694 
L 3353 4666 
L 4166 4666 
L 1850 2491 
L 4331 0 
L 3500 0 
L 1259 2247 
L 1259 0 
L 628 0 
L 628 4666 
z
" transform="scale(0.015625)"/>
       <path id="DejaVuSans-29" d="M 513 4856 
L 1013 4856 
Q 1481 4119 1714 3412 
Q 1947 2706 1947 2009 
Q 1947 1309 1714 600 
Q 1481 -109 1013 -844 
L 513 -844 
Q 928 -128 1133 580 
Q 1338 1288 1338 2009 
Q 1338 2731 1133 3434 
Q 928 4138 513 4856 
z
" transform="scale(0.015625)"/>
      </defs>
      <use xlink:href="#DejaVuSans-54"/>
      <use xlink:href="#DejaVuSans-65" x="44.083984"/>
      <use xlink:href="#DejaVuSans-6d" x="105.607422"/>
      <use xlink:href="#DejaVuSans-70" x="203.019531"/>
      <use xlink:href="#DejaVuSans-65" x="266.496094"/>
      <use xlink:href="#DejaVuSans-72" x="328.019531"/>
      <use xlink:href="#DejaVuSans-61" x="369.132812"/>
      <use xlink:href="#DejaVuSans-74" x="430.412109"/>
      <use xlink:href="#DejaVuSans-75" x="469.621094"/>
      <use xlink:href="#DejaVuSans-72" x="533"/>
      <use xlink:href="#DejaVuSans-65" x="571.863281"/>
      <use xlink:href="#DejaVuSans-20" x="633.386719"/>
      <use xlink:href="#DejaVuSans-28" x="665.173828"/>
      <use xlink:href="#DejaVuSans-4b" x="704.1875"/>
      <use xlink:href="#DejaVuSans-29" x="769.763672"/>
     </g>
    </g>
   </g>
   <g id="matplotlib.axis_2">
    <g id="ytick_1">
     <g id="line2d_6">
      <defs>
       <path id="m22c475394a" d="M 0 0 
L -3.5 0 
" style="stroke: #000000; stroke-width: 0.8"/>
      </defs>
      <g>
       <use xlink:href="#m22c475394a" x="57.6" y="269.961037" style="stroke: #000000; stroke-width: 0.8"/>
      </g>
     </g>
     <g id="text_7">
      <!-- $\mathdefault{10^{0}}$ -->
      <g transform="translate(33 273.760255)scale(0.1 -0.1)">
       <use xlink:href="#DejaVuSans-31" transform="translate(0 0.765625)"/>
       <use xlink:href="#DejaVuSans-30" transform="translate(63.623047 0.765625)"/>
       <use xlink:href="#DejaVuSans-30" transform="translate(128.203125 39.046875)scale(0.7)"/>
      </g>
     </g>
    </g>
    <g id="ytick_2">
     <g id="line2d_7">
      <g>
       <use xlink:href="#m22c475394a" x="57.6" y="218.90711" style="stroke: #000000; stroke-width: 0.8"/>
      </g>
     </g>
     <g id="text_8">
      <!-- $\mathdefault{10^{2}}$ -->
      <g transform="translate(33 222.706329)scale(0.1 -0.1)">
       <use xlink:href="#DejaVuSans-31" transform="translate(0 0.765625)"/>
       <use xlink:href="#DejaVuSans-30" transform="translate(63.623047 0.765625)"/>
       <use xlink:href="#DejaVuSans-32" transform="translate(128.203125 39.046875)scale(0.7)"/>
      </g>
     </g>
    </g>
    <g id="ytick_3">
     <g id="line2d_8">
      <g>
       <use xlink:href="#m22c475394a" x="57.6" y="167.853183" style="stroke: #000000; stroke-width: 0.8"/>
      </g>
     </g>
     <g id="text_9">
      <!-- $\mathdefault{10^{4}}$ -->
      <g transform="translate(33 171.652402)scale(0.1 -0.1)">
       <use xlink:href="#DejaVuSans-31" transform="translate(0 0.684375)"/>
       <use xlink:href="#DejaVuSans-30" transform="translate(63.623047 0.684375)"/>
       <use xlink:href="#DejaVuSans-34" transform="translate(128.203125 38.965625)scale(0.7)"/>
      </g>
     </g>
    </g>
    <g id="ytick_4">
     <g id="line2d_9">
      <g>
       <use xlink:href="#m22c475394a" x="57.6" y="116.799256" style="stroke: #000000; stroke-width: 0.8"/>
      </g>
     </g>
     <g id="text_10">
      <!-- $\mathdefault{10^{6}}$ -->
      <g transform="translate(33 120.598475)scale(0.1 -0.1)">
       <use xlink:href="#DejaVuSans-31" transform="translate(0 0.765625)"/>
       <use xlink:href="#DejaVuSans-30" transform="translate(63.623047 0.765625)"/>
       <use xlink:href="#DejaVuSans-36" transform="translate(128.203125 39.046875)scale(0.7)"/>
      </g>
     </g>
    </g>
    <g id="ytick_5">
     <g id="line2d_10">
      <g>
       <use xlink:href="#m22c475394a" x="57.6" y="65.745329" style="stroke: #000000; stroke-width: 0.8"/>
      </g>
     </g>
     <g id="text_11">
      <!-- $\mathdefault{10^{8}}$ -->
      <g transform="translate(33 69.544548)scale(0.1 -0.1)">
       <use xlink:href="#DejaVuSans-31" transform="translate(0 0.765625)"/>
       <use xlink:href="#DejaVuSans-30" transform="translate(63.623047 0.765625)"/>
       <use xlink:href="#DejaVuSans-38" transform="translate(128.203125 39.046875)scale(0.7)"/>
      </g>
     </g>
    </g>
    <g id="text_12">
     <!-- Pyrolysis number -->
     <g transform="translate(26.920312 217.554563)rotate(-90)scale(0.1 -0.1)">
      <defs>
       <path id="DejaVuSans-50" d="M 1259 4147 
L 1259 2394 
L 2053 2394 
Q 2494 2394 2734 2622 
Q 2975 2850 2975 3272 
Q 2975 3691 2734 3919 
Q 2494 4147 2053 4147 
L 1259 4147 
z
M 628 4666 
L 2053 4666 
Q 2838 4666 3239 4311 
Q 3641 3956 3641 3272 
Q 3641 2581 3239 2228 
Q 2838 1875 2053 1875 
L 1259 1875 
L 1259 0 
L 628 0 
L 628 4666 
z
" transform="scale(0.015625)"/>
       <path id="DejaVuSans-79" d="M 2059 -325 
Q 1816 -950 1584 -1140 
Q 1353 -1331 966 -1331 
L 506 -1331 
L 506 -850 
L 844 -850 
Q 1081 -850 1212 -737 
Q 1344 -625 1503 -206 
L 1606 56 
L 191 3500 
L 800 3500 
L 1894 763 
L 2988 3500 
L 3597 3500 
L 2059 -325 
z
" transform="scale(0.015625)"/>
       <path id="DejaVuSans-6f" d="M 1959 3097 
Q 1497 3097 1228 2736 
Q 959 2375 959 1747 
Q 959 1119 1226 758 
Q 1494 397 1959 397 
Q 2419 397 2687 759 
Q 2956 1122 2956 1747 
Q 2956 2369 2687 2733 
Q 2419 3097 1959 3097 
z
M 1959 3584 
Q 2709 3584 3137 3096 
Q 3566 2609 3566 1747 
Q 3566 888 3137 398 
Q 2709 -91 1959 -91 
Q 1206 -91 779 398 
Q 353 888 353 1747 
Q 353 2609 779 3096 
Q 1206 3584 1959 3584 
z
" transform="scale(0.015625)"/>
       <path id="DejaVuSans-6c" d="M 603 4863 
L 1178 4863 
L 1178 0 
L 603 0 
L 603 4863 
z
" transform="scale(0.015625)"/>
       <path id="DejaVuSans-73" d="M 2834 3397 
L 2834 2853 
Q 2591 2978 2328 3040 
Q 2066 3103 1784 3103 
Q 1356 3103 1142 2972 
Q 928 2841 928 2578 
Q 928 2378 1081 2264 
Q 1234 2150 1697 2047 
L 1894 2003 
Q 2506 1872 2764 1633 
Q 3022 1394 3022 966 
Q 3022 478 2636 193 
Q 2250 -91 1575 -91 
Q 1294 -91 989 -36 
Q 684 19 347 128 
L 347 722 
Q 666 556 975 473 
Q 1284 391 1588 391 
Q 1994 391 2212 530 
Q 2431 669 2431 922 
Q 2431 1156 2273 1281 
Q 2116 1406 1581 1522 
L 1381 1569 
Q 847 1681 609 1914 
Q 372 2147 372 2553 
Q 372 3047 722 3315 
Q 1072 3584 1716 3584 
Q 2034 3584 2315 3537 
Q 2597 3491 2834 3397 
z
" transform="scale(0.015625)"/>
       <path id="DejaVuSans-69" d="M 603 3500 
L 1178 3500 
L 1178 0 
L 603 0 
L 603 3500 
z
M 603 4863 
L 1178 4863 
L 1178 4134 
L 603 4134 
L 603 4863 
z
" transform="scale(0.015625)"/>
       <path id="DejaVuSans-6e" d="M 3513 2113 
L 3513 0 
L 2938 0 
L 2938 2094 
Q 2938 2591 2744 2837 
Q 2550 3084 2163 3084 
Q 1697 3084 1428 2787 
Q 1159 2491 1159 1978 
L 1159 0 
L 581 0 
L 581 3500 
L 1159 3500 
L 1159 2956 
Q 1366 3272 1645 3428 
Q 1925 3584 2291 3584 
Q 2894 3584 3203 3211 
Q 3513 2838 3513 2113 
z
" transform="scale(0.015625)"/>
       <path id="DejaVuSans-62" d="M 3116 1747 
Q 3116 2381 2855 2742 
Q 2594 3103 2138 3103 
Q 1681 3103 1420 2742 
Q 1159 2381 1159 1747 
Q 1159 1113 1420 752 
Q 1681 391 2138 391 
Q 2594 391 2855 752 
Q 3116 1113 3116 1747 
z
M 1159 2969 
Q 1341 3281 1617 3432 
Q 1894 3584 2278 3584 
Q 2916 3584 3314 3078 
Q 3713 2572 3713 1747 
Q 3713 922 3314 415 
Q 2916 -91 2278 -91 
Q 1894 -91 1617 61 
Q 1341 213 1159 525 
L 1159 0 
L 581 0 
L 581 4863 
L 1159 4863 
L 1159 2969 
z
" transform="scale(0.015625)"/>
      </defs>
      <use xlink:href="#DejaVuSans-50"/>
      <use xlink:href="#DejaVuSans-79" x="60.302734"/>
      <use xlink:href="#DejaVuSans-72" x="119.482422"/>
      <use xlink:href="#DejaVuSans-6f" x="158.345703"/>
      <use xlink:href="#DejaVuSans-6c" x="219.527344"/>
      <use xlink:href="#DejaVuSans-79" x="247.310547"/>
      <use xlink:href="#DejaVuSans-73" x="306.490234"/>
      <use xlink:href="#DejaVuSans-69" x="358.589844"/>
      <use xlink:href="#DejaVuSans-73" x="386.373047"/>
      <use xlink:href="#DejaVuSans-20" x="438.472656"/>
      <use xlink:href="#DejaVuSans-6e" x="470.259766"/>
      <use xlink:href="#DejaVuSans-75" x="533.638672"/>
      <use xlink:href="#DejaVuSans-6d" x="597.017578"/>
      <use xlink:href="#DejaVuSans-62" x="694.429688"/>
      <use xlink:href="#DejaVuSans-65" x="757.90625"/>
      <use xlink:href="#DejaVuSans-72" x="819.429688"/>
     </g>
    </g>
   </g>
   <g id="line2d_11">
    <path d="M 57.6 93.967501 
L 67.905769 111.100284 
L 70.602025 114.531671 
L 70.843081 114.817366 
L 73.143648 117.383653 
L 75.346007 119.516298 
L 77.298025 121.108584 
L 77.408375 121.185629 
L 77.815849 121.474181 
L 79.533239 122.524973 
L 81.119209 123.238264 
L 82.568759 123.649344 
L 83.916887 123.803699 
L 85.196448 123.727512 
L 86.416727 123.435318 
L 87.636649 122.911703 
L 88.877641 122.124756 
L 90.106848 121.07713 
L 91.407479 119.664904 
L 92.785248 117.823064 
L 94.303008 115.403455 
L 96.255383 111.850218 
L 96.395017 111.56624 
L 96.445728 111.469775 
L 98.775936 107.251439 
L 98.844503 107.159213 
L 98.984137 106.927197 
L 99.052704 106.839297 
L 99.192695 106.617676 
L 99.260905 106.534513 
L 99.400896 106.324257 
L 99.469463 106.246259 
L 99.609097 106.048282 
L 99.677664 105.975818 
L 99.680521 105.957914 
L 100.531895 105.066478 
L 100.630103 104.999007 
L 100.760809 104.889841 
L 101.454336 104.531559 
L 101.582185 104.503659 
L 101.585399 104.494045 
L 102.228215 104.446733 
L 102.427488 104.476822 
L 103.112087 104.72889 
L 103.894537 105.265149 
L 104.590921 105.92113 
L 105.790487 107.333963 
L 107.495735 109.718087 
L 110.424119 114.301724 
L 113.685696 119.80216 
L 116.504087 124.796593 
L 122.723689 136.251124 
L 129.024 147.704525 
L 132.446281 153.469488 
L 135.053257 157.442024 
L 136.1664 158.982881 
L 138.079849 161.348686 
L 139.675104 162.984966 
L 139.767241 163.064313 
L 141.115369 164.123495 
L 142.293865 164.785124 
L 142.297079 164.77981 
L 143.347369 165.118456 
L 144.347305 165.211416 
L 144.46944 165.195523 
L 145.418665 165.023351 
L 145.5408 164.971779 
L 146.463241 164.537619 
L 147.484247 163.803471 
L 148.692384 162.653154 
L 148.823447 162.496489 
L 152.462857 158.685007 
L 152.561065 158.628041 
L 152.692128 158.525199 
L 153.623497 158.031845 
L 153.721705 158.0053 
L 153.733847 157.989383 
L 154.724855 157.730953 
L 154.852704 157.721003 
L 154.855561 157.710475 
L 156.421175 157.585314 
L 156.578665 157.586409 
L 156.7008 157.57038 
L 159.108503 157.32974 
L 159.230281 157.302358 
L 161.271936 157.103087 
L 161.429783 157.114787 
L 161.43264 157.106942 
L 162.432576 157.248247 
L 162.649705 157.316627 
L 162.652919 157.311475 
L 163.533577 157.698473 
L 163.881769 157.913943 
L 164.813495 158.664384 
L 167.700096 162.267196 
L 168.851808 164.011341 
L 176.500247 175.555409 
L 178.761888 178.363313 
L 180.446423 180.042627 
L 180.705335 180.255706 
L 181.219945 180.645979 
L 181.359936 180.738204 
L 181.755625 180.986409 
L 181.87776 181.050855 
L 182.987689 181.47362 
L 183.880489 181.522783 
L 184.701865 181.300511 
L 184.841856 181.221689 
L 184.951849 181.161112 
L 185.746441 180.54367 
L 186.6096 179.484391 
L 187.529184 177.881233 
L 187.669175 177.568578 
L 187.719529 177.459541 
L 188.689824 175.062532 
L 188.8416 174.605978 
L 190.029024 170.753313 
L 190.1808 170.173682 
L 192.004969 162.92861 
L 193.710217 156.364118 
L 193.749143 156.25841 
L 193.900919 155.717552 
L 194.960137 152.527317 
L 195.00192 152.415686 
L 196.091136 149.790792 
L 196.129705 149.727188 
L 196.132919 149.69996 
L 197.608896 146.7325 
L 197.647465 146.678365 
L 197.659607 146.635955 
L 200.445143 141.120861 
L 200.584777 140.789616 
L 200.623703 140.725397 
L 200.62656 140.696599 
L 202.171104 136.989387 
L 202.311095 136.60154 
L 202.349664 136.524917 
L 202.489655 136.132577 
L 202.528224 136.055016 
L 202.668215 135.658809 
L 202.706784 135.580473 
L 202.846775 135.181132 
L 202.885344 135.102197 
L 203.025335 134.700577 
L 203.063904 134.621234 
L 203.203895 134.218324 
L 203.242464 134.138833 
L 203.382455 133.735712 
L 203.421024 133.656336 
L 203.561015 133.254277 
L 203.599584 133.175298 
L 203.739575 132.77566 
L 203.778144 132.697402 
L 203.918135 132.301688 
L 203.956704 132.224517 
L 204.096695 131.834334 
L 204.135264 131.758613 
L 204.275255 131.375733 
L 204.313824 131.30189 
L 204.316681 131.27021 
L 205.376256 128.880138 
L 205.414825 128.827292 
L 205.426967 128.78456 
L 206.150135 127.665843 
L 206.218345 127.60197 
L 206.221559 127.582513 
L 206.775095 127.113331 
L 206.873303 127.075064 
L 206.87616 127.061487 
L 207.370057 126.953094 
L 207.527904 126.975094 
L 207.530761 126.966949 
L 208.054656 127.159848 
L 208.361065 127.368735 
L 208.441417 127.426656 
L 208.450345 127.438594 
L 208.530697 127.500813 
L 209.01888 127.974195 
L 210.099168 129.298891 
L 212.786496 133.07928 
L 214.342825 135.238988 
L 214.661376 135.669395 
L 215.89344 137.302036 
L 218.670048 140.729728 
L 221.009184 143.288606 
L 221.119177 143.397403 
L 221.666999 143.939405 
L 223.690441 145.742626 
L 225.425687 147.005943 
L 227.050583 147.923831 
L 227.151648 147.965604 
L 228.597984 148.523798 
L 228.707977 148.54921 
L 228.925463 148.615041 
L 229.035456 148.635892 
L 229.234729 148.682409 
L 230.594999 148.87098 
L 231.934199 148.836531 
L 233.329824 148.586673 
L 233.451959 148.544201 
L 235.029001 147.993452 
L 237.210647 146.977408 
L 239.391936 146.029322 
L 239.519785 145.99638 
L 239.650848 145.945765 
L 240.850057 145.693237 
L 241.007904 145.686725 
L 241.130039 145.671031 
L 242.159616 145.723631 
L 242.376745 145.768383 
L 242.487095 145.785514 
L 242.716009 145.841607 
L 243.826295 146.252705 
L 244.162345 146.422178 
L 244.272695 146.475811 
L 244.638743 146.683025 
L 244.739808 146.738536 
L 246.504695 147.910213 
L 247.019305 148.282206 
L 247.14144 148.367465 
L 250.263383 150.503966 
L 250.373376 150.567926 
L 250.781207 150.810299 
L 252.792864 151.845867 
L 252.902857 151.889675 
L 253.21248 152.019333 
L 254.947369 152.601645 
L 256.545481 152.906001 
L 258.093239 152.974034 
L 259.637783 152.820576 
L 259.759561 152.79074 
L 261.345888 152.375349 
L 263.071849 151.684417 
L 265.155287 150.600305 
L 273.080137 146.227622 
L 273.208343 146.175011 
L 273.2112 146.16569 
L 277.931255 144.047348 
L 278.088745 143.986434 
L 278.228736 143.919495 
L 278.386583 143.859026 
L 278.526217 143.792551 
L 278.684064 143.732463 
L 278.824055 143.66657 
L 278.981545 143.607056 
L 279.121536 143.541685 
L 279.279383 143.482777 
L 279.419017 143.418128 
L 279.576864 143.359855 
L 279.716855 143.295967 
L 279.874345 143.238354 
L 280.014336 143.175349 
L 280.17504 143.11087 
L 283.168777 142.036667 
L 283.356265 141.985039 
L 283.496256 141.937919 
L 283.686601 141.882585 
L 285.906816 141.357581 
L 286.153943 141.317649 
L 286.293577 141.289355 
L 286.540704 141.253764 
L 286.680695 141.22809 
L 286.930679 141.191975 
L 289.359095 140.966273 
L 289.665504 140.95424 
L 289.805495 140.944467 
L 290.114761 140.931753 
L 299.545943 140.427425 
L 299.685577 140.406173 
L 299.962345 140.374303 
L 300.114121 140.350322 
L 303.664608 139.763983 
L 307.967904 138.818028 
L 308.107895 138.779633 
L 308.327881 138.726242 
L 315.488137 137.110431 
L 315.70848 137.074022 
L 318.254746 136.773009 
L 318.53687 136.755524 
L 320.368896 136.731456 
L 320.704589 136.74907 
L 320.843866 136.752669 
L 321.193843 136.775769 
L 323.554406 137.106517 
L 323.829389 137.168563 
L 323.968666 137.196798 
L 324.48649 137.324454 
L 324.48649 137.322198 
L 324.593626 137.349966 
L 325.150733 137.50396 
L 326.529216 137.953675 
L 327.325594 138.254592 
L 334.675123 142.017673 
L 335.596493 142.553884 
L 336.83927 143.276728 
L 337.76064 143.811199 
L 339.139123 144.597621 
L 340.128346 145.150042 
L 341.953229 146.125095 
L 342.063936 146.178496 
L 342.592474 146.45388 
L 342.76032 146.534139 
L 343.128154 146.721556 
L 343.32457 146.814863 
L 343.720973 147.011069 
L 343.94953 147.11815 
L 343.94953 147.116251 
L 344.413786 147.333678 
L 345.003034 147.603146 
L 345.338726 147.748309 
L 345.61728 147.869219 
L 346.281523 148.149001 
L 346.795776 148.352299 
L 347.352883 148.566631 
L 348.106406 148.835248 
L 348.38496 148.930514 
L 349.602739 149.313616 
L 349.742016 149.350196 
L 350.19913 149.47781 
L 350.19913 149.475208 
L 351.756173 149.832027 
L 356.059469 150.183876 
L 356.198746 150.172421 
L 356.44873 150.162584 
L 356.44873 150.157425 
L 357.90935 149.987036 
L 360.048499 149.464978 
L 360.187776 149.411614 
L 360.359194 149.352443 
L 363.351859 147.8985 
L 363.50185 147.793799 
L 364.33751 147.221502 
L 365.544576 146.260409 
L 365.64457 146.184731 
L 365.64457 146.172624 
L 366.387379 145.503404 
L 366.548083 145.33754 
L 367.419456 144.437404 
L 367.51945 144.340894 
L 367.626586 144.20838 
L 367.726579 144.10939 
L 367.887283 143.915996 
L 368.669376 142.978905 
L 368.751514 142.878139 
L 369.501466 141.890428 
L 369.57289 141.809088 
L 369.57289 141.792584 
L 370.179994 140.936243 
L 370.901376 139.840692 
L 370.9728 139.728218 
L 371.56919 138.760393 
L 372.240576 137.599446 
L 372.308429 137.492006 
L 372.469133 137.18716 
L 373.05481 136.113835 
L 373.161946 135.886283 
L 373.23337 135.769181 
L 373.340506 135.538068 
L 373.41193 135.419038 
L 373.519066 135.184329 
L 373.59049 135.063366 
L 373.697626 134.825031 
L 373.76905 134.702096 
L 373.876186 134.46011 
L 373.94761 134.335203 
L 374.054746 134.089528 
L 374.12617 133.962613 
L 374.233306 133.713214 
L 374.286874 133.605552 
L 374.918976 132.216686 
L 374.968973 132.102608 
L 375.522509 130.841017 
L 375.693926 130.418863 
L 375.761779 130.272722 
L 375.929626 129.842372 
L 375.983194 129.718451 
L 376.615296 128.122143 
L 376.665293 127.991229 
L 377.218829 126.544528 
L 377.390246 126.061978 
L 377.440243 125.922917 
L 378.043776 124.219629 
L 378.08663 124.099283 
L 378.697306 122.283425 
L 378.74016 122.15692 
L 379.272269 120.528058 
L 379.443686 119.965512 
L 379.493683 119.80328 
L 380.097216 117.819201 
L 380.14007 117.679214 
L 380.722176 115.674923 
L 380.76503 115.528604 
L 381.347136 113.435281 
L 381.38999 113.282545 
L 381.972096 111.09874 
L 382.01495 110.939498 
L 382.597056 108.664351 
L 382.63991 108.498576 
L 383.250586 106.009138 
L 383.29344 105.836564 
L 383.875546 103.376072 
L 383.9184 103.197192 
L 384.500506 100.650519 
L 384.539789 100.509253 
L 384.711206 99.722522 
L 384.761203 99.495748 
L 385.336166 96.885261 
L 385.386163 96.652381 
L 385.961126 93.979461 
L 386.011123 93.741728 
L 386.553946 91.167468 
L 386.593229 91.016023 
L 386.764646 90.177859 
L 386.814643 89.937376 
L 387.357466 87.352678 
L 387.396749 87.201938 
L 387.568166 86.37037 
L 387.618163 86.132742 
L 388.132416 83.745307 
L 388.182413 83.514585 
L 388.88951 80.406866 
L 389.382336 78.395302 
L 389.432333 78.199125 
L 391.196506 72.884376 
L 391.264358 72.762022 
L 391.425062 72.441439 
L 392.389286 71.188876 
L 392.496422 71.10207 
L 393.249946 70.762182 
L 393.496358 70.737287 
L 393.628493 70.730368 
L 394.342733 70.852763 
L 395.085542 71.155007 
L 395.928346 71.623952 
L 397.48896 72.654263 
L 398.360333 73.265141 
L 399.442406 74.030678 
L 400.213786 74.579652 
L 401.456563 75.457096 
L 402.288653 76.043133 
L 403.420723 76.833943 
L 404.252813 77.413114 
L 405.40631 78.208639 
L 406.245542 78.786637 
L 407.39904 79.571919 
L 408.248986 80.148375 
L 409.60247 81.05657 
L 410.46313 81.632203 
L 411.673766 82.43214 
L 412.42729 82.928977 
L 413.637926 83.717297 
L 414.39145 84.206728 
L 414.72 84.417785 
L 414.72 84.257593 
L 414.72 84.074085 
L 414.72 84.074085 
" clip-path="url(#pc171fe8379)" style="fill: none; stroke: #1f77b4; stroke-width: 1.5; stroke-linecap: square"/>
   </g>
   <g id="line2d_12">
    <path d="M 57.6 66.129932 
L 67.923625 83.819085 
L 68.292887 84.328378 
L 70.869865 87.692124 
L 71.119849 87.997 
L 73.530409 90.755935 
L 75.732768 92.936555 
L 77.685143 94.563342 
L 77.786208 94.635293 
L 79.542167 95.79627 
L 81.137065 96.593063 
L 81.247415 96.632655 
L 81.506327 96.732364 
L 82.904809 97.136779 
L 84.235081 97.296398 
L 85.511785 97.232046 
L 85.63392 97.20494 
L 86.833129 96.896315 
L 88.041623 96.363576 
L 88.172329 96.279952 
L 89.380823 95.472232 
L 89.511529 95.356433 
L 90.779305 94.19552 
L 90.919296 94.034896 
L 90.999648 93.948261 
L 92.297065 92.396363 
L 92.437056 92.19427 
L 92.505623 92.115824 
L 92.645257 91.908181 
L 92.713824 91.827267 
L 92.853815 91.614166 
L 92.922025 91.530896 
L 93.062016 91.312292 
L 93.130583 91.226737 
L 93.270217 91.002811 
L 93.338784 90.914893 
L 93.478775 90.685795 
L 93.546985 90.595662 
L 93.698761 90.342646 
L 95.374368 87.495807 
L 99.281975 80.6722 
L 99.350185 80.594241 
L 99.490176 80.395398 
L 99.558743 80.322775 
L 99.5616 80.304574 
L 100.412617 79.402005 
L 100.510825 79.333028 
L 100.650816 79.214497 
L 100.749024 79.157334 
L 100.880087 79.062845 
L 101.543616 78.787839 
L 101.683607 78.761282 
L 102.317495 78.774808 
L 102.534624 78.834276 
L 102.644617 78.86411 
L 102.903529 78.971855 
L 103.656695 79.45323 
L 104.213088 79.947351 
L 105.293376 81.160756 
L 108.498528 85.824842 
L 111.554761 90.887423 
L 115.483081 97.850546 
L 120.640608 107.483227 
L 129.169705 123.405466 
L 134.261879 131.933112 
L 136.52352 135.190487 
L 138.395543 137.511421 
L 138.505536 137.631838 
L 139.02336 138.190661 
L 140.490409 139.561422 
L 141.758185 140.460163 
L 141.761399 140.455971 
L 142.889184 140.991021 
L 142.990249 141.0176 
L 143.993399 141.225391 
L 144.954409 141.192662 
L 145.877207 140.935899 
L 146.820361 140.442088 
L 147.888864 139.631376 
L 148.019927 139.498404 
L 149.406624 138.088171 
L 149.537687 137.926863 
L 151.837897 135.515543 
L 151.906464 135.471444 
L 151.918249 135.446963 
L 152.909257 134.747025 
L 153.007465 134.705727 
L 153.010679 134.691533 
L 153.921335 134.320593 
L 154.049184 134.296567 
L 154.171319 134.255624 
L 155.260535 134.107011 
L 155.400169 134.09915 
L 162.135095 133.877443 
L 162.334368 133.926233 
L 163.236096 134.277046 
L 163.545719 134.450718 
L 164.456375 135.125098 
L 165.301321 135.961147 
L 166.470889 137.398566 
L 168.03936 139.676119 
L 170.952745 144.311825 
L 171.449856 145.110699 
L 172.500503 146.778686 
L 172.869408 147.360236 
L 176.372041 152.576805 
L 178.723319 155.594359 
L 180.478921 157.402736 
L 181.857047 158.419391 
L 182.919479 158.874728 
L 183.880489 158.970931 
L 184.701865 158.776124 
L 184.832928 158.706674 
L 185.62752 158.163558 
L 186.487465 157.209825 
L 186.639241 156.980256 
L 187.558825 155.390537 
L 187.710601 155.055114 
L 188.719465 152.587699 
L 188.880169 152.106748 
L 190.011168 148.441245 
L 191.546784 142.540082 
L 191.69856 141.892847 
L 193.591296 134.547956 
L 193.629865 134.441174 
L 193.781641 133.893991 
L 194.841216 130.661146 
L 194.882999 130.548072 
L 195.972215 127.899401 
L 196.010784 127.835677 
L 196.013641 127.80823 
L 197.400695 125.0234 
L 197.439264 124.969936 
L 197.451049 124.927768 
L 200.605847 118.737316 
L 202.114679 115.153122 
L 205.525175 106.754779 
L 205.563744 106.7072 
L 205.575529 106.667046 
L 206.239415 105.734605 
L 206.307625 105.678553 
L 206.310839 105.659958 
L 206.864375 105.258725 
L 206.962583 105.231813 
L 206.974368 105.216131 
L 207.459337 105.168258 
L 207.646825 105.215002 
L 207.748247 105.240137 
L 208.322496 105.571955 
L 208.721399 105.92227 
L 209.632055 106.970076 
L 211.307305 109.309516 
L 211.685495 109.857948 
L 213.453239 112.408754 
L 216.676247 116.800068 
L 219.354647 120.087875 
L 221.693783 122.614059 
L 221.803776 122.720477 
L 222.300887 123.203087 
L 224.193623 124.861968 
L 224.28576 124.930592 
L 226.068503 126.180953 
L 226.16064 126.231654 
L 227.738039 127.043447 
L 229.193303 127.548282 
L 229.303296 127.568637 
L 229.490784 127.619201 
L 229.493641 127.612637 
L 230.89248 127.800013 
L 232.228823 127.766084 
L 232.350601 127.742621 
L 233.758368 127.456401 
L 235.416119 126.877395 
L 240.284736 124.971265 
L 240.424727 124.94797 
L 241.505015 124.888977 
L 241.692503 124.909055 
L 241.802496 124.913035 
L 241.989984 124.944124 
L 241.992841 124.93792 
L 243.052416 125.209934 
L 243.329184 125.321627 
L 243.430249 125.359142 
L 244.659456 126.004253 
L 245.067287 126.261851 
L 247.218935 127.808004 
L 247.745687 128.20211 
L 250.531223 130.14309 
L 250.641216 130.208267 
L 251.040119 130.449694 
L 252.953568 131.455207 
L 254.700599 132.126123 
L 256.304425 132.516563 
L 256.414775 132.528646 
L 256.631904 132.566405 
L 256.741897 132.57493 
L 256.959383 132.606172 
L 257.069376 132.611138 
L 257.268649 132.62824 
L 258.777481 132.634037 
L 260.292384 132.428548 
L 260.414519 132.394274 
L 262.018345 131.932593 
L 262.149408 131.876237 
L 263.982505 131.089948 
L 264.113568 131.016194 
L 266.791968 129.562539 
L 270.907776 127.33239 
L 271.035625 127.27765 
L 271.175616 127.200685 
L 271.303465 127.146746 
L 271.443456 127.070813 
L 271.571305 127.017653 
L 271.711296 126.942676 
L 271.839145 126.890268 
L 271.842359 126.880687 
L 275.312137 125.343737 
L 275.452128 125.284589 
L 280.907136 123.111617 
L 281.06784 123.054597 
L 283.704457 122.236272 
L 283.895159 122.187414 
L 286.115017 121.740115 
L 286.362144 121.708757 
L 286.502135 121.685415 
L 286.748905 121.658315 
L 286.888896 121.637505 
L 287.13888 121.609983 
L 289.716215 121.459433 
L 290.025481 121.453943 
L 299.515945 121.185509 
L 299.667721 121.166559 
L 303.218208 120.694049 
L 307.31616 119.913345 
L 316.083456 118.16884 
L 316.312727 118.140634 
L 318.733286 117.961176 
L 318.95113 117.961251 
L 318.95113 117.956905 
L 321.233126 118.053101 
L 321.479539 118.083391 
L 321.618816 118.096188 
L 321.997363 118.146178 
L 324.654336 118.719593 
L 325.229299 118.896753 
L 325.368576 118.938981 
L 326.014963 119.159981 
L 331.171776 121.563471 
L 333.83232 123.096907 
L 335.071526 123.839817 
L 335.50007 124.098911 
L 336.478579 124.692948 
L 336.699994 124.824773 
L 337.67136 125.41085 
L 339.089126 126.252175 
L 339.51767 126.502521 
L 340.496179 127.066779 
L 340.70688 127.17673 
L 340.971149 127.330247 
L 341.081856 127.387802 
L 341.567539 127.660966 
L 341.678246 127.717508 
L 341.935373 127.865028 
L 342.10679 127.950608 
L 342.31392 128.062542 
L 342.649613 128.246597 
L 342.838886 128.339857 
L 343.113869 128.487295 
L 343.23529 128.546777 
L 343.631693 128.752746 
L 343.86025 128.865307 
L 343.86025 128.863401 
L 344.317363 129.09161 
L 344.592346 129.221609 
L 345.181594 129.501099 
L 345.528 129.657482 
L 346.192243 129.953783 
L 346.706496 130.169908 
L 347.281459 130.40651 
L 347.420736 130.458581 
L 347.96713 130.670072 
L 347.96713 130.667984 
L 348.074266 130.70771 
L 348.620659 130.906261 
L 348.759936 130.951505 
L 349.274189 131.126271 
L 349.413466 131.167785 
L 349.899149 131.320374 
L 350.038426 131.358303 
L 350.49911 131.487639 
L 351.131213 131.652032 
L 355.970189 132.242548 
L 356.109466 132.234911 
L 356.35945 132.231838 
L 356.35945 132.226732 
L 357.845069 132.098376 
L 357.984346 132.072487 
L 358.202189 132.043542 
L 358.341466 132.013886 
L 358.541453 131.977234 
L 359.941363 131.634276 
L 362.948314 130.341898 
L 366.519514 127.647518 
L 367.358746 126.800463 
L 367.458739 126.706719 
L 367.619443 126.522435 
L 368.401536 125.62931 
L 368.483674 125.533175 
L 369.205056 124.627725 
L 369.287194 124.522761 
L 370.008576 123.536453 
L 370.08 123.434978 
L 370.67639 122.560188 
L 371.347776 121.507432 
L 371.415629 121.410346 
L 371.576333 121.132767 
L 372.16201 120.156235 
L 372.269146 119.948198 
L 372.34057 119.841973 
L 372.447706 119.630542 
L 372.51913 119.52247 
L 372.626266 119.307623 
L 372.69769 119.197686 
L 372.804826 118.979373 
L 372.87625 118.867574 
L 372.983386 118.645781 
L 373.05481 118.532072 
L 373.161946 118.306757 
L 373.23337 118.191145 
L 373.340506 117.962268 
L 373.41193 117.844729 
L 373.519066 117.612255 
L 373.59049 117.492782 
L 373.697626 117.256682 
L 373.76905 117.135236 
L 373.876186 116.895483 
L 373.94761 116.772065 
L 374.054746 116.528623 
L 374.108314 116.423706 
L 374.740416 115.068815 
L 374.790413 114.957461 
L 375.343949 113.72597 
L 375.515366 113.313439 
L 375.583219 113.170874 
L 375.751066 112.750177 
L 375.804634 112.629124 
L 376.436736 111.068619 
L 376.486733 110.940578 
L 377.022413 109.552899 
L 377.558093 108.105318 
L 378.08663 106.622047 
L 378.668736 104.908271 
L 378.71159 104.782993 
L 379.293696 102.986952 
L 379.33655 102.855722 
L 379.918656 100.975173 
L 379.96151 100.837794 
L 380.543616 98.870597 
L 380.58647 98.727024 
L 381.168576 96.671266 
L 381.21143 96.521255 
L 381.793536 94.375362 
L 381.83639 94.218872 
L 382.418496 91.9818 
L 382.46135 91.818761 
L 383.072026 89.369147 
L 383.11488 89.199288 
L 383.696986 86.776077 
L 383.736269 86.641717 
L 383.907686 85.890688 
L 383.957683 85.674095 
L 384.532646 83.173628 
L 384.582643 82.949819 
L 385.157606 80.371477 
L 385.207603 80.14121 
L 385.782566 77.496142 
L 385.832563 77.260713 
L 386.375386 74.706835 
L 386.414669 74.556486 
L 386.586086 73.723117 
L 386.636083 73.483918 
L 387.178906 70.907331 
L 387.218189 70.756858 
L 387.389606 69.925246 
L 387.439603 69.687366 
L 387.982426 67.153699 
L 388.021709 67.007665 
L 388.193126 66.203457 
L 388.243123 65.974766 
L 388.757376 63.706644 
L 388.807373 63.490591 
L 391.017946 56.056893 
L 391.067942 55.944873 
L 392.121446 54.254231 
L 392.217869 54.1646 
L 392.37143 54.017695 
L 392.774976 53.750216 
L 392.914253 53.687865 
L 393.639206 53.569721 
L 393.885619 53.597819 
L 394.024896 53.619843 
L 394.321306 53.699278 
L 396.83543 55.109866 
L 397.803226 55.796142 
L 399.024576 56.681484 
L 399.817382 57.261061 
L 400.97088 58.099654 
L 401.80297 58.703666 
L 402.952896 59.531883 
L 403.745702 60.101409 
L 404.87063 60.900999 
L 405.73129 61.512168 
L 406.881216 62.320528 
L 407.645453 62.855398 
L 408.816806 63.668136 
L 409.598899 64.208579 
L 410.391706 64.753917 
L 411.791616 65.70687 
L 412.555853 66.22388 
L 413.755776 67.028744 
L 414.520013 67.538191 
L 414.72 67.670525 
L 414.72 67.522622 
L 414.72 67.326825 
L 414.72 67.326825 
" clip-path="url(#pc171fe8379)" style="fill: none; stroke-dasharray: 5.55,2.4; stroke-dashoffset: 0; stroke: #ff7f0e; stroke-width: 1.5"/>
   </g>
   <g id="line2d_13">
    <path d="M 57.6 242.123468 
L 96.722496 244.028498 
L 134.130816 245.604237 
L 176.143127 247.14703 
L 223.729367 248.667543 
L 277.841975 250.169275 
L 339.54624 251.654381 
L 409.977446 253.122213 
L 414.72 253.213777 
L 414.72 253.213777 
" clip-path="url(#pc171fe8379)" style="fill: none; stroke: #ff0000; stroke-width: 1.5; stroke-linecap: square"/>
   </g>
   <g id="line2d_14">
    <path d="M -1 295.488 
L 461.8 295.488 
" clip-path="url(#pc171fe8379)" style="fill: none; stroke-dasharray: 5.55,2.4; stroke-dashoffset: 0; stroke: #2ca02c; stroke-width: 1.5"/>
   </g>
   <g id="line2d_15">
    <path d="M -1 244.434073 
L 461.8 244.434073 
" clip-path="url(#pc171fe8379)" style="fill: none; stroke-dasharray: 5.55,2.4; stroke-dashoffset: 0; stroke: #d62728; stroke-width: 1.5"/>
   </g>
   <g id="patch_3">
    <path d="M 57.6 307.584 
L 57.6 41.472 
" style="fill: none; stroke: #000000; stroke-width: 0.8; stroke-linejoin: miter; stroke-linecap: square"/>
   </g>
   <g id="patch_4">
    <path d="M 414.72 307.584 
L 414.72 41.472 
" style="fill: none; stroke: #000000; stroke-width: 0.8; stroke-linejoin: miter; stroke-linecap: square"/>
   </g>
   <g id="patch_5">
    <path d="M 57.6 307.584 
L 414.72 307.584 
" style="fill: none; stroke: #000000; stroke-width: 0.8; stroke-linejoin: miter; stroke-linecap: square"/>
   </g>
   <g id="patch_6">
    <path d="M 57.6 41.472 
L 414.72 41.472 
" style="fill: none; stroke: #000000; stroke-width: 0.8; stroke-linejoin: miter; stroke-linecap: square"/>
   </g>
   <g id="legend_1">
    <g id="patch_7">
     <path d="M 306.121563 198.045187 
L 407.72 198.045187 
Q 409.72 198.045187 409.72 196.045187 
L 409.72 153.010812 
Q 409.72 151.010812 407.72 151.010812 
L 306.121563 151.010812 
Q 304.121563 151.010812 304.121563 153.010812 
L 304.121563 196.045187 
Q 304.121563 198.045187 306.121563 198.045187 
z
" style="fill: #ffffff; opacity: 0.8; stroke: #cccccc; stroke-linejoin: miter"/>
    </g>
    <g id="line2d_16">
     <path d="M 308.121563 159.10925 
L 318.121563 159.10925 
L 328.121563 159.10925 
" style="fill: none; stroke: #1f77b4; stroke-width: 1.5; stroke-linecap: square"/>
    </g>
    <g id="text_13">
     <!-- Py2 0.177mm -->
     <g transform="translate(336.121563 162.60925)scale(0.1 -0.1)">
      <defs>
       <path id="DejaVuSans-2e" d="M 684 794 
L 1344 794 
L 1344 0 
L 684 0 
L 684 794 
z
" transform="scale(0.015625)"/>
       <path id="DejaVuSans-37" d="M 525 4666 
L 3525 4666 
L 3525 4397 
L 1831 0 
L 1172 0 
L 2766 4134 
L 525 4134 
L 525 4666 
z
" transform="scale(0.015625)"/>
      </defs>
      <use xlink:href="#DejaVuSans-50"/>
      <use xlink:href="#DejaVuSans-79" x="60.302734"/>
      <use xlink:href="#DejaVuSans-32" x="119.482422"/>
      <use xlink:href="#DejaVuSans-20" x="183.105469"/>
      <use xlink:href="#DejaVuSans-30" x="214.892578"/>
      <use xlink:href="#DejaVuSans-2e" x="278.515625"/>
      <use xlink:href="#DejaVuSans-31" x="310.302734"/>
      <use xlink:href="#DejaVuSans-37" x="373.925781"/>
      <use xlink:href="#DejaVuSans-37" x="437.548828"/>
      <use xlink:href="#DejaVuSans-6d" x="501.171875"/>
      <use xlink:href="#DejaVuSans-6d" x="598.583984"/>
     </g>
    </g>
    <g id="line2d_17">
     <path d="M 308.121563 173.787375 
L 318.121563 173.787375 
L 328.121563 173.787375 
" style="fill: none; stroke-dasharray: 5.55,2.4; stroke-dashoffset: 0; stroke: #ff7f0e; stroke-width: 1.5"/>
    </g>
    <g id="text_14">
     <!-- Py1 0.177mm -->
     <g transform="translate(336.121563 177.287375)scale(0.1 -0.1)">
      <use xlink:href="#DejaVuSans-50"/>
      <use xlink:href="#DejaVuSans-79" x="60.302734"/>
      <use xlink:href="#DejaVuSans-31" x="119.482422"/>
      <use xlink:href="#DejaVuSans-20" x="183.105469"/>
      <use xlink:href="#DejaVuSans-30" x="214.892578"/>
      <use xlink:href="#DejaVuSans-2e" x="278.515625"/>
      <use xlink:href="#DejaVuSans-31" x="310.302734"/>
      <use xlink:href="#DejaVuSans-37" x="373.925781"/>
      <use xlink:href="#DejaVuSans-37" x="437.548828"/>
      <use xlink:href="#DejaVuSans-6d" x="501.171875"/>
      <use xlink:href="#DejaVuSans-6d" x="598.583984"/>
     </g>
    </g>
    <g id="line2d_18">
     <path d="M 308.121563 188.4655 
L 318.121563 188.4655 
L 328.121563 188.4655 
" style="fill: none; stroke: #ff0000; stroke-width: 1.5; stroke-linecap: square"/>
    </g>
    <g id="text_15">
     <!-- Bi -->
     <g transform="translate(336.121563 191.9655)scale(0.1 -0.1)">
      <defs>
       <path id="DejaVuSans-42" d="M 1259 2228 
L 1259 519 
L 2272 519 
Q 2781 519 3026 730 
Q 3272 941 3272 1375 
Q 3272 1813 3026 2020 
Q 2781 2228 2272 2228 
L 1259 2228 
z
M 1259 4147 
L 1259 2741 
L 2194 2741 
Q 2656 2741 2882 2914 
Q 3109 3088 3109 3444 
Q 3109 3797 2882 3972 
Q 2656 4147 2194 4147 
L 1259 4147 
z
M 628 4666 
L 2241 4666 
Q 2963 4666 3353 4366 
Q 3744 4066 3744 3513 
Q 3744 3084 3544 2831 
Q 3344 2578 2956 2516 
Q 3422 2416 3680 2098 
Q 3938 1781 3938 1306 
Q 3938 681 3513 340 
Q 3088 0 2303 0 
L 628 0 
L 628 4666 
z
" transform="scale(0.015625)"/>
      </defs>
      <use xlink:href="#DejaVuSans-42"/>
      <use xlink:href="#DejaVuSans-69" x="68.603516"/>
     </g>
    </g>
   </g>
  </g>
 </g>
 <defs>
  <clipPath id="pc171fe8379">
   <rect x="57.6" y="41.472" width="357.12" height="266.112"/>
  </clipPath>
 </defs>
</svg>
