<?xml version="1.0" encoding="utf-8" standalone="no"?>
<!DOCTYPE svg PUBLIC "-//W3C//DTD SVG 1.1//EN"
  "http://www.w3.org/Graphics/SVG/1.1/DTD/svg11.dtd">
<svg xmlns:xlink="http://www.w3.org/1999/xlink" width="460.8pt" height="345.6pt" viewBox="0 0 460.8 345.6" xmlns="http://www.w3.org/2000/svg" version="1.1">
 <metadata>
  <rdf:RDF xmlns:dc="http://purl.org/dc/elements/1.1/" xmlns:cc="http://creativecommons.org/ns#" xmlns:rdf="http://www.w3.org/1999/02/22-rdf-syntax-ns#">
   <cc:Work>
    <dc:type rdf:resource="http://purl.org/dc/dcmitype/StillImage"/>
    <dc:date>2022-04-26T11:47:28.849872</dc:date>
    <dc:format>image/svg+xml</dc:format>
    <dc:creator>
     <cc:Agent>
      <dc:title>Matplotlib v3.5.1, https://matplotlib.org/</dc:title>
     </cc:Agent>
    </dc:creator>
   </cc:Work>
  </rdf:RDF>
 </metadata>
 <defs>
  <style type="text/css">*{stroke-linejoin: round; stroke-linecap: butt}</style>
 </defs>
 <g id="figure_1">
  <g id="patch_1">
   <path d="M 0 345.6 
L 460.8 345.6 
L 460.8 0 
L 0 0 
z
" style="fill: #ffffff"/>
  </g>
  <g id="axes_1">
   <g id="patch_2">
    <path d="M 57.6 307.584 
L 414.72 307.584 
L 414.72 41.472 
L 57.6 41.472 
z
" style="fill: #ffffff"/>
   </g>
   <g id="matplotlib.axis_1">
    <g id="xtick_1">
     <g id="line2d_1">
      <defs>
       <path id="m65c599231a" d="M 0 0 
L 0 3.5 
" style="stroke: #000000; stroke-width: 0.8"/>
      </defs>
      <g>
       <use xlink:href="#m65c599231a" x="102.95424" y="307.584" style="stroke: #000000; stroke-width: 0.8"/>
      </g>
     </g>
     <g id="text_1">
      <!-- 400 -->
      <g transform="translate(93.41049 322.182437)scale(0.1 -0.1)">
       <defs>
        <path id="DejaVuSans-34" d="M 2419 4116 
L 825 1625 
L 2419 1625 
L 2419 4116 
z
M 2253 4666 
L 3047 4666 
L 3047 1625 
L 3713 1625 
L 3713 1100 
L 3047 1100 
L 3047 0 
L 2419 0 
L 2419 1100 
L 313 1100 
L 313 1709 
L 2253 4666 
z
" transform="scale(0.015625)"/>
        <path id="DejaVuSans-30" d="M 2034 4250 
Q 1547 4250 1301 3770 
Q 1056 3291 1056 2328 
Q 1056 1369 1301 889 
Q 1547 409 2034 409 
Q 2525 409 2770 889 
Q 3016 1369 3016 2328 
Q 3016 3291 2770 3770 
Q 2525 4250 2034 4250 
z
M 2034 4750 
Q 2819 4750 3233 4129 
Q 3647 3509 3647 2328 
Q 3647 1150 3233 529 
Q 2819 -91 2034 -91 
Q 1250 -91 836 529 
Q 422 1150 422 2328 
Q 422 3509 836 4129 
Q 1250 4750 2034 4750 
z
" transform="scale(0.015625)"/>
       </defs>
       <use xlink:href="#DejaVuSans-34"/>
       <use xlink:href="#DejaVuSans-30" x="63.623047"/>
       <use xlink:href="#DejaVuSans-30" x="127.246094"/>
      </g>
     </g>
    </g>
    <g id="xtick_2">
     <g id="line2d_2">
      <g>
       <use xlink:href="#m65c599231a" x="174.37824" y="307.584" style="stroke: #000000; stroke-width: 0.8"/>
      </g>
     </g>
     <g id="text_2">
      <!-- 600 -->
      <g transform="translate(164.83449 322.182437)scale(0.1 -0.1)">
       <defs>
        <path id="DejaVuSans-36" d="M 2113 2584 
Q 1688 2584 1439 2293 
Q 1191 2003 1191 1497 
Q 1191 994 1439 701 
Q 1688 409 2113 409 
Q 2538 409 2786 701 
Q 3034 994 3034 1497 
Q 3034 2003 2786 2293 
Q 2538 2584 2113 2584 
z
M 3366 4563 
L 3366 3988 
Q 3128 4100 2886 4159 
Q 2644 4219 2406 4219 
Q 1781 4219 1451 3797 
Q 1122 3375 1075 2522 
Q 1259 2794 1537 2939 
Q 1816 3084 2150 3084 
Q 2853 3084 3261 2657 
Q 3669 2231 3669 1497 
Q 3669 778 3244 343 
Q 2819 -91 2113 -91 
Q 1303 -91 875 529 
Q 447 1150 447 2328 
Q 447 3434 972 4092 
Q 1497 4750 2381 4750 
Q 2619 4750 2861 4703 
Q 3103 4656 3366 4563 
z
" transform="scale(0.015625)"/>
       </defs>
       <use xlink:href="#DejaVuSans-36"/>
       <use xlink:href="#DejaVuSans-30" x="63.623047"/>
       <use xlink:href="#DejaVuSans-30" x="127.246094"/>
      </g>
     </g>
    </g>
    <g id="xtick_3">
     <g id="line2d_3">
      <g>
       <use xlink:href="#m65c599231a" x="245.80224" y="307.584" style="stroke: #000000; stroke-width: 0.8"/>
      </g>
     </g>
     <g id="text_3">
      <!-- 800 -->
      <g transform="translate(236.25849 322.182437)scale(0.1 -0.1)">
       <defs>
        <path id="DejaVuSans-38" d="M 2034 2216 
Q 1584 2216 1326 1975 
Q 1069 1734 1069 1313 
Q 1069 891 1326 650 
Q 1584 409 2034 409 
Q 2484 409 2743 651 
Q 3003 894 3003 1313 
Q 3003 1734 2745 1975 
Q 2488 2216 2034 2216 
z
M 1403 2484 
Q 997 2584 770 2862 
Q 544 3141 544 3541 
Q 544 4100 942 4425 
Q 1341 4750 2034 4750 
Q 2731 4750 3128 4425 
Q 3525 4100 3525 3541 
Q 3525 3141 3298 2862 
Q 3072 2584 2669 2484 
Q 3125 2378 3379 2068 
Q 3634 1759 3634 1313 
Q 3634 634 3220 271 
Q 2806 -91 2034 -91 
Q 1263 -91 848 271 
Q 434 634 434 1313 
Q 434 1759 690 2068 
Q 947 2378 1403 2484 
z
M 1172 3481 
Q 1172 3119 1398 2916 
Q 1625 2713 2034 2713 
Q 2441 2713 2670 2916 
Q 2900 3119 2900 3481 
Q 2900 3844 2670 4047 
Q 2441 4250 2034 4250 
Q 1625 4250 1398 4047 
Q 1172 3844 1172 3481 
z
" transform="scale(0.015625)"/>
       </defs>
       <use xlink:href="#DejaVuSans-38"/>
       <use xlink:href="#DejaVuSans-30" x="63.623047"/>
       <use xlink:href="#DejaVuSans-30" x="127.246094"/>
      </g>
     </g>
    </g>
    <g id="xtick_4">
     <g id="line2d_4">
      <g>
       <use xlink:href="#m65c599231a" x="317.22624" y="307.584" style="stroke: #000000; stroke-width: 0.8"/>
      </g>
     </g>
     <g id="text_4">
      <!-- 1000 -->
      <g transform="translate(304.50124 322.182437)scale(0.1 -0.1)">
       <defs>
        <path id="DejaVuSans-31" d="M 794 531 
L 1825 531 
L 1825 4091 
L 703 3866 
L 703 4441 
L 1819 4666 
L 2450 4666 
L 2450 531 
L 3481 531 
L 3481 0 
L 794 0 
L 794 531 
z
" transform="scale(0.015625)"/>
       </defs>
       <use xlink:href="#DejaVuSans-31"/>
       <use xlink:href="#DejaVuSans-30" x="63.623047"/>
       <use xlink:href="#DejaVuSans-30" x="127.246094"/>
       <use xlink:href="#DejaVuSans-30" x="190.869141"/>
      </g>
     </g>
    </g>
    <g id="xtick_5">
     <g id="line2d_5">
      <g>
       <use xlink:href="#m65c599231a" x="388.65024" y="307.584" style="stroke: #000000; stroke-width: 0.8"/>
      </g>
     </g>
     <g id="text_5">
      <!-- 1200 -->
      <g transform="translate(375.92524 322.182437)scale(0.1 -0.1)">
       <defs>
        <path id="DejaVuSans-32" d="M 1228 531 
L 3431 531 
L 3431 0 
L 469 0 
L 469 531 
Q 828 903 1448 1529 
Q 2069 2156 2228 2338 
Q 2531 2678 2651 2914 
Q 2772 3150 2772 3378 
Q 2772 3750 2511 3984 
Q 2250 4219 1831 4219 
Q 1534 4219 1204 4116 
Q 875 4013 500 3803 
L 500 4441 
Q 881 4594 1212 4672 
Q 1544 4750 1819 4750 
Q 2544 4750 2975 4387 
Q 3406 4025 3406 3419 
Q 3406 3131 3298 2873 
Q 3191 2616 2906 2266 
Q 2828 2175 2409 1742 
Q 1991 1309 1228 531 
z
" transform="scale(0.015625)"/>
       </defs>
       <use xlink:href="#DejaVuSans-31"/>
       <use xlink:href="#DejaVuSans-32" x="63.623047"/>
       <use xlink:href="#DejaVuSans-30" x="127.246094"/>
       <use xlink:href="#DejaVuSans-30" x="190.869141"/>
      </g>
     </g>
    </g>
    <g id="text_6">
     <!-- Temperature (K) -->
     <g transform="translate(195.720937 335.860562)scale(0.1 -0.1)">
      <defs>
       <path id="DejaVuSans-54" d="M -19 4666 
L 3928 4666 
L 3928 4134 
L 2272 4134 
L 2272 0 
L 1638 0 
L 1638 4134 
L -19 4134 
L -19 4666 
z
" transform="scale(0.015625)"/>
       <path id="DejaVuSans-65" d="M 3597 1894 
L 3597 1613 
L 953 1613 
Q 991 1019 1311 708 
Q 1631 397 2203 397 
Q 2534 397 2845 478 
Q 3156 559 3463 722 
L 3463 178 
Q 3153 47 2828 -22 
Q 2503 -91 2169 -91 
Q 1331 -91 842 396 
Q 353 884 353 1716 
Q 353 2575 817 3079 
Q 1281 3584 2069 3584 
Q 2775 3584 3186 3129 
Q 3597 2675 3597 1894 
z
M 3022 2063 
Q 3016 2534 2758 2815 
Q 2500 3097 2075 3097 
Q 1594 3097 1305 2825 
Q 1016 2553 972 2059 
L 3022 2063 
z
" transform="scale(0.015625)"/>
       <path id="DejaVuSans-6d" d="M 3328 2828 
Q 3544 3216 3844 3400 
Q 4144 3584 4550 3584 
Q 5097 3584 5394 3201 
Q 5691 2819 5691 2113 
L 5691 0 
L 5113 0 
L 5113 2094 
Q 5113 2597 4934 2840 
Q 4756 3084 4391 3084 
Q 3944 3084 3684 2787 
Q 3425 2491 3425 1978 
L 3425 0 
L 2847 0 
L 2847 2094 
Q 2847 2600 2669 2842 
Q 2491 3084 2119 3084 
Q 1678 3084 1418 2786 
Q 1159 2488 1159 1978 
L 1159 0 
L 581 0 
L 581 3500 
L 1159 3500 
L 1159 2956 
Q 1356 3278 1631 3431 
Q 1906 3584 2284 3584 
Q 2666 3584 2933 3390 
Q 3200 3197 3328 2828 
z
" transform="scale(0.015625)"/>
       <path id="DejaVuSans-70" d="M 1159 525 
L 1159 -1331 
L 581 -1331 
L 581 3500 
L 1159 3500 
L 1159 2969 
Q 1341 3281 1617 3432 
Q 1894 3584 2278 3584 
Q 2916 3584 3314 3078 
Q 3713 2572 3713 1747 
Q 3713 922 3314 415 
Q 2916 -91 2278 -91 
Q 1894 -91 1617 61 
Q 1341 213 1159 525 
z
M 3116 1747 
Q 3116 2381 2855 2742 
Q 2594 3103 2138 3103 
Q 1681 3103 1420 2742 
Q 1159 2381 1159 1747 
Q 1159 1113 1420 752 
Q 1681 391 2138 391 
Q 2594 391 2855 752 
Q 3116 1113 3116 1747 
z
" transform="scale(0.015625)"/>
       <path id="DejaVuSans-72" d="M 2631 2963 
Q 2534 3019 2420 3045 
Q 2306 3072 2169 3072 
Q 1681 3072 1420 2755 
Q 1159 2438 1159 1844 
L 1159 0 
L 581 0 
L 581 3500 
L 1159 3500 
L 1159 2956 
Q 1341 3275 1631 3429 
Q 1922 3584 2338 3584 
Q 2397 3584 2469 3576 
Q 2541 3569 2628 3553 
L 2631 2963 
z
" transform="scale(0.015625)"/>
       <path id="DejaVuSans-61" d="M 2194 1759 
Q 1497 1759 1228 1600 
Q 959 1441 959 1056 
Q 959 750 1161 570 
Q 1363 391 1709 391 
Q 2188 391 2477 730 
Q 2766 1069 2766 1631 
L 2766 1759 
L 2194 1759 
z
M 3341 1997 
L 3341 0 
L 2766 0 
L 2766 531 
Q 2569 213 2275 61 
Q 1981 -91 1556 -91 
Q 1019 -91 701 211 
Q 384 513 384 1019 
Q 384 1609 779 1909 
Q 1175 2209 1959 2209 
L 2766 2209 
L 2766 2266 
Q 2766 2663 2505 2880 
Q 2244 3097 1772 3097 
Q 1472 3097 1187 3025 
Q 903 2953 641 2809 
L 641 3341 
Q 956 3463 1253 3523 
Q 1550 3584 1831 3584 
Q 2591 3584 2966 3190 
Q 3341 2797 3341 1997 
z
" transform="scale(0.015625)"/>
       <path id="DejaVuSans-74" d="M 1172 4494 
L 1172 3500 
L 2356 3500 
L 2356 3053 
L 1172 3053 
L 1172 1153 
Q 1172 725 1289 603 
Q 1406 481 1766 481 
L 2356 481 
L 2356 0 
L 1766 0 
Q 1100 0 847 248 
Q 594 497 594 1153 
L 594 3053 
L 172 3053 
L 172 3500 
L 594 3500 
L 594 4494 
L 1172 4494 
z
" transform="scale(0.015625)"/>
       <path id="DejaVuSans-75" d="M 544 1381 
L 544 3500 
L 1119 3500 
L 1119 1403 
Q 1119 906 1312 657 
Q 1506 409 1894 409 
Q 2359 409 2629 706 
Q 2900 1003 2900 1516 
L 2900 3500 
L 3475 3500 
L 3475 0 
L 2900 0 
L 2900 538 
Q 2691 219 2414 64 
Q 2138 -91 1772 -91 
Q 1169 -91 856 284 
Q 544 659 544 1381 
z
M 1991 3584 
L 1991 3584 
z
" transform="scale(0.015625)"/>
       <path id="DejaVuSans-20" transform="scale(0.015625)"/>
       <path id="DejaVuSans-28" d="M 1984 4856 
Q 1566 4138 1362 3434 
Q 1159 2731 1159 2009 
Q 1159 1288 1364 580 
Q 1569 -128 1984 -844 
L 1484 -844 
Q 1016 -109 783 600 
Q 550 1309 550 2009 
Q 550 2706 781 3412 
Q 1013 4119 1484 4856 
L 1984 4856 
z
" transform="scale(0.015625)"/>
       <path id="DejaVuSans-4b" d="M 628 4666 
L 1259 4666 
L 1259 2694 
L 3353 4666 
L 4166 4666 
L 1850 2491 
L 4331 0 
L 3500 0 
L 1259 2247 
L 1259 0 
L 628 0 
L 628 4666 
z
" transform="scale(0.015625)"/>
       <path id="DejaVuSans-29" d="M 513 4856 
L 1013 4856 
Q 1481 4119 1714 3412 
Q 1947 2706 1947 2009 
Q 1947 1309 1714 600 
Q 1481 -109 1013 -844 
L 513 -844 
Q 928 -128 1133 580 
Q 1338 1288 1338 2009 
Q 1338 2731 1133 3434 
Q 928 4138 513 4856 
z
" transform="scale(0.015625)"/>
      </defs>
      <use xlink:href="#DejaVuSans-54"/>
      <use xlink:href="#DejaVuSans-65" x="44.083984"/>
      <use xlink:href="#DejaVuSans-6d" x="105.607422"/>
      <use xlink:href="#DejaVuSans-70" x="203.019531"/>
      <use xlink:href="#DejaVuSans-65" x="266.496094"/>
      <use xlink:href="#DejaVuSans-72" x="328.019531"/>
      <use xlink:href="#DejaVuSans-61" x="369.132812"/>
      <use xlink:href="#DejaVuSans-74" x="430.412109"/>
      <use xlink:href="#DejaVuSans-75" x="469.621094"/>
      <use xlink:href="#DejaVuSans-72" x="533"/>
      <use xlink:href="#DejaVuSans-65" x="571.863281"/>
      <use xlink:href="#DejaVuSans-20" x="633.386719"/>
      <use xlink:href="#DejaVuSans-28" x="665.173828"/>
      <use xlink:href="#DejaVuSans-4b" x="704.1875"/>
      <use xlink:href="#DejaVuSans-29" x="769.763672"/>
     </g>
    </g>
   </g>
   <g id="matplotlib.axis_2">
    <g id="ytick_1">
     <g id="line2d_6">
      <defs>
       <path id="mf9eae76c2f" d="M 0 0 
L -3.5 0 
" style="stroke: #000000; stroke-width: 0.8"/>
      </defs>
      <g>
       <use xlink:href="#mf9eae76c2f" x="57.6" y="268.92886" style="stroke: #000000; stroke-width: 0.8"/>
      </g>
     </g>
     <g id="text_7">
      <!-- $\mathdefault{10^{0}}$ -->
      <g transform="translate(33 272.728078)scale(0.1 -0.1)">
       <use xlink:href="#DejaVuSans-31" transform="translate(0 0.765625)"/>
       <use xlink:href="#DejaVuSans-30" transform="translate(63.623047 0.765625)"/>
       <use xlink:href="#DejaVuSans-30" transform="translate(128.203125 39.046875)scale(0.7)"/>
      </g>
     </g>
    </g>
    <g id="ytick_2">
     <g id="line2d_7">
      <g>
       <use xlink:href="#mf9eae76c2f" x="57.6" y="215.810579" style="stroke: #000000; stroke-width: 0.8"/>
      </g>
     </g>
     <g id="text_8">
      <!-- $\mathdefault{10^{2}}$ -->
      <g transform="translate(33 219.609798)scale(0.1 -0.1)">
       <use xlink:href="#DejaVuSans-31" transform="translate(0 0.765625)"/>
       <use xlink:href="#DejaVuSans-30" transform="translate(63.623047 0.765625)"/>
       <use xlink:href="#DejaVuSans-32" transform="translate(128.203125 39.046875)scale(0.7)"/>
      </g>
     </g>
    </g>
    <g id="ytick_3">
     <g id="line2d_8">
      <g>
       <use xlink:href="#mf9eae76c2f" x="57.6" y="162.692299" style="stroke: #000000; stroke-width: 0.8"/>
      </g>
     </g>
     <g id="text_9">
      <!-- $\mathdefault{10^{4}}$ -->
      <g transform="translate(33 166.491517)scale(0.1 -0.1)">
       <use xlink:href="#DejaVuSans-31" transform="translate(0 0.684375)"/>
       <use xlink:href="#DejaVuSans-30" transform="translate(63.623047 0.684375)"/>
       <use xlink:href="#DejaVuSans-34" transform="translate(128.203125 38.965625)scale(0.7)"/>
      </g>
     </g>
    </g>
    <g id="ytick_4">
     <g id="line2d_9">
      <g>
       <use xlink:href="#mf9eae76c2f" x="57.6" y="109.574018" style="stroke: #000000; stroke-width: 0.8"/>
      </g>
     </g>
     <g id="text_10">
      <!-- $\mathdefault{10^{6}}$ -->
      <g transform="translate(33 113.373237)scale(0.1 -0.1)">
       <use xlink:href="#DejaVuSans-31" transform="translate(0 0.765625)"/>
       <use xlink:href="#DejaVuSans-30" transform="translate(63.623047 0.765625)"/>
       <use xlink:href="#DejaVuSans-36" transform="translate(128.203125 39.046875)scale(0.7)"/>
      </g>
     </g>
    </g>
    <g id="ytick_5">
     <g id="line2d_10">
      <g>
       <use xlink:href="#mf9eae76c2f" x="57.6" y="56.455738" style="stroke: #000000; stroke-width: 0.8"/>
      </g>
     </g>
     <g id="text_11">
      <!-- $\mathdefault{10^{8}}$ -->
      <g transform="translate(33 60.254956)scale(0.1 -0.1)">
       <use xlink:href="#DejaVuSans-31" transform="translate(0 0.765625)"/>
       <use xlink:href="#DejaVuSans-30" transform="translate(63.623047 0.765625)"/>
       <use xlink:href="#DejaVuSans-38" transform="translate(128.203125 39.046875)scale(0.7)"/>
      </g>
     </g>
    </g>
    <g id="text_12">
     <!-- Pyrolysis number -->
     <g transform="translate(26.920312 217.554563)rotate(-90)scale(0.1 -0.1)">
      <defs>
       <path id="DejaVuSans-50" d="M 1259 4147 
L 1259 2394 
L 2053 2394 
Q 2494 2394 2734 2622 
Q 2975 2850 2975 3272 
Q 2975 3691 2734 3919 
Q 2494 4147 2053 4147 
L 1259 4147 
z
M 628 4666 
L 2053 4666 
Q 2838 4666 3239 4311 
Q 3641 3956 3641 3272 
Q 3641 2581 3239 2228 
Q 2838 1875 2053 1875 
L 1259 1875 
L 1259 0 
L 628 0 
L 628 4666 
z
" transform="scale(0.015625)"/>
       <path id="DejaVuSans-79" d="M 2059 -325 
Q 1816 -950 1584 -1140 
Q 1353 -1331 966 -1331 
L 506 -1331 
L 506 -850 
L 844 -850 
Q 1081 -850 1212 -737 
Q 1344 -625 1503 -206 
L 1606 56 
L 191 3500 
L 800 3500 
L 1894 763 
L 2988 3500 
L 3597 3500 
L 2059 -325 
z
" transform="scale(0.015625)"/>
       <path id="DejaVuSans-6f" d="M 1959 3097 
Q 1497 3097 1228 2736 
Q 959 2375 959 1747 
Q 959 1119 1226 758 
Q 1494 397 1959 397 
Q 2419 397 2687 759 
Q 2956 1122 2956 1747 
Q 2956 2369 2687 2733 
Q 2419 3097 1959 3097 
z
M 1959 3584 
Q 2709 3584 3137 3096 
Q 3566 2609 3566 1747 
Q 3566 888 3137 398 
Q 2709 -91 1959 -91 
Q 1206 -91 779 398 
Q 353 888 353 1747 
Q 353 2609 779 3096 
Q 1206 3584 1959 3584 
z
" transform="scale(0.015625)"/>
       <path id="DejaVuSans-6c" d="M 603 4863 
L 1178 4863 
L 1178 0 
L 603 0 
L 603 4863 
z
" transform="scale(0.015625)"/>
       <path id="DejaVuSans-73" d="M 2834 3397 
L 2834 2853 
Q 2591 2978 2328 3040 
Q 2066 3103 1784 3103 
Q 1356 3103 1142 2972 
Q 928 2841 928 2578 
Q 928 2378 1081 2264 
Q 1234 2150 1697 2047 
L 1894 2003 
Q 2506 1872 2764 1633 
Q 3022 1394 3022 966 
Q 3022 478 2636 193 
Q 2250 -91 1575 -91 
Q 1294 -91 989 -36 
Q 684 19 347 128 
L 347 722 
Q 666 556 975 473 
Q 1284 391 1588 391 
Q 1994 391 2212 530 
Q 2431 669 2431 922 
Q 2431 1156 2273 1281 
Q 2116 1406 1581 1522 
L 1381 1569 
Q 847 1681 609 1914 
Q 372 2147 372 2553 
Q 372 3047 722 3315 
Q 1072 3584 1716 3584 
Q 2034 3584 2315 3537 
Q 2597 3491 2834 3397 
z
" transform="scale(0.015625)"/>
       <path id="DejaVuSans-69" d="M 603 3500 
L 1178 3500 
L 1178 0 
L 603 0 
L 603 3500 
z
M 603 4863 
L 1178 4863 
L 1178 4134 
L 603 4134 
L 603 4863 
z
" transform="scale(0.015625)"/>
       <path id="DejaVuSans-6e" d="M 3513 2113 
L 3513 0 
L 2938 0 
L 2938 2094 
Q 2938 2591 2744 2837 
Q 2550 3084 2163 3084 
Q 1697 3084 1428 2787 
Q 1159 2491 1159 1978 
L 1159 0 
L 581 0 
L 581 3500 
L 1159 3500 
L 1159 2956 
Q 1366 3272 1645 3428 
Q 1925 3584 2291 3584 
Q 2894 3584 3203 3211 
Q 3513 2838 3513 2113 
z
" transform="scale(0.015625)"/>
       <path id="DejaVuSans-62" d="M 3116 1747 
Q 3116 2381 2855 2742 
Q 2594 3103 2138 3103 
Q 1681 3103 1420 2742 
Q 1159 2381 1159 1747 
Q 1159 1113 1420 752 
Q 1681 391 2138 391 
Q 2594 391 2855 752 
Q 3116 1113 3116 1747 
z
M 1159 2969 
Q 1341 3281 1617 3432 
Q 1894 3584 2278 3584 
Q 2916 3584 3314 3078 
Q 3713 2572 3713 1747 
Q 3713 922 3314 415 
Q 2916 -91 2278 -91 
Q 1894 -91 1617 61 
Q 1341 213 1159 525 
L 1159 0 
L 581 0 
L 581 4863 
L 1159 4863 
L 1159 2969 
z
" transform="scale(0.015625)"/>
      </defs>
      <use xlink:href="#DejaVuSans-50"/>
      <use xlink:href="#DejaVuSans-79" x="60.302734"/>
      <use xlink:href="#DejaVuSans-72" x="119.482422"/>
      <use xlink:href="#DejaVuSans-6f" x="158.345703"/>
      <use xlink:href="#DejaVuSans-6c" x="219.527344"/>
      <use xlink:href="#DejaVuSans-79" x="247.310547"/>
      <use xlink:href="#DejaVuSans-73" x="306.490234"/>
      <use xlink:href="#DejaVuSans-69" x="358.589844"/>
      <use xlink:href="#DejaVuSans-73" x="386.373047"/>
      <use xlink:href="#DejaVuSans-20" x="438.472656"/>
      <use xlink:href="#DejaVuSans-6e" x="470.259766"/>
      <use xlink:href="#DejaVuSans-75" x="533.638672"/>
      <use xlink:href="#DejaVuSans-6d" x="597.017578"/>
      <use xlink:href="#DejaVuSans-62" x="694.429688"/>
      <use xlink:href="#DejaVuSans-65" x="757.90625"/>
      <use xlink:href="#DejaVuSans-72" x="819.429688"/>
     </g>
    </g>
   </g>
   <g id="line2d_11">
    <path d="M 57.6 100.221432 
L 57.6 100.221096 
L 57.695351 100.401543 
L 60.831936 106.140924 
L 64.123511 111.747927 
L 66.700489 115.845852 
L 67.896841 117.658514 
L 71.051639 122.163631 
L 73.985737 125.973075 
L 76.664137 129.097684 
L 79.104695 131.616207 
L 81.366336 133.633954 
L 83.390135 135.146383 
L 85.211447 136.247855 
L 85.312512 136.292666 
L 85.63392 136.454073 
L 87.294528 137.147782 
L 87.395593 137.171242 
L 87.651648 137.260674 
L 87.752713 137.280083 
L 88.008768 137.360653 
L 88.109833 137.376022 
L 88.365888 137.447389 
L 88.466953 137.458583 
L 88.687296 137.502782 
L 90.115776 137.658118 
L 91.466761 137.581273 
L 92.77632 137.279344 
L 94.02624 136.763536 
L 95.294016 135.993317 
L 96.579648 134.959678 
L 96.722496 134.800985 
L 98.008128 133.434637 
L 98.150976 133.233896 
L 99.460535 131.439258 
L 100.81152 129.1991 
L 102.198217 126.45933 
L 103.662409 123.092809 
L 103.805257 122.690155 
L 105.353015 118.435701 
L 107.078976 113.001708 
L 111.263351 99.386969 
L 111.304777 99.286219 
L 112.036873 97.787089 
L 112.054729 97.79449 
L 112.078656 97.718507 
L 112.691831 96.936418 
L 112.768969 96.897638 
L 112.77504 96.863721 
L 113.227511 96.609614 
L 113.364288 96.600841 
L 113.465353 96.569004 
L 113.602487 96.593224 
L 113.608201 96.574233 
L 114.060672 96.727873 
L 114.316727 96.912512 
L 114.322441 96.904397 
L 114.935616 97.530373 
L 115.727351 98.67924 
L 118.328256 103.740384 
L 129.458615 126.93083 
L 133.940471 135.573649 
L 141.737472 149.175654 
L 145.0944 154.354571 
L 148.30848 158.898756 
L 151.397568 162.878265 
L 151.659337 163.193202 
L 154.254528 166.151955 
L 154.397376 166.297804 
L 156.403319 168.235588 
L 158.028215 169.503362 
L 159.397056 170.297429 
L 160.623049 170.765954 
L 160.724471 170.778789 
L 160.920887 170.83703 
L 160.926601 170.824837 
L 162.051529 170.955006 
L 162.176521 170.936883 
L 163.265737 170.786732 
L 164.37888 170.39748 
L 165.6288 169.701953 
L 167.289408 168.50009 
L 167.4144 168.376335 
L 169.295351 166.996497 
L 169.396416 166.937787 
L 170.247433 166.560125 
L 170.384567 166.541109 
L 170.509559 166.495082 
L 171.199872 166.459383 
L 171.396288 166.502119 
L 171.497353 166.510832 
L 171.717696 166.576197 
L 172.390153 166.917113 
L 172.890121 167.305411 
L 173.699712 168.145415 
L 175.348535 170.433483 
L 177.526967 173.932256 
L 177.848375 174.459235 
L 181.377792 179.88613 
L 184.317961 183.581336 
L 185.978569 185.08345 
L 186.139273 185.191196 
L 186.52032 185.4369 
L 187.710601 185.934936 
L 188.722679 185.983947 
L 189.669047 185.670922 
L 189.794039 185.57795 
L 190.740407 184.786897 
L 190.883255 184.596524 
L 191.758199 183.349506 
L 192.829559 181.238855 
L 194.138761 177.869799 
L 197.567113 168.131721 
L 197.608896 168.037588 
L 198.519552 166.212893 
L 198.561335 166.139781 
L 199.531273 164.634438 
L 199.608768 164.560112 
L 199.751616 164.334263 
L 201.673993 161.908181 
L 201.751488 161.840512 
L 201.894336 161.621271 
L 203.322816 159.550092 
L 204.513097 157.425506 
L 205.679808 154.914046 
L 205.822656 154.517177 
L 206.989367 151.372396 
L 207.132215 150.885007 
L 208.382135 146.690549 
L 210.030601 140.28869 
L 211.673353 134.065036 
L 211.69728 133.987131 
L 212.506871 131.711937 
L 212.548297 131.617049 
L 213.161472 130.501392 
L 213.238967 130.431929 
L 213.363959 130.249723 
L 213.816073 129.887782 
L 213.893568 129.875629 
L 213.917495 129.842565 
L 214.351753 129.780911 
L 214.548169 129.831934 
L 214.649591 129.848133 
L 214.869577 129.946143 
L 215.482752 130.389545 
L 215.98272 130.886074 
L 217.208713 132.374777 
L 218.422921 133.996334 
L 222.649079 139.52714 
L 225.166775 142.447903 
L 227.350921 144.659611 
L 229.273655 146.307904 
L 231.035328 147.544044 
L 231.136393 147.595334 
L 231.416375 147.759797 
L 232.999488 148.550307 
L 233.100553 148.578614 
L 233.320896 148.663155 
L 234.785088 149.101842 
L 234.886153 149.107674 
L 235.082569 149.158681 
L 235.183991 149.160688 
L 235.380407 149.205372 
L 235.481472 149.203578 
L 235.677888 149.241929 
L 235.778953 149.236328 
L 235.939657 149.249816 
L 237.350281 149.243937 
L 238.832329 149.031039 
L 238.957321 148.982724 
L 240.737207 148.461907 
L 240.862199 148.396396 
L 244.885513 147.038819 
L 245.022647 147.031215 
L 245.028361 147.012407 
L 246.195072 146.911094 
L 246.355776 146.91472 
L 247.444992 147.062219 
L 247.665335 147.118466 
L 248.813833 147.550469 
L 249.129527 147.715697 
L 249.230592 147.76 
L 249.569856 147.948776 
L 251.135113 148.982543 
L 251.629367 149.352504 
L 251.730432 149.422504 
L 252.2304 149.801847 
L 256.15872 152.661897 
L 258.182519 153.831638 
L 259.985975 154.622287 
L 261.628727 155.11768 
L 261.729792 155.128318 
L 261.950135 155.172656 
L 263.47968 155.351558 
L 264.961728 155.313653 
L 265.08672 155.283612 
L 266.533056 154.986351 
L 267.997248 154.471189 
L 268.12224 154.39609 
L 269.663927 153.58547 
L 269.788919 153.486664 
L 271.455241 152.303611 
L 273.413687 150.646647 
L 273.556535 150.489837 
L 276.092087 147.996655 
L 276.234935 147.822062 
L 279.544009 144.225735 
L 279.686857 144.035248 
L 282.347401 140.803082 
L 284.603328 137.737857 
L 284.746176 137.498857 
L 286.864969 134.220009 
L 287.007817 133.951714 
L 289.448375 129.673994 
L 293.692032 122.140369 
L 293.769527 122.048862 
L 293.912375 121.803775 
L 295.180151 120.090629 
L 295.26336 119.993081 
L 296.310793 118.944508 
L 296.412215 118.861132 
L 297.322871 118.252899 
L 297.465719 118.180201 
L 298.394231 117.846772 
L 298.590647 117.81535 
L 298.715639 117.783144 
L 299.745216 117.729649 
L 300.953353 117.892332 
L 301.387968 117.998337 
L 301.530816 118.030372 
L 303.453193 118.65345 
L 304.090295 118.893019 
L 307.976832 120.500432 
L 308.673216 120.806328 
L 313.155072 122.906013 
L 313.946807 123.306088 
L 314.148937 123.405834 
L 318.272602 125.626769 
L 319.183258 126.152404 
L 319.404672 126.277955 
L 320.37961 126.854417 
L 324.879322 129.673649 
L 326.054246 130.447206 
L 331.843162 134.431402 
L 333.29664 135.456309 
L 342.896026 142.117367 
L 343.035302 142.191054 
L 343.431706 142.469809 
L 343.570982 142.543496 
L 343.967386 142.818867 
L 344.106662 142.892395 
L 344.503066 143.16425 
L 344.642342 143.237645 
L 345.038746 143.50576 
L 345.19945 143.593984 
L 345.456576 143.768673 
L 345.61728 143.856516 
L 345.874406 144.029016 
L 346.03511 144.116417 
L 346.288666 144.286704 
L 346.44937 144.373609 
L 346.706496 144.541677 
L 346.8672 144.628036 
L 347.142182 144.793683 
L 347.574298 145.059997 
L 347.69929 145.128122 
L 347.992128 145.306327 
L 348.11712 145.373613 
L 348.431386 145.566792 
L 348.6528 145.684521 
L 348.967066 145.873924 
L 349.18848 145.989938 
L 349.502746 146.175498 
L 349.759872 146.309439 
L 350.216986 146.568451 
L 350.474112 146.699207 
L 350.931226 146.950457 
L 351.21335 147.090227 
L 351.588326 147.290569 
L 351.902592 147.444665 
L 352.359706 147.679438 
L 352.69897 147.839658 
L 353.134656 148.053377 
L 353.509632 148.223951 
L 353.94889 148.425607 
L 354.445286 148.649888 
L 354.9024 148.843034 
L 355.455936 149.077259 
L 356.009472 149.294331 
L 356.409446 149.450826 
L 357.020122 149.672589 
L 357.40224 149.806095 
L 358.109338 150.047023 
L 358.252186 150.088396 
L 359.105702 150.338719 
L 359.444966 150.433904 
L 360.534182 150.698761 
L 360.85559 150.768025 
L 361.823386 150.950766 
L 366.15168 151.184371 
L 367.515878 151.046328 
L 367.64087 151.015828 
L 369.062208 150.728596 
L 369.205056 150.679023 
L 371.287066 149.948219 
L 373.194086 148.966043 
L 374.979686 147.741077 
L 376.68672 146.264631 
L 378.250906 144.625422 
L 379.96151 142.494999 
L 381.586406 140.108735 
L 383.23273 137.297073 
L 384.918336 133.983526 
L 386.62537 130.12843 
L 388.407398 125.57755 
L 388.53239 125.190899 
L 390.310848 119.961955 
L 390.471552 119.407031 
L 390.514406 119.274025 
L 392.335718 113.133184 
L 392.46071 112.629957 
L 394.36416 105.293166 
L 396.50688 96.114994 
L 400.531622 78.589856 
L 400.570906 78.438208 
L 401.542272 75.310585 
L 401.585126 75.195367 
L 402.374362 73.334915 
L 402.452928 73.217864 
L 402.613632 72.8991 
L 402.692198 72.79767 
L 402.81719 72.572887 
L 403.445722 71.802994 
L 403.549286 71.712129 
L 404.159962 71.330429 
L 404.320666 71.273544 
L 404.934912 71.191831 
L 405.249178 71.226766 
L 405.392026 71.245459 
L 406.26697 71.538428 
L 407.534746 72.224373 
L 409.916736 73.815012 
L 414.72 77.156695 
L 414.72 77.156046 
" clip-path="url(#pb660b15715)" style="fill: none; stroke: #1f77b4; stroke-width: 1.5; stroke-linecap: square"/>
   </g>
   <g id="line2d_12">
    <path d="M 57.6 71.258258 
L 57.6 71.257921 
L 57.695351 71.443577 
L 60.867648 77.418722 
L 67.694711 88.933357 
L 69.795648 92.107976 
L 70.551671 93.203905 
L 72.24192 95.569497 
L 75.09888 99.275486 
L 77.717641 102.319492 
L 80.09856 104.756363 
L 82.318775 106.706497 
L 84.282935 108.137235 
L 86.050679 109.157464 
L 87.675575 109.844574 
L 89.163337 110.23925 
L 90.568247 110.397736 
L 90.693239 110.385806 
L 92.002441 110.281361 
L 93.305929 109.963822 
L 93.430921 109.901606 
L 94.698697 109.310773 
L 95.948617 108.473815 
L 97.234249 107.351638 
L 97.377097 107.180877 
L 98.662729 105.711982 
L 98.805577 105.497381 
L 100.09728 103.61045 
L 101.460407 101.248644 
L 101.603255 100.937554 
L 103.013879 97.939204 
L 104.495927 94.289717 
L 104.638775 93.860394 
L 106.245815 89.166264 
L 108.209975 82.688186 
L 110.608393 74.803453 
L 110.63232 74.735148 
L 111.560832 72.397978 
L 111.602615 72.310552 
L 112.275072 71.148812 
L 112.352567 71.080849 
L 112.477559 70.897256 
L 112.989312 70.47322 
L 113.066807 70.461201 
L 113.090377 70.425426 
L 113.524992 70.351455 
L 113.685696 70.376008 
L 114.161737 70.599885 
L 114.715273 71.109582 
L 115.352375 71.9587 
L 116.34624 73.666838 
L 117.971136 76.969105 
L 131.380992 105.246205 
L 140.648256 122.32467 
L 144.076608 127.890203 
L 146.380032 131.370622 
L 148.183488 133.951789 
L 148.6656 134.61752 
L 151.70112 138.60031 
L 154.337737 141.693347 
L 156.361536 143.734268 
L 158.004288 145.093076 
L 158.105353 145.156757 
L 158.444617 145.388337 
L 159.795959 146.138899 
L 160.98624 146.546533 
L 162.111168 146.706052 
L 162.212233 146.690976 
L 162.372937 146.688397 
L 163.480009 146.551436 
L 163.605001 146.50011 
L 164.736 146.07391 
L 166.045559 145.316687 
L 168.301129 143.685025 
L 168.426121 143.571532 
L 169.592832 142.858347 
L 169.693897 142.811419 
L 170.485632 142.559325 
L 170.622409 142.557064 
L 170.62848 142.539404 
L 171.259511 142.554299 
L 171.455927 142.60933 
L 171.461641 142.598306 
L 172.092672 142.857939 
L 172.467648 143.109005 
L 172.568713 143.178212 
L 173.300809 143.866044 
L 173.562935 144.158112 
L 174.574656 145.495108 
L 176.038848 147.775573 
L 176.437751 148.435748 
L 177.348407 149.947614 
L 177.669815 150.486981 
L 181.34208 156.284409 
L 183.776567 159.517433 
L 184.692937 160.529397 
L 186.157129 161.825174 
L 186.299977 161.919485 
L 187.430976 162.515085 
L 188.383415 162.701224 
L 189.252288 162.585541 
L 189.37728 162.523239 
L 190.287936 161.964927 
L 191.121097 161.08452 
L 192.013897 159.717713 
L 193.008119 157.676572 
L 194.37696 154.080566 
L 197.209993 145.970724 
L 197.251776 145.869878 
L 198.222071 143.7859 
L 198.263497 143.708007 
L 199.174153 142.205984 
L 199.251648 142.127187 
L 199.394496 141.891545 
L 200.662272 140.280432 
L 200.739767 140.218668 
L 200.864759 140.03713 
L 202.787136 137.553685 
L 204.0192 135.577219 
L 205.168055 133.309248 
L 206.298697 130.576853 
L 207.471479 127.145767 
L 208.780681 122.585041 
L 212.387593 109.48404 
L 212.429376 109.383838 
L 213.042551 108.18546 
L 213.119689 108.107377 
L 213.262537 107.8845 
L 213.756791 107.45214 
L 213.833929 107.437625 
L 213.857856 107.402764 
L 214.292471 107.326431 
L 214.453175 107.348735 
L 214.947072 107.558984 
L 215.262409 107.794802 
L 215.345975 107.854556 
L 216.179136 108.713025 
L 217.607616 110.554117 
L 223.48224 118.370707 
L 225.922441 121.163766 
L 228.059447 123.288172 
L 228.142656 123.356407 
L 230.029321 124.908576 
L 231.749568 126.047787 
L 231.850633 126.094068 
L 232.106688 126.245202 
L 232.112759 126.237056 
L 233.654089 126.943121 
L 233.755511 126.966397 
L 233.951927 127.047116 
L 233.957641 127.035604 
L 235.386121 127.392204 
L 236.808887 127.533144 
L 236.909952 127.51633 
L 237.046729 127.532038 
L 237.0528 127.514624 
L 238.499136 127.376988 
L 240.141888 127.008768 
L 240.26688 126.951025 
L 245.540471 125.443792 
L 245.677248 125.452063 
L 245.683319 125.435289 
L 246.790391 125.486143 
L 246.986807 125.531564 
L 247.087872 125.537146 
L 247.284288 125.592596 
L 247.290359 125.581137 
L 248.397431 125.953223 
L 248.677056 126.080818 
L 249.944832 126.804418 
L 250.343735 127.072888 
L 252.385033 128.620682 
L 252.902857 129.033001 
L 256.039799 131.389686 
L 258.116809 132.670057 
L 258.218231 132.716356 
L 258.539639 132.883946 
L 260.319168 133.67541 
L 260.420233 133.702026 
L 260.676288 133.80089 
L 260.682359 133.792588 
L 262.289399 134.213139 
L 263.795017 134.382638 
L 265.259209 134.339347 
L 265.384201 134.3084 
L 266.812681 134.009468 
L 268.259017 133.479341 
L 269.782848 132.700115 
L 269.90784 132.603122 
L 271.568448 131.474845 
L 271.711296 131.341888 
L 273.711168 129.665259 
L 273.854016 129.509753 
L 276.472777 126.943039 
L 279.788279 123.378743 
L 282.460608 120.2162 
L 282.603456 120.006079 
L 284.787959 117.030862 
L 286.930679 113.730106 
L 289.311241 109.635802 
L 293.751671 101.876387 
L 293.828809 101.787662 
L 293.971657 101.54827 
L 295.180151 99.955531 
L 295.26336 99.860131 
L 296.310793 98.838551 
L 296.412215 98.757785 
L 297.322871 98.172961 
L 297.465719 98.10393 
L 298.394231 97.794308 
L 298.596361 97.756548 
L 299.584512 97.702538 
L 299.899849 97.731902 
L 300.042697 97.740192 
L 301.352256 98.007438 
L 303.197495 98.630437 
L 306.488713 100.016423 
L 307.185097 100.329137 
L 311.905152 102.58414 
L 312.661175 102.969379 
L 317.023753 105.342725 
L 317.933338 105.874509 
L 318.154752 106.001455 
L 319.07255 106.548707 
L 323.450842 109.3225 
L 324.600768 110.092177 
L 324.861466 110.266966 
L 330.296832 114.081895 
L 331.743168 115.131518 
L 332.064576 115.363651 
L 343.288858 123.407439 
L 343.392422 123.468874 
L 343.788826 123.754533 
L 343.928102 123.831356 
L 344.324506 124.113531 
L 344.463782 124.19017 
L 344.860186 124.468742 
L 344.999462 124.545168 
L 345.431578 124.836781 
L 345.535142 124.89612 
L 345.967258 125.18409 
L 346.070822 125.242777 
L 346.502938 125.527028 
L 346.606502 125.584974 
L 347.038618 125.865301 
L 347.16361 125.93733 
L 347.456448 126.125129 
L 347.58144 126.196336 
L 347.895706 126.400409 
L 348.092122 126.510281 
L 348.552806 126.796701 
L 348.77065 126.919029 
L 349.088486 127.114855 
L 349.30633 127.235431 
L 349.624166 127.427353 
L 349.877722 127.566572 
L 350.338406 127.83481 
L 350.591962 127.970779 
L 351.052646 128.231236 
L 351.3312 128.376665 
L 351.741888 128.602639 
L 351.86688 128.663304 
L 352.277568 128.88394 
L 352.40256 128.942994 
L 352.838246 129.170091 
L 353.213222 129.351918 
L 353.670336 129.580657 
L 354.106022 129.782647 
L 354.54528 129.986923 
L 355.08096 130.22783 
L 355.634496 130.471424 
L 356.188032 130.697911 
L 356.588006 130.86101 
L 357.259392 131.115102 
L 357.64151 131.254006 
L 358.373606 131.508843 
L 359.223552 131.774356 
L 359.562816 131.875489 
L 360.712742 132.173531 
L 361.03415 132.247449 
L 362.037658 132.456421 
L 362.180506 132.474936 
L 366.287386 132.734678 
L 368.89079 132.376952 
L 370.31927 131.97814 
L 371.801318 131.409438 
L 371.92631 131.337479 
L 373.41193 130.546371 
L 374.954688 129.525605 
L 375.115392 129.385985 
L 375.215386 129.308008 
L 376.943846 127.807589 
L 378.608026 126.037781 
L 380.311488 123.8989 
L 380.472192 123.649834 
L 380.550758 123.566208 
L 380.67575 123.362747 
L 382.300646 120.847185 
L 383.94697 117.889969 
L 385.668288 114.367416 
L 385.828992 113.974237 
L 385.871846 113.880603 
L 387.596736 109.719762 
L 389.36448 104.859698 
L 391.15008 99.286801 
L 393.014246 92.71537 
L 394.96055 85.006815 
L 397.299686 74.762929 
L 400.174502 62.219607 
L 400.213786 62.058702 
L 401.245862 58.4843 
L 401.285146 58.358153 
L 402.138662 56.148828 
L 402.213658 56.017484 
L 402.374362 55.660647 
L 402.452928 55.545205 
L 402.613632 55.229732 
L 402.692198 55.129909 
L 402.81719 54.907685 
L 403.445722 54.150646 
L 403.549286 54.061898 
L 404.159962 53.692669 
L 404.320666 53.639064 
L 404.934912 53.569876 
L 405.249178 53.611212 
L 405.392026 53.632815 
L 406.26697 53.943583 
L 407.534746 54.655265 
L 409.934592 56.306869 
L 414.72 59.732264 
L 414.72 59.731614 
" clip-path="url(#pb660b15715)" style="fill: none; stroke-dasharray: 5.55,2.4; stroke-dashoffset: 0; stroke: #ff7f0e; stroke-width: 1.5"/>
   </g>
   <g id="line2d_13">
    <path d="M 57.6 239.965685 
L 90.550391 241.654719 
L 126.500233 243.270453 
L 166.718016 244.851101 
L 212.107968 246.408031 
L 263.533248 247.944751 
L 322.004506 249.46478 
L 388.568102 250.967925 
L 414.72 251.504428 
L 414.72 251.504428 
" clip-path="url(#pb660b15715)" style="fill: none; stroke: #ff0000; stroke-width: 1.5; stroke-linecap: square"/>
   </g>
   <g id="line2d_14">
    <path d="M -1 295.488 
L 461.8 295.488 
" clip-path="url(#pb660b15715)" style="fill: none; stroke-dasharray: 5.55,2.4; stroke-dashoffset: 0; stroke: #2ca02c; stroke-width: 1.5"/>
   </g>
   <g id="line2d_15">
    <path d="M -1 242.369719 
L 461.8 242.369719 
" clip-path="url(#pb660b15715)" style="fill: none; stroke-dasharray: 5.55,2.4; stroke-dashoffset: 0; stroke: #d62728; stroke-width: 1.5"/>
   </g>
   <g id="patch_3">
    <path d="M 57.6 307.584 
L 57.6 41.472 
" style="fill: none; stroke: #000000; stroke-width: 0.8; stroke-linejoin: miter; stroke-linecap: square"/>
   </g>
   <g id="patch_4">
    <path d="M 414.72 307.584 
L 414.72 41.472 
" style="fill: none; stroke: #000000; stroke-width: 0.8; stroke-linejoin: miter; stroke-linecap: square"/>
   </g>
   <g id="patch_5">
    <path d="M 57.6 307.584 
L 414.72 307.584 
" style="fill: none; stroke: #000000; stroke-width: 0.8; stroke-linejoin: miter; stroke-linecap: square"/>
   </g>
   <g id="patch_6">
    <path d="M 57.6 41.472 
L 414.72 41.472 
" style="fill: none; stroke: #000000; stroke-width: 0.8; stroke-linejoin: miter; stroke-linecap: square"/>
   </g>
   <g id="legend_1">
    <g id="patch_7">
     <path d="M 185.360781 93.506375 
L 286.959219 93.506375 
Q 288.959219 93.506375 288.959219 91.506375 
L 288.959219 48.472 
Q 288.959219 46.472 286.959219 46.472 
L 185.360781 46.472 
Q 183.360781 46.472 183.360781 48.472 
L 183.360781 91.506375 
Q 183.360781 93.506375 185.360781 93.506375 
z
" style="fill: #ffffff; opacity: 0.8; stroke: #cccccc; stroke-linejoin: miter"/>
    </g>
    <g id="line2d_16">
     <path d="M 187.360781 54.570438 
L 197.360781 54.570438 
L 207.360781 54.570438 
" style="fill: none; stroke: #1f77b4; stroke-width: 1.5; stroke-linecap: square"/>
    </g>
    <g id="text_13">
     <!-- Py2 0.177mm -->
     <g transform="translate(215.360781 58.070438)scale(0.1 -0.1)">
      <defs>
       <path id="DejaVuSans-2e" d="M 684 794 
L 1344 794 
L 1344 0 
L 684 0 
L 684 794 
z
" transform="scale(0.015625)"/>
       <path id="DejaVuSans-37" d="M 525 4666 
L 3525 4666 
L 3525 4397 
L 1831 0 
L 1172 0 
L 2766 4134 
L 525 4134 
L 525 4666 
z
" transform="scale(0.015625)"/>
      </defs>
      <use xlink:href="#DejaVuSans-50"/>
      <use xlink:href="#DejaVuSans-79" x="60.302734"/>
      <use xlink:href="#DejaVuSans-32" x="119.482422"/>
      <use xlink:href="#DejaVuSans-20" x="183.105469"/>
      <use xlink:href="#DejaVuSans-30" x="214.892578"/>
      <use xlink:href="#DejaVuSans-2e" x="278.515625"/>
      <use xlink:href="#DejaVuSans-31" x="310.302734"/>
      <use xlink:href="#DejaVuSans-37" x="373.925781"/>
      <use xlink:href="#DejaVuSans-37" x="437.548828"/>
      <use xlink:href="#DejaVuSans-6d" x="501.171875"/>
      <use xlink:href="#DejaVuSans-6d" x="598.583984"/>
     </g>
    </g>
    <g id="line2d_17">
     <path d="M 187.360781 69.248563 
L 197.360781 69.248563 
L 207.360781 69.248563 
" style="fill: none; stroke-dasharray: 5.55,2.4; stroke-dashoffset: 0; stroke: #ff7f0e; stroke-width: 1.5"/>
    </g>
    <g id="text_14">
     <!-- Py1 0.177mm -->
     <g transform="translate(215.360781 72.748563)scale(0.1 -0.1)">
      <use xlink:href="#DejaVuSans-50"/>
      <use xlink:href="#DejaVuSans-79" x="60.302734"/>
      <use xlink:href="#DejaVuSans-31" x="119.482422"/>
      <use xlink:href="#DejaVuSans-20" x="183.105469"/>
      <use xlink:href="#DejaVuSans-30" x="214.892578"/>
      <use xlink:href="#DejaVuSans-2e" x="278.515625"/>
      <use xlink:href="#DejaVuSans-31" x="310.302734"/>
      <use xlink:href="#DejaVuSans-37" x="373.925781"/>
      <use xlink:href="#DejaVuSans-37" x="437.548828"/>
      <use xlink:href="#DejaVuSans-6d" x="501.171875"/>
      <use xlink:href="#DejaVuSans-6d" x="598.583984"/>
     </g>
    </g>
    <g id="line2d_18">
     <path d="M 187.360781 83.926688 
L 197.360781 83.926688 
L 207.360781 83.926688 
" style="fill: none; stroke: #ff0000; stroke-width: 1.5; stroke-linecap: square"/>
    </g>
    <g id="text_15">
     <!-- Bi -->
     <g transform="translate(215.360781 87.426688)scale(0.1 -0.1)">
      <defs>
       <path id="DejaVuSans-42" d="M 1259 2228 
L 1259 519 
L 2272 519 
Q 2781 519 3026 730 
Q 3272 941 3272 1375 
Q 3272 1813 3026 2020 
Q 2781 2228 2272 2228 
L 1259 2228 
z
M 1259 4147 
L 1259 2741 
L 2194 2741 
Q 2656 2741 2882 2914 
Q 3109 3088 3109 3444 
Q 3109 3797 2882 3972 
Q 2656 4147 2194 4147 
L 1259 4147 
z
M 628 4666 
L 2241 4666 
Q 2963 4666 3353 4366 
Q 3744 4066 3744 3513 
Q 3744 3084 3544 2831 
Q 3344 2578 2956 2516 
Q 3422 2416 3680 2098 
Q 3938 1781 3938 1306 
Q 3938 681 3513 340 
Q 3088 0 2303 0 
L 628 0 
L 628 4666 
z
" transform="scale(0.015625)"/>
      </defs>
      <use xlink:href="#DejaVuSans-42"/>
      <use xlink:href="#DejaVuSans-69" x="68.603516"/>
     </g>
    </g>
   </g>
  </g>
 </g>
 <defs>
  <clipPath id="pb660b15715">
   <rect x="57.6" y="41.472" width="357.12" height="266.112"/>
  </clipPath>
 </defs>
</svg>
