<?xml version="1.0" encoding="utf-8" standalone="no"?>
<!DOCTYPE svg PUBLIC "-//W3C//DTD SVG 1.1//EN"
  "http://www.w3.org/Graphics/SVG/1.1/DTD/svg11.dtd">
<svg xmlns:xlink="http://www.w3.org/1999/xlink" width="460.8pt" height="345.6pt" viewBox="0 0 460.8 345.6" xmlns="http://www.w3.org/2000/svg" version="1.1">
 <metadata>
  <rdf:RDF xmlns:dc="http://purl.org/dc/elements/1.1/" xmlns:cc="http://creativecommons.org/ns#" xmlns:rdf="http://www.w3.org/1999/02/22-rdf-syntax-ns#">
   <cc:Work>
    <dc:type rdf:resource="http://purl.org/dc/dcmitype/StillImage"/>
    <dc:date>2022-04-26T11:40:12.817579</dc:date>
    <dc:format>image/svg+xml</dc:format>
    <dc:creator>
     <cc:Agent>
      <dc:title>Matplotlib v3.5.1, https://matplotlib.org/</dc:title>
     </cc:Agent>
    </dc:creator>
   </cc:Work>
  </rdf:RDF>
 </metadata>
 <defs>
  <style type="text/css">*{stroke-linejoin: round; stroke-linecap: butt}</style>
 </defs>
 <g id="figure_1">
  <g id="patch_1">
   <path d="M 0 345.6 
L 460.8 345.6 
L 460.8 0 
L 0 0 
z
" style="fill: #ffffff"/>
  </g>
  <g id="axes_1">
   <g id="patch_2">
    <path d="M 57.6 307.584 
L 414.72 307.584 
L 414.72 41.472 
L 57.6 41.472 
z
" style="fill: #ffffff"/>
   </g>
   <g id="matplotlib.axis_1">
    <g id="xtick_1">
     <g id="line2d_1">
      <defs>
       <path id="m60b82a09a6" d="M 0 0 
L 0 3.5 
" style="stroke: #000000; stroke-width: 0.8"/>
      </defs>
      <g>
       <use xlink:href="#m60b82a09a6" x="94.30298" y="307.584" style="stroke: #000000; stroke-width: 0.8"/>
      </g>
     </g>
     <g id="text_1">
      <!-- 400 -->
      <g transform="translate(84.75923 322.182437)scale(0.1 -0.1)">
       <defs>
        <path id="DejaVuSans-34" d="M 2419 4116 
L 825 1625 
L 2419 1625 
L 2419 4116 
z
M 2253 4666 
L 3047 4666 
L 3047 1625 
L 3713 1625 
L 3713 1100 
L 3047 1100 
L 3047 0 
L 2419 0 
L 2419 1100 
L 313 1100 
L 313 1709 
L 2253 4666 
z
" transform="scale(0.015625)"/>
        <path id="DejaVuSans-30" d="M 2034 4250 
Q 1547 4250 1301 3770 
Q 1056 3291 1056 2328 
Q 1056 1369 1301 889 
Q 1547 409 2034 409 
Q 2525 409 2770 889 
Q 3016 1369 3016 2328 
Q 3016 3291 2770 3770 
Q 2525 4250 2034 4250 
z
M 2034 4750 
Q 2819 4750 3233 4129 
Q 3647 3509 3647 2328 
Q 3647 1150 3233 529 
Q 2819 -91 2034 -91 
Q 1250 -91 836 529 
Q 422 1150 422 2328 
Q 422 3509 836 4129 
Q 1250 4750 2034 4750 
z
" transform="scale(0.015625)"/>
       </defs>
       <use xlink:href="#DejaVuSans-34"/>
       <use xlink:href="#DejaVuSans-30" x="63.623047"/>
       <use xlink:href="#DejaVuSans-30" x="127.246094"/>
      </g>
     </g>
    </g>
    <g id="xtick_2">
     <g id="line2d_2">
      <g>
       <use xlink:href="#m60b82a09a6" x="167.708941" y="307.584" style="stroke: #000000; stroke-width: 0.8"/>
      </g>
     </g>
     <g id="text_2">
      <!-- 600 -->
      <g transform="translate(158.165191 322.182437)scale(0.1 -0.1)">
       <defs>
        <path id="DejaVuSans-36" d="M 2113 2584 
Q 1688 2584 1439 2293 
Q 1191 2003 1191 1497 
Q 1191 994 1439 701 
Q 1688 409 2113 409 
Q 2538 409 2786 701 
Q 3034 994 3034 1497 
Q 3034 2003 2786 2293 
Q 2538 2584 2113 2584 
z
M 3366 4563 
L 3366 3988 
Q 3128 4100 2886 4159 
Q 2644 4219 2406 4219 
Q 1781 4219 1451 3797 
Q 1122 3375 1075 2522 
Q 1259 2794 1537 2939 
Q 1816 3084 2150 3084 
Q 2853 3084 3261 2657 
Q 3669 2231 3669 1497 
Q 3669 778 3244 343 
Q 2819 -91 2113 -91 
Q 1303 -91 875 529 
Q 447 1150 447 2328 
Q 447 3434 972 4092 
Q 1497 4750 2381 4750 
Q 2619 4750 2861 4703 
Q 3103 4656 3366 4563 
z
" transform="scale(0.015625)"/>
       </defs>
       <use xlink:href="#DejaVuSans-36"/>
       <use xlink:href="#DejaVuSans-30" x="63.623047"/>
       <use xlink:href="#DejaVuSans-30" x="127.246094"/>
      </g>
     </g>
    </g>
    <g id="xtick_3">
     <g id="line2d_3">
      <g>
       <use xlink:href="#m60b82a09a6" x="241.114902" y="307.584" style="stroke: #000000; stroke-width: 0.8"/>
      </g>
     </g>
     <g id="text_3">
      <!-- 800 -->
      <g transform="translate(231.571152 322.182437)scale(0.1 -0.1)">
       <defs>
        <path id="DejaVuSans-38" d="M 2034 2216 
Q 1584 2216 1326 1975 
Q 1069 1734 1069 1313 
Q 1069 891 1326 650 
Q 1584 409 2034 409 
Q 2484 409 2743 651 
Q 3003 894 3003 1313 
Q 3003 1734 2745 1975 
Q 2488 2216 2034 2216 
z
M 1403 2484 
Q 997 2584 770 2862 
Q 544 3141 544 3541 
Q 544 4100 942 4425 
Q 1341 4750 2034 4750 
Q 2731 4750 3128 4425 
Q 3525 4100 3525 3541 
Q 3525 3141 3298 2862 
Q 3072 2584 2669 2484 
Q 3125 2378 3379 2068 
Q 3634 1759 3634 1313 
Q 3634 634 3220 271 
Q 2806 -91 2034 -91 
Q 1263 -91 848 271 
Q 434 634 434 1313 
Q 434 1759 690 2068 
Q 947 2378 1403 2484 
z
M 1172 3481 
Q 1172 3119 1398 2916 
Q 1625 2713 2034 2713 
Q 2441 2713 2670 2916 
Q 2900 3119 2900 3481 
Q 2900 3844 2670 4047 
Q 2441 4250 2034 4250 
Q 1625 4250 1398 4047 
Q 1172 3844 1172 3481 
z
" transform="scale(0.015625)"/>
       </defs>
       <use xlink:href="#DejaVuSans-38"/>
       <use xlink:href="#DejaVuSans-30" x="63.623047"/>
       <use xlink:href="#DejaVuSans-30" x="127.246094"/>
      </g>
     </g>
    </g>
    <g id="xtick_4">
     <g id="line2d_4">
      <g>
       <use xlink:href="#m60b82a09a6" x="314.520863" y="307.584" style="stroke: #000000; stroke-width: 0.8"/>
      </g>
     </g>
     <g id="text_4">
      <!-- 1000 -->
      <g transform="translate(301.795863 322.182437)scale(0.1 -0.1)">
       <defs>
        <path id="DejaVuSans-31" d="M 794 531 
L 1825 531 
L 1825 4091 
L 703 3866 
L 703 4441 
L 1819 4666 
L 2450 4666 
L 2450 531 
L 3481 531 
L 3481 0 
L 794 0 
L 794 531 
z
" transform="scale(0.015625)"/>
       </defs>
       <use xlink:href="#DejaVuSans-31"/>
       <use xlink:href="#DejaVuSans-30" x="63.623047"/>
       <use xlink:href="#DejaVuSans-30" x="127.246094"/>
       <use xlink:href="#DejaVuSans-30" x="190.869141"/>
      </g>
     </g>
    </g>
    <g id="xtick_5">
     <g id="line2d_5">
      <g>
       <use xlink:href="#m60b82a09a6" x="387.926824" y="307.584" style="stroke: #000000; stroke-width: 0.8"/>
      </g>
     </g>
     <g id="text_5">
      <!-- 1200 -->
      <g transform="translate(375.201824 322.182437)scale(0.1 -0.1)">
       <defs>
        <path id="DejaVuSans-32" d="M 1228 531 
L 3431 531 
L 3431 0 
L 469 0 
L 469 531 
Q 828 903 1448 1529 
Q 2069 2156 2228 2338 
Q 2531 2678 2651 2914 
Q 2772 3150 2772 3378 
Q 2772 3750 2511 3984 
Q 2250 4219 1831 4219 
Q 1534 4219 1204 4116 
Q 875 4013 500 3803 
L 500 4441 
Q 881 4594 1212 4672 
Q 1544 4750 1819 4750 
Q 2544 4750 2975 4387 
Q 3406 4025 3406 3419 
Q 3406 3131 3298 2873 
Q 3191 2616 2906 2266 
Q 2828 2175 2409 1742 
Q 1991 1309 1228 531 
z
" transform="scale(0.015625)"/>
       </defs>
       <use xlink:href="#DejaVuSans-31"/>
       <use xlink:href="#DejaVuSans-32" x="63.623047"/>
       <use xlink:href="#DejaVuSans-30" x="127.246094"/>
       <use xlink:href="#DejaVuSans-30" x="190.869141"/>
      </g>
     </g>
    </g>
    <g id="text_6">
     <!-- Temperature (K) -->
     <g transform="translate(195.720937 335.860562)scale(0.1 -0.1)">
      <defs>
       <path id="DejaVuSans-54" d="M -19 4666 
L 3928 4666 
L 3928 4134 
L 2272 4134 
L 2272 0 
L 1638 0 
L 1638 4134 
L -19 4134 
L -19 4666 
z
" transform="scale(0.015625)"/>
       <path id="DejaVuSans-65" d="M 3597 1894 
L 3597 1613 
L 953 1613 
Q 991 1019 1311 708 
Q 1631 397 2203 397 
Q 2534 397 2845 478 
Q 3156 559 3463 722 
L 3463 178 
Q 3153 47 2828 -22 
Q 2503 -91 2169 -91 
Q 1331 -91 842 396 
Q 353 884 353 1716 
Q 353 2575 817 3079 
Q 1281 3584 2069 3584 
Q 2775 3584 3186 3129 
Q 3597 2675 3597 1894 
z
M 3022 2063 
Q 3016 2534 2758 2815 
Q 2500 3097 2075 3097 
Q 1594 3097 1305 2825 
Q 1016 2553 972 2059 
L 3022 2063 
z
" transform="scale(0.015625)"/>
       <path id="DejaVuSans-6d" d="M 3328 2828 
Q 3544 3216 3844 3400 
Q 4144 3584 4550 3584 
Q 5097 3584 5394 3201 
Q 5691 2819 5691 2113 
L 5691 0 
L 5113 0 
L 5113 2094 
Q 5113 2597 4934 2840 
Q 4756 3084 4391 3084 
Q 3944 3084 3684 2787 
Q 3425 2491 3425 1978 
L 3425 0 
L 2847 0 
L 2847 2094 
Q 2847 2600 2669 2842 
Q 2491 3084 2119 3084 
Q 1678 3084 1418 2786 
Q 1159 2488 1159 1978 
L 1159 0 
L 581 0 
L 581 3500 
L 1159 3500 
L 1159 2956 
Q 1356 3278 1631 3431 
Q 1906 3584 2284 3584 
Q 2666 3584 2933 3390 
Q 3200 3197 3328 2828 
z
" transform="scale(0.015625)"/>
       <path id="DejaVuSans-70" d="M 1159 525 
L 1159 -1331 
L 581 -1331 
L 581 3500 
L 1159 3500 
L 1159 2969 
Q 1341 3281 1617 3432 
Q 1894 3584 2278 3584 
Q 2916 3584 3314 3078 
Q 3713 2572 3713 1747 
Q 3713 922 3314 415 
Q 2916 -91 2278 -91 
Q 1894 -91 1617 61 
Q 1341 213 1159 525 
z
M 3116 1747 
Q 3116 2381 2855 2742 
Q 2594 3103 2138 3103 
Q 1681 3103 1420 2742 
Q 1159 2381 1159 1747 
Q 1159 1113 1420 752 
Q 1681 391 2138 391 
Q 2594 391 2855 752 
Q 3116 1113 3116 1747 
z
" transform="scale(0.015625)"/>
       <path id="DejaVuSans-72" d="M 2631 2963 
Q 2534 3019 2420 3045 
Q 2306 3072 2169 3072 
Q 1681 3072 1420 2755 
Q 1159 2438 1159 1844 
L 1159 0 
L 581 0 
L 581 3500 
L 1159 3500 
L 1159 2956 
Q 1341 3275 1631 3429 
Q 1922 3584 2338 3584 
Q 2397 3584 2469 3576 
Q 2541 3569 2628 3553 
L 2631 2963 
z
" transform="scale(0.015625)"/>
       <path id="DejaVuSans-61" d="M 2194 1759 
Q 1497 1759 1228 1600 
Q 959 1441 959 1056 
Q 959 750 1161 570 
Q 1363 391 1709 391 
Q 2188 391 2477 730 
Q 2766 1069 2766 1631 
L 2766 1759 
L 2194 1759 
z
M 3341 1997 
L 3341 0 
L 2766 0 
L 2766 531 
Q 2569 213 2275 61 
Q 1981 -91 1556 -91 
Q 1019 -91 701 211 
Q 384 513 384 1019 
Q 384 1609 779 1909 
Q 1175 2209 1959 2209 
L 2766 2209 
L 2766 2266 
Q 2766 2663 2505 2880 
Q 2244 3097 1772 3097 
Q 1472 3097 1187 3025 
Q 903 2953 641 2809 
L 641 3341 
Q 956 3463 1253 3523 
Q 1550 3584 1831 3584 
Q 2591 3584 2966 3190 
Q 3341 2797 3341 1997 
z
" transform="scale(0.015625)"/>
       <path id="DejaVuSans-74" d="M 1172 4494 
L 1172 3500 
L 2356 3500 
L 2356 3053 
L 1172 3053 
L 1172 1153 
Q 1172 725 1289 603 
Q 1406 481 1766 481 
L 2356 481 
L 2356 0 
L 1766 0 
Q 1100 0 847 248 
Q 594 497 594 1153 
L 594 3053 
L 172 3053 
L 172 3500 
L 594 3500 
L 594 4494 
L 1172 4494 
z
" transform="scale(0.015625)"/>
       <path id="DejaVuSans-75" d="M 544 1381 
L 544 3500 
L 1119 3500 
L 1119 1403 
Q 1119 906 1312 657 
Q 1506 409 1894 409 
Q 2359 409 2629 706 
Q 2900 1003 2900 1516 
L 2900 3500 
L 3475 3500 
L 3475 0 
L 2900 0 
L 2900 538 
Q 2691 219 2414 64 
Q 2138 -91 1772 -91 
Q 1169 -91 856 284 
Q 544 659 544 1381 
z
M 1991 3584 
L 1991 3584 
z
" transform="scale(0.015625)"/>
       <path id="DejaVuSans-20" transform="scale(0.015625)"/>
       <path id="DejaVuSans-28" d="M 1984 4856 
Q 1566 4138 1362 3434 
Q 1159 2731 1159 2009 
Q 1159 1288 1364 580 
Q 1569 -128 1984 -844 
L 1484 -844 
Q 1016 -109 783 600 
Q 550 1309 550 2009 
Q 550 2706 781 3412 
Q 1013 4119 1484 4856 
L 1984 4856 
z
" transform="scale(0.015625)"/>
       <path id="DejaVuSans-4b" d="M 628 4666 
L 1259 4666 
L 1259 2694 
L 3353 4666 
L 4166 4666 
L 1850 2491 
L 4331 0 
L 3500 0 
L 1259 2247 
L 1259 0 
L 628 0 
L 628 4666 
z
" transform="scale(0.015625)"/>
       <path id="DejaVuSans-29" d="M 513 4856 
L 1013 4856 
Q 1481 4119 1714 3412 
Q 1947 2706 1947 2009 
Q 1947 1309 1714 600 
Q 1481 -109 1013 -844 
L 513 -844 
Q 928 -128 1133 580 
Q 1338 1288 1338 2009 
Q 1338 2731 1133 3434 
Q 928 4138 513 4856 
z
" transform="scale(0.015625)"/>
      </defs>
      <use xlink:href="#DejaVuSans-54"/>
      <use xlink:href="#DejaVuSans-65" x="44.083984"/>
      <use xlink:href="#DejaVuSans-6d" x="105.607422"/>
      <use xlink:href="#DejaVuSans-70" x="203.019531"/>
      <use xlink:href="#DejaVuSans-65" x="266.496094"/>
      <use xlink:href="#DejaVuSans-72" x="328.019531"/>
      <use xlink:href="#DejaVuSans-61" x="369.132812"/>
      <use xlink:href="#DejaVuSans-74" x="430.412109"/>
      <use xlink:href="#DejaVuSans-75" x="469.621094"/>
      <use xlink:href="#DejaVuSans-72" x="533"/>
      <use xlink:href="#DejaVuSans-65" x="571.863281"/>
      <use xlink:href="#DejaVuSans-20" x="633.386719"/>
      <use xlink:href="#DejaVuSans-28" x="665.173828"/>
      <use xlink:href="#DejaVuSans-4b" x="704.1875"/>
      <use xlink:href="#DejaVuSans-29" x="769.763672"/>
     </g>
    </g>
   </g>
   <g id="matplotlib.axis_2">
    <g id="ytick_1">
     <g id="line2d_6">
      <defs>
       <path id="mf33502f932" d="M 0 0 
L -3.5 0 
" style="stroke: #000000; stroke-width: 0.8"/>
      </defs>
      <g>
       <use xlink:href="#mf33502f932" x="57.6" y="283.416139" style="stroke: #000000; stroke-width: 0.8"/>
      </g>
     </g>
     <g id="text_7">
      <!-- $\mathdefault{10^{0}}$ -->
      <g transform="translate(33 287.215358)scale(0.1 -0.1)">
       <use xlink:href="#DejaVuSans-31" transform="translate(0 0.765625)"/>
       <use xlink:href="#DejaVuSans-30" transform="translate(63.623047 0.765625)"/>
       <use xlink:href="#DejaVuSans-30" transform="translate(128.203125 39.046875)scale(0.7)"/>
      </g>
     </g>
    </g>
    <g id="ytick_2">
     <g id="line2d_7">
      <g>
       <use xlink:href="#mf33502f932" x="57.6" y="247.200556" style="stroke: #000000; stroke-width: 0.8"/>
      </g>
     </g>
     <g id="text_8">
      <!-- $\mathdefault{10^{3}}$ -->
      <g transform="translate(33 250.999775)scale(0.1 -0.1)">
       <defs>
        <path id="DejaVuSans-33" d="M 2597 2516 
Q 3050 2419 3304 2112 
Q 3559 1806 3559 1356 
Q 3559 666 3084 287 
Q 2609 -91 1734 -91 
Q 1441 -91 1130 -33 
Q 819 25 488 141 
L 488 750 
Q 750 597 1062 519 
Q 1375 441 1716 441 
Q 2309 441 2620 675 
Q 2931 909 2931 1356 
Q 2931 1769 2642 2001 
Q 2353 2234 1838 2234 
L 1294 2234 
L 1294 2753 
L 1863 2753 
Q 2328 2753 2575 2939 
Q 2822 3125 2822 3475 
Q 2822 3834 2567 4026 
Q 2313 4219 1838 4219 
Q 1578 4219 1281 4162 
Q 984 4106 628 3988 
L 628 4550 
Q 988 4650 1302 4700 
Q 1616 4750 1894 4750 
Q 2613 4750 3031 4423 
Q 3450 4097 3450 3541 
Q 3450 3153 3228 2886 
Q 3006 2619 2597 2516 
z
" transform="scale(0.015625)"/>
       </defs>
       <use xlink:href="#DejaVuSans-31" transform="translate(0 0.765625)"/>
       <use xlink:href="#DejaVuSans-30" transform="translate(63.623047 0.765625)"/>
       <use xlink:href="#DejaVuSans-33" transform="translate(128.203125 39.046875)scale(0.7)"/>
      </g>
     </g>
    </g>
    <g id="ytick_3">
     <g id="line2d_8">
      <g>
       <use xlink:href="#mf33502f932" x="57.6" y="210.984973" style="stroke: #000000; stroke-width: 0.8"/>
      </g>
     </g>
     <g id="text_9">
      <!-- $\mathdefault{10^{6}}$ -->
      <g transform="translate(33 214.784192)scale(0.1 -0.1)">
       <use xlink:href="#DejaVuSans-31" transform="translate(0 0.765625)"/>
       <use xlink:href="#DejaVuSans-30" transform="translate(63.623047 0.765625)"/>
       <use xlink:href="#DejaVuSans-36" transform="translate(128.203125 39.046875)scale(0.7)"/>
      </g>
     </g>
    </g>
    <g id="ytick_4">
     <g id="line2d_9">
      <g>
       <use xlink:href="#mf33502f932" x="57.6" y="174.76939" style="stroke: #000000; stroke-width: 0.8"/>
      </g>
     </g>
     <g id="text_10">
      <!-- $\mathdefault{10^{9}}$ -->
      <g transform="translate(33 178.568609)scale(0.1 -0.1)">
       <defs>
        <path id="DejaVuSans-39" d="M 703 97 
L 703 672 
Q 941 559 1184 500 
Q 1428 441 1663 441 
Q 2288 441 2617 861 
Q 2947 1281 2994 2138 
Q 2813 1869 2534 1725 
Q 2256 1581 1919 1581 
Q 1219 1581 811 2004 
Q 403 2428 403 3163 
Q 403 3881 828 4315 
Q 1253 4750 1959 4750 
Q 2769 4750 3195 4129 
Q 3622 3509 3622 2328 
Q 3622 1225 3098 567 
Q 2575 -91 1691 -91 
Q 1453 -91 1209 -44 
Q 966 3 703 97 
z
M 1959 2075 
Q 2384 2075 2632 2365 
Q 2881 2656 2881 3163 
Q 2881 3666 2632 3958 
Q 2384 4250 1959 4250 
Q 1534 4250 1286 3958 
Q 1038 3666 1038 3163 
Q 1038 2656 1286 2365 
Q 1534 2075 1959 2075 
z
" transform="scale(0.015625)"/>
       </defs>
       <use xlink:href="#DejaVuSans-31" transform="translate(0 0.765625)"/>
       <use xlink:href="#DejaVuSans-30" transform="translate(63.623047 0.765625)"/>
       <use xlink:href="#DejaVuSans-39" transform="translate(128.203125 39.046875)scale(0.7)"/>
      </g>
     </g>
    </g>
    <g id="ytick_5">
     <g id="line2d_10">
      <g>
       <use xlink:href="#mf33502f932" x="57.6" y="138.553807" style="stroke: #000000; stroke-width: 0.8"/>
      </g>
     </g>
     <g id="text_11">
      <!-- $\mathdefault{10^{12}}$ -->
      <g transform="translate(28.5 142.353026)scale(0.1 -0.1)">
       <use xlink:href="#DejaVuSans-31" transform="translate(0 0.765625)"/>
       <use xlink:href="#DejaVuSans-30" transform="translate(63.623047 0.765625)"/>
       <use xlink:href="#DejaVuSans-31" transform="translate(128.203125 39.046875)scale(0.7)"/>
       <use xlink:href="#DejaVuSans-32" transform="translate(172.739258 39.046875)scale(0.7)"/>
      </g>
     </g>
    </g>
    <g id="ytick_6">
     <g id="line2d_11">
      <g>
       <use xlink:href="#mf33502f932" x="57.6" y="102.338224" style="stroke: #000000; stroke-width: 0.8"/>
      </g>
     </g>
     <g id="text_12">
      <!-- $\mathdefault{10^{15}}$ -->
      <g transform="translate(28.5 106.137443)scale(0.1 -0.1)">
       <defs>
        <path id="DejaVuSans-35" d="M 691 4666 
L 3169 4666 
L 3169 4134 
L 1269 4134 
L 1269 2991 
Q 1406 3038 1543 3061 
Q 1681 3084 1819 3084 
Q 2600 3084 3056 2656 
Q 3513 2228 3513 1497 
Q 3513 744 3044 326 
Q 2575 -91 1722 -91 
Q 1428 -91 1123 -41 
Q 819 9 494 109 
L 494 744 
Q 775 591 1075 516 
Q 1375 441 1709 441 
Q 2250 441 2565 725 
Q 2881 1009 2881 1497 
Q 2881 1984 2565 2268 
Q 2250 2553 1709 2553 
Q 1456 2553 1204 2497 
Q 953 2441 691 2322 
L 691 4666 
z
" transform="scale(0.015625)"/>
       </defs>
       <use xlink:href="#DejaVuSans-31" transform="translate(0 0.684375)"/>
       <use xlink:href="#DejaVuSans-30" transform="translate(63.623047 0.684375)"/>
       <use xlink:href="#DejaVuSans-31" transform="translate(128.203125 38.965625)scale(0.7)"/>
       <use xlink:href="#DejaVuSans-35" transform="translate(172.739258 38.965625)scale(0.7)"/>
      </g>
     </g>
    </g>
    <g id="ytick_7">
     <g id="line2d_12">
      <g>
       <use xlink:href="#mf33502f932" x="57.6" y="66.122641" style="stroke: #000000; stroke-width: 0.8"/>
      </g>
     </g>
     <g id="text_13">
      <!-- $\mathdefault{10^{18}}$ -->
      <g transform="translate(28.5 69.92186)scale(0.1 -0.1)">
       <use xlink:href="#DejaVuSans-31" transform="translate(0 0.765625)"/>
       <use xlink:href="#DejaVuSans-30" transform="translate(63.623047 0.765625)"/>
       <use xlink:href="#DejaVuSans-31" transform="translate(128.203125 39.046875)scale(0.7)"/>
       <use xlink:href="#DejaVuSans-38" transform="translate(172.739258 39.046875)scale(0.7)"/>
      </g>
     </g>
    </g>
    <g id="text_14">
     <!-- Pyrolysis number -->
     <g transform="translate(22.420312 217.554563)rotate(-90)scale(0.1 -0.1)">
      <defs>
       <path id="DejaVuSans-50" d="M 1259 4147 
L 1259 2394 
L 2053 2394 
Q 2494 2394 2734 2622 
Q 2975 2850 2975 3272 
Q 2975 3691 2734 3919 
Q 2494 4147 2053 4147 
L 1259 4147 
z
M 628 4666 
L 2053 4666 
Q 2838 4666 3239 4311 
Q 3641 3956 3641 3272 
Q 3641 2581 3239 2228 
Q 2838 1875 2053 1875 
L 1259 1875 
L 1259 0 
L 628 0 
L 628 4666 
z
" transform="scale(0.015625)"/>
       <path id="DejaVuSans-79" d="M 2059 -325 
Q 1816 -950 1584 -1140 
Q 1353 -1331 966 -1331 
L 506 -1331 
L 506 -850 
L 844 -850 
Q 1081 -850 1212 -737 
Q 1344 -625 1503 -206 
L 1606 56 
L 191 3500 
L 800 3500 
L 1894 763 
L 2988 3500 
L 3597 3500 
L 2059 -325 
z
" transform="scale(0.015625)"/>
       <path id="DejaVuSans-6f" d="M 1959 3097 
Q 1497 3097 1228 2736 
Q 959 2375 959 1747 
Q 959 1119 1226 758 
Q 1494 397 1959 397 
Q 2419 397 2687 759 
Q 2956 1122 2956 1747 
Q 2956 2369 2687 2733 
Q 2419 3097 1959 3097 
z
M 1959 3584 
Q 2709 3584 3137 3096 
Q 3566 2609 3566 1747 
Q 3566 888 3137 398 
Q 2709 -91 1959 -91 
Q 1206 -91 779 398 
Q 353 888 353 1747 
Q 353 2609 779 3096 
Q 1206 3584 1959 3584 
z
" transform="scale(0.015625)"/>
       <path id="DejaVuSans-6c" d="M 603 4863 
L 1178 4863 
L 1178 0 
L 603 0 
L 603 4863 
z
" transform="scale(0.015625)"/>
       <path id="DejaVuSans-73" d="M 2834 3397 
L 2834 2853 
Q 2591 2978 2328 3040 
Q 2066 3103 1784 3103 
Q 1356 3103 1142 2972 
Q 928 2841 928 2578 
Q 928 2378 1081 2264 
Q 1234 2150 1697 2047 
L 1894 2003 
Q 2506 1872 2764 1633 
Q 3022 1394 3022 966 
Q 3022 478 2636 193 
Q 2250 -91 1575 -91 
Q 1294 -91 989 -36 
Q 684 19 347 128 
L 347 722 
Q 666 556 975 473 
Q 1284 391 1588 391 
Q 1994 391 2212 530 
Q 2431 669 2431 922 
Q 2431 1156 2273 1281 
Q 2116 1406 1581 1522 
L 1381 1569 
Q 847 1681 609 1914 
Q 372 2147 372 2553 
Q 372 3047 722 3315 
Q 1072 3584 1716 3584 
Q 2034 3584 2315 3537 
Q 2597 3491 2834 3397 
z
" transform="scale(0.015625)"/>
       <path id="DejaVuSans-69" d="M 603 3500 
L 1178 3500 
L 1178 0 
L 603 0 
L 603 3500 
z
M 603 4863 
L 1178 4863 
L 1178 4134 
L 603 4134 
L 603 4863 
z
" transform="scale(0.015625)"/>
       <path id="DejaVuSans-6e" d="M 3513 2113 
L 3513 0 
L 2938 0 
L 2938 2094 
Q 2938 2591 2744 2837 
Q 2550 3084 2163 3084 
Q 1697 3084 1428 2787 
Q 1159 2491 1159 1978 
L 1159 0 
L 581 0 
L 581 3500 
L 1159 3500 
L 1159 2956 
Q 1366 3272 1645 3428 
Q 1925 3584 2291 3584 
Q 2894 3584 3203 3211 
Q 3513 2838 3513 2113 
z
" transform="scale(0.015625)"/>
       <path id="DejaVuSans-62" d="M 3116 1747 
Q 3116 2381 2855 2742 
Q 2594 3103 2138 3103 
Q 1681 3103 1420 2742 
Q 1159 2381 1159 1747 
Q 1159 1113 1420 752 
Q 1681 391 2138 391 
Q 2594 391 2855 752 
Q 3116 1113 3116 1747 
z
M 1159 2969 
Q 1341 3281 1617 3432 
Q 1894 3584 2278 3584 
Q 2916 3584 3314 3078 
Q 3713 2572 3713 1747 
Q 3713 922 3314 415 
Q 2916 -91 2278 -91 
Q 1894 -91 1617 61 
Q 1341 213 1159 525 
L 1159 0 
L 581 0 
L 581 4863 
L 1159 4863 
L 1159 2969 
z
" transform="scale(0.015625)"/>
      </defs>
      <use xlink:href="#DejaVuSans-50"/>
      <use xlink:href="#DejaVuSans-79" x="60.302734"/>
      <use xlink:href="#DejaVuSans-72" x="119.482422"/>
      <use xlink:href="#DejaVuSans-6f" x="158.345703"/>
      <use xlink:href="#DejaVuSans-6c" x="219.527344"/>
      <use xlink:href="#DejaVuSans-79" x="247.310547"/>
      <use xlink:href="#DejaVuSans-73" x="306.490234"/>
      <use xlink:href="#DejaVuSans-69" x="358.589844"/>
      <use xlink:href="#DejaVuSans-73" x="386.373047"/>
      <use xlink:href="#DejaVuSans-20" x="438.472656"/>
      <use xlink:href="#DejaVuSans-6e" x="470.259766"/>
      <use xlink:href="#DejaVuSans-75" x="533.638672"/>
      <use xlink:href="#DejaVuSans-6d" x="597.017578"/>
      <use xlink:href="#DejaVuSans-62" x="694.429688"/>
      <use xlink:href="#DejaVuSans-65" x="757.90625"/>
      <use xlink:href="#DejaVuSans-72" x="819.429688"/>
     </g>
    </g>
   </g>
   <g id="line2d_13">
    <path d="M 57.6 138.556626 
L 61.368295 146.061541 
L 65.222108 153.243355 
L 69.161439 160.118234 
L 73.217118 166.750162 
L 77.395018 173.154245 
L 81.677155 179.310145 
L 86.081513 185.252752 
L 90.651034 191.04153 
L 95.342776 196.625275 
L 100.193809 202.052414 
L 105.185414 207.304021 
L 110.323831 212.384868 
L 115.223679 216.934183 
L 120.093064 221.159608 
L 124.234261 224.492708 
L 128.186071 227.402626 
L 129.39103 228.225772 
L 131.122309 229.351055 
L 131.697078 229.706021 
L 134.69461 231.41061 
L 137.422743 232.712646 
L 137.630849 232.797506 
L 140.181706 233.748479 
L 142.812209 234.484145 
L 145.870668 235.094992 
L 151.009085 235.860086 
L 153.841454 236.096128 
L 156.086209 236.057461 
L 161.977037 235.764349 
L 163.219066 236.042468 
L 164.24051 236.425875 
L 165.647335 237.154999 
L 167.543778 238.381123 
L 174.945668 243.277514 
L 177.373937 244.466272 
L 179.386729 245.127848 
L 179.63741 245.179805 
L 181.246102 245.348428 
L 182.573649 245.209289 
L 183.919547 244.760184 
L 185.265078 243.975312 
L 186.812843 242.688222 
L 191.847391 238.03194 
L 191.987963 237.943552 
L 192.134775 237.824119 
L 196.820644 234.338724 
L 196.967456 234.200779 
L 200.044267 231.763828 
L 200.18484 231.684207 
L 200.331652 231.574959 
L 201.634607 230.86992 
L 201.799771 230.799863 
L 202.980506 230.427928 
L 203.206963 230.381108 
L 204.509919 230.236301 
L 204.797303 230.227231 
L 207.079127 230.285812 
L 207.403215 230.304636 
L 207.550027 230.302394 
L 209.911129 230.269791 
L 210.057941 230.24927 
L 211.874739 229.976996 
L 213.587667 229.497047 
L 215.294356 228.798208 
L 215.441168 228.7128 
L 217.129505 227.755118 
L 217.276317 227.64353 
L 218.909599 226.420299 
L 220.554994 224.922469 
L 220.701806 224.754629 
L 222.512731 222.756001 
L 222.659543 222.55956 
L 225.876926 218.526315 
L 226.023738 218.323624 
L 228.427783 215.50345 
L 228.53202 215.388957 
L 231.486609 212.29353 
L 231.627182 212.167863 
L 231.792345 211.985199 
L 231.932918 211.860522 
L 232.098081 211.679225 
L 232.239021 211.555633 
L 232.385833 211.394046 
L 234.728584 209.228022 
L 234.869156 209.126566 
L 235.015968 208.993033 
L 236.441512 207.989939 
L 236.606675 207.894238 
L 237.726116 207.378044 
L 237.933855 207.30892 
L 239.01072 207.088811 
L 239.334808 207.073357 
L 239.48162 207.063192 
L 240.601061 207.157478 
L 241.231251 207.296814 
L 241.420638 207.344201 
L 242.968403 207.891807 
L 245.250227 208.961843 
L 255.184256 214.14492 
L 262.726718 217.855825 
L 269.596415 220.99309 
L 272.979329 222.436301 
L 274.410745 223.022386 
L 279.708086 225.050403 
L 280.301574 225.260264 
L 281.971559 225.835617 
L 282.503752 226.010738 
L 283.928929 226.468408 
L 284.363125 226.600815 
L 288.480099 227.740952 
L 292.125806 228.524309 
L 292.352263 228.561548 
L 293.04338 228.681296 
L 293.269838 228.714077 
L 293.900028 228.812099 
L 294.107767 228.83801 
L 297.264223 229.167149 
L 297.453977 229.174758 
L 300.44527 229.24882 
L 300.610434 229.240558 
L 300.995815 229.236568 
L 301.160978 229.225752 
L 301.54636 229.216462 
L 301.711523 229.203129 
L 302.060201 229.184778 
L 305.057734 228.903813 
L 308.58122 228.348232 
L 308.728032 228.313356 
L 321.428364 225.847942 
L 321.556825 225.801836 
L 323.575489 225.106516 
L 325.340902 224.276474 
L 325.506065 224.171537 
L 325.652877 224.087467 
L 327.264138 223.026414 
L 328.790982 221.751627 
L 330.303145 220.198393 
L 331.789616 218.349053 
L 333.32013 216.079782 
L 334.891017 213.33767 
L 336.682123 209.74453 
L 339.699108 203.616705 
L 339.779854 203.511083 
L 339.908315 203.279539 
L 340.737802 202.162201 
L 340.844241 202.050913 
L 341.578301 201.449948 
L 342.268317 201.158087 
L 342.536248 201.10526 
L 343.351054 201.102717 
L 344.452144 201.341331 
L 346.489159 202.054328 
L 348.647295 202.865109 
L 349.20518 203.067959 
L 353.855447 204.642645 
L 357.892775 205.779224 
L 361.379558 206.535224 
L 364.455268 206.982 
L 367.244695 207.17082 
L 367.43555 207.169788 
L 369.942364 207.100592 
L 372.261992 206.822601 
L 372.390453 206.792752 
L 374.522896 206.304377 
L 374.688059 206.247651 
L 374.915618 206.179013 
L 376.91593 205.442878 
L 378.831826 204.498377 
L 380.648623 203.355018 
L 382.421377 201.975521 
L 384.190461 200.326319 
L 384.318921 200.17561 
L 386.02561 198.251218 
L 386.15407 198.071591 
L 387.860759 195.776598 
L 387.989219 195.564302 
L 389.695908 192.850547 
L 389.824368 192.601351 
L 391.494354 189.459622 
L 393.182691 185.832844 
L 393.311151 185.499976 
L 395.01784 181.241802 
L 395.146301 180.856594 
L 396.852989 175.928686 
L 396.98145 175.484551 
L 398.688138 169.802536 
L 398.816599 169.292011 
L 400.523287 162.761473 
L 400.651748 162.176313 
L 402.362106 154.600939 
L 404.13119 145.793453 
L 404.296354 144.834919 
L 404.340397 144.602851 
L 406.087459 134.566803 
L 406.252622 133.465671 
L 406.296666 133.198979 
L 408.051068 121.54194 
L 409.845844 108.07743 
L 411.618598 93.013578 
L 413.391352 76.019792 
L 414.72 61.487884 
L 414.72 61.487884 
" clip-path="url(#p7acca3df86)" style="fill: none; stroke: #1f77b4; stroke-width: 1.5; stroke-linecap: square"/>
   </g>
   <g id="line2d_14">
    <path d="M 57.6 125.627068 
L 61.392519 133.266707 
L 65.246332 140.533251 
L 69.198142 147.514634 
L 73.260061 154.242082 
L 77.456312 160.760405 
L 81.799376 167.088712 
L 86.265028 173.194734 
L 90.938418 179.192867 
L 95.624288 184.843758 
L 100.726002 190.624237 
L 105.717607 195.93967 
L 111.388218 201.601268 
L 116.526635 206.395377 
L 121.273432 210.525096 
L 128.375458 216.051729 
L 131.795075 218.346738 
L 132.247623 218.626241 
L 135.183861 220.301656 
L 137.875658 221.585597 
L 140.426515 222.557716 
L 143.050778 223.320996 
L 143.19759 223.35169 
L 146.421213 224.020529 
L 151.498336 224.836262 
L 154.14719 225.066777 
L 156.447366 225.039949 
L 156.594178 225.022383 
L 161.444844 224.787593 
L 161.830225 224.838568 
L 161.977037 224.855026 
L 163.219066 225.153161 
L 164.277213 225.571495 
L 164.687185 225.768557 
L 167.403206 227.462297 
L 175.373625 232.813655 
L 177.698392 233.933954 
L 179.533541 234.524158 
L 181.062587 234.736565 
L 182.390134 234.655894 
L 183.736032 234.271614 
L 185.081563 233.552986 
L 186.604737 232.3714 
L 186.751549 232.221487 
L 191.969612 227.496585 
L 192.116423 227.393221 
L 196.967456 223.827738 
L 199.982973 221.476038 
L 200.123913 221.397446 
L 200.270725 221.289063 
L 201.57368 220.590578 
L 201.738844 220.521233 
L 202.919212 220.154722 
L 203.145669 220.109148 
L 204.448625 219.97382 
L 204.736009 219.967434 
L 206.95654 220.051252 
L 207.280994 220.075259 
L 207.427806 220.075515 
L 209.850203 220.085603 
L 209.997014 220.067735 
L 211.813812 219.828616 
L 213.526373 219.380611 
L 215.233062 218.713999 
L 215.379874 218.631456 
L 217.068211 217.706326 
L 217.215023 217.597677 
L 218.848305 216.40698 
L 220.494067 214.942407 
L 220.640879 214.777574 
L 222.414734 212.836979 
L 225.087812 209.523676 
L 227.816311 206.245925 
L 227.920181 206.129362 
L 230.507741 203.386756 
L 230.648313 203.260278 
L 230.813477 203.076186 
L 230.954416 202.950526 
L 231.101228 202.785972 
L 234.116745 199.896916 
L 234.257685 199.789552 
L 234.404496 199.648144 
L 235.951894 198.46531 
L 236.098706 198.370035 
L 237.297792 197.729819 
L 237.499659 197.658617 
L 237.646471 197.593841 
L 238.704618 197.328925 
L 238.974018 197.296931 
L 240.050516 197.303756 
L 240.521415 197.36865 
L 241.824371 197.707024 
L 243.310842 198.299558 
L 243.782108 198.515427 
L 259.973995 207.001212 
L 267.051798 210.417456 
L 273.370583 213.229972 
L 278.974027 215.483152 
L 279.653032 215.736198 
L 284.302198 217.343071 
L 288.418805 218.534461 
L 292.070751 219.361749 
L 295.331444 219.878741 
L 298.371552 220.141818 
L 301.362845 220.179332 
L 301.528008 220.168687 
L 301.876687 220.155853 
L 304.855867 219.923426 
L 308.336411 219.425606 
L 308.483223 219.392719 
L 321.024631 217.11868 
L 323.164415 216.461004 
L 324.981213 215.668946 
L 326.632847 214.703399 
L 328.181713 213.541256 
L 329.686535 212.151715 
L 329.814995 211.998915 
L 331.301466 210.273922 
L 332.806288 208.204345 
L 332.934749 207.983986 
L 334.461593 205.437266 
L 336.175622 202.13367 
L 340.047786 194.432943 
L 340.862592 193.409597 
L 340.965361 193.307058 
L 341.655377 192.789406 
L 341.82054 192.706001 
L 342.514227 192.503336 
L 342.837213 192.483639 
L 343.002376 192.478203 
L 343.508877 192.532343 
L 343.718084 192.566307 
L 345.02104 192.941863 
L 347.24157 193.781755 
L 347.817807 194.002939 
L 352.893829 195.837486 
L 357.052277 197.104811 
L 360.645499 197.972344 
L 363.823977 198.516973 
L 366.657447 198.78181 
L 369.263359 198.807897 
L 369.454214 198.794297 
L 371.795864 198.575953 
L 373.972351 198.159793 
L 374.137514 198.109873 
L 374.401776 198.048596 
L 374.566939 197.994616 
L 374.794498 197.92968 
L 376.78747 197.239704 
L 376.952633 197.160865 
L 377.154499 197.084641 
L 377.319663 197.001594 
L 377.521529 196.9208 
L 377.686693 196.833447 
L 377.888559 196.747977 
L 378.053723 196.656211 
L 378.255589 196.565946 
L 378.420752 196.469647 
L 378.585916 196.382576 
L 380.421065 195.278315 
L 382.193819 193.950502 
L 383.951891 192.352109 
L 385.65858 190.512541 
L 385.78704 190.340169 
L 387.493729 188.138898 
L 387.62219 187.934658 
L 389.292175 185.360587 
L 390.980512 182.368154 
L 391.108973 182.091538 
L 392.815661 178.554062 
L 392.944122 178.232102 
L 394.65081 174.114261 
L 394.779271 173.741211 
L 396.485959 168.969354 
L 396.61442 168.538736 
L 398.321108 163.030365 
L 398.449569 162.534918 
L 400.156257 156.197703 
L 400.284718 155.629347 
L 401.995077 148.271627 
L 403.76416 139.711402 
L 403.929324 138.779177 
L 403.973367 138.553543 
L 405.720429 128.792306 
L 405.885593 127.720754 
L 405.929636 127.46127 
L 407.684039 116.116173 
L 409.478814 103.005513 
L 411.251568 88.330983 
L 413.024322 71.769794 
L 414.72 53.988755 
L 414.72 53.568 
L 414.72 53.568 
" clip-path="url(#p7acca3df86)" style="fill: none; stroke-dasharray: 5.55,2.4; stroke-dashoffset: 0; stroke: #ff7f0e; stroke-width: 1.5"/>
   </g>
   <g id="line2d_15">
    <path d="M 57.6 270.486582 
L 109.614363 271.585761 
L 170.437074 272.641658 
L 243.108975 273.673932 
L 330.706878 274.688636 
L 414.72 275.496255 
L 414.72 275.496255 
" clip-path="url(#p7acca3df86)" style="fill: none; stroke: #ff0000; stroke-width: 1.5; stroke-linecap: square"/>
   </g>
   <g id="line2d_16">
    <path d="M -1 295.488 
L 461.8 295.488 
" clip-path="url(#p7acca3df86)" style="fill: none; stroke-dasharray: 5.55,2.4; stroke-dashoffset: 0; stroke: #2ca02c; stroke-width: 1.5"/>
   </g>
   <g id="line2d_17">
    <path d="M -1 271.344278 
L 461.8 271.344278 
" clip-path="url(#p7acca3df86)" style="fill: none; stroke-dasharray: 5.55,2.4; stroke-dashoffset: 0; stroke: #d62728; stroke-width: 1.5"/>
   </g>
   <g id="patch_3">
    <path d="M 57.6 307.584 
L 57.6 41.472 
" style="fill: none; stroke: #000000; stroke-width: 0.8; stroke-linejoin: miter; stroke-linecap: square"/>
   </g>
   <g id="patch_4">
    <path d="M 414.72 307.584 
L 414.72 41.472 
" style="fill: none; stroke: #000000; stroke-width: 0.8; stroke-linejoin: miter; stroke-linecap: square"/>
   </g>
   <g id="patch_5">
    <path d="M 57.6 307.584 
L 414.72 307.584 
" style="fill: none; stroke: #000000; stroke-width: 0.8; stroke-linejoin: miter; stroke-linecap: square"/>
   </g>
   <g id="patch_6">
    <path d="M 57.6 41.472 
L 414.72 41.472 
" style="fill: none; stroke: #000000; stroke-width: 0.8; stroke-linejoin: miter; stroke-linecap: square"/>
   </g>
   <g id="legend_1">
    <g id="patch_7">
     <path d="M 306.121563 93.506375 
L 407.72 93.506375 
Q 409.72 93.506375 409.72 91.506375 
L 409.72 48.472 
Q 409.72 46.472 407.72 46.472 
L 306.121563 46.472 
Q 304.121563 46.472 304.121563 48.472 
L 304.121563 91.506375 
Q 304.121563 93.506375 306.121563 93.506375 
z
" style="fill: #ffffff; opacity: 0.8; stroke: #cccccc; stroke-linejoin: miter"/>
    </g>
    <g id="line2d_18">
     <path d="M 308.121563 54.570438 
L 318.121563 54.570438 
L 328.121563 54.570438 
" style="fill: none; stroke: #1f77b4; stroke-width: 1.5; stroke-linecap: square"/>
    </g>
    <g id="text_15">
     <!-- Py2 0.177mm -->
     <g transform="translate(336.121563 58.070438)scale(0.1 -0.1)">
      <defs>
       <path id="DejaVuSans-2e" d="M 684 794 
L 1344 794 
L 1344 0 
L 684 0 
L 684 794 
z
" transform="scale(0.015625)"/>
       <path id="DejaVuSans-37" d="M 525 4666 
L 3525 4666 
L 3525 4397 
L 1831 0 
L 1172 0 
L 2766 4134 
L 525 4134 
L 525 4666 
z
" transform="scale(0.015625)"/>
      </defs>
      <use xlink:href="#DejaVuSans-50"/>
      <use xlink:href="#DejaVuSans-79" x="60.302734"/>
      <use xlink:href="#DejaVuSans-32" x="119.482422"/>
      <use xlink:href="#DejaVuSans-20" x="183.105469"/>
      <use xlink:href="#DejaVuSans-30" x="214.892578"/>
      <use xlink:href="#DejaVuSans-2e" x="278.515625"/>
      <use xlink:href="#DejaVuSans-31" x="310.302734"/>
      <use xlink:href="#DejaVuSans-37" x="373.925781"/>
      <use xlink:href="#DejaVuSans-37" x="437.548828"/>
      <use xlink:href="#DejaVuSans-6d" x="501.171875"/>
      <use xlink:href="#DejaVuSans-6d" x="598.583984"/>
     </g>
    </g>
    <g id="line2d_19">
     <path d="M 308.121563 69.248563 
L 318.121563 69.248563 
L 328.121563 69.248563 
" style="fill: none; stroke-dasharray: 5.55,2.4; stroke-dashoffset: 0; stroke: #ff7f0e; stroke-width: 1.5"/>
    </g>
    <g id="text_16">
     <!-- Py1 0.177mm -->
     <g transform="translate(336.121563 72.748563)scale(0.1 -0.1)">
      <use xlink:href="#DejaVuSans-50"/>
      <use xlink:href="#DejaVuSans-79" x="60.302734"/>
      <use xlink:href="#DejaVuSans-31" x="119.482422"/>
      <use xlink:href="#DejaVuSans-20" x="183.105469"/>
      <use xlink:href="#DejaVuSans-30" x="214.892578"/>
      <use xlink:href="#DejaVuSans-2e" x="278.515625"/>
      <use xlink:href="#DejaVuSans-31" x="310.302734"/>
      <use xlink:href="#DejaVuSans-37" x="373.925781"/>
      <use xlink:href="#DejaVuSans-37" x="437.548828"/>
      <use xlink:href="#DejaVuSans-6d" x="501.171875"/>
      <use xlink:href="#DejaVuSans-6d" x="598.583984"/>
     </g>
    </g>
    <g id="line2d_20">
     <path d="M 308.121563 83.926688 
L 318.121563 83.926688 
L 328.121563 83.926688 
" style="fill: none; stroke: #ff0000; stroke-width: 1.5; stroke-linecap: square"/>
    </g>
    <g id="text_17">
     <!-- Bi -->
     <g transform="translate(336.121563 87.426688)scale(0.1 -0.1)">
      <defs>
       <path id="DejaVuSans-42" d="M 1259 2228 
L 1259 519 
L 2272 519 
Q 2781 519 3026 730 
Q 3272 941 3272 1375 
Q 3272 1813 3026 2020 
Q 2781 2228 2272 2228 
L 1259 2228 
z
M 1259 4147 
L 1259 2741 
L 2194 2741 
Q 2656 2741 2882 2914 
Q 3109 3088 3109 3444 
Q 3109 3797 2882 3972 
Q 2656 4147 2194 4147 
L 1259 4147 
z
M 628 4666 
L 2241 4666 
Q 2963 4666 3353 4366 
Q 3744 4066 3744 3513 
Q 3744 3084 3544 2831 
Q 3344 2578 2956 2516 
Q 3422 2416 3680 2098 
Q 3938 1781 3938 1306 
Q 3938 681 3513 340 
Q 3088 0 2303 0 
L 628 0 
L 628 4666 
z
" transform="scale(0.015625)"/>
      </defs>
      <use xlink:href="#DejaVuSans-42"/>
      <use xlink:href="#DejaVuSans-69" x="68.603516"/>
     </g>
    </g>
   </g>
  </g>
 </g>
 <defs>
  <clipPath id="p7acca3df86">
   <rect x="57.6" y="41.472" width="357.12" height="266.112"/>
  </clipPath>
 </defs>
</svg>
