<?xml version="1.0" encoding="utf-8" standalone="no"?>
<!DOCTYPE svg PUBLIC "-//W3C//DTD SVG 1.1//EN"
  "http://www.w3.org/Graphics/SVG/1.1/DTD/svg11.dtd">
<svg xmlns:xlink="http://www.w3.org/1999/xlink" width="460.8pt" height="345.6pt" viewBox="0 0 460.8 345.6" xmlns="http://www.w3.org/2000/svg" version="1.1">
 <metadata>
  <rdf:RDF xmlns:dc="http://purl.org/dc/elements/1.1/" xmlns:cc="http://creativecommons.org/ns#" xmlns:rdf="http://www.w3.org/1999/02/22-rdf-syntax-ns#">
   <cc:Work>
    <dc:type rdf:resource="http://purl.org/dc/dcmitype/StillImage"/>
    <dc:date>2022-04-26T12:06:55.361191</dc:date>
    <dc:format>image/svg+xml</dc:format>
    <dc:creator>
     <cc:Agent>
      <dc:title>Matplotlib v3.5.1, https://matplotlib.org/</dc:title>
     </cc:Agent>
    </dc:creator>
   </cc:Work>
  </rdf:RDF>
 </metadata>
 <defs>
  <style type="text/css">*{stroke-linejoin: round; stroke-linecap: butt}</style>
 </defs>
 <g id="figure_1">
  <g id="patch_1">
   <path d="M 0 345.6 
L 460.8 345.6 
L 460.8 0 
L 0 0 
z
" style="fill: #ffffff"/>
  </g>
  <g id="axes_1">
   <g id="patch_2">
    <path d="M 57.6 307.584 
L 414.72 307.584 
L 414.72 41.472 
L 57.6 41.472 
z
" style="fill: #ffffff"/>
   </g>
   <g id="matplotlib.axis_1">
    <g id="xtick_1">
     <g id="line2d_1">
      <defs>
       <path id="m203240c864" d="M 0 0 
L 0 3.5 
" style="stroke: #000000; stroke-width: 0.8"/>
      </defs>
      <g>
       <use xlink:href="#m203240c864" x="94.30298" y="307.584" style="stroke: #000000; stroke-width: 0.8"/>
      </g>
     </g>
     <g id="text_1">
      <!-- 400 -->
      <g transform="translate(84.75923 322.182437)scale(0.1 -0.1)">
       <defs>
        <path id="DejaVuSans-34" d="M 2419 4116 
L 825 1625 
L 2419 1625 
L 2419 4116 
z
M 2253 4666 
L 3047 4666 
L 3047 1625 
L 3713 1625 
L 3713 1100 
L 3047 1100 
L 3047 0 
L 2419 0 
L 2419 1100 
L 313 1100 
L 313 1709 
L 2253 4666 
z
" transform="scale(0.015625)"/>
        <path id="DejaVuSans-30" d="M 2034 4250 
Q 1547 4250 1301 3770 
Q 1056 3291 1056 2328 
Q 1056 1369 1301 889 
Q 1547 409 2034 409 
Q 2525 409 2770 889 
Q 3016 1369 3016 2328 
Q 3016 3291 2770 3770 
Q 2525 4250 2034 4250 
z
M 2034 4750 
Q 2819 4750 3233 4129 
Q 3647 3509 3647 2328 
Q 3647 1150 3233 529 
Q 2819 -91 2034 -91 
Q 1250 -91 836 529 
Q 422 1150 422 2328 
Q 422 3509 836 4129 
Q 1250 4750 2034 4750 
z
" transform="scale(0.015625)"/>
       </defs>
       <use xlink:href="#DejaVuSans-34"/>
       <use xlink:href="#DejaVuSans-30" x="63.623047"/>
       <use xlink:href="#DejaVuSans-30" x="127.246094"/>
      </g>
     </g>
    </g>
    <g id="xtick_2">
     <g id="line2d_2">
      <g>
       <use xlink:href="#m203240c864" x="167.708941" y="307.584" style="stroke: #000000; stroke-width: 0.8"/>
      </g>
     </g>
     <g id="text_2">
      <!-- 600 -->
      <g transform="translate(158.165191 322.182437)scale(0.1 -0.1)">
       <defs>
        <path id="DejaVuSans-36" d="M 2113 2584 
Q 1688 2584 1439 2293 
Q 1191 2003 1191 1497 
Q 1191 994 1439 701 
Q 1688 409 2113 409 
Q 2538 409 2786 701 
Q 3034 994 3034 1497 
Q 3034 2003 2786 2293 
Q 2538 2584 2113 2584 
z
M 3366 4563 
L 3366 3988 
Q 3128 4100 2886 4159 
Q 2644 4219 2406 4219 
Q 1781 4219 1451 3797 
Q 1122 3375 1075 2522 
Q 1259 2794 1537 2939 
Q 1816 3084 2150 3084 
Q 2853 3084 3261 2657 
Q 3669 2231 3669 1497 
Q 3669 778 3244 343 
Q 2819 -91 2113 -91 
Q 1303 -91 875 529 
Q 447 1150 447 2328 
Q 447 3434 972 4092 
Q 1497 4750 2381 4750 
Q 2619 4750 2861 4703 
Q 3103 4656 3366 4563 
z
" transform="scale(0.015625)"/>
       </defs>
       <use xlink:href="#DejaVuSans-36"/>
       <use xlink:href="#DejaVuSans-30" x="63.623047"/>
       <use xlink:href="#DejaVuSans-30" x="127.246094"/>
      </g>
     </g>
    </g>
    <g id="xtick_3">
     <g id="line2d_3">
      <g>
       <use xlink:href="#m203240c864" x="241.114902" y="307.584" style="stroke: #000000; stroke-width: 0.8"/>
      </g>
     </g>
     <g id="text_3">
      <!-- 800 -->
      <g transform="translate(231.571152 322.182437)scale(0.1 -0.1)">
       <defs>
        <path id="DejaVuSans-38" d="M 2034 2216 
Q 1584 2216 1326 1975 
Q 1069 1734 1069 1313 
Q 1069 891 1326 650 
Q 1584 409 2034 409 
Q 2484 409 2743 651 
Q 3003 894 3003 1313 
Q 3003 1734 2745 1975 
Q 2488 2216 2034 2216 
z
M 1403 2484 
Q 997 2584 770 2862 
Q 544 3141 544 3541 
Q 544 4100 942 4425 
Q 1341 4750 2034 4750 
Q 2731 4750 3128 4425 
Q 3525 4100 3525 3541 
Q 3525 3141 3298 2862 
Q 3072 2584 2669 2484 
Q 3125 2378 3379 2068 
Q 3634 1759 3634 1313 
Q 3634 634 3220 271 
Q 2806 -91 2034 -91 
Q 1263 -91 848 271 
Q 434 634 434 1313 
Q 434 1759 690 2068 
Q 947 2378 1403 2484 
z
M 1172 3481 
Q 1172 3119 1398 2916 
Q 1625 2713 2034 2713 
Q 2441 2713 2670 2916 
Q 2900 3119 2900 3481 
Q 2900 3844 2670 4047 
Q 2441 4250 2034 4250 
Q 1625 4250 1398 4047 
Q 1172 3844 1172 3481 
z
" transform="scale(0.015625)"/>
       </defs>
       <use xlink:href="#DejaVuSans-38"/>
       <use xlink:href="#DejaVuSans-30" x="63.623047"/>
       <use xlink:href="#DejaVuSans-30" x="127.246094"/>
      </g>
     </g>
    </g>
    <g id="xtick_4">
     <g id="line2d_4">
      <g>
       <use xlink:href="#m203240c864" x="314.520863" y="307.584" style="stroke: #000000; stroke-width: 0.8"/>
      </g>
     </g>
     <g id="text_4">
      <!-- 1000 -->
      <g transform="translate(301.795863 322.182437)scale(0.1 -0.1)">
       <defs>
        <path id="DejaVuSans-31" d="M 794 531 
L 1825 531 
L 1825 4091 
L 703 3866 
L 703 4441 
L 1819 4666 
L 2450 4666 
L 2450 531 
L 3481 531 
L 3481 0 
L 794 0 
L 794 531 
z
" transform="scale(0.015625)"/>
       </defs>
       <use xlink:href="#DejaVuSans-31"/>
       <use xlink:href="#DejaVuSans-30" x="63.623047"/>
       <use xlink:href="#DejaVuSans-30" x="127.246094"/>
       <use xlink:href="#DejaVuSans-30" x="190.869141"/>
      </g>
     </g>
    </g>
    <g id="xtick_5">
     <g id="line2d_5">
      <g>
       <use xlink:href="#m203240c864" x="387.926824" y="307.584" style="stroke: #000000; stroke-width: 0.8"/>
      </g>
     </g>
     <g id="text_5">
      <!-- 1200 -->
      <g transform="translate(375.201824 322.182437)scale(0.1 -0.1)">
       <defs>
        <path id="DejaVuSans-32" d="M 1228 531 
L 3431 531 
L 3431 0 
L 469 0 
L 469 531 
Q 828 903 1448 1529 
Q 2069 2156 2228 2338 
Q 2531 2678 2651 2914 
Q 2772 3150 2772 3378 
Q 2772 3750 2511 3984 
Q 2250 4219 1831 4219 
Q 1534 4219 1204 4116 
Q 875 4013 500 3803 
L 500 4441 
Q 881 4594 1212 4672 
Q 1544 4750 1819 4750 
Q 2544 4750 2975 4387 
Q 3406 4025 3406 3419 
Q 3406 3131 3298 2873 
Q 3191 2616 2906 2266 
Q 2828 2175 2409 1742 
Q 1991 1309 1228 531 
z
" transform="scale(0.015625)"/>
       </defs>
       <use xlink:href="#DejaVuSans-31"/>
       <use xlink:href="#DejaVuSans-32" x="63.623047"/>
       <use xlink:href="#DejaVuSans-30" x="127.246094"/>
       <use xlink:href="#DejaVuSans-30" x="190.869141"/>
      </g>
     </g>
    </g>
    <g id="text_6">
     <!-- Temperature (K) -->
     <g transform="translate(195.720937 335.860562)scale(0.1 -0.1)">
      <defs>
       <path id="DejaVuSans-54" d="M -19 4666 
L 3928 4666 
L 3928 4134 
L 2272 4134 
L 2272 0 
L 1638 0 
L 1638 4134 
L -19 4134 
L -19 4666 
z
" transform="scale(0.015625)"/>
       <path id="DejaVuSans-65" d="M 3597 1894 
L 3597 1613 
L 953 1613 
Q 991 1019 1311 708 
Q 1631 397 2203 397 
Q 2534 397 2845 478 
Q 3156 559 3463 722 
L 3463 178 
Q 3153 47 2828 -22 
Q 2503 -91 2169 -91 
Q 1331 -91 842 396 
Q 353 884 353 1716 
Q 353 2575 817 3079 
Q 1281 3584 2069 3584 
Q 2775 3584 3186 3129 
Q 3597 2675 3597 1894 
z
M 3022 2063 
Q 3016 2534 2758 2815 
Q 2500 3097 2075 3097 
Q 1594 3097 1305 2825 
Q 1016 2553 972 2059 
L 3022 2063 
z
" transform="scale(0.015625)"/>
       <path id="DejaVuSans-6d" d="M 3328 2828 
Q 3544 3216 3844 3400 
Q 4144 3584 4550 3584 
Q 5097 3584 5394 3201 
Q 5691 2819 5691 2113 
L 5691 0 
L 5113 0 
L 5113 2094 
Q 5113 2597 4934 2840 
Q 4756 3084 4391 3084 
Q 3944 3084 3684 2787 
Q 3425 2491 3425 1978 
L 3425 0 
L 2847 0 
L 2847 2094 
Q 2847 2600 2669 2842 
Q 2491 3084 2119 3084 
Q 1678 3084 1418 2786 
Q 1159 2488 1159 1978 
L 1159 0 
L 581 0 
L 581 3500 
L 1159 3500 
L 1159 2956 
Q 1356 3278 1631 3431 
Q 1906 3584 2284 3584 
Q 2666 3584 2933 3390 
Q 3200 3197 3328 2828 
z
" transform="scale(0.015625)"/>
       <path id="DejaVuSans-70" d="M 1159 525 
L 1159 -1331 
L 581 -1331 
L 581 3500 
L 1159 3500 
L 1159 2969 
Q 1341 3281 1617 3432 
Q 1894 3584 2278 3584 
Q 2916 3584 3314 3078 
Q 3713 2572 3713 1747 
Q 3713 922 3314 415 
Q 2916 -91 2278 -91 
Q 1894 -91 1617 61 
Q 1341 213 1159 525 
z
M 3116 1747 
Q 3116 2381 2855 2742 
Q 2594 3103 2138 3103 
Q 1681 3103 1420 2742 
Q 1159 2381 1159 1747 
Q 1159 1113 1420 752 
Q 1681 391 2138 391 
Q 2594 391 2855 752 
Q 3116 1113 3116 1747 
z
" transform="scale(0.015625)"/>
       <path id="DejaVuSans-72" d="M 2631 2963 
Q 2534 3019 2420 3045 
Q 2306 3072 2169 3072 
Q 1681 3072 1420 2755 
Q 1159 2438 1159 1844 
L 1159 0 
L 581 0 
L 581 3500 
L 1159 3500 
L 1159 2956 
Q 1341 3275 1631 3429 
Q 1922 3584 2338 3584 
Q 2397 3584 2469 3576 
Q 2541 3569 2628 3553 
L 2631 2963 
z
" transform="scale(0.015625)"/>
       <path id="DejaVuSans-61" d="M 2194 1759 
Q 1497 1759 1228 1600 
Q 959 1441 959 1056 
Q 959 750 1161 570 
Q 1363 391 1709 391 
Q 2188 391 2477 730 
Q 2766 1069 2766 1631 
L 2766 1759 
L 2194 1759 
z
M 3341 1997 
L 3341 0 
L 2766 0 
L 2766 531 
Q 2569 213 2275 61 
Q 1981 -91 1556 -91 
Q 1019 -91 701 211 
Q 384 513 384 1019 
Q 384 1609 779 1909 
Q 1175 2209 1959 2209 
L 2766 2209 
L 2766 2266 
Q 2766 2663 2505 2880 
Q 2244 3097 1772 3097 
Q 1472 3097 1187 3025 
Q 903 2953 641 2809 
L 641 3341 
Q 956 3463 1253 3523 
Q 1550 3584 1831 3584 
Q 2591 3584 2966 3190 
Q 3341 2797 3341 1997 
z
" transform="scale(0.015625)"/>
       <path id="DejaVuSans-74" d="M 1172 4494 
L 1172 3500 
L 2356 3500 
L 2356 3053 
L 1172 3053 
L 1172 1153 
Q 1172 725 1289 603 
Q 1406 481 1766 481 
L 2356 481 
L 2356 0 
L 1766 0 
Q 1100 0 847 248 
Q 594 497 594 1153 
L 594 3053 
L 172 3053 
L 172 3500 
L 594 3500 
L 594 4494 
L 1172 4494 
z
" transform="scale(0.015625)"/>
       <path id="DejaVuSans-75" d="M 544 1381 
L 544 3500 
L 1119 3500 
L 1119 1403 
Q 1119 906 1312 657 
Q 1506 409 1894 409 
Q 2359 409 2629 706 
Q 2900 1003 2900 1516 
L 2900 3500 
L 3475 3500 
L 3475 0 
L 2900 0 
L 2900 538 
Q 2691 219 2414 64 
Q 2138 -91 1772 -91 
Q 1169 -91 856 284 
Q 544 659 544 1381 
z
M 1991 3584 
L 1991 3584 
z
" transform="scale(0.015625)"/>
       <path id="DejaVuSans-20" transform="scale(0.015625)"/>
       <path id="DejaVuSans-28" d="M 1984 4856 
Q 1566 4138 1362 3434 
Q 1159 2731 1159 2009 
Q 1159 1288 1364 580 
Q 1569 -128 1984 -844 
L 1484 -844 
Q 1016 -109 783 600 
Q 550 1309 550 2009 
Q 550 2706 781 3412 
Q 1013 4119 1484 4856 
L 1984 4856 
z
" transform="scale(0.015625)"/>
       <path id="DejaVuSans-4b" d="M 628 4666 
L 1259 4666 
L 1259 2694 
L 3353 4666 
L 4166 4666 
L 1850 2491 
L 4331 0 
L 3500 0 
L 1259 2247 
L 1259 0 
L 628 0 
L 628 4666 
z
" transform="scale(0.015625)"/>
       <path id="DejaVuSans-29" d="M 513 4856 
L 1013 4856 
Q 1481 4119 1714 3412 
Q 1947 2706 1947 2009 
Q 1947 1309 1714 600 
Q 1481 -109 1013 -844 
L 513 -844 
Q 928 -128 1133 580 
Q 1338 1288 1338 2009 
Q 1338 2731 1133 3434 
Q 928 4138 513 4856 
z
" transform="scale(0.015625)"/>
      </defs>
      <use xlink:href="#DejaVuSans-54"/>
      <use xlink:href="#DejaVuSans-65" x="44.083984"/>
      <use xlink:href="#DejaVuSans-6d" x="105.607422"/>
      <use xlink:href="#DejaVuSans-70" x="203.019531"/>
      <use xlink:href="#DejaVuSans-65" x="266.496094"/>
      <use xlink:href="#DejaVuSans-72" x="328.019531"/>
      <use xlink:href="#DejaVuSans-61" x="369.132812"/>
      <use xlink:href="#DejaVuSans-74" x="430.412109"/>
      <use xlink:href="#DejaVuSans-75" x="469.621094"/>
      <use xlink:href="#DejaVuSans-72" x="533"/>
      <use xlink:href="#DejaVuSans-65" x="571.863281"/>
      <use xlink:href="#DejaVuSans-20" x="633.386719"/>
      <use xlink:href="#DejaVuSans-28" x="665.173828"/>
      <use xlink:href="#DejaVuSans-4b" x="704.1875"/>
      <use xlink:href="#DejaVuSans-29" x="769.763672"/>
     </g>
    </g>
   </g>
   <g id="matplotlib.axis_2">
    <g id="ytick_1">
     <g id="line2d_6">
      <defs>
       <path id="m13b71c9256" d="M 0 0 
L -3.5 0 
" style="stroke: #000000; stroke-width: 0.8"/>
      </defs>
      <g>
       <use xlink:href="#m13b71c9256" x="57.6" y="267.336642" style="stroke: #000000; stroke-width: 0.8"/>
      </g>
     </g>
     <g id="text_7">
      <!-- $\mathdefault{10^{0}}$ -->
      <g transform="translate(33 271.135861)scale(0.1 -0.1)">
       <use xlink:href="#DejaVuSans-31" transform="translate(0 0.765625)"/>
       <use xlink:href="#DejaVuSans-30" transform="translate(63.623047 0.765625)"/>
       <use xlink:href="#DejaVuSans-30" transform="translate(128.203125 39.046875)scale(0.7)"/>
      </g>
     </g>
    </g>
    <g id="ytick_2">
     <g id="line2d_7">
      <g>
       <use xlink:href="#m13b71c9256" x="57.6" y="211.033926" style="stroke: #000000; stroke-width: 0.8"/>
      </g>
     </g>
     <g id="text_8">
      <!-- $\mathdefault{10^{2}}$ -->
      <g transform="translate(33 214.833145)scale(0.1 -0.1)">
       <use xlink:href="#DejaVuSans-31" transform="translate(0 0.765625)"/>
       <use xlink:href="#DejaVuSans-30" transform="translate(63.623047 0.765625)"/>
       <use xlink:href="#DejaVuSans-32" transform="translate(128.203125 39.046875)scale(0.7)"/>
      </g>
     </g>
    </g>
    <g id="ytick_3">
     <g id="line2d_8">
      <g>
       <use xlink:href="#m13b71c9256" x="57.6" y="154.731211" style="stroke: #000000; stroke-width: 0.8"/>
      </g>
     </g>
     <g id="text_9">
      <!-- $\mathdefault{10^{4}}$ -->
      <g transform="translate(33 158.530429)scale(0.1 -0.1)">
       <use xlink:href="#DejaVuSans-31" transform="translate(0 0.684375)"/>
       <use xlink:href="#DejaVuSans-30" transform="translate(63.623047 0.684375)"/>
       <use xlink:href="#DejaVuSans-34" transform="translate(128.203125 38.965625)scale(0.7)"/>
      </g>
     </g>
    </g>
    <g id="ytick_4">
     <g id="line2d_9">
      <g>
       <use xlink:href="#m13b71c9256" x="57.6" y="98.428495" style="stroke: #000000; stroke-width: 0.8"/>
      </g>
     </g>
     <g id="text_10">
      <!-- $\mathdefault{10^{6}}$ -->
      <g transform="translate(33 102.227714)scale(0.1 -0.1)">
       <use xlink:href="#DejaVuSans-31" transform="translate(0 0.765625)"/>
       <use xlink:href="#DejaVuSans-30" transform="translate(63.623047 0.765625)"/>
       <use xlink:href="#DejaVuSans-36" transform="translate(128.203125 39.046875)scale(0.7)"/>
      </g>
     </g>
    </g>
    <g id="ytick_5">
     <g id="line2d_10">
      <g>
       <use xlink:href="#m13b71c9256" x="57.6" y="42.125779" style="stroke: #000000; stroke-width: 0.8"/>
      </g>
     </g>
     <g id="text_11">
      <!-- $\mathdefault{10^{8}}$ -->
      <g transform="translate(33 45.924998)scale(0.1 -0.1)">
       <use xlink:href="#DejaVuSans-31" transform="translate(0 0.765625)"/>
       <use xlink:href="#DejaVuSans-30" transform="translate(63.623047 0.765625)"/>
       <use xlink:href="#DejaVuSans-38" transform="translate(128.203125 39.046875)scale(0.7)"/>
      </g>
     </g>
    </g>
    <g id="text_12">
     <!-- Pyrolysis number -->
     <g transform="translate(26.920312 217.554563)rotate(-90)scale(0.1 -0.1)">
      <defs>
       <path id="DejaVuSans-50" d="M 1259 4147 
L 1259 2394 
L 2053 2394 
Q 2494 2394 2734 2622 
Q 2975 2850 2975 3272 
Q 2975 3691 2734 3919 
Q 2494 4147 2053 4147 
L 1259 4147 
z
M 628 4666 
L 2053 4666 
Q 2838 4666 3239 4311 
Q 3641 3956 3641 3272 
Q 3641 2581 3239 2228 
Q 2838 1875 2053 1875 
L 1259 1875 
L 1259 0 
L 628 0 
L 628 4666 
z
" transform="scale(0.015625)"/>
       <path id="DejaVuSans-79" d="M 2059 -325 
Q 1816 -950 1584 -1140 
Q 1353 -1331 966 -1331 
L 506 -1331 
L 506 -850 
L 844 -850 
Q 1081 -850 1212 -737 
Q 1344 -625 1503 -206 
L 1606 56 
L 191 3500 
L 800 3500 
L 1894 763 
L 2988 3500 
L 3597 3500 
L 2059 -325 
z
" transform="scale(0.015625)"/>
       <path id="DejaVuSans-6f" d="M 1959 3097 
Q 1497 3097 1228 2736 
Q 959 2375 959 1747 
Q 959 1119 1226 758 
Q 1494 397 1959 397 
Q 2419 397 2687 759 
Q 2956 1122 2956 1747 
Q 2956 2369 2687 2733 
Q 2419 3097 1959 3097 
z
M 1959 3584 
Q 2709 3584 3137 3096 
Q 3566 2609 3566 1747 
Q 3566 888 3137 398 
Q 2709 -91 1959 -91 
Q 1206 -91 779 398 
Q 353 888 353 1747 
Q 353 2609 779 3096 
Q 1206 3584 1959 3584 
z
" transform="scale(0.015625)"/>
       <path id="DejaVuSans-6c" d="M 603 4863 
L 1178 4863 
L 1178 0 
L 603 0 
L 603 4863 
z
" transform="scale(0.015625)"/>
       <path id="DejaVuSans-73" d="M 2834 3397 
L 2834 2853 
Q 2591 2978 2328 3040 
Q 2066 3103 1784 3103 
Q 1356 3103 1142 2972 
Q 928 2841 928 2578 
Q 928 2378 1081 2264 
Q 1234 2150 1697 2047 
L 1894 2003 
Q 2506 1872 2764 1633 
Q 3022 1394 3022 966 
Q 3022 478 2636 193 
Q 2250 -91 1575 -91 
Q 1294 -91 989 -36 
Q 684 19 347 128 
L 347 722 
Q 666 556 975 473 
Q 1284 391 1588 391 
Q 1994 391 2212 530 
Q 2431 669 2431 922 
Q 2431 1156 2273 1281 
Q 2116 1406 1581 1522 
L 1381 1569 
Q 847 1681 609 1914 
Q 372 2147 372 2553 
Q 372 3047 722 3315 
Q 1072 3584 1716 3584 
Q 2034 3584 2315 3537 
Q 2597 3491 2834 3397 
z
" transform="scale(0.015625)"/>
       <path id="DejaVuSans-69" d="M 603 3500 
L 1178 3500 
L 1178 0 
L 603 0 
L 603 3500 
z
M 603 4863 
L 1178 4863 
L 1178 4134 
L 603 4134 
L 603 4863 
z
" transform="scale(0.015625)"/>
       <path id="DejaVuSans-6e" d="M 3513 2113 
L 3513 0 
L 2938 0 
L 2938 2094 
Q 2938 2591 2744 2837 
Q 2550 3084 2163 3084 
Q 1697 3084 1428 2787 
Q 1159 2491 1159 1978 
L 1159 0 
L 581 0 
L 581 3500 
L 1159 3500 
L 1159 2956 
Q 1366 3272 1645 3428 
Q 1925 3584 2291 3584 
Q 2894 3584 3203 3211 
Q 3513 2838 3513 2113 
z
" transform="scale(0.015625)"/>
       <path id="DejaVuSans-62" d="M 3116 1747 
Q 3116 2381 2855 2742 
Q 2594 3103 2138 3103 
Q 1681 3103 1420 2742 
Q 1159 2381 1159 1747 
Q 1159 1113 1420 752 
Q 1681 391 2138 391 
Q 2594 391 2855 752 
Q 3116 1113 3116 1747 
z
M 1159 2969 
Q 1341 3281 1617 3432 
Q 1894 3584 2278 3584 
Q 2916 3584 3314 3078 
Q 3713 2572 3713 1747 
Q 3713 922 3314 415 
Q 2916 -91 2278 -91 
Q 1894 -91 1617 61 
Q 1341 213 1159 525 
L 1159 0 
L 581 0 
L 581 4863 
L 1159 4863 
L 1159 2969 
z
" transform="scale(0.015625)"/>
      </defs>
      <use xlink:href="#DejaVuSans-50"/>
      <use xlink:href="#DejaVuSans-79" x="60.302734"/>
      <use xlink:href="#DejaVuSans-72" x="119.482422"/>
      <use xlink:href="#DejaVuSans-6f" x="158.345703"/>
      <use xlink:href="#DejaVuSans-6c" x="219.527344"/>
      <use xlink:href="#DejaVuSans-79" x="247.310547"/>
      <use xlink:href="#DejaVuSans-73" x="306.490234"/>
      <use xlink:href="#DejaVuSans-69" x="358.589844"/>
      <use xlink:href="#DejaVuSans-73" x="386.373047"/>
      <use xlink:href="#DejaVuSans-20" x="438.472656"/>
      <use xlink:href="#DejaVuSans-6e" x="470.259766"/>
      <use xlink:href="#DejaVuSans-75" x="533.638672"/>
      <use xlink:href="#DejaVuSans-6d" x="597.017578"/>
      <use xlink:href="#DejaVuSans-62" x="694.429688"/>
      <use xlink:href="#DejaVuSans-65" x="757.90625"/>
      <use xlink:href="#DejaVuSans-72" x="819.429688"/>
     </g>
    </g>
   </g>
   <g id="line2d_11">
    <path d="M 57.6 91.114362 
L 57.6 91.112762 
L 57.710109 91.274939 
L 59.068119 93.22275 
L 61.698622 96.70379 
L 64.093491 99.503222 
L 66.203913 101.638175 
L 68.161283 103.302197 
L 69.865035 104.470752 
L 71.482902 105.315231 
L 71.586772 105.354005 
L 73.012316 105.839033 
L 73.125361 105.860166 
L 73.330163 105.905783 
L 74.66395 106.076126 
L 74.776995 106.071369 
L 74.939222 106.07981 
L 74.942158 106.072102 
L 76.174644 105.952397 
L 77.398322 105.602374 
L 78.591169 105.021686 
L 79.771536 104.209127 
L 79.906236 104.086473 
L 81.117435 102.94657 
L 81.252135 102.786772 
L 82.527563 101.216257 
L 83.851807 99.224742 
L 85.280287 96.66848 
L 86.928618 93.269733 
L 87.084605 92.905235 
L 91.048527 84.374829 
L 91.100645 84.286948 
L 91.996932 82.990948 
L 92.067035 82.923545 
L 92.070338 82.904945 
L 92.791919 82.240232 
L 92.892852 82.186601 
L 93.027552 82.097043 
L 93.617736 81.899592 
L 93.761612 81.885947 
L 94.351795 81.964486 
L 94.575317 82.054135 
L 94.578253 82.048877 
L 95.26937 82.472411 
L 95.706869 82.856932 
L 95.801563 82.945744 
L 96.789607 84.083781 
L 98.156793 86.025864 
L 100.358972 89.587615 
L 104.344182 96.504649 
L 111.186351 108.902524 
L 119.043726 123.054664 
L 119.790264 124.344394 
L 123.509377 130.507816 
L 124.093689 131.424519 
L 126.93817 135.638276 
L 129.259633 138.697481 
L 129.38479 138.84822 
L 131.41263 141.146535 
L 133.238603 142.889694 
L 134.948595 144.221818 
L 135.043289 144.28092 
L 136.673635 145.25088 
L 138.355733 145.99255 
L 140.392748 146.64296 
L 140.496618 146.663688 
L 145.216254 148.045765 
L 145.439408 148.12987 
L 145.543277 148.159355 
L 148.378583 149.020857 
L 149.782472 149.203201 
L 149.895884 149.19747 
L 150.057744 149.206347 
L 150.171156 149.195804 
L 150.333016 149.198246 
L 150.446429 149.182783 
L 150.608289 149.178697 
L 150.721701 149.158236 
L 150.86521 149.140843 
L 152.110175 148.861365 
L 153.636285 148.272892 
L 153.761809 148.205109 
L 155.982339 147.297469 
L 156.113736 147.27324 
L 156.23926 147.234595 
L 157.113892 147.146798 
L 157.276119 147.163533 
L 157.279055 147.155993 
L 158.031467 147.31552 
L 158.285451 147.421375 
L 158.389321 147.463533 
L 159.163386 147.945722 
L 159.673925 148.381516 
L 160.643618 149.434517 
L 161.866928 151.085294 
L 163.711253 153.938758 
L 170.34862 164.271149 
L 172.877822 167.59089 
L 174.740498 169.543455 
L 174.95778 169.730549 
L 176.312854 170.668585 
L 177.35265 171.04761 
L 178.239761 171.075276 
L 179.053099 170.82521 
L 179.187799 170.742621 
L 180.001504 170.124243 
L 180.145012 169.962862 
L 180.215482 169.900485 
L 180.218418 169.883892 
L 181.114705 168.659644 
L 182.03228 166.912637 
L 183.059963 164.384655 
L 183.203839 163.956146 
L 183.243478 163.867047 
L 183.387354 163.424152 
L 183.426993 163.331855 
L 183.570868 162.87528 
L 183.610508 162.779953 
L 183.754383 162.310298 
L 183.794023 162.212154 
L 183.937898 161.730273 
L 183.977538 161.629417 
L 184.121413 161.136184 
L 184.161052 161.032935 
L 184.304928 160.529301 
L 184.344567 160.423749 
L 184.488443 159.910809 
L 184.528082 159.803276 
L 184.671958 159.282086 
L 184.711597 159.172838 
L 184.855473 158.644672 
L 184.895112 158.533896 
L 185.038988 157.999893 
L 185.078627 157.887978 
L 185.222503 157.34948 
L 185.262142 157.236743 
L 185.406018 156.695064 
L 185.445657 156.581633 
L 185.589532 156.038092 
L 185.629172 155.92448 
L 185.773047 155.380384 
L 185.812687 155.266823 
L 185.956562 154.723506 
L 185.996201 154.610263 
L 186.140077 154.069061 
L 186.179716 153.956336 
L 186.323592 153.418435 
L 186.363231 153.306668 
L 186.507107 152.773153 
L 186.546746 152.662374 
L 186.690622 152.134398 
L 186.730261 152.024972 
L 186.874137 151.50325 
L 186.913776 151.395377 
L 187.057652 150.880772 
L 187.097291 150.77457 
L 187.241167 150.267675 
L 187.280806 150.163297 
L 187.424681 149.66457 
L 187.464321 149.562077 
L 187.608196 149.07185 
L 187.647836 148.971299 
L 187.791711 148.489684 
L 187.83135 148.391115 
L 187.975226 147.918118 
L 188.014865 147.821477 
L 188.158741 147.356949 
L 188.19838 147.262224 
L 188.342256 146.805865 
L 188.381895 146.712958 
L 188.525771 146.264405 
L 188.56541 146.173225 
L 188.709286 145.731976 
L 188.748925 145.642419 
L 188.892801 145.207897 
L 188.93244 145.119832 
L 189.076316 144.691438 
L 189.115955 144.604751 
L 189.25983 144.18184 
L 189.29947 144.096345 
L 189.443345 143.678288 
L 189.485921 143.561688 
L 192.379584 135.961602 
L 192.419223 135.882519 
L 192.563099 135.486163 
L 192.602738 135.407273 
L 192.746614 135.011585 
L 192.786253 134.932886 
L 192.930129 134.538021 
L 192.969768 134.459556 
L 193.113643 134.06566 
L 193.153283 133.987528 
L 193.297158 133.594851 
L 193.336798 133.517042 
L 193.480673 133.125723 
L 193.520312 133.048338 
L 193.664188 132.65868 
L 193.703827 132.581705 
L 193.847703 132.193894 
L 193.887342 132.117432 
L 194.031218 131.731775 
L 194.073793 131.624395 
L 196.080345 126.872528 
L 196.119985 126.808319 
L 196.123288 126.779842 
L 197.36495 124.351062 
L 197.404589 124.302466 
L 197.417068 124.262614 
L 198.312988 122.950971 
L 198.383457 122.882521 
L 198.518157 122.713529 
L 199.230562 122.088669 
L 199.331495 122.038343 
L 199.45702 121.957519 
L 200.08721 121.76243 
L 200.24907 121.760098 
L 200.362482 121.75275 
L 200.536821 121.768943 
L 201.188299 121.969005 
L 201.472747 122.122558 
L 201.475683 122.119259 
L 202.350315 122.756522 
L 202.910036 123.270815 
L 203.023448 123.378285 
L 203.735853 124.111005 
L 203.879729 124.261467 
L 204.684258 125.134336 
L 204.870709 125.335792 
L 207.929169 128.514879 
L 209.883602 130.241781 
L 209.978663 130.313082 
L 211.718751 131.540885 
L 211.813812 131.59293 
L 213.260276 132.329606 
L 214.594063 132.767285 
L 214.707108 132.784484 
L 214.899799 132.829407 
L 215.012844 132.841045 
L 215.187183 132.866784 
L 216.38003 132.911602 
L 217.51195 132.732205 
L 218.643503 132.3268 
L 219.824237 131.670922 
L 219.95857 131.56651 
L 221.231063 130.553688 
L 221.365763 130.415251 
L 222.711294 129.006589 
L 224.240707 127.076233 
L 226.005386 124.462719 
L 227.963123 121.139408 
L 233.058598 112.213794 
L 233.159531 112.092082 
L 233.303407 111.898449 
L 233.40434 111.784241 
L 233.547849 111.60309 
L 233.652085 111.483747 
L 234.618475 110.554352 
L 234.780702 110.436323 
L 234.93669 110.318334 
L 235.872616 109.804879 
L 236.138712 109.702499 
L 237.218147 109.439606 
L 237.790346 109.374678 
L 239.512083 109.343779 
L 240.744936 109.387511 
L 241.176196 109.405567 
L 254.092342 109.8438 
L 274.777775 110.430021 
L 275.829682 110.518627 
L 279.701847 110.981581 
L 280.855054 111.170788 
L 284.014447 111.843011 
L 285.339058 112.202826 
L 285.696912 112.307516 
L 287.177143 112.785882 
L 289.816821 113.81516 
L 292.456133 115.085007 
L 298.756933 119.08386 
L 308.01526 126.734351 
L 315.34668 133.012106 
L 316.436759 133.875113 
L 316.82581 134.175884 
L 317.611254 134.771862 
L 318.404039 135.356267 
L 318.404039 135.356213 
L 319.76939 136.310566 
L 320.819095 137.0015 
L 320.954896 137.083943 
L 321.769702 137.585047 
L 327.029239 140.086006 
L 327.029239 140.082643 
L 330.761932 141.047302 
L 335.379167 141.625139 
L 335.379167 141.619763 
L 338.275032 141.975235 
L 338.465888 142.010247 
L 338.469558 142.005492 
L 340.627693 142.398687 
L 340.943339 142.468628 
L 341.068129 142.490027 
L 347.336998 143.491473 
L 347.461788 143.485906 
L 349.032676 143.373223 
L 350.867825 142.918534 
L 353.058993 141.820225 
L 353.822415 141.287563 
L 353.932524 141.188688 
L 354.035292 141.11884 
L 354.038962 141.105701 
L 357.044936 137.90967 
L 357.819369 136.818536 
L 357.889105 136.728247 
L 358.043258 136.47717 
L 358.623165 135.574248 
L 358.777317 135.299156 
L 359.338873 134.326846 
L 360.021548 133.053692 
L 360.072932 132.952629 
L 360.722575 131.637853 
L 360.77763 131.529064 
L 361.427272 130.117351 
L 361.478657 130.000853 
L 362.021861 128.754338 
L 362.620119 127.303979 
L 362.664163 127.197623 
L 363.262421 125.671638 
L 363.306465 125.560087 
L 363.904724 123.963499 
L 363.948767 123.847112 
L 364.547026 122.187346 
L 364.591069 122.066761 
L 365.189328 120.353957 
L 365.233371 120.23002 
L 365.802268 118.567702 
L 365.853652 118.414544 
L 366.411537 116.758088 
L 366.455581 116.631022 
L 367.046499 114.88102 
L 367.575022 113.326808 
L 367.619065 113.20214 
L 368.154929 111.655689 
L 368.198972 111.534627 
L 368.903669 109.600375 
L 369.410171 108.282857 
L 369.461555 108.152305 
L 372.192257 102.716752 
L 372.276673 102.598021 
L 372.775834 101.932901 
L 372.889613 101.793764 
L 373.407125 101.205902 
L 375.649677 99.378675 
L 375.844203 99.261586 
L 375.954312 99.185789 
L 376.148838 99.073448 
L 376.321342 98.964035 
L 376.519538 98.84928 
L 377.363706 98.373667 
L 377.569243 98.261395 
L 378.494158 97.759896 
L 378.718046 97.644207 
L 378.905232 97.539005 
L 379.87052 97.014633 
L 380.094408 96.89701 
L 380.281593 96.789916 
L 381.246882 96.253637 
L 381.47077 96.133152 
L 381.665296 96.018589 
L 382.905857 95.320216 
L 383.093042 95.20962 
L 384.388657 94.474516 
L 385.313572 93.952409 
L 385.541131 93.825959 
L 386.447694 93.325732 
L 386.704615 93.185636 
L 387.607508 92.69962 
L 387.860759 92.569566 
L 388.066296 92.458284 
L 388.319546 92.3301 
L 388.525083 92.220511 
L 388.782004 92.088937 
L 390.521725 91.231382 
L 390.727262 91.129858 
L 391.013545 90.998385 
L 391.230092 90.892782 
L 392.228414 90.432557 
L 392.55507 90.284409 
L 393.604775 89.817701 
L 393.949783 89.669449 
L 394.173672 89.567679 
L 395.950096 88.805872 
L 397.120921 88.309259 
L 397.47694 88.157933 
L 399.161607 87.446413 
L 400.332432 86.94881 
L 400.688451 86.796197 
L 402.240987 86.131256 
L 403.38979 85.633766 
L 403.705436 85.499917 
L 403.932994 85.398222 
L 405.074457 84.898932 
L 405.423135 84.745544 
L 406.601301 84.223401 
L 406.916946 84.086491 
L 407.144505 83.982543 
L 408.252935 83.4857 
L 408.550229 83.352329 
L 410.066062 82.669129 
L 410.293621 82.562924 
L 411.754399 81.895136 
L 412.840807 81.392436 
L 413.138102 81.254808 
L 414.624572 80.564592 
L 414.72 80.26047 
L 414.72 75.181623 
L 414.72 75.181623 
" clip-path="url(#pcfe1ea4641)" style="fill: none; stroke: #1f77b4; stroke-width: 1.5; stroke-linecap: square"/>
   </g>
   <g id="line2d_12">
    <path d="M 57.6 60.962872 
L 57.6 60.961272 
L 57.710109 61.129422 
L 59.095646 63.191956 
L 59.496443 63.767275 
L 61.970591 67.126152 
L 62.175761 67.385819 
L 63.041217 68.46263 
L 63.215556 68.671023 
L 63.961728 69.549003 
L 66.072149 71.815865 
L 68.008231 73.586276 
L 69.769974 74.911352 
L 69.865035 74.969433 
L 71.485839 75.893467 
L 72.923494 76.466189 
L 74.299856 76.774267 
L 75.581524 76.837739 
L 75.694569 76.82301 
L 75.856797 76.818781 
L 75.969842 76.799152 
L 76.132069 76.788332 
L 76.257226 76.761896 
L 77.450073 76.467955 
L 78.64292 75.93642 
L 79.802367 75.188011 
L 79.9367 75.071256 
L 81.129547 73.989493 
L 82.374512 72.553748 
L 83.686643 70.705941 
L 83.830519 70.462963 
L 83.900622 70.367566 
L 84.044497 70.117816 
L 84.096616 70.032563 
L 85.583086 67.38283 
L 85.726595 67.083279 
L 85.778713 66.980788 
L 87.540456 63.289715 
L 87.684332 62.950574 
L 87.726907 62.855418 
L 90.62057 56.675818 
L 90.672322 56.580959 
L 91.660366 55.008173 
L 91.730836 54.931326 
L 91.865169 54.745072 
L 92.608404 54.0046 
L 92.709337 53.9442 
L 92.844037 53.843984 
L 93.465051 53.596745 
L 93.596448 53.586723 
L 93.599384 53.576644 
L 94.199111 53.626746 
L 94.403914 53.69376 
L 95.055392 54.059437 
L 95.431597 54.369512 
L 95.514179 54.440556 
L 96.055548 54.999634 
L 97.135349 56.383616 
L 101.163502 62.979882 
L 105.772662 71.293778 
L 121.768922 100.62981 
L 125.00796 105.911879 
L 125.295711 106.354876 
L 127.886208 110.137427 
L 130.14968 113.055585 
L 132.116226 115.237274 
L 133.911736 116.902527 
L 135.590897 118.166069 
L 135.685591 118.222474 
L 137.346401 119.171813 
L 139.138607 119.940283 
L 139.242844 119.970492 
L 142.105676 120.884039 
L 142.209546 120.908653 
L 145.093666 121.910412 
L 145.317187 122.003162 
L 145.320123 121.99766 
L 148.43694 123.078972 
L 148.549986 123.098237 
L 148.742676 123.147762 
L 148.745612 123.140922 
L 150.088575 123.309647 
L 150.20162 123.302966 
L 150.363847 123.311039 
L 150.476892 123.299431 
L 150.639119 123.300939 
L 150.752164 123.284339 
L 150.89604 123.271871 
L 152.140638 123.035329 
L 153.679227 122.48573 
L 156.012803 121.622222 
L 156.144566 121.603871 
L 156.147503 121.593565 
L 157.022135 121.517199 
L 157.184362 121.53553 
L 157.187298 121.527835 
L 157.97054 121.702837 
L 158.224157 121.81274 
L 158.328394 121.856366 
L 159.12338 122.367437 
L 160.001316 123.191151 
L 161.050287 124.474832 
L 162.457479 126.544798 
L 165.197723 131.017501 
L 165.800386 132.012578 
L 167.338975 134.512635 
L 167.757756 135.182674 
L 173.241916 142.989726 
L 175.02825 144.830565 
L 176.303678 145.751761 
L 177.404768 146.18495 
L 178.352806 146.218131 
L 179.218262 145.917038 
L 180.013616 145.319468 
L 180.839433 144.335123 
L 181.717368 142.851501 
L 182.757163 140.494399 
L 183.980474 136.954858 
L 185.965738 130.150349 
L 186.109247 129.613765 
L 186.149253 129.502416 
L 186.292762 128.968893 
L 186.332768 128.858321 
L 186.476276 128.32903 
L 186.516283 128.219477 
L 186.659791 127.695445 
L 186.699798 127.587294 
L 186.843306 127.069426 
L 186.883312 126.962693 
L 187.026821 126.451858 
L 187.066827 126.346772 
L 187.210336 125.843568 
L 187.250342 125.740272 
L 187.393851 125.245161 
L 187.433857 125.143747 
L 187.577366 124.657098 
L 187.617372 124.557616 
L 187.760881 124.07957 
L 187.800887 123.982065 
L 187.944396 123.512628 
L 187.984402 123.417071 
L 188.127911 122.956146 
L 188.167917 122.862497 
L 188.311425 122.409786 
L 188.351432 122.317994 
L 188.49494 121.873134 
L 188.534947 121.783096 
L 188.678455 121.345623 
L 188.718462 121.257227 
L 188.86197 120.826605 
L 188.901976 120.739705 
L 189.045485 120.315309 
L 189.085491 120.229775 
L 189.229 119.810974 
L 189.269006 119.726695 
L 189.412515 119.312849 
L 189.452521 119.22965 
L 189.59603 118.820082 
L 189.638972 118.705915 
L 192.838371 110.443951 
L 192.87801 110.366739 
L 193.021886 109.977235 
L 193.061525 109.900331 
L 193.205401 109.511945 
L 193.24504 109.435343 
L 193.388916 109.048215 
L 193.428555 108.971957 
L 193.572431 108.586391 
L 193.61207 108.51058 
L 193.755946 108.126707 
L 193.795585 108.051387 
L 193.798521 108.019833 
L 195.927294 102.982606 
L 195.9673 102.918483 
L 195.970236 102.889633 
L 197.242729 100.38373 
L 197.282368 100.334497 
L 197.29448 100.294081 
L 198.22123 98.918026 
L 198.2917 98.848539 
L 198.4264 98.676451 
L 199.138805 98.034903 
L 199.239738 97.982418 
L 199.365262 97.898119 
L 199.995452 97.688217 
L 200.138961 97.674635 
L 200.759975 97.75199 
L 200.983129 97.835959 
L 200.986433 97.830859 
L 201.729668 98.249571 
L 202.70817 99.080066 
L 204.277222 100.745395 
L 205.093863 101.66215 
L 207.895769 104.661375 
L 207.999638 104.761011 
L 209.947832 106.531745 
L 211.630297 107.779176 
L 213.125944 108.625049 
L 213.229813 108.666671 
L 214.544881 109.141122 
L 215.759382 109.348936 
L 216.890935 109.326138 
L 218.019552 109.093517 
L 218.145076 109.041901 
L 219.285805 108.538958 
L 220.469476 107.770577 
L 221.732792 106.682349 
L 223.170081 105.130459 
L 224.717846 103.141241 
L 224.852546 102.935729 
L 226.675216 100.16718 
L 226.819091 99.914152 
L 226.889561 99.814678 
L 227.03307 99.558206 
L 227.085188 99.471019 
L 229.305718 95.540913 
L 229.449594 95.258378 
L 229.501345 95.162209 
L 232.11056 90.554638 
L 232.183966 90.440177 
L 233.364334 88.808302 
L 233.465267 88.699123 
L 233.621255 88.511953 
L 234.588011 87.601995 
L 234.749871 87.487306 
L 234.905859 87.372446 
L 235.841785 86.879287 
L 236.107882 86.783045 
L 237.15722 86.550686 
L 237.71694 86.501187 
L 237.933855 86.48937 
L 239.756892 86.530616 
L 241.032321 86.618129 
L 253.81707 87.435959 
L 273.217898 88.47188 
L 274.266869 88.572364 
L 274.59426 88.60466 
L 275.673695 88.724272 
L 276.031549 88.765714 
L 277.145117 88.90885 
L 280.680715 89.496695 
L 281.89485 89.755065 
L 284.901558 90.548876 
L 286.378853 91.031329 
L 286.736707 91.15697 
L 288.348702 91.777786 
L 290.948374 92.962943 
L 293.639804 94.439385 
L 296.362064 96.188246 
L 299.368772 98.393646 
L 309.829121 107.45352 
L 311.095374 108.591301 
L 315.438438 112.354657 
L 316.528516 113.242727 
L 316.917568 113.55229 
L 317.699341 114.165722 
L 317.853494 114.283206 
L 319.097725 115.208517 
L 319.446403 115.459004 
L 320.239188 116.01457 
L 320.239188 116.013941 
L 321.817416 117.042758 
L 322.562486 117.494399 
L 322.687276 117.564447 
L 327.5284 119.818882 
L 331.198698 120.781766 
L 336.417861 121.522781 
L 336.542652 121.534599 
L 339.067817 121.953801 
L 339.365111 122.012889 
L 341.545268 122.5007 
L 341.864584 122.576944 
L 346.951617 123.514017 
L 348.529845 123.515265 
L 348.665646 123.497983 
L 350.427389 123.189844 
L 350.537498 123.149764 
L 350.702661 123.108881 
L 350.81277 123.064816 
L 350.977934 123.018634 
L 351.088043 122.970488 
L 351.234855 122.917507 
L 353.51411 121.70709 
L 353.657251 121.594483 
L 353.76002 121.53116 
L 353.76369 121.518472 
L 356.648544 118.689192 
L 357.481702 117.590169 
L 357.551438 117.505776 
L 357.70926 117.269085 
L 358.461672 116.128538 
L 358.531407 116.031565 
L 358.68556 115.763062 
L 359.247115 114.814245 
L 359.929791 113.569922 
L 359.981175 113.471046 
L 360.630818 112.183816 
L 360.685872 112.077252 
L 361.335515 110.693052 
L 361.386899 110.578761 
L 361.930103 109.35498 
L 362.528362 107.929412 
L 362.572405 107.82488 
L 363.170664 106.323039 
L 363.214708 106.213224 
L 363.812966 104.639929 
L 363.85701 104.525186 
L 364.455268 102.887517 
L 364.499312 102.768494 
L 365.09757 101.076116 
L 365.141614 100.953621 
L 365.71051 99.308706 
L 365.761894 99.157021 
L 366.31978 97.515295 
L 366.363823 97.389268 
L 366.954741 95.651775 
L 367.483264 94.105913 
L 367.527308 93.981839 
L 368.063171 92.440584 
L 368.107215 92.319844 
L 368.78989 90.444602 
L 369.289051 89.145471 
L 369.358786 88.986763 
L 369.53129 88.534596 
L 369.586345 88.407394 
L 370.081835 87.233893 
L 370.155241 87.092485 
L 370.26535 86.824738 
L 370.338756 86.687685 
L 370.448865 86.428437 
L 370.522271 86.295915 
L 370.63238 86.045252 
L 370.705786 85.917344 
L 370.815895 85.675529 
L 370.889301 85.552216 
L 370.99941 85.319315 
L 371.072816 85.200733 
L 371.182925 84.976807 
L 371.256331 84.84358 
L 373.355741 81.904396 
L 373.46952 81.787812 
L 373.998043 81.286819 
L 374.133844 81.170048 
L 374.732103 80.693828 
L 374.893596 80.582058 
L 375.06977 80.453483 
L 375.242274 80.335104 
L 384.028968 75.556645 
L 384.252856 75.439262 
L 384.447382 75.328218 
L 385.812733 74.596935 
L 386.007258 74.488583 
L 387.468037 73.728499 
L 388.374601 73.273233 
L 388.657214 73.136772 
L 388.86275 73.032889 
L 389.149034 72.893597 
L 390.8337 72.107472 
L 391.798989 71.676364 
L 392.125645 71.533422 
L 393.839674 70.806168 
L 394.918742 70.361335 
L 395.26742 70.219216 
L 396.386861 69.766386 
L 396.74288 69.622327 
L 398.427547 68.946903 
L 399.56901 68.487921 
L 399.925029 68.343476 
L 401.506927 67.701889 
L 402.688763 67.218586 
L 403.037441 67.075072 
L 404.186245 66.599044 
L 404.534923 66.453925 
L 405.683726 65.972597 
L 405.999372 65.843224 
L 406.215919 65.748486 
L 407.69505 65.121793 
L 408.80348 64.646242 
L 409.100774 64.51855 
L 410.65331 63.846515 
L 411.772751 63.356725 
L 412.117759 63.207935 
L 412.341647 63.104865 
L 413.802425 62.458054 
L 414.72 61.817756 
L 414.72 56.712599 
L 414.72 56.712599 
" clip-path="url(#pcfe1ea4641)" style="fill: none; stroke-dasharray: 5.55,2.4; stroke-dashoffset: 0; stroke: #ff7f0e; stroke-width: 1.5"/>
   </g>
   <g id="line2d_13">
    <path d="M 57.6 237.185152 
L 91.152764 238.894552 
L 128.069723 240.548414 
L 169.308457 242.169268 
L 215.759382 243.768283 
L 268.25382 245.348269 
L 327.744947 246.911746 
L 395.223377 248.458047 
L 414.72 248.867618 
L 414.72 248.867618 
" clip-path="url(#pcfe1ea4641)" style="fill: none; stroke: #ff0000; stroke-width: 1.5; stroke-linecap: square"/>
   </g>
   <g id="line2d_14">
    <path d="M -1 295.488 
L 461.8 295.488 
" clip-path="url(#pcfe1ea4641)" style="fill: none; stroke-dasharray: 5.55,2.4; stroke-dashoffset: 0; stroke: #2ca02c; stroke-width: 1.5"/>
   </g>
   <g id="line2d_15">
    <path d="M -1 239.185284 
L 461.8 239.185284 
" clip-path="url(#pcfe1ea4641)" style="fill: none; stroke-dasharray: 5.55,2.4; stroke-dashoffset: 0; stroke: #d62728; stroke-width: 1.5"/>
   </g>
   <g id="patch_3">
    <path d="M 57.6 307.584 
L 57.6 41.472 
" style="fill: none; stroke: #000000; stroke-width: 0.8; stroke-linejoin: miter; stroke-linecap: square"/>
   </g>
   <g id="patch_4">
    <path d="M 414.72 307.584 
L 414.72 41.472 
" style="fill: none; stroke: #000000; stroke-width: 0.8; stroke-linejoin: miter; stroke-linecap: square"/>
   </g>
   <g id="patch_5">
    <path d="M 57.6 307.584 
L 414.72 307.584 
" style="fill: none; stroke: #000000; stroke-width: 0.8; stroke-linejoin: miter; stroke-linecap: square"/>
   </g>
   <g id="patch_6">
    <path d="M 57.6 41.472 
L 414.72 41.472 
" style="fill: none; stroke: #000000; stroke-width: 0.8; stroke-linejoin: miter; stroke-linecap: square"/>
   </g>
   <g id="legend_1">
    <g id="patch_7">
     <path d="M 306.121563 198.045187 
L 407.72 198.045187 
Q 409.72 198.045187 409.72 196.045187 
L 409.72 153.010812 
Q 409.72 151.010812 407.72 151.010812 
L 306.121563 151.010812 
Q 304.121563 151.010812 304.121563 153.010812 
L 304.121563 196.045187 
Q 304.121563 198.045187 306.121563 198.045187 
z
" style="fill: #ffffff; opacity: 0.8; stroke: #cccccc; stroke-linejoin: miter"/>
    </g>
    <g id="line2d_16">
     <path d="M 308.121563 159.10925 
L 318.121563 159.10925 
L 328.121563 159.10925 
" style="fill: none; stroke: #1f77b4; stroke-width: 1.5; stroke-linecap: square"/>
    </g>
    <g id="text_13">
     <!-- Py2 0.177mm -->
     <g transform="translate(336.121563 162.60925)scale(0.1 -0.1)">
      <defs>
       <path id="DejaVuSans-2e" d="M 684 794 
L 1344 794 
L 1344 0 
L 684 0 
L 684 794 
z
" transform="scale(0.015625)"/>
       <path id="DejaVuSans-37" d="M 525 4666 
L 3525 4666 
L 3525 4397 
L 1831 0 
L 1172 0 
L 2766 4134 
L 525 4134 
L 525 4666 
z
" transform="scale(0.015625)"/>
      </defs>
      <use xlink:href="#DejaVuSans-50"/>
      <use xlink:href="#DejaVuSans-79" x="60.302734"/>
      <use xlink:href="#DejaVuSans-32" x="119.482422"/>
      <use xlink:href="#DejaVuSans-20" x="183.105469"/>
      <use xlink:href="#DejaVuSans-30" x="214.892578"/>
      <use xlink:href="#DejaVuSans-2e" x="278.515625"/>
      <use xlink:href="#DejaVuSans-31" x="310.302734"/>
      <use xlink:href="#DejaVuSans-37" x="373.925781"/>
      <use xlink:href="#DejaVuSans-37" x="437.548828"/>
      <use xlink:href="#DejaVuSans-6d" x="501.171875"/>
      <use xlink:href="#DejaVuSans-6d" x="598.583984"/>
     </g>
    </g>
    <g id="line2d_17">
     <path d="M 308.121563 173.787375 
L 318.121563 173.787375 
L 328.121563 173.787375 
" style="fill: none; stroke-dasharray: 5.55,2.4; stroke-dashoffset: 0; stroke: #ff7f0e; stroke-width: 1.5"/>
    </g>
    <g id="text_14">
     <!-- Py1 0.177mm -->
     <g transform="translate(336.121563 177.287375)scale(0.1 -0.1)">
      <use xlink:href="#DejaVuSans-50"/>
      <use xlink:href="#DejaVuSans-79" x="60.302734"/>
      <use xlink:href="#DejaVuSans-31" x="119.482422"/>
      <use xlink:href="#DejaVuSans-20" x="183.105469"/>
      <use xlink:href="#DejaVuSans-30" x="214.892578"/>
      <use xlink:href="#DejaVuSans-2e" x="278.515625"/>
      <use xlink:href="#DejaVuSans-31" x="310.302734"/>
      <use xlink:href="#DejaVuSans-37" x="373.925781"/>
      <use xlink:href="#DejaVuSans-37" x="437.548828"/>
      <use xlink:href="#DejaVuSans-6d" x="501.171875"/>
      <use xlink:href="#DejaVuSans-6d" x="598.583984"/>
     </g>
    </g>
    <g id="line2d_18">
     <path d="M 308.121563 188.4655 
L 318.121563 188.4655 
L 328.121563 188.4655 
" style="fill: none; stroke: #ff0000; stroke-width: 1.5; stroke-linecap: square"/>
    </g>
    <g id="text_15">
     <!-- Bi -->
     <g transform="translate(336.121563 191.9655)scale(0.1 -0.1)">
      <defs>
       <path id="DejaVuSans-42" d="M 1259 2228 
L 1259 519 
L 2272 519 
Q 2781 519 3026 730 
Q 3272 941 3272 1375 
Q 3272 1813 3026 2020 
Q 2781 2228 2272 2228 
L 1259 2228 
z
M 1259 4147 
L 1259 2741 
L 2194 2741 
Q 2656 2741 2882 2914 
Q 3109 3088 3109 3444 
Q 3109 3797 2882 3972 
Q 2656 4147 2194 4147 
L 1259 4147 
z
M 628 4666 
L 2241 4666 
Q 2963 4666 3353 4366 
Q 3744 4066 3744 3513 
Q 3744 3084 3544 2831 
Q 3344 2578 2956 2516 
Q 3422 2416 3680 2098 
Q 3938 1781 3938 1306 
Q 3938 681 3513 340 
Q 3088 0 2303 0 
L 628 0 
L 628 4666 
z
" transform="scale(0.015625)"/>
      </defs>
      <use xlink:href="#DejaVuSans-42"/>
      <use xlink:href="#DejaVuSans-69" x="68.603516"/>
     </g>
    </g>
   </g>
  </g>
 </g>
 <defs>
  <clipPath id="pcfe1ea4641">
   <rect x="57.6" y="41.472" width="357.12" height="266.112"/>
  </clipPath>
 </defs>
</svg>
