<?xml version="1.0" encoding="utf-8" standalone="no"?>
<!DOCTYPE svg PUBLIC "-//W3C//DTD SVG 1.1//EN"
  "http://www.w3.org/Graphics/SVG/1.1/DTD/svg11.dtd">
<svg xmlns:xlink="http://www.w3.org/1999/xlink" width="460.8pt" height="345.6pt" viewBox="0 0 460.8 345.6" xmlns="http://www.w3.org/2000/svg" version="1.1">
 <metadata>
  <rdf:RDF xmlns:dc="http://purl.org/dc/elements/1.1/" xmlns:cc="http://creativecommons.org/ns#" xmlns:rdf="http://www.w3.org/1999/02/22-rdf-syntax-ns#">
   <cc:Work>
    <dc:type rdf:resource="http://purl.org/dc/dcmitype/StillImage"/>
    <dc:date>2022-04-26T15:54:25.160437</dc:date>
    <dc:format>image/svg+xml</dc:format>
    <dc:creator>
     <cc:Agent>
      <dc:title>Matplotlib v3.5.1, https://matplotlib.org/</dc:title>
     </cc:Agent>
    </dc:creator>
   </cc:Work>
  </rdf:RDF>
 </metadata>
 <defs>
  <style type="text/css">*{stroke-linejoin: round; stroke-linecap: butt}</style>
 </defs>
 <g id="figure_1">
  <g id="patch_1">
   <path d="M 0 345.6 
L 460.8 345.6 
L 460.8 0 
L 0 0 
z
" style="fill: #ffffff"/>
  </g>
  <g id="axes_1">
   <g id="patch_2">
    <path d="M 57.6 307.584 
L 414.72 307.584 
L 414.72 41.472 
L 57.6 41.472 
z
" style="fill: #ffffff"/>
   </g>
   <g id="matplotlib.axis_1">
    <g id="xtick_1">
     <g id="line2d_1">
      <defs>
       <path id="m704b8415e2" d="M 0 0 
L 0 3.5 
" style="stroke: #000000; stroke-width: 0.8"/>
      </defs>
      <g>
       <use xlink:href="#m704b8415e2" x="94.30298" y="307.584" style="stroke: #000000; stroke-width: 0.8"/>
      </g>
     </g>
     <g id="text_1">
      <!-- 400 -->
      <g transform="translate(84.75923 322.182437)scale(0.1 -0.1)">
       <defs>
        <path id="DejaVuSans-34" d="M 2419 4116 
L 825 1625 
L 2419 1625 
L 2419 4116 
z
M 2253 4666 
L 3047 4666 
L 3047 1625 
L 3713 1625 
L 3713 1100 
L 3047 1100 
L 3047 0 
L 2419 0 
L 2419 1100 
L 313 1100 
L 313 1709 
L 2253 4666 
z
" transform="scale(0.015625)"/>
        <path id="DejaVuSans-30" d="M 2034 4250 
Q 1547 4250 1301 3770 
Q 1056 3291 1056 2328 
Q 1056 1369 1301 889 
Q 1547 409 2034 409 
Q 2525 409 2770 889 
Q 3016 1369 3016 2328 
Q 3016 3291 2770 3770 
Q 2525 4250 2034 4250 
z
M 2034 4750 
Q 2819 4750 3233 4129 
Q 3647 3509 3647 2328 
Q 3647 1150 3233 529 
Q 2819 -91 2034 -91 
Q 1250 -91 836 529 
Q 422 1150 422 2328 
Q 422 3509 836 4129 
Q 1250 4750 2034 4750 
z
" transform="scale(0.015625)"/>
       </defs>
       <use xlink:href="#DejaVuSans-34"/>
       <use xlink:href="#DejaVuSans-30" x="63.623047"/>
       <use xlink:href="#DejaVuSans-30" x="127.246094"/>
      </g>
     </g>
    </g>
    <g id="xtick_2">
     <g id="line2d_2">
      <g>
       <use xlink:href="#m704b8415e2" x="167.708941" y="307.584" style="stroke: #000000; stroke-width: 0.8"/>
      </g>
     </g>
     <g id="text_2">
      <!-- 600 -->
      <g transform="translate(158.165191 322.182437)scale(0.1 -0.1)">
       <defs>
        <path id="DejaVuSans-36" d="M 2113 2584 
Q 1688 2584 1439 2293 
Q 1191 2003 1191 1497 
Q 1191 994 1439 701 
Q 1688 409 2113 409 
Q 2538 409 2786 701 
Q 3034 994 3034 1497 
Q 3034 2003 2786 2293 
Q 2538 2584 2113 2584 
z
M 3366 4563 
L 3366 3988 
Q 3128 4100 2886 4159 
Q 2644 4219 2406 4219 
Q 1781 4219 1451 3797 
Q 1122 3375 1075 2522 
Q 1259 2794 1537 2939 
Q 1816 3084 2150 3084 
Q 2853 3084 3261 2657 
Q 3669 2231 3669 1497 
Q 3669 778 3244 343 
Q 2819 -91 2113 -91 
Q 1303 -91 875 529 
Q 447 1150 447 2328 
Q 447 3434 972 4092 
Q 1497 4750 2381 4750 
Q 2619 4750 2861 4703 
Q 3103 4656 3366 4563 
z
" transform="scale(0.015625)"/>
       </defs>
       <use xlink:href="#DejaVuSans-36"/>
       <use xlink:href="#DejaVuSans-30" x="63.623047"/>
       <use xlink:href="#DejaVuSans-30" x="127.246094"/>
      </g>
     </g>
    </g>
    <g id="xtick_3">
     <g id="line2d_3">
      <g>
       <use xlink:href="#m704b8415e2" x="241.114902" y="307.584" style="stroke: #000000; stroke-width: 0.8"/>
      </g>
     </g>
     <g id="text_3">
      <!-- 800 -->
      <g transform="translate(231.571152 322.182437)scale(0.1 -0.1)">
       <defs>
        <path id="DejaVuSans-38" d="M 2034 2216 
Q 1584 2216 1326 1975 
Q 1069 1734 1069 1313 
Q 1069 891 1326 650 
Q 1584 409 2034 409 
Q 2484 409 2743 651 
Q 3003 894 3003 1313 
Q 3003 1734 2745 1975 
Q 2488 2216 2034 2216 
z
M 1403 2484 
Q 997 2584 770 2862 
Q 544 3141 544 3541 
Q 544 4100 942 4425 
Q 1341 4750 2034 4750 
Q 2731 4750 3128 4425 
Q 3525 4100 3525 3541 
Q 3525 3141 3298 2862 
Q 3072 2584 2669 2484 
Q 3125 2378 3379 2068 
Q 3634 1759 3634 1313 
Q 3634 634 3220 271 
Q 2806 -91 2034 -91 
Q 1263 -91 848 271 
Q 434 634 434 1313 
Q 434 1759 690 2068 
Q 947 2378 1403 2484 
z
M 1172 3481 
Q 1172 3119 1398 2916 
Q 1625 2713 2034 2713 
Q 2441 2713 2670 2916 
Q 2900 3119 2900 3481 
Q 2900 3844 2670 4047 
Q 2441 4250 2034 4250 
Q 1625 4250 1398 4047 
Q 1172 3844 1172 3481 
z
" transform="scale(0.015625)"/>
       </defs>
       <use xlink:href="#DejaVuSans-38"/>
       <use xlink:href="#DejaVuSans-30" x="63.623047"/>
       <use xlink:href="#DejaVuSans-30" x="127.246094"/>
      </g>
     </g>
    </g>
    <g id="xtick_4">
     <g id="line2d_4">
      <g>
       <use xlink:href="#m704b8415e2" x="314.520863" y="307.584" style="stroke: #000000; stroke-width: 0.8"/>
      </g>
     </g>
     <g id="text_4">
      <!-- 1000 -->
      <g transform="translate(301.795863 322.182437)scale(0.1 -0.1)">
       <defs>
        <path id="DejaVuSans-31" d="M 794 531 
L 1825 531 
L 1825 4091 
L 703 3866 
L 703 4441 
L 1819 4666 
L 2450 4666 
L 2450 531 
L 3481 531 
L 3481 0 
L 794 0 
L 794 531 
z
" transform="scale(0.015625)"/>
       </defs>
       <use xlink:href="#DejaVuSans-31"/>
       <use xlink:href="#DejaVuSans-30" x="63.623047"/>
       <use xlink:href="#DejaVuSans-30" x="127.246094"/>
       <use xlink:href="#DejaVuSans-30" x="190.869141"/>
      </g>
     </g>
    </g>
    <g id="xtick_5">
     <g id="line2d_5">
      <g>
       <use xlink:href="#m704b8415e2" x="387.926824" y="307.584" style="stroke: #000000; stroke-width: 0.8"/>
      </g>
     </g>
     <g id="text_5">
      <!-- 1200 -->
      <g transform="translate(375.201824 322.182437)scale(0.1 -0.1)">
       <defs>
        <path id="DejaVuSans-32" d="M 1228 531 
L 3431 531 
L 3431 0 
L 469 0 
L 469 531 
Q 828 903 1448 1529 
Q 2069 2156 2228 2338 
Q 2531 2678 2651 2914 
Q 2772 3150 2772 3378 
Q 2772 3750 2511 3984 
Q 2250 4219 1831 4219 
Q 1534 4219 1204 4116 
Q 875 4013 500 3803 
L 500 4441 
Q 881 4594 1212 4672 
Q 1544 4750 1819 4750 
Q 2544 4750 2975 4387 
Q 3406 4025 3406 3419 
Q 3406 3131 3298 2873 
Q 3191 2616 2906 2266 
Q 2828 2175 2409 1742 
Q 1991 1309 1228 531 
z
" transform="scale(0.015625)"/>
       </defs>
       <use xlink:href="#DejaVuSans-31"/>
       <use xlink:href="#DejaVuSans-32" x="63.623047"/>
       <use xlink:href="#DejaVuSans-30" x="127.246094"/>
       <use xlink:href="#DejaVuSans-30" x="190.869141"/>
      </g>
     </g>
    </g>
    <g id="text_6">
     <!-- Temperature (K) -->
     <g transform="translate(195.720937 335.860562)scale(0.1 -0.1)">
      <defs>
       <path id="DejaVuSans-54" d="M -19 4666 
L 3928 4666 
L 3928 4134 
L 2272 4134 
L 2272 0 
L 1638 0 
L 1638 4134 
L -19 4134 
L -19 4666 
z
" transform="scale(0.015625)"/>
       <path id="DejaVuSans-65" d="M 3597 1894 
L 3597 1613 
L 953 1613 
Q 991 1019 1311 708 
Q 1631 397 2203 397 
Q 2534 397 2845 478 
Q 3156 559 3463 722 
L 3463 178 
Q 3153 47 2828 -22 
Q 2503 -91 2169 -91 
Q 1331 -91 842 396 
Q 353 884 353 1716 
Q 353 2575 817 3079 
Q 1281 3584 2069 3584 
Q 2775 3584 3186 3129 
Q 3597 2675 3597 1894 
z
M 3022 2063 
Q 3016 2534 2758 2815 
Q 2500 3097 2075 3097 
Q 1594 3097 1305 2825 
Q 1016 2553 972 2059 
L 3022 2063 
z
" transform="scale(0.015625)"/>
       <path id="DejaVuSans-6d" d="M 3328 2828 
Q 3544 3216 3844 3400 
Q 4144 3584 4550 3584 
Q 5097 3584 5394 3201 
Q 5691 2819 5691 2113 
L 5691 0 
L 5113 0 
L 5113 2094 
Q 5113 2597 4934 2840 
Q 4756 3084 4391 3084 
Q 3944 3084 3684 2787 
Q 3425 2491 3425 1978 
L 3425 0 
L 2847 0 
L 2847 2094 
Q 2847 2600 2669 2842 
Q 2491 3084 2119 3084 
Q 1678 3084 1418 2786 
Q 1159 2488 1159 1978 
L 1159 0 
L 581 0 
L 581 3500 
L 1159 3500 
L 1159 2956 
Q 1356 3278 1631 3431 
Q 1906 3584 2284 3584 
Q 2666 3584 2933 3390 
Q 3200 3197 3328 2828 
z
" transform="scale(0.015625)"/>
       <path id="DejaVuSans-70" d="M 1159 525 
L 1159 -1331 
L 581 -1331 
L 581 3500 
L 1159 3500 
L 1159 2969 
Q 1341 3281 1617 3432 
Q 1894 3584 2278 3584 
Q 2916 3584 3314 3078 
Q 3713 2572 3713 1747 
Q 3713 922 3314 415 
Q 2916 -91 2278 -91 
Q 1894 -91 1617 61 
Q 1341 213 1159 525 
z
M 3116 1747 
Q 3116 2381 2855 2742 
Q 2594 3103 2138 3103 
Q 1681 3103 1420 2742 
Q 1159 2381 1159 1747 
Q 1159 1113 1420 752 
Q 1681 391 2138 391 
Q 2594 391 2855 752 
Q 3116 1113 3116 1747 
z
" transform="scale(0.015625)"/>
       <path id="DejaVuSans-72" d="M 2631 2963 
Q 2534 3019 2420 3045 
Q 2306 3072 2169 3072 
Q 1681 3072 1420 2755 
Q 1159 2438 1159 1844 
L 1159 0 
L 581 0 
L 581 3500 
L 1159 3500 
L 1159 2956 
Q 1341 3275 1631 3429 
Q 1922 3584 2338 3584 
Q 2397 3584 2469 3576 
Q 2541 3569 2628 3553 
L 2631 2963 
z
" transform="scale(0.015625)"/>
       <path id="DejaVuSans-61" d="M 2194 1759 
Q 1497 1759 1228 1600 
Q 959 1441 959 1056 
Q 959 750 1161 570 
Q 1363 391 1709 391 
Q 2188 391 2477 730 
Q 2766 1069 2766 1631 
L 2766 1759 
L 2194 1759 
z
M 3341 1997 
L 3341 0 
L 2766 0 
L 2766 531 
Q 2569 213 2275 61 
Q 1981 -91 1556 -91 
Q 1019 -91 701 211 
Q 384 513 384 1019 
Q 384 1609 779 1909 
Q 1175 2209 1959 2209 
L 2766 2209 
L 2766 2266 
Q 2766 2663 2505 2880 
Q 2244 3097 1772 3097 
Q 1472 3097 1187 3025 
Q 903 2953 641 2809 
L 641 3341 
Q 956 3463 1253 3523 
Q 1550 3584 1831 3584 
Q 2591 3584 2966 3190 
Q 3341 2797 3341 1997 
z
" transform="scale(0.015625)"/>
       <path id="DejaVuSans-74" d="M 1172 4494 
L 1172 3500 
L 2356 3500 
L 2356 3053 
L 1172 3053 
L 1172 1153 
Q 1172 725 1289 603 
Q 1406 481 1766 481 
L 2356 481 
L 2356 0 
L 1766 0 
Q 1100 0 847 248 
Q 594 497 594 1153 
L 594 3053 
L 172 3053 
L 172 3500 
L 594 3500 
L 594 4494 
L 1172 4494 
z
" transform="scale(0.015625)"/>
       <path id="DejaVuSans-75" d="M 544 1381 
L 544 3500 
L 1119 3500 
L 1119 1403 
Q 1119 906 1312 657 
Q 1506 409 1894 409 
Q 2359 409 2629 706 
Q 2900 1003 2900 1516 
L 2900 3500 
L 3475 3500 
L 3475 0 
L 2900 0 
L 2900 538 
Q 2691 219 2414 64 
Q 2138 -91 1772 -91 
Q 1169 -91 856 284 
Q 544 659 544 1381 
z
M 1991 3584 
L 1991 3584 
z
" transform="scale(0.015625)"/>
       <path id="DejaVuSans-20" transform="scale(0.015625)"/>
       <path id="DejaVuSans-28" d="M 1984 4856 
Q 1566 4138 1362 3434 
Q 1159 2731 1159 2009 
Q 1159 1288 1364 580 
Q 1569 -128 1984 -844 
L 1484 -844 
Q 1016 -109 783 600 
Q 550 1309 550 2009 
Q 550 2706 781 3412 
Q 1013 4119 1484 4856 
L 1984 4856 
z
" transform="scale(0.015625)"/>
       <path id="DejaVuSans-4b" d="M 628 4666 
L 1259 4666 
L 1259 2694 
L 3353 4666 
L 4166 4666 
L 1850 2491 
L 4331 0 
L 3500 0 
L 1259 2247 
L 1259 0 
L 628 0 
L 628 4666 
z
" transform="scale(0.015625)"/>
       <path id="DejaVuSans-29" d="M 513 4856 
L 1013 4856 
Q 1481 4119 1714 3412 
Q 1947 2706 1947 2009 
Q 1947 1309 1714 600 
Q 1481 -109 1013 -844 
L 513 -844 
Q 928 -128 1133 580 
Q 1338 1288 1338 2009 
Q 1338 2731 1133 3434 
Q 928 4138 513 4856 
z
" transform="scale(0.015625)"/>
      </defs>
      <use xlink:href="#DejaVuSans-54"/>
      <use xlink:href="#DejaVuSans-65" x="44.083984"/>
      <use xlink:href="#DejaVuSans-6d" x="105.607422"/>
      <use xlink:href="#DejaVuSans-70" x="203.019531"/>
      <use xlink:href="#DejaVuSans-65" x="266.496094"/>
      <use xlink:href="#DejaVuSans-72" x="328.019531"/>
      <use xlink:href="#DejaVuSans-61" x="369.132812"/>
      <use xlink:href="#DejaVuSans-74" x="430.412109"/>
      <use xlink:href="#DejaVuSans-75" x="469.621094"/>
      <use xlink:href="#DejaVuSans-72" x="533"/>
      <use xlink:href="#DejaVuSans-65" x="571.863281"/>
      <use xlink:href="#DejaVuSans-20" x="633.386719"/>
      <use xlink:href="#DejaVuSans-28" x="665.173828"/>
      <use xlink:href="#DejaVuSans-4b" x="704.1875"/>
      <use xlink:href="#DejaVuSans-29" x="769.763672"/>
     </g>
    </g>
   </g>
   <g id="matplotlib.axis_2">
    <g id="ytick_1">
     <g id="line2d_6">
      <defs>
       <path id="ma4345fcf42" d="M 0 0 
L -3.5 0 
" style="stroke: #000000; stroke-width: 0.8"/>
      </defs>
      <g>
       <use xlink:href="#ma4345fcf42" x="57.6" y="270.369718" style="stroke: #000000; stroke-width: 0.8"/>
      </g>
     </g>
     <g id="text_7">
      <!-- $\mathdefault{10^{1}}$ -->
      <g transform="translate(33 274.168937)scale(0.1 -0.1)">
       <use xlink:href="#DejaVuSans-31" transform="translate(0 0.684375)"/>
       <use xlink:href="#DejaVuSans-30" transform="translate(63.623047 0.684375)"/>
       <use xlink:href="#DejaVuSans-31" transform="translate(128.203125 38.965625)scale(0.7)"/>
      </g>
     </g>
    </g>
    <g id="ytick_2">
     <g id="line2d_7">
      <g>
       <use xlink:href="#ma4345fcf42" x="57.6" y="232.692295" style="stroke: #000000; stroke-width: 0.8"/>
      </g>
     </g>
     <g id="text_8">
      <!-- $\mathdefault{10^{4}}$ -->
      <g transform="translate(33 236.491514)scale(0.1 -0.1)">
       <use xlink:href="#DejaVuSans-31" transform="translate(0 0.684375)"/>
       <use xlink:href="#DejaVuSans-30" transform="translate(63.623047 0.684375)"/>
       <use xlink:href="#DejaVuSans-34" transform="translate(128.203125 38.965625)scale(0.7)"/>
      </g>
     </g>
    </g>
    <g id="ytick_3">
     <g id="line2d_8">
      <g>
       <use xlink:href="#ma4345fcf42" x="57.6" y="195.014872" style="stroke: #000000; stroke-width: 0.8"/>
      </g>
     </g>
     <g id="text_9">
      <!-- $\mathdefault{10^{7}}$ -->
      <g transform="translate(33 198.814091)scale(0.1 -0.1)">
       <defs>
        <path id="DejaVuSans-37" d="M 525 4666 
L 3525 4666 
L 3525 4397 
L 1831 0 
L 1172 0 
L 2766 4134 
L 525 4134 
L 525 4666 
z
" transform="scale(0.015625)"/>
       </defs>
       <use xlink:href="#DejaVuSans-31" transform="translate(0 0.684375)"/>
       <use xlink:href="#DejaVuSans-30" transform="translate(63.623047 0.684375)"/>
       <use xlink:href="#DejaVuSans-37" transform="translate(128.203125 38.965625)scale(0.7)"/>
      </g>
     </g>
    </g>
    <g id="ytick_4">
     <g id="line2d_9">
      <g>
       <use xlink:href="#ma4345fcf42" x="57.6" y="157.33745" style="stroke: #000000; stroke-width: 0.8"/>
      </g>
     </g>
     <g id="text_10">
      <!-- $\mathdefault{10^{10}}$ -->
      <g transform="translate(28.5 161.136668)scale(0.1 -0.1)">
       <use xlink:href="#DejaVuSans-31" transform="translate(0 0.765625)"/>
       <use xlink:href="#DejaVuSans-30" transform="translate(63.623047 0.765625)"/>
       <use xlink:href="#DejaVuSans-31" transform="translate(128.203125 39.046875)scale(0.7)"/>
       <use xlink:href="#DejaVuSans-30" transform="translate(172.739258 39.046875)scale(0.7)"/>
      </g>
     </g>
    </g>
    <g id="ytick_5">
     <g id="line2d_10">
      <g>
       <use xlink:href="#ma4345fcf42" x="57.6" y="119.660027" style="stroke: #000000; stroke-width: 0.8"/>
      </g>
     </g>
     <g id="text_11">
      <!-- $\mathdefault{10^{13}}$ -->
      <g transform="translate(28.5 123.459245)scale(0.1 -0.1)">
       <defs>
        <path id="DejaVuSans-33" d="M 2597 2516 
Q 3050 2419 3304 2112 
Q 3559 1806 3559 1356 
Q 3559 666 3084 287 
Q 2609 -91 1734 -91 
Q 1441 -91 1130 -33 
Q 819 25 488 141 
L 488 750 
Q 750 597 1062 519 
Q 1375 441 1716 441 
Q 2309 441 2620 675 
Q 2931 909 2931 1356 
Q 2931 1769 2642 2001 
Q 2353 2234 1838 2234 
L 1294 2234 
L 1294 2753 
L 1863 2753 
Q 2328 2753 2575 2939 
Q 2822 3125 2822 3475 
Q 2822 3834 2567 4026 
Q 2313 4219 1838 4219 
Q 1578 4219 1281 4162 
Q 984 4106 628 3988 
L 628 4550 
Q 988 4650 1302 4700 
Q 1616 4750 1894 4750 
Q 2613 4750 3031 4423 
Q 3450 4097 3450 3541 
Q 3450 3153 3228 2886 
Q 3006 2619 2597 2516 
z
" transform="scale(0.015625)"/>
       </defs>
       <use xlink:href="#DejaVuSans-31" transform="translate(0 0.765625)"/>
       <use xlink:href="#DejaVuSans-30" transform="translate(63.623047 0.765625)"/>
       <use xlink:href="#DejaVuSans-31" transform="translate(128.203125 39.046875)scale(0.7)"/>
       <use xlink:href="#DejaVuSans-33" transform="translate(172.739258 39.046875)scale(0.7)"/>
      </g>
     </g>
    </g>
    <g id="ytick_6">
     <g id="line2d_11">
      <g>
       <use xlink:href="#ma4345fcf42" x="57.6" y="81.982604" style="stroke: #000000; stroke-width: 0.8"/>
      </g>
     </g>
     <g id="text_12">
      <!-- $\mathdefault{10^{16}}$ -->
      <g transform="translate(28.5 85.781823)scale(0.1 -0.1)">
       <use xlink:href="#DejaVuSans-31" transform="translate(0 0.765625)"/>
       <use xlink:href="#DejaVuSans-30" transform="translate(63.623047 0.765625)"/>
       <use xlink:href="#DejaVuSans-31" transform="translate(128.203125 39.046875)scale(0.7)"/>
       <use xlink:href="#DejaVuSans-36" transform="translate(172.739258 39.046875)scale(0.7)"/>
      </g>
     </g>
    </g>
    <g id="ytick_7">
     <g id="line2d_12">
      <g>
       <use xlink:href="#ma4345fcf42" x="57.6" y="44.305181" style="stroke: #000000; stroke-width: 0.8"/>
      </g>
     </g>
     <g id="text_13">
      <!-- $\mathdefault{10^{19}}$ -->
      <g transform="translate(28.5 48.1044)scale(0.1 -0.1)">
       <defs>
        <path id="DejaVuSans-39" d="M 703 97 
L 703 672 
Q 941 559 1184 500 
Q 1428 441 1663 441 
Q 2288 441 2617 861 
Q 2947 1281 2994 2138 
Q 2813 1869 2534 1725 
Q 2256 1581 1919 1581 
Q 1219 1581 811 2004 
Q 403 2428 403 3163 
Q 403 3881 828 4315 
Q 1253 4750 1959 4750 
Q 2769 4750 3195 4129 
Q 3622 3509 3622 2328 
Q 3622 1225 3098 567 
Q 2575 -91 1691 -91 
Q 1453 -91 1209 -44 
Q 966 3 703 97 
z
M 1959 2075 
Q 2384 2075 2632 2365 
Q 2881 2656 2881 3163 
Q 2881 3666 2632 3958 
Q 2384 4250 1959 4250 
Q 1534 4250 1286 3958 
Q 1038 3666 1038 3163 
Q 1038 2656 1286 2365 
Q 1534 2075 1959 2075 
z
" transform="scale(0.015625)"/>
       </defs>
       <use xlink:href="#DejaVuSans-31" transform="translate(0 0.765625)"/>
       <use xlink:href="#DejaVuSans-30" transform="translate(63.623047 0.765625)"/>
       <use xlink:href="#DejaVuSans-31" transform="translate(128.203125 39.046875)scale(0.7)"/>
       <use xlink:href="#DejaVuSans-39" transform="translate(172.739258 39.046875)scale(0.7)"/>
      </g>
     </g>
    </g>
    <g id="text_14">
     <!-- Pyrolysis number -->
     <g transform="translate(22.420312 217.554563)rotate(-90)scale(0.1 -0.1)">
      <defs>
       <path id="DejaVuSans-50" d="M 1259 4147 
L 1259 2394 
L 2053 2394 
Q 2494 2394 2734 2622 
Q 2975 2850 2975 3272 
Q 2975 3691 2734 3919 
Q 2494 4147 2053 4147 
L 1259 4147 
z
M 628 4666 
L 2053 4666 
Q 2838 4666 3239 4311 
Q 3641 3956 3641 3272 
Q 3641 2581 3239 2228 
Q 2838 1875 2053 1875 
L 1259 1875 
L 1259 0 
L 628 0 
L 628 4666 
z
" transform="scale(0.015625)"/>
       <path id="DejaVuSans-79" d="M 2059 -325 
Q 1816 -950 1584 -1140 
Q 1353 -1331 966 -1331 
L 506 -1331 
L 506 -850 
L 844 -850 
Q 1081 -850 1212 -737 
Q 1344 -625 1503 -206 
L 1606 56 
L 191 3500 
L 800 3500 
L 1894 763 
L 2988 3500 
L 3597 3500 
L 2059 -325 
z
" transform="scale(0.015625)"/>
       <path id="DejaVuSans-6f" d="M 1959 3097 
Q 1497 3097 1228 2736 
Q 959 2375 959 1747 
Q 959 1119 1226 758 
Q 1494 397 1959 397 
Q 2419 397 2687 759 
Q 2956 1122 2956 1747 
Q 2956 2369 2687 2733 
Q 2419 3097 1959 3097 
z
M 1959 3584 
Q 2709 3584 3137 3096 
Q 3566 2609 3566 1747 
Q 3566 888 3137 398 
Q 2709 -91 1959 -91 
Q 1206 -91 779 398 
Q 353 888 353 1747 
Q 353 2609 779 3096 
Q 1206 3584 1959 3584 
z
" transform="scale(0.015625)"/>
       <path id="DejaVuSans-6c" d="M 603 4863 
L 1178 4863 
L 1178 0 
L 603 0 
L 603 4863 
z
" transform="scale(0.015625)"/>
       <path id="DejaVuSans-73" d="M 2834 3397 
L 2834 2853 
Q 2591 2978 2328 3040 
Q 2066 3103 1784 3103 
Q 1356 3103 1142 2972 
Q 928 2841 928 2578 
Q 928 2378 1081 2264 
Q 1234 2150 1697 2047 
L 1894 2003 
Q 2506 1872 2764 1633 
Q 3022 1394 3022 966 
Q 3022 478 2636 193 
Q 2250 -91 1575 -91 
Q 1294 -91 989 -36 
Q 684 19 347 128 
L 347 722 
Q 666 556 975 473 
Q 1284 391 1588 391 
Q 1994 391 2212 530 
Q 2431 669 2431 922 
Q 2431 1156 2273 1281 
Q 2116 1406 1581 1522 
L 1381 1569 
Q 847 1681 609 1914 
Q 372 2147 372 2553 
Q 372 3047 722 3315 
Q 1072 3584 1716 3584 
Q 2034 3584 2315 3537 
Q 2597 3491 2834 3397 
z
" transform="scale(0.015625)"/>
       <path id="DejaVuSans-69" d="M 603 3500 
L 1178 3500 
L 1178 0 
L 603 0 
L 603 3500 
z
M 603 4863 
L 1178 4863 
L 1178 4134 
L 603 4134 
L 603 4863 
z
" transform="scale(0.015625)"/>
       <path id="DejaVuSans-6e" d="M 3513 2113 
L 3513 0 
L 2938 0 
L 2938 2094 
Q 2938 2591 2744 2837 
Q 2550 3084 2163 3084 
Q 1697 3084 1428 2787 
Q 1159 2491 1159 1978 
L 1159 0 
L 581 0 
L 581 3500 
L 1159 3500 
L 1159 2956 
Q 1366 3272 1645 3428 
Q 1925 3584 2291 3584 
Q 2894 3584 3203 3211 
Q 3513 2838 3513 2113 
z
" transform="scale(0.015625)"/>
       <path id="DejaVuSans-62" d="M 3116 1747 
Q 3116 2381 2855 2742 
Q 2594 3103 2138 3103 
Q 1681 3103 1420 2742 
Q 1159 2381 1159 1747 
Q 1159 1113 1420 752 
Q 1681 391 2138 391 
Q 2594 391 2855 752 
Q 3116 1113 3116 1747 
z
M 1159 2969 
Q 1341 3281 1617 3432 
Q 1894 3584 2278 3584 
Q 2916 3584 3314 3078 
Q 3713 2572 3713 1747 
Q 3713 922 3314 415 
Q 2916 -91 2278 -91 
Q 1894 -91 1617 61 
Q 1341 213 1159 525 
L 1159 0 
L 581 0 
L 581 4863 
L 1159 4863 
L 1159 2969 
z
" transform="scale(0.015625)"/>
      </defs>
      <use xlink:href="#DejaVuSans-50"/>
      <use xlink:href="#DejaVuSans-79" x="60.302734"/>
      <use xlink:href="#DejaVuSans-72" x="119.482422"/>
      <use xlink:href="#DejaVuSans-6f" x="158.345703"/>
      <use xlink:href="#DejaVuSans-6c" x="219.527344"/>
      <use xlink:href="#DejaVuSans-79" x="247.310547"/>
      <use xlink:href="#DejaVuSans-73" x="306.490234"/>
      <use xlink:href="#DejaVuSans-69" x="358.589844"/>
      <use xlink:href="#DejaVuSans-73" x="386.373047"/>
      <use xlink:href="#DejaVuSans-20" x="438.472656"/>
      <use xlink:href="#DejaVuSans-6e" x="470.259766"/>
      <use xlink:href="#DejaVuSans-75" x="533.638672"/>
      <use xlink:href="#DejaVuSans-6d" x="597.017578"/>
      <use xlink:href="#DejaVuSans-62" x="694.429688"/>
      <use xlink:href="#DejaVuSans-65" x="757.90625"/>
      <use xlink:href="#DejaVuSans-72" x="819.429688"/>
     </g>
    </g>
   </g>
   <g id="line2d_13">
    <path d="M 57.6 219.825612 
L 57.6 219.824931 
L 57.697997 219.893367 
L 60.474944 221.763261 
L 64.200297 224.044889 
L 64.916005 224.450086 
L 66.567639 225.345342 
L 67.999055 226.071012 
L 71.112936 227.474253 
L 71.424912 227.597805 
L 74.171396 228.580166 
L 74.397853 228.646804 
L 75.052267 228.838334 
L 77.499255 229.411823 
L 79.744009 229.715966 
L 81.823967 229.778284 
L 83.781337 229.615854 
L 85.616486 229.242455 
L 87.384469 228.665591 
L 87.531281 228.595323 
L 89.219618 227.792719 
L 89.36643 227.697768 
L 91.018064 226.63137 
L 92.651346 225.31118 
L 94.296741 223.708481 
L 94.443553 223.530415 
L 96.13189 221.532748 
L 96.278702 221.319992 
L 98.034572 218.829526 
L 100.169218 215.408118 
L 100.31603 215.134933 
L 102.597854 211.486083 
L 102.6775 211.400571 
L 102.824311 211.179988 
L 103.760237 210.132823 
L 103.864107 210.042131 
L 104.555224 209.589975 
L 104.696163 209.545735 
L 104.702036 209.528885 
L 105.350578 209.405438 
L 105.577035 209.41628 
L 106.268152 209.602381 
L 106.837048 209.904869 
L 106.98386 209.994607 
L 108.066598 210.844933 
L 109.877156 212.593778 
L 121.298023 223.923787 
L 126.149056 228.286622 
L 132.205047 233.251923 
L 135.630536 235.78057 
L 137.918233 237.343001 
L 141.527604 239.590193 
L 144.8918 241.426211 
L 147.699578 242.719889 
L 147.907683 242.800652 
L 150.152805 243.577829 
L 152.043008 244.007258 
L 152.18982 244.023569 
L 153.902381 244.160214 
L 155.590718 244.073677 
L 155.73753 244.045986 
L 157.73197 243.672411 
L 157.878782 243.6269 
L 161.139108 242.930615 
L 161.402268 242.914302 
L 161.54908 242.896042 
L 162.772391 242.929706 
L 163.891831 243.167789 
L 164.852348 243.53272 
L 166.179528 244.242362 
L 167.95375 245.427347 
L 175.538788 250.580585 
L 177.985776 251.765406 
L 179.875979 252.336443 
L 180.102437 252.372803 
L 180.548745 252.43789 
L 180.738499 252.450415 
L 182.145325 252.394706 
L 183.424057 252.033532 
L 183.570868 251.95761 
L 184.708661 251.304404 
L 184.855473 251.18174 
L 186.060432 250.109417 
L 187.650772 248.257235 
L 190.562786 244.59676 
L 190.666656 244.483758 
L 191.969612 243.222359 
L 192.110184 243.117162 
L 192.256996 242.977739 
L 194.416599 241.300849 
L 194.557172 241.20756 
L 194.703984 241.079471 
L 200.839621 236.44454 
L 201.004784 236.36327 
L 202.185152 235.914421 
L 202.393258 235.859362 
L 203.592344 235.668682 
L 203.861377 235.651954 
L 205.427493 235.684035 
L 205.75782 235.709202 
L 209.997014 235.947367 
L 211.832163 235.779515 
L 213.544725 235.400829 
L 215.196359 234.808911 
L 216.823769 233.999816 
L 216.970581 233.898846 
L 218.542569 232.828754 
L 220.151261 231.457029 
L 221.900892 229.678419 
L 222.047704 229.495692 
L 224.922648 226.113773 
L 227.449282 223.282304 
L 227.553151 223.173228 
L 231.486609 219.205417 
L 231.627182 219.07886 
L 231.792345 218.89394 
L 231.932918 218.766936 
L 232.098081 218.581414 
L 232.239021 218.454116 
L 232.385833 218.286989 
L 235.646158 215.089825 
L 235.786731 214.983803 
L 235.933543 214.844356 
L 237.297792 213.844568 
L 237.444604 213.756181 
L 238.521103 213.24201 
L 238.729209 213.171188 
L 239.74478 212.960396 
L 240.068867 212.945813 
L 240.215679 212.93625 
L 241.316769 213.041772 
L 242.619725 213.402083 
L 250.168427 217.244219 
L 258.487524 221.675156 
L 265.760954 225.290149 
L 267.846784 226.275043 
L 274.019124 229.030949 
L 274.942938 229.419186 
L 280.387091 231.560743 
L 284.91367 233.102393 
L 288.908422 234.229406 
L 292.456133 235.000497 
L 295.63718 235.469921 
L 298.671415 235.696785 
L 298.836579 235.697099 
L 299.246184 235.707091 
L 302.121495 235.65106 
L 305.094437 235.37504 
L 305.241249 235.348543 
L 308.764735 234.774713 
L 308.911547 234.738838 
L 321.49443 232.231334 
L 323.505753 231.53389 
L 323.670916 231.452474 
L 323.83608 231.380397 
L 325.550109 230.49964 
L 327.120997 229.443779 
L 328.651511 228.146342 
L 330.137982 226.591026 
L 331.642804 224.706325 
L 331.807967 224.451984 
L 331.892384 224.330247 
L 333.415558 221.984619 
L 333.580721 221.676665 
L 333.661468 221.566685 
L 333.826631 221.251186 
L 333.907378 221.138343 
L 334.035838 220.881331 
L 335.687472 217.68714 
L 338.311735 212.055084 
L 338.440196 211.752278 
L 339.699108 209.346848 
L 339.779854 209.242309 
L 339.908315 209.012768 
L 340.737802 207.919168 
L 340.844241 207.811788 
L 341.534257 207.265475 
L 341.69942 207.176235 
L 342.389436 206.953736 
L 342.716093 206.927632 
L 342.844553 206.918715 
L 343.736436 207.027923 
L 344.976997 207.400842 
L 345.369718 207.54155 
L 355.316226 211.127261 
L 355.664904 211.229871 
L 356.72195 211.537441 
L 357.052277 211.626903 
L 360.601455 212.484483 
L 363.702857 213.012299 
L 366.510635 213.273542 
L 366.701491 213.27746 
L 369.226656 213.273021 
L 371.549954 213.048354 
L 373.693408 212.621785 
L 375.712072 211.995686 
L 377.642649 211.17307 
L 377.807813 211.079079 
L 377.972976 210.994255 
L 379.808125 209.915115 
L 381.621252 208.597224 
L 381.749713 208.476733 
L 383.460072 206.917837 
L 385.174101 205.053787 
L 386.880789 202.87792 
L 387.045953 202.623809 
L 387.13037 202.501981 
L 388.800355 199.924748 
L 390.488692 196.926276 
L 390.653856 196.577272 
L 390.734602 196.450081 
L 390.899766 196.093775 
L 390.980512 195.963813 
L 391.108973 195.674803 
L 392.778958 192.030872 
L 394.467295 187.837209 
L 394.595756 187.453494 
L 396.302444 182.544689 
L 396.430905 182.101787 
L 398.137593 176.435813 
L 398.266054 175.92627 
L 399.972742 169.408165 
L 400.101203 168.823629 
L 401.807891 161.347166 
L 401.936352 160.678323 
L 403.646711 152.021574 
L 405.415794 141.971349 
L 405.580958 140.878833 
L 405.625001 140.614274 
L 407.379404 129.046491 
L 409.148488 115.972369 
L 409.276948 114.849127 
L 411.049702 99.776027 
L 412.822456 82.76456 
L 414.653935 63.103138 
L 414.72 61.744029 
L 414.72 61.744029 
" clip-path="url(#pd36ba42dd4)" style="fill: none; stroke: #1f77b4; stroke-width: 1.5; stroke-linecap: square"/>
   </g>
   <g id="line2d_14">
    <path d="M 57.6 206.572975 
L 57.6 206.572294 
L 57.697997 206.642967 
L 60.474944 208.575972 
L 64.200297 210.941387 
L 64.916005 211.362564 
L 66.585991 212.305924 
L 67.118184 212.591565 
L 68.488673 213.299529 
L 71.547133 214.705175 
L 74.354911 215.756671 
L 74.581368 215.826711 
L 75.235782 216.028082 
L 77.664418 216.632776 
L 79.921652 216.974425 
L 80.068464 216.982485 
L 82.12383 217.060305 
L 82.270642 217.049852 
L 84.209661 216.878276 
L 86.04481 216.489358 
L 87.776089 215.895666 
L 89.470299 215.076657 
L 91.116061 214.046674 
L 91.262873 213.926299 
L 92.896155 212.597772 
L 94.54155 210.983383 
L 94.688362 210.803757 
L 96.376699 208.791129 
L 96.523511 208.57663 
L 98.297366 206.043696 
L 100.597542 202.35059 
L 100.744354 202.080158 
L 102.659148 199.105598 
L 102.744666 198.991173 
L 103.698943 197.913146 
L 103.802813 197.821191 
L 104.494297 197.359042 
L 104.634869 197.312954 
L 104.76333 197.252307 
L 105.411872 197.163613 
L 105.674665 197.201259 
L 105.778901 197.212866 
L 106.109228 197.312242 
L 106.879991 197.713772 
L 110.268777 200.844987 
L 118.624945 209.403299 
L 127.574232 217.681858 
L 130.333195 220.005828 
L 134.388875 223.187212 
L 138.181394 225.880708 
L 141.772046 228.160167 
L 145.130369 230.033822 
L 145.399769 230.168649 
L 148.195068 231.452142 
L 150.391374 232.224604 
L 150.538186 232.261355 
L 152.410038 232.670023 
L 152.55685 232.684411 
L 154.25106 232.799675 
L 155.957748 232.693453 
L 156.10456 232.664144 
L 158.22746 232.247926 
L 161.016887 231.697429 
L 161.27968 231.681887 
L 161.426492 231.663652 
L 162.668521 231.697618 
L 163.059775 231.757463 
L 164.179216 232.066523 
L 165.402893 232.625801 
L 166.889364 233.541301 
L 168.68157 234.826312 
L 169.213764 235.224038 
L 170.822455 236.415878 
L 171.317945 236.778781 
L 175.067889 239.289228 
L 177.496525 240.579251 
L 179.472247 241.291761 
L 180.977069 241.539876 
L 181.142232 241.540558 
L 181.46632 241.547862 
L 181.631483 241.534245 
L 181.900883 241.514236 
L 183.185487 241.223289 
L 184.408798 240.619262 
L 185.687162 239.6363 
L 185.833974 239.480443 
L 187.216576 237.9879 
L 187.363387 237.788092 
L 191.235552 233.126133 
L 191.339421 233.026874 
L 192.764965 231.816449 
L 192.905538 231.722832 
L 193.052349 231.595958 
L 200.778327 225.845051 
L 200.925139 225.773311 
L 202.124225 225.320948 
L 202.326092 225.278567 
L 202.454552 225.23829 
L 203.653271 225.075416 
L 203.922671 225.064474 
L 205.549714 225.131694 
L 205.880041 225.162962 
L 209.911129 225.459248 
L 210.057941 225.448977 
L 211.874739 225.302314 
L 213.587667 224.942233 
L 215.239301 224.367605 
L 216.847993 223.571209 
L 218.420348 222.543329 
L 220.010689 221.232324 
L 221.741968 219.502178 
L 224.164365 216.738563 
L 224.311177 216.545258 
L 227.204473 213.284415 
L 227.308342 213.175462 
L 230.446447 210.042002 
L 230.587386 209.919184 
L 230.734198 209.757361 
L 236.135409 204.542301 
L 236.276348 204.446516 
L 236.42316 204.319567 
L 237.664822 203.515876 
L 237.829986 203.430976 
L 238.888133 203.02402 
L 239.11459 202.968557 
L 240.11181 202.854578 
L 240.460488 202.86238 
L 241.579929 203.032699 
L 242.295637 203.238701 
L 243.885977 203.884399 
L 246.351317 205.156119 
L 255.000741 209.963502 
L 262.37804 213.844866 
L 267.149428 216.211166 
L 270.960665 218.007158 
L 272.697817 218.793466 
L 278.301261 221.172952 
L 279.041193 221.465349 
L 283.623193 223.152941 
L 284.05739 223.298195 
L 288.088478 224.536606 
L 288.376229 224.612904 
L 289.257101 224.84491 
L 292.762235 225.625753 
L 295.942916 226.110109 
L 298.922097 226.341319 
L 301.815393 226.342438 
L 304.751631 226.119728 
L 308.116193 225.633753 
L 320.228177 223.448875 
L 322.529454 222.815308 
L 322.657914 222.760419 
L 324.485723 222.016529 
L 324.650886 221.923107 
L 324.797698 221.849014 
L 326.441991 220.895247 
L 326.607155 220.768423 
L 326.750296 220.685407 
L 326.878757 220.579129 
L 328.401931 219.366466 
L 328.530391 219.232352 
L 330.016862 217.718341 
L 331.521684 215.878142 
L 331.650144 215.679782 
L 333.173318 213.413356 
L 333.301778 213.17568 
L 334.883677 210.36139 
L 335.04884 210.010777 
L 335.129587 209.884916 
L 335.29475 209.527408 
L 335.375497 209.398976 
L 335.503957 209.109331 
L 337.761191 204.313712 
L 337.889651 204.002317 
L 339.453198 200.854801 
L 339.533945 200.743313 
L 339.699108 200.437288 
L 339.779854 200.3336 
L 339.908315 200.105411 
L 340.737802 199.020535 
L 340.844241 198.914273 
L 341.534257 198.375204 
L 341.69942 198.287696 
L 342.389436 198.072428 
L 342.716093 198.049744 
L 342.844553 198.042171 
L 343.736436 198.160701 
L 344.976997 198.546558 
L 345.369718 198.691356 
L 355.316226 202.379535 
L 355.664904 202.4857 
L 356.72195 202.804029 
L 357.052277 202.89685 
L 360.601455 203.790367 
L 363.702857 204.349376 
L 366.510635 204.638692 
L 366.701491 204.644513 
L 369.226656 204.665178 
L 371.531603 204.466012 
L 373.693408 204.058042 
L 375.712072 203.451746 
L 377.605946 202.654699 
L 379.441095 201.644185 
L 381.254222 200.40017 
L 381.382683 200.285608 
L 383.111393 198.786768 
L 384.825422 197.004244 
L 386.5211 194.911862 
L 388.191086 192.49124 
L 389.879423 189.666557 
L 390.007883 189.404463 
L 391.677869 186.100255 
L 393.366206 182.285329 
L 393.494666 181.935103 
L 395.201355 177.455374 
L 395.329815 177.050032 
L 397.036504 171.865136 
L 397.164964 171.397745 
L 398.871653 165.418911 
L 399.000113 164.881638 
L 400.706802 158.009537 
L 400.835262 157.393674 
L 402.545621 149.421667 
L 404.314705 140.152879 
L 404.479868 139.144042 
L 404.523912 138.899827 
L 406.270974 128.337924 
L 406.436137 127.179036 
L 406.480181 126.898363 
L 408.234583 114.630429 
L 410.029359 100.460353 
L 411.802113 84.607257 
L 413.61157 66.466329 
L 413.776733 64.54912 
L 413.820777 64.084377 
L 414.72 53.568 
L 414.72 53.568 
" clip-path="url(#pd36ba42dd4)" style="fill: none; stroke-dasharray: 5.55,2.4; stroke-dashoffset: 0; stroke: #ff7f0e; stroke-width: 1.5"/>
   </g>
   <g id="line2d_15">
    <path d="M 57.6 269.676222 
L 113.75556 270.847362 
L 177.129495 271.939851 
L 251.758767 272.997496 
L 341.027756 274.033272 
L 414.72 274.75283 
L 414.72 274.75283 
" clip-path="url(#pd36ba42dd4)" style="fill: none; stroke: #ff0000; stroke-width: 1.5; stroke-linecap: square"/>
   </g>
   <g id="line2d_16">
    <path d="M -1 295.488 
L 461.8 295.488 
" clip-path="url(#pd36ba42dd4)" style="fill: none; stroke-dasharray: 5.55,2.4; stroke-dashoffset: 0; stroke: #2ca02c; stroke-width: 1.5"/>
   </g>
   <g id="line2d_17">
    <path d="M -1 270.369718 
L 461.8 270.369718 
" clip-path="url(#pd36ba42dd4)" style="fill: none; stroke-dasharray: 5.55,2.4; stroke-dashoffset: 0; stroke: #d62728; stroke-width: 1.5"/>
   </g>
   <g id="patch_3">
    <path d="M 57.6 307.584 
L 57.6 41.472 
" style="fill: none; stroke: #000000; stroke-width: 0.8; stroke-linejoin: miter; stroke-linecap: square"/>
   </g>
   <g id="patch_4">
    <path d="M 414.72 307.584 
L 414.72 41.472 
" style="fill: none; stroke: #000000; stroke-width: 0.8; stroke-linejoin: miter; stroke-linecap: square"/>
   </g>
   <g id="patch_5">
    <path d="M 57.6 307.584 
L 414.72 307.584 
" style="fill: none; stroke: #000000; stroke-width: 0.8; stroke-linejoin: miter; stroke-linecap: square"/>
   </g>
   <g id="patch_6">
    <path d="M 57.6 41.472 
L 414.72 41.472 
" style="fill: none; stroke: #000000; stroke-width: 0.8; stroke-linejoin: miter; stroke-linecap: square"/>
   </g>
   <g id="legend_1">
    <g id="patch_7">
     <path d="M 318.846563 93.506375 
L 407.72 93.506375 
Q 409.72 93.506375 409.72 91.506375 
L 409.72 48.472 
Q 409.72 46.472 407.72 46.472 
L 318.846563 46.472 
Q 316.846563 46.472 316.846563 48.472 
L 316.846563 91.506375 
Q 316.846563 93.506375 318.846563 93.506375 
z
" style="fill: #ffffff; opacity: 0.8; stroke: #cccccc; stroke-linejoin: miter"/>
    </g>
    <g id="line2d_18">
     <path d="M 320.846563 54.570438 
L 330.846563 54.570438 
L 340.846563 54.570438 
" style="fill: none; stroke: #1f77b4; stroke-width: 1.5; stroke-linecap: square"/>
    </g>
    <g id="text_15">
     <!-- Py2 0.4mm -->
     <g transform="translate(348.846563 58.070438)scale(0.1 -0.1)">
      <defs>
       <path id="DejaVuSans-2e" d="M 684 794 
L 1344 794 
L 1344 0 
L 684 0 
L 684 794 
z
" transform="scale(0.015625)"/>
      </defs>
      <use xlink:href="#DejaVuSans-50"/>
      <use xlink:href="#DejaVuSans-79" x="60.302734"/>
      <use xlink:href="#DejaVuSans-32" x="119.482422"/>
      <use xlink:href="#DejaVuSans-20" x="183.105469"/>
      <use xlink:href="#DejaVuSans-30" x="214.892578"/>
      <use xlink:href="#DejaVuSans-2e" x="278.515625"/>
      <use xlink:href="#DejaVuSans-34" x="310.302734"/>
      <use xlink:href="#DejaVuSans-6d" x="373.925781"/>
      <use xlink:href="#DejaVuSans-6d" x="471.337891"/>
     </g>
    </g>
    <g id="line2d_19">
     <path d="M 320.846563 69.248563 
L 330.846563 69.248563 
L 340.846563 69.248563 
" style="fill: none; stroke-dasharray: 5.55,2.4; stroke-dashoffset: 0; stroke: #ff7f0e; stroke-width: 1.5"/>
    </g>
    <g id="text_16">
     <!-- Py1 0.4mm -->
     <g transform="translate(348.846563 72.748563)scale(0.1 -0.1)">
      <use xlink:href="#DejaVuSans-50"/>
      <use xlink:href="#DejaVuSans-79" x="60.302734"/>
      <use xlink:href="#DejaVuSans-31" x="119.482422"/>
      <use xlink:href="#DejaVuSans-20" x="183.105469"/>
      <use xlink:href="#DejaVuSans-30" x="214.892578"/>
      <use xlink:href="#DejaVuSans-2e" x="278.515625"/>
      <use xlink:href="#DejaVuSans-34" x="310.302734"/>
      <use xlink:href="#DejaVuSans-6d" x="373.925781"/>
      <use xlink:href="#DejaVuSans-6d" x="471.337891"/>
     </g>
    </g>
    <g id="line2d_20">
     <path d="M 320.846563 83.926688 
L 330.846563 83.926688 
L 340.846563 83.926688 
" style="fill: none; stroke: #ff0000; stroke-width: 1.5; stroke-linecap: square"/>
    </g>
    <g id="text_17">
     <!-- Bi -->
     <g transform="translate(348.846563 87.426688)scale(0.1 -0.1)">
      <defs>
       <path id="DejaVuSans-42" d="M 1259 2228 
L 1259 519 
L 2272 519 
Q 2781 519 3026 730 
Q 3272 941 3272 1375 
Q 3272 1813 3026 2020 
Q 2781 2228 2272 2228 
L 1259 2228 
z
M 1259 4147 
L 1259 2741 
L 2194 2741 
Q 2656 2741 2882 2914 
Q 3109 3088 3109 3444 
Q 3109 3797 2882 3972 
Q 2656 4147 2194 4147 
L 1259 4147 
z
M 628 4666 
L 2241 4666 
Q 2963 4666 3353 4366 
Q 3744 4066 3744 3513 
Q 3744 3084 3544 2831 
Q 3344 2578 2956 2516 
Q 3422 2416 3680 2098 
Q 3938 1781 3938 1306 
Q 3938 681 3513 340 
Q 3088 0 2303 0 
L 628 0 
L 628 4666 
z
" transform="scale(0.015625)"/>
      </defs>
      <use xlink:href="#DejaVuSans-42"/>
      <use xlink:href="#DejaVuSans-69" x="68.603516"/>
     </g>
    </g>
   </g>
  </g>
 </g>
 <defs>
  <clipPath id="pd36ba42dd4">
   <rect x="57.6" y="41.472" width="357.12" height="266.112"/>
  </clipPath>
 </defs>
</svg>
