<?xml version="1.0" encoding="utf-8" standalone="no"?>
<!DOCTYPE svg PUBLIC "-//W3C//DTD SVG 1.1//EN"
  "http://www.w3.org/Graphics/SVG/1.1/DTD/svg11.dtd">
<svg xmlns:xlink="http://www.w3.org/1999/xlink" width="460.8pt" height="345.6pt" viewBox="0 0 460.8 345.6" xmlns="http://www.w3.org/2000/svg" version="1.1">
 <metadata>
  <rdf:RDF xmlns:dc="http://purl.org/dc/elements/1.1/" xmlns:cc="http://creativecommons.org/ns#" xmlns:rdf="http://www.w3.org/1999/02/22-rdf-syntax-ns#">
   <cc:Work>
    <dc:type rdf:resource="http://purl.org/dc/dcmitype/StillImage"/>
    <dc:date>2022-04-26T12:06:03.857198</dc:date>
    <dc:format>image/svg+xml</dc:format>
    <dc:creator>
     <cc:Agent>
      <dc:title>Matplotlib v3.5.1, https://matplotlib.org/</dc:title>
     </cc:Agent>
    </dc:creator>
   </cc:Work>
  </rdf:RDF>
 </metadata>
 <defs>
  <style type="text/css">*{stroke-linejoin: round; stroke-linecap: butt}</style>
 </defs>
 <g id="figure_1">
  <g id="patch_1">
   <path d="M 0 345.6 
L 460.8 345.6 
L 460.8 0 
L 0 0 
z
" style="fill: #ffffff"/>
  </g>
  <g id="axes_1">
   <g id="patch_2">
    <path d="M 57.6 307.584 
L 414.72 307.584 
L 414.72 41.472 
L 57.6 41.472 
z
" style="fill: #ffffff"/>
   </g>
   <g id="matplotlib.axis_1">
    <g id="xtick_1">
     <g id="line2d_1">
      <defs>
       <path id="mc14c73d30e" d="M 0 0 
L 0 3.5 
" style="stroke: #000000; stroke-width: 0.8"/>
      </defs>
      <g>
       <use xlink:href="#mc14c73d30e" x="102.95424" y="307.584" style="stroke: #000000; stroke-width: 0.8"/>
      </g>
     </g>
     <g id="text_1">
      <!-- 400 -->
      <g transform="translate(93.41049 322.182437)scale(0.1 -0.1)">
       <defs>
        <path id="DejaVuSans-34" d="M 2419 4116 
L 825 1625 
L 2419 1625 
L 2419 4116 
z
M 2253 4666 
L 3047 4666 
L 3047 1625 
L 3713 1625 
L 3713 1100 
L 3047 1100 
L 3047 0 
L 2419 0 
L 2419 1100 
L 313 1100 
L 313 1709 
L 2253 4666 
z
" transform="scale(0.015625)"/>
        <path id="DejaVuSans-30" d="M 2034 4250 
Q 1547 4250 1301 3770 
Q 1056 3291 1056 2328 
Q 1056 1369 1301 889 
Q 1547 409 2034 409 
Q 2525 409 2770 889 
Q 3016 1369 3016 2328 
Q 3016 3291 2770 3770 
Q 2525 4250 2034 4250 
z
M 2034 4750 
Q 2819 4750 3233 4129 
Q 3647 3509 3647 2328 
Q 3647 1150 3233 529 
Q 2819 -91 2034 -91 
Q 1250 -91 836 529 
Q 422 1150 422 2328 
Q 422 3509 836 4129 
Q 1250 4750 2034 4750 
z
" transform="scale(0.015625)"/>
       </defs>
       <use xlink:href="#DejaVuSans-34"/>
       <use xlink:href="#DejaVuSans-30" x="63.623047"/>
       <use xlink:href="#DejaVuSans-30" x="127.246094"/>
      </g>
     </g>
    </g>
    <g id="xtick_2">
     <g id="line2d_2">
      <g>
       <use xlink:href="#mc14c73d30e" x="174.37824" y="307.584" style="stroke: #000000; stroke-width: 0.8"/>
      </g>
     </g>
     <g id="text_2">
      <!-- 600 -->
      <g transform="translate(164.83449 322.182437)scale(0.1 -0.1)">
       <defs>
        <path id="DejaVuSans-36" d="M 2113 2584 
Q 1688 2584 1439 2293 
Q 1191 2003 1191 1497 
Q 1191 994 1439 701 
Q 1688 409 2113 409 
Q 2538 409 2786 701 
Q 3034 994 3034 1497 
Q 3034 2003 2786 2293 
Q 2538 2584 2113 2584 
z
M 3366 4563 
L 3366 3988 
Q 3128 4100 2886 4159 
Q 2644 4219 2406 4219 
Q 1781 4219 1451 3797 
Q 1122 3375 1075 2522 
Q 1259 2794 1537 2939 
Q 1816 3084 2150 3084 
Q 2853 3084 3261 2657 
Q 3669 2231 3669 1497 
Q 3669 778 3244 343 
Q 2819 -91 2113 -91 
Q 1303 -91 875 529 
Q 447 1150 447 2328 
Q 447 3434 972 4092 
Q 1497 4750 2381 4750 
Q 2619 4750 2861 4703 
Q 3103 4656 3366 4563 
z
" transform="scale(0.015625)"/>
       </defs>
       <use xlink:href="#DejaVuSans-36"/>
       <use xlink:href="#DejaVuSans-30" x="63.623047"/>
       <use xlink:href="#DejaVuSans-30" x="127.246094"/>
      </g>
     </g>
    </g>
    <g id="xtick_3">
     <g id="line2d_3">
      <g>
       <use xlink:href="#mc14c73d30e" x="245.80224" y="307.584" style="stroke: #000000; stroke-width: 0.8"/>
      </g>
     </g>
     <g id="text_3">
      <!-- 800 -->
      <g transform="translate(236.25849 322.182437)scale(0.1 -0.1)">
       <defs>
        <path id="DejaVuSans-38" d="M 2034 2216 
Q 1584 2216 1326 1975 
Q 1069 1734 1069 1313 
Q 1069 891 1326 650 
Q 1584 409 2034 409 
Q 2484 409 2743 651 
Q 3003 894 3003 1313 
Q 3003 1734 2745 1975 
Q 2488 2216 2034 2216 
z
M 1403 2484 
Q 997 2584 770 2862 
Q 544 3141 544 3541 
Q 544 4100 942 4425 
Q 1341 4750 2034 4750 
Q 2731 4750 3128 4425 
Q 3525 4100 3525 3541 
Q 3525 3141 3298 2862 
Q 3072 2584 2669 2484 
Q 3125 2378 3379 2068 
Q 3634 1759 3634 1313 
Q 3634 634 3220 271 
Q 2806 -91 2034 -91 
Q 1263 -91 848 271 
Q 434 634 434 1313 
Q 434 1759 690 2068 
Q 947 2378 1403 2484 
z
M 1172 3481 
Q 1172 3119 1398 2916 
Q 1625 2713 2034 2713 
Q 2441 2713 2670 2916 
Q 2900 3119 2900 3481 
Q 2900 3844 2670 4047 
Q 2441 4250 2034 4250 
Q 1625 4250 1398 4047 
Q 1172 3844 1172 3481 
z
" transform="scale(0.015625)"/>
       </defs>
       <use xlink:href="#DejaVuSans-38"/>
       <use xlink:href="#DejaVuSans-30" x="63.623047"/>
       <use xlink:href="#DejaVuSans-30" x="127.246094"/>
      </g>
     </g>
    </g>
    <g id="xtick_4">
     <g id="line2d_4">
      <g>
       <use xlink:href="#mc14c73d30e" x="317.22624" y="307.584" style="stroke: #000000; stroke-width: 0.8"/>
      </g>
     </g>
     <g id="text_4">
      <!-- 1000 -->
      <g transform="translate(304.50124 322.182437)scale(0.1 -0.1)">
       <defs>
        <path id="DejaVuSans-31" d="M 794 531 
L 1825 531 
L 1825 4091 
L 703 3866 
L 703 4441 
L 1819 4666 
L 2450 4666 
L 2450 531 
L 3481 531 
L 3481 0 
L 794 0 
L 794 531 
z
" transform="scale(0.015625)"/>
       </defs>
       <use xlink:href="#DejaVuSans-31"/>
       <use xlink:href="#DejaVuSans-30" x="63.623047"/>
       <use xlink:href="#DejaVuSans-30" x="127.246094"/>
       <use xlink:href="#DejaVuSans-30" x="190.869141"/>
      </g>
     </g>
    </g>
    <g id="xtick_5">
     <g id="line2d_5">
      <g>
       <use xlink:href="#mc14c73d30e" x="388.65024" y="307.584" style="stroke: #000000; stroke-width: 0.8"/>
      </g>
     </g>
     <g id="text_5">
      <!-- 1200 -->
      <g transform="translate(375.92524 322.182437)scale(0.1 -0.1)">
       <defs>
        <path id="DejaVuSans-32" d="M 1228 531 
L 3431 531 
L 3431 0 
L 469 0 
L 469 531 
Q 828 903 1448 1529 
Q 2069 2156 2228 2338 
Q 2531 2678 2651 2914 
Q 2772 3150 2772 3378 
Q 2772 3750 2511 3984 
Q 2250 4219 1831 4219 
Q 1534 4219 1204 4116 
Q 875 4013 500 3803 
L 500 4441 
Q 881 4594 1212 4672 
Q 1544 4750 1819 4750 
Q 2544 4750 2975 4387 
Q 3406 4025 3406 3419 
Q 3406 3131 3298 2873 
Q 3191 2616 2906 2266 
Q 2828 2175 2409 1742 
Q 1991 1309 1228 531 
z
" transform="scale(0.015625)"/>
       </defs>
       <use xlink:href="#DejaVuSans-31"/>
       <use xlink:href="#DejaVuSans-32" x="63.623047"/>
       <use xlink:href="#DejaVuSans-30" x="127.246094"/>
       <use xlink:href="#DejaVuSans-30" x="190.869141"/>
      </g>
     </g>
    </g>
    <g id="text_6">
     <!-- Temperature (K) -->
     <g transform="translate(195.720937 335.860562)scale(0.1 -0.1)">
      <defs>
       <path id="DejaVuSans-54" d="M -19 4666 
L 3928 4666 
L 3928 4134 
L 2272 4134 
L 2272 0 
L 1638 0 
L 1638 4134 
L -19 4134 
L -19 4666 
z
" transform="scale(0.015625)"/>
       <path id="DejaVuSans-65" d="M 3597 1894 
L 3597 1613 
L 953 1613 
Q 991 1019 1311 708 
Q 1631 397 2203 397 
Q 2534 397 2845 478 
Q 3156 559 3463 722 
L 3463 178 
Q 3153 47 2828 -22 
Q 2503 -91 2169 -91 
Q 1331 -91 842 396 
Q 353 884 353 1716 
Q 353 2575 817 3079 
Q 1281 3584 2069 3584 
Q 2775 3584 3186 3129 
Q 3597 2675 3597 1894 
z
M 3022 2063 
Q 3016 2534 2758 2815 
Q 2500 3097 2075 3097 
Q 1594 3097 1305 2825 
Q 1016 2553 972 2059 
L 3022 2063 
z
" transform="scale(0.015625)"/>
       <path id="DejaVuSans-6d" d="M 3328 2828 
Q 3544 3216 3844 3400 
Q 4144 3584 4550 3584 
Q 5097 3584 5394 3201 
Q 5691 2819 5691 2113 
L 5691 0 
L 5113 0 
L 5113 2094 
Q 5113 2597 4934 2840 
Q 4756 3084 4391 3084 
Q 3944 3084 3684 2787 
Q 3425 2491 3425 1978 
L 3425 0 
L 2847 0 
L 2847 2094 
Q 2847 2600 2669 2842 
Q 2491 3084 2119 3084 
Q 1678 3084 1418 2786 
Q 1159 2488 1159 1978 
L 1159 0 
L 581 0 
L 581 3500 
L 1159 3500 
L 1159 2956 
Q 1356 3278 1631 3431 
Q 1906 3584 2284 3584 
Q 2666 3584 2933 3390 
Q 3200 3197 3328 2828 
z
" transform="scale(0.015625)"/>
       <path id="DejaVuSans-70" d="M 1159 525 
L 1159 -1331 
L 581 -1331 
L 581 3500 
L 1159 3500 
L 1159 2969 
Q 1341 3281 1617 3432 
Q 1894 3584 2278 3584 
Q 2916 3584 3314 3078 
Q 3713 2572 3713 1747 
Q 3713 922 3314 415 
Q 2916 -91 2278 -91 
Q 1894 -91 1617 61 
Q 1341 213 1159 525 
z
M 3116 1747 
Q 3116 2381 2855 2742 
Q 2594 3103 2138 3103 
Q 1681 3103 1420 2742 
Q 1159 2381 1159 1747 
Q 1159 1113 1420 752 
Q 1681 391 2138 391 
Q 2594 391 2855 752 
Q 3116 1113 3116 1747 
z
" transform="scale(0.015625)"/>
       <path id="DejaVuSans-72" d="M 2631 2963 
Q 2534 3019 2420 3045 
Q 2306 3072 2169 3072 
Q 1681 3072 1420 2755 
Q 1159 2438 1159 1844 
L 1159 0 
L 581 0 
L 581 3500 
L 1159 3500 
L 1159 2956 
Q 1341 3275 1631 3429 
Q 1922 3584 2338 3584 
Q 2397 3584 2469 3576 
Q 2541 3569 2628 3553 
L 2631 2963 
z
" transform="scale(0.015625)"/>
       <path id="DejaVuSans-61" d="M 2194 1759 
Q 1497 1759 1228 1600 
Q 959 1441 959 1056 
Q 959 750 1161 570 
Q 1363 391 1709 391 
Q 2188 391 2477 730 
Q 2766 1069 2766 1631 
L 2766 1759 
L 2194 1759 
z
M 3341 1997 
L 3341 0 
L 2766 0 
L 2766 531 
Q 2569 213 2275 61 
Q 1981 -91 1556 -91 
Q 1019 -91 701 211 
Q 384 513 384 1019 
Q 384 1609 779 1909 
Q 1175 2209 1959 2209 
L 2766 2209 
L 2766 2266 
Q 2766 2663 2505 2880 
Q 2244 3097 1772 3097 
Q 1472 3097 1187 3025 
Q 903 2953 641 2809 
L 641 3341 
Q 956 3463 1253 3523 
Q 1550 3584 1831 3584 
Q 2591 3584 2966 3190 
Q 3341 2797 3341 1997 
z
" transform="scale(0.015625)"/>
       <path id="DejaVuSans-74" d="M 1172 4494 
L 1172 3500 
L 2356 3500 
L 2356 3053 
L 1172 3053 
L 1172 1153 
Q 1172 725 1289 603 
Q 1406 481 1766 481 
L 2356 481 
L 2356 0 
L 1766 0 
Q 1100 0 847 248 
Q 594 497 594 1153 
L 594 3053 
L 172 3053 
L 172 3500 
L 594 3500 
L 594 4494 
L 1172 4494 
z
" transform="scale(0.015625)"/>
       <path id="DejaVuSans-75" d="M 544 1381 
L 544 3500 
L 1119 3500 
L 1119 1403 
Q 1119 906 1312 657 
Q 1506 409 1894 409 
Q 2359 409 2629 706 
Q 2900 1003 2900 1516 
L 2900 3500 
L 3475 3500 
L 3475 0 
L 2900 0 
L 2900 538 
Q 2691 219 2414 64 
Q 2138 -91 1772 -91 
Q 1169 -91 856 284 
Q 544 659 544 1381 
z
M 1991 3584 
L 1991 3584 
z
" transform="scale(0.015625)"/>
       <path id="DejaVuSans-20" transform="scale(0.015625)"/>
       <path id="DejaVuSans-28" d="M 1984 4856 
Q 1566 4138 1362 3434 
Q 1159 2731 1159 2009 
Q 1159 1288 1364 580 
Q 1569 -128 1984 -844 
L 1484 -844 
Q 1016 -109 783 600 
Q 550 1309 550 2009 
Q 550 2706 781 3412 
Q 1013 4119 1484 4856 
L 1984 4856 
z
" transform="scale(0.015625)"/>
       <path id="DejaVuSans-4b" d="M 628 4666 
L 1259 4666 
L 1259 2694 
L 3353 4666 
L 4166 4666 
L 1850 2491 
L 4331 0 
L 3500 0 
L 1259 2247 
L 1259 0 
L 628 0 
L 628 4666 
z
" transform="scale(0.015625)"/>
       <path id="DejaVuSans-29" d="M 513 4856 
L 1013 4856 
Q 1481 4119 1714 3412 
Q 1947 2706 1947 2009 
Q 1947 1309 1714 600 
Q 1481 -109 1013 -844 
L 513 -844 
Q 928 -128 1133 580 
Q 1338 1288 1338 2009 
Q 1338 2731 1133 3434 
Q 928 4138 513 4856 
z
" transform="scale(0.015625)"/>
      </defs>
      <use xlink:href="#DejaVuSans-54"/>
      <use xlink:href="#DejaVuSans-65" x="44.083984"/>
      <use xlink:href="#DejaVuSans-6d" x="105.607422"/>
      <use xlink:href="#DejaVuSans-70" x="203.019531"/>
      <use xlink:href="#DejaVuSans-65" x="266.496094"/>
      <use xlink:href="#DejaVuSans-72" x="328.019531"/>
      <use xlink:href="#DejaVuSans-61" x="369.132812"/>
      <use xlink:href="#DejaVuSans-74" x="430.412109"/>
      <use xlink:href="#DejaVuSans-75" x="469.621094"/>
      <use xlink:href="#DejaVuSans-72" x="533"/>
      <use xlink:href="#DejaVuSans-65" x="571.863281"/>
      <use xlink:href="#DejaVuSans-20" x="633.386719"/>
      <use xlink:href="#DejaVuSans-28" x="665.173828"/>
      <use xlink:href="#DejaVuSans-4b" x="704.1875"/>
      <use xlink:href="#DejaVuSans-29" x="769.763672"/>
     </g>
    </g>
   </g>
   <g id="matplotlib.axis_2">
    <g id="ytick_1">
     <g id="line2d_6">
      <defs>
       <path id="ma5ec154b29" d="M 0 0 
L -3.5 0 
" style="stroke: #000000; stroke-width: 0.8"/>
      </defs>
      <g>
       <use xlink:href="#ma5ec154b29" x="57.6" y="268.562926" style="stroke: #000000; stroke-width: 0.8"/>
      </g>
     </g>
     <g id="text_7">
      <!-- $\mathdefault{10^{0}}$ -->
      <g transform="translate(33 272.362145)scale(0.1 -0.1)">
       <use xlink:href="#DejaVuSans-31" transform="translate(0 0.765625)"/>
       <use xlink:href="#DejaVuSans-30" transform="translate(63.623047 0.765625)"/>
       <use xlink:href="#DejaVuSans-30" transform="translate(128.203125 39.046875)scale(0.7)"/>
      </g>
     </g>
    </g>
    <g id="ytick_2">
     <g id="line2d_7">
      <g>
       <use xlink:href="#ma5ec154b29" x="57.6" y="214.712777" style="stroke: #000000; stroke-width: 0.8"/>
      </g>
     </g>
     <g id="text_8">
      <!-- $\mathdefault{10^{2}}$ -->
      <g transform="translate(33 218.511996)scale(0.1 -0.1)">
       <use xlink:href="#DejaVuSans-31" transform="translate(0 0.765625)"/>
       <use xlink:href="#DejaVuSans-30" transform="translate(63.623047 0.765625)"/>
       <use xlink:href="#DejaVuSans-32" transform="translate(128.203125 39.046875)scale(0.7)"/>
      </g>
     </g>
    </g>
    <g id="ytick_3">
     <g id="line2d_8">
      <g>
       <use xlink:href="#ma5ec154b29" x="57.6" y="160.862629" style="stroke: #000000; stroke-width: 0.8"/>
      </g>
     </g>
     <g id="text_9">
      <!-- $\mathdefault{10^{4}}$ -->
      <g transform="translate(33 164.661848)scale(0.1 -0.1)">
       <use xlink:href="#DejaVuSans-31" transform="translate(0 0.684375)"/>
       <use xlink:href="#DejaVuSans-30" transform="translate(63.623047 0.684375)"/>
       <use xlink:href="#DejaVuSans-34" transform="translate(128.203125 38.965625)scale(0.7)"/>
      </g>
     </g>
    </g>
    <g id="ytick_4">
     <g id="line2d_9">
      <g>
       <use xlink:href="#ma5ec154b29" x="57.6" y="107.012481" style="stroke: #000000; stroke-width: 0.8"/>
      </g>
     </g>
     <g id="text_10">
      <!-- $\mathdefault{10^{6}}$ -->
      <g transform="translate(33 110.811699)scale(0.1 -0.1)">
       <use xlink:href="#DejaVuSans-31" transform="translate(0 0.765625)"/>
       <use xlink:href="#DejaVuSans-30" transform="translate(63.623047 0.765625)"/>
       <use xlink:href="#DejaVuSans-36" transform="translate(128.203125 39.046875)scale(0.7)"/>
      </g>
     </g>
    </g>
    <g id="ytick_5">
     <g id="line2d_10">
      <g>
       <use xlink:href="#ma5ec154b29" x="57.6" y="53.162332" style="stroke: #000000; stroke-width: 0.8"/>
      </g>
     </g>
     <g id="text_11">
      <!-- $\mathdefault{10^{8}}$ -->
      <g transform="translate(33 56.961551)scale(0.1 -0.1)">
       <use xlink:href="#DejaVuSans-31" transform="translate(0 0.765625)"/>
       <use xlink:href="#DejaVuSans-30" transform="translate(63.623047 0.765625)"/>
       <use xlink:href="#DejaVuSans-38" transform="translate(128.203125 39.046875)scale(0.7)"/>
      </g>
     </g>
    </g>
    <g id="text_12">
     <!-- Pyrolysis number -->
     <g transform="translate(26.920312 217.554563)rotate(-90)scale(0.1 -0.1)">
      <defs>
       <path id="DejaVuSans-50" d="M 1259 4147 
L 1259 2394 
L 2053 2394 
Q 2494 2394 2734 2622 
Q 2975 2850 2975 3272 
Q 2975 3691 2734 3919 
Q 2494 4147 2053 4147 
L 1259 4147 
z
M 628 4666 
L 2053 4666 
Q 2838 4666 3239 4311 
Q 3641 3956 3641 3272 
Q 3641 2581 3239 2228 
Q 2838 1875 2053 1875 
L 1259 1875 
L 1259 0 
L 628 0 
L 628 4666 
z
" transform="scale(0.015625)"/>
       <path id="DejaVuSans-79" d="M 2059 -325 
Q 1816 -950 1584 -1140 
Q 1353 -1331 966 -1331 
L 506 -1331 
L 506 -850 
L 844 -850 
Q 1081 -850 1212 -737 
Q 1344 -625 1503 -206 
L 1606 56 
L 191 3500 
L 800 3500 
L 1894 763 
L 2988 3500 
L 3597 3500 
L 2059 -325 
z
" transform="scale(0.015625)"/>
       <path id="DejaVuSans-6f" d="M 1959 3097 
Q 1497 3097 1228 2736 
Q 959 2375 959 1747 
Q 959 1119 1226 758 
Q 1494 397 1959 397 
Q 2419 397 2687 759 
Q 2956 1122 2956 1747 
Q 2956 2369 2687 2733 
Q 2419 3097 1959 3097 
z
M 1959 3584 
Q 2709 3584 3137 3096 
Q 3566 2609 3566 1747 
Q 3566 888 3137 398 
Q 2709 -91 1959 -91 
Q 1206 -91 779 398 
Q 353 888 353 1747 
Q 353 2609 779 3096 
Q 1206 3584 1959 3584 
z
" transform="scale(0.015625)"/>
       <path id="DejaVuSans-6c" d="M 603 4863 
L 1178 4863 
L 1178 0 
L 603 0 
L 603 4863 
z
" transform="scale(0.015625)"/>
       <path id="DejaVuSans-73" d="M 2834 3397 
L 2834 2853 
Q 2591 2978 2328 3040 
Q 2066 3103 1784 3103 
Q 1356 3103 1142 2972 
Q 928 2841 928 2578 
Q 928 2378 1081 2264 
Q 1234 2150 1697 2047 
L 1894 2003 
Q 2506 1872 2764 1633 
Q 3022 1394 3022 966 
Q 3022 478 2636 193 
Q 2250 -91 1575 -91 
Q 1294 -91 989 -36 
Q 684 19 347 128 
L 347 722 
Q 666 556 975 473 
Q 1284 391 1588 391 
Q 1994 391 2212 530 
Q 2431 669 2431 922 
Q 2431 1156 2273 1281 
Q 2116 1406 1581 1522 
L 1381 1569 
Q 847 1681 609 1914 
Q 372 2147 372 2553 
Q 372 3047 722 3315 
Q 1072 3584 1716 3584 
Q 2034 3584 2315 3537 
Q 2597 3491 2834 3397 
z
" transform="scale(0.015625)"/>
       <path id="DejaVuSans-69" d="M 603 3500 
L 1178 3500 
L 1178 0 
L 603 0 
L 603 3500 
z
M 603 4863 
L 1178 4863 
L 1178 4134 
L 603 4134 
L 603 4863 
z
" transform="scale(0.015625)"/>
       <path id="DejaVuSans-6e" d="M 3513 2113 
L 3513 0 
L 2938 0 
L 2938 2094 
Q 2938 2591 2744 2837 
Q 2550 3084 2163 3084 
Q 1697 3084 1428 2787 
Q 1159 2491 1159 1978 
L 1159 0 
L 581 0 
L 581 3500 
L 1159 3500 
L 1159 2956 
Q 1366 3272 1645 3428 
Q 1925 3584 2291 3584 
Q 2894 3584 3203 3211 
Q 3513 2838 3513 2113 
z
" transform="scale(0.015625)"/>
       <path id="DejaVuSans-62" d="M 3116 1747 
Q 3116 2381 2855 2742 
Q 2594 3103 2138 3103 
Q 1681 3103 1420 2742 
Q 1159 2381 1159 1747 
Q 1159 1113 1420 752 
Q 1681 391 2138 391 
Q 2594 391 2855 752 
Q 3116 1113 3116 1747 
z
M 1159 2969 
Q 1341 3281 1617 3432 
Q 1894 3584 2278 3584 
Q 2916 3584 3314 3078 
Q 3713 2572 3713 1747 
Q 3713 922 3314 415 
Q 2916 -91 2278 -91 
Q 1894 -91 1617 61 
Q 1341 213 1159 525 
L 1159 0 
L 581 0 
L 581 4863 
L 1159 4863 
L 1159 2969 
z
" transform="scale(0.015625)"/>
      </defs>
      <use xlink:href="#DejaVuSans-50"/>
      <use xlink:href="#DejaVuSans-79" x="60.302734"/>
      <use xlink:href="#DejaVuSans-72" x="119.482422"/>
      <use xlink:href="#DejaVuSans-6f" x="158.345703"/>
      <use xlink:href="#DejaVuSans-6c" x="219.527344"/>
      <use xlink:href="#DejaVuSans-79" x="247.310547"/>
      <use xlink:href="#DejaVuSans-73" x="306.490234"/>
      <use xlink:href="#DejaVuSans-69" x="358.589844"/>
      <use xlink:href="#DejaVuSans-73" x="386.373047"/>
      <use xlink:href="#DejaVuSans-20" x="438.472656"/>
      <use xlink:href="#DejaVuSans-6e" x="470.259766"/>
      <use xlink:href="#DejaVuSans-75" x="533.638672"/>
      <use xlink:href="#DejaVuSans-6d" x="597.017578"/>
      <use xlink:href="#DejaVuSans-62" x="694.429688"/>
      <use xlink:href="#DejaVuSans-65" x="757.90625"/>
      <use xlink:href="#DejaVuSans-72" x="819.429688"/>
     </g>
    </g>
   </g>
   <g id="line2d_11">
    <path d="M 57.6 82.930232 
L 68.301815 101.704734 
L 74.610697 110.743597 
L 75.337079 111.689954 
L 78.420096 115.500707 
L 78.860425 116.010077 
L 80.09856 117.41025 
L 82.836599 120.270995 
L 85.372151 122.604591 
L 87.705216 124.462419 
L 87.836279 124.54648 
L 89.966857 125.948087 
L 90.050423 125.98362 
L 90.45504 126.211988 
L 92.359561 127.132996 
L 94.133376 127.764327 
L 94.216585 127.768175 
L 94.490496 127.857608 
L 94.573705 127.858388 
L 94.847616 127.940187 
L 94.930825 127.937829 
L 95.204736 128.011859 
L 95.287945 128.006315 
L 95.490432 128.040158 
L 97.109257 128.201824 
L 97.24032 128.178149 
L 98.775936 128.085285 
L 98.906999 128.036454 
L 100.371191 127.676422 
L 101.871095 127.10168 
L 102.001801 127.001762 
L 103.465993 126.143289 
L 105.013751 124.978432 
L 106.751497 123.429343 
L 106.88256 123.251729 
L 109.501321 120.466698 
L 111.358345 118.596903 
L 111.441911 118.523026 
L 112.429705 117.756044 
L 112.513271 117.702052 
L 113.382144 117.26054 
L 113.536777 117.2467 
L 113.66784 117.169088 
L 114.334583 117.071593 
L 114.489216 117.106372 
L 114.572425 117.078116 
L 114.727415 117.125836 
L 114.7392 117.096013 
L 115.405943 117.279376 
L 115.679497 117.431117 
L 115.763063 117.4511 
L 116.036617 117.639018 
L 116.120183 117.673127 
L 116.441591 117.914786 
L 117.310464 118.753364 
L 117.988992 119.576197 
L 119.214985 121.36135 
L 122.59584 127.424785 
L 128.226551 138.486497 
L 134.02368 149.627734 
L 137.987712 156.77567 
L 141.082871 161.913862 
L 143.582711 165.651514 
L 145.689719 168.411698 
L 147.463177 170.390351 
L 147.546743 170.460037 
L 147.987072 170.883008 
L 149.415552 172.06341 
L 150.677257 172.857104 
L 150.689399 172.839006 
L 151.867895 173.32136 
L 151.951104 173.313934 
L 152.105737 173.380687 
L 152.117879 173.353052 
L 153.177097 173.500798 
L 153.260663 173.464036 
L 153.415296 173.493923 
L 153.546359 173.447622 
L 154.534153 173.251281 
L 155.569801 172.814011 
L 156.748297 172.100074 
L 156.87936 171.946319 
L 158.30784 170.689612 
L 161.474423 167.764612 
L 161.510135 167.791047 
L 161.557632 167.702135 
L 162.545783 167.058808 
L 162.581495 167.087737 
L 162.628992 167.012978 
L 163.617143 166.565585 
L 163.771776 166.554304 
L 163.902839 166.46695 
L 165.045623 166.183123 
L 165.200256 166.195226 
L 165.331319 166.135044 
L 166.711945 165.993483 
L 166.866935 166.021184 
L 166.950144 165.982012 
L 167.104777 166.011556 
L 167.188343 165.974169 
L 167.342976 166.0055 
L 167.426185 165.969841 
L 167.581175 166.003136 
L 167.664384 165.969284 
L 167.819017 166.004582 
L 167.902583 165.972674 
L 168.057216 166.010087 
L 168.140425 165.98024 
L 168.295415 166.01988 
L 168.3072 165.988504 
L 169.568905 166.133135 
L 169.723895 166.191174 
L 169.73568 166.166132 
L 170.878464 166.49584 
L 171.152375 166.628553 
L 171.235584 166.642963 
L 171.509495 166.791791 
L 171.592704 166.81359 
L 171.8784 166.968713 
L 172.902263 167.657765 
L 173.461513 168.128754 
L 174.568585 169.250614 
L 176.913792 172.333603 
L 179.009015 175.559112 
L 179.330423 176.079301 
L 180.199296 177.461466 
L 180.520704 177.983299 
L 181.389577 179.356139 
L 181.710985 179.869971 
L 182.627712 181.294783 
L 185.877504 185.978636 
L 188.460553 189.034988 
L 190.09152 190.462813 
L 191.555712 191.254362 
L 192.59136 191.460236 
L 193.698432 191.266734 
L 194.603017 190.793528 
L 194.73408 190.649954 
L 195.841152 189.450389 
L 196.865015 187.899041 
L 196.995721 187.59288 
L 198.424201 184.486883 
L 203.257463 172.412846 
L 203.30496 172.314244 
L 205.043063 168.831243 
L 205.09056 168.737337 
L 207.471479 163.758333 
L 209.602057 158.787979 
L 209.73312 158.374364 
L 212.828279 150.283428 
L 214.685303 145.650183 
L 214.7328 145.541887 
L 215.756663 143.420256 
L 215.792375 143.424855 
L 215.80416 143.332545 
L 216.708745 141.885137 
L 216.744457 141.896262 
L 216.756599 141.821095 
L 217.542263 140.949028 
L 217.625472 140.87694 
L 218.256503 140.455009 
L 218.339712 140.415116 
L 218.970743 140.225471 
L 219.125376 140.239698 
L 219.256439 140.200472 
L 219.922825 140.272442 
L 220.125312 140.326769 
L 220.994185 140.704469 
L 221.315593 140.895349 
L 222.422665 141.716532 
L 222.934775 142.176895 
L 223.017984 142.240575 
L 223.577591 142.772517 
L 225.636745 144.936394 
L 226.398839 145.778336 
L 230.719991 150.412453 
L 233.053056 152.583039 
L 233.136265 152.639322 
L 233.541239 152.974116 
L 235.433975 154.386611 
L 235.517184 154.422819 
L 235.838592 154.626749 
L 237.469559 155.50998 
L 239.005175 156.1172 
L 239.088384 156.115257 
L 239.290871 156.170554 
L 240.683639 156.422744 
L 242.028553 156.447671 
L 243.409536 156.285638 
L 243.540599 156.217614 
L 244.969079 155.762841 
L 246.635401 154.988937 
L 251.587584 152.476068 
L 251.742217 152.468644 
L 251.87328 152.39874 
L 252.897143 152.245696 
L 253.051776 152.270306 
L 253.063561 152.240304 
L 253.968503 152.311129 
L 254.170633 152.349892 
L 255.158784 152.652927 
L 255.432695 152.786011 
L 255.44448 152.77312 
L 256.706185 153.446071 
L 257.111159 153.700825 
L 259.325303 155.258647 
L 259.848841 155.638922 
L 262.705801 157.568888 
L 264.836736 158.747712 
L 264.919945 158.7718 
L 265.241353 158.91995 
L 267.098377 159.649491 
L 267.181943 159.656302 
L 267.455497 159.756821 
L 267.539063 159.760571 
L 267.812617 159.853949 
L 267.896183 159.854802 
L 268.169737 159.940893 
L 268.253303 159.938562 
L 268.526857 160.01721 
L 268.610423 160.011844 
L 268.812553 160.048697 
L 270.44352 160.216343 
L 271.990921 160.15654 
L 273.538679 159.878873 
L 275.193216 159.379891 
L 275.324279 159.293459 
L 277.097737 158.492841 
L 277.2288 158.384715 
L 279.359735 157.13308 
L 279.490441 157.007145 
L 283.168777 154.478632 
L 283.29984 154.346757 
L 286.823543 151.964789 
L 286.906752 151.911302 
L 290.394743 149.782474 
L 290.549376 149.72561 
L 290.680439 149.616632 
L 293.965943 147.823039 
L 294.120576 147.774383 
L 294.251639 147.680108 
L 296.465783 146.683599 
L 296.620416 146.647667 
L 296.751479 146.572313 
L 298.608503 145.970903 
L 298.810633 145.919329 
L 300.513024 145.603893 
L 300.786935 145.589055 
L 300.917641 145.560445 
L 302.655744 145.506441 
L 303.048576 145.533264 
L 303.179639 145.528966 
L 305.274505 145.762996 
L 305.7984 145.849598 
L 309.322103 146.576927 
L 309.964919 146.720081 
L 316.190592 147.998259 
L 321.379546 148.838805 
L 321.583104 148.858586 
L 322.093786 148.937066 
L 322.297344 148.95562 
L 322.808026 149.031623 
L 323.011584 149.049031 
L 323.522266 149.122642 
L 323.725824 149.138925 
L 324.165082 149.192592 
L 330.428966 149.853677 
L 330.55753 149.855264 
L 340.664026 150.842205 
L 340.67831 150.301428 
L 340.749734 150.311629 
L 340.831872 150.857156 
L 340.867584 150.328761 
L 340.91401 150.335645 
L 340.949722 150.875664 
L 341.021146 150.542567 
L 341.03543 150.353002 
L 341.071142 150.894341 
L 341.106854 150.363474 
L 341.188992 150.913093 
L 341.224704 150.381004 
L 341.27113 150.388068 
L 341.306842 150.93199 
L 341.378266 150.596619 
L 341.39255 150.405847 
L 341.428262 150.951006 
L 341.463974 150.41656 
L 341.546112 150.970144 
L 341.581824 150.434536 
L 341.62825 150.441776 
L 341.663962 150.989375 
L 341.735386 150.651917 
L 341.74967 150.459997 
L 341.785382 151.008798 
L 341.821094 150.470974 
L 341.903232 151.028291 
L 341.938944 150.489414 
L 341.98537 150.496829 
L 342.021082 151.047926 
L 342.092506 150.708491 
L 342.10679 150.515485 
L 342.142502 151.067725 
L 342.178214 150.526749 
L 342.260352 151.087617 
L 342.296064 150.545646 
L 342.34249 150.553234 
L 342.378202 151.107648 
L 342.449626 150.766399 
L 342.46391 150.57237 
L 342.499622 151.127841 
L 342.535334 150.583941 
L 342.617472 151.14815 
L 342.653184 150.603315 
L 342.69961 150.611097 
L 342.735322 151.168572 
L 342.806746 150.825672 
L 342.82103 150.630707 
L 342.856742 151.189178 
L 342.892454 150.642556 
L 342.974592 151.209897 
L 343.010304 150.662424 
L 343.05673 150.670398 
L 343.092442 151.230776 
L 343.163866 150.886337 
L 343.17815 150.690524 
L 343.213862 151.251787 
L 343.249574 150.702671 
L 343.331712 151.272934 
L 343.367424 150.723052 
L 343.41385 150.731241 
L 343.449562 151.294238 
L 343.520986 150.948422 
L 343.53527 150.75185 
L 343.570982 151.315696 
L 343.606694 150.764316 
L 343.688832 151.337263 
L 343.724544 150.785201 
L 343.77097 150.7936 
L 343.806682 151.359009 
L 343.878106 151.012003 
L 343.89239 150.81476 
L 343.928102 151.380906 
L 343.963814 150.827515 
L 344.045952 151.402934 
L 344.081664 150.848945 
L 344.12809 150.857552 
L 344.163802 151.425114 
L 344.235226 151.07708 
L 344.24951 150.879228 
L 344.285222 151.44749 
L 344.320934 150.892341 
L 344.403072 151.469971 
L 344.438784 150.914283 
L 344.48521 150.923119 
L 344.520922 151.492624 
L 344.592346 151.143699 
L 344.60663 150.945353 
L 344.642342 151.515424 
L 344.678054 150.958769 
L 344.760192 151.538396 
L 344.795904 150.981263 
L 344.84233 150.990324 
L 344.878042 151.56149 
L 344.949466 151.211858 
L 344.96375 151.013104 
L 344.999462 151.584799 
L 345.035174 151.026867 
L 345.117312 151.608231 
L 345.153024 151.049928 
L 345.19945 151.05921 
L 345.235162 151.631805 
L 345.306586 151.281626 
L 345.32087 151.082552 
L 345.356582 151.655567 
L 345.392294 151.096655 
L 345.474432 151.679495 
L 345.510144 151.120273 
L 345.55657 151.129771 
L 345.592282 151.703564 
L 345.663706 151.353021 
L 345.67799 151.153714 
L 345.713702 151.727817 
L 345.749414 151.168151 
L 345.831552 151.752209 
L 345.867264 151.192363 
L 345.91369 151.202074 
L 345.949402 151.776762 
L 346.020826 151.426035 
L 346.03511 151.226582 
L 346.070822 151.80152 
L 346.106534 151.241371 
L 346.188672 151.82639 
L 346.224384 151.266166 
L 346.27081 151.276133 
L 346.306522 151.85144 
L 346.377946 151.500708 
L 346.39223 151.301219 
L 346.427942 151.876692 
L 346.463654 151.316352 
L 346.545792 151.902076 
L 346.581504 151.341743 
L 346.62793 151.351938 
L 346.663642 151.927614 
L 346.735066 151.577054 
L 346.74935 151.377613 
L 346.785062 151.953373 
L 346.820774 151.393109 
L 346.902912 151.97926 
L 346.938624 151.419059 
L 346.98505 151.4295 
L 347.020762 152.005298 
L 347.092186 151.655085 
L 347.10647 151.455777 
L 347.142182 152.031552 
L 347.177894 151.471627 
L 347.260032 152.057933 
L 347.295744 151.498195 
L 347.34217 151.508854 
L 347.377882 152.084482 
L 347.449306 151.734811 
L 347.46359 151.53572 
L 347.499302 152.111244 
L 347.535014 151.55194 
L 347.617152 152.138129 
L 347.652864 151.57909 
L 347.69929 151.590009 
L 347.735002 152.165201 
L 347.806426 151.816221 
L 347.82071 151.617474 
L 347.856422 152.19246 
L 347.892134 151.634032 
L 347.974272 152.21986 
L 348.009984 151.661799 
L 348.05641 151.672949 
L 348.092122 152.247421 
L 348.163546 151.899321 
L 348.17783 151.701023 
L 348.213542 152.275187 
L 348.249254 151.717935 
L 348.331392 152.303091 
L 348.367104 151.746303 
L 348.41353 151.757678 
L 348.449242 152.331174 
L 348.520666 151.984141 
L 348.53495 151.786347 
L 348.570662 152.359436 
L 348.606374 151.803628 
L 348.688512 152.387853 
L 348.724224 151.832584 
L 348.77065 151.844203 
L 348.806362 152.416424 
L 348.877786 152.070642 
L 348.89207 151.873453 
L 348.927782 152.445192 
L 348.963494 151.891094 
L 349.045632 152.474111 
L 349.081344 151.920646 
L 349.12777 151.932525 
L 349.163482 152.503201 
L 349.234906 152.158827 
L 349.24919 151.962365 
L 349.284902 152.532463 
L 349.320614 151.980357 
L 349.402752 152.561871 
L 349.474176 152.218555 
L 349.48489 152.022601 
L 349.520602 152.591468 
L 349.556314 152.040823 
L 349.642022 152.621232 
L 349.677734 152.071374 
L 349.72416 152.083627 
L 349.759872 152.651139 
L 349.831296 152.309523 
L 349.84201 152.114432 
L 349.877722 152.681209 
L 349.913434 152.132991 
L 349.999142 152.711463 
L 350.034854 152.164121 
L 350.08128 152.176618 
L 350.116992 152.741877 
L 350.188416 152.402131 
L 350.19913 152.207996 
L 350.234842 152.772429 
L 350.270554 152.226927 
L 350.356262 152.803182 
L 350.391974 152.258621 
L 350.4384 152.271333 
L 350.474112 152.834069 
L 350.545536 152.496378 
L 350.55625 152.303268 
L 350.591962 152.865111 
L 350.627674 152.322539 
L 350.713382 152.896328 
L 350.749094 152.354804 
L 350.79552 152.367748 
L 350.831232 152.927696 
L 350.902656 152.592222 
L 350.91337 152.400246 
L 350.949082 152.959215 
L 350.984794 152.419849 
L 351.070502 152.990905 
L 351.106214 152.452669 
L 351.15264 152.465838 
L 351.188352 153.02272 
L 351.259776 152.689639 
L 351.27049 152.498884 
L 351.306202 153.054703 
L 351.341914 152.518809 
L 351.427622 153.086852 
L 351.463334 152.552168 
L 351.50976 152.565556 
L 351.545472 153.119144 
L 351.616896 152.788585 
L 351.62761 152.599134 
L 351.663322 153.151577 
L 351.699034 152.619371 
L 351.784742 153.184194 
L 351.820454 152.653276 
L 351.86688 152.666855 
L 351.902592 153.216907 
L 351.974016 152.889059 
L 351.98473 152.700971 
L 352.020442 153.249799 
L 352.056154 152.721533 
L 352.141862 153.282828 
L 352.177574 152.755946 
L 352.224 152.76973 
L 352.259712 153.315991 
L 352.331136 152.990974 
L 352.34185 152.804348 
L 352.377562 153.349308 
L 352.413274 152.825224 
L 352.498982 153.382778 
L 352.534694 152.860129 
L 352.58112 152.874114 
L 352.616832 153.416357 
L 352.688256 153.094327 
L 352.69897 152.909238 
L 352.734682 153.450086 
L 352.770394 152.930398 
L 352.856102 153.483964 
L 352.891814 152.965802 
L 352.93824 152.97998 
L 352.973952 153.517947 
L 353.045376 153.199054 
L 353.05609 153.015573 
L 353.091802 153.552074 
L 353.127514 153.037009 
L 353.213222 153.586348 
L 353.248934 153.072873 
L 353.29536 153.087239 
L 353.331072 153.620741 
L 353.402496 153.305091 
L 353.41321 153.123287 
L 353.448922 153.655236 
L 353.484634 153.145009 
L 353.570342 153.689891 
L 353.606054 153.18132 
L 353.65248 153.195867 
L 353.688192 153.724663 
L 353.759616 153.412415 
L 353.77033 153.232354 
L 353.806042 153.759532 
L 353.841754 153.254333 
L 353.927462 153.794558 
L 353.963174 153.291076 
L 354.0096 153.305798 
L 354.045312 153.829676 
L 354.116736 153.520963 
L 354.12745 153.342709 
L 354.163162 153.864907 
L 354.198874 153.364916 
L 354.284582 153.900252 
L 354.320294 153.402075 
L 354.36672 153.416946 
L 354.402432 153.935705 
L 354.473856 153.630635 
L 354.48457 153.454267 
L 354.520282 153.971266 
L 354.555994 153.476713 
L 354.641702 154.006957 
L 354.677414 153.514254 
L 354.72384 153.529289 
L 354.759552 154.042733 
L 354.830976 153.74141 
L 354.84169 153.566965 
L 354.877402 154.078614 
L 354.913114 153.589642 
L 354.998822 154.114602 
L 355.034534 153.627531 
L 355.08096 153.642704 
L 355.116672 154.15067 
L 355.188096 153.85321 
L 355.19881 153.680742 
L 355.234522 154.18684 
L 355.270234 153.703622 
L 355.355942 154.223113 
L 355.391654 153.741865 
L 355.43808 153.75717 
L 355.473792 154.259445 
L 355.545216 153.965958 
L 355.55593 153.795517 
L 355.591642 154.295874 
L 355.627354 153.818593 
L 355.713062 154.332422 
L 355.748774 153.857138 
L 355.7952 153.872571 
L 355.830912 154.369025 
L 355.902336 154.079579 
L 355.91305 153.911233 
L 355.948762 154.405686 
L 355.984474 153.934477 
L 356.070182 154.442461 
L 356.105894 153.973312 
L 356.15232 153.988848 
L 356.188032 154.479289 
L 356.259456 154.194001 
L 356.27017 154.027776 
L 356.305882 154.516189 
L 356.341594 154.051181 
L 356.427302 154.553183 
L 356.463014 154.090274 
L 356.50944 154.105909 
L 356.545152 154.590207 
L 356.616576 154.309154 
L 356.62729 154.145091 
L 356.663002 154.627302 
L 356.698714 154.168631 
L 356.784422 154.664486 
L 356.820134 154.207953 
L 356.86656 154.223683 
L 356.902272 154.701699 
L 356.973696 154.424931 
L 356.98441 154.263069 
L 357.020122 154.738961 
L 357.055834 154.286738 
L 357.141542 154.776292 
L 357.177254 154.32626 
L 357.22368 154.342062 
L 357.259392 154.813649 
L 357.330816 154.541268 
L 357.34153 154.381643 
L 357.377242 154.851052 
L 357.412954 154.405417 
L 357.498662 154.888522 
L 357.534374 154.44511 
L 357.616512 154.926016 
L 357.687936 154.658065 
L 357.69865 154.50071 
L 357.734362 154.963536 
L 357.770074 154.524564 
L 357.855782 155.001121 
L 357.927206 154.736159 
L 357.93792 154.580317 
L 357.973632 155.038692 
L 358.009344 154.604234 
L 358.091482 155.076304 
L 358.162906 154.814361 
L 358.17719 154.660078 
L 358.212902 155.113962 
L 358.248614 154.684038 
L 358.330752 155.151605 
L 358.402176 154.892689 
L 358.41289 154.739928 
L 358.448602 155.18927 
L 358.484314 154.763911 
L 358.570022 155.226978 
L 358.641446 154.971099 
L 358.65216 154.819905 
L 358.687872 155.264669 
L 358.723584 154.843909 
L 358.805722 155.302364 
L 358.877146 155.049548 
L 358.89143 154.899927 
L 358.927142 155.340084 
L 358.962854 154.923952 
L 359.044992 155.377769 
L 359.116416 155.128037 
L 359.12713 154.97997 
L 359.162842 155.415456 
L 359.198554 155.003996 
L 359.284262 155.453166 
L 359.355686 155.206525 
L 359.3664 155.060019 
L 359.402112 155.490841 
L 359.437824 155.084045 
L 359.519962 155.528483 
L 359.591386 155.284953 
L 359.60567 155.140049 
L 359.641382 155.566147 
L 359.677094 155.164056 
L 359.759232 155.603759 
L 359.830656 155.363343 
L 359.84137 155.22 
L 359.877082 155.641337 
L 359.912794 155.24397 
L 359.998502 155.678921 
L 360.069926 155.441621 
L 360.08064 155.299862 
L 360.116352 155.71645 
L 360.152064 155.323795 
L 360.234202 155.75393 
L 360.305626 155.519747 
L 360.31991 155.379594 
L 360.355622 155.791399 
L 360.391334 155.40349 
L 360.473472 155.828796 
L 360.544896 155.597746 
L 360.55561 155.459158 
L 360.591322 155.866145 
L 360.627034 155.482999 
L 360.712742 155.903465 
L 360.784166 155.675547 
L 360.79488 155.538544 
L 360.830592 155.940699 
L 360.866304 155.562314 
L 360.948442 155.977884 
L 361.019866 155.753096 
L 361.03415 155.617698 
L 361.069862 156.015025 
L 361.105574 155.641397 
L 361.187712 156.052064 
L 361.259136 155.83042 
L 361.26985 155.696567 
L 361.305562 156.089038 
L 361.341274 155.720195 
L 361.426982 156.125969 
L 361.498406 155.907433 
L 361.50912 155.775178 
L 361.544832 156.162783 
L 361.580544 155.798703 
L 361.662682 156.199518 
L 361.734106 155.984117 
L 361.74839 155.853446 
L 361.784102 156.236194 
L 361.819814 155.876869 
L 361.901952 156.272739 
L 361.973376 156.060453 
L 361.98409 155.931321 
L 362.019802 156.309206 
L 362.055514 155.954627 
L 362.141222 156.345584 
L 362.212646 156.136391 
L 362.22336 156.008833 
L 362.259072 156.381833 
L 362.294784 156.032006 
L 362.376922 156.417973 
L 362.448346 156.211883 
L 362.46263 156.0859 
L 362.498342 156.454027 
L 362.534054 156.108942 
L 362.616192 156.489938 
L 362.687616 156.286944 
L 362.69833 156.16249 
L 362.734042 156.525742 
L 362.769754 156.185371 
L 362.855462 156.561416 
L 362.926886 156.361495 
L 362.9376 156.238588 
L 362.973312 156.596964 
L 363.009024 156.26131 
L 363.091162 156.632361 
L 363.162586 156.435491 
L 363.17687 156.314131 
L 363.212582 156.667646 
L 363.248294 156.336696 
L 363.330432 156.702778 
L 363.401856 156.508949 
L 363.41257 156.38909 
L 363.448282 156.737746 
L 363.483994 156.411468 
L 363.569702 156.772589 
L 363.641126 156.581794 
L 363.65184 156.463453 
L 363.687552 156.807266 
L 363.723264 156.485631 
L 363.805402 156.841769 
L 363.876826 156.653983 
L 363.89111 156.537159 
L 363.926822 156.876134 
L 363.962534 156.559141 
L 364.044672 156.910306 
L 364.116096 156.725505 
L 364.12681 156.610151 
L 364.162522 156.944307 
L 364.198234 156.631924 
L 364.283942 156.978158 
L 364.355366 156.796319 
L 364.36608 156.68245 
L 364.401792 157.011806 
L 364.437504 156.703987 
L 364.519642 157.045256 
L 364.591066 156.866367 
L 364.60535 156.75397 
L 364.641062 157.078545 
L 364.676774 156.775288 
L 364.758912 157.111605 
L 364.830336 156.935644 
L 364.84105 156.824685 
L 364.876762 157.144472 
L 364.912474 156.845743 
L 364.998182 157.177167 
L 365.069606 157.004093 
L 365.08032 156.894572 
L 365.116032 157.209607 
L 365.151744 156.915374 
L 365.233882 157.241858 
L 365.305306 157.071662 
L 365.31959 156.963579 
L 365.355302 157.273899 
L 365.391014 156.984113 
L 365.473152 157.305688 
L 365.544576 157.138345 
L 365.55529 157.031653 
L 365.591002 157.337264 
L 365.626714 157.051908 
L 365.712422 157.36862 
L 365.783846 157.204105 
L 365.79456 157.098789 
L 365.830272 157.39973 
L 365.865984 157.118755 
L 365.948122 157.430587 
L 366.019546 157.268848 
L 366.03383 157.164936 
L 366.069542 157.461214 
L 366.105254 157.184587 
L 366.187392 157.491572 
L 366.258816 157.332613 
L 366.26953 157.230029 
L 366.305242 157.521682 
L 366.340954 157.24937 
L 366.426662 157.551539 
L 366.498086 157.395307 
L 366.5088 157.294066 
L 366.544512 157.581117 
L 366.580224 157.313072 
L 366.662362 157.610424 
L 366.733786 157.456896 
L 366.74807 157.356997 
L 366.783782 157.639483 
L 366.819494 157.375659 
L 366.901632 157.668241 
L 366.973056 157.517365 
L 366.98377 157.418761 
L 367.019482 157.696705 
L 367.055194 157.437069 
L 367.140902 157.724898 
L 367.212326 157.57668 
L 367.22304 157.479342 
L 367.258752 157.752782 
L 367.294464 157.497301 
L 367.376602 157.780363 
L 367.448026 157.634751 
L 367.46231 157.538709 
L 367.498022 157.807665 
L 367.533734 157.55628 
L 367.615872 157.834635 
L 367.687296 157.691593 
L 367.69801 157.59677 
L 367.733722 157.861295 
L 367.769434 157.613959 
L 367.855142 157.887654 
L 367.926566 157.747132 
L 367.93728 157.653542 
L 367.972992 157.913658 
L 368.008704 157.670327 
L 368.090842 157.939345 
L 368.162266 157.801335 
L 368.17655 157.70898 
L 368.212262 157.964708 
L 368.247974 157.725337 
L 368.330112 157.989724 
L 368.401536 157.854178 
L 368.41225 157.762982 
L 368.447962 158.014386 
L 368.483674 157.77893 
L 368.569382 158.038731 
L 368.640806 157.9056 
L 368.65152 157.815579 
L 368.687232 158.062679 
L 368.722944 157.831081 
L 368.805082 158.086294 
L 368.876506 157.955558 
L 368.89079 157.866698 
L 368.926502 158.109543 
L 368.962214 157.88176 
L 369.044352 158.132414 
L 369.115776 158.00404 
L 369.12649 157.916295 
L 369.162202 158.154904 
L 369.197914 157.930881 
L 369.283622 158.177034 
L 369.355046 158.050988 
L 369.36576 157.964332 
L 369.401472 158.198766 
L 369.437184 157.978448 
L 369.519322 158.220108 
L 369.590746 158.096331 
L 369.60503 158.010779 
L 369.640742 158.24107 
L 369.676454 158.024416 
L 369.758592 158.261612 
L 369.830016 158.140073 
L 369.84073 158.055565 
L 369.876442 158.281744 
L 369.912154 158.0687 
L 369.997862 158.301488 
L 370.069286 158.182141 
L 370.08 158.098679 
L 370.115712 158.320791 
L 370.151424 158.111306 
L 370.233562 158.339677 
L 370.304986 158.222493 
L 370.354982 158.358153 
L 370.390694 158.15216 
L 370.472832 158.376182 
L 370.544256 158.261117 
L 370.55497 158.179679 
L 370.590682 158.393772 
L 370.626394 158.19122 
L 370.712102 158.410931 
L 370.783526 158.297957 
L 370.79424 158.217483 
L 370.829952 158.427622 
L 370.865664 158.228476 
L 370.947802 158.443866 
L 371.019226 158.332927 
L 371.069222 158.459672 
L 371.104934 158.263855 
L 371.187072 158.474988 
L 371.258496 158.366056 
L 371.26921 158.287458 
L 371.304922 158.489823 
L 371.340634 158.297301 
L 371.426342 158.504225 
L 371.497766 158.397246 
L 371.544192 158.518102 
L 371.579904 158.328815 
L 371.662042 158.531504 
L 371.733466 158.426452 
L 371.783462 158.544437 
L 371.819174 158.358326 
L 371.901312 158.556851 
L 371.972736 158.453674 
L 372.019162 158.568754 
L 372.054874 158.38576 
L 372.140582 158.580168 
L 372.212006 158.47884 
L 372.258432 158.591053 
L 372.294144 158.411131 
L 372.376282 158.601418 
L 372.447706 158.501889 
L 372.497702 158.611271 
L 372.533414 158.434366 
L 372.615552 158.620587 
L 372.686976 158.522806 
L 372.733402 158.629347 
L 372.769114 158.45539 
L 372.854822 158.637599 
L 372.926246 158.54153 
L 372.972672 158.645264 
L 373.008384 158.474215 
L 373.090522 158.65239 
L 373.161946 158.557998 
L 373.211942 158.658972 
L 373.247654 158.490764 
L 373.329792 158.664957 
L 373.401216 158.572192 
L 373.447642 158.670379 
L 373.483354 158.504959 
L 373.569062 158.675246 
L 373.640486 158.584075 
L 373.686912 158.679505 
L 373.722624 158.516823 
L 373.804762 158.683176 
L 373.876186 158.593553 
L 373.926182 158.686269 
L 373.961894 158.526263 
L 374.044032 158.688742 
L 374.115456 158.600619 
L 374.161882 158.690603 
L 374.197594 158.533236 
L 374.283302 158.691872 
L 374.354726 158.60523 
L 374.401152 158.692509 
L 374.436864 158.537708 
L 374.519002 158.692509 
L 374.590426 158.60729 
L 374.640422 158.691904 
L 374.676134 158.539621 
L 374.758272 158.69064 
L 374.829696 158.6068 
L 374.876122 158.688739 
L 374.911834 158.538915 
L 374.997542 158.686205 
L 375.068966 158.6037 
L 375.115392 158.682986 
L 375.151104 158.535564 
L 375.233242 158.679114 
L 375.304666 158.597914 
L 375.354662 158.674596 
L 375.390374 158.529531 
L 375.472512 158.669376 
L 375.543936 158.589437 
L 375.590362 158.663475 
L 375.626074 158.520712 
L 375.711782 158.656911 
L 375.783206 158.57819 
L 375.829632 158.649629 
L 375.865344 158.509112 
L 375.947482 158.641649 
L 376.018906 158.564119 
L 376.068902 158.632989 
L 376.104614 158.494664 
L 376.186752 158.623593 
L 376.258176 158.547199 
L 376.304602 158.613481 
L 376.340314 158.477282 
L 376.426022 158.602657 
L 376.497446 158.527357 
L 376.543872 158.591092 
L 376.579584 158.45698 
L 376.661722 158.578777 
L 376.733146 158.504544 
L 376.783142 158.565744 
L 376.818854 158.43368 
L 376.900992 158.551936 
L 376.972416 158.478716 
L 377.018842 158.537384 
L 377.054554 158.407291 
L 377.140262 158.522078 
L 377.211686 158.449831 
L 377.258112 158.505976 
L 377.293824 158.377818 
L 377.375962 158.489107 
L 377.447386 158.417806 
L 377.497382 158.471475 
L 377.533094 158.345189 
L 377.615232 158.453022 
L 377.686656 158.382614 
L 377.733082 158.433779 
L 377.768794 158.30933 
L 377.854502 158.413747 
L 378.008064 158.270224 
L 378.090202 158.371216 
L 378.161626 158.302502 
L 378.211622 158.348747 
L 378.247334 158.22779 
L 378.329472 158.325418 
L 378.400896 158.257466 
L 378.447322 158.301245 
L 378.483034 158.181971 
L 378.568742 158.276255 
L 378.722304 158.132753 
L 378.804442 158.223677 
L 378.961574 158.080032 
L 379.043712 158.16765 
L 379.197274 158.02378 
L 379.282982 158.108118 
L 379.436544 157.963932 
L 379.518682 158.044981 
L 379.675814 157.900454 
L 379.757952 157.978248 
L 379.911514 157.83324 
L 379.997222 157.90781 
L 380.150784 157.762293 
L 380.232922 157.833623 
L 380.390054 157.687513 
L 380.472192 157.755657 
L 380.625754 157.608849 
L 380.711462 157.673833 
L 380.865024 157.526266 
L 380.947162 157.588064 
L 381.104294 157.439691 
L 381.186432 157.498338 
L 381.339994 157.349048 
L 381.425702 157.404573 
L 381.579264 157.254301 
L 381.661402 157.306703 
L 381.818534 157.155392 
L 381.900672 157.204681 
L 382.054234 157.052231 
L 382.139942 157.098446 
L 382.293504 156.944796 
L 382.375642 156.987899 
L 382.532774 156.833003 
L 382.614912 156.87304 
L 382.768474 156.716775 
L 382.854182 156.753777 
L 383.007744 156.596091 
L 383.089882 156.630028 
L 383.247014 156.470866 
L 383.329152 156.501764 
L 383.482714 156.34101 
L 383.568422 156.368892 
L 383.721984 156.206501 
L 383.804122 156.231361 
L 383.961254 156.067272 
L 384.043392 156.089112 
L 384.196954 155.923215 
L 384.282662 155.942068 
L 384.436224 155.774329 
L 384.518362 155.790166 
L 384.675494 155.620512 
L 384.757632 155.633345 
L 384.911194 155.461677 
L 384.996902 155.471549 
L 385.150464 155.297807 
L 385.232602 155.304665 
L 385.389734 155.128802 
L 385.471872 155.132687 
L 385.625434 154.954578 
L 385.711142 154.955509 
L 385.864704 154.775119 
L 385.946842 154.773058 
L 386.103974 154.590314 
L 386.186112 154.585295 
L 386.339674 154.4001 
L 386.425382 154.392137 
L 386.578944 154.20443 
L 386.661082 154.193479 
L 386.818214 154.003236 
L 386.900352 153.989307 
L 387.053914 153.796384 
L 387.139622 153.779507 
L 387.293184 153.583896 
L 387.375322 153.56402 
L 387.532454 153.365629 
L 387.614592 153.342782 
L 387.81815 153.095968 
L 387.925286 153.049906 
L 388.05385 152.864772 
L 388.160986 152.8163 
L 388.29312 152.627604 
L 388.400256 152.576727 
L 388.53239 152.38437 
L 388.639526 152.331049 
L 388.76809 152.134998 
L 388.875226 152.079215 
L 389.00736 151.879404 
L 389.114496 151.821163 
L 389.24663 151.617535 
L 389.353766 151.556794 
L 389.48233 151.349293 
L 389.589466 151.286008 
L 389.7216 151.074611 
L 389.828736 151.00881 
L 389.96087 150.793411 
L 390.068006 150.72505 
L 390.19657 150.505595 
L 390.303706 150.434653 
L 390.43584 150.211118 
L 390.542976 150.137575 
L 390.67511 149.909855 
L 390.782246 149.83372 
L 390.91081 149.601763 
L 391.017946 149.522961 
L 391.15008 149.286777 
L 391.257216 149.205319 
L 391.38935 148.964776 
L 391.496486 148.880645 
L 391.62505 148.635671 
L 391.732186 148.548823 
L 391.86432 148.299436 
L 391.971456 148.209857 
L 392.10359 147.955928 
L 392.210726 147.863574 
L 392.33929 147.605075 
L 392.446426 147.50997 
L 392.57856 147.246834 
L 392.685696 147.148905 
L 392.81783 146.88108 
L 392.924966 146.780288 
L 393.05353 146.507691 
L 393.160666 146.404072 
L 393.2928 146.126687 
L 393.399936 146.020171 
L 393.53207 145.73789 
L 393.64992 145.540512 
L 393.803482 145.318714 
L 394.078464 144.813687 
L 394.114176 144.821272 
L 394.12489 144.731295 
L 394.282022 144.498211 
L 394.553434 143.975347 
L 394.589146 143.981866 
L 394.60343 143.889723 
L 394.756992 143.645153 
L 395.031974 143.104069 
L 395.067686 143.109436 
L 395.0784 143.01505 
L 395.231962 142.758896 
L 395.506944 142.198992 
L 395.542656 142.20327 
L 395.55337 142.106592 
L 395.710502 141.83861 
L 396.103334 141.019091 
L 396.14976 140.922311 
L 396.303322 140.63925 
L 396.696154 139.78374 
L 396.74615 139.682436 
L 396.899712 139.384043 
L 397.292544 138.491392 
L 397.33897 138.385506 
L 397.567526 137.957706 
L 397.69609 137.579231 
L 397.924646 137.139244 
L 398.05321 136.751554 
L 398.281766 136.299196 
L 398.41033 135.902049 
L 398.638886 135.437034 
L 398.76745 135.030431 
L 398.996006 134.552653 
L 399.12457 134.136284 
L 399.399552 133.466775 
L 399.792384 132.405751 
L 399.828096 132.399989 
L 399.96023 131.960387 
L 400.231642 131.248743 
L 400.624474 130.127061 
L 400.660186 130.119334 
L 400.828032 129.585002 
L 401.338714 128.068637 
L 401.374426 128.059239 
L 401.542272 127.498561 
L 402.052954 125.910226 
L 402.088666 125.899141 
L 402.256512 125.311537 
L 402.767194 123.6493 
L 402.802906 123.636571 
L 402.970752 123.021489 
L 403.481434 121.283695 
L 403.517146 121.269293 
L 403.684992 120.626373 
L 404.195674 118.811626 
L 404.231386 118.795623 
L 404.399232 118.124611 
L 404.909914 116.232206 
L 404.945626 116.214642 
L 405.113472 115.515552 
L 405.624154 113.545526 
L 405.659866 113.526508 
L 405.827712 112.799812 
L 406.338394 110.753524 
L 406.374106 110.733223 
L 406.541952 109.979959 
L 407.052634 107.860747 
L 407.088346 107.839282 
L 407.256192 107.061406 
L 407.766874 104.875523 
L 407.802586 104.853079 
L 407.970432 104.053782 
L 408.481114 101.811725 
L 408.516826 101.788733 
L 408.684672 100.973087 
L 409.195354 98.691327 
L 409.231066 98.668268 
L 409.398912 97.843949 
L 409.909594 95.547419 
L 409.945306 95.524977 
L 410.113152 94.703094 
L 410.623834 92.427742 
L 410.659546 92.406795 
L 410.827392 91.602834 
L 411.220224 89.89316 
L 411.255936 89.874322 
L 411.38807 89.200953 
L 411.659482 88.132031 
L 412.052314 86.540878 
L 412.088026 86.526425 
L 412.255872 85.822784 
L 412.648704 84.361879 
L 412.684416 84.351601 
L 412.81655 83.793145 
L 413.041536 83.160573 
L 413.17367 82.644036 
L 413.398656 82.068517 
L 413.53079 81.598233 
L 413.684352 81.221136 
L 413.959334 80.490709 
L 413.995046 80.491735 
L 414.12361 80.105289 
L 414.280742 79.808711 
L 414.552154 79.232808 
L 414.587866 79.239315 
L 414.60215 79.146466 
L 414.72 78.93958 
L 414.72 74.349647 
L 414.72 74.349647 
" clip-path="url(#pe2be87edf5)" style="fill: none; stroke: #1f77b4; stroke-width: 1.5; stroke-linecap: square"/>
   </g>
   <g id="line2d_12">
    <path d="M 57.6 53.568 
L 68.3136 72.940926 
L 71.801591 78.292868 
L 75.09888 82.955563 
L 78.229751 87.007825 
L 81.158135 90.446501 
L 81.443831 90.75634 
L 84.134016 93.546286 
L 84.336503 93.734133 
L 85.086455 94.447126 
L 85.252873 94.591753 
L 87.59808 96.579422 
L 89.7408 98.112109 
L 91.752457 99.291478 
L 91.836023 99.318386 
L 92.157431 99.475756 
L 93.943031 100.206076 
L 95.609353 100.652473 
L 97.228535 100.87372 
L 97.359241 100.854495 
L 98.894857 100.816333 
L 99.02592 100.771827 
L 100.490112 100.462143 
L 101.918592 99.93531 
L 103.418496 99.175345 
L 103.549559 99.054919 
L 105.09696 97.947717 
L 106.870775 96.431486 
L 107.001481 96.258455 
L 109.846656 93.403931 
L 109.977719 93.220953 
L 111.477623 91.821652 
L 111.560832 91.753312 
L 112.548983 91.057517 
L 112.632192 91.009957 
L 113.382144 90.67586 
L 113.536777 90.66893 
L 113.66784 90.597173 
L 114.334583 90.529416 
L 114.489216 90.571082 
L 114.501001 90.539048 
L 115.167744 90.688205 
L 115.370231 90.768884 
L 116.120183 91.210237 
L 116.441591 91.466113 
L 117.310464 92.343043 
L 118.060416 93.302978 
L 118.191479 93.474986 
L 119.500681 95.507323 
L 121.321993 98.783571 
L 124.488576 105.014095 
L 125.762423 107.583604 
L 129.416832 114.929434 
L 134.690423 125.196449 
L 140.201856 135.061061 
L 144.130176 141.130833 
L 144.451584 141.569411 
L 145.332599 142.739076 
L 147.153911 144.899282 
L 148.701312 146.410679 
L 150.082295 147.479714 
L 150.165504 147.511091 
L 150.439415 147.699981 
L 150.522624 147.724724 
L 150.796535 147.897419 
L 150.879744 147.91526 
L 151.153655 148.071274 
L 151.236864 148.081985 
L 151.439351 148.165614 
L 152.582135 148.515782 
L 152.665344 148.495865 
L 152.819977 148.548855 
L 152.832119 148.516532 
L 153.891337 148.545259 
L 154.0224 148.487782 
L 155.010551 148.225198 
L 156.081911 147.701419 
L 157.272192 146.860177 
L 158.903159 145.407081 
L 161.117303 143.425586 
L 161.153015 143.452654 
L 161.200512 143.361278 
L 162.307584 142.62205 
L 162.343296 142.651777 
L 162.390793 142.575598 
L 163.378944 142.123241 
L 163.414656 142.155306 
L 163.462153 142.09303 
L 164.450304 141.816447 
L 164.604937 141.826041 
L 164.736 141.761031 
L 165.997705 141.613197 
L 166.152695 141.640891 
L 166.235904 141.599599 
L 166.390537 141.629356 
L 166.474103 141.589861 
L 166.628736 141.621467 
L 166.711945 141.583753 
L 166.866935 141.617226 
L 166.950144 141.581153 
L 167.104777 141.616453 
L 167.188343 141.582175 
L 167.342976 141.619258 
L 167.426185 141.586692 
L 167.581175 141.625747 
L 167.664384 141.594986 
L 167.819017 141.636027 
L 167.902583 141.607221 
L 168.057216 141.650373 
L 168.069001 141.618533 
L 169.449984 141.803858 
L 169.604617 141.865775 
L 169.616759 141.840558 
L 170.759543 142.191933 
L 171.033097 142.329478 
L 171.116663 142.344601 
L 171.390217 142.497972 
L 171.473783 142.520334 
L 171.747337 142.69053 
L 171.759479 142.679284 
L 172.782985 143.380516 
L 173.30688 143.826023 
L 174.413952 144.95335 
L 175.687799 146.540957 
L 177.223415 148.762247 
L 177.663744 149.45074 
L 178.651895 151.019599 
L 178.973303 151.548399 
L 179.842176 152.959441 
L 180.163584 153.493438 
L 181.032457 154.902459 
L 181.353865 155.430969 
L 182.270592 156.899892 
L 185.687159 162.005236 
L 188.258423 165.191566 
L 189.246217 166.188468 
L 190.044023 166.852442 
L 190.484352 167.167863 
L 191.674633 167.779213 
L 192.710281 167.981853 
L 193.817353 167.777027 
L 194.722295 167.290039 
L 194.853001 167.142712 
L 195.960073 165.91934 
L 196.983936 164.347011 
L 197.114999 164.037104 
L 198.579191 160.823319 
L 200.924041 154.720165 
L 202.186103 151.62233 
L 202.2336 151.514757 
L 203.495305 148.803847 
L 203.543159 148.7085 
L 208.768896 137.889126 
L 208.899959 137.494763 
L 211.316233 131.429115 
L 214.685303 122.902481 
L 214.7328 122.795716 
L 215.756663 120.70705 
L 215.792375 120.712798 
L 215.80416 120.620867 
L 216.708745 119.202499 
L 216.744457 119.21477 
L 216.756599 119.139992 
L 217.422985 118.398991 
L 217.506551 118.32401 
L 218.137225 117.881257 
L 218.220791 117.838937 
L 218.851465 117.632489 
L 219.006455 117.644451 
L 219.137161 117.601485 
L 219.803904 117.663397 
L 220.006391 117.715743 
L 220.875264 118.090354 
L 221.196672 118.282159 
L 222.303744 119.113159 
L 222.815497 119.581335 
L 222.899063 119.646141 
L 223.458313 120.188305 
L 225.517824 122.402229 
L 226.279561 123.266384 
L 230.719991 128.170381 
L 233.053056 130.412686 
L 233.136265 130.471518 
L 233.541239 130.818712 
L 235.44576 132.278902 
L 237.148151 133.311208 
L 238.695552 133.995908 
L 240.124032 134.393004 
L 241.505015 134.582062 
L 241.588224 134.551696 
L 241.742857 134.586559 
L 241.826423 134.553182 
L 241.981056 134.584237 
L 242.064265 134.547838 
L 242.219255 134.575104 
L 242.349961 134.532359 
L 243.766656 134.352009 
L 243.897719 134.281725 
L 245.361911 133.802034 
L 247.111799 132.984824 
L 251.111543 131.004321 
L 251.266176 130.991644 
L 251.397239 130.913271 
L 252.420745 130.699721 
L 252.575735 130.716534 
L 252.706441 130.674931 
L 253.611383 130.705619 
L 253.813513 130.735497 
L 254.801664 130.999474 
L 255.075575 131.125109 
L 255.158784 131.140298 
L 255.432695 131.281294 
L 255.44448 131.268743 
L 256.706185 131.978067 
L 257.111159 132.244469 
L 259.444224 133.955804 
L 259.968119 134.350349 
L 262.812937 136.353138 
L 262.896503 136.392802 
L 263.30112 136.642009 
L 265.324919 137.734517 
L 267.146231 138.473794 
L 268.883977 138.960066 
L 268.967543 138.953916 
L 269.169673 138.990165 
L 270.788855 139.177765 
L 270.919561 139.154776 
L 272.467319 139.0709 
L 274.01472 138.769233 
L 275.669257 138.249188 
L 275.80032 138.160471 
L 277.58592 137.303152 
L 279.764352 136.001199 
L 284.287991 132.955512 
L 287.537783 130.896574 
L 287.692416 130.839281 
L 287.823479 130.725231 
L 291.346825 128.721687 
L 291.501815 128.670421 
L 291.632521 128.567919 
L 294.560905 127.09979 
L 294.715895 127.057566 
L 294.846601 126.970396 
L 296.941824 126.134206 
L 297.108599 126.077592 
L 298.846345 125.593511 
L 299.048832 125.550642 
L 300.751223 125.309188 
L 301.024777 125.305702 
L 301.15584 125.28322 
L 302.893943 125.302104 
L 303.286775 125.344235 
L 303.417481 125.345449 
L 305.512704 125.655835 
L 306.036599 125.759702 
L 309.798144 126.646434 
L 310.44096 126.805585 
L 316.309513 128.146602 
L 321.379546 129.091172 
L 321.583104 129.115963 
L 322.093786 129.207003 
L 322.297344 129.23056 
L 322.808026 129.319103 
L 323.011584 129.341506 
L 323.522266 129.427637 
L 323.725824 129.448906 
L 324.236506 129.532733 
L 324.404352 129.547701 
L 330.593242 130.335553 
L 340.664026 131.559295 
L 340.67831 131.018855 
L 340.749734 131.03074 
L 340.831872 131.578204 
L 340.867584 131.050651 
L 340.91401 131.05863 
L 340.949722 131.59949 
L 341.021146 131.268077 
L 341.03543 131.078849 
L 341.071142 131.62103 
L 341.106854 131.091004 
L 341.188992 131.642559 
L 341.224704 131.111312 
L 341.27113 131.119469 
L 341.306842 131.664233 
L 341.378266 131.330544 
L 341.39255 131.140108 
L 341.428262 131.686108 
L 341.463974 131.152503 
L 341.546112 131.708021 
L 341.581824 131.173253 
L 341.62825 131.181587 
L 341.663962 131.730027 
L 341.735386 131.394249 
L 341.74967 131.202665 
L 341.785382 131.752307 
L 341.821094 131.215324 
L 341.903232 131.774573 
L 341.938944 131.236536 
L 341.98537 131.245043 
L 342.021082 131.79698 
L 342.092506 131.459225 
L 342.10679 131.266555 
L 342.142502 131.819634 
L 342.178214 131.279498 
L 342.260352 131.842297 
L 342.296064 131.301166 
L 342.34249 131.309844 
L 342.378202 131.865098 
L 342.449626 131.525528 
L 342.46391 131.331834 
L 342.499622 131.888145 
L 342.535334 131.345083 
L 342.617472 131.911222 
L 342.653184 131.367225 
L 342.69961 131.376098 
L 342.735322 131.934412 
L 342.806746 131.593188 
L 342.82103 131.398559 
L 342.856742 131.957869 
L 342.892454 131.412084 
L 342.974592 131.981354 
L 343.010304 131.434719 
L 343.05673 131.443783 
L 343.092442 132.004998 
L 343.163866 131.662235 
L 343.17815 131.466758 
L 343.213862 132.028859 
L 343.249574 131.48058 
L 343.331712 132.05277 
L 343.367424 131.503725 
L 343.41385 131.513002 
L 343.449562 132.076837 
L 343.520986 131.732696 
L 343.53527 131.536458 
L 343.570982 132.101142 
L 343.606694 131.550599 
L 343.688832 132.125471 
L 343.724544 131.574245 
L 343.77097 131.583733 
L 343.806682 132.149978 
L 343.878106 131.804645 
L 343.89239 131.607737 
L 343.928102 132.17472 
L 343.963814 131.622164 
L 344.045952 132.199507 
L 344.081664 131.646354 
L 344.12809 131.656049 
L 344.163802 132.224446 
L 344.235226 131.878084 
L 344.24951 131.680567 
L 344.285222 132.249665 
L 344.320934 131.695352 
L 344.403072 132.274903 
L 344.438784 131.720051 
L 344.48521 131.729974 
L 344.520922 132.300313 
L 344.592346 131.953059 
L 344.60663 131.755047 
L 344.642342 132.325953 
L 344.678054 131.770133 
L 344.760192 132.351681 
L 344.795904 131.795383 
L 344.84233 131.805529 
L 344.878042 132.37753 
L 344.949466 132.029568 
L 344.96375 131.831148 
L 344.999462 132.403677 
L 345.035174 131.846579 
L 345.117312 132.429862 
L 345.153024 131.872394 
L 345.19945 131.88276 
L 345.235162 132.456189 
L 345.306586 132.107678 
L 345.32087 131.908938 
L 345.356582 132.482787 
L 345.392294 131.924709 
L 345.474432 132.509467 
L 345.510144 131.951078 
L 345.55657 131.96166 
L 345.592282 132.536286 
L 345.663706 132.187409 
L 345.67799 131.988436 
L 345.713702 132.563372 
L 345.749414 132.00454 
L 345.831552 132.590514 
L 345.867264 132.031501 
L 345.91369 132.042294 
L 345.949402 132.617815 
L 346.020826 132.268753 
L 346.03511 132.069634 
L 346.070822 132.645404 
L 346.106534 132.086088 
L 346.188672 132.673021 
L 346.224384 132.11363 
L 346.27081 132.124679 
L 346.306522 132.700818 
L 346.377946 132.35175 
L 346.39223 132.152594 
L 346.427942 132.728899 
L 346.463654 132.169391 
L 346.545792 132.757028 
L 346.581504 132.197527 
L 346.62793 132.208803 
L 346.663642 132.785311 
L 346.735066 132.436413 
L 346.74935 132.237305 
L 346.785062 132.813896 
L 346.820774 132.254463 
L 346.902912 132.842526 
L 346.938624 132.283156 
L 346.98505 132.294678 
L 347.020762 132.871306 
L 347.092186 132.522755 
L 347.10647 132.32378 
L 347.142182 132.900385 
L 347.177894 132.34129 
L 347.260032 132.929506 
L 347.295744 132.3706 
L 347.34217 132.382338 
L 347.377882 132.958796 
L 347.449306 132.610786 
L 347.46359 132.412027 
L 347.499302 132.988381 
L 347.535014 132.429906 
L 347.617152 133.018004 
L 347.652864 132.459795 
L 347.69929 132.471793 
L 347.735002 133.047814 
L 347.806426 132.700493 
L 347.82071 132.502078 
L 347.856422 133.077894 
L 347.892134 132.520295 
L 347.974272 133.10803 
L 348.045696 132.761258 
L 348.05641 132.563026 
L 348.092122 133.138327 
L 348.127834 132.581494 
L 348.213542 133.168912 
L 348.249254 132.612488 
L 348.29568 132.624874 
L 348.331392 133.19955 
L 348.402816 132.853805 
L 348.41353 132.656042 
L 348.449242 133.230367 
L 348.484954 132.674881 
L 348.570662 133.261445 
L 348.606374 132.706465 
L 348.6528 132.719095 
L 348.688512 133.292594 
L 348.759936 132.948015 
L 348.77065 132.750848 
L 348.806362 133.323897 
L 348.842074 132.770025 
L 348.927782 133.355479 
L 348.963494 132.802208 
L 349.00992 132.815076 
L 349.045632 133.387128 
L 349.117056 133.043919 
L 349.12777 132.847444 
L 349.163482 133.418948 
L 349.199194 132.866975 
L 349.284902 133.451021 
L 349.320614 132.899742 
L 349.36704 132.912843 
L 349.402752 133.483157 
L 349.474176 133.141495 
L 349.48489 132.945789 
L 349.520602 133.515482 
L 349.556314 132.965663 
L 349.642022 133.548056 
L 349.677734 132.999023 
L 349.72416 133.012351 
L 349.759872 133.580689 
L 349.831296 133.240725 
L 349.84201 133.045882 
L 349.877722 133.613484 
L 349.913434 133.066092 
L 349.999142 133.646546 
L 350.034854 133.100029 
L 350.08128 133.113599 
L 350.116992 133.679684 
L 350.188416 133.341588 
L 350.19913 133.1477 
L 350.234842 133.712959 
L 350.270554 133.168282 
L 350.356262 133.746517 
L 350.391974 133.202781 
L 350.4384 133.216565 
L 350.474112 133.780126 
L 350.545536 133.444085 
L 350.55625 133.251222 
L 350.591962 133.813889 
L 350.627674 133.272142 
L 350.713382 133.847909 
L 350.749094 133.30721 
L 350.79552 133.321225 
L 350.831232 133.881997 
L 350.902656 133.548171 
L 350.91337 133.356443 
L 350.949082 133.916235 
L 350.984794 133.377693 
L 351.070502 133.950726 
L 351.106214 133.413314 
L 351.15264 133.427554 
L 351.188352 133.985259 
L 351.259776 133.653825 
L 351.27049 133.463317 
L 351.306202 134.019959 
L 351.341914 133.484888 
L 351.427622 134.054907 
L 351.463334 133.521046 
L 351.50976 133.535504 
L 351.545472 134.089914 
L 351.616896 133.761002 
L 351.62761 133.571798 
L 351.663322 134.125063 
L 351.699034 133.59368 
L 351.784742 134.160476 
L 351.820454 133.630381 
L 351.86688 133.645029 
L 351.902592 134.195903 
L 351.974016 133.8697 
L 351.98473 133.681858 
L 352.020442 134.231508 
L 352.056154 133.704064 
L 352.141862 134.267332 
L 352.177574 133.741271 
L 352.224 133.756124 
L 352.259712 134.303206 
L 352.331136 133.979832 
L 352.34185 133.793452 
L 352.377562 134.339234 
L 352.413274 133.815971 
L 352.498982 134.375497 
L 352.534694 133.853669 
L 352.58112 133.868721 
L 352.616832 134.411785 
L 352.688256 134.091397 
L 352.69897 133.906554 
L 352.734682 134.448223 
L 352.770394 133.929356 
L 352.856102 134.484891 
L 352.891814 133.967549 
L 352.93824 133.982794 
L 352.973952 134.521581 
L 353.045376 134.204329 
L 353.05609 134.021094 
L 353.091802 134.558416 
L 353.127514 134.04417 
L 353.213222 134.595477 
L 353.248934 134.082823 
L 353.29536 134.098254 
L 353.331072 134.632576 
L 353.402496 134.318565 
L 353.41321 134.137007 
L 353.448922 134.669775 
L 353.484634 134.160368 
L 353.570342 134.707217 
L 353.606054 134.199465 
L 353.65248 134.215077 
L 353.688192 134.744692 
L 353.759616 134.434082 
L 353.77033 134.254267 
L 353.806042 134.782263 
L 353.841754 134.277884 
L 353.927462 134.820073 
L 353.963174 134.317409 
L 354.0096 134.333196 
L 354.045312 134.857893 
L 354.116736 134.550817 
L 354.12745 134.372808 
L 354.163162 134.895824 
L 354.198874 134.396651 
L 354.284582 134.933951 
L 354.320294 134.436592 
L 354.36672 134.452526 
L 354.402432 134.972103 
L 354.473856 134.668669 
L 354.48457 134.492546 
L 354.520282 135.010363 
L 354.555994 134.516628 
L 354.641702 135.048834 
L 354.677414 134.556948 
L 354.72384 134.573045 
L 354.759552 135.087307 
L 354.830976 134.787618 
L 354.84169 134.613418 
L 354.877402 135.125884 
L 354.913114 134.637729 
L 354.998822 135.164649 
L 355.034534 134.678395 
L 355.08096 134.69463 
L 355.116672 135.203413 
L 355.188096 134.907586 
L 355.19881 134.735362 
L 355.234522 135.242277 
L 355.270234 134.759876 
L 355.355942 135.281326 
L 355.391654 134.800894 
L 355.43808 134.81726 
L 355.473792 135.32035 
L 355.545216 135.028495 
L 355.55593 134.858299 
L 355.591642 135.359472 
L 355.627354 134.883007 
L 355.713062 135.398794 
L 355.748774 134.924325 
L 355.7952 134.940818 
L 355.830912 135.438088 
L 355.902336 135.150272 
L 355.91305 134.982171 
L 355.948762 135.477439 
L 355.984474 135.007045 
L 356.070182 135.516985 
L 356.105894 135.048651 
L 356.15232 135.065247 
L 356.188032 135.556502 
L 356.259456 135.272844 
L 356.27017 135.106863 
L 356.305882 135.596091 
L 356.341594 135.131897 
L 356.427302 135.635853 
L 356.463014 135.173759 
L 356.545152 135.675565 
L 356.616576 135.39614 
L 356.62729 135.232321 
L 356.663002 135.715346 
L 356.698714 135.257489 
L 356.784422 135.755297 
L 356.855846 135.478721 
L 356.86656 135.316365 
L 356.902272 135.795195 
L 356.937984 135.341625 
L 357.020122 135.835141 
L 357.091546 135.561449 
L 357.10583 135.400688 
L 357.141542 135.875237 
L 357.177254 135.426019 
L 357.259392 135.915277 
L 357.330816 135.644522 
L 357.34153 135.485141 
L 357.377242 135.955362 
L 357.412954 135.51054 
L 357.498662 135.995595 
L 357.570086 135.727792 
L 357.5808 135.569921 
L 357.616512 136.03577 
L 357.652224 135.595385 
L 357.734362 136.07597 
L 357.805786 135.811132 
L 357.82007 135.654881 
L 357.855782 136.116316 
L 357.891494 135.680409 
L 357.973632 136.156565 
L 358.045056 135.894739 
L 358.05577 135.739911 
L 358.091482 136.196856 
L 358.127194 135.765464 
L 358.212902 136.237273 
L 358.284326 135.978452 
L 358.29504 135.825173 
L 358.330752 136.277592 
L 358.366464 135.850767 
L 358.448602 136.317933 
L 358.520026 136.062161 
L 358.53431 135.910521 
L 358.570022 136.358398 
L 358.605734 135.936137 
L 358.687872 136.398764 
L 358.759296 136.146032 
L 358.77001 135.99585 
L 358.805722 136.439134 
L 358.841434 136.021485 
L 358.927142 136.479608 
L 358.998566 136.22994 
L 359.00928 136.08134 
L 359.044992 136.519965 
L 359.080704 136.106976 
L 359.162842 136.560324 
L 359.234266 136.313761 
L 359.24855 136.16683 
L 359.284262 136.600787 
L 359.319974 136.192466 
L 359.402112 136.641133 
L 359.473536 136.397661 
L 359.48425 136.252181 
L 359.519962 136.681445 
L 359.555674 136.277815 
L 359.641382 136.72186 
L 359.712806 136.4815 
L 359.72352 136.337611 
L 359.759232 136.76214 
L 359.794944 136.363208 
L 359.877082 136.802386 
L 359.948506 136.565141 
L 359.96279 136.422945 
L 359.998502 136.842718 
L 360.034214 136.448522 
L 360.116352 136.882915 
L 360.187776 136.648785 
L 360.19849 136.508063 
L 360.234202 136.923061 
L 360.269914 136.533602 
L 360.355622 136.963275 
L 360.427046 136.732278 
L 360.43776 136.593133 
L 360.473472 137.003338 
L 360.509184 136.618616 
L 360.591322 137.043351 
L 360.662746 136.815485 
L 360.67703 136.678036 
L 360.712742 137.083415 
L 360.748454 136.703464 
L 360.830592 137.123312 
L 360.902016 136.898577 
L 360.91273 136.762601 
L 360.948442 137.163159 
L 360.984154 136.787957 
L 361.069862 137.203042 
L 361.141286 136.981435 
L 361.152 136.847035 
L 361.187712 137.242741 
L 361.223424 136.872319 
L 361.305562 137.282376 
L 361.376986 137.06391 
L 361.39127 136.931202 
L 361.426982 137.322047 
L 361.462694 136.956382 
L 361.544832 137.36152 
L 361.616256 137.146159 
L 361.62697 137.014938 
L 361.662682 137.400912 
L 361.698394 137.040014 
L 361.784102 137.440327 
L 361.855526 137.228083 
L 361.86624 137.098415 
L 361.901952 137.479529 
L 361.937664 137.123388 
L 362.019802 137.518651 
L 362.091226 137.309518 
L 362.10551 137.181519 
L 362.141222 137.557766 
L 362.176934 137.206375 
L 362.259072 137.596669 
L 362.330496 137.390641 
L 362.34121 137.264104 
L 362.376922 137.635463 
L 362.412634 137.288811 
L 362.498342 137.674251 
L 362.569766 137.471322 
L 362.58048 137.346329 
L 362.616192 137.712815 
L 362.651904 137.370906 
L 362.734042 137.751271 
L 362.805466 137.551403 
L 362.81975 137.428067 
L 362.855462 137.789677 
L 362.891174 137.452483 
L 362.973312 137.827875 
L 363.044736 137.631076 
L 363.05545 137.509175 
L 363.091162 137.865923 
L 363.126874 137.533432 
L 363.212582 137.903938 
L 363.284006 137.710199 
L 363.29472 137.589831 
L 363.330432 137.941718 
L 363.366144 137.613899 
L 363.448282 137.979335 
L 363.519706 137.788633 
L 363.53399 137.669877 
L 363.569702 138.016906 
L 363.605414 137.693759 
L 363.687552 138.05423 
L 363.758976 137.866541 
L 363.76969 137.74919 
L 363.805402 138.091378 
L 363.841114 137.772874 
L 363.926822 138.128469 
L 363.998246 137.943784 
L 364.00896 137.82792 
L 364.044672 138.165286 
L 364.080384 137.851408 
L 364.162522 138.201931 
L 364.233946 138.020226 
L 364.24823 137.905943 
L 364.283942 138.238507 
L 364.319654 137.929207 
L 364.401792 138.274797 
L 364.473216 138.096032 
L 364.48393 137.983124 
L 364.519642 138.310889 
L 364.555354 138.006167 
L 364.641062 138.3469 
L 364.712486 138.171066 
L 364.7232 138.059628 
L 364.758912 138.382601 
L 364.794624 138.082408 
L 364.876762 138.418108 
L 364.948186 138.245195 
L 364.96247 138.13529 
L 364.998182 138.453523 
L 365.033894 138.157827 
L 365.116032 138.488602 
L 365.187456 138.318585 
L 365.19817 138.210008 
L 365.233882 138.523491 
L 365.269594 138.232274 
L 365.355302 138.558249 
L 365.426726 138.391075 
L 365.43744 138.28392 
L 365.473152 138.592676 
L 365.508864 138.305919 
L 365.591002 138.626888 
L 365.662426 138.462562 
L 365.67671 138.356893 
L 365.712422 138.660959 
L 365.748134 138.3786 
L 365.830272 138.694704 
L 365.901696 138.533172 
L 365.91241 138.428782 
L 365.948122 138.728196 
L 365.983834 138.450186 
L 366.069542 138.761537 
L 366.140966 138.602788 
L 366.15168 138.499772 
L 366.187392 138.794527 
L 366.223104 138.520863 
L 366.305242 138.82727 
L 366.376666 138.671267 
L 366.39095 138.56969 
L 366.426662 138.859838 
L 366.462374 138.590458 
L 366.544512 138.892047 
L 366.615936 138.738767 
L 366.62665 138.638435 
L 366.662362 138.923985 
L 366.698074 138.658855 
L 366.783782 138.955754 
L 366.855206 138.805158 
L 366.86592 138.706123 
L 366.901632 138.987141 
L 366.937344 138.726215 
L 367.019482 139.018233 
L 367.090906 138.870284 
L 367.10519 138.772655 
L 367.140902 139.049134 
L 367.176614 138.79238 
L 367.258752 139.079645 
L 367.330176 138.934319 
L 367.34089 138.83786 
L 367.376602 139.109853 
L 367.412314 138.857223 
L 367.498022 139.13986 
L 367.569446 138.997122 
L 367.58016 138.901927 
L 367.615872 139.169455 
L 367.651584 138.920891 
L 367.733722 139.19874 
L 367.805146 139.058553 
L 367.81943 138.964688 
L 367.855142 139.227802 
L 367.890854 138.983271 
L 367.972992 139.25643 
L 368.044416 139.118758 
L 368.05513 139.026016 
L 368.090842 139.284739 
L 368.126554 139.044183 
L 368.212262 139.312804 
L 368.283686 139.177626 
L 368.2944 139.086075 
L 368.330112 139.340441 
L 368.365824 139.103829 
L 368.447962 139.367724 
L 368.519386 139.234991 
L 368.53367 139.144723 
L 368.569382 139.394768 
L 368.605094 139.162029 
L 368.687232 139.421336 
L 368.758656 139.291014 
L 368.76937 139.201797 
L 368.805082 139.447569 
L 368.840794 139.218673 
L 368.926502 139.473516 
L 368.997926 139.345558 
L 369.00864 139.257485 
L 369.044352 139.499005 
L 369.080064 139.273896 
L 369.162202 139.524111 
L 369.233626 139.398484 
L 369.24791 139.311637 
L 369.283622 139.548937 
L 369.319334 139.327573 
L 369.401472 139.573284 
L 369.472896 139.449955 
L 369.48361 139.364087 
L 369.519322 139.597241 
L 369.555034 139.379554 
L 369.640742 139.620896 
L 369.712166 139.49982 
L 369.72288 139.415026 
L 369.758592 139.644052 
L 369.794304 139.429988 
L 369.876442 139.666797 
L 369.947866 139.547941 
L 369.96215 139.464303 
L 369.997862 139.689233 
L 370.033574 139.478752 
L 370.115712 139.711148 
L 370.187136 139.594482 
L 370.19785 139.511767 
L 370.233562 139.732644 
L 370.269274 139.525695 
L 370.354982 139.75381 
L 370.426406 139.639278 
L 370.43712 139.557582 
L 370.472832 139.774449 
L 370.508544 139.57098 
L 370.590682 139.794647 
L 370.662106 139.682206 
L 370.67639 139.601595 
L 370.712102 139.814494 
L 370.747814 139.614442 
L 370.829952 139.833793 
L 370.901376 139.723427 
L 370.91209 139.643672 
L 370.947802 139.852644 
L 370.983514 139.655959 
L 371.069222 139.871136 
L 371.140646 139.76279 
L 371.15136 139.68396 
L 371.187072 139.889058 
L 371.222784 139.695691 
L 371.304922 139.906498 
L 371.376346 139.800131 
L 371.426342 139.923583 
L 371.462054 139.733474 
L 371.544192 139.940065 
L 371.615616 139.835637 
L 371.62633 139.758631 
L 371.662042 139.956069 
L 371.697754 139.769171 
L 371.783462 139.971685 
L 371.854886 139.869157 
L 371.901312 139.986701 
L 371.937024 139.802942 
L 372.019162 140.001205 
L 372.090586 139.900539 
L 372.140582 140.015298 
L 372.176294 139.834647 
L 372.258432 140.028783 
L 372.329856 139.929927 
L 372.376282 140.041748 
L 372.411994 139.864121 
L 372.497702 140.054279 
L 372.569126 139.957208 
L 372.615552 140.066193 
L 372.651264 139.891548 
L 372.733402 140.07755 
L 372.804826 139.982202 
L 372.854822 140.088478 
L 372.890534 139.91676 
L 372.972672 140.09874 
L 373.044096 140.005092 
L 373.090522 140.108461 
L 373.126234 139.939617 
L 373.211942 140.117717 
L 373.283366 140.025707 
L 373.329792 140.126296 
L 373.365504 139.960286 
L 373.447642 140.134312 
L 373.519066 140.043918 
L 373.569062 140.14185 
L 373.604774 139.978597 
L 373.686912 140.148702 
L 373.758336 140.059878 
L 373.804762 140.154965 
L 373.840474 139.994418 
L 373.926182 140.160727 
L 373.997606 140.073427 
L 374.044032 140.165791 
L 374.079744 140.007887 
L 374.161882 140.170242 
L 374.233306 140.084431 
L 374.283302 140.174179 
L 374.319014 140.018884 
L 374.401152 140.177405 
L 374.472576 140.093039 
L 374.519002 140.179993 
L 374.554714 140.027245 
L 374.640422 140.182053 
L 374.711846 140.099101 
L 374.758272 140.183377 
L 374.793984 140.033118 
L 374.876122 140.184061 
L 374.947546 140.102464 
L 374.997542 140.184192 
L 375.033254 140.036362 
L 375.115392 140.183558 
L 375.186816 140.103286 
L 375.233242 140.18227 
L 375.268954 140.036813 
L 375.354662 140.180413 
L 375.426086 140.101411 
L 375.472512 140.177777 
L 375.508224 140.034649 
L 375.590362 140.174458 
L 375.661786 140.096708 
L 375.711782 140.170553 
L 375.747494 140.029699 
L 375.829632 140.165853 
L 375.901056 140.0893 
L 375.947482 140.160453 
L 375.983194 140.021818 
L 376.068902 140.154451 
L 376.140326 140.079054 
L 376.186752 140.147635 
L 376.222464 140.011165 
L 376.304602 140.140101 
L 376.376026 140.065818 
L 376.426022 140.131933 
L 376.461734 139.997575 
L 376.543872 140.122945 
L 376.615296 140.049736 
L 376.661722 140.113208 
L 376.697434 139.98091 
L 376.783142 140.102828 
L 376.854566 140.030664 
L 376.900992 140.091596 
L 376.936704 139.961308 
L 377.018842 140.079618 
L 377.090266 140.008447 
L 377.140262 140.066965 
L 377.175974 139.938623 
L 377.258112 140.053436 
L 377.329536 139.98323 
L 377.375962 140.039141 
L 377.411674 139.912708 
L 377.497382 140.024158 
L 377.568806 139.954864 
L 377.615232 140.008278 
L 377.650944 139.883692 
L 377.733082 139.991605 
L 377.804506 139.923197 
L 377.854502 139.974222 
L 377.890214 139.85145 
L 377.972352 139.955941 
L 378.043776 139.888366 
L 378.090202 139.93683 
L 378.125914 139.815809 
L 378.211622 139.917007 
L 378.365184 139.776918 
L 378.447322 139.87464 
L 378.518746 139.808627 
L 378.568742 139.852295 
L 378.604454 139.734613 
L 378.686592 139.828996 
L 378.758016 139.763711 
L 378.804442 139.804848 
L 378.840154 139.688767 
L 378.925862 139.779917 
L 379.079424 139.639503 
L 379.161562 139.727259 
L 379.318694 139.586674 
L 379.400832 139.671138 
L 379.554394 139.530129 
L 379.640102 139.611427 
L 379.793664 139.469992 
L 379.875802 139.547943 
L 380.032934 139.406133 
L 380.115072 139.480859 
L 380.268634 139.338374 
L 380.354342 139.40998 
L 380.507904 139.266855 
L 380.590042 139.335194 
L 380.747174 139.191433 
L 380.829312 139.256591 
L 380.982874 139.111961 
L 381.068582 139.17405 
L 381.222144 139.02855 
L 381.304282 139.087401 
L 381.461414 138.941057 
L 381.543552 138.996778 
L 381.697114 138.849308 
L 381.782822 138.902018 
L 381.936384 138.753472 
L 382.018522 138.802981 
L 382.175654 138.653364 
L 382.257792 138.699786 
L 382.411354 138.548823 
L 382.497062 138.59227 
L 382.650624 138.440006 
L 382.732762 138.480296 
L 382.889894 138.326726 
L 382.972032 138.363966 
L 383.125594 138.208855 
L 383.211302 138.243133 
L 383.364864 138.086487 
L 383.447002 138.117646 
L 383.604134 137.959483 
L 383.686272 137.987622 
L 383.839834 137.827684 
L 383.925542 137.852899 
L 384.079104 137.691215 
L 384.161242 137.713329 
L 384.318374 137.549925 
L 384.400512 137.569012 
L 384.554074 137.403621 
L 384.639782 137.419821 
L 384.793344 137.252465 
L 384.875482 137.265575 
L 385.032614 137.096271 
L 385.114752 137.106394 
L 385.268314 136.934885 
L 385.354022 136.942119 
L 385.507584 136.768434 
L 385.589722 136.77259 
L 385.746854 136.596736 
L 385.828992 136.597927 
L 385.982554 136.419659 
L 386.068262 136.41798 
L 386.221824 136.237299 
L 386.303962 136.232552 
L 386.461094 136.049514 
L 386.543232 136.041791 
L 386.696794 135.856102 
L 386.782502 135.845511 
L 386.936064 135.657223 
L 387.018202 135.643562 
L 387.175334 135.452704 
L 387.257472 135.436079 
L 387.411034 135.24235 
L 387.496742 135.222845 
L 387.69673 134.982321 
L 387.803866 134.939717 
L 387.936 134.759219 
L 388.043136 134.714232 
L 388.17527 134.53017 
L 388.282406 134.482785 
L 388.41097 134.294983 
L 388.518106 134.245162 
L 388.65024 134.053797 
L 388.757376 134.001544 
L 388.88951 133.806441 
L 388.996646 133.751716 
L 389.12521 133.55274 
L 389.232346 133.495524 
L 389.36448 133.292783 
L 389.471616 133.233055 
L 389.60375 133.02644 
L 389.710886 132.96418 
L 389.83945 132.753511 
L 389.946586 132.6887 
L 390.07872 132.474105 
L 390.185856 132.406748 
L 390.31799 132.18807 
L 390.425126 132.118122 
L 390.55369 131.895206 
L 390.660826 131.822646 
L 390.79296 131.595649 
L 390.900096 131.520459 
L 391.03223 131.289201 
L 391.139366 131.211362 
L 391.26793 130.97572 
L 391.375066 130.895186 
L 391.5072 130.655266 
L 391.614336 130.57202 
L 391.74647 130.327677 
L 391.853606 130.241736 
L 391.98217 129.992794 
L 392.089306 129.904083 
L 392.22144 129.650721 
L 392.328576 129.559228 
L 392.46071 129.301244 
L 392.567846 129.206996 
L 392.69641 128.944226 
L 392.803546 128.847151 
L 392.93568 128.579753 
L 393.042816 128.479813 
L 393.17495 128.207633 
L 393.282086 128.104829 
L 393.41065 127.827682 
L 393.517786 127.721984 
L 393.64992 127.440009 
L 393.803482 127.221454 
L 394.078464 126.722232 
L 394.114176 126.730571 
L 394.12489 126.64082 
L 394.282022 126.411052 
L 394.553434 125.893913 
L 394.589146 125.901185 
L 394.60343 125.809343 
L 394.756992 125.56801 
L 395.031974 125.032721 
L 395.067686 125.038841 
L 395.0784 124.94468 
L 395.231962 124.691761 
L 395.506944 124.137646 
L 395.542656 124.142675 
L 395.55337 124.046223 
L 395.710502 123.781547 
L 396.103334 122.970289 
L 396.14976 122.874485 
L 396.303322 122.594651 
L 396.696154 121.747393 
L 396.74615 121.647139 
L 396.899712 121.35197 
L 397.292544 120.467561 
L 397.33897 120.362648 
L 397.567526 119.93964 
L 397.69609 119.56386 
L 397.924646 119.128661 
L 398.05321 118.743663 
L 398.281766 118.29609 
L 398.41033 117.901635 
L 398.638886 117.441401 
L 398.76745 117.037487 
L 398.996006 116.564487 
L 399.12457 116.150805 
L 399.353126 115.664719 
L 399.48169 115.241212 
L 399.756672 114.55958 
L 400.149504 113.481037 
L 400.185216 113.47517 
L 400.31735 113.028065 
L 400.588762 112.303636 
L 401.103014 110.821567 
L 401.138726 110.813468 
L 401.26729 110.338129 
L 401.542272 109.563484 
L 402.052954 107.985765 
L 402.088666 107.975422 
L 402.256512 107.391305 
L 402.767194 105.739668 
L 402.802906 105.72768 
L 402.970752 105.116079 
L 403.481434 103.388871 
L 403.517146 103.37521 
L 403.684992 102.735766 
L 404.195674 100.93159 
L 404.231386 100.916326 
L 404.399232 100.248786 
L 404.909914 98.366937 
L 404.945626 98.350111 
L 405.113472 97.654488 
L 405.624154 95.695004 
L 405.659866 95.676722 
L 405.827712 94.953488 
L 406.338394 92.917727 
L 406.374106 92.898162 
L 406.541952 92.148356 
L 407.052634 90.039656 
L 407.088346 90.018926 
L 407.256192 89.244502 
L 407.766874 87.069117 
L 407.802586 87.047407 
L 407.970432 86.251558 
L 408.481114 84.019983 
L 408.516826 83.997724 
L 408.684672 83.185521 
L 409.195354 80.91423 
L 409.231066 80.891903 
L 409.398912 80.071021 
L 409.909594 77.784945 
L 409.945306 77.763234 
L 410.113152 76.944784 
L 410.623834 74.679872 
L 410.659546 74.659655 
L 410.827392 73.859122 
L 411.220224 72.157469 
L 411.255936 72.139359 
L 411.38807 71.468687 
L 411.659482 70.405301 
L 412.052314 68.822154 
L 412.088026 68.808429 
L 412.255872 68.108208 
L 412.648704 66.655301 
L 412.684416 66.64575 
L 412.81655 66.089982 
L 413.041536 65.461987 
L 413.17367 64.948136 
L 413.398656 64.377191 
L 413.53079 63.909592 
L 413.684352 63.535615 
L 413.959334 62.810772 
L 413.995046 62.812523 
L 414.12361 62.428686 
L 414.280742 62.135296 
L 414.552154 61.564899 
L 414.587866 61.57213 
L 414.60215 61.47957 
L 414.72 61.275074 
L 414.72 56.685141 
L 414.72 56.685141 
" clip-path="url(#pe2be87edf5)" style="fill: none; stroke-dasharray: 5.55,2.4; stroke-dashoffset: 0; stroke: #ff7f0e; stroke-width: 1.5"/>
   </g>
   <g id="line2d_13">
    <path d="M 57.6 239.200694 
L 95.81184 241.166672 
L 132.107017 242.78777 
L 172.711561 244.374619 
L 218.542199 245.938924 
L 270.479232 247.484424 
L 329.48617 249.013077 
L 396.614016 250.524854 
L 414.72 250.898419 
L 414.72 250.898419 
" clip-path="url(#pe2be87edf5)" style="fill: none; stroke: #ff0000; stroke-width: 1.5; stroke-linecap: square"/>
   </g>
   <g id="line2d_14">
    <path d="M -1 295.488 
L 461.8 295.488 
" clip-path="url(#pe2be87edf5)" style="fill: none; stroke-dasharray: 5.55,2.4; stroke-dashoffset: 0; stroke: #2ca02c; stroke-width: 1.5"/>
   </g>
   <g id="line2d_15">
    <path d="M -1 241.637852 
L 461.8 241.637852 
" clip-path="url(#pe2be87edf5)" style="fill: none; stroke-dasharray: 5.55,2.4; stroke-dashoffset: 0; stroke: #d62728; stroke-width: 1.5"/>
   </g>
   <g id="patch_3">
    <path d="M 57.6 307.584 
L 57.6 41.472 
" style="fill: none; stroke: #000000; stroke-width: 0.8; stroke-linejoin: miter; stroke-linecap: square"/>
   </g>
   <g id="patch_4">
    <path d="M 414.72 307.584 
L 414.72 41.472 
" style="fill: none; stroke: #000000; stroke-width: 0.8; stroke-linejoin: miter; stroke-linecap: square"/>
   </g>
   <g id="patch_5">
    <path d="M 57.6 307.584 
L 414.72 307.584 
" style="fill: none; stroke: #000000; stroke-width: 0.8; stroke-linejoin: miter; stroke-linecap: square"/>
   </g>
   <g id="patch_6">
    <path d="M 57.6 41.472 
L 414.72 41.472 
" style="fill: none; stroke: #000000; stroke-width: 0.8; stroke-linejoin: miter; stroke-linecap: square"/>
   </g>
   <g id="legend_1">
    <g id="patch_7">
     <path d="M 185.360781 93.506375 
L 286.959219 93.506375 
Q 288.959219 93.506375 288.959219 91.506375 
L 288.959219 48.472 
Q 288.959219 46.472 286.959219 46.472 
L 185.360781 46.472 
Q 183.360781 46.472 183.360781 48.472 
L 183.360781 91.506375 
Q 183.360781 93.506375 185.360781 93.506375 
z
" style="fill: #ffffff; opacity: 0.8; stroke: #cccccc; stroke-linejoin: miter"/>
    </g>
    <g id="line2d_16">
     <path d="M 187.360781 54.570438 
L 197.360781 54.570438 
L 207.360781 54.570438 
" style="fill: none; stroke: #1f77b4; stroke-width: 1.5; stroke-linecap: square"/>
    </g>
    <g id="text_13">
     <!-- Py2 0.177mm -->
     <g transform="translate(215.360781 58.070438)scale(0.1 -0.1)">
      <defs>
       <path id="DejaVuSans-2e" d="M 684 794 
L 1344 794 
L 1344 0 
L 684 0 
L 684 794 
z
" transform="scale(0.015625)"/>
       <path id="DejaVuSans-37" d="M 525 4666 
L 3525 4666 
L 3525 4397 
L 1831 0 
L 1172 0 
L 2766 4134 
L 525 4134 
L 525 4666 
z
" transform="scale(0.015625)"/>
      </defs>
      <use xlink:href="#DejaVuSans-50"/>
      <use xlink:href="#DejaVuSans-79" x="60.302734"/>
      <use xlink:href="#DejaVuSans-32" x="119.482422"/>
      <use xlink:href="#DejaVuSans-20" x="183.105469"/>
      <use xlink:href="#DejaVuSans-30" x="214.892578"/>
      <use xlink:href="#DejaVuSans-2e" x="278.515625"/>
      <use xlink:href="#DejaVuSans-31" x="310.302734"/>
      <use xlink:href="#DejaVuSans-37" x="373.925781"/>
      <use xlink:href="#DejaVuSans-37" x="437.548828"/>
      <use xlink:href="#DejaVuSans-6d" x="501.171875"/>
      <use xlink:href="#DejaVuSans-6d" x="598.583984"/>
     </g>
    </g>
    <g id="line2d_17">
     <path d="M 187.360781 69.248563 
L 197.360781 69.248563 
L 207.360781 69.248563 
" style="fill: none; stroke-dasharray: 5.55,2.4; stroke-dashoffset: 0; stroke: #ff7f0e; stroke-width: 1.5"/>
    </g>
    <g id="text_14">
     <!-- Py1 0.177mm -->
     <g transform="translate(215.360781 72.748563)scale(0.1 -0.1)">
      <use xlink:href="#DejaVuSans-50"/>
      <use xlink:href="#DejaVuSans-79" x="60.302734"/>
      <use xlink:href="#DejaVuSans-31" x="119.482422"/>
      <use xlink:href="#DejaVuSans-20" x="183.105469"/>
      <use xlink:href="#DejaVuSans-30" x="214.892578"/>
      <use xlink:href="#DejaVuSans-2e" x="278.515625"/>
      <use xlink:href="#DejaVuSans-31" x="310.302734"/>
      <use xlink:href="#DejaVuSans-37" x="373.925781"/>
      <use xlink:href="#DejaVuSans-37" x="437.548828"/>
      <use xlink:href="#DejaVuSans-6d" x="501.171875"/>
      <use xlink:href="#DejaVuSans-6d" x="598.583984"/>
     </g>
    </g>
    <g id="line2d_18">
     <path d="M 187.360781 83.926688 
L 197.360781 83.926688 
L 207.360781 83.926688 
" style="fill: none; stroke: #ff0000; stroke-width: 1.5; stroke-linecap: square"/>
    </g>
    <g id="text_15">
     <!-- Bi -->
     <g transform="translate(215.360781 87.426688)scale(0.1 -0.1)">
      <defs>
       <path id="DejaVuSans-42" d="M 1259 2228 
L 1259 519 
L 2272 519 
Q 2781 519 3026 730 
Q 3272 941 3272 1375 
Q 3272 1813 3026 2020 
Q 2781 2228 2272 2228 
L 1259 2228 
z
M 1259 4147 
L 1259 2741 
L 2194 2741 
Q 2656 2741 2882 2914 
Q 3109 3088 3109 3444 
Q 3109 3797 2882 3972 
Q 2656 4147 2194 4147 
L 1259 4147 
z
M 628 4666 
L 2241 4666 
Q 2963 4666 3353 4366 
Q 3744 4066 3744 3513 
Q 3744 3084 3544 2831 
Q 3344 2578 2956 2516 
Q 3422 2416 3680 2098 
Q 3938 1781 3938 1306 
Q 3938 681 3513 340 
Q 3088 0 2303 0 
L 628 0 
L 628 4666 
z
" transform="scale(0.015625)"/>
      </defs>
      <use xlink:href="#DejaVuSans-42"/>
      <use xlink:href="#DejaVuSans-69" x="68.603516"/>
     </g>
    </g>
   </g>
  </g>
 </g>
 <defs>
  <clipPath id="pe2be87edf5">
   <rect x="57.6" y="41.472" width="357.12" height="266.112"/>
  </clipPath>
 </defs>
</svg>
