<?xml version="1.0" encoding="utf-8" standalone="no"?>
<!DOCTYPE svg PUBLIC "-//W3C//DTD SVG 1.1//EN"
  "http://www.w3.org/Graphics/SVG/1.1/DTD/svg11.dtd">
<svg xmlns:xlink="http://www.w3.org/1999/xlink" width="460.8pt" height="345.6pt" viewBox="0 0 460.8 345.6" xmlns="http://www.w3.org/2000/svg" version="1.1">
 <metadata>
  <rdf:RDF xmlns:dc="http://purl.org/dc/elements/1.1/" xmlns:cc="http://creativecommons.org/ns#" xmlns:rdf="http://www.w3.org/1999/02/22-rdf-syntax-ns#">
   <cc:Work>
    <dc:type rdf:resource="http://purl.org/dc/dcmitype/StillImage"/>
    <dc:date>2022-04-26T11:50:09.591213</dc:date>
    <dc:format>image/svg+xml</dc:format>
    <dc:creator>
     <cc:Agent>
      <dc:title>Matplotlib v3.5.1, https://matplotlib.org/</dc:title>
     </cc:Agent>
    </dc:creator>
   </cc:Work>
  </rdf:RDF>
 </metadata>
 <defs>
  <style type="text/css">*{stroke-linejoin: round; stroke-linecap: butt}</style>
 </defs>
 <g id="figure_1">
  <g id="patch_1">
   <path d="M 0 345.6 
L 460.8 345.6 
L 460.8 0 
L 0 0 
z
" style="fill: #ffffff"/>
  </g>
  <g id="axes_1">
   <g id="patch_2">
    <path d="M 57.6 307.584 
L 414.72 307.584 
L 414.72 41.472 
L 57.6 41.472 
z
" style="fill: #ffffff"/>
   </g>
   <g id="matplotlib.axis_1">
    <g id="xtick_1">
     <g id="line2d_1">
      <defs>
       <path id="mfdc48f48db" d="M 0 0 
L 0 3.5 
" style="stroke: #000000; stroke-width: 0.8"/>
      </defs>
      <g>
       <use xlink:href="#mfdc48f48db" x="102.95424" y="307.584" style="stroke: #000000; stroke-width: 0.8"/>
      </g>
     </g>
     <g id="text_1">
      <!-- 400 -->
      <g transform="translate(93.41049 322.182437)scale(0.1 -0.1)">
       <defs>
        <path id="DejaVuSans-34" d="M 2419 4116 
L 825 1625 
L 2419 1625 
L 2419 4116 
z
M 2253 4666 
L 3047 4666 
L 3047 1625 
L 3713 1625 
L 3713 1100 
L 3047 1100 
L 3047 0 
L 2419 0 
L 2419 1100 
L 313 1100 
L 313 1709 
L 2253 4666 
z
" transform="scale(0.015625)"/>
        <path id="DejaVuSans-30" d="M 2034 4250 
Q 1547 4250 1301 3770 
Q 1056 3291 1056 2328 
Q 1056 1369 1301 889 
Q 1547 409 2034 409 
Q 2525 409 2770 889 
Q 3016 1369 3016 2328 
Q 3016 3291 2770 3770 
Q 2525 4250 2034 4250 
z
M 2034 4750 
Q 2819 4750 3233 4129 
Q 3647 3509 3647 2328 
Q 3647 1150 3233 529 
Q 2819 -91 2034 -91 
Q 1250 -91 836 529 
Q 422 1150 422 2328 
Q 422 3509 836 4129 
Q 1250 4750 2034 4750 
z
" transform="scale(0.015625)"/>
       </defs>
       <use xlink:href="#DejaVuSans-34"/>
       <use xlink:href="#DejaVuSans-30" x="63.623047"/>
       <use xlink:href="#DejaVuSans-30" x="127.246094"/>
      </g>
     </g>
    </g>
    <g id="xtick_2">
     <g id="line2d_2">
      <g>
       <use xlink:href="#mfdc48f48db" x="174.37824" y="307.584" style="stroke: #000000; stroke-width: 0.8"/>
      </g>
     </g>
     <g id="text_2">
      <!-- 600 -->
      <g transform="translate(164.83449 322.182437)scale(0.1 -0.1)">
       <defs>
        <path id="DejaVuSans-36" d="M 2113 2584 
Q 1688 2584 1439 2293 
Q 1191 2003 1191 1497 
Q 1191 994 1439 701 
Q 1688 409 2113 409 
Q 2538 409 2786 701 
Q 3034 994 3034 1497 
Q 3034 2003 2786 2293 
Q 2538 2584 2113 2584 
z
M 3366 4563 
L 3366 3988 
Q 3128 4100 2886 4159 
Q 2644 4219 2406 4219 
Q 1781 4219 1451 3797 
Q 1122 3375 1075 2522 
Q 1259 2794 1537 2939 
Q 1816 3084 2150 3084 
Q 2853 3084 3261 2657 
Q 3669 2231 3669 1497 
Q 3669 778 3244 343 
Q 2819 -91 2113 -91 
Q 1303 -91 875 529 
Q 447 1150 447 2328 
Q 447 3434 972 4092 
Q 1497 4750 2381 4750 
Q 2619 4750 2861 4703 
Q 3103 4656 3366 4563 
z
" transform="scale(0.015625)"/>
       </defs>
       <use xlink:href="#DejaVuSans-36"/>
       <use xlink:href="#DejaVuSans-30" x="63.623047"/>
       <use xlink:href="#DejaVuSans-30" x="127.246094"/>
      </g>
     </g>
    </g>
    <g id="xtick_3">
     <g id="line2d_3">
      <g>
       <use xlink:href="#mfdc48f48db" x="245.80224" y="307.584" style="stroke: #000000; stroke-width: 0.8"/>
      </g>
     </g>
     <g id="text_3">
      <!-- 800 -->
      <g transform="translate(236.25849 322.182437)scale(0.1 -0.1)">
       <defs>
        <path id="DejaVuSans-38" d="M 2034 2216 
Q 1584 2216 1326 1975 
Q 1069 1734 1069 1313 
Q 1069 891 1326 650 
Q 1584 409 2034 409 
Q 2484 409 2743 651 
Q 3003 894 3003 1313 
Q 3003 1734 2745 1975 
Q 2488 2216 2034 2216 
z
M 1403 2484 
Q 997 2584 770 2862 
Q 544 3141 544 3541 
Q 544 4100 942 4425 
Q 1341 4750 2034 4750 
Q 2731 4750 3128 4425 
Q 3525 4100 3525 3541 
Q 3525 3141 3298 2862 
Q 3072 2584 2669 2484 
Q 3125 2378 3379 2068 
Q 3634 1759 3634 1313 
Q 3634 634 3220 271 
Q 2806 -91 2034 -91 
Q 1263 -91 848 271 
Q 434 634 434 1313 
Q 434 1759 690 2068 
Q 947 2378 1403 2484 
z
M 1172 3481 
Q 1172 3119 1398 2916 
Q 1625 2713 2034 2713 
Q 2441 2713 2670 2916 
Q 2900 3119 2900 3481 
Q 2900 3844 2670 4047 
Q 2441 4250 2034 4250 
Q 1625 4250 1398 4047 
Q 1172 3844 1172 3481 
z
" transform="scale(0.015625)"/>
       </defs>
       <use xlink:href="#DejaVuSans-38"/>
       <use xlink:href="#DejaVuSans-30" x="63.623047"/>
       <use xlink:href="#DejaVuSans-30" x="127.246094"/>
      </g>
     </g>
    </g>
    <g id="xtick_4">
     <g id="line2d_4">
      <g>
       <use xlink:href="#mfdc48f48db" x="317.22624" y="307.584" style="stroke: #000000; stroke-width: 0.8"/>
      </g>
     </g>
     <g id="text_4">
      <!-- 1000 -->
      <g transform="translate(304.50124 322.182437)scale(0.1 -0.1)">
       <defs>
        <path id="DejaVuSans-31" d="M 794 531 
L 1825 531 
L 1825 4091 
L 703 3866 
L 703 4441 
L 1819 4666 
L 2450 4666 
L 2450 531 
L 3481 531 
L 3481 0 
L 794 0 
L 794 531 
z
" transform="scale(0.015625)"/>
       </defs>
       <use xlink:href="#DejaVuSans-31"/>
       <use xlink:href="#DejaVuSans-30" x="63.623047"/>
       <use xlink:href="#DejaVuSans-30" x="127.246094"/>
       <use xlink:href="#DejaVuSans-30" x="190.869141"/>
      </g>
     </g>
    </g>
    <g id="xtick_5">
     <g id="line2d_5">
      <g>
       <use xlink:href="#mfdc48f48db" x="388.65024" y="307.584" style="stroke: #000000; stroke-width: 0.8"/>
      </g>
     </g>
     <g id="text_5">
      <!-- 1200 -->
      <g transform="translate(375.92524 322.182437)scale(0.1 -0.1)">
       <defs>
        <path id="DejaVuSans-32" d="M 1228 531 
L 3431 531 
L 3431 0 
L 469 0 
L 469 531 
Q 828 903 1448 1529 
Q 2069 2156 2228 2338 
Q 2531 2678 2651 2914 
Q 2772 3150 2772 3378 
Q 2772 3750 2511 3984 
Q 2250 4219 1831 4219 
Q 1534 4219 1204 4116 
Q 875 4013 500 3803 
L 500 4441 
Q 881 4594 1212 4672 
Q 1544 4750 1819 4750 
Q 2544 4750 2975 4387 
Q 3406 4025 3406 3419 
Q 3406 3131 3298 2873 
Q 3191 2616 2906 2266 
Q 2828 2175 2409 1742 
Q 1991 1309 1228 531 
z
" transform="scale(0.015625)"/>
       </defs>
       <use xlink:href="#DejaVuSans-31"/>
       <use xlink:href="#DejaVuSans-32" x="63.623047"/>
       <use xlink:href="#DejaVuSans-30" x="127.246094"/>
       <use xlink:href="#DejaVuSans-30" x="190.869141"/>
      </g>
     </g>
    </g>
    <g id="text_6">
     <!-- Temperature (K) -->
     <g transform="translate(195.720937 335.860562)scale(0.1 -0.1)">
      <defs>
       <path id="DejaVuSans-54" d="M -19 4666 
L 3928 4666 
L 3928 4134 
L 2272 4134 
L 2272 0 
L 1638 0 
L 1638 4134 
L -19 4134 
L -19 4666 
z
" transform="scale(0.015625)"/>
       <path id="DejaVuSans-65" d="M 3597 1894 
L 3597 1613 
L 953 1613 
Q 991 1019 1311 708 
Q 1631 397 2203 397 
Q 2534 397 2845 478 
Q 3156 559 3463 722 
L 3463 178 
Q 3153 47 2828 -22 
Q 2503 -91 2169 -91 
Q 1331 -91 842 396 
Q 353 884 353 1716 
Q 353 2575 817 3079 
Q 1281 3584 2069 3584 
Q 2775 3584 3186 3129 
Q 3597 2675 3597 1894 
z
M 3022 2063 
Q 3016 2534 2758 2815 
Q 2500 3097 2075 3097 
Q 1594 3097 1305 2825 
Q 1016 2553 972 2059 
L 3022 2063 
z
" transform="scale(0.015625)"/>
       <path id="DejaVuSans-6d" d="M 3328 2828 
Q 3544 3216 3844 3400 
Q 4144 3584 4550 3584 
Q 5097 3584 5394 3201 
Q 5691 2819 5691 2113 
L 5691 0 
L 5113 0 
L 5113 2094 
Q 5113 2597 4934 2840 
Q 4756 3084 4391 3084 
Q 3944 3084 3684 2787 
Q 3425 2491 3425 1978 
L 3425 0 
L 2847 0 
L 2847 2094 
Q 2847 2600 2669 2842 
Q 2491 3084 2119 3084 
Q 1678 3084 1418 2786 
Q 1159 2488 1159 1978 
L 1159 0 
L 581 0 
L 581 3500 
L 1159 3500 
L 1159 2956 
Q 1356 3278 1631 3431 
Q 1906 3584 2284 3584 
Q 2666 3584 2933 3390 
Q 3200 3197 3328 2828 
z
" transform="scale(0.015625)"/>
       <path id="DejaVuSans-70" d="M 1159 525 
L 1159 -1331 
L 581 -1331 
L 581 3500 
L 1159 3500 
L 1159 2969 
Q 1341 3281 1617 3432 
Q 1894 3584 2278 3584 
Q 2916 3584 3314 3078 
Q 3713 2572 3713 1747 
Q 3713 922 3314 415 
Q 2916 -91 2278 -91 
Q 1894 -91 1617 61 
Q 1341 213 1159 525 
z
M 3116 1747 
Q 3116 2381 2855 2742 
Q 2594 3103 2138 3103 
Q 1681 3103 1420 2742 
Q 1159 2381 1159 1747 
Q 1159 1113 1420 752 
Q 1681 391 2138 391 
Q 2594 391 2855 752 
Q 3116 1113 3116 1747 
z
" transform="scale(0.015625)"/>
       <path id="DejaVuSans-72" d="M 2631 2963 
Q 2534 3019 2420 3045 
Q 2306 3072 2169 3072 
Q 1681 3072 1420 2755 
Q 1159 2438 1159 1844 
L 1159 0 
L 581 0 
L 581 3500 
L 1159 3500 
L 1159 2956 
Q 1341 3275 1631 3429 
Q 1922 3584 2338 3584 
Q 2397 3584 2469 3576 
Q 2541 3569 2628 3553 
L 2631 2963 
z
" transform="scale(0.015625)"/>
       <path id="DejaVuSans-61" d="M 2194 1759 
Q 1497 1759 1228 1600 
Q 959 1441 959 1056 
Q 959 750 1161 570 
Q 1363 391 1709 391 
Q 2188 391 2477 730 
Q 2766 1069 2766 1631 
L 2766 1759 
L 2194 1759 
z
M 3341 1997 
L 3341 0 
L 2766 0 
L 2766 531 
Q 2569 213 2275 61 
Q 1981 -91 1556 -91 
Q 1019 -91 701 211 
Q 384 513 384 1019 
Q 384 1609 779 1909 
Q 1175 2209 1959 2209 
L 2766 2209 
L 2766 2266 
Q 2766 2663 2505 2880 
Q 2244 3097 1772 3097 
Q 1472 3097 1187 3025 
Q 903 2953 641 2809 
L 641 3341 
Q 956 3463 1253 3523 
Q 1550 3584 1831 3584 
Q 2591 3584 2966 3190 
Q 3341 2797 3341 1997 
z
" transform="scale(0.015625)"/>
       <path id="DejaVuSans-74" d="M 1172 4494 
L 1172 3500 
L 2356 3500 
L 2356 3053 
L 1172 3053 
L 1172 1153 
Q 1172 725 1289 603 
Q 1406 481 1766 481 
L 2356 481 
L 2356 0 
L 1766 0 
Q 1100 0 847 248 
Q 594 497 594 1153 
L 594 3053 
L 172 3053 
L 172 3500 
L 594 3500 
L 594 4494 
L 1172 4494 
z
" transform="scale(0.015625)"/>
       <path id="DejaVuSans-75" d="M 544 1381 
L 544 3500 
L 1119 3500 
L 1119 1403 
Q 1119 906 1312 657 
Q 1506 409 1894 409 
Q 2359 409 2629 706 
Q 2900 1003 2900 1516 
L 2900 3500 
L 3475 3500 
L 3475 0 
L 2900 0 
L 2900 538 
Q 2691 219 2414 64 
Q 2138 -91 1772 -91 
Q 1169 -91 856 284 
Q 544 659 544 1381 
z
M 1991 3584 
L 1991 3584 
z
" transform="scale(0.015625)"/>
       <path id="DejaVuSans-20" transform="scale(0.015625)"/>
       <path id="DejaVuSans-28" d="M 1984 4856 
Q 1566 4138 1362 3434 
Q 1159 2731 1159 2009 
Q 1159 1288 1364 580 
Q 1569 -128 1984 -844 
L 1484 -844 
Q 1016 -109 783 600 
Q 550 1309 550 2009 
Q 550 2706 781 3412 
Q 1013 4119 1484 4856 
L 1984 4856 
z
" transform="scale(0.015625)"/>
       <path id="DejaVuSans-4b" d="M 628 4666 
L 1259 4666 
L 1259 2694 
L 3353 4666 
L 4166 4666 
L 1850 2491 
L 4331 0 
L 3500 0 
L 1259 2247 
L 1259 0 
L 628 0 
L 628 4666 
z
" transform="scale(0.015625)"/>
       <path id="DejaVuSans-29" d="M 513 4856 
L 1013 4856 
Q 1481 4119 1714 3412 
Q 1947 2706 1947 2009 
Q 1947 1309 1714 600 
Q 1481 -109 1013 -844 
L 513 -844 
Q 928 -128 1133 580 
Q 1338 1288 1338 2009 
Q 1338 2731 1133 3434 
Q 928 4138 513 4856 
z
" transform="scale(0.015625)"/>
      </defs>
      <use xlink:href="#DejaVuSans-54"/>
      <use xlink:href="#DejaVuSans-65" x="44.083984"/>
      <use xlink:href="#DejaVuSans-6d" x="105.607422"/>
      <use xlink:href="#DejaVuSans-70" x="203.019531"/>
      <use xlink:href="#DejaVuSans-65" x="266.496094"/>
      <use xlink:href="#DejaVuSans-72" x="328.019531"/>
      <use xlink:href="#DejaVuSans-61" x="369.132812"/>
      <use xlink:href="#DejaVuSans-74" x="430.412109"/>
      <use xlink:href="#DejaVuSans-75" x="469.621094"/>
      <use xlink:href="#DejaVuSans-72" x="533"/>
      <use xlink:href="#DejaVuSans-65" x="571.863281"/>
      <use xlink:href="#DejaVuSans-20" x="633.386719"/>
      <use xlink:href="#DejaVuSans-28" x="665.173828"/>
      <use xlink:href="#DejaVuSans-4b" x="704.1875"/>
      <use xlink:href="#DejaVuSans-29" x="769.763672"/>
     </g>
    </g>
   </g>
   <g id="matplotlib.axis_2">
    <g id="ytick_1">
     <g id="line2d_6">
      <defs>
       <path id="m9b71e31539" d="M 0 0 
L -3.5 0 
" style="stroke: #000000; stroke-width: 0.8"/>
      </defs>
      <g>
       <use xlink:href="#m9b71e31539" x="57.6" y="268.27249" style="stroke: #000000; stroke-width: 0.8"/>
      </g>
     </g>
     <g id="text_7">
      <!-- $\mathdefault{10^{0}}$ -->
      <g transform="translate(33 272.071709)scale(0.1 -0.1)">
       <use xlink:href="#DejaVuSans-31" transform="translate(0 0.765625)"/>
       <use xlink:href="#DejaVuSans-30" transform="translate(63.623047 0.765625)"/>
       <use xlink:href="#DejaVuSans-30" transform="translate(128.203125 39.046875)scale(0.7)"/>
      </g>
     </g>
    </g>
    <g id="ytick_2">
     <g id="line2d_7">
      <g>
       <use xlink:href="#m9b71e31539" x="57.6" y="213.84147" style="stroke: #000000; stroke-width: 0.8"/>
      </g>
     </g>
     <g id="text_8">
      <!-- $\mathdefault{10^{2}}$ -->
      <g transform="translate(33 217.640689)scale(0.1 -0.1)">
       <use xlink:href="#DejaVuSans-31" transform="translate(0 0.765625)"/>
       <use xlink:href="#DejaVuSans-30" transform="translate(63.623047 0.765625)"/>
       <use xlink:href="#DejaVuSans-32" transform="translate(128.203125 39.046875)scale(0.7)"/>
      </g>
     </g>
    </g>
    <g id="ytick_3">
     <g id="line2d_8">
      <g>
       <use xlink:href="#m9b71e31539" x="57.6" y="159.41045" style="stroke: #000000; stroke-width: 0.8"/>
      </g>
     </g>
     <g id="text_9">
      <!-- $\mathdefault{10^{4}}$ -->
      <g transform="translate(33 163.209669)scale(0.1 -0.1)">
       <use xlink:href="#DejaVuSans-31" transform="translate(0 0.684375)"/>
       <use xlink:href="#DejaVuSans-30" transform="translate(63.623047 0.684375)"/>
       <use xlink:href="#DejaVuSans-34" transform="translate(128.203125 38.965625)scale(0.7)"/>
      </g>
     </g>
    </g>
    <g id="ytick_4">
     <g id="line2d_9">
      <g>
       <use xlink:href="#m9b71e31539" x="57.6" y="104.97943" style="stroke: #000000; stroke-width: 0.8"/>
      </g>
     </g>
     <g id="text_10">
      <!-- $\mathdefault{10^{6}}$ -->
      <g transform="translate(33 108.778649)scale(0.1 -0.1)">
       <use xlink:href="#DejaVuSans-31" transform="translate(0 0.765625)"/>
       <use xlink:href="#DejaVuSans-30" transform="translate(63.623047 0.765625)"/>
       <use xlink:href="#DejaVuSans-36" transform="translate(128.203125 39.046875)scale(0.7)"/>
      </g>
     </g>
    </g>
    <g id="ytick_5">
     <g id="line2d_10">
      <g>
       <use xlink:href="#m9b71e31539" x="57.6" y="50.54841" style="stroke: #000000; stroke-width: 0.8"/>
      </g>
     </g>
     <g id="text_11">
      <!-- $\mathdefault{10^{8}}$ -->
      <g transform="translate(33 54.347629)scale(0.1 -0.1)">
       <use xlink:href="#DejaVuSans-31" transform="translate(0 0.765625)"/>
       <use xlink:href="#DejaVuSans-30" transform="translate(63.623047 0.765625)"/>
       <use xlink:href="#DejaVuSans-38" transform="translate(128.203125 39.046875)scale(0.7)"/>
      </g>
     </g>
    </g>
    <g id="text_12">
     <!-- Pyrolysis number -->
     <g transform="translate(26.920312 217.554563)rotate(-90)scale(0.1 -0.1)">
      <defs>
       <path id="DejaVuSans-50" d="M 1259 4147 
L 1259 2394 
L 2053 2394 
Q 2494 2394 2734 2622 
Q 2975 2850 2975 3272 
Q 2975 3691 2734 3919 
Q 2494 4147 2053 4147 
L 1259 4147 
z
M 628 4666 
L 2053 4666 
Q 2838 4666 3239 4311 
Q 3641 3956 3641 3272 
Q 3641 2581 3239 2228 
Q 2838 1875 2053 1875 
L 1259 1875 
L 1259 0 
L 628 0 
L 628 4666 
z
" transform="scale(0.015625)"/>
       <path id="DejaVuSans-79" d="M 2059 -325 
Q 1816 -950 1584 -1140 
Q 1353 -1331 966 -1331 
L 506 -1331 
L 506 -850 
L 844 -850 
Q 1081 -850 1212 -737 
Q 1344 -625 1503 -206 
L 1606 56 
L 191 3500 
L 800 3500 
L 1894 763 
L 2988 3500 
L 3597 3500 
L 2059 -325 
z
" transform="scale(0.015625)"/>
       <path id="DejaVuSans-6f" d="M 1959 3097 
Q 1497 3097 1228 2736 
Q 959 2375 959 1747 
Q 959 1119 1226 758 
Q 1494 397 1959 397 
Q 2419 397 2687 759 
Q 2956 1122 2956 1747 
Q 2956 2369 2687 2733 
Q 2419 3097 1959 3097 
z
M 1959 3584 
Q 2709 3584 3137 3096 
Q 3566 2609 3566 1747 
Q 3566 888 3137 398 
Q 2709 -91 1959 -91 
Q 1206 -91 779 398 
Q 353 888 353 1747 
Q 353 2609 779 3096 
Q 1206 3584 1959 3584 
z
" transform="scale(0.015625)"/>
       <path id="DejaVuSans-6c" d="M 603 4863 
L 1178 4863 
L 1178 0 
L 603 0 
L 603 4863 
z
" transform="scale(0.015625)"/>
       <path id="DejaVuSans-73" d="M 2834 3397 
L 2834 2853 
Q 2591 2978 2328 3040 
Q 2066 3103 1784 3103 
Q 1356 3103 1142 2972 
Q 928 2841 928 2578 
Q 928 2378 1081 2264 
Q 1234 2150 1697 2047 
L 1894 2003 
Q 2506 1872 2764 1633 
Q 3022 1394 3022 966 
Q 3022 478 2636 193 
Q 2250 -91 1575 -91 
Q 1294 -91 989 -36 
Q 684 19 347 128 
L 347 722 
Q 666 556 975 473 
Q 1284 391 1588 391 
Q 1994 391 2212 530 
Q 2431 669 2431 922 
Q 2431 1156 2273 1281 
Q 2116 1406 1581 1522 
L 1381 1569 
Q 847 1681 609 1914 
Q 372 2147 372 2553 
Q 372 3047 722 3315 
Q 1072 3584 1716 3584 
Q 2034 3584 2315 3537 
Q 2597 3491 2834 3397 
z
" transform="scale(0.015625)"/>
       <path id="DejaVuSans-69" d="M 603 3500 
L 1178 3500 
L 1178 0 
L 603 0 
L 603 3500 
z
M 603 4863 
L 1178 4863 
L 1178 4134 
L 603 4134 
L 603 4863 
z
" transform="scale(0.015625)"/>
       <path id="DejaVuSans-6e" d="M 3513 2113 
L 3513 0 
L 2938 0 
L 2938 2094 
Q 2938 2591 2744 2837 
Q 2550 3084 2163 3084 
Q 1697 3084 1428 2787 
Q 1159 2491 1159 1978 
L 1159 0 
L 581 0 
L 581 3500 
L 1159 3500 
L 1159 2956 
Q 1366 3272 1645 3428 
Q 1925 3584 2291 3584 
Q 2894 3584 3203 3211 
Q 3513 2838 3513 2113 
z
" transform="scale(0.015625)"/>
       <path id="DejaVuSans-62" d="M 3116 1747 
Q 3116 2381 2855 2742 
Q 2594 3103 2138 3103 
Q 1681 3103 1420 2742 
Q 1159 2381 1159 1747 
Q 1159 1113 1420 752 
Q 1681 391 2138 391 
Q 2594 391 2855 752 
Q 3116 1113 3116 1747 
z
M 1159 2969 
Q 1341 3281 1617 3432 
Q 1894 3584 2278 3584 
Q 2916 3584 3314 3078 
Q 3713 2572 3713 1747 
Q 3713 922 3314 415 
Q 2916 -91 2278 -91 
Q 1894 -91 1617 61 
Q 1341 213 1159 525 
L 1159 0 
L 581 0 
L 581 4863 
L 1159 4863 
L 1159 2969 
z
" transform="scale(0.015625)"/>
      </defs>
      <use xlink:href="#DejaVuSans-50"/>
      <use xlink:href="#DejaVuSans-79" x="60.302734"/>
      <use xlink:href="#DejaVuSans-72" x="119.482422"/>
      <use xlink:href="#DejaVuSans-6f" x="158.345703"/>
      <use xlink:href="#DejaVuSans-6c" x="219.527344"/>
      <use xlink:href="#DejaVuSans-79" x="247.310547"/>
      <use xlink:href="#DejaVuSans-73" x="306.490234"/>
      <use xlink:href="#DejaVuSans-69" x="358.589844"/>
      <use xlink:href="#DejaVuSans-73" x="386.373047"/>
      <use xlink:href="#DejaVuSans-20" x="438.472656"/>
      <use xlink:href="#DejaVuSans-6e" x="470.259766"/>
      <use xlink:href="#DejaVuSans-75" x="533.638672"/>
      <use xlink:href="#DejaVuSans-6d" x="597.017578"/>
      <use xlink:href="#DejaVuSans-62" x="694.429688"/>
      <use xlink:href="#DejaVuSans-65" x="757.90625"/>
      <use xlink:href="#DejaVuSans-72" x="819.429688"/>
     </g>
    </g>
   </g>
   <g id="line2d_11">
    <path d="M 57.6 83.246956 
L 68.367168 102.334012 
L 71.938368 107.74378 
L 75.438144 112.646844 
L 76.634496 114.226987 
L 78.652224 116.792066 
L 79.38432 117.682631 
L 82.473408 121.246708 
L 85.437504 124.333667 
L 85.687488 124.568547 
L 88.31232 126.958272 
L 90.794304 128.933792 
L 90.919296 129.010263 
L 91.508544 129.440711 
L 91.633536 129.511398 
L 92.115648 129.833955 
L 94.2048 131.077718 
L 96.16896 132.000933 
L 98.008128 132.627159 
L 99.74016 132.986239 
L 101.400768 133.101923 
L 102.95424 132.991715 
L 104.543424 132.689896 
L 104.668416 132.608155 
L 104.793408 132.568886 
L 106.329024 132.009445 
L 106.454016 131.899046 
L 106.579008 131.837256 
L 108.13248 130.935136 
L 109.73952 129.745751 
L 111.578688 128.098786 
L 116.810496 123.120979 
L 116.864064 123.153186 
L 116.88192 123.073498 
L 117.703296 122.625727 
L 117.756864 122.665774 
L 117.77472 122.596068 
L 118.417536 122.405839 
L 118.542528 122.385673 
L 119.131776 122.370145 
L 119.256768 122.38425 
L 119.846016 122.535643 
L 120.078144 122.675099 
L 120.149568 122.668907 
L 120.917376 123.172425 
L 121.328064 123.564525 
L 121.399488 123.606186 
L 122.345856 124.69719 
L 123.363648 126.170827 
L 124.845696 128.71997 
L 128.1312 135.206881 
L 136.219968 151.519111 
L 140.023296 158.629752 
L 144.02304 165.433014 
L 146.505024 169.16271 
L 146.88 169.674801 
L 148.84416 172.176864 
L 150.504768 173.955685 
L 152.040384 175.296564 
L 152.111808 175.320907 
L 153.468864 176.189814 
L 153.540288 176.188763 
L 154.718784 176.670671 
L 154.843776 176.657468 
L 155.075904 176.752402 
L 155.200896 176.727822 
L 155.325888 176.746308 
L 156.34368 176.776819 
L 157.397184 176.642858 
L 157.522176 176.541388 
L 157.575744 176.587901 
L 157.5936 176.517758 
L 158.66496 176.043609 
L 159.91488 175.23496 
L 161.70048 173.777271 
L 163.414656 172.374469 
L 163.468224 172.414747 
L 163.48608 172.321508 
L 164.486016 171.654178 
L 164.539584 171.697566 
L 164.55744 171.61218 
L 165.557376 171.108187 
L 165.610944 171.154732 
L 165.6288 171.078031 
L 166.628736 170.727971 
L 166.682304 170.776879 
L 166.753728 170.692741 
L 167.878656 170.439962 
L 168.003648 170.417852 
L 169.485696 170.218534 
L 169.610688 170.206733 
L 171.092736 170.132395 
L 171.217728 170.133477 
L 172.342656 170.210115 
L 172.574784 170.288913 
L 172.699776 170.266179 
L 172.931904 170.35453 
L 173.056896 170.34048 
L 173.289024 170.43932 
L 173.414016 170.434715 
L 173.646144 170.544932 
L 173.771136 170.550469 
L 174.003264 170.672921 
L 174.074688 170.667531 
L 175.021056 171.144707 
L 175.324608 171.337742 
L 176.270976 172.062557 
L 177.038784 172.80267 
L 177.288768 173.056995 
L 178.48512 174.486765 
L 179.895744 176.451321 
L 180.324288 177.105831 
L 182.574144 180.670103 
L 182.877696 181.175801 
L 183.66336 182.455045 
L 188.30592 189.501426 
L 191.037888 192.831687 
L 192.752064 194.385969 
L 193.055616 194.583013 
L 193.466304 194.858947 
L 193.591296 194.906852 
L 193.894848 195.061322 
L 194.966208 195.391676 
L 195.966144 195.4134 
L 196.091136 195.336999 
L 196.216128 195.305071 
L 197.108928 194.877546 
L 198.001728 194.10743 
L 199.001664 192.905336 
L 199.126656 192.617241 
L 199.180224 192.628667 
L 199.305216 192.327686 
L 199.358784 192.33766 
L 199.483776 192.023914 
L 199.537344 192.032366 
L 199.662336 191.70618 
L 199.715904 191.713217 
L 199.840896 191.374832 
L 199.894464 191.38044 
L 200.019456 191.030271 
L 200.073024 191.0345 
L 200.198016 190.673027 
L 200.251584 190.675861 
L 200.376576 190.303507 
L 200.430144 190.305138 
L 200.555136 189.922483 
L 200.608704 189.922905 
L 200.733696 189.530559 
L 200.787264 189.529841 
L 200.912256 189.128608 
L 200.965824 189.126749 
L 201.090816 188.717337 
L 201.144384 188.714578 
L 201.269376 188.297837 
L 201.322944 188.294114 
L 201.447936 187.87096 
L 201.501504 187.866551 
L 201.626496 187.437804 
L 201.680064 187.432753 
L 201.805056 186.999664 
L 201.858624 186.994019 
L 201.983616 186.557469 
L 202.037184 186.551386 
L 202.162176 186.112611 
L 202.215744 186.106264 
L 202.340736 185.666283 
L 202.394304 185.659768 
L 202.519296 185.219864 
L 202.572864 185.213286 
L 202.697856 184.774479 
L 202.751424 184.767958 
L 202.876416 184.331402 
L 202.929984 184.325188 
L 203.054976 183.892017 
L 203.108544 183.886099 
L 203.233536 183.457388 
L 203.287104 183.451927 
L 203.412096 183.028654 
L 203.465664 183.023775 
L 203.590656 182.60687 
L 203.644224 182.602656 
L 203.769216 182.192924 
L 203.822784 182.189475 
L 203.947776 181.787652 
L 204.001344 181.785032 
L 204.126336 181.391696 
L 204.179904 181.39 
L 204.304896 181.005606 
L 204.358464 181.004856 
L 204.483456 180.629751 
L 204.537024 180.62998 
L 204.662016 180.264325 
L 204.715584 180.265567 
L 204.840576 179.909391 
L 204.894144 179.911656 
L 205.019136 179.564877 
L 205.072704 179.568137 
L 205.197696 179.230518 
L 205.251264 179.234756 
L 205.376256 178.905941 
L 205.429824 178.911132 
L 205.554816 178.590647 
L 205.608384 178.596724 
L 205.733376 178.284028 
L 205.786944 178.290953 
L 205.911936 177.985401 
L 205.965504 177.993088 
L 206.090496 177.693973 
L 206.144064 177.702351 
L 206.269056 177.408926 
L 206.322624 177.417915 
L 206.447616 177.129384 
L 206.501184 177.138896 
L 206.626176 176.854479 
L 206.679744 176.864466 
L 206.804736 176.583326 
L 206.858304 176.593666 
L 206.983296 176.315047 
L 207.036864 176.325679 
L 207.161856 176.048782 
L 207.215424 176.059618 
L 207.340416 175.783725 
L 207.393984 175.794671 
L 207.518976 175.51906 
L 207.572544 175.530066 
L 207.697536 175.254067 
L 207.751104 175.265054 
L 207.876096 174.988058 
L 207.929664 174.998969 
L 208.054656 174.720388 
L 208.108224 174.73119 
L 208.233216 174.450514 
L 208.286784 174.461115 
L 208.411776 174.17787 
L 208.465344 174.188259 
L 208.590336 173.902013 
L 208.643904 173.912148 
L 208.768896 173.622545 
L 208.822464 173.632353 
L 208.947456 173.339066 
L 209.001024 173.348499 
L 209.126016 173.051263 
L 209.179584 173.060332 
L 209.304576 172.758864 
L 209.358144 172.767515 
L 209.483136 172.461603 
L 209.536704 172.469846 
L 209.661696 172.15933 
L 209.715264 172.167142 
L 209.840256 171.851819 
L 209.893824 171.859175 
L 210.018816 171.538967 
L 210.072384 171.545841 
L 210.197376 171.22067 
L 210.250944 171.227034 
L 210.375936 170.89675 
L 210.429504 170.902647 
L 210.554496 170.567208 
L 210.608064 170.572609 
L 210.733056 170.231978 
L 210.786624 170.236853 
L 210.911616 169.890999 
L 210.965184 169.895356 
L 211.090176 169.544258 
L 211.143744 169.548105 
L 211.268736 169.191709 
L 211.322304 169.195014 
L 211.447296 168.833359 
L 211.500864 168.836174 
L 211.625856 168.46923 
L 211.679424 168.471479 
L 211.804416 168.099362 
L 211.857984 168.101054 
L 211.982976 167.723719 
L 212.036544 167.724864 
L 212.161536 167.342322 
L 212.215104 167.342984 
L 212.340096 166.955318 
L 212.393664 166.955413 
L 212.518656 166.562676 
L 212.572224 166.562271 
L 212.697216 166.164538 
L 212.750784 166.1636 
L 212.875776 165.760917 
L 212.929344 165.759409 
L 213.054336 165.351955 
L 213.107904 165.349957 
L 213.232896 164.937715 
L 213.286464 164.935192 
L 213.411456 164.518405 
L 213.465024 164.515322 
L 213.590016 164.094085 
L 213.643584 164.090535 
L 213.768576 163.664973 
L 213.822144 163.660926 
L 213.947136 163.231193 
L 214.000704 163.226686 
L 214.125696 162.793046 
L 214.179264 162.788049 
L 214.304256 162.350663 
L 214.357824 162.345219 
L 214.482816 161.904362 
L 214.536384 161.898523 
L 214.661376 161.454436 
L 214.714944 161.448179 
L 214.839936 161.001146 
L 214.893504 160.994531 
L 215.018496 160.544886 
L 215.072064 160.537894 
L 215.197056 160.085928 
L 215.250624 160.078631 
L 215.375616 159.624779 
L 215.429184 159.61726 
L 215.554176 159.16192 
L 215.607744 159.154072 
L 215.732736 158.697693 
L 215.786304 158.689606 
L 215.911296 158.23259 
L 215.964864 158.224475 
L 216.089856 157.767387 
L 216.143424 157.759143 
L 216.268416 157.30238 
L 216.321984 157.294128 
L 216.446976 156.83843 
L 216.500544 156.830172 
L 216.625536 156.376045 
L 216.679104 156.367886 
L 216.804096 155.915946 
L 216.857664 155.907936 
L 216.982656 155.458854 
L 217.036224 155.451075 
L 217.161216 155.005504 
L 217.214784 154.998034 
L 217.339776 154.556658 
L 217.393344 154.549567 
L 217.518336 154.113098 
L 217.571904 154.106492 
L 217.696896 153.675633 
L 217.750464 153.66958 
L 217.875456 153.245063 
L 217.929024 153.239653 
L 218.054016 152.822203 
L 218.107584 152.81753 
L 218.232576 152.407853 
L 218.286144 152.403983 
L 218.411136 152.002773 
L 218.464704 151.999828 
L 218.589696 151.607777 
L 218.643264 151.60583 
L 218.768256 151.223582 
L 218.821824 151.222706 
L 218.946816 150.850903 
L 219.000384 150.851192 
L 219.125376 150.490364 
L 219.178944 150.491916 
L 219.303936 150.142633 
L 219.357504 150.145481 
L 219.482496 149.808222 
L 219.536064 149.812461 
L 219.661056 149.487626 
L 219.714624 149.493306 
L 219.839616 149.181245 
L 219.893184 149.188457 
L 220.018176 148.889474 
L 220.071744 148.898239 
L 220.196736 148.612529 
L 220.250304 148.622908 
L 220.375296 148.350632 
L 220.428864 148.362657 
L 220.553856 148.103911 
L 220.607424 148.11761 
L 220.62528 148.009466 
L 221.446656 147.097003 
L 221.500224 147.119197 
L 221.51808 147.032412 
L 222.160896 146.552332 
L 222.214464 146.581185 
L 222.23232 146.509763 
L 222.875136 146.216702 
L 223.000128 146.177511 
L 223.767936 146.051611 
L 223.892928 146.048495 
L 224.660736 146.124352 
L 224.892864 146.212762 
L 225.017856 146.210658 
L 225.249984 146.31604 
L 225.374976 146.326164 
L 225.607104 146.44731 
L 225.62496 146.423224 
L 226.624896 146.931085 
L 226.928448 147.118859 
L 228.231936 148.067465 
L 228.66048 148.420225 
L 230.731776 150.298036 
L 231.321024 150.876787 
L 231.446016 150.980017 
L 232.035264 151.561615 
L 232.160256 151.664651 
L 232.749504 152.243157 
L 232.874496 152.344466 
L 233.463744 152.91474 
L 233.588736 153.013019 
L 234.070848 153.455037 
L 236.51712 155.527932 
L 238.48128 156.912984 
L 240.249024 157.920135 
L 240.320448 157.920652 
L 241.87392 158.518596 
L 243.3024 158.842661 
L 244.713024 158.986581 
L 244.838016 158.935314 
L 244.963008 158.930824 
L 246.33792 158.765118 
L 247.7664 158.37447 
L 249.427008 157.680647 
L 252.033984 156.371457 
L 252.158976 156.240296 
L 252.212544 156.276658 
L 252.2304 156.202522 
L 253.766016 155.473372 
L 253.819584 155.511264 
L 253.83744 155.444552 
L 254.837376 155.113526 
L 254.962368 155.082493 
L 255.908736 154.935507 
L 256.033728 154.928311 
L 256.980096 154.972249 
L 257.212224 155.046939 
L 257.337216 155.034199 
L 257.569344 155.122223 
L 257.694336 155.120529 
L 257.926464 155.22149 
L 258.051456 155.230421 
L 258.283584 155.343758 
L 258.30144 155.320738 
L 259.479936 155.879796 
L 259.890624 156.139636 
L 260.015616 156.194808 
L 260.44416 156.467939 
L 262.694016 158.076865 
L 263.283264 158.529376 
L 263.408256 158.606391 
L 263.997504 159.053256 
L 264.122496 159.128074 
L 264.604608 159.472178 
L 267.05088 161.064494 
L 269.175744 162.200714 
L 269.300736 162.233208 
L 269.604288 162.36564 
L 271.389888 163.011835 
L 273.104064 163.435324 
L 273.229056 163.420749 
L 273.461184 163.487145 
L 273.586176 163.467889 
L 273.818304 163.528161 
L 273.943296 163.504019 
L 274.175424 163.558184 
L 274.300416 163.529086 
L 274.532544 163.577074 
L 274.657536 163.543007 
L 274.889664 163.584657 
L 275.014656 163.545521 
L 275.246784 163.580802 
L 275.371776 163.536627 
L 275.603904 163.565415 
L 275.728896 163.516072 
L 275.853888 163.506078 
L 277.40736 163.262231 
L 278.996544 162.832531 
L 279.121536 162.733653 
L 279.246528 162.684463 
L 280.960704 161.929748 
L 281.085696 161.803998 
L 281.139264 161.831367 
L 281.15712 161.763892 
L 282.94272 160.639706 
L 285.139008 158.981901 
L 288.29952 156.287069 
L 301.441536 144.83158 
L 301.51296 144.777738 
L 303.227136 143.603279 
L 303.352128 143.527504 
L 304.655616 142.834249 
L 304.780608 142.777586 
L 306.084096 142.296773 
L 306.316224 142.26301 
L 306.441216 142.200709 
L 306.673344 142.175107 
L 306.798336 142.119908 
L 307.030464 142.102397 
L 307.155456 142.054245 
L 307.387584 142.044628 
L 307.512576 142.003296 
L 307.76256 141.976095 
L 309.119616 141.942782 
L 309.530304 141.9834 
L 309.655296 141.976995 
L 310.065984 142.033669 
L 310.190976 142.03399 
L 310.61952 142.094063 
L 312.690816 142.521284 
L 313.351488 142.690092 
L 318.404736 144.13299 
L 319.1904 144.358534 
L 327.279168 146.570823 
L 340.671168 150.151492 
L 340.724736 149.643724 
L 340.79616 149.665506 
L 340.849728 150.208249 
L 340.903296 149.698279 
L 341.028288 150.265467 
L 341.081856 149.753006 
L 341.15328 149.77496 
L 341.206848 150.322837 
L 341.260416 149.807927 
L 341.385408 150.3804 
L 341.438976 149.863037 
L 341.5104 149.885132 
L 341.563968 150.438108 
L 341.617536 149.918356 
L 341.742528 150.49598 
L 341.796096 149.973857 
L 341.86752 149.996111 
L 341.921088 150.554034 
L 341.974656 150.029559 
L 342.099648 150.612245 
L 342.153216 150.08546 
L 342.22464 150.107867 
L 342.278208 150.670631 
L 342.331776 150.141555 
L 342.456768 150.729188 
L 342.510336 150.197863 
L 342.58176 150.22044 
L 342.635328 150.787935 
L 342.688896 150.25438 
L 342.813888 150.846867 
L 342.867456 150.311102 
L 342.93888 150.333843 
L 342.992448 150.905959 
L 343.046016 150.368026 
L 343.171008 150.965229 
L 343.224576 150.425193 
L 343.296 150.448091 
L 343.349568 151.024694 
L 343.403136 150.482552 
L 343.528128 151.084351 
L 343.581696 150.540123 
L 343.65312 150.563216 
L 343.706688 151.144173 
L 343.760256 150.597923 
L 343.885248 151.204199 
L 343.938816 150.655948 
L 344.01024 150.679208 
L 344.063808 151.264383 
L 344.117376 150.714194 
L 344.242368 151.324784 
L 344.295936 150.772656 
L 344.36736 150.796097 
L 344.420928 151.385355 
L 344.474496 150.831352 
L 344.599488 151.446135 
L 344.653056 150.890276 
L 344.72448 150.913891 
L 344.778048 151.507097 
L 344.831616 150.949426 
L 344.956608 151.568258 
L 345.010176 151.008816 
L 345.0816 151.032619 
L 345.135168 151.629594 
L 345.188736 151.068422 
L 345.313728 151.691141 
L 345.367296 151.128259 
L 345.43872 151.152264 
L 345.492288 151.752873 
L 345.545856 151.188345 
L 345.670848 151.814807 
L 345.724416 151.248653 
L 345.79584 151.272852 
L 345.849408 151.876939 
L 345.902976 151.309221 
L 346.027968 151.939262 
L 346.081536 151.370001 
L 346.15296 151.394386 
L 346.206528 152.001774 
L 346.260096 151.431031 
L 346.385088 152.064489 
L 346.438656 151.492305 
L 346.51008 151.516867 
L 346.563648 152.127402 
L 346.617216 151.553797 
L 346.742208 152.190509 
L 346.795776 151.615543 
L 346.8672 151.640317 
L 346.920768 152.253825 
L 346.974336 151.67754 
L 347.099328 152.317325 
L 347.152896 151.73978 
L 347.22432 151.764735 
L 347.277888 152.381025 
L 347.331456 151.802238 
L 347.456448 152.444937 
L 347.510016 151.86495 
L 347.58144 151.8901 
L 347.635008 152.50902 
L 347.688576 151.92791 
L 347.813568 152.573325 
L 347.867136 151.991113 
L 347.93856 152.016468 
L 347.992128 152.63781 
L 348.045696 152.054553 
L 348.170688 152.702507 
L 348.224256 152.118245 
L 348.29568 152.143777 
L 348.349248 152.767393 
L 348.402816 152.182183 
L 348.527808 152.832463 
L 348.581376 152.246341 
L 348.6528 152.27208 
L 348.706368 152.897749 
L 348.759936 152.310754 
L 348.884928 152.963209 
L 348.938496 152.375416 
L 349.00992 152.401333 
L 349.063488 153.028874 
L 349.117056 152.440301 
L 349.242048 153.094722 
L 349.295616 152.505443 
L 349.36704 152.531549 
L 349.420608 153.160766 
L 349.474176 152.570816 
L 349.599168 153.227018 
L 349.652736 152.636434 
L 349.72416 152.662739 
L 349.777728 153.293438 
L 349.831296 152.702272 
L 349.956288 153.360056 
L 350.009856 152.768363 
L 350.08128 152.794858 
L 350.134848 153.426849 
L 350.188416 152.834681 
L 350.313408 153.493831 
L 350.366976 152.901239 
L 350.4384 152.927933 
L 350.491968 153.561012 
L 350.545536 152.968032 
L 350.670528 153.628355 
L 350.724096 153.035053 
L 350.79552 153.061918 
L 350.849088 153.695887 
L 350.902656 153.102298 
L 351.027648 153.763604 
L 351.081216 153.169777 
L 351.15264 153.19684 
L 351.206208 153.831484 
L 351.259776 153.237486 
L 351.384768 153.899556 
L 351.438336 153.305418 
L 351.50976 153.332651 
L 351.563328 153.967798 
L 351.616896 153.373567 
L 351.741888 154.036204 
L 351.795456 153.441946 
L 351.86688 153.469341 
L 351.920448 154.10477 
L 351.974016 153.510531 
L 352.099008 154.173507 
L 352.152576 153.579351 
L 352.224 153.606915 
L 352.277568 154.242428 
L 352.331136 153.648364 
L 352.456128 154.311493 
L 352.509696 153.717602 
L 352.58112 153.745344 
L 352.634688 154.380714 
L 352.688256 153.787039 
L 352.813248 154.450103 
L 352.866816 153.85667 
L 352.93824 153.88458 
L 352.991808 154.519639 
L 353.045376 153.926524 
L 353.170368 154.589316 
L 353.223936 153.996561 
L 353.29536 154.02463 
L 353.348928 154.659146 
L 353.402496 154.066809 
L 353.527488 154.729124 
L 353.581056 154.137244 
L 353.65248 154.165464 
L 353.706048 154.799245 
L 353.759616 154.20788 
L 353.884608 154.869504 
L 353.938176 154.278675 
L 354.0096 154.307051 
L 354.063168 154.939897 
L 354.116736 154.349674 
L 354.241728 155.010419 
L 354.295296 154.420856 
L 354.36672 154.449364 
L 354.420288 155.08108 
L 354.473856 154.492197 
L 354.598848 155.151846 
L 354.652416 154.56371 
L 354.72384 154.592357 
L 354.777408 155.222742 
L 354.830976 154.635404 
L 354.955968 155.293763 
L 355.009536 154.707258 
L 355.08096 154.736035 
L 355.134528 155.364891 
L 355.188096 154.779266 
L 355.313088 155.43612 
L 355.366656 154.851424 
L 355.43808 154.880323 
L 355.491648 155.507461 
L 355.545216 154.923741 
L 355.670208 155.578896 
L 355.723776 154.996197 
L 355.7952 155.025225 
L 355.848768 155.650434 
L 355.902336 155.068801 
L 356.027328 155.722057 
L 356.080896 155.141535 
L 356.15232 155.170668 
L 356.205888 155.793775 
L 356.259456 155.214406 
L 356.384448 155.865569 
L 356.438016 155.287397 
L 356.50944 155.316627 
L 356.563008 155.937437 
L 356.616576 155.360516 
L 356.741568 156.009387 
L 356.795136 155.433758 
L 356.86656 155.463062 
L 356.920128 156.081402 
L 356.973696 155.50709 
L 357.098688 156.153478 
L 357.152256 155.580536 
L 357.22368 155.609936 
L 357.277248 156.225612 
L 357.330816 155.654091 
L 357.455808 156.2978 
L 357.509376 155.727736 
L 357.5808 155.757197 
L 357.634368 156.370038 
L 357.687936 155.801468 
L 357.812928 156.442323 
L 357.866496 155.87528 
L 357.93792 155.904808 
L 357.991488 156.514638 
L 358.045056 155.949155 
L 358.170048 156.586993 
L 358.223616 156.023118 
L 358.29504 156.052707 
L 358.348608 156.659357 
L 358.402176 156.09715 
L 358.527168 156.731756 
L 358.580736 156.171232 
L 358.65216 156.200862 
L 358.705728 156.804172 
L 358.759296 156.245362 
L 358.884288 156.876589 
L 358.937856 156.319535 
L 359.00928 156.349212 
L 359.062848 156.949005 
L 359.116416 156.393761 
L 359.241408 157.021416 
L 359.294976 156.468009 
L 359.3664 156.497702 
L 359.419968 157.093834 
L 359.473536 156.542277 
L 359.598528 157.166217 
L 359.652096 156.616574 
L 359.72352 156.646289 
L 359.777088 157.238588 
L 359.830656 156.690883 
L 359.955648 157.310933 
L 360.009216 156.765189 
L 360.08064 156.794909 
L 360.134208 157.383235 
L 360.187776 156.839501 
L 360.312768 157.455495 
L 360.366336 156.91379 
L 360.43776 156.943496 
L 360.491328 157.527722 
L 360.544896 156.988067 
L 360.669888 157.599876 
L 360.723456 157.062329 
L 360.79488 157.092005 
L 360.848448 157.671981 
L 360.902016 157.136548 
L 361.027008 157.743999 
L 361.080576 157.210735 
L 361.152 157.240377 
L 361.205568 157.815953 
L 361.259136 157.28486 
L 361.384128 157.88783 
L 361.437696 157.35895 
L 361.50912 157.388542 
L 361.562688 157.959602 
L 361.616256 157.432962 
L 361.741248 158.031296 
L 361.794816 157.506909 
L 361.86624 157.536449 
L 361.919808 158.102872 
L 361.973376 157.580764 
L 362.098368 158.17433 
L 362.151936 157.65455 
L 362.22336 157.684022 
L 362.276928 158.245671 
L 362.330496 157.728228 
L 362.455488 158.316894 
L 362.509056 157.801811 
L 362.58048 157.831189 
L 362.634048 158.387973 
L 362.687616 157.875272 
L 362.812608 158.458864 
L 362.866176 157.948612 
L 362.9376 157.977907 
L 362.991168 158.529753 
L 363.044736 158.021829 
L 363.169728 158.600348 
L 363.223296 158.094911 
L 363.29472 158.124086 
L 363.348288 158.670767 
L 363.401856 158.167833 
L 363.526848 158.741125 
L 363.580416 158.240609 
L 363.65184 158.269653 
L 363.705408 158.811193 
L 363.758976 158.313213 
L 363.883968 158.881087 
L 363.937536 158.385647 
L 364.00896 158.41456 
L 364.062528 158.950807 
L 364.116096 158.457864 
L 364.241088 159.020243 
L 364.294656 158.529971 
L 364.36608 158.558694 
L 364.419648 159.089619 
L 364.473216 158.601769 
L 364.598208 159.158603 
L 364.651776 158.673492 
L 364.7232 158.701994 
L 364.776768 159.227418 
L 364.830336 158.744909 
L 364.955328 159.296065 
L 365.008896 158.816138 
L 365.08032 158.844536 
L 365.133888 159.364328 
L 365.187456 158.887066 
L 365.312448 159.432427 
L 365.366016 158.957808 
L 365.43744 158.98599 
L 365.491008 159.500255 
L 365.544576 159.028254 
L 365.669568 159.567707 
L 365.723136 159.098405 
L 365.79456 159.126375 
L 365.848128 159.635001 
L 365.901696 159.168265 
L 366.026688 159.701925 
L 366.080256 159.237947 
L 366.15168 159.265708 
L 366.205248 159.768484 
L 366.258816 159.307232 
L 366.383808 159.834785 
L 366.437376 159.376233 
L 366.5088 159.403681 
L 366.562368 159.900832 
L 366.615936 159.444954 
L 366.740928 159.966419 
L 366.794496 159.513289 
L 366.86592 159.540537 
L 366.919488 160.031758 
L 366.973056 159.58135 
L 367.098048 160.096645 
L 367.151616 159.648925 
L 367.22304 159.675978 
L 367.276608 160.161291 
L 367.330176 159.71634 
L 367.455168 160.225495 
L 367.508736 159.783277 
L 367.58016 159.809929 
L 367.633728 160.289261 
L 367.687296 159.849744 
L 367.812288 160.352695 
L 367.865856 159.915954 
L 367.93728 159.942317 
L 367.990848 160.4157 
L 368.044416 159.981703 
L 368.169408 160.478283 
L 368.222976 160.047098 
L 368.2944 160.073076 
L 368.347968 160.540447 
L 368.401536 160.111939 
L 368.526528 160.602197 
L 368.580096 160.176437 
L 368.65152 160.202141 
L 368.705088 160.663539 
L 368.758656 160.240494 
L 368.883648 160.724379 
L 368.937216 160.304114 
L 369.00864 160.329349 
L 369.062208 160.784723 
L 369.115776 160.367204 
L 369.240768 160.844577 
L 369.294336 160.429869 
L 369.36576 160.454745 
L 369.419328 160.903947 
L 369.472896 160.492014 
L 369.597888 160.962839 
L 369.651456 160.553647 
L 369.72288 160.578075 
L 369.776448 161.021258 
L 369.830016 160.614773 
L 369.955008 161.079116 
L 370.008576 160.675301 
L 370.08 160.699389 
L 370.133568 161.136418 
L 370.187136 160.735335 
L 370.312128 161.193172 
L 370.365696 160.794881 
L 370.43712 160.818541 
L 370.490688 161.249477 
L 370.544256 160.853849 
L 370.669248 161.30506 
L 370.722816 160.91215 
L 370.79424 160.935297 
L 370.847808 161.360114 
L 370.901376 160.969983 
L 371.026368 161.414645 
L 371.079936 161.027163 
L 371.15136 161.049808 
L 371.204928 161.468477 
L 371.258496 161.083698 
L 371.383488 161.521799 
L 371.437056 161.139596 
L 371.50848 161.161847 
L 371.562048 161.574346 
L 371.615616 161.194959 
L 371.740608 161.626397 
L 371.794176 161.249605 
L 371.8656 161.271284 
L 371.919168 161.677687 
L 371.972736 161.303544 
L 372.097728 161.728406 
L 372.151296 161.356876 
L 372.22272 161.377997 
L 372.276288 161.77838 
L 372.329856 161.409517 
L 372.454848 161.827706 
L 372.508416 161.461474 
L 372.57984 161.482048 
L 372.633408 161.876304 
L 372.686976 161.512663 
L 372.811968 161.924181 
L 372.865536 161.563185 
L 372.93696 161.583136 
L 372.990528 161.971346 
L 373.044096 161.612956 
L 373.169088 162.017804 
L 373.222656 161.661985 
L 373.29408 161.681326 
L 373.347648 162.063478 
L 373.401216 161.71019 
L 373.526208 162.108375 
L 373.579776 161.75767 
L 373.6512 161.776414 
L 373.704768 162.152502 
L 373.758336 161.804343 
L 373.883328 162.195869 
L 373.936896 161.850218 
L 374.00832 161.868289 
L 374.061888 162.238396 
L 374.115456 161.895214 
L 374.240448 162.280177 
L 374.294016 161.93943 
L 374.36544 161.956843 
L 374.419008 162.321049 
L 374.472576 161.982784 
L 374.597568 162.361106 
L 374.651136 162.025287 
L 374.72256 162.042055 
L 374.776128 162.40027 
L 374.829696 162.066946 
L 374.954688 162.43855 
L 375.008256 162.107682 
L 375.07968 162.123731 
L 375.133248 162.476038 
L 375.186816 162.147504 
L 375.311808 162.512572 
L 375.365376 162.186422 
L 375.4368 162.201765 
L 375.490368 162.548161 
L 375.543936 162.224442 
L 375.668928 162.582813 
L 375.722496 162.261487 
L 375.79392 162.275966 
L 375.847488 162.616619 
L 375.901056 162.297566 
L 376.026048 162.649337 
L 376.079616 162.332688 
L 376.15104 162.346401 
L 376.204608 162.68114 
L 376.258176 162.366773 
L 376.383168 162.712035 
L 376.436736 162.399917 
L 376.50816 162.412794 
L 376.561728 162.741865 
L 376.615296 162.431958 
L 376.740288 162.770637 
L 376.86528 162.475124 
L 376.918848 162.798439 
L 376.972416 162.493013 
L 377.097408 162.825116 
L 377.2224 162.533199 
L 377.275968 162.850837 
L 377.329536 162.549831 
L 377.454528 162.875445 
L 377.57952 162.58691 
L 377.633088 162.898947 
L 377.686656 162.602219 
L 377.811648 162.921268 
L 377.93664 162.63623 
L 377.990208 162.942576 
L 378.043776 162.650149 
L 378.168768 162.962714 
L 378.29376 162.68088 
L 378.347328 162.981689 
L 378.400896 162.693341 
L 378.525888 162.999504 
L 378.65088 162.720742 
L 378.704448 163.016085 
L 378.758016 162.731842 
L 378.883008 163.031517 
L 379.008 162.755781 
L 379.061568 163.045723 
L 379.115136 162.765368 
L 379.240128 163.058628 
L 379.36512 162.785871 
L 379.418688 163.070395 
L 379.472256 162.793956 
L 379.597248 163.080788 
L 379.72224 162.810802 
L 379.775808 163.089969 
L 379.829376 162.817311 
L 379.954368 163.097782 
L 380.07936 162.830438 
L 380.132928 163.104308 
L 380.186496 162.835299 
L 380.311488 163.109469 
L 380.43648 162.844723 
L 380.490048 163.113346 
L 380.543616 162.84794 
L 380.668608 163.115782 
L 380.7936 162.853344 
L 380.847168 163.116855 
L 380.900736 162.854922 
L 381.025728 163.116487 
L 381.15072 162.856393 
L 381.204288 163.114676 
L 381.257856 162.856252 
L 381.382848 163.111502 
L 381.50784 162.853545 
L 381.561408 163.106802 
L 381.614976 162.8516 
L 381.739968 163.100656 
L 381.86496 162.844792 
L 381.918528 163.092979 
L 381.972096 162.840958 
L 382.097088 163.083769 
L 382.22208 162.829871 
L 382.275648 163.073022 
L 382.329216 162.824224 
L 382.454208 163.060814 
L 382.5792 162.808593 
L 382.632768 163.046897 
L 382.686336 162.801039 
L 382.811328 163.031509 
L 382.93632 162.781 
L 382.989888 163.014399 
L 383.043456 162.771445 
L 383.168448 162.995722 
L 383.29344 162.746799 
L 383.347008 162.975389 
L 383.400576 162.735225 
L 383.525568 162.953392 
L 383.65056 162.705763 
L 383.704128 162.929639 
L 383.757696 162.692232 
L 383.882688 162.9042 
L 384.00768 162.6579 
L 384.061248 162.877066 
L 384.114816 162.642222 
L 384.239808 162.848141 
L 384.3648 162.602956 
L 384.418368 162.817494 
L 384.471936 162.585186 
L 384.596928 162.78503 
L 384.72192 162.540831 
L 384.775488 162.750732 
L 384.829056 162.520767 
L 384.954048 162.714586 
L 385.07904 162.471239 
L 385.132608 162.676657 
L 385.186176 162.449011 
L 385.311168 162.63676 
L 385.43616 162.394131 
L 385.489728 162.595044 
L 385.543296 162.369527 
L 385.668288 162.551321 
L 385.79328 162.309272 
L 385.846848 162.505737 
L 385.900416 162.282329 
L 386.025408 162.458186 
L 386.1504 162.216582 
L 386.203968 162.408646 
L 386.257536 162.187245 
L 386.382528 162.35709 
L 386.50752 162.1157 
L 386.561088 162.303493 
L 386.68608 162.0622 
L 386.739648 162.247828 
L 386.86464 162.006595 
L 386.918208 162.190066 
L 387.0432 161.948945 
L 387.096768 162.130264 
L 387.22176 161.88913 
L 387.275328 162.068393 
L 387.40032 161.827121 
L 387.453888 162.004244 
L 387.57888 161.762972 
L 387.632448 161.938047 
L 387.75744 161.69665 
L 387.811008 161.869592 
L 387.936 161.628029 
L 387.989568 161.799019 
L 388.11456 161.557253 
L 388.168128 161.726113 
L 388.29312 161.484194 
L 388.346688 161.651013 
L 388.47168 161.408812 
L 388.525248 161.573589 
L 388.65024 161.331062 
L 388.703808 161.493889 
L 388.8288 161.250997 
L 388.882368 161.411871 
L 389.00736 161.168666 
L 389.060928 161.327488 
L 389.18592 161.083834 
L 389.239488 161.240695 
L 389.36448 160.996643 
L 389.418048 161.151536 
L 389.54304 160.907044 
L 389.596608 161.059961 
L 389.7216 160.81489 
L 389.775168 160.96592 
L 389.90016 160.720322 
L 389.953728 160.869456 
L 390.07872 160.623187 
L 390.132288 160.770416 
L 390.25728 160.523629 
L 390.310848 160.668939 
L 390.43584 160.421389 
L 390.489408 160.56487 
L 390.6144 160.316609 
L 390.667968 160.458146 
L 390.79296 160.209228 
L 390.846528 160.348906 
L 390.97152 160.099183 
L 391.025088 160.236987 
L 391.15008 159.986512 
L 391.203648 160.122528 
L 391.32864 159.87115 
L 391.382208 160.005254 
L 391.5072 159.753026 
L 391.560768 159.885411 
L 391.68576 159.632178 
L 391.739328 159.762717 
L 391.86432 159.50864 
L 391.917888 159.637311 
L 392.04288 159.382232 
L 392.096448 159.509119 
L 392.22144 159.252984 
L 392.275008 159.378174 
L 392.4 159.120932 
L 392.453568 159.244288 
L 392.57856 158.985995 
L 392.632128 159.107602 
L 392.75712 158.84809 
L 392.810688 158.968036 
L 392.93568 158.707365 
L 392.989248 158.825622 
L 393.11424 158.563654 
L 393.167808 158.680157 
L 393.2928 158.416951 
L 393.346368 158.531739 
L 393.47136 158.267239 
L 393.524928 158.380338 
L 393.64992 158.114487 
L 393.703488 158.225913 
L 393.82848 157.958674 
L 393.882048 158.068416 
L 394.00704 157.799769 
L 394.060608 157.907853 
L 394.1856 157.637737 
L 394.239168 157.744175 
L 394.36416 157.472554 
L 394.417728 157.577348 
L 394.54272 157.3042 
L 394.596288 157.407373 
L 394.72128 157.132622 
L 394.774848 157.234187 
L 394.89984 156.957823 
L 394.953408 157.057777 
L 395.0784 156.779751 
L 395.131968 156.878118 
L 395.25696 156.598394 
L 395.310528 156.695171 
L 395.43552 156.413711 
L 395.489088 156.508921 
L 395.61408 156.225661 
L 395.667648 156.31933 
L 395.79264 156.034246 
L 395.846208 156.126353 
L 395.9712 155.839409 
L 396.024768 155.929978 
L 396.14976 155.641138 
L 396.203328 155.730178 
L 396.32832 155.439389 
L 396.381888 155.526924 
L 396.50688 155.234133 
L 396.560448 155.320172 
L 396.68544 155.025345 
L 396.739008 155.109896 
L 396.864 154.812994 
L 396.917568 154.896068 
L 397.04256 154.597055 
L 397.096128 154.678659 
L 397.22112 154.377484 
L 397.274688 154.457643 
L 397.39968 154.154271 
L 397.453248 154.232978 
L 397.57824 153.927357 
L 397.631808 154.004637 
L 397.7568 153.696715 
L 397.810368 153.772578 
L 397.93536 153.462339 
L 397.988928 153.536795 
L 398.11392 153.22417 
L 398.167488 153.297229 
L 398.29248 152.982186 
L 398.346048 153.053878 
L 398.47104 152.736348 
L 398.524608 152.806664 
L 398.6496 152.486635 
L 398.703168 152.555607 
L 398.82816 152.233012 
L 398.881728 152.300653 
L 399.00672 151.975443 
L 399.060288 152.041746 
L 399.18528 151.713894 
L 399.238848 151.778895 
L 399.36384 151.448333 
L 399.417408 151.512025 
L 399.649536 151.015098 
L 399.703104 151.058914 
L 399.828096 150.738944 
L 399.881664 150.782323 
L 400.006656 150.45866 
L 400.060224 150.501619 
L 400.185216 150.174202 
L 400.238784 150.216734 
L 400.363776 149.885552 
L 400.417344 149.927651 
L 400.542336 149.592674 
L 400.595904 149.634356 
L 400.720896 149.295504 
L 400.774464 149.336791 
L 400.899456 148.994065 
L 400.953024 149.034923 
L 401.078016 148.688248 
L 401.131584 148.728697 
L 401.256576 148.378054 
L 401.310144 148.418143 
L 401.435136 148.063464 
L 401.488704 148.103159 
L 401.613696 147.744433 
L 401.667264 147.78373 
L 401.792256 147.420893 
L 401.845824 147.459814 
L 401.970816 147.092866 
L 402.024384 147.131407 
L 402.149376 146.760262 
L 402.202944 146.798448 
L 402.327936 146.423051 
L 402.381504 146.46088 
L 402.506496 146.081212 
L 402.560064 146.118714 
L 402.685056 145.734733 
L 402.738624 145.771869 
L 402.863616 145.383535 
L 402.917184 145.420338 
L 403.042176 145.027578 
L 403.095744 145.064046 
L 403.220736 144.666867 
L 403.274304 144.703037 
L 403.399296 144.301341 
L 403.452864 144.337173 
L 403.577856 143.930939 
L 403.631424 143.966473 
L 403.756416 143.555649 
L 403.809984 143.590886 
L 403.934976 143.175424 
L 403.988544 143.210366 
L 404.113536 142.790225 
L 404.167104 142.82492 
L 404.292096 142.400019 
L 404.345664 142.434427 
L 404.470656 142.004783 
L 404.524224 142.038956 
L 404.649216 141.604452 
L 404.702784 141.638349 
L 404.827776 141.198966 
L 404.881344 141.232646 
L 405.006336 140.788326 
L 405.059904 140.8218 
L 405.184896 140.37249 
L 405.238464 140.405715 
L 405.363456 139.951424 
L 405.417024 139.98447 
L 405.542016 139.525046 
L 405.595584 139.55787 
L 405.720576 139.093399 
L 405.774144 139.126017 
L 405.899136 138.656291 
L 405.952704 138.688785 
L 406.077696 138.213849 
L 406.131264 138.246178 
L 406.256256 137.76596 
L 406.309824 137.798148 
L 406.434816 137.31258 
L 406.488384 137.344655 
L 406.613376 136.853676 
L 406.666944 136.885668 
L 406.791936 136.389222 
L 406.845504 136.421091 
L 406.970496 135.919128 
L 407.024064 135.950908 
L 407.149056 135.443472 
L 407.202624 135.475202 
L 407.327616 134.96201 
L 407.381184 134.993737 
L 407.506176 134.474934 
L 407.559744 134.506617 
L 407.684736 133.982102 
L 407.738304 134.013791 
L 407.863296 133.483464 
L 407.916864 133.515119 
L 408.041856 132.978979 
L 408.095424 133.010658 
L 408.220416 132.468617 
L 408.273984 132.500385 
L 408.398976 131.952358 
L 408.452544 131.984178 
L 408.577536 131.430172 
L 408.631104 131.462142 
L 408.756096 130.902016 
L 408.809664 130.934115 
L 408.934656 130.367843 
L 408.988224 130.400109 
L 409.113216 129.82764 
L 409.166784 129.860078 
L 409.291776 129.281366 
L 409.345344 129.314008 
L 409.470336 128.728972 
L 409.523904 128.761858 
L 409.648896 128.170462 
L 409.702464 128.20362 
L 409.827456 127.605793 
L 409.881024 127.639254 
L 410.006016 127.03494 
L 410.059584 127.068725 
L 410.184576 126.457892 
L 410.238144 126.492041 
L 410.363136 125.874608 
L 410.416704 125.909148 
L 410.541696 125.285071 
L 410.595264 125.320053 
L 410.720256 124.689274 
L 410.773824 124.724755 
L 410.898816 124.087193 
L 410.952384 124.123196 
L 411.077376 123.478837 
L 411.130944 123.515407 
L 411.255936 122.864195 
L 411.309504 122.901362 
L 411.434496 122.243265 
L 411.488064 122.281085 
L 411.613056 121.616019 
L 411.666624 121.654557 
L 411.791616 120.982513 
L 411.845184 121.021786 
L 411.970176 120.342729 
L 412.023744 120.382813 
L 412.148736 119.696706 
L 412.202304 119.737654 
L 412.327296 119.044421 
L 412.380864 119.086296 
L 412.505856 118.385986 
L 412.559424 118.428818 
L 412.684416 117.721377 
L 412.737984 117.765276 
L 412.862976 117.050677 
L 412.916544 117.095686 
L 413.041536 116.373928 
L 413.095104 116.420095 
L 413.220096 115.691214 
L 413.273664 115.738631 
L 413.398656 115.002614 
L 413.452224 115.05134 
L 413.577216 114.308202 
L 413.630784 114.35835 
L 413.755776 113.608095 
L 413.809344 113.659737 
L 413.934336 112.902458 
L 413.987904 112.955672 
L 414.112896 112.191399 
L 414.166464 112.246269 
L 414.291456 111.475069 
L 414.345024 111.531686 
L 414.470016 110.753673 
L 414.523584 110.812134 
L 414.648576 110.027409 
L 414.702144 110.087748 
L 414.72 107.560538 
L 414.72 107.595443 
L 414.72 77.529986 
L 414.72 77.529986 
" clip-path="url(#pee09e22958)" style="fill: none; stroke: #1f77b4; stroke-width: 1.5; stroke-linecap: square"/>
   </g>
   <g id="line2d_12">
    <path d="M 57.6 53.568 
L 68.367168 73.245378 
L 71.938368 78.845496 
L 75.456 83.954543 
L 78.830784 88.473716 
L 79.56288 89.397284 
L 82.759104 93.227349 
L 83.13408 93.644404 
L 85.99104 96.685797 
L 88.651584 99.213762 
L 88.776576 99.312388 
L 89.437248 99.882088 
L 91.865664 101.80024 
L 91.990656 101.874097 
L 92.472768 102.210701 
L 94.615488 103.541695 
L 96.579648 104.506727 
L 98.472384 105.209697 
L 98.597376 105.217381 
L 98.829504 105.307898 
L 98.84736 105.284124 
L 100.507968 105.601434 
L 102.115008 105.687137 
L 103.66848 105.547928 
L 105.150528 105.199285 
L 106.686144 104.656713 
L 106.811136 104.546245 
L 106.936128 104.485619 
L 108.4896 103.598382 
L 110.150208 102.384136 
L 112.0608 100.69522 
L 116.453376 96.642234 
L 116.506944 96.674175 
L 116.5248 96.592174 
L 117.346176 96.103525 
L 117.399744 96.142638 
L 117.4176 96.069357 
L 118.060416 95.832316 
L 118.185408 95.801862 
L 118.774656 95.733516 
L 118.899648 95.735681 
L 119.488896 95.828517 
L 119.721024 95.948097 
L 119.792448 95.930896 
L 120.560256 96.357611 
L 120.863808 96.591775 
L 121.756608 97.483645 
L 122.7744 98.829757 
L 124.077888 100.953284 
L 125.863488 104.330802 
L 129.184704 111.188502 
L 130.27392 113.479289 
L 135.80928 124.825377 
L 139.7376 132.379455 
L 142.933824 138.06284 
L 146.326464 143.443828 
L 146.755008 144.05347 
L 148.826304 146.803784 
L 148.951296 146.940122 
L 149.5584 147.646351 
L 151.16544 149.289481 
L 152.576064 150.454199 
L 152.647488 150.472231 
L 153.897408 151.183583 
L 155.075904 151.632838 
L 155.200896 151.613145 
L 155.433024 151.702785 
L 155.558016 151.67151 
L 155.683008 151.685705 
L 156.7008 151.679966 
L 157.754304 151.511169 
L 157.879296 151.402935 
L 157.932864 151.450192 
L 157.95072 151.376935 
L 159.075648 150.841218 
L 160.432704 150.005988 
L 160.557696 149.829968 
L 160.611264 149.870001 
L 160.62912 149.774752 
L 164.307456 146.998602 
L 164.361024 147.043497 
L 164.37888 146.957355 
L 165.378816 146.463569 
L 165.432384 146.511657 
L 165.45024 146.43422 
L 166.450176 146.098446 
L 166.503744 146.149042 
L 166.575168 146.065457 
L 167.700096 145.837558 
L 167.825088 145.818656 
L 169.307136 145.661205 
L 169.432128 145.653025 
L 170.914176 145.61767 
L 171.039168 145.621565 
L 172.164096 145.718931 
L 172.396224 145.801916 
L 172.521216 145.779742 
L 172.753344 145.871774 
L 172.878336 145.857897 
L 173.110464 145.959949 
L 173.235456 145.95512 
L 173.467584 146.068126 
L 173.539008 146.054583 
L 174.485376 146.46839 
L 174.717504 146.625932 
L 174.73536 146.608499 
L 175.735296 147.290124 
L 176.217408 147.696936 
L 177.342336 148.834663 
L 179.9136 152.302316 
L 181.752768 155.235526 
L 188.359488 165.685272 
L 190.680768 168.645325 
L 192.4128 170.374398 
L 194.073408 171.453946 
L 195.144768 171.764269 
L 196.144704 171.759609 
L 196.269696 171.676592 
L 196.394688 171.640261 
L 197.287488 171.177188 
L 198.180288 170.366088 
L 199.180224 169.11875 
L 199.305216 168.822029 
L 199.358784 168.833828 
L 199.483776 168.524341 
L 199.537344 168.534616 
L 199.662336 168.212687 
L 199.715904 168.221547 
L 199.840896 167.887416 
L 199.894464 167.894847 
L 200.019456 167.548929 
L 200.073024 167.55498 
L 200.198016 167.197756 
L 200.251584 167.20241 
L 200.376576 166.834303 
L 200.430144 166.837754 
L 200.555136 166.459344 
L 200.608704 166.461585 
L 200.733696 166.073481 
L 200.787264 166.074581 
L 200.912256 165.677589 
L 200.965824 165.677546 
L 201.090816 165.272372 
L 201.144384 165.271429 
L 201.269376 164.858924 
L 201.322944 164.857015 
L 201.447936 164.438095 
L 201.501504 164.4355 
L 201.626496 164.010985 
L 201.680064 164.007746 
L 201.805056 163.578887 
L 201.858624 163.575054 
L 201.983616 163.142731 
L 202.037184 163.138459 
L 202.162176 162.703908 
L 202.215744 162.699372 
L 202.340736 162.263614 
L 202.394304 162.258907 
L 202.519296 161.823224 
L 202.572864 161.818454 
L 202.697856 161.383866 
L 202.751424 161.379151 
L 202.876416 160.946812 
L 202.929984 160.942405 
L 203.054976 160.513447 
L 203.108544 160.509334 
L 203.233536 160.084835 
L 203.287104 160.081179 
L 203.412096 159.662115 
L 203.465664 159.65904 
L 203.590656 159.246342 
L 203.644224 159.24393 
L 203.769216 158.838403 
L 203.822784 158.836756 
L 203.947776 158.439136 
L 204.001344 158.438316 
L 204.126336 158.049181 
L 204.179904 158.049285 
L 204.304896 157.669089 
L 204.358464 157.670138 
L 204.483456 157.299229 
L 204.537024 157.301257 
L 204.662016 156.939796 
L 204.715584 156.942834 
L 204.840576 156.59085 
L 204.894144 156.594911 
L 205.019136 156.252323 
L 205.072704 156.257378 
L 205.197696 155.923946 
L 205.251264 155.929978 
L 205.376256 155.605348 
L 205.429824 155.612333 
L 205.554816 155.296031 
L 205.608384 155.303901 
L 205.733376 154.995386 
L 205.786944 155.004102 
L 205.911936 154.702729 
L 205.965504 154.712207 
L 206.090496 154.417268 
L 206.144064 154.427436 
L 206.269056 154.138185 
L 206.322624 154.148963 
L 206.447616 153.864604 
L 206.501184 153.875904 
L 206.626176 153.595657 
L 206.679744 153.607431 
L 206.804736 153.330459 
L 206.858304 153.342585 
L 206.983296 153.068132 
L 207.036864 153.080549 
L 207.161856 152.807816 
L 207.215424 152.820436 
L 207.340416 152.548705 
L 207.393984 152.561434 
L 207.518976 152.289982 
L 207.572544 152.30277 
L 207.697536 152.030928 
L 207.751104 152.043697 
L 207.876096 151.770856 
L 207.929664 151.783548 
L 208.054656 151.509119 
L 208.108224 151.5217 
L 208.233216 151.245175 
L 208.286784 151.257555 
L 208.411776 150.978459 
L 208.465344 150.990626 
L 208.590336 150.708526 
L 208.643904 150.720438 
L 208.768896 150.434979 
L 208.822464 150.446563 
L 208.947456 150.157418 
L 209.001024 150.168627 
L 209.126016 149.875531 
L 209.179584 149.886374 
L 209.304576 149.589043 
L 209.358144 149.599468 
L 209.483136 149.297691 
L 209.536704 149.307707 
L 209.661696 149.001324 
L 209.715264 149.010908 
L 209.840256 148.699716 
L 209.893824 148.708843 
L 210.018816 148.392764 
L 210.072384 148.401408 
L 210.197376 148.080365 
L 210.250944 148.088497 
L 210.375936 147.762339 
L 210.429504 147.770003 
L 210.554496 147.438687 
L 210.608064 147.445855 
L 210.733056 147.109345 
L 210.786624 147.115986 
L 210.911616 146.774251 
L 210.965184 146.780373 
L 211.090176 146.433391 
L 211.143744 146.439003 
L 211.268736 146.086721 
L 211.322304 146.091789 
L 211.447296 145.734247 
L 211.500864 145.738825 
L 211.625856 145.375991 
L 211.679424 145.380001 
L 211.804416 145.011993 
L 211.857984 145.015445 
L 211.982976 144.642216 
L 212.036544 144.645121 
L 212.161536 144.266684 
L 212.215104 144.269104 
L 212.340096 143.885541 
L 212.393664 143.887393 
L 212.518656 143.498756 
L 212.572224 143.500108 
L 212.697216 143.106474 
L 212.750784 143.107291 
L 212.875776 142.708704 
L 212.929344 142.708951 
L 213.054336 142.305592 
L 213.107904 142.305347 
L 213.232896 141.897197 
L 213.286464 141.896427 
L 213.411456 141.48373 
L 213.465024 141.482399 
L 213.590016 141.06525 
L 213.643584 141.063452 
L 213.768576 140.641975 
L 213.822144 140.639678 
L 213.947136 140.214029 
L 214.000704 140.211271 
L 214.125696 139.781713 
L 214.179264 139.778464 
L 214.304256 139.345158 
L 214.357824 139.341462 
L 214.482816 138.904682 
L 214.536384 138.90059 
L 214.661376 138.460578 
L 214.714944 138.456067 
L 214.839936 138.013108 
L 214.893504 138.008238 
L 215.018496 137.562664 
L 215.072064 137.557416 
L 215.197056 137.10952 
L 215.250624 137.103966 
L 215.375616 136.654181 
L 215.429184 136.648404 
L 215.554176 136.197129 
L 215.607744 136.191023 
L 215.732736 135.738707 
L 215.786304 135.732361 
L 215.911296 135.279405 
L 215.964864 135.27303 
L 216.089856 134.820001 
L 216.143424 134.813496 
L 216.268416 134.36079 
L 216.321984 134.354276 
L 216.446976 133.902632 
L 216.500544 133.896112 
L 216.625536 133.446037 
L 216.679104 133.439615 
L 216.804096 132.991726 
L 216.857664 132.985451 
L 216.982656 132.540417 
L 217.036224 132.534373 
L 217.161216 132.092848 
L 217.214784 132.087112 
L 217.339776 131.649781 
L 217.393344 131.644422 
L 217.518336 131.211996 
L 217.571904 131.207122 
L 217.696896 130.780303 
L 217.750464 130.775982 
L 217.875456 130.355503 
L 217.929024 130.351823 
L 218.054016 129.938409 
L 218.107584 129.935466 
L 218.232576 129.529823 
L 218.286144 129.527682 
L 218.411136 129.130504 
L 218.464704 129.129286 
L 218.589696 128.741266 
L 218.643264 128.741045 
L 218.768256 128.362826 
L 218.821824 128.363675 
L 218.946816 127.995898 
L 219.000384 127.997913 
L 219.125376 127.641109 
L 219.178944 127.644386 
L 219.303936 127.299124 
L 219.357504 127.303696 
L 219.482496 126.970457 
L 219.536064 126.976419 
L 219.661056 126.655601 
L 219.714624 126.663003 
L 219.839616 126.354958 
L 219.893184 126.363891 
L 220.018176 126.068922 
L 220.071744 126.079406 
L 220.196736 125.797709 
L 220.250304 125.809807 
L 220.375296 125.541541 
L 220.428864 125.555284 
L 220.553856 125.300546 
L 220.607424 125.315962 
L 220.62528 125.20839 
L 221.268096 124.488071 
L 221.321664 124.510293 
L 221.33952 124.419949 
L 221.982336 123.910275 
L 222.035904 123.939203 
L 222.05376 123.864695 
L 222.696576 123.547549 
L 222.821568 123.504286 
L 223.589376 123.357692 
L 223.714368 123.351872 
L 224.482176 123.414755 
L 224.714304 123.501575 
L 224.839296 123.496912 
L 225.071424 123.601328 
L 225.196416 123.609413 
L 225.428544 123.73014 
L 225.4464 123.70496 
L 226.446336 124.211485 
L 226.749888 124.400244 
L 228.053376 125.360258 
L 228.48192 125.719215 
L 230.553216 127.641744 
L 231.142464 128.237109 
L 231.267456 128.344026 
L 231.856704 128.943816 
L 231.981696 129.050954 
L 232.570944 129.649025 
L 232.695936 129.754772 
L 233.285184 130.345797 
L 233.410176 130.448815 
L 233.999424 131.028187 
L 234.124416 131.127273 
L 234.606528 131.57383 
L 236.927808 133.550893 
L 238.8384 134.900443 
L 240.606144 135.90482 
L 240.677568 135.903919 
L 242.23104 136.491788 
L 243.65952 136.802534 
L 245.070144 136.932557 
L 245.195136 136.87847 
L 245.320128 136.872678 
L 246.69504 136.692877 
L 248.177088 136.274034 
L 249.891264 135.616491 
L 250.016256 135.491729 
L 250.069824 135.530749 
L 250.08768 135.456915 
L 254.123136 133.561141 
L 254.248128 133.520529 
L 255.194496 133.28824 
L 255.319488 133.268367 
L 256.265856 133.210583 
L 256.497984 133.264923 
L 256.622976 133.233151 
L 256.855104 133.30103 
L 256.980096 133.280639 
L 257.212224 133.362074 
L 257.337216 133.352966 
L 257.569344 133.447729 
L 257.694336 133.449662 
L 257.926464 133.557358 
L 257.94432 133.531354 
L 259.122816 134.059661 
L 259.533504 134.314932 
L 259.604928 134.334769 
L 261.265536 135.463256 
L 261.747648 135.824219 
L 266.69376 139.438233 
L 268.818624 140.680509 
L 268.943616 140.720245 
L 269.247168 140.868589 
L 271.139904 141.676769 
L 271.264896 141.690573 
L 271.497024 141.795143 
L 271.51488 141.77136 
L 273.282624 142.235211 
L 273.407616 142.221742 
L 273.639744 142.291572 
L 273.764736 142.273354 
L 273.996864 142.337101 
L 274.121856 142.313925 
L 274.353984 142.371453 
L 274.478976 142.343386 
L 274.711104 142.394617 
L 274.836096 142.361565 
L 275.068224 142.406402 
L 275.193216 142.36826 
L 275.425344 142.406735 
L 275.550336 142.363452 
L 275.782464 142.395505 
L 275.907456 142.347089 
L 276.032448 142.338499 
L 277.58592 142.111805 
L 279.175104 141.70025 
L 279.300096 141.602252 
L 279.425088 141.554534 
L 281.139264 140.821001 
L 281.264256 140.696394 
L 281.317824 140.724951 
L 281.33568 140.657289 
L 283.174848 139.522509 
L 285.424704 137.921065 
L 285.549696 137.75644 
L 285.603264 137.779233 
L 285.62112 137.699365 
L 289.245888 134.660504 
L 300.905856 124.762043 
L 300.97728 124.707799 
L 302.691456 123.508436 
L 302.816448 123.429757 
L 304.298496 122.611759 
L 304.423488 122.553254 
L 305.726976 122.051014 
L 305.959104 122.015088 
L 306.084096 121.948748 
L 306.316224 121.920966 
L 306.441216 121.861885 
L 306.673344 121.842259 
L 306.798336 121.790277 
L 307.030464 121.778738 
L 307.155456 121.7338 
L 307.387584 121.73015 
L 307.512576 121.692029 
L 307.76256 121.671249 
L 309.119616 121.672723 
L 309.530304 121.723848 
L 309.655296 121.720638 
L 310.065984 121.787806 
L 310.190976 121.791318 
L 310.61952 121.862328 
L 312.690816 122.342253 
L 313.351488 122.527819 
L 318.583296 124.15399 
L 319.36896 124.398756 
L 327.207744 126.74513 
L 327.40416 126.791856 
L 340.671168 130.660751 
L 340.724736 130.15426 
L 340.79616 130.177745 
L 340.849728 130.721765 
L 340.903296 130.213071 
L 341.028288 130.783238 
L 341.081856 130.272053 
L 341.15328 130.295708 
L 341.206848 130.84486 
L 341.260416 130.331226 
L 341.385408 130.906676 
L 341.438976 130.390587 
L 341.5104 130.414382 
L 341.563968 130.968633 
L 341.617536 130.450156 
L 341.742528 131.030753 
L 341.796096 130.509904 
L 341.86752 130.533857 
L 341.921088 131.093054 
L 341.974656 130.569853 
L 342.099648 131.15551 
L 342.153216 130.629998 
L 342.22464 130.654103 
L 342.278208 131.218139 
L 342.331776 130.690336 
L 342.456768 131.280938 
L 342.510336 130.750885 
L 342.58176 130.775158 
L 342.635328 131.343925 
L 342.688896 130.811642 
L 342.813888 131.407096 
L 342.867456 130.872603 
L 342.93888 130.897038 
L 342.992448 131.470425 
L 343.046016 130.933763 
L 343.171008 131.53393 
L 343.224576 130.995164 
L 343.296 131.019755 
L 343.349568 131.597629 
L 343.403136 131.056756 
L 343.528128 131.661517 
L 343.581696 131.118558 
L 343.65312 131.143344 
L 343.706688 131.725569 
L 343.760256 131.180588 
L 343.885248 131.789824 
L 343.938816 131.242841 
L 344.01024 131.267792 
L 344.063808 131.854235 
L 344.117376 131.305314 
L 344.242368 131.918861 
L 344.295936 131.368001 
L 344.36736 131.393131 
L 344.420928 131.983656 
L 344.474496 131.43092 
L 344.599488 132.048658 
L 344.653056 131.494066 
L 344.72448 131.519369 
L 344.778048 132.11384 
L 344.831616 131.557435 
L 344.956608 132.179221 
L 345.010176 131.621044 
L 345.0816 131.646534 
L 345.135168 132.244773 
L 345.188736 131.684866 
L 345.313728 132.310536 
L 345.367296 131.748919 
L 345.43872 131.774609 
L 345.492288 132.376482 
L 345.545856 131.813218 
L 345.670848 132.442628 
L 345.724416 131.877738 
L 345.79584 131.903621 
L 345.849408 132.50897 
L 345.902976 131.942516 
L 346.027968 132.575503 
L 346.081536 132.007505 
L 346.15296 132.033572 
L 346.206528 132.642222 
L 346.260096 132.072741 
L 346.385088 132.709143 
L 346.438656 132.13822 
L 346.51008 132.164464 
L 346.563648 132.776261 
L 346.617216 132.203916 
L 346.742208 132.84357 
L 346.795776 132.269865 
L 346.8672 132.296319 
L 346.920768 132.911087 
L 346.974336 132.336061 
L 347.099328 132.978787 
L 347.152896 132.4025 
L 347.22432 132.429135 
L 347.277888 133.046683 
L 347.331456 132.469156 
L 347.456448 133.114792 
L 347.510016 132.536063 
L 347.58144 132.562891 
L 347.635008 133.183069 
L 347.688576 132.603218 
L 347.813568 133.251567 
L 347.867136 132.670613 
L 347.93856 132.697645 
L 347.992128 133.320243 
L 348.045696 132.738244 
L 348.170688 133.38913 
L 348.224256 132.806125 
L 348.29568 132.833332 
L 348.349248 133.458204 
L 348.402816 132.87425 
L 348.527808 133.527461 
L 348.581376 132.942594 
L 348.6528 132.970007 
L 348.706368 133.596931 
L 348.759936 133.011192 
L 348.884928 133.666574 
L 348.938496 133.080036 
L 349.00992 133.107626 
L 349.063488 133.736422 
L 349.117056 133.149102 
L 349.242048 133.80645 
L 349.295616 133.218424 
L 349.36704 133.246201 
L 349.420608 133.876672 
L 349.474176 133.287975 
L 349.599168 133.947101 
L 349.652736 133.357769 
L 349.72416 133.385745 
L 349.777728 134.017696 
L 349.831296 133.427782 
L 349.956288 134.088487 
L 350.009856 133.498046 
L 350.08128 133.526209 
L 350.134848 134.159452 
L 350.188416 133.568535 
L 350.313408 134.230604 
L 350.366976 133.639263 
L 350.4384 133.667625 
L 350.491968 134.301955 
L 350.545536 133.710225 
L 350.670528 134.373464 
L 350.724096 133.781413 
L 350.79552 133.809944 
L 350.849088 134.445162 
L 350.902656 133.852822 
L 351.027648 134.517044 
L 351.081216 133.924465 
L 351.15264 133.953193 
L 351.206208 134.589086 
L 351.259776 133.996336 
L 351.384768 134.661319 
L 351.438336 134.068428 
L 351.50976 134.097325 
L 351.563328 134.73372 
L 351.616896 134.140736 
L 351.741888 134.806284 
L 351.795456 134.213273 
L 351.86688 134.242329 
L 351.920448 134.879005 
L 351.974016 134.286013 
L 352.099008 134.951897 
L 352.152576 134.358987 
L 352.224 134.388212 
L 352.277568 135.024971 
L 352.331136 134.432153 
L 352.456128 135.098187 
L 352.509696 134.505541 
L 352.58112 134.534943 
L 352.634688 135.171558 
L 352.688256 134.579127 
L 352.813248 135.245095 
L 352.866816 134.652906 
L 352.93824 134.682475 
L 352.991808 135.318778 
L 353.045376 134.726907 
L 353.170368 135.3926 
L 353.223936 134.801088 
L 353.29536 134.830815 
L 353.348928 135.466573 
L 353.402496 134.875479 
L 353.527488 135.540693 
L 353.581056 134.950056 
L 353.65248 134.979931 
L 353.706048 135.614954 
L 353.759616 135.024831 
L 353.884608 135.689352 
L 353.938176 135.099764 
L 354.0096 135.129795 
L 354.063168 135.763882 
L 354.116736 135.1749 
L 354.241728 135.83854 
L 354.295296 135.250217 
L 354.36672 135.280378 
L 354.420288 135.913335 
L 354.473856 135.325692 
L 354.598848 135.988233 
L 354.652416 135.401336 
L 354.72384 135.431636 
L 354.777408 136.06326 
L 354.830976 135.477161 
L 354.955968 136.138411 
L 355.009536 135.553144 
L 355.08096 135.583572 
L 355.134528 136.213666 
L 355.188096 135.629279 
L 355.313088 136.289021 
L 355.366656 135.705562 
L 355.43808 135.736111 
L 355.491648 136.364487 
L 355.545216 135.782004 
L 355.670208 136.440045 
L 355.723776 135.858582 
L 355.7952 135.889259 
L 355.848768 136.515704 
L 355.902336 135.935308 
L 356.027328 136.591447 
L 356.080896 136.01216 
L 356.15232 136.042941 
L 356.205888 136.667283 
L 356.259456 136.08915 
L 356.384448 136.743195 
L 356.438016 136.166256 
L 356.50944 136.197133 
L 356.563008 136.819177 
L 356.616576 136.24349 
L 356.741568 136.895241 
L 356.795136 136.320846 
L 356.86656 136.351795 
L 356.920128 136.971368 
L 356.973696 136.398289 
L 357.098688 137.047555 
L 357.152256 136.475845 
L 357.22368 136.50689 
L 357.277248 137.123798 
L 357.330816 136.553509 
L 357.455808 137.200093 
L 357.509376 136.631261 
L 357.5808 136.662364 
L 357.634368 137.276437 
L 357.687936 136.709098 
L 357.812928 137.352826 
L 357.866496 136.787014 
L 357.93792 136.818184 
L 357.991488 137.429244 
L 358.045056 136.864992 
L 358.170048 137.5057 
L 358.223616 136.943056 
L 358.29504 136.974285 
L 358.348608 137.582164 
L 358.402176 137.021187 
L 358.527168 137.658661 
L 358.580736 137.099367 
L 358.65216 137.130635 
L 358.705728 137.735174 
L 358.759296 137.177592 
L 358.884288 137.811686 
L 358.937856 137.255859 
L 359.00928 137.287174 
L 359.062848 137.888195 
L 359.116416 137.334179 
L 359.241408 137.964699 
L 359.294976 137.412519 
L 359.3664 137.443847 
L 359.419968 138.041207 
L 359.473536 137.490876 
L 359.598528 138.117678 
L 359.652096 137.569262 
L 359.72352 137.600612 
L 359.777088 138.194137 
L 359.830656 137.647658 
L 359.955648 138.270567 
L 360.009216 137.726049 
L 360.08064 137.757402 
L 360.134208 138.346954 
L 360.187776 137.804445 
L 360.312768 138.423296 
L 360.366336 137.882816 
L 360.43776 137.914155 
L 360.491328 138.499604 
L 360.544896 137.961174 
L 360.669888 138.575838 
L 360.723456 138.039515 
L 360.79488 138.070823 
L 360.848448 138.652022 
L 360.902016 138.117812 
L 361.027008 138.728117 
L 361.080576 138.196075 
L 361.152 138.227347 
L 361.205568 138.804146 
L 361.259136 138.274275 
L 361.384128 138.880095 
L 361.437696 138.352438 
L 361.50912 138.383659 
L 361.562688 138.95594 
L 361.616256 138.430522 
L 361.741248 139.031704 
L 361.794816 138.508538 
L 361.86624 138.539706 
L 361.919808 139.107349 
L 361.973376 138.586461 
L 362.098368 139.182875 
L 362.151936 138.664314 
L 362.22336 138.695413 
L 362.276928 139.258282 
L 362.330496 138.742058 
L 362.455488 139.333569 
L 362.509056 138.819705 
L 362.58048 138.850708 
L 362.634048 139.408711 
L 362.687616 138.897229 
L 362.812608 139.483663 
L 362.866176 138.974629 
L 362.9376 139.005549 
L 362.991168 139.558612 
L 363.044736 139.051906 
L 363.169728 139.633266 
L 363.223296 139.129045 
L 363.29472 139.159844 
L 363.348288 139.707741 
L 363.401856 139.206024 
L 363.526848 139.782155 
L 363.580416 139.282855 
L 363.65184 139.31352 
L 363.705408 139.856276 
L 363.758976 139.359513 
L 363.883968 139.930222 
L 363.937536 139.435998 
L 364.00896 139.466531 
L 364.062528 140.003994 
L 364.116096 139.512266 
L 364.241088 140.077478 
L 364.294656 139.588421 
L 364.36608 139.618763 
L 364.419648 140.150903 
L 364.473216 139.664266 
L 364.598208 140.223932 
L 364.651776 139.740035 
L 364.7232 139.770154 
L 364.776768 140.296792 
L 364.830336 139.815496 
L 364.955328 140.369483 
L 365.008896 139.890768 
L 365.08032 139.920783 
L 365.133888 140.441787 
L 365.187456 139.965737 
L 365.312448 140.513926 
L 365.366016 140.040519 
L 365.43744 140.070316 
L 365.491008 140.585793 
L 365.544576 140.115003 
L 365.669568 140.657282 
L 365.723136 140.189191 
L 365.79456 140.218775 
L 365.848128 140.728612 
L 365.901696 140.263086 
L 366.026688 140.79957 
L 366.080256 140.336801 
L 366.15168 140.366176 
L 366.205248 140.870161 
L 366.258816 140.410118 
L 366.383808 140.940493 
L 366.437376 140.483151 
L 366.5088 140.51221 
L 366.562368 141.01057 
L 366.615936 140.555901 
L 366.740928 141.080185 
L 366.794496 140.628263 
L 366.86592 140.657122 
L 366.919488 141.14955 
L 366.973056 140.70035 
L 367.098048 141.218463 
L 367.151616 140.77195 
L 367.22304 140.800613 
L 367.276608 141.287133 
L 367.330176 140.843388 
L 367.455168 141.355358 
L 367.508736 140.914347 
L 367.58016 140.942607 
L 367.633728 141.423145 
L 367.687296 140.984834 
L 367.812288 141.490598 
L 367.865856 141.055063 
L 367.93728 141.083033 
L 367.990848 141.557622 
L 368.044416 141.124829 
L 368.169408 141.62422 
L 368.222976 141.19424 
L 368.2944 141.221824 
L 368.347968 141.690399 
L 368.401536 141.263096 
L 368.526528 141.756163 
L 368.580096 141.331606 
L 368.65152 141.358915 
L 368.705088 141.821516 
L 368.758656 141.399674 
L 368.883648 141.886366 
L 368.937216 141.467305 
L 369.00864 141.494143 
L 369.062208 141.950719 
L 369.115776 141.534402 
L 369.240768 142.01458 
L 369.294336 141.601074 
L 369.36576 141.627553 
L 369.419328 142.077956 
L 369.472896 141.667225 
L 369.597888 142.140853 
L 369.651456 141.732862 
L 369.72288 141.758891 
L 369.776448 142.203275 
L 369.830016 141.79799 
L 369.955008 142.265134 
L 370.008576 141.862519 
L 370.08 141.888207 
L 370.133568 142.326436 
L 370.187136 141.926552 
L 370.312128 142.387188 
L 370.365696 141.990096 
L 370.43712 142.015355 
L 370.490688 142.44749 
L 370.544256 142.053061 
L 370.669248 142.507068 
L 370.722816 142.115357 
L 370.79424 142.140101 
L 370.847808 142.566116 
L 370.901376 142.177183 
L 371.026368 142.62464 
L 371.079936 142.238355 
L 371.15136 142.262597 
L 371.204928 142.682463 
L 371.258496 142.298881 
L 371.383488 142.739775 
L 371.437056 142.358768 
L 371.50848 142.382614 
L 371.562048 142.796309 
L 371.615616 142.418118 
L 371.740608 142.852347 
L 371.794176 142.476751 
L 371.8656 142.500024 
L 371.919168 142.907622 
L 371.972736 142.534675 
L 372.097728 142.962324 
L 372.151296 142.59199 
L 372.22272 142.614703 
L 372.276288 143.016281 
L 372.329856 142.648612 
L 372.454848 143.069588 
L 372.508416 142.704549 
L 372.57984 142.726716 
L 372.633408 143.122165 
L 372.686976 142.759717 
L 372.811968 143.17402 
L 372.865536 142.814217 
L 372.93696 142.835758 
L 372.990528 143.225161 
L 373.044096 142.867964 
L 373.169088 143.275594 
L 373.222656 142.920967 
L 373.29408 142.941897 
L 373.347648 143.325241 
L 373.401216 142.973145 
L 373.526208 143.37411 
L 373.579776 143.024596 
L 373.6512 143.044929 
L 373.704768 143.422208 
L 373.758336 143.075239 
L 373.883328 143.469544 
L 373.936896 143.125083 
L 374.00832 143.144741 
L 374.061888 143.516038 
L 374.115456 143.174046 
L 374.240448 143.561786 
L 374.294016 143.222228 
L 374.36544 143.241227 
L 374.419008 143.606622 
L 374.472576 143.269547 
L 374.597568 143.650642 
L 374.651136 143.316012 
L 374.72256 143.334365 
L 374.776128 143.693768 
L 374.829696 143.361632 
L 374.954688 143.736008 
L 375.008256 143.406328 
L 375.07968 143.42396 
L 375.133248 143.777455 
L 375.186816 143.450109 
L 375.311808 143.817946 
L 375.365376 143.492983 
L 375.4368 143.509908 
L 375.490368 143.857492 
L 375.543936 143.534959 
L 375.668928 143.896098 
L 375.722496 143.575958 
L 375.79392 143.592018 
L 375.847488 143.933857 
L 375.901056 143.61599 
L 376.026048 143.970526 
L 376.079616 143.655062 
L 376.15104 143.670356 
L 376.204608 144.006279 
L 376.258176 143.693098 
L 376.383168 144.041124 
L 376.436736 143.73019 
L 376.50816 143.744646 
L 376.561728 144.074901 
L 376.615296 143.766177 
L 376.740288 144.107618 
L 376.793856 143.801236 
L 376.86528 143.814867 
L 376.918848 144.139365 
L 376.972416 143.835122 
L 377.097408 144.169985 
L 377.150976 143.86801 
L 377.2224 143.880827 
L 377.275968 144.199648 
L 377.329536 143.899824 
L 377.454528 144.228196 
L 377.57952 143.942418 
L 377.633088 144.255637 
L 377.686656 143.960089 
L 377.811648 144.281894 
L 377.93664 143.999612 
L 377.990208 144.307138 
L 378.043776 144.015892 
L 378.168768 144.331211 
L 378.29376 144.052129 
L 378.347328 144.354118 
L 378.400896 144.066949 
L 378.525888 144.375865 
L 378.65088 144.099854 
L 378.704448 144.396376 
L 378.758016 144.113312 
L 378.883008 144.415736 
L 379.008 144.14275 
L 379.061568 144.43387 
L 379.115136 144.154692 
L 379.240128 144.4507 
L 379.36512 144.180691 
L 379.418688 144.466392 
L 379.472256 144.191129 
L 379.597248 144.480707 
L 379.72224 144.213466 
L 379.775808 144.49381 
L 379.829376 144.222328 
L 379.954368 144.505543 
L 380.07936 144.240942 
L 380.132928 144.515987 
L 380.186496 144.248154 
L 380.311488 144.525065 
L 380.43648 144.26306 
L 380.490048 144.532859 
L 380.543616 144.268627 
L 380.668608 144.539208 
L 380.7936 144.27951 
L 380.847168 144.544195 
L 380.900736 144.283435 
L 381.025728 144.547738 
L 381.15072 144.290382 
L 381.204288 144.549837 
L 381.257856 144.292586 
L 381.382848 144.550571 
L 381.50784 144.29535 
L 381.561408 144.549779 
L 381.614976 144.295749 
L 381.739968 144.547539 
L 381.86496 144.294408 
L 381.918528 144.543766 
L 381.972096 144.292916 
L 382.097088 144.53846 
L 382.22208 144.287293 
L 382.275648 144.531614 
L 382.329216 144.283986 
L 382.454208 144.523306 
L 382.5792 144.273814 
L 382.632768 144.513288 
L 382.686336 144.268599 
L 382.811328 144.501796 
L 382.93632 144.254016 
L 382.989888 144.488582 
L 383.043456 144.246798 
L 383.168448 144.4738 
L 383.29344 144.227603 
L 383.347008 144.457361 
L 383.400576 144.218364 
L 383.525568 144.439255 
L 383.65056 144.194349 
L 383.704128 144.419392 
L 383.757696 144.183153 
L 383.882688 144.397843 
L 384.00768 144.154263 
L 384.061248 144.374595 
L 384.114816 144.140918 
L 384.239808 144.349557 
L 384.3648 144.107092 
L 384.418368 144.322795 
L 384.471936 144.091652 
L 384.596928 144.294214 
L 384.72192 144.052733 
L 384.775488 144.263798 
L 384.829056 144.034997 
L 384.954048 144.231532 
L 385.07904 143.990901 
L 385.132608 144.197482 
L 385.186176 143.971 
L 385.311168 144.161463 
L 385.43616 143.921548 
L 385.489728 144.123624 
L 385.543296 143.899269 
L 385.668288 144.083775 
L 385.79328 143.844438 
L 385.846848 144.042065 
L 385.900416 143.819818 
L 386.025408 143.998386 
L 386.1504 143.759491 
L 386.203968 143.952716 
L 386.257536 143.732476 
L 386.382528 143.90503 
L 386.50752 143.666347 
L 386.561088 143.855301 
L 386.68608 143.616714 
L 386.739648 143.803502 
L 386.86464 143.564975 
L 386.918208 143.749605 
L 387.0432 143.511189 
L 387.096768 143.693667 
L 387.22176 143.455237 
L 387.275328 143.635658 
L 387.40032 143.397089 
L 387.453888 143.57537 
L 387.57888 143.3368 
L 387.632448 143.513033 
L 387.75744 143.274337 
L 387.811008 143.448436 
L 387.936 143.209573 
L 387.989568 143.38172 
L 388.11456 143.142653 
L 388.168128 143.312669 
L 388.29312 143.073449 
L 388.346688 143.241423 
L 388.47168 143.001919 
L 388.525248 143.167852 
L 388.65024 142.928022 
L 388.703808 143.092003 
L 388.8288 142.851807 
L 388.882368 143.013835 
L 389.00736 142.773324 
L 389.060928 142.933301 
L 389.18592 142.69234 
L 389.239488 142.850355 
L 389.36448 142.608995 
L 389.418048 142.765041 
L 389.54304 142.523241 
L 389.596608 142.677312 
L 389.7216 142.43493 
L 389.775168 142.587114 
L 389.90016 142.344204 
L 389.953728 142.494491 
L 390.07872 142.25091 
L 390.132288 142.399291 
L 390.25728 142.155191 
L 390.310848 142.301653 
L 390.43584 142.05679 
L 390.489408 142.201421 
L 390.6144 141.955846 
L 390.667968 142.098533 
L 390.79296 141.8523 
L 390.846528 141.993129 
L 390.97152 141.746089 
L 391.025088 141.885043 
L 391.15008 141.637251 
L 391.203648 141.774416 
L 391.32864 141.525719 
L 391.382208 141.660973 
L 391.5072 141.411426 
L 391.560768 141.544959 
L 391.68576 141.294405 
L 391.739328 141.426093 
L 391.86432 141.174695 
L 391.917888 141.304513 
L 392.04288 141.052112 
L 392.096448 141.180146 
L 392.22144 140.926689 
L 392.275008 141.053026 
L 392.4 140.798459 
L 392.453568 140.922962 
L 392.57856 140.667344 
L 392.632128 140.790098 
L 392.75712 140.533259 
L 392.810688 140.654351 
L 392.93568 140.396353 
L 392.989248 140.515755 
L 393.11424 140.25646 
L 393.167808 140.374107 
L 393.2928 140.113573 
L 393.346368 140.229505 
L 393.47136 139.967676 
L 393.524928 140.081919 
L 393.64992 139.818737 
L 393.703488 139.931306 
L 393.82848 139.666736 
L 393.882048 139.777622 
L 394.00704 139.511642 
L 394.060608 139.620868 
L 394.1856 139.353419 
L 394.239168 139.461 
L 394.36416 139.192044 
L 394.417728 139.29798 
L 394.54272 139.027496 
L 394.596288 139.131811 
L 394.72128 138.859724 
L 394.774848 138.96243 
L 394.89984 138.688729 
L 394.953408 138.789824 
L 395.0784 138.51446 
L 395.131968 138.613967 
L 395.25696 138.336903 
L 395.310528 138.43482 
L 395.43552 138.15602 
L 395.489088 138.252371 
L 395.61408 137.971769 
L 395.667648 138.066577 
L 395.79264 137.784151 
L 395.846208 137.877397 
L 395.9712 137.593111 
L 396.024768 137.684818 
L 396.14976 137.398633 
L 396.203328 137.488812 
L 396.32832 137.200677 
L 396.381888 137.28935 
L 396.50688 136.999214 
L 396.560448 137.08639 
L 396.68544 136.794216 
L 396.739008 136.879904 
L 396.864 136.585655 
L 396.917568 136.669864 
L 397.04256 136.373503 
L 397.096128 136.456243 
L 397.22112 136.157719 
L 397.274688 136.239013 
L 397.39968 135.938291 
L 397.453248 136.018133 
L 397.57824 135.71516 
L 397.631808 135.793575 
L 397.7568 135.488301 
L 397.810368 135.565298 
L 397.93536 135.257706 
L 397.988928 135.333296 
L 398.11392 135.023317 
L 398.167488 135.09751 
L 398.29248 134.785111 
L 398.346048 134.857936 
L 398.47104 134.54305 
L 398.524608 134.614499 
L 398.6496 134.297113 
L 398.703168 134.367218 
L 398.82816 134.047264 
L 398.881728 134.116038 
L 399.00672 133.793469 
L 399.060288 133.860904 
L 399.18528 133.535691 
L 399.238848 133.601823 
L 399.36384 133.273901 
L 399.417408 133.338724 
L 399.5424 133.008068 
L 399.595968 133.07162 
L 399.828096 132.574309 
L 399.881664 132.618818 
L 400.006656 132.297791 
L 400.060224 132.341879 
L 400.185216 132.017097 
L 400.238784 132.060758 
L 400.363776 131.732211 
L 400.417344 131.775438 
L 400.542336 131.443093 
L 400.595904 131.485905 
L 400.720896 131.149685 
L 400.774464 131.192099 
L 400.899456 130.852004 
L 400.953024 130.89399 
L 401.078016 130.549945 
L 401.131584 130.591521 
L 401.256576 130.243508 
L 401.310144 130.284723 
L 401.435136 129.932672 
L 401.488704 129.973494 
L 401.613696 129.617396 
L 401.667264 129.657818 
L 401.792256 129.297608 
L 401.845824 129.337654 
L 401.970816 128.973332 
L 402.024384 129.012998 
L 402.149376 128.644478 
L 402.202944 128.683789 
L 402.327936 128.311015 
L 402.381504 128.349968 
L 402.506496 127.972924 
L 402.560064 128.011549 
L 402.685056 127.630191 
L 402.738624 127.66845 
L 402.863616 127.282737 
L 402.917184 127.320663 
L 403.042176 126.930523 
L 403.095744 126.968114 
L 403.220736 126.573555 
L 403.274304 126.610847 
L 403.399296 126.211769 
L 403.452864 126.248723 
L 403.577856 125.845106 
L 403.631424 125.881762 
L 403.756416 125.473554 
L 403.809984 125.509912 
L 403.934976 125.097066 
L 403.988544 125.133129 
L 404.113536 124.715603 
L 404.167104 124.751418 
L 404.292096 124.329131 
L 404.345664 124.364659 
L 404.470656 123.937628 
L 404.524224 123.97292 
L 404.649216 123.541028 
L 404.702784 123.576044 
L 404.827776 123.139273 
L 404.881344 123.174071 
L 405.006336 122.732361 
L 405.059904 122.766953 
L 405.184896 122.320253 
L 405.238464 122.354596 
L 405.363456 121.902914 
L 405.417024 121.937077 
L 405.542016 121.480261 
L 405.595584 121.514202 
L 405.720576 121.052337 
L 405.774144 121.086072 
L 405.899136 120.618951 
L 405.952704 120.652562 
L 406.077696 120.180231 
L 406.131264 120.213675 
L 406.256256 119.736062 
L 406.309824 119.769365 
L 406.434816 119.2864 
L 406.488384 119.31959 
L 406.613376 118.831213 
L 406.666944 118.86432 
L 406.791936 118.370475 
L 406.845504 118.403459 
L 406.970496 117.904096 
L 407.024064 117.93699 
L 407.149056 117.432153 
L 407.202624 117.464997 
L 407.327616 116.954404 
L 407.381184 116.987244 
L 407.506176 116.471038 
L 407.559744 116.503834 
L 407.684736 115.981915 
L 407.738304 116.014717 
L 407.863296 115.486986 
L 407.916864 115.519753 
L 408.041856 114.986208 
L 408.095424 115.018999 
L 408.220416 114.479552 
L 408.273984 114.512431 
L 408.398976 113.966997 
L 408.452544 113.999927 
L 408.577536 113.448514 
L 408.631104 113.481595 
L 408.756096 112.92406 
L 408.809664 112.957268 
L 408.934656 112.393587 
L 408.988224 112.426963 
L 409.113216 111.857083 
L 409.166784 111.89063 
L 409.291776 111.314507 
L 409.345344 111.348258 
L 409.470336 110.765809 
L 409.523904 110.799804 
L 409.648896 110.210995 
L 409.702464 110.245261 
L 409.827456 109.65002 
L 409.881024 109.684589 
L 410.006016 109.08286 
L 410.059584 109.117753 
L 410.184576 108.509504 
L 410.238144 108.54476 
L 410.363136 107.92991 
L 410.416704 107.965557 
L 410.541696 107.344062 
L 410.595264 107.38015 
L 410.720256 106.751952 
L 410.773824 106.788539 
L 410.898816 106.153558 
L 410.952384 106.190666 
L 411.077376 105.548887 
L 411.130944 105.586562 
L 411.255936 104.937929 
L 411.309504 104.9762 
L 411.434496 104.320681 
L 411.488064 104.359606 
L 411.613056 103.697116 
L 411.666624 103.736759 
L 411.791616 103.067291 
L 411.845184 103.107667 
L 411.970176 102.431186 
L 412.023744 102.472372 
L 412.148736 101.78884 
L 412.202304 101.830892 
L 412.327296 101.140232 
L 412.380864 101.183209 
L 412.505856 100.485471 
L 412.559424 100.529406 
L 412.684416 99.824536 
L 412.737984 99.869537 
L 412.862976 99.157508 
L 412.916544 99.203619 
L 413.041536 98.484431 
L 413.095104 98.531698 
L 413.220096 97.805386 
L 413.273664 97.853904 
L 413.398656 97.120455 
L 413.452224 97.170282 
L 413.577216 96.429711 
L 413.630784 96.480959 
L 413.755776 95.733269 
L 413.809344 95.786011 
L 413.934336 95.031298 
L 413.987904 95.085611 
L 414.112896 94.323902 
L 414.166464 94.379871 
L 414.291456 93.611235 
L 414.345024 93.668949 
L 414.470016 92.8935 
L 414.523584 92.953059 
L 414.648576 92.170895 
L 414.702144 92.232332 
L 414.72 89.705488 
L 414.72 89.740393 
L 414.72 59.674935 
L 414.72 59.674935 
" clip-path="url(#pee09e22958)" style="fill: none; stroke-dasharray: 5.55,2.4; stroke-dashoffset: 0; stroke: #ff7f0e; stroke-width: 1.5"/>
   </g>
   <g id="line2d_13">
    <path d="M 57.6 238.593534 
L 95.63328 240.5721 
L 131.7024 242.202188 
L 172.05696 243.799055 
L 217.571904 245.37312 
L 269.068608 246.926924 
L 327.58272 248.465145 
L 394.060608 249.985506 
L 414.72 250.41744 
L 414.72 250.41744 
" clip-path="url(#pee09e22958)" style="fill: none; stroke: #ff0000; stroke-width: 1.5; stroke-linecap: square"/>
   </g>
   <g id="line2d_14">
    <path d="M -1 295.488 
L 461.8 295.488 
" clip-path="url(#pee09e22958)" style="fill: none; stroke-dasharray: 5.55,2.4; stroke-dashoffset: 0; stroke: #2ca02c; stroke-width: 1.5"/>
   </g>
   <g id="line2d_15">
    <path d="M -1 241.05698 
L 461.8 241.05698 
" clip-path="url(#pee09e22958)" style="fill: none; stroke-dasharray: 5.55,2.4; stroke-dashoffset: 0; stroke: #d62728; stroke-width: 1.5"/>
   </g>
   <g id="patch_3">
    <path d="M 57.6 307.584 
L 57.6 41.472 
" style="fill: none; stroke: #000000; stroke-width: 0.8; stroke-linejoin: miter; stroke-linecap: square"/>
   </g>
   <g id="patch_4">
    <path d="M 414.72 307.584 
L 414.72 41.472 
" style="fill: none; stroke: #000000; stroke-width: 0.8; stroke-linejoin: miter; stroke-linecap: square"/>
   </g>
   <g id="patch_5">
    <path d="M 57.6 307.584 
L 414.72 307.584 
" style="fill: none; stroke: #000000; stroke-width: 0.8; stroke-linejoin: miter; stroke-linecap: square"/>
   </g>
   <g id="patch_6">
    <path d="M 57.6 41.472 
L 414.72 41.472 
" style="fill: none; stroke: #000000; stroke-width: 0.8; stroke-linejoin: miter; stroke-linecap: square"/>
   </g>
   <g id="legend_1">
    <g id="patch_7">
     <path d="M 306.121563 93.506375 
L 407.72 93.506375 
Q 409.72 93.506375 409.72 91.506375 
L 409.72 48.472 
Q 409.72 46.472 407.72 46.472 
L 306.121563 46.472 
Q 304.121563 46.472 304.121563 48.472 
L 304.121563 91.506375 
Q 304.121563 93.506375 306.121563 93.506375 
z
" style="fill: #ffffff; opacity: 0.8; stroke: #cccccc; stroke-linejoin: miter"/>
    </g>
    <g id="line2d_16">
     <path d="M 308.121563 54.570438 
L 318.121563 54.570438 
L 328.121563 54.570438 
" style="fill: none; stroke: #1f77b4; stroke-width: 1.5; stroke-linecap: square"/>
    </g>
    <g id="text_13">
     <!-- Py2 0.177mm -->
     <g transform="translate(336.121563 58.070438)scale(0.1 -0.1)">
      <defs>
       <path id="DejaVuSans-2e" d="M 684 794 
L 1344 794 
L 1344 0 
L 684 0 
L 684 794 
z
" transform="scale(0.015625)"/>
       <path id="DejaVuSans-37" d="M 525 4666 
L 3525 4666 
L 3525 4397 
L 1831 0 
L 1172 0 
L 2766 4134 
L 525 4134 
L 525 4666 
z
" transform="scale(0.015625)"/>
      </defs>
      <use xlink:href="#DejaVuSans-50"/>
      <use xlink:href="#DejaVuSans-79" x="60.302734"/>
      <use xlink:href="#DejaVuSans-32" x="119.482422"/>
      <use xlink:href="#DejaVuSans-20" x="183.105469"/>
      <use xlink:href="#DejaVuSans-30" x="214.892578"/>
      <use xlink:href="#DejaVuSans-2e" x="278.515625"/>
      <use xlink:href="#DejaVuSans-31" x="310.302734"/>
      <use xlink:href="#DejaVuSans-37" x="373.925781"/>
      <use xlink:href="#DejaVuSans-37" x="437.548828"/>
      <use xlink:href="#DejaVuSans-6d" x="501.171875"/>
      <use xlink:href="#DejaVuSans-6d" x="598.583984"/>
     </g>
    </g>
    <g id="line2d_17">
     <path d="M 308.121563 69.248563 
L 318.121563 69.248563 
L 328.121563 69.248563 
" style="fill: none; stroke-dasharray: 5.55,2.4; stroke-dashoffset: 0; stroke: #ff7f0e; stroke-width: 1.5"/>
    </g>
    <g id="text_14">
     <!-- Py1 0.177mm -->
     <g transform="translate(336.121563 72.748563)scale(0.1 -0.1)">
      <use xlink:href="#DejaVuSans-50"/>
      <use xlink:href="#DejaVuSans-79" x="60.302734"/>
      <use xlink:href="#DejaVuSans-31" x="119.482422"/>
      <use xlink:href="#DejaVuSans-20" x="183.105469"/>
      <use xlink:href="#DejaVuSans-30" x="214.892578"/>
      <use xlink:href="#DejaVuSans-2e" x="278.515625"/>
      <use xlink:href="#DejaVuSans-31" x="310.302734"/>
      <use xlink:href="#DejaVuSans-37" x="373.925781"/>
      <use xlink:href="#DejaVuSans-37" x="437.548828"/>
      <use xlink:href="#DejaVuSans-6d" x="501.171875"/>
      <use xlink:href="#DejaVuSans-6d" x="598.583984"/>
     </g>
    </g>
    <g id="line2d_18">
     <path d="M 308.121563 83.926688 
L 318.121563 83.926688 
L 328.121563 83.926688 
" style="fill: none; stroke: #ff0000; stroke-width: 1.5; stroke-linecap: square"/>
    </g>
    <g id="text_15">
     <!-- Bi -->
     <g transform="translate(336.121563 87.426688)scale(0.1 -0.1)">
      <defs>
       <path id="DejaVuSans-42" d="M 1259 2228 
L 1259 519 
L 2272 519 
Q 2781 519 3026 730 
Q 3272 941 3272 1375 
Q 3272 1813 3026 2020 
Q 2781 2228 2272 2228 
L 1259 2228 
z
M 1259 4147 
L 1259 2741 
L 2194 2741 
Q 2656 2741 2882 2914 
Q 3109 3088 3109 3444 
Q 3109 3797 2882 3972 
Q 2656 4147 2194 4147 
L 1259 4147 
z
M 628 4666 
L 2241 4666 
Q 2963 4666 3353 4366 
Q 3744 4066 3744 3513 
Q 3744 3084 3544 2831 
Q 3344 2578 2956 2516 
Q 3422 2416 3680 2098 
Q 3938 1781 3938 1306 
Q 3938 681 3513 340 
Q 3088 0 2303 0 
L 628 0 
L 628 4666 
z
" transform="scale(0.015625)"/>
      </defs>
      <use xlink:href="#DejaVuSans-42"/>
      <use xlink:href="#DejaVuSans-69" x="68.603516"/>
     </g>
    </g>
   </g>
  </g>
 </g>
 <defs>
  <clipPath id="pee09e22958">
   <rect x="57.6" y="41.472" width="357.12" height="266.112"/>
  </clipPath>
 </defs>
</svg>
