<?xml version="1.0" encoding="utf-8" standalone="no"?>
<!DOCTYPE svg PUBLIC "-//W3C//DTD SVG 1.1//EN"
  "http://www.w3.org/Graphics/SVG/1.1/DTD/svg11.dtd">
<svg xmlns:xlink="http://www.w3.org/1999/xlink" width="460.8pt" height="345.6pt" viewBox="0 0 460.8 345.6" xmlns="http://www.w3.org/2000/svg" version="1.1">
 <metadata>
  <rdf:RDF xmlns:dc="http://purl.org/dc/elements/1.1/" xmlns:cc="http://creativecommons.org/ns#" xmlns:rdf="http://www.w3.org/1999/02/22-rdf-syntax-ns#">
   <cc:Work>
    <dc:type rdf:resource="http://purl.org/dc/dcmitype/StillImage"/>
    <dc:date>2022-04-26T12:16:50.928537</dc:date>
    <dc:format>image/svg+xml</dc:format>
    <dc:creator>
     <cc:Agent>
      <dc:title>Matplotlib v3.5.1, https://matplotlib.org/</dc:title>
     </cc:Agent>
    </dc:creator>
   </cc:Work>
  </rdf:RDF>
 </metadata>
 <defs>
  <style type="text/css">*{stroke-linejoin: round; stroke-linecap: butt}</style>
 </defs>
 <g id="figure_1">
  <g id="patch_1">
   <path d="M 0 345.6 
L 460.8 345.6 
L 460.8 0 
L 0 0 
z
" style="fill: #ffffff"/>
  </g>
  <g id="axes_1">
   <g id="patch_2">
    <path d="M 57.6 307.584 
L 414.72 307.584 
L 414.72 41.472 
L 57.6 41.472 
z
" style="fill: #ffffff"/>
   </g>
   <g id="matplotlib.axis_1">
    <g id="xtick_1">
     <g id="line2d_1">
      <defs>
       <path id="m463a4a7e49" d="M 0 0 
L 0 3.5 
" style="stroke: #000000; stroke-width: 0.8"/>
      </defs>
      <g>
       <use xlink:href="#m463a4a7e49" x="94.30298" y="307.584" style="stroke: #000000; stroke-width: 0.8"/>
      </g>
     </g>
     <g id="text_1">
      <!-- 400 -->
      <g transform="translate(84.75923 322.182437)scale(0.1 -0.1)">
       <defs>
        <path id="DejaVuSans-34" d="M 2419 4116 
L 825 1625 
L 2419 1625 
L 2419 4116 
z
M 2253 4666 
L 3047 4666 
L 3047 1625 
L 3713 1625 
L 3713 1100 
L 3047 1100 
L 3047 0 
L 2419 0 
L 2419 1100 
L 313 1100 
L 313 1709 
L 2253 4666 
z
" transform="scale(0.015625)"/>
        <path id="DejaVuSans-30" d="M 2034 4250 
Q 1547 4250 1301 3770 
Q 1056 3291 1056 2328 
Q 1056 1369 1301 889 
Q 1547 409 2034 409 
Q 2525 409 2770 889 
Q 3016 1369 3016 2328 
Q 3016 3291 2770 3770 
Q 2525 4250 2034 4250 
z
M 2034 4750 
Q 2819 4750 3233 4129 
Q 3647 3509 3647 2328 
Q 3647 1150 3233 529 
Q 2819 -91 2034 -91 
Q 1250 -91 836 529 
Q 422 1150 422 2328 
Q 422 3509 836 4129 
Q 1250 4750 2034 4750 
z
" transform="scale(0.015625)"/>
       </defs>
       <use xlink:href="#DejaVuSans-34"/>
       <use xlink:href="#DejaVuSans-30" x="63.623047"/>
       <use xlink:href="#DejaVuSans-30" x="127.246094"/>
      </g>
     </g>
    </g>
    <g id="xtick_2">
     <g id="line2d_2">
      <g>
       <use xlink:href="#m463a4a7e49" x="167.708941" y="307.584" style="stroke: #000000; stroke-width: 0.8"/>
      </g>
     </g>
     <g id="text_2">
      <!-- 600 -->
      <g transform="translate(158.165191 322.182437)scale(0.1 -0.1)">
       <defs>
        <path id="DejaVuSans-36" d="M 2113 2584 
Q 1688 2584 1439 2293 
Q 1191 2003 1191 1497 
Q 1191 994 1439 701 
Q 1688 409 2113 409 
Q 2538 409 2786 701 
Q 3034 994 3034 1497 
Q 3034 2003 2786 2293 
Q 2538 2584 2113 2584 
z
M 3366 4563 
L 3366 3988 
Q 3128 4100 2886 4159 
Q 2644 4219 2406 4219 
Q 1781 4219 1451 3797 
Q 1122 3375 1075 2522 
Q 1259 2794 1537 2939 
Q 1816 3084 2150 3084 
Q 2853 3084 3261 2657 
Q 3669 2231 3669 1497 
Q 3669 778 3244 343 
Q 2819 -91 2113 -91 
Q 1303 -91 875 529 
Q 447 1150 447 2328 
Q 447 3434 972 4092 
Q 1497 4750 2381 4750 
Q 2619 4750 2861 4703 
Q 3103 4656 3366 4563 
z
" transform="scale(0.015625)"/>
       </defs>
       <use xlink:href="#DejaVuSans-36"/>
       <use xlink:href="#DejaVuSans-30" x="63.623047"/>
       <use xlink:href="#DejaVuSans-30" x="127.246094"/>
      </g>
     </g>
    </g>
    <g id="xtick_3">
     <g id="line2d_3">
      <g>
       <use xlink:href="#m463a4a7e49" x="241.114902" y="307.584" style="stroke: #000000; stroke-width: 0.8"/>
      </g>
     </g>
     <g id="text_3">
      <!-- 800 -->
      <g transform="translate(231.571152 322.182437)scale(0.1 -0.1)">
       <defs>
        <path id="DejaVuSans-38" d="M 2034 2216 
Q 1584 2216 1326 1975 
Q 1069 1734 1069 1313 
Q 1069 891 1326 650 
Q 1584 409 2034 409 
Q 2484 409 2743 651 
Q 3003 894 3003 1313 
Q 3003 1734 2745 1975 
Q 2488 2216 2034 2216 
z
M 1403 2484 
Q 997 2584 770 2862 
Q 544 3141 544 3541 
Q 544 4100 942 4425 
Q 1341 4750 2034 4750 
Q 2731 4750 3128 4425 
Q 3525 4100 3525 3541 
Q 3525 3141 3298 2862 
Q 3072 2584 2669 2484 
Q 3125 2378 3379 2068 
Q 3634 1759 3634 1313 
Q 3634 634 3220 271 
Q 2806 -91 2034 -91 
Q 1263 -91 848 271 
Q 434 634 434 1313 
Q 434 1759 690 2068 
Q 947 2378 1403 2484 
z
M 1172 3481 
Q 1172 3119 1398 2916 
Q 1625 2713 2034 2713 
Q 2441 2713 2670 2916 
Q 2900 3119 2900 3481 
Q 2900 3844 2670 4047 
Q 2441 4250 2034 4250 
Q 1625 4250 1398 4047 
Q 1172 3844 1172 3481 
z
" transform="scale(0.015625)"/>
       </defs>
       <use xlink:href="#DejaVuSans-38"/>
       <use xlink:href="#DejaVuSans-30" x="63.623047"/>
       <use xlink:href="#DejaVuSans-30" x="127.246094"/>
      </g>
     </g>
    </g>
    <g id="xtick_4">
     <g id="line2d_4">
      <g>
       <use xlink:href="#m463a4a7e49" x="314.520863" y="307.584" style="stroke: #000000; stroke-width: 0.8"/>
      </g>
     </g>
     <g id="text_4">
      <!-- 1000 -->
      <g transform="translate(301.795863 322.182437)scale(0.1 -0.1)">
       <defs>
        <path id="DejaVuSans-31" d="M 794 531 
L 1825 531 
L 1825 4091 
L 703 3866 
L 703 4441 
L 1819 4666 
L 2450 4666 
L 2450 531 
L 3481 531 
L 3481 0 
L 794 0 
L 794 531 
z
" transform="scale(0.015625)"/>
       </defs>
       <use xlink:href="#DejaVuSans-31"/>
       <use xlink:href="#DejaVuSans-30" x="63.623047"/>
       <use xlink:href="#DejaVuSans-30" x="127.246094"/>
       <use xlink:href="#DejaVuSans-30" x="190.869141"/>
      </g>
     </g>
    </g>
    <g id="xtick_5">
     <g id="line2d_5">
      <g>
       <use xlink:href="#m463a4a7e49" x="387.926824" y="307.584" style="stroke: #000000; stroke-width: 0.8"/>
      </g>
     </g>
     <g id="text_5">
      <!-- 1200 -->
      <g transform="translate(375.201824 322.182437)scale(0.1 -0.1)">
       <defs>
        <path id="DejaVuSans-32" d="M 1228 531 
L 3431 531 
L 3431 0 
L 469 0 
L 469 531 
Q 828 903 1448 1529 
Q 2069 2156 2228 2338 
Q 2531 2678 2651 2914 
Q 2772 3150 2772 3378 
Q 2772 3750 2511 3984 
Q 2250 4219 1831 4219 
Q 1534 4219 1204 4116 
Q 875 4013 500 3803 
L 500 4441 
Q 881 4594 1212 4672 
Q 1544 4750 1819 4750 
Q 2544 4750 2975 4387 
Q 3406 4025 3406 3419 
Q 3406 3131 3298 2873 
Q 3191 2616 2906 2266 
Q 2828 2175 2409 1742 
Q 1991 1309 1228 531 
z
" transform="scale(0.015625)"/>
       </defs>
       <use xlink:href="#DejaVuSans-31"/>
       <use xlink:href="#DejaVuSans-32" x="63.623047"/>
       <use xlink:href="#DejaVuSans-30" x="127.246094"/>
       <use xlink:href="#DejaVuSans-30" x="190.869141"/>
      </g>
     </g>
    </g>
    <g id="text_6">
     <!-- Temperature (K) -->
     <g transform="translate(195.720937 335.860562)scale(0.1 -0.1)">
      <defs>
       <path id="DejaVuSans-54" d="M -19 4666 
L 3928 4666 
L 3928 4134 
L 2272 4134 
L 2272 0 
L 1638 0 
L 1638 4134 
L -19 4134 
L -19 4666 
z
" transform="scale(0.015625)"/>
       <path id="DejaVuSans-65" d="M 3597 1894 
L 3597 1613 
L 953 1613 
Q 991 1019 1311 708 
Q 1631 397 2203 397 
Q 2534 397 2845 478 
Q 3156 559 3463 722 
L 3463 178 
Q 3153 47 2828 -22 
Q 2503 -91 2169 -91 
Q 1331 -91 842 396 
Q 353 884 353 1716 
Q 353 2575 817 3079 
Q 1281 3584 2069 3584 
Q 2775 3584 3186 3129 
Q 3597 2675 3597 1894 
z
M 3022 2063 
Q 3016 2534 2758 2815 
Q 2500 3097 2075 3097 
Q 1594 3097 1305 2825 
Q 1016 2553 972 2059 
L 3022 2063 
z
" transform="scale(0.015625)"/>
       <path id="DejaVuSans-6d" d="M 3328 2828 
Q 3544 3216 3844 3400 
Q 4144 3584 4550 3584 
Q 5097 3584 5394 3201 
Q 5691 2819 5691 2113 
L 5691 0 
L 5113 0 
L 5113 2094 
Q 5113 2597 4934 2840 
Q 4756 3084 4391 3084 
Q 3944 3084 3684 2787 
Q 3425 2491 3425 1978 
L 3425 0 
L 2847 0 
L 2847 2094 
Q 2847 2600 2669 2842 
Q 2491 3084 2119 3084 
Q 1678 3084 1418 2786 
Q 1159 2488 1159 1978 
L 1159 0 
L 581 0 
L 581 3500 
L 1159 3500 
L 1159 2956 
Q 1356 3278 1631 3431 
Q 1906 3584 2284 3584 
Q 2666 3584 2933 3390 
Q 3200 3197 3328 2828 
z
" transform="scale(0.015625)"/>
       <path id="DejaVuSans-70" d="M 1159 525 
L 1159 -1331 
L 581 -1331 
L 581 3500 
L 1159 3500 
L 1159 2969 
Q 1341 3281 1617 3432 
Q 1894 3584 2278 3584 
Q 2916 3584 3314 3078 
Q 3713 2572 3713 1747 
Q 3713 922 3314 415 
Q 2916 -91 2278 -91 
Q 1894 -91 1617 61 
Q 1341 213 1159 525 
z
M 3116 1747 
Q 3116 2381 2855 2742 
Q 2594 3103 2138 3103 
Q 1681 3103 1420 2742 
Q 1159 2381 1159 1747 
Q 1159 1113 1420 752 
Q 1681 391 2138 391 
Q 2594 391 2855 752 
Q 3116 1113 3116 1747 
z
" transform="scale(0.015625)"/>
       <path id="DejaVuSans-72" d="M 2631 2963 
Q 2534 3019 2420 3045 
Q 2306 3072 2169 3072 
Q 1681 3072 1420 2755 
Q 1159 2438 1159 1844 
L 1159 0 
L 581 0 
L 581 3500 
L 1159 3500 
L 1159 2956 
Q 1341 3275 1631 3429 
Q 1922 3584 2338 3584 
Q 2397 3584 2469 3576 
Q 2541 3569 2628 3553 
L 2631 2963 
z
" transform="scale(0.015625)"/>
       <path id="DejaVuSans-61" d="M 2194 1759 
Q 1497 1759 1228 1600 
Q 959 1441 959 1056 
Q 959 750 1161 570 
Q 1363 391 1709 391 
Q 2188 391 2477 730 
Q 2766 1069 2766 1631 
L 2766 1759 
L 2194 1759 
z
M 3341 1997 
L 3341 0 
L 2766 0 
L 2766 531 
Q 2569 213 2275 61 
Q 1981 -91 1556 -91 
Q 1019 -91 701 211 
Q 384 513 384 1019 
Q 384 1609 779 1909 
Q 1175 2209 1959 2209 
L 2766 2209 
L 2766 2266 
Q 2766 2663 2505 2880 
Q 2244 3097 1772 3097 
Q 1472 3097 1187 3025 
Q 903 2953 641 2809 
L 641 3341 
Q 956 3463 1253 3523 
Q 1550 3584 1831 3584 
Q 2591 3584 2966 3190 
Q 3341 2797 3341 1997 
z
" transform="scale(0.015625)"/>
       <path id="DejaVuSans-74" d="M 1172 4494 
L 1172 3500 
L 2356 3500 
L 2356 3053 
L 1172 3053 
L 1172 1153 
Q 1172 725 1289 603 
Q 1406 481 1766 481 
L 2356 481 
L 2356 0 
L 1766 0 
Q 1100 0 847 248 
Q 594 497 594 1153 
L 594 3053 
L 172 3053 
L 172 3500 
L 594 3500 
L 594 4494 
L 1172 4494 
z
" transform="scale(0.015625)"/>
       <path id="DejaVuSans-75" d="M 544 1381 
L 544 3500 
L 1119 3500 
L 1119 1403 
Q 1119 906 1312 657 
Q 1506 409 1894 409 
Q 2359 409 2629 706 
Q 2900 1003 2900 1516 
L 2900 3500 
L 3475 3500 
L 3475 0 
L 2900 0 
L 2900 538 
Q 2691 219 2414 64 
Q 2138 -91 1772 -91 
Q 1169 -91 856 284 
Q 544 659 544 1381 
z
M 1991 3584 
L 1991 3584 
z
" transform="scale(0.015625)"/>
       <path id="DejaVuSans-20" transform="scale(0.015625)"/>
       <path id="DejaVuSans-28" d="M 1984 4856 
Q 1566 4138 1362 3434 
Q 1159 2731 1159 2009 
Q 1159 1288 1364 580 
Q 1569 -128 1984 -844 
L 1484 -844 
Q 1016 -109 783 600 
Q 550 1309 550 2009 
Q 550 2706 781 3412 
Q 1013 4119 1484 4856 
L 1984 4856 
z
" transform="scale(0.015625)"/>
       <path id="DejaVuSans-4b" d="M 628 4666 
L 1259 4666 
L 1259 2694 
L 3353 4666 
L 4166 4666 
L 1850 2491 
L 4331 0 
L 3500 0 
L 1259 2247 
L 1259 0 
L 628 0 
L 628 4666 
z
" transform="scale(0.015625)"/>
       <path id="DejaVuSans-29" d="M 513 4856 
L 1013 4856 
Q 1481 4119 1714 3412 
Q 1947 2706 1947 2009 
Q 1947 1309 1714 600 
Q 1481 -109 1013 -844 
L 513 -844 
Q 928 -128 1133 580 
Q 1338 1288 1338 2009 
Q 1338 2731 1133 3434 
Q 928 4138 513 4856 
z
" transform="scale(0.015625)"/>
      </defs>
      <use xlink:href="#DejaVuSans-54"/>
      <use xlink:href="#DejaVuSans-65" x="44.083984"/>
      <use xlink:href="#DejaVuSans-6d" x="105.607422"/>
      <use xlink:href="#DejaVuSans-70" x="203.019531"/>
      <use xlink:href="#DejaVuSans-65" x="266.496094"/>
      <use xlink:href="#DejaVuSans-72" x="328.019531"/>
      <use xlink:href="#DejaVuSans-61" x="369.132812"/>
      <use xlink:href="#DejaVuSans-74" x="430.412109"/>
      <use xlink:href="#DejaVuSans-75" x="469.621094"/>
      <use xlink:href="#DejaVuSans-72" x="533"/>
      <use xlink:href="#DejaVuSans-65" x="571.863281"/>
      <use xlink:href="#DejaVuSans-20" x="633.386719"/>
      <use xlink:href="#DejaVuSans-28" x="665.173828"/>
      <use xlink:href="#DejaVuSans-4b" x="704.1875"/>
      <use xlink:href="#DejaVuSans-29" x="769.763672"/>
     </g>
    </g>
   </g>
   <g id="matplotlib.axis_2">
    <g id="ytick_1">
     <g id="line2d_6">
      <defs>
       <path id="mc9dc4ed7bb" d="M 0 0 
L -3.5 0 
" style="stroke: #000000; stroke-width: 0.8"/>
      </defs>
      <g>
       <use xlink:href="#mc9dc4ed7bb" x="57.6" y="269.168553" style="stroke: #000000; stroke-width: 0.8"/>
      </g>
     </g>
     <g id="text_7">
      <!-- $\mathdefault{10^{0}}$ -->
      <g transform="translate(33 272.967772)scale(0.1 -0.1)">
       <use xlink:href="#DejaVuSans-31" transform="translate(0 0.765625)"/>
       <use xlink:href="#DejaVuSans-30" transform="translate(63.623047 0.765625)"/>
       <use xlink:href="#DejaVuSans-30" transform="translate(128.203125 39.046875)scale(0.7)"/>
      </g>
     </g>
    </g>
    <g id="ytick_2">
     <g id="line2d_7">
      <g>
       <use xlink:href="#mc9dc4ed7bb" x="57.6" y="216.52966" style="stroke: #000000; stroke-width: 0.8"/>
      </g>
     </g>
     <g id="text_8">
      <!-- $\mathdefault{10^{2}}$ -->
      <g transform="translate(33 220.328878)scale(0.1 -0.1)">
       <use xlink:href="#DejaVuSans-31" transform="translate(0 0.765625)"/>
       <use xlink:href="#DejaVuSans-30" transform="translate(63.623047 0.765625)"/>
       <use xlink:href="#DejaVuSans-32" transform="translate(128.203125 39.046875)scale(0.7)"/>
      </g>
     </g>
    </g>
    <g id="ytick_3">
     <g id="line2d_8">
      <g>
       <use xlink:href="#mc9dc4ed7bb" x="57.6" y="163.890766" style="stroke: #000000; stroke-width: 0.8"/>
      </g>
     </g>
     <g id="text_9">
      <!-- $\mathdefault{10^{4}}$ -->
      <g transform="translate(33 167.689985)scale(0.1 -0.1)">
       <use xlink:href="#DejaVuSans-31" transform="translate(0 0.684375)"/>
       <use xlink:href="#DejaVuSans-30" transform="translate(63.623047 0.684375)"/>
       <use xlink:href="#DejaVuSans-34" transform="translate(128.203125 38.965625)scale(0.7)"/>
      </g>
     </g>
    </g>
    <g id="ytick_4">
     <g id="line2d_9">
      <g>
       <use xlink:href="#mc9dc4ed7bb" x="57.6" y="111.251873" style="stroke: #000000; stroke-width: 0.8"/>
      </g>
     </g>
     <g id="text_10">
      <!-- $\mathdefault{10^{6}}$ -->
      <g transform="translate(33 115.051091)scale(0.1 -0.1)">
       <use xlink:href="#DejaVuSans-31" transform="translate(0 0.765625)"/>
       <use xlink:href="#DejaVuSans-30" transform="translate(63.623047 0.765625)"/>
       <use xlink:href="#DejaVuSans-36" transform="translate(128.203125 39.046875)scale(0.7)"/>
      </g>
     </g>
    </g>
    <g id="ytick_5">
     <g id="line2d_10">
      <g>
       <use xlink:href="#mc9dc4ed7bb" x="57.6" y="58.612979" style="stroke: #000000; stroke-width: 0.8"/>
      </g>
     </g>
     <g id="text_11">
      <!-- $\mathdefault{10^{8}}$ -->
      <g transform="translate(33 62.412198)scale(0.1 -0.1)">
       <use xlink:href="#DejaVuSans-31" transform="translate(0 0.765625)"/>
       <use xlink:href="#DejaVuSans-30" transform="translate(63.623047 0.765625)"/>
       <use xlink:href="#DejaVuSans-38" transform="translate(128.203125 39.046875)scale(0.7)"/>
      </g>
     </g>
    </g>
    <g id="text_12">
     <!-- Pyrolysis number -->
     <g transform="translate(26.920312 217.554563)rotate(-90)scale(0.1 -0.1)">
      <defs>
       <path id="DejaVuSans-50" d="M 1259 4147 
L 1259 2394 
L 2053 2394 
Q 2494 2394 2734 2622 
Q 2975 2850 2975 3272 
Q 2975 3691 2734 3919 
Q 2494 4147 2053 4147 
L 1259 4147 
z
M 628 4666 
L 2053 4666 
Q 2838 4666 3239 4311 
Q 3641 3956 3641 3272 
Q 3641 2581 3239 2228 
Q 2838 1875 2053 1875 
L 1259 1875 
L 1259 0 
L 628 0 
L 628 4666 
z
" transform="scale(0.015625)"/>
       <path id="DejaVuSans-79" d="M 2059 -325 
Q 1816 -950 1584 -1140 
Q 1353 -1331 966 -1331 
L 506 -1331 
L 506 -850 
L 844 -850 
Q 1081 -850 1212 -737 
Q 1344 -625 1503 -206 
L 1606 56 
L 191 3500 
L 800 3500 
L 1894 763 
L 2988 3500 
L 3597 3500 
L 2059 -325 
z
" transform="scale(0.015625)"/>
       <path id="DejaVuSans-6f" d="M 1959 3097 
Q 1497 3097 1228 2736 
Q 959 2375 959 1747 
Q 959 1119 1226 758 
Q 1494 397 1959 397 
Q 2419 397 2687 759 
Q 2956 1122 2956 1747 
Q 2956 2369 2687 2733 
Q 2419 3097 1959 3097 
z
M 1959 3584 
Q 2709 3584 3137 3096 
Q 3566 2609 3566 1747 
Q 3566 888 3137 398 
Q 2709 -91 1959 -91 
Q 1206 -91 779 398 
Q 353 888 353 1747 
Q 353 2609 779 3096 
Q 1206 3584 1959 3584 
z
" transform="scale(0.015625)"/>
       <path id="DejaVuSans-6c" d="M 603 4863 
L 1178 4863 
L 1178 0 
L 603 0 
L 603 4863 
z
" transform="scale(0.015625)"/>
       <path id="DejaVuSans-73" d="M 2834 3397 
L 2834 2853 
Q 2591 2978 2328 3040 
Q 2066 3103 1784 3103 
Q 1356 3103 1142 2972 
Q 928 2841 928 2578 
Q 928 2378 1081 2264 
Q 1234 2150 1697 2047 
L 1894 2003 
Q 2506 1872 2764 1633 
Q 3022 1394 3022 966 
Q 3022 478 2636 193 
Q 2250 -91 1575 -91 
Q 1294 -91 989 -36 
Q 684 19 347 128 
L 347 722 
Q 666 556 975 473 
Q 1284 391 1588 391 
Q 1994 391 2212 530 
Q 2431 669 2431 922 
Q 2431 1156 2273 1281 
Q 2116 1406 1581 1522 
L 1381 1569 
Q 847 1681 609 1914 
Q 372 2147 372 2553 
Q 372 3047 722 3315 
Q 1072 3584 1716 3584 
Q 2034 3584 2315 3537 
Q 2597 3491 2834 3397 
z
" transform="scale(0.015625)"/>
       <path id="DejaVuSans-69" d="M 603 3500 
L 1178 3500 
L 1178 0 
L 603 0 
L 603 3500 
z
M 603 4863 
L 1178 4863 
L 1178 4134 
L 603 4134 
L 603 4863 
z
" transform="scale(0.015625)"/>
       <path id="DejaVuSans-6e" d="M 3513 2113 
L 3513 0 
L 2938 0 
L 2938 2094 
Q 2938 2591 2744 2837 
Q 2550 3084 2163 3084 
Q 1697 3084 1428 2787 
Q 1159 2491 1159 1978 
L 1159 0 
L 581 0 
L 581 3500 
L 1159 3500 
L 1159 2956 
Q 1366 3272 1645 3428 
Q 1925 3584 2291 3584 
Q 2894 3584 3203 3211 
Q 3513 2838 3513 2113 
z
" transform="scale(0.015625)"/>
       <path id="DejaVuSans-62" d="M 3116 1747 
Q 3116 2381 2855 2742 
Q 2594 3103 2138 3103 
Q 1681 3103 1420 2742 
Q 1159 2381 1159 1747 
Q 1159 1113 1420 752 
Q 1681 391 2138 391 
Q 2594 391 2855 752 
Q 3116 1113 3116 1747 
z
M 1159 2969 
Q 1341 3281 1617 3432 
Q 1894 3584 2278 3584 
Q 2916 3584 3314 3078 
Q 3713 2572 3713 1747 
Q 3713 922 3314 415 
Q 2916 -91 2278 -91 
Q 1894 -91 1617 61 
Q 1341 213 1159 525 
L 1159 0 
L 581 0 
L 581 4863 
L 1159 4863 
L 1159 2969 
z
" transform="scale(0.015625)"/>
      </defs>
      <use xlink:href="#DejaVuSans-50"/>
      <use xlink:href="#DejaVuSans-79" x="60.302734"/>
      <use xlink:href="#DejaVuSans-72" x="119.482422"/>
      <use xlink:href="#DejaVuSans-6f" x="158.345703"/>
      <use xlink:href="#DejaVuSans-6c" x="219.527344"/>
      <use xlink:href="#DejaVuSans-79" x="247.310547"/>
      <use xlink:href="#DejaVuSans-73" x="306.490234"/>
      <use xlink:href="#DejaVuSans-69" x="358.589844"/>
      <use xlink:href="#DejaVuSans-73" x="386.373047"/>
      <use xlink:href="#DejaVuSans-20" x="438.472656"/>
      <use xlink:href="#DejaVuSans-6e" x="470.259766"/>
      <use xlink:href="#DejaVuSans-75" x="533.638672"/>
      <use xlink:href="#DejaVuSans-6d" x="597.017578"/>
      <use xlink:href="#DejaVuSans-62" x="694.429688"/>
      <use xlink:href="#DejaVuSans-65" x="757.90625"/>
      <use xlink:href="#DejaVuSans-72" x="819.429688"/>
     </g>
    </g>
   </g>
   <g id="line2d_11">
    <path d="M 57.6 145.401614 
L 61.270298 150.784412 
L 64.812136 155.597588 
L 68.298919 159.967426 
L 71.602187 163.756636 
L 74.666886 166.945858 
L 77.584773 169.672566 
L 77.786639 169.838939 
L 80.410902 171.965872 
L 82.906705 173.712574 
L 83.035165 173.778324 
L 83.530656 174.082095 
L 85.732835 175.271879 
L 87.751498 176.113887 
L 89.696756 176.703155 
L 89.825217 176.704238 
L 90.082138 176.756498 
L 91.898935 177.017992 
L 92.027396 176.992558 
L 92.265965 177.03418 
L 92.394425 177.004039 
L 92.632995 177.039479 
L 92.761455 177.00452 
L 93.000025 177.033721 
L 93.128485 176.993894 
L 93.367054 177.016632 
L 93.495515 176.971871 
L 93.734084 176.9882 
L 93.862545 176.938276 
L 94.101114 176.948006 
L 94.229575 176.892969 
L 94.358035 176.874211 
L 95.936263 176.565257 
L 96.064724 176.482943 
L 96.193184 176.442321 
L 97.771412 175.861392 
L 97.899873 175.749446 
L 98.028333 175.685423 
L 99.606561 174.814062 
L 99.735022 174.670689 
L 99.790076 174.689806 
L 99.808428 174.620081 
L 101.44171 173.40829 
L 101.570171 173.232606 
L 101.625225 173.247939 
L 101.643577 173.167365 
L 103.295211 171.555886 
L 105.185414 169.398487 
L 110.011856 163.630626 
L 110.066911 163.657025 
L 110.085262 163.562957 
L 110.929431 162.890848 
L 110.984485 162.925756 
L 111.002837 162.842524 
L 111.66349 162.492171 
L 111.718545 162.535121 
L 111.736896 162.463092 
L 112.39755 162.297587 
L 112.52601 162.286111 
L 113.131609 162.326304 
L 113.370179 162.432197 
L 113.443585 162.408085 
L 114.049184 162.683928 
L 114.287753 162.870473 
L 114.306105 162.84625 
L 115.150273 163.556231 
L 115.590709 164.024332 
L 116.691799 165.435201 
L 118.159918 167.702846 
L 120.545612 171.857719 
L 128.436752 185.813999 
L 132.455729 192.376853 
L 138.897102 201.787556 
L 141.814989 205.497616 
L 142.07191 205.793798 
L 144.641118 208.662089 
L 147.026812 210.993887 
L 149.3391 212.956347 
L 149.412506 212.990918 
L 151.614684 214.540634 
L 153.926972 215.913812 
L 154.000378 215.923193 
L 156.331017 217.003521 
L 158.588251 217.802034 
L 160.735375 218.314797 
L 162.809094 218.560491 
L 165.323248 218.589594 
L 167.452021 218.590436 
L 167.69059 218.645017 
L 167.81905 218.614595 
L 168.05762 218.675958 
L 168.18608 218.651447 
L 168.42465 218.72091 
L 168.55311 218.703434 
L 168.791679 218.782346 
L 168.92014 218.772944 
L 169.158709 218.862604 
L 169.28717 218.862332 
L 169.525739 218.963982 
L 169.54409 218.940149 
L 170.571774 219.362299 
L 170.993858 219.620276 
L 171.122319 219.678245 
L 171.617809 220.020132 
L 172.590438 220.842505 
L 175.233052 223.945965 
L 177.068201 226.506327 
L 182.206619 233.35796 
L 184.647367 235.830134 
L 186.243947 236.970536 
L 187.76712 237.547679 
L 188.813155 237.598168 
L 190.09776 237.174503 
L 191.382364 236.153987 
L 192.832132 234.337717 
L 192.960592 234.038881 
L 193.015646 234.045824 
L 193.144107 233.737279 
L 193.199161 233.743076 
L 193.327622 233.425299 
L 193.382676 233.429951 
L 193.511137 233.103549 
L 193.566191 233.107122 
L 193.694652 232.772658 
L 193.749706 232.775225 
L 193.878166 232.433349 
L 193.933221 232.434988 
L 194.061681 232.086451 
L 194.116736 232.087248 
L 194.245196 231.732919 
L 194.300251 231.73297 
L 194.428711 231.373697 
L 194.483766 231.373031 
L 194.612226 231.009789 
L 194.667281 231.008598 
L 194.795741 230.642268 
L 194.850795 230.640682 
L 194.979256 230.272359 
L 195.03431 230.270439 
L 195.162771 229.901285 
L 195.217825 229.899098 
L 195.346286 229.530158 
L 195.40134 229.527962 
L 195.529801 229.160329 
L 195.584855 229.158127 
L 195.713316 228.79312 
L 195.76837 228.791012 
L 195.89683 228.429702 
L 195.951885 228.427897 
L 196.080345 228.071263 
L 196.1354 228.069889 
L 196.26386 227.719207 
L 196.318915 227.718295 
L 196.447375 227.374514 
L 196.50243 227.374205 
L 196.63089 227.038223 
L 196.685945 227.038669 
L 196.814405 226.711426 
L 196.869459 226.712742 
L 196.99792 226.394907 
L 197.052974 226.397133 
L 197.181435 226.089408 
L 197.236489 226.092591 
L 197.36495 225.795486 
L 197.420004 225.799699 
L 197.548465 225.5136 
L 197.603519 225.518879 
L 197.731979 225.243996 
L 197.805385 225.143212 
L 198.466039 224.288639 
L 198.539445 224.206146 
L 199.383614 223.342729 
L 199.438668 223.357741 
L 199.45702 223.278395 
L 200.484703 222.449399 
L 200.539757 222.467036 
L 200.558109 222.395963 
L 203.677862 219.916843 
L 205.311145 218.278089 
L 205.439605 218.055316 
L 205.513011 217.969964 
L 207.403215 215.559994 
L 212.780201 208.31379 
L 212.835256 208.333162 
L 212.853607 208.232984 
L 213.881291 207.192641 
L 213.936345 207.217019 
L 213.954697 207.125348 
L 214.98238 206.275455 
L 215.037435 206.304591 
L 215.055786 206.221221 
L 216.08347 205.540156 
L 216.138524 205.573021 
L 216.156876 205.496451 
L 217.551589 204.756537 
L 217.606643 204.792296 
L 217.624995 204.720809 
L 221.533862 202.724512 
L 223.130442 201.611367 
L 224.763725 200.26515 
L 224.892185 200.062865 
L 224.947239 200.086233 
L 224.965591 199.990169 
L 226.598874 198.289042 
L 226.727334 198.0514 
L 226.782388 198.068432 
L 226.80074 197.962045 
L 228.507429 195.712149 
L 230.893122 192.158877 
L 233.150356 188.860807 
L 233.223762 188.761766 
L 234.618475 187.023107 
L 234.691881 186.939079 
L 236.086594 185.470783 
L 236.16 185.399065 
L 238.288773 183.438248 
L 238.362179 183.371716 
L 241.096551 180.799374 
L 241.225011 180.603641 
L 241.298417 180.526135 
L 243.482245 178.111707 
L 243.610705 177.887662 
L 243.684111 177.797549 
L 246.051453 174.784557 
L 246.179914 174.534402 
L 246.25332 174.433183 
L 252.41942 166.063061 
L 252.492826 165.982063 
L 253.52051 164.956391 
L 253.575564 164.970531 
L 253.593916 164.891534 
L 254.621599 164.117982 
L 254.676654 164.138811 
L 254.695005 164.072815 
L 255.539174 163.656269 
L 255.667634 163.60975 
L 256.456748 163.422874 
L 256.695318 163.437488 
L 256.823778 163.393256 
L 257.062347 163.427949 
L 257.190808 163.39904 
L 257.429377 163.453169 
L 257.557838 163.439081 
L 257.814758 163.486735 
L 258.842442 163.826665 
L 259.264526 164.047922 
L 259.392987 164.096783 
L 259.888477 164.385088 
L 261.228136 165.339009 
L 262.457686 166.37913 
L 265.026894 168.826501 
L 278.900621 182.444633 
L 280.130171 183.571378 
L 282.699379 185.876981 
L 284.901558 187.791447 
L 286.810113 189.400405 
L 291.214471 192.913019 
L 295.233447 195.840909 
L 295.490368 196.008809 
L 298.977151 198.254736 
L 302.096904 200.01048 
L 304.978088 201.383213 
L 307.602351 202.395665 
L 310.098154 203.14595 
L 310.226615 203.153523 
L 310.483535 203.212994 
L 312.850878 203.658809 
L 312.979338 203.647197 
L 313.236259 203.676589 
L 315.493492 203.808911 
L 317.695671 203.715991 
L 319.89785 203.404784 
L 322.210138 202.896576 
L 322.338598 202.815644 
L 322.467059 202.777802 
L 324.962861 201.964168 
L 325.091322 201.865003 
L 325.219782 201.813494 
L 327.715585 200.743 
L 327.844045 200.625361 
L 327.8991 200.651003 
L 327.917451 200.588095 
L 330.284793 199.316146 
L 330.413254 199.17752 
L 330.468308 199.201529 
L 330.48666 199.131076 
L 332.505324 197.721 
L 334.322121 196.243767 
L 334.450582 196.051368 
L 334.505636 196.069994 
L 334.523988 195.980814 
L 336.15727 194.32633 
L 336.285731 194.096095 
L 336.340785 194.110571 
L 336.359137 194.008474 
L 337.827256 192.085367 
L 339.277024 189.916725 
L 339.405484 189.597275 
L 339.460539 189.601668 
L 339.588999 189.275942 
L 339.644053 189.279617 
L 339.772514 188.947451 
L 339.827568 188.950401 
L 339.956029 188.6117 
L 340.011083 188.613918 
L 340.139544 188.268513 
L 340.194598 188.269992 
L 340.323059 187.917788 
L 340.378113 187.918479 
L 340.506573 187.559385 
L 340.561628 187.55928 
L 340.690088 187.193169 
L 340.745143 187.192257 
L 340.873603 186.818963 
L 340.928658 186.817233 
L 341.057118 186.436676 
L 341.112173 186.434116 
L 341.240633 186.046136 
L 341.295688 186.042737 
L 341.424148 185.647222 
L 341.479202 185.642972 
L 341.607663 185.239819 
L 341.662717 185.234659 
L 341.791178 184.823774 
L 341.846232 184.817741 
L 341.974693 184.398941 
L 342.029747 184.392025 
L 342.158208 183.965183 
L 342.213262 183.957375 
L 342.341723 183.522431 
L 342.396777 183.513666 
L 342.525237 183.070466 
L 342.580292 183.060732 
L 342.708752 182.60919 
L 342.763807 182.59854 
L 342.892267 182.138467 
L 342.947322 182.126897 
L 343.075782 181.658246 
L 343.130837 181.645619 
L 343.259297 181.168299 
L 343.314351 181.154747 
L 343.442812 180.668552 
L 343.497866 180.654006 
L 343.626327 180.158887 
L 343.681381 180.143349 
L 343.809842 179.639216 
L 343.864896 179.622612 
L 343.993357 179.109402 
L 344.048411 179.09182 
L 344.176872 178.569423 
L 344.231926 178.550702 
L 344.360386 178.019032 
L 344.415441 177.999273 
L 344.543901 177.458184 
L 344.598956 177.437409 
L 344.727416 176.886888 
L 344.782471 176.865025 
L 344.910931 176.304999 
L 344.965986 176.28208 
L 345.094446 175.71252 
L 345.149501 175.688471 
L 345.277961 175.109252 
L 345.333015 175.08414 
L 345.461476 174.495313 
L 345.51653 174.469096 
L 345.644991 173.870607 
L 345.700045 173.843307 
L 345.828506 173.235136 
L 345.88356 173.206759 
L 346.012021 172.588927 
L 346.067075 172.559459 
L 346.195535 171.931986 
L 346.25059 171.901448 
L 346.37905 171.264385 
L 346.434105 171.232774 
L 346.562565 170.586204 
L 346.61762 170.553528 
L 346.74608 169.897552 
L 346.801135 169.863825 
L 346.929595 169.198558 
L 346.98465 169.163806 
L 347.11311 168.48944 
L 347.168164 168.453682 
L 347.296625 167.770406 
L 347.351679 167.733648 
L 347.48014 167.041712 
L 347.535194 167.003994 
L 347.663655 166.303687 
L 347.718709 166.265063 
L 347.84717 165.556717 
L 347.902224 165.517233 
L 348.030684 164.801245 
L 348.085739 164.760933 
L 348.214199 164.037832 
L 348.269254 163.996737 
L 348.397714 163.267007 
L 348.452769 163.22519 
L 348.581229 162.489484 
L 348.636284 162.447056 
L 348.764744 161.706038 
L 348.819799 161.663101 
L 348.948259 160.917584 
L 349.003313 160.87418 
L 349.131774 160.125098 
L 349.186828 160.081321 
L 349.315289 159.329693 
L 349.370343 159.285706 
L 349.498804 158.532627 
L 349.553858 158.48857 
L 349.682319 157.735304 
L 349.737373 157.69129 
L 349.865834 156.939219 
L 349.920888 156.895432 
L 350.049348 156.14612 
L 350.104403 156.102772 
L 350.232863 155.357835 
L 350.287918 155.315033 
L 350.416378 154.576236 
L 350.471433 154.534234 
L 350.599893 153.803649 
L 350.654948 153.762654 
L 350.783408 153.042204 
L 350.838462 153.002437 
L 350.966923 152.294303 
L 351.021977 152.256087 
L 351.150438 151.562459 
L 351.205492 151.525955 
L 351.333953 150.849262 
L 351.389007 150.814822 
L 351.517468 150.157334 
L 351.572522 150.125116 
L 351.700983 149.489275 
L 351.756037 149.459641 
L 351.884497 148.847592 
L 351.939552 148.820685 
L 352.068012 148.234772 
L 352.123067 148.210878 
L 352.251527 147.653109 
L 352.306582 147.632445 
L 352.435042 147.104676 
L 352.490097 147.08743 
L 352.618557 146.591274 
L 352.673612 146.577626 
L 352.802072 146.114421 
L 352.857126 146.104465 
L 352.985587 145.67522 
L 353.040641 145.669063 
L 353.169102 145.27442 
L 353.224156 145.27212 
L 353.352617 144.912351 
L 353.407671 144.913898 
L 353.536132 144.588921 
L 353.591186 144.594303 
L 353.719646 144.303685 
L 353.774701 144.312804 
L 353.903161 144.055732 
L 353.958216 144.068513 
L 353.976567 143.966837 
L 354.453706 143.522351 
L 354.508761 143.5451 
L 354.527112 143.473455 
L 355.004251 143.26662 
L 355.132711 143.240933 
L 355.73831 143.259514 
L 355.995231 143.325107 
L 356.8394 143.707494 
L 357.628514 144.219688 
L 357.83038 144.351731 
L 360.693213 146.521229 
L 361.867708 147.405452 
L 365.538006 149.994373 
L 368.712814 151.974212 
L 371.593998 153.516742 
L 374.163207 154.648213 
L 376.530549 155.47207 
L 376.659009 155.486945 
L 376.970985 155.571508 
L 379.099757 156.041482 
L 379.228218 156.034519 
L 379.485139 156.069533 
L 381.485451 156.23715 
L 381.613912 156.206358 
L 381.852481 156.23536 
L 381.980941 156.20058 
L 382.219511 156.22448 
L 382.347971 156.185549 
L 382.586541 156.204287 
L 382.715001 156.161157 
L 382.95357 156.174533 
L 383.082031 156.127147 
L 383.3206 156.135073 
L 383.449061 156.083231 
L 383.68763 156.085608 
L 383.81609 156.029226 
L 384.05466 156.02587 
L 384.18312 155.964851 
L 384.311581 155.939751 
L 385.963215 155.497496 
L 387.559794 154.841043 
L 389.193077 153.964932 
L 389.321538 153.825801 
L 389.376592 153.843539 
L 389.394943 153.776194 
L 390.918117 152.612163 
L 392.496345 151.176202 
L 392.624806 150.971046 
L 392.698212 150.891815 
L 394.221385 149.078503 
L 395.799614 146.917228 
L 395.928074 146.630542 
L 395.983128 146.630912 
L 396.111589 146.339171 
L 396.166643 146.338946 
L 396.295104 146.042087 
L 396.350158 146.041266 
L 396.478619 145.739229 
L 396.533673 145.737812 
L 396.662134 145.430523 
L 396.717188 145.428495 
L 396.845649 145.115899 
L 396.900703 145.11326 
L 397.029163 144.795306 
L 397.084218 144.79204 
L 397.212678 144.468648 
L 397.267733 144.464772 
L 397.396193 144.135883 
L 397.451248 144.131363 
L 397.579708 143.796904 
L 397.634763 143.791739 
L 397.763223 143.45168 
L 397.818277 143.445854 
L 397.946738 143.100093 
L 398.001792 143.093627 
L 398.130253 142.74211 
L 398.185307 142.734965 
L 398.313768 142.377619 
L 398.368822 142.36982 
L 398.497283 142.006584 
L 398.552337 141.99809 
L 398.680798 141.628884 
L 398.735852 141.6197 
L 398.864312 141.244477 
L 398.919367 141.234608 
L 399.047827 140.853283 
L 399.102882 140.842686 
L 399.231342 140.45518 
L 399.286397 140.443913 
L 399.414857 140.050132 
L 399.469912 140.038153 
L 399.598372 139.638063 
L 399.653427 139.625328 
L 399.781887 139.218853 
L 399.836941 139.205401 
L 399.965402 138.792449 
L 400.020456 138.778234 
L 400.148917 138.358752 
L 400.203971 138.343788 
L 400.332432 137.917675 
L 400.387486 137.90198 
L 400.515947 137.469144 
L 400.571001 137.452674 
L 400.699461 137.013069 
L 400.754516 136.995843 
L 400.882976 136.549372 
L 400.938031 136.531346 
L 401.066491 136.077957 
L 401.121546 136.059119 
L 401.250006 135.598704 
L 401.305061 135.579082 
L 401.433521 135.111585 
L 401.488576 135.091135 
L 401.617036 134.616434 
L 401.67209 134.59519 
L 401.800551 134.113221 
L 401.855605 134.091138 
L 401.984066 133.601806 
L 402.03912 133.578884 
L 402.167581 133.082161 
L 402.222635 133.058351 
L 402.351096 132.554085 
L 402.40615 132.529439 
L 402.53461 132.01759 
L 402.589665 131.992065 
L 402.718125 131.472509 
L 402.77318 131.446114 
L 402.90164 130.918741 
L 402.956695 130.89149 
L 403.085155 130.356267 
L 403.14021 130.328059 
L 403.26867 129.784849 
L 403.323725 129.75583 
L 403.452185 129.204518 
L 403.507239 129.174519 
L 403.6357 128.615139 
L 403.690754 128.584184 
L 403.819215 128.016516 
L 403.874269 127.984641 
L 404.00273 127.408621 
L 404.057784 127.37587 
L 404.186245 126.791379 
L 404.241299 126.75764 
L 404.36976 126.164568 
L 404.424814 126.129895 
L 404.553274 125.528249 
L 404.608329 125.492519 
L 404.736789 124.882143 
L 404.791844 124.845419 
L 404.920304 124.226166 
L 404.975359 124.188529 
L 405.103819 123.560265 
L 405.158874 123.521589 
L 405.287334 122.884376 
L 405.342388 122.844675 
L 405.470849 122.198278 
L 405.525903 122.157535 
L 405.654364 121.501875 
L 405.709418 121.46009 
L 405.837879 120.795069 
L 405.892933 120.752221 
L 406.021394 120.07774 
L 406.076448 120.033823 
L 406.204909 119.349748 
L 406.259963 119.304764 
L 406.388423 118.610997 
L 406.443478 118.564901 
L 406.571938 117.861338 
L 406.626993 117.814156 
L 406.755453 117.10066 
L 406.810508 117.052353 
L 406.938968 116.328844 
L 406.994023 116.279413 
L 407.122483 115.545729 
L 407.177538 115.49516 
L 407.305998 114.751243 
L 407.361052 114.6995 
L 407.489513 113.945196 
L 407.544567 113.892293 
L 407.673028 113.127481 
L 407.728082 113.073416 
L 407.856543 112.297988 
L 407.911597 112.242704 
L 408.040058 111.456532 
L 408.095112 111.400061 
L 408.223572 110.603023 
L 408.278627 110.545343 
L 408.407087 109.737283 
L 408.462142 109.678373 
L 408.590602 108.859205 
L 408.645657 108.799043 
L 408.774117 107.968648 
L 408.829172 107.907211 
L 408.957632 107.065413 
L 409.012687 107.002728 
L 409.141147 106.14943 
L 409.196201 106.085482 
L 409.324662 105.220522 
L 409.379716 105.155241 
L 409.508177 104.278541 
L 409.563231 104.211965 
L 409.691692 103.323373 
L 409.746746 103.255419 
L 409.875207 102.35481 
L 409.930261 102.28552 
L 410.058721 101.37273 
L 410.113776 101.302084 
L 410.242236 100.376976 
L 410.297291 100.304948 
L 410.425751 99.367326 
L 410.480806 99.293976 
L 410.609266 98.343772 
L 410.664321 98.26897 
L 410.792781 97.305949 
L 410.847836 97.229751 
L 410.976296 96.253935 
L 411.03135 96.176276 
L 411.159811 95.187403 
L 411.214865 95.108287 
L 411.343326 94.106232 
L 411.39838 94.025661 
L 411.526841 93.010248 
L 411.581895 92.928201 
L 411.710356 91.899307 
L 411.76541 91.815744 
L 411.893871 90.77321 
L 411.948925 90.68813 
L 412.077385 89.631812 
L 412.13244 89.545201 
L 412.2609 88.474912 
L 412.315955 88.386758 
L 412.444415 87.302337 
L 412.49947 87.212637 
L 412.62793 86.113941 
L 412.682985 86.022638 
L 412.811445 84.909496 
L 412.866499 84.816622 
L 412.99496 83.68888 
L 413.050014 83.594345 
L 413.178475 82.451876 
L 413.233529 82.355689 
L 413.36199 81.198261 
L 413.417044 81.100453 
L 413.545505 79.927942 
L 413.600559 79.828412 
L 413.72902 78.640602 
L 413.784074 78.539459 
L 413.912534 77.336162 
L 413.967589 77.233319 
L 414.096049 76.01441 
L 414.151104 75.909763 
L 414.279564 74.675101 
L 414.334619 74.568698 
L 414.463079 73.317989 
L 414.518134 73.20993 
L 414.646594 71.942997 
L 414.701649 71.833144 
L 414.72 70.471092 
L 414.72 70.471092 
" clip-path="url(#pa400e32f7f)" style="fill: none; stroke: #1f77b4; stroke-width: 1.5; stroke-linecap: square"/>
   </g>
   <g id="line2d_12">
    <path d="M 57.6 118.332278 
L 61.325353 123.953085 
L 64.940596 129.010437 
L 68.427379 133.514292 
L 71.730647 137.428619 
L 74.850401 140.788171 
L 77.768288 143.61515 
L 77.970154 143.788172 
L 80.594417 146.002011 
L 83.09022 147.828707 
L 83.21868 147.89816 
L 83.714171 148.217302 
L 85.861295 149.445672 
L 87.879959 150.353073 
L 89.770162 150.962327 
L 91.531905 151.331345 
L 91.660366 151.315705 
L 91.898935 151.372805 
L 92.027396 151.352475 
L 92.265965 151.403571 
L 92.394425 151.378528 
L 92.632995 151.423433 
L 92.761455 151.393567 
L 93.000025 151.432223 
L 93.128485 151.397484 
L 93.367054 151.429668 
L 93.495515 151.389991 
L 93.734084 151.415756 
L 93.862545 151.37091 
L 94.101114 151.390067 
L 94.229575 151.340104 
L 94.413089 151.320193 
L 94.54155 151.304405 
L 96.119778 151.031329 
L 96.248238 150.951161 
L 96.376699 150.91336 
L 97.954927 150.365938 
L 98.083387 150.256017 
L 98.211848 150.194473 
L 99.790076 149.354859 
L 99.918536 149.213287 
L 99.973591 149.234093 
L 99.991942 149.16397 
L 101.625225 147.98419 
L 101.753686 147.810073 
L 101.80874 147.827205 
L 101.827091 147.746335 
L 103.478726 146.167795 
L 105.479038 144.00245 
L 105.607498 143.770503 
L 105.662553 143.783212 
L 105.680904 143.682198 
L 109.644826 139.030677 
L 109.699881 139.056293 
L 109.718232 138.959635 
L 110.562401 138.235681 
L 110.617455 138.269033 
L 110.635807 138.181712 
L 111.29646 137.773238 
L 111.351515 137.814117 
L 111.369866 137.736914 
L 112.03052 137.501103 
L 112.15898 137.475025 
L 112.76458 137.444117 
L 112.89304 137.457424 
L 113.498639 137.615126 
L 113.737209 137.762865 
L 113.810615 137.757064 
L 114.599729 138.292885 
L 114.911704 138.570602 
L 115.884333 139.646654 
L 116.673447 140.731041 
L 116.801908 140.90368 
L 123.298335 152.379656 
L 128.179831 161.10655 
L 132.217159 167.870559 
L 135.098343 172.393586 
L 138.346557 177.133452 
L 141.282795 181.033071 
L 144.017168 184.295767 
L 144.145628 184.425527 
L 144.824633 185.165103 
L 147.210327 187.553093 
L 149.522615 189.569439 
L 149.596021 189.605392 
L 151.908308 191.305707 
L 151.981714 191.328009 
L 154.294002 192.735844 
L 154.367408 192.745869 
L 156.698047 193.863409 
L 158.955281 194.695545 
L 161.084053 195.269433 
L 161.212514 195.254919 
L 161.451083 195.336047 
L 161.579544 195.31822 
L 161.818113 195.394876 
L 161.946573 195.373768 
L 162.185143 195.446047 
L 162.313603 195.421727 
L 162.552173 195.489713 
L 162.680633 195.46229 
L 162.919202 195.526217 
L 163.047663 195.495838 
L 163.286232 195.555929 
L 163.414693 195.522803 
L 163.653262 195.579384 
L 163.781723 195.543787 
L 164.020292 195.597219 
L 164.148752 195.559468 
L 164.332267 195.565596 
L 164.460728 195.569707 
L 168.002565 195.714567 
L 168.241135 195.787506 
L 168.369595 195.77053 
L 168.608164 195.852234 
L 168.736625 195.842791 
L 168.975194 195.934597 
L 169.103655 195.933749 
L 169.342224 196.036929 
L 169.470684 196.04572 
L 169.709254 196.161483 
L 169.727605 196.140047 
L 170.700234 196.601331 
L 171.672863 197.261104 
L 172.461977 197.958684 
L 172.773953 198.256285 
L 175.288107 201.33334 
L 177.490286 204.489707 
L 181.656074 210.222151 
L 184.280337 213.105074 
L 185.931971 214.428581 
L 187.326684 215.153494 
L 187.455145 215.166978 
L 187.712066 215.245509 
L 189.051725 215.298105 
L 190.079408 215.007916 
L 190.207868 214.880427 
L 190.262923 214.909215 
L 190.281274 214.847494 
L 191.565879 213.776695 
L 193.015646 211.909505 
L 193.144107 211.604837 
L 193.199161 211.612295 
L 193.327622 211.298392 
L 193.382676 211.304705 
L 193.511137 210.982176 
L 193.566191 210.987409 
L 193.694652 210.656816 
L 193.749706 210.661042 
L 193.878166 210.323035 
L 193.933221 210.326332 
L 194.061681 209.981663 
L 194.116736 209.984117 
L 194.245196 209.633654 
L 194.300251 209.635361 
L 194.428711 209.279952 
L 194.483766 209.280941 
L 194.612226 208.921562 
L 194.667281 208.922026 
L 194.795741 208.559556 
L 194.850795 208.559624 
L 194.979256 208.19516 
L 195.03431 208.194893 
L 195.162771 207.829595 
L 195.217825 207.829061 
L 195.346286 207.463976 
L 195.40134 207.463432 
L 195.529801 207.099652 
L 195.584855 207.0991 
L 195.713316 206.737944 
L 195.76837 206.737486 
L 195.89683 206.380025 
L 195.951885 206.37987 
L 196.080345 206.027083 
L 196.1354 206.027358 
L 196.26386 205.680522 
L 196.318915 205.681257 
L 196.447375 205.34132 
L 196.50243 205.342658 
L 196.63089 205.010518 
L 196.685945 205.01261 
L 196.814405 204.689207 
L 196.869459 204.692169 
L 196.99792 204.378172 
L 197.052974 204.382042 
L 197.181435 204.078154 
L 197.236489 204.082981 
L 197.36495 203.789711 
L 197.420004 203.795567 
L 197.548465 203.513301 
L 197.603519 203.520222 
L 197.731979 203.24917 
L 197.805385 203.150575 
L 198.466039 202.315681 
L 198.521094 202.327989 
L 198.539445 202.235372 
L 199.383614 201.397047 
L 199.438668 201.413693 
L 199.45702 201.334892 
L 200.484703 200.536363 
L 200.539757 200.55563 
L 200.558109 200.485101 
L 203.677862 198.097963 
L 205.311145 196.507073 
L 205.439605 196.288055 
L 205.49466 196.3001 
L 205.513011 196.204849 
L 207.34816 193.923519 
L 212.963716 186.563451 
L 213.018771 186.585216 
L 213.037122 186.486913 
L 214.064806 185.507912 
L 214.11986 185.534745 
L 214.138212 185.445029 
L 215.165895 184.654943 
L 215.22095 184.686347 
L 215.239301 184.604803 
L 216.266985 183.9771 
L 216.322039 184.01207 
L 216.340391 183.936964 
L 217.735104 183.25459 
L 217.790158 183.292189 
L 217.80851 183.221551 
L 221.460456 181.528379 
L 221.588917 181.385742 
L 221.643971 181.419835 
L 221.662323 181.341351 
L 223.295605 180.296728 
L 223.424066 180.12486 
L 223.47912 180.154238 
L 223.497472 180.066856 
L 225.020645 178.726771 
L 226.598874 177.124161 
L 226.727334 176.890081 
L 226.782388 176.908638 
L 226.80074 176.80276 
L 228.507429 174.60006 
L 230.893122 171.112431 
L 233.150356 167.876118 
L 233.223762 167.779079 
L 234.618475 166.078403 
L 234.691881 165.99637 
L 236.086594 164.565922 
L 236.16 164.496193 
L 238.288773 162.592887 
L 238.362179 162.528333 
L 240.986442 160.07988 
L 243.115215 157.83582 
L 243.243675 157.619419 
L 243.317081 157.533248 
L 245.574314 154.708389 
L 248.804177 150.333569 
L 248.932637 150.076582 
L 249.006043 149.973937 
L 251.318331 146.878427 
L 251.391737 146.787456 
L 252.602935 145.396242 
L 252.676341 145.31955 
L 253.704025 144.359071 
L 253.759079 144.375693 
L 253.777431 144.299171 
L 254.621599 143.704263 
L 254.676654 143.726519 
L 254.695005 143.660999 
L 255.539174 143.266308 
L 255.667634 143.223112 
L 256.456748 143.056621 
L 256.695318 143.07739 
L 256.823778 143.036471 
L 257.062347 143.077314 
L 257.190808 143.051716 
L 257.429377 143.11199 
L 257.557838 143.101209 
L 257.814758 143.155476 
L 258.842442 143.521813 
L 259.264526 143.753899 
L 259.392987 143.806052 
L 259.888477 144.107051 
L 261.228136 145.09522 
L 262.457686 146.166679 
L 265.026894 148.679248 
L 278.790512 162.536072 
L 284.05739 167.388589 
L 288.810425 171.47591 
L 289.250861 171.832873 
L 293.41665 175.098664 
L 297.142002 177.743501 
L 300.555379 179.904116 
L 300.68384 179.967142 
L 301.289439 180.327764 
L 301.417899 180.387569 
L 302.023498 180.736478 
L 302.151959 180.79291 
L 302.757558 181.129707 
L 302.886018 181.18265 
L 303.381509 181.436598 
L 306.134232 182.705182 
L 308.703441 183.651566 
L 311.199244 184.351875 
L 311.327704 184.354914 
L 311.584625 184.408458 
L 313.841858 184.757151 
L 316.044037 184.878929 
L 318.246216 184.780681 
L 320.448395 184.465526 
L 322.779034 183.907077 
L 325.219782 183.091608 
L 327.715585 182.076328 
L 327.844045 181.961523 
L 327.8991 181.988379 
L 327.917451 181.925877 
L 330.284793 180.706015 
L 330.413254 180.570208 
L 330.468308 180.595425 
L 330.48666 180.525375 
L 332.486972 179.237492 
L 332.615433 179.076601 
L 332.670487 179.099448 
L 332.688839 179.020574 
L 334.505636 177.552105 
L 334.634097 177.35916 
L 334.689151 177.378631 
L 334.707503 177.288691 
L 336.340785 175.632539 
L 336.469246 175.40075 
L 336.5243 175.415931 
L 336.542652 175.312755 
L 338.010771 173.378046 
L 339.460539 171.191051 
L 339.588999 170.868092 
L 339.644053 170.872952 
L 339.772514 170.543553 
L 339.827568 170.547688 
L 339.956029 170.211752 
L 340.011083 170.215154 
L 340.139544 169.872513 
L 340.194598 169.875175 
L 340.323059 169.525734 
L 340.378113 169.52761 
L 340.506573 169.171277 
L 340.561628 169.172355 
L 340.690088 168.809005 
L 340.745143 168.809276 
L 340.873603 168.438741 
L 340.928658 168.438193 
L 341.057118 168.060395 
L 341.112173 168.059017 
L 341.240633 167.673795 
L 341.295688 167.671577 
L 341.424148 167.278819 
L 341.479202 167.27575 
L 341.607663 166.875353 
L 341.662717 166.871373 
L 341.791178 166.463243 
L 341.846232 166.45839 
L 341.974693 166.042343 
L 342.029747 166.036607 
L 342.158208 165.612517 
L 342.213262 165.605888 
L 342.341723 165.173696 
L 342.396777 165.16611 
L 342.525237 164.72566 
L 342.580292 164.717105 
L 342.708752 164.268312 
L 342.763807 164.25884 
L 342.892267 163.801515 
L 342.947322 163.791123 
L 343.075782 163.325219 
L 343.130837 163.31377 
L 343.259297 162.839196 
L 343.314351 162.826821 
L 343.442812 162.343371 
L 343.497866 162.330001 
L 343.626327 161.837627 
L 343.681381 161.823265 
L 343.809842 161.321875 
L 343.864896 161.306446 
L 343.993357 160.795978 
L 344.048411 160.779571 
L 344.176872 160.259915 
L 344.231926 160.242369 
L 344.360386 159.713439 
L 344.415441 159.694854 
L 344.543901 159.156505 
L 344.598956 159.136903 
L 344.727416 158.58912 
L 344.782471 158.568431 
L 344.910931 158.011142 
L 344.965986 157.989396 
L 345.094446 157.422571 
L 345.149501 157.399695 
L 345.277961 156.823211 
L 345.333015 156.799272 
L 345.461476 156.213179 
L 345.51653 156.188133 
L 345.644991 155.592377 
L 345.700045 155.566248 
L 345.828506 154.960809 
L 345.88356 154.933603 
L 346.012021 154.318502 
L 346.067075 154.290205 
L 346.195535 153.665462 
L 346.25059 153.636093 
L 346.37905 153.001759 
L 346.434105 152.971318 
L 346.562565 152.327476 
L 346.61762 152.295969 
L 346.74608 151.64272 
L 346.801135 151.610161 
L 346.929595 150.94762 
L 346.98465 150.914037 
L 347.11311 150.242395 
L 347.168164 150.207805 
L 347.296625 149.527254 
L 347.351679 149.491663 
L 347.48014 148.80245 
L 347.535194 148.765898 
L 347.663655 148.068314 
L 347.718709 148.030856 
L 347.84717 147.325231 
L 347.902224 147.286913 
L 348.030684 146.573645 
L 348.085739 146.534499 
L 348.214199 145.814116 
L 348.269254 145.774187 
L 348.397714 145.047175 
L 348.452769 145.006522 
L 348.581229 144.273533 
L 348.636284 144.232269 
L 348.764744 143.493967 
L 348.819799 143.452194 
L 348.948259 142.709392 
L 349.003313 142.667152 
L 349.131774 141.920784 
L 349.186828 141.87817 
L 349.315289 141.129255 
L 349.370343 141.08643 
L 349.498804 140.336063 
L 349.553858 140.293169 
L 349.682319 139.542614 
L 349.737373 139.499761 
L 349.865834 138.750401 
L 349.920888 138.707775 
L 350.049348 137.961172 
L 350.104403 137.918985 
L 350.232863 137.176756 
L 350.287918 137.135114 
L 350.416378 136.399024 
L 350.471433 136.358182 
L 350.599893 135.630304 
L 350.654948 135.590467 
L 350.783408 134.872723 
L 350.838462 134.834115 
L 350.966923 134.128685 
L 351.021977 134.091628 
L 351.150438 133.400703 
L 351.205492 133.365357 
L 351.333953 132.691366 
L 351.389007 132.658084 
L 351.517468 132.003297 
L 351.572522 131.972237 
L 351.700983 131.339096 
L 351.756037 131.310619 
L 351.884497 130.701269 
L 351.939552 130.675518 
L 352.068012 130.092304 
L 352.123067 130.069566 
L 352.251527 129.514494 
L 352.306582 129.494986 
L 352.435042 128.969913 
L 352.490097 128.953823 
L 352.618557 128.460362 
L 352.673612 128.447869 
L 352.802072 127.987358 
L 352.857126 127.978557 
L 352.985587 127.552005 
L 353.040641 127.547002 
L 353.169102 127.155051 
L 353.224156 127.153905 
L 353.352617 126.796827 
L 353.407671 126.799527 
L 353.536132 126.47724 
L 353.591186 126.483775 
L 353.719646 126.195847 
L 353.774701 126.206119 
L 353.903161 125.951734 
L 353.958216 125.965668 
L 353.976567 125.864376 
L 354.453706 125.429867 
L 354.508761 125.453768 
L 354.527112 125.382505 
L 355.004251 125.185638 
L 355.132711 125.162633 
L 355.73831 125.193847 
L 356.050286 125.283647 
L 356.8394 125.664759 
L 357.628514 126.193357 
L 357.83038 126.329591 
L 360.693213 128.558364 
L 361.867708 129.466808 
L 365.538006 132.131061 
L 368.712814 134.17563 
L 371.593998 135.776559 
L 374.163207 136.959831 
L 376.530549 137.831194 
L 376.659009 137.84864 
L 376.970985 137.939447 
L 379.099757 138.451918 
L 379.228218 138.447515 
L 379.485139 138.487645 
L 381.485451 138.695009 
L 381.613912 138.666765 
L 381.852481 138.700496 
L 381.980941 138.668262 
L 382.219511 138.696888 
L 382.347971 138.660501 
L 382.586541 138.683961 
L 382.715001 138.643374 
L 382.95357 138.661469 
L 383.082031 138.616623 
L 383.3206 138.629266 
L 383.449061 138.579963 
L 383.68763 138.587051 
L 383.81609 138.533207 
L 384.05466 138.53456 
L 384.18312 138.476077 
L 384.311581 138.453511 
L 385.963215 138.043786 
L 387.559794 137.418683 
L 389.193077 136.574545 
L 389.321538 136.437925 
L 389.376592 136.456738 
L 389.394943 136.389752 
L 390.918117 135.255439 
L 392.496345 133.85018 
L 392.624806 133.647519 
L 392.698212 133.569714 
L 394.221385 131.785936 
L 395.799614 129.655174 
L 395.928074 129.370968 
L 395.983128 129.372401 
L 396.111589 129.083138 
L 396.166643 129.083975 
L 396.295104 128.789594 
L 396.350158 128.789835 
L 396.478619 128.490275 
L 396.533673 128.48992 
L 396.662134 128.185107 
L 396.717188 128.18414 
L 396.845649 127.874019 
L 396.900703 127.872441 
L 397.029163 127.556962 
L 397.084218 127.554756 
L 397.212678 127.233838 
L 397.267733 127.231022 
L 397.396193 126.904607 
L 397.451248 126.901146 
L 397.579708 126.569158 
L 397.634763 126.565054 
L 397.763223 126.227465 
L 397.818277 126.222698 
L 397.946738 125.879408 
L 398.001792 125.874001 
L 398.130253 125.524953 
L 398.185307 125.518866 
L 398.313768 125.163989 
L 398.368822 125.157248 
L 398.497283 124.796479 
L 398.552337 124.789043 
L 398.680798 124.422304 
L 398.735852 124.414178 
L 398.864312 124.041421 
L 398.919367 124.032608 
L 399.047827 123.653748 
L 399.102882 123.644208 
L 399.231342 123.259167 
L 399.286397 123.248956 
L 399.414857 122.857638 
L 399.469912 122.846715 
L 399.598372 122.449087 
L 399.653427 122.437408 
L 399.781887 122.033395 
L 399.836941 122.020998 
L 399.965402 121.610507 
L 400.020456 121.597347 
L 400.148917 121.180325 
L 400.203971 121.166416 
L 400.332432 120.742762 
L 400.387486 120.728121 
L 400.515947 120.297744 
L 400.571001 120.282327 
L 400.699461 119.84518 
L 400.754516 119.829008 
L 400.882976 119.384993 
L 400.938031 119.36802 
L 401.066491 118.917087 
L 401.121546 118.899301 
L 401.250006 118.441341 
L 401.305061 118.422772 
L 401.433521 117.95773 
L 401.488576 117.938331 
L 401.617036 117.466084 
L 401.67209 117.445892 
L 401.800551 116.966375 
L 401.855605 116.945343 
L 401.984066 116.458463 
L 402.03912 116.436591 
L 402.167581 115.94232 
L 402.222635 115.919561 
L 402.351096 115.417744 
L 402.40615 115.394149 
L 402.53461 114.884749 
L 402.589665 114.860274 
L 402.718125 114.343167 
L 402.77318 114.317821 
L 402.90164 113.792895 
L 402.956695 113.766694 
L 403.085155 113.233917 
L 403.14021 113.206758 
L 403.26867 112.665994 
L 403.323725 112.638023 
L 403.452185 112.089157 
L 403.507239 112.060205 
L 403.6357 111.50327 
L 403.690754 111.473363 
L 403.819215 110.908139 
L 403.874269 110.87731 
L 404.00273 110.303733 
L 404.057784 110.272029 
L 404.186245 109.68998 
L 404.241299 109.657288 
L 404.36976 109.066657 
L 404.424814 109.03303 
L 404.553274 108.433824 
L 404.608329 108.39914 
L 404.736789 107.791203 
L 404.791844 107.755525 
L 404.920304 107.13871 
L 404.975359 107.102119 
L 405.103819 106.476293 
L 405.158874 106.438662 
L 405.287334 105.803886 
L 405.342388 105.765229 
L 405.470849 105.121268 
L 405.525903 105.081569 
L 405.654364 104.428344 
L 405.709418 104.387604 
L 405.837879 103.725017 
L 405.892933 103.683212 
L 406.021394 103.011165 
L 406.076448 102.968291 
L 406.204909 102.286649 
L 406.259963 102.242707 
L 406.388423 101.551373 
L 406.443478 101.506318 
L 406.571938 100.805187 
L 406.626993 100.759047 
L 406.755453 100.047981 
L 406.810508 100.000717 
L 406.938968 99.279636 
L 406.994023 99.231247 
L 407.122483 98.499992 
L 407.177538 98.450464 
L 407.305998 97.708975 
L 407.361052 97.658272 
L 407.489513 96.906395 
L 407.544567 96.854532 
L 407.673028 96.092147 
L 407.728082 96.039122 
L 407.856543 95.26612 
L 407.911597 95.211875 
L 408.040058 94.428127 
L 408.095112 94.372696 
L 408.223572 93.578081 
L 408.278627 93.521441 
L 408.407087 92.715804 
L 408.462142 92.657932 
L 408.590602 91.841187 
L 408.645657 91.782062 
L 408.774117 90.954089 
L 408.829172 90.89369 
L 408.957632 90.054313 
L 409.012687 89.992665 
L 409.141147 89.141787 
L 409.196201 89.078876 
L 409.324662 88.216335 
L 409.379716 88.152091 
L 409.508177 87.277809 
L 409.563231 87.212269 
L 409.691692 86.326095 
L 409.746746 86.259177 
L 409.875207 85.360984 
L 409.930261 85.29273 
L 410.058721 84.382356 
L 410.113776 84.312746 
L 410.242236 83.390052 
L 410.297291 83.319059 
L 410.425751 82.383852 
L 410.480806 82.311536 
L 410.609266 81.363746 
L 410.664321 81.289978 
L 410.792781 80.32937 
L 410.847836 80.254205 
L 410.976296 79.280801 
L 411.03135 79.204175 
L 411.159811 78.217714 
L 411.214865 78.139631 
L 411.343326 77.139986 
L 411.39838 77.060448 
L 411.526841 76.047445 
L 411.581895 75.96643 
L 411.710356 74.939945 
L 411.76541 74.857414 
L 411.893871 73.817288 
L 411.948925 73.73324 
L 412.077385 72.679328 
L 412.13244 72.593748 
L 412.2609 71.525866 
L 412.315955 71.438743 
L 412.444415 70.356728 
L 412.49947 70.268058 
L 412.62793 69.171767 
L 412.682985 69.081494 
L 412.811445 67.970756 
L 412.866499 67.878913 
L 412.99496 66.753573 
L 413.050014 66.660068 
L 413.178475 65.520001 
L 413.233529 65.424844 
L 413.36199 64.269817 
L 413.417044 64.173038 
L 413.545505 63.002928 
L 413.600559 62.904426 
L 413.72902 61.719016 
L 413.784074 61.618902 
L 413.912534 60.418003 
L 413.967589 60.316188 
L 414.096049 59.099678 
L 414.151104 58.996058 
L 414.279564 57.763793 
L 414.334619 57.658418 
L 414.463079 56.410106 
L 414.518134 56.303074 
L 414.646594 55.038536 
L 414.701649 54.92971 
L 414.72 53.568 
L 414.72 53.568 
" clip-path="url(#pa400e32f7f)" style="fill: none; stroke-dasharray: 5.55,2.4; stroke-dashoffset: 0; stroke: #ff7f0e; stroke-width: 1.5"/>
   </g>
   <g id="line2d_13">
    <path d="M 57.6 242.099217 
L 104.946845 244.032763 
L 151.669739 245.713381 
L 202.448312 247.313509 
L 258.842442 248.863702 
L 322.412004 250.384207 
L 394.515009 251.88167 
L 414.72 252.265462 
L 414.72 252.265462 
" clip-path="url(#pa400e32f7f)" style="fill: none; stroke: #ff0000; stroke-width: 1.5; stroke-linecap: square"/>
   </g>
   <g id="line2d_14">
    <path d="M -1 295.488 
L 461.8 295.488 
" clip-path="url(#pa400e32f7f)" style="fill: none; stroke-dasharray: 5.55,2.4; stroke-dashoffset: 0; stroke: #2ca02c; stroke-width: 1.5"/>
   </g>
   <g id="line2d_15">
    <path d="M -1 242.849106 
L 461.8 242.849106 
" clip-path="url(#pa400e32f7f)" style="fill: none; stroke-dasharray: 5.55,2.4; stroke-dashoffset: 0; stroke: #d62728; stroke-width: 1.5"/>
   </g>
   <g id="patch_3">
    <path d="M 57.6 307.584 
L 57.6 41.472 
" style="fill: none; stroke: #000000; stroke-width: 0.8; stroke-linejoin: miter; stroke-linecap: square"/>
   </g>
   <g id="patch_4">
    <path d="M 414.72 307.584 
L 414.72 41.472 
" style="fill: none; stroke: #000000; stroke-width: 0.8; stroke-linejoin: miter; stroke-linecap: square"/>
   </g>
   <g id="patch_5">
    <path d="M 57.6 307.584 
L 414.72 307.584 
" style="fill: none; stroke: #000000; stroke-width: 0.8; stroke-linejoin: miter; stroke-linecap: square"/>
   </g>
   <g id="patch_6">
    <path d="M 57.6 41.472 
L 414.72 41.472 
" style="fill: none; stroke: #000000; stroke-width: 0.8; stroke-linejoin: miter; stroke-linecap: square"/>
   </g>
   <g id="legend_1">
    <g id="patch_7">
     <path d="M 64.6 93.506375 
L 153.473437 93.506375 
Q 155.473437 93.506375 155.473437 91.506375 
L 155.473437 48.472 
Q 155.473437 46.472 153.473437 46.472 
L 64.6 46.472 
Q 62.6 46.472 62.6 48.472 
L 62.6 91.506375 
Q 62.6 93.506375 64.6 93.506375 
z
" style="fill: #ffffff; opacity: 0.8; stroke: #cccccc; stroke-linejoin: miter"/>
    </g>
    <g id="line2d_16">
     <path d="M 66.6 54.570438 
L 76.6 54.570438 
L 86.6 54.570438 
" style="fill: none; stroke: #1f77b4; stroke-width: 1.5; stroke-linecap: square"/>
    </g>
    <g id="text_13">
     <!-- Py2 1.0mm -->
     <g transform="translate(94.6 58.070438)scale(0.1 -0.1)">
      <defs>
       <path id="DejaVuSans-2e" d="M 684 794 
L 1344 794 
L 1344 0 
L 684 0 
L 684 794 
z
" transform="scale(0.015625)"/>
      </defs>
      <use xlink:href="#DejaVuSans-50"/>
      <use xlink:href="#DejaVuSans-79" x="60.302734"/>
      <use xlink:href="#DejaVuSans-32" x="119.482422"/>
      <use xlink:href="#DejaVuSans-20" x="183.105469"/>
      <use xlink:href="#DejaVuSans-31" x="214.892578"/>
      <use xlink:href="#DejaVuSans-2e" x="278.515625"/>
      <use xlink:href="#DejaVuSans-30" x="310.302734"/>
      <use xlink:href="#DejaVuSans-6d" x="373.925781"/>
      <use xlink:href="#DejaVuSans-6d" x="471.337891"/>
     </g>
    </g>
    <g id="line2d_17">
     <path d="M 66.6 69.248563 
L 76.6 69.248563 
L 86.6 69.248563 
" style="fill: none; stroke-dasharray: 5.55,2.4; stroke-dashoffset: 0; stroke: #ff7f0e; stroke-width: 1.5"/>
    </g>
    <g id="text_14">
     <!-- Py1 1.0mm -->
     <g transform="translate(94.6 72.748563)scale(0.1 -0.1)">
      <use xlink:href="#DejaVuSans-50"/>
      <use xlink:href="#DejaVuSans-79" x="60.302734"/>
      <use xlink:href="#DejaVuSans-31" x="119.482422"/>
      <use xlink:href="#DejaVuSans-20" x="183.105469"/>
      <use xlink:href="#DejaVuSans-31" x="214.892578"/>
      <use xlink:href="#DejaVuSans-2e" x="278.515625"/>
      <use xlink:href="#DejaVuSans-30" x="310.302734"/>
      <use xlink:href="#DejaVuSans-6d" x="373.925781"/>
      <use xlink:href="#DejaVuSans-6d" x="471.337891"/>
     </g>
    </g>
    <g id="line2d_18">
     <path d="M 66.6 83.926688 
L 76.6 83.926688 
L 86.6 83.926688 
" style="fill: none; stroke: #ff0000; stroke-width: 1.5; stroke-linecap: square"/>
    </g>
    <g id="text_15">
     <!-- Bi -->
     <g transform="translate(94.6 87.426688)scale(0.1 -0.1)">
      <defs>
       <path id="DejaVuSans-42" d="M 1259 2228 
L 1259 519 
L 2272 519 
Q 2781 519 3026 730 
Q 3272 941 3272 1375 
Q 3272 1813 3026 2020 
Q 2781 2228 2272 2228 
L 1259 2228 
z
M 1259 4147 
L 1259 2741 
L 2194 2741 
Q 2656 2741 2882 2914 
Q 3109 3088 3109 3444 
Q 3109 3797 2882 3972 
Q 2656 4147 2194 4147 
L 1259 4147 
z
M 628 4666 
L 2241 4666 
Q 2963 4666 3353 4366 
Q 3744 4066 3744 3513 
Q 3744 3084 3544 2831 
Q 3344 2578 2956 2516 
Q 3422 2416 3680 2098 
Q 3938 1781 3938 1306 
Q 3938 681 3513 340 
Q 3088 0 2303 0 
L 628 0 
L 628 4666 
z
" transform="scale(0.015625)"/>
      </defs>
      <use xlink:href="#DejaVuSans-42"/>
      <use xlink:href="#DejaVuSans-69" x="68.603516"/>
     </g>
    </g>
   </g>
  </g>
 </g>
 <defs>
  <clipPath id="pa400e32f7f">
   <rect x="57.6" y="41.472" width="357.12" height="266.112"/>
  </clipPath>
 </defs>
</svg>
