<?xml version="1.0" encoding="utf-8" standalone="no"?>
<!DOCTYPE svg PUBLIC "-//W3C//DTD SVG 1.1//EN"
  "http://www.w3.org/Graphics/SVG/1.1/DTD/svg11.dtd">
<svg xmlns:xlink="http://www.w3.org/1999/xlink" width="460.8pt" height="345.6pt" viewBox="0 0 460.8 345.6" xmlns="http://www.w3.org/2000/svg" version="1.1">
 <metadata>
  <rdf:RDF xmlns:dc="http://purl.org/dc/elements/1.1/" xmlns:cc="http://creativecommons.org/ns#" xmlns:rdf="http://www.w3.org/1999/02/22-rdf-syntax-ns#">
   <cc:Work>
    <dc:type rdf:resource="http://purl.org/dc/dcmitype/StillImage"/>
    <dc:date>2022-04-26T11:39:58.812327</dc:date>
    <dc:format>image/svg+xml</dc:format>
    <dc:creator>
     <cc:Agent>
      <dc:title>Matplotlib v3.5.1, https://matplotlib.org/</dc:title>
     </cc:Agent>
    </dc:creator>
   </cc:Work>
  </rdf:RDF>
 </metadata>
 <defs>
  <style type="text/css">*{stroke-linejoin: round; stroke-linecap: butt}</style>
 </defs>
 <g id="figure_1">
  <g id="patch_1">
   <path d="M 0 345.6 
L 460.8 345.6 
L 460.8 0 
L 0 0 
z
" style="fill: #ffffff"/>
  </g>
  <g id="axes_1">
   <g id="patch_2">
    <path d="M 57.6 307.584 
L 414.72 307.584 
L 414.72 41.472 
L 57.6 41.472 
z
" style="fill: #ffffff"/>
   </g>
   <g id="matplotlib.axis_1">
    <g id="xtick_1">
     <g id="line2d_1">
      <defs>
       <path id="meec7552ae3" d="M 0 0 
L 0 3.5 
" style="stroke: #000000; stroke-width: 0.8"/>
      </defs>
      <g>
       <use xlink:href="#meec7552ae3" x="102.95424" y="307.584" style="stroke: #000000; stroke-width: 0.8"/>
      </g>
     </g>
     <g id="text_1">
      <!-- 400 -->
      <g transform="translate(93.41049 322.182437)scale(0.1 -0.1)">
       <defs>
        <path id="DejaVuSans-34" d="M 2419 4116 
L 825 1625 
L 2419 1625 
L 2419 4116 
z
M 2253 4666 
L 3047 4666 
L 3047 1625 
L 3713 1625 
L 3713 1100 
L 3047 1100 
L 3047 0 
L 2419 0 
L 2419 1100 
L 313 1100 
L 313 1709 
L 2253 4666 
z
" transform="scale(0.015625)"/>
        <path id="DejaVuSans-30" d="M 2034 4250 
Q 1547 4250 1301 3770 
Q 1056 3291 1056 2328 
Q 1056 1369 1301 889 
Q 1547 409 2034 409 
Q 2525 409 2770 889 
Q 3016 1369 3016 2328 
Q 3016 3291 2770 3770 
Q 2525 4250 2034 4250 
z
M 2034 4750 
Q 2819 4750 3233 4129 
Q 3647 3509 3647 2328 
Q 3647 1150 3233 529 
Q 2819 -91 2034 -91 
Q 1250 -91 836 529 
Q 422 1150 422 2328 
Q 422 3509 836 4129 
Q 1250 4750 2034 4750 
z
" transform="scale(0.015625)"/>
       </defs>
       <use xlink:href="#DejaVuSans-34"/>
       <use xlink:href="#DejaVuSans-30" x="63.623047"/>
       <use xlink:href="#DejaVuSans-30" x="127.246094"/>
      </g>
     </g>
    </g>
    <g id="xtick_2">
     <g id="line2d_2">
      <g>
       <use xlink:href="#meec7552ae3" x="174.37824" y="307.584" style="stroke: #000000; stroke-width: 0.8"/>
      </g>
     </g>
     <g id="text_2">
      <!-- 600 -->
      <g transform="translate(164.83449 322.182437)scale(0.1 -0.1)">
       <defs>
        <path id="DejaVuSans-36" d="M 2113 2584 
Q 1688 2584 1439 2293 
Q 1191 2003 1191 1497 
Q 1191 994 1439 701 
Q 1688 409 2113 409 
Q 2538 409 2786 701 
Q 3034 994 3034 1497 
Q 3034 2003 2786 2293 
Q 2538 2584 2113 2584 
z
M 3366 4563 
L 3366 3988 
Q 3128 4100 2886 4159 
Q 2644 4219 2406 4219 
Q 1781 4219 1451 3797 
Q 1122 3375 1075 2522 
Q 1259 2794 1537 2939 
Q 1816 3084 2150 3084 
Q 2853 3084 3261 2657 
Q 3669 2231 3669 1497 
Q 3669 778 3244 343 
Q 2819 -91 2113 -91 
Q 1303 -91 875 529 
Q 447 1150 447 2328 
Q 447 3434 972 4092 
Q 1497 4750 2381 4750 
Q 2619 4750 2861 4703 
Q 3103 4656 3366 4563 
z
" transform="scale(0.015625)"/>
       </defs>
       <use xlink:href="#DejaVuSans-36"/>
       <use xlink:href="#DejaVuSans-30" x="63.623047"/>
       <use xlink:href="#DejaVuSans-30" x="127.246094"/>
      </g>
     </g>
    </g>
    <g id="xtick_3">
     <g id="line2d_3">
      <g>
       <use xlink:href="#meec7552ae3" x="245.80224" y="307.584" style="stroke: #000000; stroke-width: 0.8"/>
      </g>
     </g>
     <g id="text_3">
      <!-- 800 -->
      <g transform="translate(236.25849 322.182437)scale(0.1 -0.1)">
       <defs>
        <path id="DejaVuSans-38" d="M 2034 2216 
Q 1584 2216 1326 1975 
Q 1069 1734 1069 1313 
Q 1069 891 1326 650 
Q 1584 409 2034 409 
Q 2484 409 2743 651 
Q 3003 894 3003 1313 
Q 3003 1734 2745 1975 
Q 2488 2216 2034 2216 
z
M 1403 2484 
Q 997 2584 770 2862 
Q 544 3141 544 3541 
Q 544 4100 942 4425 
Q 1341 4750 2034 4750 
Q 2731 4750 3128 4425 
Q 3525 4100 3525 3541 
Q 3525 3141 3298 2862 
Q 3072 2584 2669 2484 
Q 3125 2378 3379 2068 
Q 3634 1759 3634 1313 
Q 3634 634 3220 271 
Q 2806 -91 2034 -91 
Q 1263 -91 848 271 
Q 434 634 434 1313 
Q 434 1759 690 2068 
Q 947 2378 1403 2484 
z
M 1172 3481 
Q 1172 3119 1398 2916 
Q 1625 2713 2034 2713 
Q 2441 2713 2670 2916 
Q 2900 3119 2900 3481 
Q 2900 3844 2670 4047 
Q 2441 4250 2034 4250 
Q 1625 4250 1398 4047 
Q 1172 3844 1172 3481 
z
" transform="scale(0.015625)"/>
       </defs>
       <use xlink:href="#DejaVuSans-38"/>
       <use xlink:href="#DejaVuSans-30" x="63.623047"/>
       <use xlink:href="#DejaVuSans-30" x="127.246094"/>
      </g>
     </g>
    </g>
    <g id="xtick_4">
     <g id="line2d_4">
      <g>
       <use xlink:href="#meec7552ae3" x="317.22624" y="307.584" style="stroke: #000000; stroke-width: 0.8"/>
      </g>
     </g>
     <g id="text_4">
      <!-- 1000 -->
      <g transform="translate(304.50124 322.182437)scale(0.1 -0.1)">
       <defs>
        <path id="DejaVuSans-31" d="M 794 531 
L 1825 531 
L 1825 4091 
L 703 3866 
L 703 4441 
L 1819 4666 
L 2450 4666 
L 2450 531 
L 3481 531 
L 3481 0 
L 794 0 
L 794 531 
z
" transform="scale(0.015625)"/>
       </defs>
       <use xlink:href="#DejaVuSans-31"/>
       <use xlink:href="#DejaVuSans-30" x="63.623047"/>
       <use xlink:href="#DejaVuSans-30" x="127.246094"/>
       <use xlink:href="#DejaVuSans-30" x="190.869141"/>
      </g>
     </g>
    </g>
    <g id="xtick_5">
     <g id="line2d_5">
      <g>
       <use xlink:href="#meec7552ae3" x="388.65024" y="307.584" style="stroke: #000000; stroke-width: 0.8"/>
      </g>
     </g>
     <g id="text_5">
      <!-- 1200 -->
      <g transform="translate(375.92524 322.182437)scale(0.1 -0.1)">
       <defs>
        <path id="DejaVuSans-32" d="M 1228 531 
L 3431 531 
L 3431 0 
L 469 0 
L 469 531 
Q 828 903 1448 1529 
Q 2069 2156 2228 2338 
Q 2531 2678 2651 2914 
Q 2772 3150 2772 3378 
Q 2772 3750 2511 3984 
Q 2250 4219 1831 4219 
Q 1534 4219 1204 4116 
Q 875 4013 500 3803 
L 500 4441 
Q 881 4594 1212 4672 
Q 1544 4750 1819 4750 
Q 2544 4750 2975 4387 
Q 3406 4025 3406 3419 
Q 3406 3131 3298 2873 
Q 3191 2616 2906 2266 
Q 2828 2175 2409 1742 
Q 1991 1309 1228 531 
z
" transform="scale(0.015625)"/>
       </defs>
       <use xlink:href="#DejaVuSans-31"/>
       <use xlink:href="#DejaVuSans-32" x="63.623047"/>
       <use xlink:href="#DejaVuSans-30" x="127.246094"/>
       <use xlink:href="#DejaVuSans-30" x="190.869141"/>
      </g>
     </g>
    </g>
    <g id="text_6">
     <!-- Temperature (K) -->
     <g transform="translate(195.720937 335.860562)scale(0.1 -0.1)">
      <defs>
       <path id="DejaVuSans-54" d="M -19 4666 
L 3928 4666 
L 3928 4134 
L 2272 4134 
L 2272 0 
L 1638 0 
L 1638 4134 
L -19 4134 
L -19 4666 
z
" transform="scale(0.015625)"/>
       <path id="DejaVuSans-65" d="M 3597 1894 
L 3597 1613 
L 953 1613 
Q 991 1019 1311 708 
Q 1631 397 2203 397 
Q 2534 397 2845 478 
Q 3156 559 3463 722 
L 3463 178 
Q 3153 47 2828 -22 
Q 2503 -91 2169 -91 
Q 1331 -91 842 396 
Q 353 884 353 1716 
Q 353 2575 817 3079 
Q 1281 3584 2069 3584 
Q 2775 3584 3186 3129 
Q 3597 2675 3597 1894 
z
M 3022 2063 
Q 3016 2534 2758 2815 
Q 2500 3097 2075 3097 
Q 1594 3097 1305 2825 
Q 1016 2553 972 2059 
L 3022 2063 
z
" transform="scale(0.015625)"/>
       <path id="DejaVuSans-6d" d="M 3328 2828 
Q 3544 3216 3844 3400 
Q 4144 3584 4550 3584 
Q 5097 3584 5394 3201 
Q 5691 2819 5691 2113 
L 5691 0 
L 5113 0 
L 5113 2094 
Q 5113 2597 4934 2840 
Q 4756 3084 4391 3084 
Q 3944 3084 3684 2787 
Q 3425 2491 3425 1978 
L 3425 0 
L 2847 0 
L 2847 2094 
Q 2847 2600 2669 2842 
Q 2491 3084 2119 3084 
Q 1678 3084 1418 2786 
Q 1159 2488 1159 1978 
L 1159 0 
L 581 0 
L 581 3500 
L 1159 3500 
L 1159 2956 
Q 1356 3278 1631 3431 
Q 1906 3584 2284 3584 
Q 2666 3584 2933 3390 
Q 3200 3197 3328 2828 
z
" transform="scale(0.015625)"/>
       <path id="DejaVuSans-70" d="M 1159 525 
L 1159 -1331 
L 581 -1331 
L 581 3500 
L 1159 3500 
L 1159 2969 
Q 1341 3281 1617 3432 
Q 1894 3584 2278 3584 
Q 2916 3584 3314 3078 
Q 3713 2572 3713 1747 
Q 3713 922 3314 415 
Q 2916 -91 2278 -91 
Q 1894 -91 1617 61 
Q 1341 213 1159 525 
z
M 3116 1747 
Q 3116 2381 2855 2742 
Q 2594 3103 2138 3103 
Q 1681 3103 1420 2742 
Q 1159 2381 1159 1747 
Q 1159 1113 1420 752 
Q 1681 391 2138 391 
Q 2594 391 2855 752 
Q 3116 1113 3116 1747 
z
" transform="scale(0.015625)"/>
       <path id="DejaVuSans-72" d="M 2631 2963 
Q 2534 3019 2420 3045 
Q 2306 3072 2169 3072 
Q 1681 3072 1420 2755 
Q 1159 2438 1159 1844 
L 1159 0 
L 581 0 
L 581 3500 
L 1159 3500 
L 1159 2956 
Q 1341 3275 1631 3429 
Q 1922 3584 2338 3584 
Q 2397 3584 2469 3576 
Q 2541 3569 2628 3553 
L 2631 2963 
z
" transform="scale(0.015625)"/>
       <path id="DejaVuSans-61" d="M 2194 1759 
Q 1497 1759 1228 1600 
Q 959 1441 959 1056 
Q 959 750 1161 570 
Q 1363 391 1709 391 
Q 2188 391 2477 730 
Q 2766 1069 2766 1631 
L 2766 1759 
L 2194 1759 
z
M 3341 1997 
L 3341 0 
L 2766 0 
L 2766 531 
Q 2569 213 2275 61 
Q 1981 -91 1556 -91 
Q 1019 -91 701 211 
Q 384 513 384 1019 
Q 384 1609 779 1909 
Q 1175 2209 1959 2209 
L 2766 2209 
L 2766 2266 
Q 2766 2663 2505 2880 
Q 2244 3097 1772 3097 
Q 1472 3097 1187 3025 
Q 903 2953 641 2809 
L 641 3341 
Q 956 3463 1253 3523 
Q 1550 3584 1831 3584 
Q 2591 3584 2966 3190 
Q 3341 2797 3341 1997 
z
" transform="scale(0.015625)"/>
       <path id="DejaVuSans-74" d="M 1172 4494 
L 1172 3500 
L 2356 3500 
L 2356 3053 
L 1172 3053 
L 1172 1153 
Q 1172 725 1289 603 
Q 1406 481 1766 481 
L 2356 481 
L 2356 0 
L 1766 0 
Q 1100 0 847 248 
Q 594 497 594 1153 
L 594 3053 
L 172 3053 
L 172 3500 
L 594 3500 
L 594 4494 
L 1172 4494 
z
" transform="scale(0.015625)"/>
       <path id="DejaVuSans-75" d="M 544 1381 
L 544 3500 
L 1119 3500 
L 1119 1403 
Q 1119 906 1312 657 
Q 1506 409 1894 409 
Q 2359 409 2629 706 
Q 2900 1003 2900 1516 
L 2900 3500 
L 3475 3500 
L 3475 0 
L 2900 0 
L 2900 538 
Q 2691 219 2414 64 
Q 2138 -91 1772 -91 
Q 1169 -91 856 284 
Q 544 659 544 1381 
z
M 1991 3584 
L 1991 3584 
z
" transform="scale(0.015625)"/>
       <path id="DejaVuSans-20" transform="scale(0.015625)"/>
       <path id="DejaVuSans-28" d="M 1984 4856 
Q 1566 4138 1362 3434 
Q 1159 2731 1159 2009 
Q 1159 1288 1364 580 
Q 1569 -128 1984 -844 
L 1484 -844 
Q 1016 -109 783 600 
Q 550 1309 550 2009 
Q 550 2706 781 3412 
Q 1013 4119 1484 4856 
L 1984 4856 
z
" transform="scale(0.015625)"/>
       <path id="DejaVuSans-4b" d="M 628 4666 
L 1259 4666 
L 1259 2694 
L 3353 4666 
L 4166 4666 
L 1850 2491 
L 4331 0 
L 3500 0 
L 1259 2247 
L 1259 0 
L 628 0 
L 628 4666 
z
" transform="scale(0.015625)"/>
       <path id="DejaVuSans-29" d="M 513 4856 
L 1013 4856 
Q 1481 4119 1714 3412 
Q 1947 2706 1947 2009 
Q 1947 1309 1714 600 
Q 1481 -109 1013 -844 
L 513 -844 
Q 928 -128 1133 580 
Q 1338 1288 1338 2009 
Q 1338 2731 1133 3434 
Q 928 4138 513 4856 
z
" transform="scale(0.015625)"/>
      </defs>
      <use xlink:href="#DejaVuSans-54"/>
      <use xlink:href="#DejaVuSans-65" x="44.083984"/>
      <use xlink:href="#DejaVuSans-6d" x="105.607422"/>
      <use xlink:href="#DejaVuSans-70" x="203.019531"/>
      <use xlink:href="#DejaVuSans-65" x="266.496094"/>
      <use xlink:href="#DejaVuSans-72" x="328.019531"/>
      <use xlink:href="#DejaVuSans-61" x="369.132812"/>
      <use xlink:href="#DejaVuSans-74" x="430.412109"/>
      <use xlink:href="#DejaVuSans-75" x="469.621094"/>
      <use xlink:href="#DejaVuSans-72" x="533"/>
      <use xlink:href="#DejaVuSans-65" x="571.863281"/>
      <use xlink:href="#DejaVuSans-20" x="633.386719"/>
      <use xlink:href="#DejaVuSans-28" x="665.173828"/>
      <use xlink:href="#DejaVuSans-4b" x="704.1875"/>
      <use xlink:href="#DejaVuSans-29" x="769.763672"/>
     </g>
    </g>
   </g>
   <g id="matplotlib.axis_2">
    <g id="ytick_1">
     <g id="line2d_6">
      <defs>
       <path id="m1fdd4ab096" d="M 0 0 
L -3.5 0 
" style="stroke: #000000; stroke-width: 0.8"/>
      </defs>
      <g>
       <use xlink:href="#m1fdd4ab096" x="57.6" y="274.256824" style="stroke: #000000; stroke-width: 0.8"/>
      </g>
     </g>
     <g id="text_7">
      <!-- $\mathdefault{10^{0}}$ -->
      <g transform="translate(33 278.056043)scale(0.1 -0.1)">
       <use xlink:href="#DejaVuSans-31" transform="translate(0 0.765625)"/>
       <use xlink:href="#DejaVuSans-30" transform="translate(63.623047 0.765625)"/>
       <use xlink:href="#DejaVuSans-30" transform="translate(128.203125 39.046875)scale(0.7)"/>
      </g>
     </g>
    </g>
    <g id="ytick_2">
     <g id="line2d_7">
      <g>
       <use xlink:href="#m1fdd4ab096" x="57.6" y="231.794472" style="stroke: #000000; stroke-width: 0.8"/>
      </g>
     </g>
     <g id="text_8">
      <!-- $\mathdefault{10^{2}}$ -->
      <g transform="translate(33 235.59369)scale(0.1 -0.1)">
       <use xlink:href="#DejaVuSans-31" transform="translate(0 0.765625)"/>
       <use xlink:href="#DejaVuSans-30" transform="translate(63.623047 0.765625)"/>
       <use xlink:href="#DejaVuSans-32" transform="translate(128.203125 39.046875)scale(0.7)"/>
      </g>
     </g>
    </g>
    <g id="ytick_3">
     <g id="line2d_8">
      <g>
       <use xlink:href="#m1fdd4ab096" x="57.6" y="189.332119" style="stroke: #000000; stroke-width: 0.8"/>
      </g>
     </g>
     <g id="text_9">
      <!-- $\mathdefault{10^{4}}$ -->
      <g transform="translate(33 193.131338)scale(0.1 -0.1)">
       <use xlink:href="#DejaVuSans-31" transform="translate(0 0.684375)"/>
       <use xlink:href="#DejaVuSans-30" transform="translate(63.623047 0.684375)"/>
       <use xlink:href="#DejaVuSans-34" transform="translate(128.203125 38.965625)scale(0.7)"/>
      </g>
     </g>
    </g>
    <g id="ytick_4">
     <g id="line2d_9">
      <g>
       <use xlink:href="#m1fdd4ab096" x="57.6" y="146.869767" style="stroke: #000000; stroke-width: 0.8"/>
      </g>
     </g>
     <g id="text_10">
      <!-- $\mathdefault{10^{6}}$ -->
      <g transform="translate(33 150.668986)scale(0.1 -0.1)">
       <use xlink:href="#DejaVuSans-31" transform="translate(0 0.765625)"/>
       <use xlink:href="#DejaVuSans-30" transform="translate(63.623047 0.765625)"/>
       <use xlink:href="#DejaVuSans-36" transform="translate(128.203125 39.046875)scale(0.7)"/>
      </g>
     </g>
    </g>
    <g id="ytick_5">
     <g id="line2d_10">
      <g>
       <use xlink:href="#m1fdd4ab096" x="57.6" y="104.407415" style="stroke: #000000; stroke-width: 0.8"/>
      </g>
     </g>
     <g id="text_11">
      <!-- $\mathdefault{10^{8}}$ -->
      <g transform="translate(33 108.206634)scale(0.1 -0.1)">
       <use xlink:href="#DejaVuSans-31" transform="translate(0 0.765625)"/>
       <use xlink:href="#DejaVuSans-30" transform="translate(63.623047 0.765625)"/>
       <use xlink:href="#DejaVuSans-38" transform="translate(128.203125 39.046875)scale(0.7)"/>
      </g>
     </g>
    </g>
    <g id="ytick_6">
     <g id="line2d_11">
      <g>
       <use xlink:href="#m1fdd4ab096" x="57.6" y="61.945063" style="stroke: #000000; stroke-width: 0.8"/>
      </g>
     </g>
     <g id="text_12">
      <!-- $\mathdefault{10^{10}}$ -->
      <g transform="translate(28.5 65.744281)scale(0.1 -0.1)">
       <use xlink:href="#DejaVuSans-31" transform="translate(0 0.765625)"/>
       <use xlink:href="#DejaVuSans-30" transform="translate(63.623047 0.765625)"/>
       <use xlink:href="#DejaVuSans-31" transform="translate(128.203125 39.046875)scale(0.7)"/>
       <use xlink:href="#DejaVuSans-30" transform="translate(172.739258 39.046875)scale(0.7)"/>
      </g>
     </g>
    </g>
    <g id="text_13">
     <!-- Pyrolysis number -->
     <g transform="translate(22.420312 217.554563)rotate(-90)scale(0.1 -0.1)">
      <defs>
       <path id="DejaVuSans-50" d="M 1259 4147 
L 1259 2394 
L 2053 2394 
Q 2494 2394 2734 2622 
Q 2975 2850 2975 3272 
Q 2975 3691 2734 3919 
Q 2494 4147 2053 4147 
L 1259 4147 
z
M 628 4666 
L 2053 4666 
Q 2838 4666 3239 4311 
Q 3641 3956 3641 3272 
Q 3641 2581 3239 2228 
Q 2838 1875 2053 1875 
L 1259 1875 
L 1259 0 
L 628 0 
L 628 4666 
z
" transform="scale(0.015625)"/>
       <path id="DejaVuSans-79" d="M 2059 -325 
Q 1816 -950 1584 -1140 
Q 1353 -1331 966 -1331 
L 506 -1331 
L 506 -850 
L 844 -850 
Q 1081 -850 1212 -737 
Q 1344 -625 1503 -206 
L 1606 56 
L 191 3500 
L 800 3500 
L 1894 763 
L 2988 3500 
L 3597 3500 
L 2059 -325 
z
" transform="scale(0.015625)"/>
       <path id="DejaVuSans-6f" d="M 1959 3097 
Q 1497 3097 1228 2736 
Q 959 2375 959 1747 
Q 959 1119 1226 758 
Q 1494 397 1959 397 
Q 2419 397 2687 759 
Q 2956 1122 2956 1747 
Q 2956 2369 2687 2733 
Q 2419 3097 1959 3097 
z
M 1959 3584 
Q 2709 3584 3137 3096 
Q 3566 2609 3566 1747 
Q 3566 888 3137 398 
Q 2709 -91 1959 -91 
Q 1206 -91 779 398 
Q 353 888 353 1747 
Q 353 2609 779 3096 
Q 1206 3584 1959 3584 
z
" transform="scale(0.015625)"/>
       <path id="DejaVuSans-6c" d="M 603 4863 
L 1178 4863 
L 1178 0 
L 603 0 
L 603 4863 
z
" transform="scale(0.015625)"/>
       <path id="DejaVuSans-73" d="M 2834 3397 
L 2834 2853 
Q 2591 2978 2328 3040 
Q 2066 3103 1784 3103 
Q 1356 3103 1142 2972 
Q 928 2841 928 2578 
Q 928 2378 1081 2264 
Q 1234 2150 1697 2047 
L 1894 2003 
Q 2506 1872 2764 1633 
Q 3022 1394 3022 966 
Q 3022 478 2636 193 
Q 2250 -91 1575 -91 
Q 1294 -91 989 -36 
Q 684 19 347 128 
L 347 722 
Q 666 556 975 473 
Q 1284 391 1588 391 
Q 1994 391 2212 530 
Q 2431 669 2431 922 
Q 2431 1156 2273 1281 
Q 2116 1406 1581 1522 
L 1381 1569 
Q 847 1681 609 1914 
Q 372 2147 372 2553 
Q 372 3047 722 3315 
Q 1072 3584 1716 3584 
Q 2034 3584 2315 3537 
Q 2597 3491 2834 3397 
z
" transform="scale(0.015625)"/>
       <path id="DejaVuSans-69" d="M 603 3500 
L 1178 3500 
L 1178 0 
L 603 0 
L 603 3500 
z
M 603 4863 
L 1178 4863 
L 1178 4134 
L 603 4134 
L 603 4863 
z
" transform="scale(0.015625)"/>
       <path id="DejaVuSans-6e" d="M 3513 2113 
L 3513 0 
L 2938 0 
L 2938 2094 
Q 2938 2591 2744 2837 
Q 2550 3084 2163 3084 
Q 1697 3084 1428 2787 
Q 1159 2491 1159 1978 
L 1159 0 
L 581 0 
L 581 3500 
L 1159 3500 
L 1159 2956 
Q 1366 3272 1645 3428 
Q 1925 3584 2291 3584 
Q 2894 3584 3203 3211 
Q 3513 2838 3513 2113 
z
" transform="scale(0.015625)"/>
       <path id="DejaVuSans-62" d="M 3116 1747 
Q 3116 2381 2855 2742 
Q 2594 3103 2138 3103 
Q 1681 3103 1420 2742 
Q 1159 2381 1159 1747 
Q 1159 1113 1420 752 
Q 1681 391 2138 391 
Q 2594 391 2855 752 
Q 3116 1113 3116 1747 
z
M 1159 2969 
Q 1341 3281 1617 3432 
Q 1894 3584 2278 3584 
Q 2916 3584 3314 3078 
Q 3713 2572 3713 1747 
Q 3713 922 3314 415 
Q 2916 -91 2278 -91 
Q 1894 -91 1617 61 
Q 1341 213 1159 525 
L 1159 0 
L 581 0 
L 581 4863 
L 1159 4863 
L 1159 2969 
z
" transform="scale(0.015625)"/>
      </defs>
      <use xlink:href="#DejaVuSans-50"/>
      <use xlink:href="#DejaVuSans-79" x="60.302734"/>
      <use xlink:href="#DejaVuSans-72" x="119.482422"/>
      <use xlink:href="#DejaVuSans-6f" x="158.345703"/>
      <use xlink:href="#DejaVuSans-6c" x="219.527344"/>
      <use xlink:href="#DejaVuSans-79" x="247.310547"/>
      <use xlink:href="#DejaVuSans-73" x="306.490234"/>
      <use xlink:href="#DejaVuSans-69" x="358.589844"/>
      <use xlink:href="#DejaVuSans-73" x="386.373047"/>
      <use xlink:href="#DejaVuSans-20" x="438.472656"/>
      <use xlink:href="#DejaVuSans-6e" x="470.259766"/>
      <use xlink:href="#DejaVuSans-75" x="533.638672"/>
      <use xlink:href="#DejaVuSans-6d" x="597.017578"/>
      <use xlink:href="#DejaVuSans-62" x="694.429688"/>
      <use xlink:href="#DejaVuSans-65" x="757.90625"/>
      <use xlink:href="#DejaVuSans-72" x="819.429688"/>
     </g>
    </g>
   </g>
   <g id="line2d_12">
    <path d="M 57.6 76.720943 
L 61.189056 82.904497 
L 64.92096 88.888427 
L 68.688576 94.51653 
L 72.634752 100.013532 
L 76.70592 105.305923 
L 81.086711 110.626427 
L 85.752841 115.938136 
L 91.306057 121.908898 
L 105.751561 137.292424 
L 109.995575 142.295279 
L 114.239232 147.651991 
L 118.923575 153.914142 
L 134.499721 174.985119 
L 137.850935 178.982789 
L 140.683968 182.033533 
L 140.945737 182.293946 
L 143.386295 184.576535 
L 145.63008 186.378269 
L 147.7728 187.817755 
L 149.969088 189.03463 
L 150.070153 189.076982 
L 150.409417 189.241838 
L 153.48672 190.581649 
L 159.254208 192.822173 
L 159.355273 192.845059 
L 159.635255 192.929387 
L 161.396928 193.333344 
L 161.52192 193.340068 
L 163.003968 193.428844 
L 163.12896 193.411632 
L 164.55744 193.233086 
L 166.224119 192.780487 
L 169.116791 191.926905 
L 169.277495 191.904343 
L 170.247433 191.884535 
L 170.467776 191.912506 
L 171.318793 192.147937 
L 171.69984 192.322183 
L 172.59264 192.891599 
L 173.640073 193.812168 
L 175.443529 195.813708 
L 175.961353 196.441985 
L 177.169847 197.926355 
L 177.550537 198.398014 
L 181.199232 202.642528 
L 183.740855 205.090459 
L 185.407177 206.29713 
L 186.752448 206.938325 
L 186.895296 206.976679 
L 188.002368 207.167256 
L 188.12736 207.157275 
L 189.192649 206.971541 
L 189.335497 206.90114 
L 190.228297 206.383958 
L 191.156809 205.532665 
L 191.299657 205.341598 
L 192.287808 203.9702 
L 192.430656 203.702261 
L 193.537728 201.599335 
L 193.698432 201.212069 
L 193.740215 201.12003 
L 195.210121 197.531031 
L 197.745673 191.06866 
L 197.787456 190.972732 
L 199.114871 188.172437 
L 199.156297 188.092167 
L 200.721911 185.291 
L 200.799049 185.191628 
L 200.941897 184.91812 
L 204.846647 178.138963 
L 204.989495 177.828467 
L 206.775095 174.136435 
L 211.078391 164.898587 
L 211.155529 164.819593 
L 211.298377 164.599469 
L 211.971191 163.909733 
L 212.048329 163.874853 
L 212.0544 163.848488 
L 212.625792 163.570771 
L 212.762569 163.555765 
L 212.76864 163.538689 
L 213.340032 163.545214 
L 213.596087 163.620993 
L 213.697152 163.646108 
L 214.01856 163.789974 
L 214.869577 164.355824 
L 216.137353 165.49605 
L 217.702967 167.093742 
L 218.185079 167.594886 
L 222.666935 172.11827 
L 225.4464 174.612523 
L 227.880887 176.510463 
L 228.005879 176.593799 
L 230.08896 177.926218 
L 231.987767 178.887777 
L 232.088832 178.922783 
L 232.404169 179.060513 
L 232.505591 179.091769 
L 232.820928 179.219233 
L 232.921993 179.246686 
L 233.201975 179.34267 
L 234.850441 179.772358 
L 236.451767 179.972071 
L 236.576759 179.96479 
L 238.177728 179.921764 
L 238.30272 179.894378 
L 240.022967 179.602802 
L 240.147959 179.557524 
L 242.469239 178.876377 
L 245.123712 178.127966 
L 245.284416 178.096781 
L 246.671113 177.944819 
L 246.867529 177.953678 
L 246.8736 177.942516 
L 248.099593 178.048315 
L 248.361719 178.097678 
L 249.706633 178.487878 
L 250.105536 178.642149 
L 251.968631 179.519127 
L 252.527881 179.812084 
L 256.866889 181.984825 
L 257.009737 182.04013 
L 259.19424 182.842337 
L 261.176256 183.338156 
L 263.003639 183.572193 
L 264.783168 183.586612 
L 264.90816 183.567452 
L 266.651977 183.331362 
L 268.437577 182.864923 
L 270.401737 182.117697 
L 272.878007 180.935212 
L 273.020855 180.844998 
L 283.335552 175.546815 
L 283.4784 175.478961 
L 287.442432 173.71566 
L 287.638848 173.649201 
L 287.781696 173.582348 
L 290.180471 172.773204 
L 290.400457 172.712482 
L 292.442112 172.274038 
L 292.721737 172.231803 
L 294.763392 172.048409 
L 295.138368 172.041998 
L 295.299072 172.033359 
L 295.697975 172.029893 
L 298.394231 172.136062 
L 298.83456 172.168874 
L 299.923776 172.260306 
L 301.191552 172.370396 
L 301.69152 172.414265 
L 303.590327 172.57383 
L 303.774601 172.583487 
L 306.351936 172.74209 
L 312.399049 172.838742 
L 312.559753 172.830827 
L 312.958656 172.822423 
L 318.019046 172.586047 
L 332.678822 171.690907 
L 333.053798 171.704937 
L 333.17879 171.702483 
L 336.367872 171.916958 
L 336.767846 171.961933 
L 339.699802 172.42102 
L 340.196198 172.524559 
L 340.32119 172.545998 
L 340.635456 172.613373 
L 340.653312 172.443001 
L 340.696166 172.626914 
L 340.73545 172.4629 
L 340.814016 172.65433 
L 340.849728 172.552074 
L 340.85687 172.491596 
L 340.931866 172.682076 
L 340.949722 172.51477 
L 341.053286 172.710166 
L 341.088998 172.609596 
L 341.09257 172.549935 
L 341.171136 172.738511 
L 341.188992 172.573606 
L 341.288986 172.767176 
L 341.324698 172.66829 
L 341.33184 172.609533 
L 341.410406 172.796126 
L 341.428262 172.633672 
L 341.528256 172.825373 
L 341.563968 172.728166 
L 341.57111 172.670293 
L 341.646106 172.854881 
L 341.663962 172.694923 
L 341.767526 172.884715 
L 341.803238 172.789282 
L 341.80681 172.732224 
L 341.885376 172.914786 
L 341.903232 172.75732 
L 342.003226 172.94516 
L 342.038938 172.851445 
L 342.04608 172.795336 
L 342.124646 172.975851 
L 342.142502 172.82087 
L 342.242496 173.006771 
L 342.278208 172.914815 
L 342.28535 172.859535 
L 342.360346 173.037934 
L 342.378202 172.885529 
L 342.481766 173.069405 
L 342.517478 172.9792 
L 342.52105 172.924828 
L 342.599616 173.101145 
L 342.617472 172.951257 
L 342.717466 173.13312 
L 342.753178 173.044657 
L 342.76032 172.991175 
L 342.838886 173.165344 
L 342.856742 173.01806 
L 342.956736 173.197829 
L 342.992448 173.111146 
L 342.99959 173.058582 
L 343.074586 173.23054 
L 343.092442 173.085798 
L 343.196006 173.26354 
L 343.231718 173.178626 
L 343.23529 173.126956 
L 343.313856 173.296743 
L 343.331712 173.154578 
L 343.431706 173.330164 
L 343.467418 173.247054 
L 343.47456 173.19631 
L 343.553126 173.363864 
L 343.570982 173.224309 
L 343.670976 173.397759 
L 343.706688 173.316441 
L 343.71383 173.266551 
L 343.788826 173.431864 
L 343.806682 173.2949 
L 343.910246 173.466192 
L 343.945958 173.386698 
L 343.94953 173.337735 
L 344.028096 173.500753 
L 344.045952 173.366411 
L 344.145946 173.535515 
L 344.181658 173.457784 
L 344.1888 173.409728 
L 344.267366 173.570493 
L 344.285222 173.438753 
L 344.385216 173.605649 
L 344.420928 173.529711 
L 344.42807 173.482538 
L 344.503066 173.640997 
L 344.520922 173.511885 
L 344.624486 173.676599 
L 344.660198 173.602393 
L 344.66377 173.556125 
L 344.742336 173.712324 
L 344.760192 173.585819 
L 344.860186 173.748235 
L 344.895898 173.675835 
L 344.90304 173.630501 
L 344.981606 173.78439 
L 344.999462 173.660423 
L 345.099456 173.820662 
L 345.135168 173.750006 
L 345.14231 173.705533 
L 345.217306 173.857111 
L 345.235162 173.735749 
L 345.338726 173.893707 
L 345.374438 173.824821 
L 345.37801 173.781229 
L 345.456576 173.930502 
L 345.474432 173.811721 
L 345.574426 173.967422 
L 345.610138 173.900288 
L 345.61728 173.857604 
L 345.695846 174.004526 
L 345.713702 173.8883 
L 345.813696 174.041733 
L 345.849408 173.976332 
L 345.85655 173.93453 
L 345.931546 174.079102 
L 345.949402 173.96545 
L 346.052966 174.116605 
L 346.088678 174.052961 
L 346.09225 174.01197 
L 346.170816 174.154248 
L 346.188672 174.043142 
L 346.288666 174.192003 
L 346.324378 174.130052 
L 346.33152 174.089985 
L 346.410086 174.229928 
L 346.427942 174.121296 
L 346.527936 174.267943 
L 346.563648 174.207665 
L 346.57079 174.168409 
L 346.645786 174.306021 
L 346.663642 174.199922 
L 346.767206 174.344263 
L 346.802918 174.28568 
L 346.80649 174.247294 
L 346.885056 174.382589 
L 346.902912 174.27895 
L 347.002906 174.421015 
L 347.038618 174.364106 
L 347.04576 174.326572 
L 347.124326 174.459557 
L 347.142182 174.35835 
L 347.242176 174.498177 
L 347.277888 174.442878 
L 347.28503 174.406169 
L 347.360026 174.53685 
L 347.377882 174.438087 
L 347.481446 174.575633 
L 347.517158 174.521966 
L 347.52073 174.486053 
L 347.599296 174.61449 
L 347.617152 174.518098 
L 347.717146 174.653395 
L 347.752858 174.601337 
L 347.76 174.566247 
L 347.838566 174.692364 
L 347.856422 174.598396 
L 347.956416 174.731402 
L 347.992128 174.680932 
L 347.99927 174.646636 
L 348.074266 174.770484 
L 348.092122 174.678826 
L 348.195686 174.809626 
L 348.231398 174.760722 
L 348.23497 174.727192 
L 348.313536 174.848792 
L 348.331392 174.759496 
L 348.431386 174.888039 
L 348.467098 174.840679 
L 348.47424 174.80794 
L 348.552806 174.927301 
L 348.570662 174.840254 
L 348.731366 174.986194 
L 348.749222 174.900903 
L 348.788506 175.005865 
L 348.83136 174.929183 
L 348.967066 175.064867 
L 348.984922 174.981769 
L 349.027776 175.084511 
L 349.07063 175.010105 
L 349.206336 175.143536 
L 349.224192 175.06268 
L 349.267046 175.163214 
L 349.30633 175.090955 
L 349.384896 175.202586 
L 349.420608 175.161184 
L 349.42775 175.131396 
L 349.502746 175.241912 
L 349.520602 175.163744 
L 349.681306 175.300893 
L 349.699162 175.224308 
L 349.742016 175.320555 
L 349.78487 175.252588 
L 349.920576 175.379472 
L 349.938432 175.305033 
L 349.981286 175.399125 
L 350.02057 175.33321 
L 350.159846 175.457974 
L 350.177702 175.385574 
L 350.216986 175.477561 
L 350.25984 175.413702 
L 350.395546 175.536265 
L 350.413402 175.46591 
L 350.456256 175.555821 
L 350.49911 175.494008 
L 350.634816 175.614417 
L 350.652672 175.546039 
L 350.695526 175.633887 
L 350.73481 175.573996 
L 350.874086 175.692299 
L 350.891942 175.625906 
L 350.931226 175.711704 
L 350.97408 175.653777 
L 351.109786 175.769897 
L 351.127642 175.705421 
L 351.170496 175.789271 
L 351.21335 175.733187 
L 351.349056 175.84721 
L 351.366912 175.784621 
L 351.409766 175.866499 
L 351.44905 175.812249 
L 351.588326 175.924186 
L 351.606182 175.863455 
L 351.645466 175.943374 
L 351.68832 175.890927 
L 351.824026 176.00074 
L 351.841882 175.941838 
L 351.884736 176.019827 
L 351.92759 175.969173 
L 352.063296 176.076911 
L 352.10615 176.02753 
L 352.124006 176.095881 
L 352.16329 176.046904 
L 352.302566 176.152582 
L 352.320422 176.097181 
L 352.359706 176.171419 
L 352.40256 176.124126 
L 352.538266 176.227741 
L 352.64183 176.200829 
L 352.777536 176.302396 
L 352.856102 176.269328 
L 352.87753 176.276901 
L 353.016806 176.376435 
L 353.1168 176.352349 
L 353.252506 176.449849 
L 353.35607 176.427135 
L 353.491776 176.52265 
L 353.59177 176.501183 
L 353.731046 176.59473 
L 353.83104 176.574541 
L 353.966746 176.666083 
L 354.07031 176.647102 
L 354.206016 176.73669 
L 354.30601 176.718832 
L 354.445286 176.806481 
L 354.54528 176.789713 
L 354.680986 176.875421 
L 354.78455 176.85971 
L 354.920256 176.943461 
L 355.02025 176.928757 
L 355.159526 177.010634 
L 355.25952 176.996873 
L 355.395226 177.076808 
L 355.49879 177.063963 
L 355.634496 177.142036 
L 355.73449 177.130027 
L 355.873766 177.206223 
L 355.97376 177.195023 
L 356.109466 177.26934 
L 356.21303 177.258922 
L 356.348736 177.331375 
L 356.44873 177.321634 
L 356.588006 177.39227 
L 356.688 177.383211 
L 356.823706 177.451996 
L 356.92727 177.443567 
L 357.062976 177.510516 
L 357.16297 177.502673 
L 357.302246 177.567832 
L 357.40224 177.560493 
L 357.537946 177.623827 
L 357.64151 177.616973 
L 357.777216 177.678527 
L 357.87721 177.672117 
L 358.016486 177.731875 
L 358.152192 177.733793 
L 358.348608 177.790746 
L 358.373606 177.809287 
L 358.448602 177.798691 
L 358.645018 177.85385 
L 358.670016 177.871331 
L 358.748582 177.861292 
L 358.966426 177.931055 
L 359.105702 177.933281 
L 359.323546 177.999546 
L 359.462822 178.001702 
L 359.680666 178.064511 
L 359.819942 178.066454 
L 360.037786 178.125791 
L 360.177062 178.12744 
L 360.394906 178.183255 
L 360.534182 178.184529 
L 360.752026 178.236802 
L 360.891302 178.237593 
L 361.109146 178.286299 
L 361.248422 178.286499 
L 361.466266 178.331612 
L 361.62697 178.33395 
L 361.801958 178.365136 
L 361.823386 178.372632 
L 361.901952 178.364988 
L 362.123366 178.403442 
L 362.28407 178.403744 
L 362.480486 178.436244 
L 362.64119 178.435276 
L 362.837606 178.464396 
L 362.99831 178.462055 
L 363.194726 178.487747 
L 363.391142 178.48588 
L 363.608986 178.508732 
L 363.805402 178.504483 
L 364.026816 178.52285 
L 364.223232 178.516031 
L 364.444646 178.529809 
L 364.66249 178.520298 
L 364.894618 178.529771 
L 365.01961 178.517637 
L 365.251738 178.523442 
L 365.37673 178.509349 
L 365.616 178.500618 
L 365.873126 178.496685 
L 366.126682 178.472941 
L 366.348096 178.464939 
L 366.62665 178.433828 
L 366.919488 178.416046 
L 367.062336 178.396733 
L 367.376602 178.35199 
L 367.573018 178.336611 
L 367.715866 178.311618 
L 368.090842 178.247052 
L 368.287258 178.224368 
L 368.430106 178.192995 
L 368.865792 178.102171 
L 369.062208 178.071293 
L 369.205056 178.032743 
L 369.697882 177.90807 
L 369.894298 177.867955 
L 370.037146 177.821373 
L 370.590682 177.654077 
L 370.751386 177.606688 
L 371.426342 177.371739 
L 371.587046 177.315156 
L 372.436992 176.966871 
L 372.597696 176.89863 
L 373.747622 176.335628 
L 373.89047 176.259082 
L 374.715418 175.799382 
L 374.876122 175.686391 
L 375.015398 175.615791 
L 375.14039 175.52158 
L 376.108186 174.862869 
L 378.89015 172.505898 
L 380.19721 171.135044 
L 381.643546 169.407387 
L 383.668416 166.579967 
L 385.571866 163.441454 
L 387.46103 159.829704 
L 389.18592 156.047269 
L 390.964378 151.666178 
L 391.125082 151.202133 
L 391.167936 151.090954 
L 393.071386 145.665844 
L 395.071258 139.29531 
L 395.231962 138.701953 
L 395.274816 138.559558 
L 397.692518 129.936013 
L 397.81751 129.422732 
L 400.353062 120.416264 
L 400.392346 120.284152 
L 401.481562 117.194609 
L 401.560128 117.041373 
L 401.720832 116.629091 
L 401.799398 116.488016 
L 401.92439 116.183482 
L 402.674342 114.824753 
L 402.749338 114.73495 
L 402.910042 114.490354 
L 402.99575 114.384142 
L 403.684992 113.7074 
L 403.820698 113.628039 
L 403.981402 113.518675 
L 404.142106 113.439723 
L 404.817062 113.260459 
L 405.095616 113.246942 
L 405.927706 113.36347 
L 407.059776 113.766481 
L 408.94537 114.71205 
L 414.72 117.913964 
L 414.72 117.913423 
" clip-path="url(#p13dd0128ab)" style="fill: none; stroke: #1f77b4; stroke-width: 1.5; stroke-linecap: square"/>
   </g>
   <g id="line2d_13">
    <path d="M 57.6 53.568 
L 61.224768 59.968088 
L 66.325513 68.254593 
L 70.158839 73.991915 
L 74.182153 79.616268 
L 78.194039 84.864962 
L 82.658039 90.341563 
L 87.592009 96.032936 
L 106.483657 116.921794 
L 110.727671 122.137569 
L 114.977399 127.710699 
L 120.352055 135.153878 
L 132.77376 152.495625 
L 136.517449 157.258103 
L 137.154551 158.023858 
L 138.684096 159.804842 
L 141.404279 162.723796 
L 143.838409 165.022702 
L 143.981257 165.142524 
L 146.219328 166.937037 
L 146.320393 167.00488 
L 146.778935 167.33123 
L 148.963081 168.719128 
L 151.403639 169.991579 
L 155.290176 171.721819 
L 159.456695 173.412727 
L 161.242295 173.889459 
L 162.730057 174.055197 
L 164.158537 173.982063 
L 165.742007 173.670979 
L 165.866999 173.62123 
L 169.414272 172.720143 
L 169.610688 172.723325 
L 169.73568 172.708963 
L 170.604553 172.802175 
L 170.866679 172.870617 
L 171.735552 173.238885 
L 172.295159 173.592359 
L 173.282953 174.414887 
L 175.288896 176.632272 
L 182.746633 185.41571 
L 184.192969 186.710016 
L 185.127552 187.400841 
L 185.687159 187.751821 
L 187.073856 188.358374 
L 188.145216 188.517085 
L 189.097655 188.377029 
L 189.990455 187.96348 
L 190.883255 187.240645 
L 191.817481 186.123794 
L 192.942409 184.301626 
L 193.085257 183.994314 
L 194.317321 181.308708 
L 199.055232 169.944186 
L 199.097015 169.864437 
L 200.602633 167.191125 
L 200.680128 167.093262 
L 200.822976 166.822558 
L 204.912 159.788363 
L 206.6976 156.164083 
L 209.132087 150.6562 
L 209.274935 150.294153 
L 210.542711 147.718527 
L 210.584137 147.646117 
L 211.375872 146.480954 
L 211.453367 146.418089 
L 211.596215 146.235621 
L 212.209033 145.748584 
L 212.310455 145.695994 
L 212.863991 145.541504 
L 213.024695 145.536482 
L 213.637513 145.660834 
L 213.953207 145.809438 
L 214.054272 145.855447 
L 214.494601 146.136481 
L 215.542391 147.016007 
L 216.893376 148.37351 
L 223.892928 155.553696 
L 224.113271 155.754369 
L 224.928576 156.491689 
L 227.428416 158.558586 
L 229.606848 160.083623 
L 229.707913 160.14057 
L 230.142528 160.410836 
L 230.243593 160.463661 
L 230.62464 160.681213 
L 232.469879 161.581768 
L 234.189769 162.1841 
L 234.291191 162.20095 
L 234.546889 162.275559 
L 234.648311 162.28892 
L 234.904009 162.355778 
L 235.005431 162.365585 
L 235.225417 162.407196 
L 236.814601 162.578923 
L 238.415927 162.541747 
L 238.540919 162.514721 
L 240.284736 162.214615 
L 242.760649 161.548277 
L 242.885641 161.495673 
L 245.183351 160.922542 
L 245.344055 160.896028 
L 246.730752 160.786114 
L 246.927168 160.801004 
L 246.933239 160.790119 
L 248.159232 160.934462 
L 248.438857 160.996242 
L 249.766272 161.422868 
L 250.165175 161.588631 
L 252.027913 162.514991 
L 252.58752 162.821496 
L 256.771895 165.011776 
L 259.009609 165.914969 
L 259.134601 165.95066 
L 261.152329 166.513871 
L 261.277321 166.531942 
L 263.12256 166.795811 
L 264.902089 166.834691 
L 265.027081 166.817126 
L 266.771255 166.604579 
L 268.592567 166.165606 
L 268.717559 166.112782 
L 270.735287 165.369775 
L 270.860279 165.301078 
L 273.532608 164.035223 
L 273.675456 163.946532 
L 281.371392 160.108267 
L 281.51424 160.041653 
L 286.549632 157.808014 
L 286.710336 157.74345 
L 289.228032 156.844172 
L 289.430519 156.783018 
L 291.489673 156.277777 
L 291.745728 156.238789 
L 291.888576 156.206235 
L 293.870592 155.979759 
L 294.209856 155.961608 
L 296.430071 155.968735 
L 296.8704 155.98887 
L 297.662135 156.04611 
L 298.453513 156.111797 
L 298.912055 156.157606 
L 299.941632 156.262197 
L 300.435529 156.319681 
L 300.62016 156.335472 
L 302.126135 156.49884 
L 305.000951 156.771455 
L 305.494848 156.815131 
L 305.679479 156.825056 
L 308.887488 157.016077 
L 309.072119 157.018809 
L 313.238281 157.084412 
L 318.00119 156.949816 
L 325.315008 156.507811 
L 325.475712 156.491841 
L 325.79712 156.472784 
L 330.832512 156.302525 
L 331.171776 156.30375 
L 334.464422 156.437618 
L 334.84297 156.468962 
L 337.857062 156.848602 
L 338.29632 156.923868 
L 340.635456 157.407726 
L 340.653312 157.237686 
L 340.696166 157.422396 
L 340.73545 157.259113 
L 340.814016 157.452004 
L 340.849728 157.350411 
L 340.85687 157.290066 
L 340.931866 157.481941 
L 340.949722 157.314967 
L 341.053286 157.512288 
L 341.088998 157.412382 
L 341.09257 157.352787 
L 341.171136 157.542822 
L 341.188992 157.378249 
L 341.288986 157.573677 
L 341.324698 157.475454 
L 341.33184 157.41683 
L 341.410406 157.604882 
L 341.428262 157.442759 
L 341.528256 157.636317 
L 341.563968 157.539773 
L 341.57111 157.482033 
L 341.646106 157.668013 
L 341.663962 157.508387 
L 341.767526 157.7001 
L 341.803238 157.60533 
L 341.80681 157.548339 
L 341.885376 157.732358 
L 341.903232 157.575224 
L 342.003226 157.764918 
L 342.038938 157.671865 
L 342.04608 157.615889 
L 342.124646 157.797861 
L 342.142502 157.643211 
L 342.242496 157.830965 
L 342.278208 157.739671 
L 342.28535 157.684524 
L 342.360346 157.864313 
L 342.378202 157.712239 
L 342.481766 157.898034 
L 342.517478 157.80849 
L 342.52105 157.754184 
L 342.599616 157.931957 
L 342.617472 157.7824 
L 342.717466 157.966114 
L 342.753178 157.878312 
L 342.76032 157.824962 
L 342.838886 158.000587 
L 342.856742 157.853633 
L 342.956736 158.035253 
L 342.992448 157.949231 
L 342.99959 157.896799 
L 343.074586 158.070145 
L 343.092442 157.925733 
L 343.196006 158.105391 
L 343.231718 158.021138 
L 343.23529 157.969534 
L 343.313856 158.140774 
L 343.331712 157.998939 
L 343.431706 158.176374 
L 343.467418 158.093925 
L 343.47456 158.043312 
L 343.553126 158.212319 
L 343.570982 158.073093 
L 343.670976 158.248392 
L 343.706688 158.167734 
L 343.71383 158.117976 
L 343.788826 158.284674 
L 343.806682 158.14804 
L 343.910246 158.321245 
L 343.945958 158.242411 
L 343.94953 158.193513 
L 344.028096 158.357983 
L 344.045952 158.223971 
L 344.145946 158.394921 
L 344.181658 158.317849 
L 344.1888 158.269925 
L 344.267366 158.43214 
L 344.285222 158.30073 
L 344.385216 158.46947 
L 344.420928 158.394191 
L 344.42807 158.347151 
L 344.503066 158.506993 
L 344.520922 158.37821 
L 344.624486 158.544834 
L 344.660198 158.471286 
L 344.66377 158.425085 
L 344.742336 158.582732 
L 344.760192 158.456556 
L 344.860186 158.620815 
L 344.895898 158.549074 
L 344.90304 158.503871 
L 344.981606 158.659209 
L 344.999462 158.53557 
L 345.099456 158.697652 
L 345.135168 158.627653 
L 345.14231 158.583312 
L 345.217306 158.736271 
L 345.235162 158.615238 
L 345.338726 158.775103 
L 345.374438 158.706875 
L 345.37801 158.663349 
L 345.456576 158.814068 
L 345.474432 158.695616 
L 345.574426 158.853157 
L 345.610138 158.78668 
L 345.61728 158.744128 
L 345.695846 158.892495 
L 345.713702 158.776598 
L 345.813696 158.93187 
L 345.849408 158.867126 
L 345.85655 158.825455 
L 345.931546 158.971407 
L 345.949402 158.858083 
L 346.052966 159.011143 
L 346.088678 158.948155 
L 346.09225 158.907229 
L 346.170816 159.050952 
L 346.188672 158.940174 
L 346.288666 159.090872 
L 346.324378 159.029577 
L 346.33152 158.989642 
L 346.410086 159.131028 
L 346.427942 159.022724 
L 346.527936 159.171208 
L 346.563648 159.111585 
L 346.57079 159.072461 
L 346.645786 159.21145 
L 346.663642 159.105678 
L 346.767206 159.251921 
L 346.802918 159.193993 
L 346.80649 159.155673 
L 346.885056 159.29241 
L 346.902912 159.189099 
L 347.002906 159.332998 
L 347.038618 159.276745 
L 347.04576 159.239342 
L 347.124326 159.373767 
L 347.142182 159.272888 
L 347.242176 159.414549 
L 347.277888 159.359905 
L 347.28503 159.323327 
L 347.360026 159.455383 
L 347.377882 159.356947 
L 347.481446 159.496391 
L 347.517158 159.443379 
L 347.52073 159.407532 
L 347.599296 159.537408 
L 347.617152 159.441344 
L 347.717146 159.578472 
L 347.752858 159.527069 
L 347.76 159.492109 
L 347.838566 159.619665 
L 347.856422 159.526024 
L 347.956416 159.660861 
L 347.992128 159.611045 
L 347.99927 159.57688 
L 348.074266 159.7021 
L 348.092122 159.61077 
L 348.195686 159.743465 
L 348.231398 159.695215 
L 348.23497 159.66175 
L 348.313536 159.784787 
L 348.331392 159.695818 
L 348.492096 159.846912 
L 348.509952 159.759641 
L 348.552806 159.867673 
L 348.59209 159.789422 
L 348.670656 159.909071 
L 348.706368 159.863927 
L 348.71351 159.832082 
L 348.788506 159.950546 
L 348.806362 159.866122 
L 348.967066 160.01281 
L 348.984922 159.930039 
L 349.027776 160.033563 
L 349.07063 159.95994 
L 349.206336 160.09585 
L 349.224192 160.01532 
L 349.267046 160.116636 
L 349.30633 160.045094 
L 349.384896 160.158159 
L 349.42775 160.087751 
L 349.563456 160.220412 
L 349.581312 160.143087 
L 349.624166 160.241186 
L 349.66345 160.172851 
L 349.802726 160.303412 
L 349.820582 160.22821 
L 349.859866 160.324094 
L 349.90272 160.257927 
L 350.038426 160.386213 
L 350.056282 160.313142 
L 350.099136 160.406967 
L 350.14199 160.342893 
L 350.277696 160.468979 
L 350.295552 160.39793 
L 350.338406 160.489684 
L 350.37769 160.42755 
L 350.516966 160.551586 
L 350.534822 160.482567 
L 350.574106 160.572122 
L 350.61696 160.512062 
L 350.752666 160.633876 
L 350.770522 160.56682 
L 350.813376 160.654445 
L 350.85623 160.596311 
L 350.991936 160.715979 
L 351.009792 160.650891 
L 351.052646 160.736499 
L 351.09193 160.680176 
L 351.231206 160.797812 
L 351.249062 160.734626 
L 351.288346 160.818164 
L 351.3312 160.763789 
L 351.466906 160.879223 
L 351.484762 160.817909 
L 351.527616 160.899573 
L 351.57047 160.847033 
L 351.706176 160.960343 
L 351.724032 160.900836 
L 351.766886 160.980609 
L 351.80617 160.929758 
L 351.945446 161.041058 
L 351.963302 160.983366 
L 352.002586 161.061124 
L 352.04544 161.012098 
L 352.181146 161.121256 
L 352.199002 161.065314 
L 352.241856 161.141252 
L 352.28471 161.093941 
L 352.420416 161.201036 
L 352.46327 161.154933 
L 352.52041 161.175143 
L 352.659686 161.280289 
L 352.677542 161.227731 
L 352.716826 161.29994 
L 352.75968 161.255875 
L 352.895386 161.358872 
L 352.99895 161.335994 
L 353.134656 161.436991 
L 353.213222 161.407524 
L 353.23465 161.415361 
L 353.373926 161.514437 
L 353.47392 161.494149 
L 353.609626 161.591106 
L 353.71319 161.572188 
L 353.848896 161.667173 
L 353.94889 161.649373 
L 354.088166 161.742468 
L 354.18816 161.72585 
L 354.323866 161.816923 
L 354.42743 161.801516 
L 354.563136 161.890616 
L 354.66313 161.876174 
L 354.802406 161.963447 
L 354.9024 161.950037 
L 355.038106 162.035286 
L 355.14167 162.02294 
L 355.277376 162.106312 
L 355.37737 162.094788 
L 355.516646 162.176331 
L 355.61664 162.165698 
L 355.752346 162.245249 
L 355.85591 162.235543 
L 355.991616 162.313246 
L 356.09161 162.304229 
L 356.230886 162.380133 
L 356.33088 162.371844 
L 356.466586 162.445817 
L 356.57015 162.438328 
L 356.705856 162.51045 
L 356.80585 162.503495 
L 356.945126 162.573877 
L 357.04512 162.567529 
L 357.180826 162.636008 
L 357.28439 162.630309 
L 357.420096 162.696964 
L 357.52009 162.691684 
L 357.659366 162.756624 
L 357.75936 162.751778 
L 357.895066 162.81487 
L 357.99863 162.810531 
L 358.134336 162.871823 
L 358.23433 162.867766 
L 358.373606 162.927367 
L 358.509312 162.931909 
L 358.730726 163.007919 
L 358.866432 163.012564 
L 359.087846 163.085139 
L 359.223552 163.08977 
L 359.444966 163.158868 
L 359.580672 163.16337 
L 359.802086 163.228975 
L 359.937792 163.233264 
L 360.159206 163.295386 
L 360.294912 163.299324 
L 360.516326 163.357916 
L 360.652032 163.361449 
L 360.873446 163.416488 
L 361.009152 163.419481 
L 361.230566 163.470971 
L 361.366272 163.473345 
L 361.587686 163.521228 
L 361.74839 163.526059 
L 361.919808 163.559509 
L 362.0448 163.563672 
L 362.216218 163.595192 
L 362.22336 163.584739 
L 362.419776 163.621326 
L 362.58048 163.623431 
L 362.776896 163.656575 
L 362.9376 163.657332 
L 363.134016 163.687067 
L 363.330432 163.689037 
L 363.551846 163.716467 
L 363.748262 163.716024 
L 363.966106 163.738892 
L 364.162522 163.735931 
L 364.383936 163.754284 
L 364.60535 163.749169 
L 364.837478 163.763317 
L 364.937472 163.753576 
L 365.158886 163.763323 
L 365.412442 163.751389 
L 365.633856 163.755678 
L 365.890982 163.738997 
L 366.108826 163.737641 
L 366.365952 163.715832 
L 366.587366 163.708889 
L 366.901632 163.67668 
L 367.10519 163.658199 
L 367.419456 163.631583 
L 367.75872 163.583864 
L 368.072986 163.545764 
L 368.447962 163.480869 
L 368.644378 163.457894 
L 368.787226 163.425748 
L 369.222912 163.334093 
L 369.419328 163.302741 
L 369.562176 163.263292 
L 370.055002 163.137036 
L 370.251418 163.09625 
L 370.394266 163.048642 
L 371.008512 162.859882 
L 371.169216 162.81072 
L 371.901312 162.546812 
L 372.062016 162.487616 
L 372.972672 162.099241 
L 373.11552 162.033385 
L 373.847616 161.674344 
L 377.536666 159.196172 
L 380.015078 156.855975 
L 380.14007 156.700396 
L 381.561408 155.058092 
L 381.722112 154.833917 
L 381.80425 154.72785 
L 383.347008 152.640437 
L 383.507712 152.379166 
L 383.586278 152.288595 
L 383.71127 152.076136 
L 385.31831 149.478855 
L 386.978918 146.448192 
L 387.10391 146.171308 
L 388.785946 142.609781 
L 390.667968 138.120273 
L 390.828672 137.668024 
L 390.871526 137.559794 
L 392.749978 132.382057 
L 392.910682 131.864322 
L 392.953536 131.740199 
L 394.917696 125.519397 
L 397.178266 117.560363 
L 400.470912 105.881169 
L 400.513766 105.752342 
L 401.542272 102.906834 
L 401.620838 102.757876 
L 401.74583 102.43603 
L 402.552922 100.883558 
L 402.631488 100.788654 
L 402.792192 100.529967 
L 402.87433 100.417114 
L 403.567142 99.690175 
L 403.702848 99.602974 
L 403.863552 99.482997 
L 404.0064 99.404004 
L 404.677786 99.188018 
L 405.409882 99.187278 
L 405.90985 99.287989 
L 407.016922 99.695419 
L 414.72 103.985005 
L 414.72 103.984464 
" clip-path="url(#p13dd0128ab)" style="fill: none; stroke-dasharray: 5.55,2.4; stroke-dashoffset: 0; stroke: #ff7f0e; stroke-width: 1.5"/>
   </g>
   <g id="line2d_14">
    <path d="M 57.6 251.103881 
L 94.555849 252.606724 
L 135.428233 254.041279 
L 181.853833 255.443486 
L 235.08864 256.823928 
L 296.412215 258.18636 
L 367.240896 259.532218 
L 414.72 260.327865 
L 414.72 260.327865 
" clip-path="url(#p13dd0128ab)" style="fill: none; stroke: #ff0000; stroke-width: 1.5; stroke-linecap: square"/>
   </g>
   <g id="line2d_15">
    <path d="M -1 295.488 
L 461.8 295.488 
" clip-path="url(#p13dd0128ab)" style="fill: none; stroke-dasharray: 5.55,2.4; stroke-dashoffset: 0; stroke: #2ca02c; stroke-width: 1.5"/>
   </g>
   <g id="line2d_16">
    <path d="M -1 253.025648 
L 461.8 253.025648 
" clip-path="url(#p13dd0128ab)" style="fill: none; stroke-dasharray: 5.55,2.4; stroke-dashoffset: 0; stroke: #d62728; stroke-width: 1.5"/>
   </g>
   <g id="patch_3">
    <path d="M 57.6 307.584 
L 57.6 41.472 
" style="fill: none; stroke: #000000; stroke-width: 0.8; stroke-linejoin: miter; stroke-linecap: square"/>
   </g>
   <g id="patch_4">
    <path d="M 414.72 307.584 
L 414.72 41.472 
" style="fill: none; stroke: #000000; stroke-width: 0.8; stroke-linejoin: miter; stroke-linecap: square"/>
   </g>
   <g id="patch_5">
    <path d="M 57.6 307.584 
L 414.72 307.584 
" style="fill: none; stroke: #000000; stroke-width: 0.8; stroke-linejoin: miter; stroke-linecap: square"/>
   </g>
   <g id="patch_6">
    <path d="M 57.6 41.472 
L 414.72 41.472 
" style="fill: none; stroke: #000000; stroke-width: 0.8; stroke-linejoin: miter; stroke-linecap: square"/>
   </g>
   <g id="legend_1">
    <g id="patch_7">
     <path d="M 306.121563 93.506375 
L 407.72 93.506375 
Q 409.72 93.506375 409.72 91.506375 
L 409.72 48.472 
Q 409.72 46.472 407.72 46.472 
L 306.121563 46.472 
Q 304.121563 46.472 304.121563 48.472 
L 304.121563 91.506375 
Q 304.121563 93.506375 306.121563 93.506375 
z
" style="fill: #ffffff; opacity: 0.8; stroke: #cccccc; stroke-linejoin: miter"/>
    </g>
    <g id="line2d_17">
     <path d="M 308.121563 54.570438 
L 318.121563 54.570438 
L 328.121563 54.570438 
" style="fill: none; stroke: #1f77b4; stroke-width: 1.5; stroke-linecap: square"/>
    </g>
    <g id="text_14">
     <!-- Py2 0.177mm -->
     <g transform="translate(336.121563 58.070438)scale(0.1 -0.1)">
      <defs>
       <path id="DejaVuSans-2e" d="M 684 794 
L 1344 794 
L 1344 0 
L 684 0 
L 684 794 
z
" transform="scale(0.015625)"/>
       <path id="DejaVuSans-37" d="M 525 4666 
L 3525 4666 
L 3525 4397 
L 1831 0 
L 1172 0 
L 2766 4134 
L 525 4134 
L 525 4666 
z
" transform="scale(0.015625)"/>
      </defs>
      <use xlink:href="#DejaVuSans-50"/>
      <use xlink:href="#DejaVuSans-79" x="60.302734"/>
      <use xlink:href="#DejaVuSans-32" x="119.482422"/>
      <use xlink:href="#DejaVuSans-20" x="183.105469"/>
      <use xlink:href="#DejaVuSans-30" x="214.892578"/>
      <use xlink:href="#DejaVuSans-2e" x="278.515625"/>
      <use xlink:href="#DejaVuSans-31" x="310.302734"/>
      <use xlink:href="#DejaVuSans-37" x="373.925781"/>
      <use xlink:href="#DejaVuSans-37" x="437.548828"/>
      <use xlink:href="#DejaVuSans-6d" x="501.171875"/>
      <use xlink:href="#DejaVuSans-6d" x="598.583984"/>
     </g>
    </g>
    <g id="line2d_18">
     <path d="M 308.121563 69.248563 
L 318.121563 69.248563 
L 328.121563 69.248563 
" style="fill: none; stroke-dasharray: 5.55,2.4; stroke-dashoffset: 0; stroke: #ff7f0e; stroke-width: 1.5"/>
    </g>
    <g id="text_15">
     <!-- Py1 0.177mm -->
     <g transform="translate(336.121563 72.748563)scale(0.1 -0.1)">
      <use xlink:href="#DejaVuSans-50"/>
      <use xlink:href="#DejaVuSans-79" x="60.302734"/>
      <use xlink:href="#DejaVuSans-31" x="119.482422"/>
      <use xlink:href="#DejaVuSans-20" x="183.105469"/>
      <use xlink:href="#DejaVuSans-30" x="214.892578"/>
      <use xlink:href="#DejaVuSans-2e" x="278.515625"/>
      <use xlink:href="#DejaVuSans-31" x="310.302734"/>
      <use xlink:href="#DejaVuSans-37" x="373.925781"/>
      <use xlink:href="#DejaVuSans-37" x="437.548828"/>
      <use xlink:href="#DejaVuSans-6d" x="501.171875"/>
      <use xlink:href="#DejaVuSans-6d" x="598.583984"/>
     </g>
    </g>
    <g id="line2d_19">
     <path d="M 308.121563 83.926688 
L 318.121563 83.926688 
L 328.121563 83.926688 
" style="fill: none; stroke: #ff0000; stroke-width: 1.5; stroke-linecap: square"/>
    </g>
    <g id="text_16">
     <!-- Bi -->
     <g transform="translate(336.121563 87.426688)scale(0.1 -0.1)">
      <defs>
       <path id="DejaVuSans-42" d="M 1259 2228 
L 1259 519 
L 2272 519 
Q 2781 519 3026 730 
Q 3272 941 3272 1375 
Q 3272 1813 3026 2020 
Q 2781 2228 2272 2228 
L 1259 2228 
z
M 1259 4147 
L 1259 2741 
L 2194 2741 
Q 2656 2741 2882 2914 
Q 3109 3088 3109 3444 
Q 3109 3797 2882 3972 
Q 2656 4147 2194 4147 
L 1259 4147 
z
M 628 4666 
L 2241 4666 
Q 2963 4666 3353 4366 
Q 3744 4066 3744 3513 
Q 3744 3084 3544 2831 
Q 3344 2578 2956 2516 
Q 3422 2416 3680 2098 
Q 3938 1781 3938 1306 
Q 3938 681 3513 340 
Q 3088 0 2303 0 
L 628 0 
L 628 4666 
z
" transform="scale(0.015625)"/>
      </defs>
      <use xlink:href="#DejaVuSans-42"/>
      <use xlink:href="#DejaVuSans-69" x="68.603516"/>
     </g>
    </g>
   </g>
  </g>
 </g>
 <defs>
  <clipPath id="p13dd0128ab">
   <rect x="57.6" y="41.472" width="357.12" height="266.112"/>
  </clipPath>
 </defs>
</svg>
