<?xml version="1.0" encoding="utf-8" standalone="no"?>
<!DOCTYPE svg PUBLIC "-//W3C//DTD SVG 1.1//EN"
  "http://www.w3.org/Graphics/SVG/1.1/DTD/svg11.dtd">
<svg xmlns:xlink="http://www.w3.org/1999/xlink" width="460.8pt" height="345.6pt" viewBox="0 0 460.8 345.6" xmlns="http://www.w3.org/2000/svg" version="1.1">
 <metadata>
  <rdf:RDF xmlns:dc="http://purl.org/dc/elements/1.1/" xmlns:cc="http://creativecommons.org/ns#" xmlns:rdf="http://www.w3.org/1999/02/22-rdf-syntax-ns#">
   <cc:Work>
    <dc:type rdf:resource="http://purl.org/dc/dcmitype/StillImage"/>
    <dc:date>2022-04-26T11:49:55.080738</dc:date>
    <dc:format>image/svg+xml</dc:format>
    <dc:creator>
     <cc:Agent>
      <dc:title>Matplotlib v3.5.1, https://matplotlib.org/</dc:title>
     </cc:Agent>
    </dc:creator>
   </cc:Work>
  </rdf:RDF>
 </metadata>
 <defs>
  <style type="text/css">*{stroke-linejoin: round; stroke-linecap: butt}</style>
 </defs>
 <g id="figure_1">
  <g id="patch_1">
   <path d="M 0 345.6 
L 460.8 345.6 
L 460.8 0 
L 0 0 
z
" style="fill: #ffffff"/>
  </g>
  <g id="axes_1">
   <g id="patch_2">
    <path d="M 57.6 307.584 
L 414.72 307.584 
L 414.72 41.472 
L 57.6 41.472 
z
" style="fill: #ffffff"/>
   </g>
   <g id="matplotlib.axis_1">
    <g id="xtick_1">
     <g id="line2d_1">
      <defs>
       <path id="mce693af503" d="M 0 0 
L 0 3.5 
" style="stroke: #000000; stroke-width: 0.8"/>
      </defs>
      <g>
       <use xlink:href="#mce693af503" x="94.30298" y="307.584" style="stroke: #000000; stroke-width: 0.8"/>
      </g>
     </g>
     <g id="text_1">
      <!-- 400 -->
      <g transform="translate(84.75923 322.182437)scale(0.1 -0.1)">
       <defs>
        <path id="DejaVuSans-34" d="M 2419 4116 
L 825 1625 
L 2419 1625 
L 2419 4116 
z
M 2253 4666 
L 3047 4666 
L 3047 1625 
L 3713 1625 
L 3713 1100 
L 3047 1100 
L 3047 0 
L 2419 0 
L 2419 1100 
L 313 1100 
L 313 1709 
L 2253 4666 
z
" transform="scale(0.015625)"/>
        <path id="DejaVuSans-30" d="M 2034 4250 
Q 1547 4250 1301 3770 
Q 1056 3291 1056 2328 
Q 1056 1369 1301 889 
Q 1547 409 2034 409 
Q 2525 409 2770 889 
Q 3016 1369 3016 2328 
Q 3016 3291 2770 3770 
Q 2525 4250 2034 4250 
z
M 2034 4750 
Q 2819 4750 3233 4129 
Q 3647 3509 3647 2328 
Q 3647 1150 3233 529 
Q 2819 -91 2034 -91 
Q 1250 -91 836 529 
Q 422 1150 422 2328 
Q 422 3509 836 4129 
Q 1250 4750 2034 4750 
z
" transform="scale(0.015625)"/>
       </defs>
       <use xlink:href="#DejaVuSans-34"/>
       <use xlink:href="#DejaVuSans-30" x="63.623047"/>
       <use xlink:href="#DejaVuSans-30" x="127.246094"/>
      </g>
     </g>
    </g>
    <g id="xtick_2">
     <g id="line2d_2">
      <g>
       <use xlink:href="#mce693af503" x="167.708941" y="307.584" style="stroke: #000000; stroke-width: 0.8"/>
      </g>
     </g>
     <g id="text_2">
      <!-- 600 -->
      <g transform="translate(158.165191 322.182437)scale(0.1 -0.1)">
       <defs>
        <path id="DejaVuSans-36" d="M 2113 2584 
Q 1688 2584 1439 2293 
Q 1191 2003 1191 1497 
Q 1191 994 1439 701 
Q 1688 409 2113 409 
Q 2538 409 2786 701 
Q 3034 994 3034 1497 
Q 3034 2003 2786 2293 
Q 2538 2584 2113 2584 
z
M 3366 4563 
L 3366 3988 
Q 3128 4100 2886 4159 
Q 2644 4219 2406 4219 
Q 1781 4219 1451 3797 
Q 1122 3375 1075 2522 
Q 1259 2794 1537 2939 
Q 1816 3084 2150 3084 
Q 2853 3084 3261 2657 
Q 3669 2231 3669 1497 
Q 3669 778 3244 343 
Q 2819 -91 2113 -91 
Q 1303 -91 875 529 
Q 447 1150 447 2328 
Q 447 3434 972 4092 
Q 1497 4750 2381 4750 
Q 2619 4750 2861 4703 
Q 3103 4656 3366 4563 
z
" transform="scale(0.015625)"/>
       </defs>
       <use xlink:href="#DejaVuSans-36"/>
       <use xlink:href="#DejaVuSans-30" x="63.623047"/>
       <use xlink:href="#DejaVuSans-30" x="127.246094"/>
      </g>
     </g>
    </g>
    <g id="xtick_3">
     <g id="line2d_3">
      <g>
       <use xlink:href="#mce693af503" x="241.114902" y="307.584" style="stroke: #000000; stroke-width: 0.8"/>
      </g>
     </g>
     <g id="text_3">
      <!-- 800 -->
      <g transform="translate(231.571152 322.182437)scale(0.1 -0.1)">
       <defs>
        <path id="DejaVuSans-38" d="M 2034 2216 
Q 1584 2216 1326 1975 
Q 1069 1734 1069 1313 
Q 1069 891 1326 650 
Q 1584 409 2034 409 
Q 2484 409 2743 651 
Q 3003 894 3003 1313 
Q 3003 1734 2745 1975 
Q 2488 2216 2034 2216 
z
M 1403 2484 
Q 997 2584 770 2862 
Q 544 3141 544 3541 
Q 544 4100 942 4425 
Q 1341 4750 2034 4750 
Q 2731 4750 3128 4425 
Q 3525 4100 3525 3541 
Q 3525 3141 3298 2862 
Q 3072 2584 2669 2484 
Q 3125 2378 3379 2068 
Q 3634 1759 3634 1313 
Q 3634 634 3220 271 
Q 2806 -91 2034 -91 
Q 1263 -91 848 271 
Q 434 634 434 1313 
Q 434 1759 690 2068 
Q 947 2378 1403 2484 
z
M 1172 3481 
Q 1172 3119 1398 2916 
Q 1625 2713 2034 2713 
Q 2441 2713 2670 2916 
Q 2900 3119 2900 3481 
Q 2900 3844 2670 4047 
Q 2441 4250 2034 4250 
Q 1625 4250 1398 4047 
Q 1172 3844 1172 3481 
z
" transform="scale(0.015625)"/>
       </defs>
       <use xlink:href="#DejaVuSans-38"/>
       <use xlink:href="#DejaVuSans-30" x="63.623047"/>
       <use xlink:href="#DejaVuSans-30" x="127.246094"/>
      </g>
     </g>
    </g>
    <g id="xtick_4">
     <g id="line2d_4">
      <g>
       <use xlink:href="#mce693af503" x="314.520863" y="307.584" style="stroke: #000000; stroke-width: 0.8"/>
      </g>
     </g>
     <g id="text_4">
      <!-- 1000 -->
      <g transform="translate(301.795863 322.182437)scale(0.1 -0.1)">
       <defs>
        <path id="DejaVuSans-31" d="M 794 531 
L 1825 531 
L 1825 4091 
L 703 3866 
L 703 4441 
L 1819 4666 
L 2450 4666 
L 2450 531 
L 3481 531 
L 3481 0 
L 794 0 
L 794 531 
z
" transform="scale(0.015625)"/>
       </defs>
       <use xlink:href="#DejaVuSans-31"/>
       <use xlink:href="#DejaVuSans-30" x="63.623047"/>
       <use xlink:href="#DejaVuSans-30" x="127.246094"/>
       <use xlink:href="#DejaVuSans-30" x="190.869141"/>
      </g>
     </g>
    </g>
    <g id="xtick_5">
     <g id="line2d_5">
      <g>
       <use xlink:href="#mce693af503" x="387.926824" y="307.584" style="stroke: #000000; stroke-width: 0.8"/>
      </g>
     </g>
     <g id="text_5">
      <!-- 1200 -->
      <g transform="translate(375.201824 322.182437)scale(0.1 -0.1)">
       <defs>
        <path id="DejaVuSans-32" d="M 1228 531 
L 3431 531 
L 3431 0 
L 469 0 
L 469 531 
Q 828 903 1448 1529 
Q 2069 2156 2228 2338 
Q 2531 2678 2651 2914 
Q 2772 3150 2772 3378 
Q 2772 3750 2511 3984 
Q 2250 4219 1831 4219 
Q 1534 4219 1204 4116 
Q 875 4013 500 3803 
L 500 4441 
Q 881 4594 1212 4672 
Q 1544 4750 1819 4750 
Q 2544 4750 2975 4387 
Q 3406 4025 3406 3419 
Q 3406 3131 3298 2873 
Q 3191 2616 2906 2266 
Q 2828 2175 2409 1742 
Q 1991 1309 1228 531 
z
" transform="scale(0.015625)"/>
       </defs>
       <use xlink:href="#DejaVuSans-31"/>
       <use xlink:href="#DejaVuSans-32" x="63.623047"/>
       <use xlink:href="#DejaVuSans-30" x="127.246094"/>
       <use xlink:href="#DejaVuSans-30" x="190.869141"/>
      </g>
     </g>
    </g>
    <g id="text_6">
     <!-- Temperature (K) -->
     <g transform="translate(195.720937 335.860562)scale(0.1 -0.1)">
      <defs>
       <path id="DejaVuSans-54" d="M -19 4666 
L 3928 4666 
L 3928 4134 
L 2272 4134 
L 2272 0 
L 1638 0 
L 1638 4134 
L -19 4134 
L -19 4666 
z
" transform="scale(0.015625)"/>
       <path id="DejaVuSans-65" d="M 3597 1894 
L 3597 1613 
L 953 1613 
Q 991 1019 1311 708 
Q 1631 397 2203 397 
Q 2534 397 2845 478 
Q 3156 559 3463 722 
L 3463 178 
Q 3153 47 2828 -22 
Q 2503 -91 2169 -91 
Q 1331 -91 842 396 
Q 353 884 353 1716 
Q 353 2575 817 3079 
Q 1281 3584 2069 3584 
Q 2775 3584 3186 3129 
Q 3597 2675 3597 1894 
z
M 3022 2063 
Q 3016 2534 2758 2815 
Q 2500 3097 2075 3097 
Q 1594 3097 1305 2825 
Q 1016 2553 972 2059 
L 3022 2063 
z
" transform="scale(0.015625)"/>
       <path id="DejaVuSans-6d" d="M 3328 2828 
Q 3544 3216 3844 3400 
Q 4144 3584 4550 3584 
Q 5097 3584 5394 3201 
Q 5691 2819 5691 2113 
L 5691 0 
L 5113 0 
L 5113 2094 
Q 5113 2597 4934 2840 
Q 4756 3084 4391 3084 
Q 3944 3084 3684 2787 
Q 3425 2491 3425 1978 
L 3425 0 
L 2847 0 
L 2847 2094 
Q 2847 2600 2669 2842 
Q 2491 3084 2119 3084 
Q 1678 3084 1418 2786 
Q 1159 2488 1159 1978 
L 1159 0 
L 581 0 
L 581 3500 
L 1159 3500 
L 1159 2956 
Q 1356 3278 1631 3431 
Q 1906 3584 2284 3584 
Q 2666 3584 2933 3390 
Q 3200 3197 3328 2828 
z
" transform="scale(0.015625)"/>
       <path id="DejaVuSans-70" d="M 1159 525 
L 1159 -1331 
L 581 -1331 
L 581 3500 
L 1159 3500 
L 1159 2969 
Q 1341 3281 1617 3432 
Q 1894 3584 2278 3584 
Q 2916 3584 3314 3078 
Q 3713 2572 3713 1747 
Q 3713 922 3314 415 
Q 2916 -91 2278 -91 
Q 1894 -91 1617 61 
Q 1341 213 1159 525 
z
M 3116 1747 
Q 3116 2381 2855 2742 
Q 2594 3103 2138 3103 
Q 1681 3103 1420 2742 
Q 1159 2381 1159 1747 
Q 1159 1113 1420 752 
Q 1681 391 2138 391 
Q 2594 391 2855 752 
Q 3116 1113 3116 1747 
z
" transform="scale(0.015625)"/>
       <path id="DejaVuSans-72" d="M 2631 2963 
Q 2534 3019 2420 3045 
Q 2306 3072 2169 3072 
Q 1681 3072 1420 2755 
Q 1159 2438 1159 1844 
L 1159 0 
L 581 0 
L 581 3500 
L 1159 3500 
L 1159 2956 
Q 1341 3275 1631 3429 
Q 1922 3584 2338 3584 
Q 2397 3584 2469 3576 
Q 2541 3569 2628 3553 
L 2631 2963 
z
" transform="scale(0.015625)"/>
       <path id="DejaVuSans-61" d="M 2194 1759 
Q 1497 1759 1228 1600 
Q 959 1441 959 1056 
Q 959 750 1161 570 
Q 1363 391 1709 391 
Q 2188 391 2477 730 
Q 2766 1069 2766 1631 
L 2766 1759 
L 2194 1759 
z
M 3341 1997 
L 3341 0 
L 2766 0 
L 2766 531 
Q 2569 213 2275 61 
Q 1981 -91 1556 -91 
Q 1019 -91 701 211 
Q 384 513 384 1019 
Q 384 1609 779 1909 
Q 1175 2209 1959 2209 
L 2766 2209 
L 2766 2266 
Q 2766 2663 2505 2880 
Q 2244 3097 1772 3097 
Q 1472 3097 1187 3025 
Q 903 2953 641 2809 
L 641 3341 
Q 956 3463 1253 3523 
Q 1550 3584 1831 3584 
Q 2591 3584 2966 3190 
Q 3341 2797 3341 1997 
z
" transform="scale(0.015625)"/>
       <path id="DejaVuSans-74" d="M 1172 4494 
L 1172 3500 
L 2356 3500 
L 2356 3053 
L 1172 3053 
L 1172 1153 
Q 1172 725 1289 603 
Q 1406 481 1766 481 
L 2356 481 
L 2356 0 
L 1766 0 
Q 1100 0 847 248 
Q 594 497 594 1153 
L 594 3053 
L 172 3053 
L 172 3500 
L 594 3500 
L 594 4494 
L 1172 4494 
z
" transform="scale(0.015625)"/>
       <path id="DejaVuSans-75" d="M 544 1381 
L 544 3500 
L 1119 3500 
L 1119 1403 
Q 1119 906 1312 657 
Q 1506 409 1894 409 
Q 2359 409 2629 706 
Q 2900 1003 2900 1516 
L 2900 3500 
L 3475 3500 
L 3475 0 
L 2900 0 
L 2900 538 
Q 2691 219 2414 64 
Q 2138 -91 1772 -91 
Q 1169 -91 856 284 
Q 544 659 544 1381 
z
M 1991 3584 
L 1991 3584 
z
" transform="scale(0.015625)"/>
       <path id="DejaVuSans-20" transform="scale(0.015625)"/>
       <path id="DejaVuSans-28" d="M 1984 4856 
Q 1566 4138 1362 3434 
Q 1159 2731 1159 2009 
Q 1159 1288 1364 580 
Q 1569 -128 1984 -844 
L 1484 -844 
Q 1016 -109 783 600 
Q 550 1309 550 2009 
Q 550 2706 781 3412 
Q 1013 4119 1484 4856 
L 1984 4856 
z
" transform="scale(0.015625)"/>
       <path id="DejaVuSans-4b" d="M 628 4666 
L 1259 4666 
L 1259 2694 
L 3353 4666 
L 4166 4666 
L 1850 2491 
L 4331 0 
L 3500 0 
L 1259 2247 
L 1259 0 
L 628 0 
L 628 4666 
z
" transform="scale(0.015625)"/>
       <path id="DejaVuSans-29" d="M 513 4856 
L 1013 4856 
Q 1481 4119 1714 3412 
Q 1947 2706 1947 2009 
Q 1947 1309 1714 600 
Q 1481 -109 1013 -844 
L 513 -844 
Q 928 -128 1133 580 
Q 1338 1288 1338 2009 
Q 1338 2731 1133 3434 
Q 928 4138 513 4856 
z
" transform="scale(0.015625)"/>
      </defs>
      <use xlink:href="#DejaVuSans-54"/>
      <use xlink:href="#DejaVuSans-65" x="44.083984"/>
      <use xlink:href="#DejaVuSans-6d" x="105.607422"/>
      <use xlink:href="#DejaVuSans-70" x="203.019531"/>
      <use xlink:href="#DejaVuSans-65" x="266.496094"/>
      <use xlink:href="#DejaVuSans-72" x="328.019531"/>
      <use xlink:href="#DejaVuSans-61" x="369.132812"/>
      <use xlink:href="#DejaVuSans-74" x="430.412109"/>
      <use xlink:href="#DejaVuSans-75" x="469.621094"/>
      <use xlink:href="#DejaVuSans-72" x="533"/>
      <use xlink:href="#DejaVuSans-65" x="571.863281"/>
      <use xlink:href="#DejaVuSans-20" x="633.386719"/>
      <use xlink:href="#DejaVuSans-28" x="665.173828"/>
      <use xlink:href="#DejaVuSans-4b" x="704.1875"/>
      <use xlink:href="#DejaVuSans-29" x="769.763672"/>
     </g>
    </g>
   </g>
   <g id="matplotlib.axis_2">
    <g id="ytick_1">
     <g id="line2d_6">
      <defs>
       <path id="m6cf84d8a66" d="M 0 0 
L -3.5 0 
" style="stroke: #000000; stroke-width: 0.8"/>
      </defs>
      <g>
       <use xlink:href="#m6cf84d8a66" x="57.6" y="266.109591" style="stroke: #000000; stroke-width: 0.8"/>
      </g>
     </g>
     <g id="text_7">
      <!-- $\mathdefault{10^{0}}$ -->
      <g transform="translate(33 269.90881)scale(0.1 -0.1)">
       <use xlink:href="#DejaVuSans-31" transform="translate(0 0.765625)"/>
       <use xlink:href="#DejaVuSans-30" transform="translate(63.623047 0.765625)"/>
       <use xlink:href="#DejaVuSans-30" transform="translate(128.203125 39.046875)scale(0.7)"/>
      </g>
     </g>
    </g>
    <g id="ytick_2">
     <g id="line2d_7">
      <g>
       <use xlink:href="#m6cf84d8a66" x="57.6" y="207.352773" style="stroke: #000000; stroke-width: 0.8"/>
      </g>
     </g>
     <g id="text_8">
      <!-- $\mathdefault{10^{2}}$ -->
      <g transform="translate(33 211.151991)scale(0.1 -0.1)">
       <use xlink:href="#DejaVuSans-31" transform="translate(0 0.765625)"/>
       <use xlink:href="#DejaVuSans-30" transform="translate(63.623047 0.765625)"/>
       <use xlink:href="#DejaVuSans-32" transform="translate(128.203125 39.046875)scale(0.7)"/>
      </g>
     </g>
    </g>
    <g id="ytick_3">
     <g id="line2d_8">
      <g>
       <use xlink:href="#m6cf84d8a66" x="57.6" y="148.595955" style="stroke: #000000; stroke-width: 0.8"/>
      </g>
     </g>
     <g id="text_9">
      <!-- $\mathdefault{10^{4}}$ -->
      <g transform="translate(33 152.395173)scale(0.1 -0.1)">
       <use xlink:href="#DejaVuSans-31" transform="translate(0 0.684375)"/>
       <use xlink:href="#DejaVuSans-30" transform="translate(63.623047 0.684375)"/>
       <use xlink:href="#DejaVuSans-34" transform="translate(128.203125 38.965625)scale(0.7)"/>
      </g>
     </g>
    </g>
    <g id="ytick_4">
     <g id="line2d_9">
      <g>
       <use xlink:href="#m6cf84d8a66" x="57.6" y="89.839136" style="stroke: #000000; stroke-width: 0.8"/>
      </g>
     </g>
     <g id="text_10">
      <!-- $\mathdefault{10^{6}}$ -->
      <g transform="translate(33 93.638355)scale(0.1 -0.1)">
       <use xlink:href="#DejaVuSans-31" transform="translate(0 0.765625)"/>
       <use xlink:href="#DejaVuSans-30" transform="translate(63.623047 0.765625)"/>
       <use xlink:href="#DejaVuSans-36" transform="translate(128.203125 39.046875)scale(0.7)"/>
      </g>
     </g>
    </g>
    <g id="text_11">
     <!-- Pyrolysis number -->
     <g transform="translate(26.920312 217.554563)rotate(-90)scale(0.1 -0.1)">
      <defs>
       <path id="DejaVuSans-50" d="M 1259 4147 
L 1259 2394 
L 2053 2394 
Q 2494 2394 2734 2622 
Q 2975 2850 2975 3272 
Q 2975 3691 2734 3919 
Q 2494 4147 2053 4147 
L 1259 4147 
z
M 628 4666 
L 2053 4666 
Q 2838 4666 3239 4311 
Q 3641 3956 3641 3272 
Q 3641 2581 3239 2228 
Q 2838 1875 2053 1875 
L 1259 1875 
L 1259 0 
L 628 0 
L 628 4666 
z
" transform="scale(0.015625)"/>
       <path id="DejaVuSans-79" d="M 2059 -325 
Q 1816 -950 1584 -1140 
Q 1353 -1331 966 -1331 
L 506 -1331 
L 506 -850 
L 844 -850 
Q 1081 -850 1212 -737 
Q 1344 -625 1503 -206 
L 1606 56 
L 191 3500 
L 800 3500 
L 1894 763 
L 2988 3500 
L 3597 3500 
L 2059 -325 
z
" transform="scale(0.015625)"/>
       <path id="DejaVuSans-6f" d="M 1959 3097 
Q 1497 3097 1228 2736 
Q 959 2375 959 1747 
Q 959 1119 1226 758 
Q 1494 397 1959 397 
Q 2419 397 2687 759 
Q 2956 1122 2956 1747 
Q 2956 2369 2687 2733 
Q 2419 3097 1959 3097 
z
M 1959 3584 
Q 2709 3584 3137 3096 
Q 3566 2609 3566 1747 
Q 3566 888 3137 398 
Q 2709 -91 1959 -91 
Q 1206 -91 779 398 
Q 353 888 353 1747 
Q 353 2609 779 3096 
Q 1206 3584 1959 3584 
z
" transform="scale(0.015625)"/>
       <path id="DejaVuSans-6c" d="M 603 4863 
L 1178 4863 
L 1178 0 
L 603 0 
L 603 4863 
z
" transform="scale(0.015625)"/>
       <path id="DejaVuSans-73" d="M 2834 3397 
L 2834 2853 
Q 2591 2978 2328 3040 
Q 2066 3103 1784 3103 
Q 1356 3103 1142 2972 
Q 928 2841 928 2578 
Q 928 2378 1081 2264 
Q 1234 2150 1697 2047 
L 1894 2003 
Q 2506 1872 2764 1633 
Q 3022 1394 3022 966 
Q 3022 478 2636 193 
Q 2250 -91 1575 -91 
Q 1294 -91 989 -36 
Q 684 19 347 128 
L 347 722 
Q 666 556 975 473 
Q 1284 391 1588 391 
Q 1994 391 2212 530 
Q 2431 669 2431 922 
Q 2431 1156 2273 1281 
Q 2116 1406 1581 1522 
L 1381 1569 
Q 847 1681 609 1914 
Q 372 2147 372 2553 
Q 372 3047 722 3315 
Q 1072 3584 1716 3584 
Q 2034 3584 2315 3537 
Q 2597 3491 2834 3397 
z
" transform="scale(0.015625)"/>
       <path id="DejaVuSans-69" d="M 603 3500 
L 1178 3500 
L 1178 0 
L 603 0 
L 603 3500 
z
M 603 4863 
L 1178 4863 
L 1178 4134 
L 603 4134 
L 603 4863 
z
" transform="scale(0.015625)"/>
       <path id="DejaVuSans-6e" d="M 3513 2113 
L 3513 0 
L 2938 0 
L 2938 2094 
Q 2938 2591 2744 2837 
Q 2550 3084 2163 3084 
Q 1697 3084 1428 2787 
Q 1159 2491 1159 1978 
L 1159 0 
L 581 0 
L 581 3500 
L 1159 3500 
L 1159 2956 
Q 1366 3272 1645 3428 
Q 1925 3584 2291 3584 
Q 2894 3584 3203 3211 
Q 3513 2838 3513 2113 
z
" transform="scale(0.015625)"/>
       <path id="DejaVuSans-62" d="M 3116 1747 
Q 3116 2381 2855 2742 
Q 2594 3103 2138 3103 
Q 1681 3103 1420 2742 
Q 1159 2381 1159 1747 
Q 1159 1113 1420 752 
Q 1681 391 2138 391 
Q 2594 391 2855 752 
Q 3116 1113 3116 1747 
z
M 1159 2969 
Q 1341 3281 1617 3432 
Q 1894 3584 2278 3584 
Q 2916 3584 3314 3078 
Q 3713 2572 3713 1747 
Q 3713 922 3314 415 
Q 2916 -91 2278 -91 
Q 1894 -91 1617 61 
Q 1341 213 1159 525 
L 1159 0 
L 581 0 
L 581 4863 
L 1159 4863 
L 1159 2969 
z
" transform="scale(0.015625)"/>
      </defs>
      <use xlink:href="#DejaVuSans-50"/>
      <use xlink:href="#DejaVuSans-79" x="60.302734"/>
      <use xlink:href="#DejaVuSans-72" x="119.482422"/>
      <use xlink:href="#DejaVuSans-6f" x="158.345703"/>
      <use xlink:href="#DejaVuSans-6c" x="219.527344"/>
      <use xlink:href="#DejaVuSans-79" x="247.310547"/>
      <use xlink:href="#DejaVuSans-73" x="306.490234"/>
      <use xlink:href="#DejaVuSans-69" x="358.589844"/>
      <use xlink:href="#DejaVuSans-73" x="386.373047"/>
      <use xlink:href="#DejaVuSans-20" x="438.472656"/>
      <use xlink:href="#DejaVuSans-6e" x="470.259766"/>
      <use xlink:href="#DejaVuSans-75" x="533.638672"/>
      <use xlink:href="#DejaVuSans-6d" x="597.017578"/>
      <use xlink:href="#DejaVuSans-62" x="694.429688"/>
      <use xlink:href="#DejaVuSans-65" x="757.90625"/>
      <use xlink:href="#DejaVuSans-72" x="819.429688"/>
     </g>
    </g>
   </g>
   <g id="line2d_10">
    <path d="M 57.6 85.035323 
L 57.6 85.033722 
L 57.710109 85.219722 
L 60.774808 90.233044 
L 64.316645 95.638391 
L 66.647285 98.967783 
L 69.950553 103.369204 
L 73.070306 107.167178 
L 76.006545 110.397885 
L 78.704214 113.04338 
L 81.255071 115.244129 
L 81.383531 115.331112 
L 81.989131 115.812636 
L 82.117591 115.893522 
L 82.613081 116.256477 
L 84.760206 117.667021 
L 86.778869 118.733661 
L 88.669073 119.48087 
L 90.430816 119.968696 
L 90.559276 119.96075 
L 90.797846 120.033534 
L 90.926306 120.020787 
L 91.164876 120.087264 
L 91.293336 120.069573 
L 91.531905 120.129587 
L 91.660366 120.106876 
L 91.898935 120.160339 
L 92.027396 120.132602 
L 92.265965 120.17941 
L 92.394425 120.146462 
L 92.632995 120.186492 
L 92.761455 120.148217 
L 93.000025 120.18141 
L 93.128485 120.137755 
L 93.367054 120.163953 
L 93.495515 120.11485 
L 93.623975 120.103775 
L 95.202203 119.884056 
L 95.330664 119.806077 
L 95.459124 119.771928 
L 96.927244 119.260334 
L 98.395363 118.517346 
L 99.863482 117.534636 
L 101.44171 116.276848 
L 101.570171 116.087507 
L 101.625225 116.105282 
L 101.643577 116.017819 
L 103.350265 114.243935 
L 105.479038 111.759742 
L 105.607498 111.512663 
L 105.662553 111.526456 
L 105.680904 111.418871 
L 108.727252 107.624894 
L 108.782306 107.647613 
L 108.800658 107.543289 
L 109.828341 106.512355 
L 109.883396 106.542861 
L 109.901747 106.447893 
L 110.745916 105.817826 
L 110.80097 105.856828 
L 110.819322 105.773529 
L 111.479975 105.460687 
L 111.53503 105.507537 
L 111.553381 105.435856 
L 112.214035 105.308549 
L 112.342495 105.304381 
L 112.948095 105.377587 
L 113.186664 105.49619 
L 113.26007 105.475327 
L 113.865669 105.77994 
L 114.104238 105.97758 
L 114.12259 105.953632 
L 114.966758 106.6984 
L 115.407194 107.183905 
L 116.508284 108.640447 
L 117.976403 110.984098 
L 120.178582 114.972758 
L 131.4831 136.006818 
L 134.602853 141.295276 
L 136.860086 144.912736 
L 137.539091 145.954488 
L 139.080617 148.255866 
L 141.888395 152.151419 
L 144.402549 155.273517 
L 146.769891 157.881258 
L 146.843297 157.936453 
L 149.045476 160.01046 
L 151.1926 161.732759 
L 153.376428 163.227501 
L 153.449834 163.240779 
L 155.652012 164.436008 
L 157.799137 165.346403 
L 159.817801 165.951151 
L 161.65295 166.258098 
L 163.488099 166.320511 
L 165.855441 166.169989 
L 165.983901 166.103193 
L 166.112362 166.088475 
L 167.81905 165.933881 
L 167.947511 165.93051 
L 168.92014 165.961769 
L 169.158709 166.033445 
L 169.28717 166.010017 
L 169.525739 166.094977 
L 169.654199 166.082725 
L 169.892769 166.182518 
L 170.021229 166.182666 
L 170.259799 166.298725 
L 170.333205 166.291972 
L 171.122319 166.669492 
L 171.434294 166.864272 
L 172.351868 167.582847 
L 173.324497 168.578468 
L 175.655137 171.737858 
L 177.78391 175.087229 
L 178.095885 175.599329 
L 179.14192 177.274808 
L 182.812218 182.741055 
L 185.142857 185.605584 
L 187.216576 187.455527 
L 188.50118 188.134646 
L 189.547215 188.347159 
L 190.831819 188.077131 
L 192.116423 187.137258 
L 193.456082 185.372686 
L 194.667281 183.261538 
L 194.795741 182.879242 
L 194.850795 182.882347 
L 194.979256 182.491702 
L 195.03431 182.493858 
L 195.162771 182.095771 
L 195.217825 182.09699 
L 195.346286 181.692351 
L 195.40134 181.692729 
L 195.529801 181.28273 
L 195.584855 181.282452 
L 195.713316 180.868055 
L 195.76837 180.867245 
L 195.89683 180.449648 
L 195.951885 180.448355 
L 196.080345 180.028752 
L 196.1354 180.027211 
L 196.26386 179.606881 
L 196.318915 179.60517 
L 196.447375 179.185373 
L 196.50243 179.183672 
L 196.63089 178.765641 
L 196.685945 178.763954 
L 196.814405 178.348962 
L 196.869459 178.347699 
L 196.99792 177.936966 
L 197.052974 177.935948 
L 197.181435 177.530698 
L 197.236489 177.530269 
L 197.36495 177.131511 
L 197.420004 177.131823 
L 197.548465 176.740639 
L 197.603519 176.741625 
L 197.731979 176.359042 
L 197.787034 176.360862 
L 197.915494 175.987473 
L 197.970549 175.990299 
L 198.099009 175.62694 
L 198.154064 175.630702 
L 198.282524 175.277906 
L 198.337579 175.282783 
L 198.466039 174.940782 
L 198.521094 174.946761 
L 198.649554 174.615814 
L 198.704608 174.622932 
L 198.833069 174.303086 
L 198.888123 174.311323 
L 199.016584 174.002456 
L 199.071638 174.011827 
L 199.200099 173.713654 
L 199.255153 173.724112 
L 199.383614 173.436243 
L 199.438668 173.447749 
L 199.567128 173.16963 
L 199.622183 173.182125 
L 199.750643 172.913105 
L 199.805698 172.926508 
L 199.934158 172.66586 
L 199.989213 172.680097 
L 200.007564 172.57157 
L 201.035248 171.322538 
L 201.090302 171.339834 
L 201.108654 171.239548 
L 203.677862 168.081827 
L 205.017521 165.959342 
L 206.302125 163.486605 
L 207.696839 160.414276 
L 207.825299 159.961029 
L 207.880354 159.954644 
L 208.008814 159.493148 
L 208.063868 159.485913 
L 208.192329 159.016355 
L 208.247383 159.008302 
L 208.375844 158.530786 
L 208.430898 158.521954 
L 208.559359 158.036683 
L 208.614413 158.027069 
L 208.742874 157.534312 
L 208.797928 157.523966 
L 208.926388 157.023959 
L 208.981443 157.012886 
L 209.109903 156.505936 
L 209.164958 156.494202 
L 209.293418 155.980639 
L 209.348473 155.96826 
L 209.476933 155.4485 
L 209.531988 155.435561 
L 209.660448 154.910053 
L 209.715503 154.896586 
L 209.843963 154.365815 
L 209.899017 154.351929 
L 210.027478 153.816342 
L 210.082532 153.802162 
L 210.210993 153.262452 
L 210.266047 153.247974 
L 210.394508 152.704887 
L 210.449562 152.690186 
L 210.578023 152.14436 
L 210.633077 152.129525 
L 210.761538 151.58196 
L 210.816592 151.567091 
L 210.945052 151.018516 
L 211.000107 151.003727 
L 211.128567 150.45516 
L 211.183622 150.440675 
L 211.312082 149.892998 
L 211.367137 149.878877 
L 211.495597 149.333382 
L 211.550652 149.319792 
L 211.679112 148.777626 
L 211.734166 148.764649 
L 211.862627 148.226976 
L 211.917681 148.21481 
L 212.046142 147.683023 
L 212.101196 147.671886 
L 212.229657 147.147277 
L 212.284711 147.137291 
L 212.413172 146.621245 
L 212.468226 146.612539 
L 212.596687 146.106624 
L 212.651741 146.09937 
L 212.780201 145.604931 
L 212.835256 145.599365 
L 212.963716 145.11786 
L 213.018771 145.114136 
L 213.147231 144.646988 
L 213.202286 144.645291 
L 213.330746 144.19392 
L 213.385801 144.194411 
L 213.514261 143.760132 
L 213.569316 143.762984 
L 213.697776 143.347041 
L 213.75283 143.352394 
L 213.881291 142.955976 
L 213.936345 142.963964 
L 214.064806 142.588085 
L 214.11986 142.598816 
L 214.248321 142.244369 
L 214.303375 142.257972 
L 214.431836 141.925689 
L 214.48689 141.942211 
L 214.61535 141.632661 
L 214.670405 141.652186 
L 214.798865 141.365738 
L 214.85392 141.388277 
L 214.98238 141.125147 
L 215.037435 141.15073 
L 215.165895 140.910915 
L 215.22095 140.939535 
L 215.239301 140.83283 
L 215.71644 140.423538 
L 215.771494 140.460956 
L 215.789846 140.375822 
L 216.266985 140.155733 
L 216.395445 140.122213 
L 217.001044 140.093356 
L 217.239614 140.178276 
L 217.31302 140.151613 
L 218.102134 140.470286 
L 218.340703 140.636586 
L 218.359054 140.615552 
L 219.570253 141.470333 
L 219.992337 141.832874 
L 220.065743 141.867984 
L 224.231531 145.143643 
L 225.93822 146.154338 
L 227.406339 146.777543 
L 228.801052 147.170033 
L 228.929513 147.140563 
L 229.057973 147.156593 
L 230.287523 147.189384 
L 231.443667 147.008744 
L 232.654865 146.655127 
L 232.783326 146.527182 
L 232.83838 146.570727 
L 232.856732 146.491792 
L 234.122985 145.818541 
L 234.251445 145.649453 
L 234.306499 145.687831 
L 234.324851 145.595555 
L 235.591104 144.609157 
L 235.719564 144.398616 
L 235.774619 144.43168 
L 235.79297 144.325995 
L 237.132629 142.84217 
L 238.545694 140.941203 
L 240.013813 138.59322 
L 241.481932 135.834811 
L 242.950051 132.609032 
L 244.418171 128.846721 
L 246.051453 124.144764 
L 246.179914 123.575111 
L 246.234968 123.557525 
L 246.363429 122.981384 
L 246.418483 122.962685 
L 246.546943 122.380473 
L 246.601998 122.36067 
L 246.730458 121.772731 
L 246.785513 121.75175 
L 246.913973 121.158788 
L 246.969028 121.13674 
L 247.097488 120.539222 
L 247.152543 120.516142 
L 247.281003 119.914735 
L 247.336058 119.890672 
L 247.464518 119.286174 
L 247.519572 119.261079 
L 247.648033 118.654317 
L 247.703087 118.628256 
L 247.831548 118.020081 
L 247.886602 117.993258 
L 248.015063 117.38466 
L 248.070117 117.357065 
L 248.198578 116.748982 
L 248.253632 116.720779 
L 248.382092 116.114428 
L 248.437147 116.085645 
L 248.565607 115.482227 
L 248.620662 115.452975 
L 248.749122 114.8538 
L 248.804177 114.824178 
L 248.932637 114.230566 
L 248.987692 114.200705 
L 249.116152 113.614061 
L 249.171207 113.584064 
L 249.299667 113.005851 
L 249.354721 112.975872 
L 249.483182 112.407556 
L 249.538236 112.377712 
L 249.666697 111.820814 
L 249.721751 111.791235 
L 249.850212 111.24727 
L 249.905266 111.218101 
L 250.033727 110.688527 
L 250.088781 110.659905 
L 250.217242 110.146177 
L 250.272296 110.118246 
L 250.400756 109.62172 
L 250.455811 109.594636 
L 250.584271 109.116605 
L 250.639326 109.090457 
L 250.767786 108.632118 
L 250.822841 108.607069 
L 250.951301 108.169446 
L 251.006356 108.145585 
L 251.134816 107.729572 
L 251.189871 107.70701 
L 251.318331 107.313318 
L 251.373385 107.29216 
L 251.501846 106.921351 
L 251.5569 106.901641 
L 251.685361 106.554054 
L 251.758767 106.414097 
L 252.41942 105.332733 
L 252.492826 105.232026 
L 253.15348 104.487198 
L 253.28194 104.373919 
L 254.016 103.893488 
L 254.805114 103.627747 
L 255.300604 103.553814 
L 256.530154 103.552449 
L 258.842442 103.82349 
L 275.799219 106.706503 
L 280.313686 107.801053 
L 285.452103 109.408461 
L 289.672946 111.123188 
L 293.471704 113.041782 
L 296.462997 114.829368 
L 300.188349 117.405097 
L 302.096904 118.867741 
L 305.583688 121.769693 
L 309.565961 125.386586 
L 314.759433 130.436027 
L 329.202055 144.664428 
L 333.110923 148.106782 
L 336.414191 150.725934 
L 339.277024 152.734639 
L 339.405484 152.80188 
L 339.900974 153.114281 
L 342.415128 154.546443 
L 344.782471 155.666505 
L 344.910931 155.69558 
L 345.222906 155.819166 
L 347.535194 156.622051 
L 347.663655 156.630773 
L 347.920576 156.700381 
L 350.287918 157.243669 
L 350.416378 157.234435 
L 350.654948 157.304343 
L 350.783408 157.293149 
L 351.021977 157.360584 
L 351.150438 157.3475 
L 351.389007 157.412562 
L 351.517468 157.397776 
L 351.756037 157.460676 
L 351.884497 157.444312 
L 352.123067 157.505199 
L 352.251527 157.487437 
L 352.490097 157.546513 
L 352.618557 157.527473 
L 352.857126 157.584993 
L 352.985587 157.56491 
L 353.224156 157.621066 
L 353.352617 157.600115 
L 353.591186 157.655152 
L 353.719646 157.633449 
L 353.958216 157.687553 
L 354.086676 157.665385 
L 354.325246 157.718851 
L 354.453706 157.696334 
L 354.692275 157.749454 
L 354.820736 157.726815 
L 355.059305 157.779706 
L 355.187766 157.757175 
L 355.426335 157.810178 
L 355.554795 157.787925 
L 355.793365 157.841208 
L 355.921825 157.819516 
L 356.160395 157.873301 
L 356.288855 157.852227 
L 356.527424 157.906844 
L 356.655885 157.886613 
L 356.894454 157.942163 
L 357.022915 157.922943 
L 357.261484 157.979693 
L 357.389945 157.96165 
L 357.628514 158.019696 
L 357.756974 158.002939 
L 357.995544 158.062483 
L 358.124004 158.04712 
L 358.362573 158.108305 
L 358.491034 158.094442 
L 358.729603 158.157352 
L 358.858064 158.145038 
L 359.096633 158.209754 
L 359.225094 158.199035 
L 359.463663 158.26558 
L 359.592123 158.256502 
L 359.830693 158.324897 
L 359.959153 158.317447 
L 360.216074 158.362073 
L 363.262421 158.99208 
L 363.519342 159.049911 
L 367.244695 159.78199 
L 369.263359 159.949051 
L 371.025102 159.902578 
L 371.153562 159.84871 
L 371.282023 159.831039 
L 372.860251 159.530554 
L 372.988711 159.447696 
L 373.117172 159.406899 
L 374.585291 158.811753 
L 375.998356 157.997218 
L 377.448123 156.954787 
L 377.576584 156.779224 
L 377.631638 156.794966 
L 377.64999 156.714044 
L 379.099757 155.339837 
L 379.228218 155.124483 
L 379.283272 155.135291 
L 379.301624 155.041287 
L 380.769743 153.202885 
L 382.292917 150.928221 
L 383.889496 148.134171 
L 385.706294 144.570069 
L 385.834754 144.184788 
L 385.889809 144.173067 
L 386.018269 143.783854 
L 386.073324 143.771539 
L 386.201784 143.378501 
L 386.256839 143.365581 
L 386.385299 142.968869 
L 386.440354 142.955367 
L 386.568814 142.555121 
L 386.623868 142.541048 
L 386.752329 142.137435 
L 386.807383 142.122803 
L 386.935844 141.715999 
L 386.990898 141.700802 
L 387.119359 141.290993 
L 387.174413 141.275269 
L 387.302874 140.862649 
L 387.357928 140.846397 
L 387.486388 140.431191 
L 387.541443 140.414435 
L 387.669903 139.996857 
L 387.724958 139.979601 
L 387.853418 139.559893 
L 387.908473 139.542192 
L 388.036933 139.120609 
L 388.091988 139.102449 
L 388.220448 138.679251 
L 388.275503 138.660672 
L 388.403963 138.236181 
L 388.459017 138.217172 
L 388.587478 137.791693 
L 388.642532 137.772302 
L 388.770993 137.346118 
L 388.826047 137.326369 
L 388.954508 136.899822 
L 389.009562 136.879774 
L 389.138023 136.453215 
L 389.193077 136.43287 
L 389.321538 136.00665 
L 389.376592 135.986045 
L 389.505052 135.560548 
L 389.560107 135.539693 
L 389.688567 135.115336 
L 389.743622 135.094307 
L 389.872082 134.671473 
L 389.927137 134.650254 
L 390.055597 134.229387 
L 390.110652 134.208066 
L 390.239112 133.789569 
L 390.294166 133.768133 
L 390.422627 133.352429 
L 390.477681 133.330979 
L 390.606142 132.918559 
L 390.661196 132.897045 
L 390.789657 132.488339 
L 390.844711 132.466915 
L 390.973172 132.062371 
L 391.028226 132.04099 
L 391.156687 131.641114 
L 391.211741 131.619857 
L 391.340201 131.225082 
L 391.395256 131.203991 
L 391.523716 130.814755 
L 391.578771 130.793873 
L 391.707231 130.410616 
L 391.762286 130.38999 
L 391.890746 130.013252 
L 391.945801 129.992882 
L 392.074261 129.622999 
L 392.129316 129.602986 
L 392.257776 129.240441 
L 392.31283 129.220783 
L 392.441291 128.865939 
L 392.496345 128.846691 
L 392.624806 128.499944 
L 392.67986 128.481161 
L 392.808321 128.142831 
L 392.881727 128.002586 
L 394.092925 125.919344 
L 394.166331 125.80784 
L 395.194014 124.429702 
L 395.26742 124.344188 
L 396.295104 123.317211 
L 396.423564 123.209905 
L 397.396193 122.528673 
L 397.634763 122.421769 
L 397.763223 122.324924 
L 398.001792 122.231417 
L 398.130253 122.145695 
L 398.387174 122.033247 
L 399.781887 121.568363 
L 400.203971 121.478747 
L 400.405838 121.417728 
L 402.90164 120.982987 
L 403.507239 120.90706 
L 403.76416 120.861045 
L 410.058721 120.097773 
L 410.921242 120.014239 
L 414.72 119.55795 
L 414.72 118.706595 
L 414.72 118.706595 
" clip-path="url(#p4d50bb6020)" style="fill: none; stroke: #1f77b4; stroke-width: 1.5; stroke-linecap: square"/>
   </g>
   <g id="line2d_11">
    <path d="M 57.6 53.569601 
L 57.6 53.568 
L 57.710109 53.760234 
L 60.829862 59.036299 
L 63.63764 63.508895 
L 65.72971 66.666304 
L 69.161439 71.527059 
L 72.446356 75.794485 
L 72.886791 76.329034 
L 75.933139 79.867164 
L 76.19006 80.138511 
L 78.887729 82.903402 
L 81.438586 85.213609 
L 81.567046 85.30566 
L 82.172645 85.812844 
L 82.301106 85.898695 
L 82.796596 86.282215 
L 84.94372 87.779618 
L 86.962384 88.924657 
L 88.797533 89.722322 
L 90.504222 90.23655 
L 92.155856 90.506932 
L 93.734084 90.580333 
L 93.862545 90.531964 
L 93.991005 90.5228 
L 95.569233 90.324882 
L 95.697694 90.247225 
L 95.826154 90.2145 
L 97.294273 89.717861 
L 98.762393 88.987054 
L 100.230512 88.014725 
L 101.827091 86.682154 
L 103.53378 84.958491 
L 105.662553 82.549905 
L 105.791013 82.307695 
L 105.846068 82.324187 
L 105.864419 82.21699 
L 108.727252 78.792676 
L 108.782306 78.817975 
L 108.800658 78.71451 
L 109.828341 77.731615 
L 109.883396 77.764689 
L 109.901747 77.670578 
L 110.745916 77.079831 
L 110.80097 77.121394 
L 110.819322 77.038949 
L 111.479975 76.75679 
L 111.53503 76.806194 
L 111.553381 76.735364 
L 112.214035 76.638663 
L 112.342495 76.640437 
L 112.948095 76.741624 
L 113.186664 76.871233 
L 113.26007 76.853755 
L 114.049184 77.316143 
L 114.287753 77.539743 
L 114.306105 77.519903 
L 115.150273 78.358456 
L 115.645764 78.959756 
L 116.801908 80.618811 
L 122.490869 91.17771 
L 128.913891 103.515833 
L 132.896164 110.695113 
L 136.493057 116.746714 
L 137.300522 118.031396 
L 140.346869 122.642685 
L 140.658845 123.07974 
L 141.70488 124.537733 
L 144.274088 127.858556 
L 146.659782 130.58366 
L 148.97207 132.899177 
L 149.045476 132.942718 
L 151.247655 134.79516 
L 153.449834 136.352007 
L 155.652012 137.635793 
L 157.799137 138.631945 
L 159.817801 139.316798 
L 161.65295 139.696132 
L 163.488099 139.830524 
L 165.855441 139.772257 
L 165.983901 139.710448 
L 166.112362 139.700715 
L 167.81905 139.612164 
L 167.947511 139.613751 
L 168.92014 139.68248 
L 169.158709 139.763329 
L 169.28717 139.744838 
L 169.525739 139.838962 
L 169.654199 139.831642 
L 169.892769 139.940588 
L 169.966175 139.927703 
L 170.755289 140.265199 
L 171.067264 140.442175 
L 171.984839 141.106774 
L 172.957468 142.050271 
L 175.600082 145.63242 
L 177.435231 148.586253 
L 183.179248 157.48972 
L 185.381427 160.190278 
L 187.033061 161.72444 
L 188.317665 162.510087 
L 189.418754 162.818536 
L 190.336329 162.765759 
L 191.253903 162.389347 
L 192.171478 161.65649 
L 193.199161 160.487063 
L 193.327622 160.199422 
L 193.382676 160.215263 
L 193.511137 159.914789 
L 193.566191 159.92912 
L 193.694652 159.61615 
L 193.749706 159.629024 
L 193.878166 159.30387 
L 193.933221 159.31528 
L 194.061681 158.97848 
L 194.116736 158.988478 
L 194.245196 158.640443 
L 194.300251 158.649148 
L 194.428711 158.290554 
L 194.483766 158.297959 
L 194.612226 157.929438 
L 194.667281 157.935675 
L 194.795741 157.557959 
L 194.850795 157.563026 
L 194.979256 157.176959 
L 195.03431 157.181075 
L 195.162771 156.787563 
L 195.217825 156.790743 
L 195.346286 156.390676 
L 195.40134 156.393013 
L 195.529801 155.987584 
L 195.584855 155.989265 
L 195.713316 155.579436 
L 195.76837 155.580582 
L 195.89683 155.16755 
L 195.951885 155.168213 
L 196.080345 154.753173 
L 196.1354 154.753588 
L 196.26386 154.337818 
L 196.318915 154.338061 
L 196.447375 153.922822 
L 196.50243 153.923075 
L 196.63089 153.509599 
L 196.685945 153.509864 
L 196.814405 153.099426 
L 196.869459 153.100113 
L 196.99792 152.693931 
L 197.052974 152.694864 
L 197.181435 152.294162 
L 197.236489 152.295682 
L 197.36495 151.90147 
L 197.420004 151.90373 
L 197.548465 151.51709 
L 197.603519 151.520023 
L 197.731979 151.141982 
L 197.787034 151.145748 
L 197.915494 150.776898 
L 197.970549 150.781669 
L 198.099009 150.422846 
L 198.154064 150.428553 
L 198.282524 150.080291 
L 198.337579 150.08711 
L 198.466039 149.749641 
L 198.521094 149.757562 
L 198.649554 149.431145 
L 198.704608 149.440204 
L 198.833069 149.124885 
L 198.888123 149.135062 
L 199.016584 148.830721 
L 199.071638 148.84203 
L 199.200099 148.54838 
L 199.255153 148.560775 
L 199.383614 148.277427 
L 199.438668 148.29087 
L 199.567128 148.017269 
L 199.622183 148.0317 
L 199.750643 147.767195 
L 199.805698 147.782533 
L 199.934158 147.526398 
L 199.989213 147.542569 
L 200.007564 147.434687 
L 201.035248 146.221695 
L 201.090302 146.240919 
L 201.108654 146.141276 
L 203.677862 143.073182 
L 204.962467 141.091718 
L 206.247071 138.682617 
L 207.696839 135.544551 
L 207.825299 135.095718 
L 207.880354 135.091225 
L 208.008814 134.634142 
L 208.063868 134.628797 
L 208.192329 134.16365 
L 208.247383 134.157486 
L 208.375844 133.684378 
L 208.430898 133.677435 
L 208.559359 133.19657 
L 208.614413 133.188844 
L 208.742874 132.700489 
L 208.797928 132.692031 
L 208.926388 132.196424 
L 208.981443 132.187238 
L 209.109903 131.684686 
L 209.164958 131.674837 
L 209.293418 131.165671 
L 209.348473 131.155177 
L 209.476933 130.639811 
L 209.531988 130.628755 
L 209.660448 130.107639 
L 209.715503 130.096055 
L 209.843963 129.569674 
L 209.899017 129.557669 
L 210.027478 129.02647 
L 210.082532 129.01417 
L 210.210993 128.478846 
L 210.266047 128.466247 
L 210.394508 127.927543 
L 210.449562 127.914721 
L 210.578023 127.373276 
L 210.633077 127.360318 
L 210.761538 126.817132 
L 210.816592 126.804139 
L 210.945052 126.259941 
L 211.000107 126.247028 
L 211.128567 125.702835 
L 211.183622 125.690224 
L 211.312082 125.14692 
L 211.367137 125.134673 
L 211.495597 124.593547 
L 211.550652 124.58183 
L 211.679112 124.044032 
L 211.734166 124.032927 
L 211.862627 123.49962 
L 211.917681 123.489324 
L 212.046142 122.961901 
L 212.101196 122.952634 
L 212.229657 122.432386 
L 212.284711 122.424269 
L 212.413172 121.912583 
L 212.468226 121.905744 
L 212.596687 121.404186 
L 212.651741 121.398799 
L 212.780201 120.908714 
L 212.835256 120.905014 
L 212.963716 120.427862 
L 213.018771 120.426003 
L 213.147231 119.963205 
L 213.202286 119.963373 
L 213.330746 119.51635 
L 213.385801 119.518704 
L 213.514261 119.088771 
L 213.569316 119.093485 
L 213.697776 118.681886 
L 213.75283 118.689101 
L 213.881291 118.297024 
L 213.936345 118.306872 
L 214.064806 117.935334 
L 214.11986 117.947923 
L 214.248321 117.597814 
L 214.303375 117.613275 
L 214.431836 117.285328 
L 214.48689 117.303708 
L 214.61535 116.99849 
L 214.670405 117.019872 
L 214.798865 116.737755 
L 214.85392 116.76215 
L 214.98238 116.503348 
L 215.037435 116.530786 
L 215.055786 116.417252 
L 215.532925 115.957327 
L 215.587979 115.993715 
L 215.606331 115.902203 
L 216.08347 115.637294 
L 216.138524 115.681995 
L 216.156876 115.610744 
L 216.634014 115.520119 
L 216.762475 115.518744 
L 217.368074 115.624653 
L 217.606643 115.750035 
L 217.680049 115.741476 
L 218.469163 116.17784 
L 218.781139 116.392229 
L 220.304312 117.620463 
L 220.726397 118.009771 
L 220.799803 118.049367 
L 223.84615 120.581671 
L 223.919556 120.606257 
L 225.699651 121.764305 
L 227.222824 122.497486 
L 228.617538 122.967936 
L 228.745998 122.946795 
L 228.929513 122.979925 
L 229.057973 123.000124 
L 230.287523 123.072739 
L 231.443667 122.929429 
L 232.654865 122.614797 
L 232.783326 122.49098 
L 232.83838 122.536293 
L 232.856732 122.457947 
L 234.012876 121.820493 
L 235.242425 120.888459 
L 236.52703 119.634689 
L 237.976798 117.977978 
L 238.105258 117.704658 
L 238.160312 117.730748 
L 238.288773 117.452252 
L 238.343827 117.477661 
L 238.472288 117.193973 
L 238.527342 117.218693 
L 238.655803 116.929802 
L 238.710857 116.953845 
L 238.839318 116.659704 
L 238.894372 116.683039 
L 239.022832 116.383623 
L 239.077887 116.40626 
L 239.206347 116.101528 
L 239.261402 116.123455 
L 239.389862 115.813389 
L 239.444917 115.834572 
L 239.573377 115.519095 
L 239.628432 115.539564 
L 239.756892 115.218619 
L 239.811947 115.238338 
L 239.940407 114.911872 
L 239.995461 114.930848 
L 240.123922 114.59879 
L 240.178976 114.617007 
L 240.307437 114.279284 
L 240.362491 114.296725 
L 240.490952 113.953243 
L 240.546006 113.96989 
L 240.674467 113.620554 
L 240.729521 113.63644 
L 240.857982 113.281158 
L 240.913036 113.29621 
L 241.041496 112.934916 
L 241.096551 112.94914 
L 241.225011 112.58169 
L 241.280066 112.595064 
L 241.408526 112.221339 
L 241.463581 112.233897 
L 241.592041 111.853808 
L 241.647096 111.865438 
L 241.775556 111.478869 
L 241.83061 111.489636 
L 241.959071 111.09644 
L 242.014125 111.106286 
L 242.142586 110.706381 
L 242.19764 110.715279 
L 242.326101 110.308488 
L 242.381155 110.316475 
L 242.509616 109.902686 
L 242.56467 109.909664 
L 242.693131 109.48877 
L 242.748185 109.494778 
L 242.876645 109.06668 
L 242.9317 109.071649 
L 243.06016 108.636176 
L 243.115215 108.64011 
L 243.243675 108.197173 
L 243.29873 108.200076 
L 243.42719 107.749557 
L 243.482245 107.751395 
L 243.610705 107.293226 
L 243.66576 107.293964 
L 243.79422 106.828005 
L 243.849274 106.82765 
L 243.977735 106.353862 
L 244.032789 106.352377 
L 244.16125 105.870698 
L 244.216304 105.868044 
L 244.344765 105.37843 
L 244.399819 105.374619 
L 244.52828 104.877052 
L 244.583334 104.8721 
L 244.711794 104.366542 
L 244.766849 104.360414 
L 244.895309 103.84691 
L 244.950364 103.83957 
L 245.078824 103.318206 
L 245.133879 103.30962 
L 245.262339 102.780472 
L 245.317394 102.770665 
L 245.445854 102.233793 
L 245.500909 102.2228 
L 245.629369 101.678381 
L 245.684423 101.666177 
L 245.812884 101.114455 
L 245.867938 101.101019 
L 245.996399 100.542166 
L 246.051453 100.527553 
L 246.179914 99.961887 
L 246.234968 99.94601 
L 246.363429 99.373854 
L 246.418483 99.356862 
L 246.546943 98.778634 
L 246.601998 98.760538 
L 246.730458 98.17658 
L 246.785513 98.157306 
L 246.913973 97.568323 
L 246.969028 97.547981 
L 247.097488 96.95444 
L 247.152543 96.933065 
L 247.281003 96.335634 
L 247.336058 96.313274 
L 247.464518 95.712751 
L 247.519572 95.689358 
L 247.648033 95.086569 
L 247.703087 95.06221 
L 247.831548 94.458005 
L 247.886602 94.432884 
L 248.015063 93.828255 
L 248.070117 93.80236 
L 248.198578 93.198243 
L 248.253632 93.17174 
L 248.382092 92.569354 
L 248.437147 92.54227 
L 248.565607 91.942816 
L 248.620662 91.915262 
L 248.749122 91.320048 
L 248.804177 91.292123 
L 248.932637 90.70247 
L 248.987692 90.674306 
L 249.116152 90.09162 
L 249.171207 90.063319 
L 249.299667 89.489061 
L 249.354721 89.460777 
L 249.483182 88.896415 
L 249.538236 88.868265 
L 249.666697 88.315319 
L 249.721751 88.287434 
L 249.850212 87.747419 
L 249.905266 87.719943 
L 250.033727 87.194317 
L 250.088781 87.167387 
L 250.217242 86.657605 
L 250.272296 86.631366 
L 250.400756 86.138785 
L 250.455811 86.113391 
L 250.584271 85.639302 
L 250.639326 85.614844 
L 250.767786 85.160446 
L 250.822841 85.137085 
L 250.951301 84.703402 
L 251.006356 84.681229 
L 251.134816 84.269154 
L 251.189871 84.248278 
L 251.318331 83.858522 
L 251.373385 83.839051 
L 251.501846 83.472176 
L 251.5569 83.454151 
L 251.685361 83.110496 
L 251.758767 82.972786 
L 252.41942 81.91162 
L 252.492826 81.813154 
L 253.15348 81.088487 
L 253.28194 80.979125 
L 254.016 80.521049 
L 254.805114 80.279293 
L 255.300604 80.220398 
L 256.530154 80.256265 
L 258.842442 80.597018 
L 275.982734 84.024732 
L 280.4972 85.258664 
L 285.635618 87.028154 
L 289.85646 88.878925 
L 293.710273 90.953964 
L 297.380571 93.307782 
L 301.124275 96.092221 
L 304.537653 98.944772 
L 309.253986 103.294745 
L 314.263942 108.277612 
L 323.146064 117.414148 
L 328.816674 123.027346 
L 329.202055 123.386551 
L 333.110923 126.928368 
L 336.414191 129.630926 
L 339.295375 131.708337 
L 341.864584 133.296899 
L 344.250277 134.519509 
L 346.61762 135.501282 
L 346.74608 135.519802 
L 347.003001 135.606366 
L 349.370343 136.297119 
L 349.498804 136.296481 
L 349.737373 136.379128 
L 349.865834 136.376244 
L 350.104403 136.456051 
L 350.232863 136.451001 
L 350.471433 136.528081 
L 350.599893 136.521003 
L 350.838462 136.595464 
L 350.966923 136.586429 
L 351.205492 136.658493 
L 351.333953 136.64769 
L 351.572522 136.717453 
L 351.700983 136.704949 
L 351.939552 136.772621 
L 352.068012 136.758656 
L 352.306582 136.824442 
L 352.435042 136.809137 
L 352.673612 136.873235 
L 352.802072 136.856768 
L 353.040641 136.91943 
L 353.169102 136.901977 
L 353.407671 136.963336 
L 353.536132 136.94507 
L 353.774701 137.005429 
L 353.903161 136.986581 
L 354.141731 137.046121 
L 354.270191 137.026863 
L 354.508761 137.085879 
L 354.637221 137.066441 
L 354.87579 137.125165 
L 355.004251 137.105661 
L 355.24282 137.16438 
L 355.371281 137.145095 
L 355.60985 137.203921 
L 355.73831 137.185024 
L 355.97688 137.244294 
L 356.10534 137.226013 
L 356.34391 137.285945 
L 356.47237 137.268336 
L 356.710939 137.329148 
L 356.8394 137.312548 
L 357.077969 137.374394 
L 357.20643 137.358857 
L 357.444999 137.421947 
L 357.573459 137.407641 
L 357.812029 137.472179 
L 357.940489 137.459211 
L 358.179059 137.525287 
L 358.307519 137.513763 
L 358.546088 137.581519 
L 358.674549 137.571489 
L 358.913118 137.641007 
L 359.041579 137.632575 
L 359.280148 137.703934 
L 359.408608 137.697145 
L 359.647178 137.770312 
L 359.775638 137.765156 
L 360.032559 137.814727 
L 363.078906 138.508251 
L 363.335827 138.572115 
L 367.354804 139.484846 
L 367.483264 139.475489 
L 367.721834 139.539598 
L 367.850294 139.527217 
L 368.088863 139.587311 
L 368.217324 139.571578 
L 368.455893 139.627371 
L 368.584354 139.608096 
L 368.822923 139.659201 
L 368.951383 139.63614 
L 369.189953 139.682263 
L 369.318413 139.655117 
L 369.556983 139.696004 
L 369.685443 139.664609 
L 369.924012 139.699948 
L 370.052473 139.663984 
L 370.291042 139.693549 
L 370.419503 139.652827 
L 370.658072 139.676279 
L 370.786532 139.630598 
L 371.025102 139.647678 
L 371.153562 139.59682 
L 371.337077 139.575472 
L 371.465538 139.558614 
L 373.043766 139.267228 
L 373.172226 139.18421 
L 373.300687 139.143877 
L 374.713751 138.579013 
L 376.163519 137.807884 
L 376.291979 137.66402 
L 376.347034 137.68461 
L 376.365385 137.613576 
L 377.815153 136.533391 
L 377.943614 136.352231 
L 377.998668 136.368188 
L 378.01702 136.284877 
L 379.466787 134.866677 
L 379.595248 134.644995 
L 379.650302 134.655961 
L 379.668654 134.559387 
L 381.136773 132.669029 
L 382.659947 130.337426 
L 384.256526 127.484338 
L 386.073324 123.86389 
L 386.201784 123.473773 
L 386.256839 123.462103 
L 386.385299 123.06831 
L 386.440354 123.05606 
L 386.568814 122.658732 
L 386.623868 122.645909 
L 386.752329 122.245213 
L 386.807383 122.231831 
L 386.935844 121.827943 
L 386.990898 121.813995 
L 387.119359 121.407101 
L 387.174413 121.392626 
L 387.302874 120.98292 
L 387.357928 120.967916 
L 387.486388 120.555624 
L 387.541443 120.540116 
L 387.669903 120.125449 
L 387.724958 120.109441 
L 387.853418 119.692644 
L 387.908473 119.67619 
L 388.036933 119.257516 
L 388.091988 119.240603 
L 388.220448 118.820314 
L 388.275503 118.802981 
L 388.403963 118.381398 
L 388.459017 118.363635 
L 388.587478 117.941062 
L 388.642532 117.922917 
L 388.770993 117.499638 
L 388.826047 117.481134 
L 388.954508 117.057492 
L 389.009562 117.038688 
L 389.138023 116.615033 
L 389.193077 116.595932 
L 389.321538 116.172614 
L 389.376592 116.153253 
L 389.505052 115.730658 
L 389.560107 115.711045 
L 389.688567 115.289589 
L 389.743622 115.269803 
L 389.872082 114.849868 
L 389.927137 114.829891 
L 390.055597 114.411922 
L 390.110652 114.391844 
L 390.239112 113.976243 
L 390.294166 113.956049 
L 390.422627 113.543242 
L 390.477681 113.523033 
L 390.606142 113.113508 
L 390.661196 113.093235 
L 390.789657 112.687422 
L 390.844711 112.667239 
L 390.973172 112.265587 
L 391.028226 112.245446 
L 391.156687 111.848462 
L 391.211741 111.828445 
L 391.340201 111.436561 
L 391.395256 111.416708 
L 391.523716 111.030362 
L 391.578771 111.010719 
L 391.707231 110.63035 
L 391.762286 110.610963 
L 391.890746 110.237112 
L 391.945801 110.21798 
L 392.074261 109.850984 
L 392.129316 109.832208 
L 392.257776 109.472549 
L 392.31283 109.454128 
L 392.441291 109.102168 
L 392.496345 109.084156 
L 392.624806 108.740293 
L 392.67986 108.722745 
L 392.808321 108.387299 
L 392.881727 108.2487 
L 393.90941 106.474841 
L 393.982816 106.360679 
L 395.010499 104.944723 
L 395.083905 104.856543 
L 396.111589 103.796626 
L 396.240049 103.685809 
L 397.212678 102.983587 
L 397.451248 102.874584 
L 397.579708 102.774636 
L 397.818277 102.679886 
L 397.946738 102.591627 
L 398.185307 102.509545 
L 398.313768 102.431708 
L 398.570689 102.331919 
L 399.965402 101.925204 
L 400.387486 101.849691 
L 400.589353 101.795844 
L 403.085155 101.429282 
L 403.690754 101.367546 
L 403.947675 101.327707 
L 410.425751 100.694574 
L 411.288271 100.632742 
L 414.72 100.29045 
L 414.72 99.43255 
L 414.72 99.43255 
" clip-path="url(#p4d50bb6020)" style="fill: none; stroke-dasharray: 5.55,2.4; stroke-dashoffset: 0; stroke: #ff7f0e; stroke-width: 1.5"/>
   </g>
   <g id="line2d_12">
    <path d="M 57.6 234.643869 
L 90.449168 236.392625 
L 126.473143 238.083559 
L 166.607852 239.74104 
L 211.734166 241.377869 
L 262.567794 242.994598 
L 320.007959 244.594419 
L 384.990586 246.1773 
L 414.72 246.835546 
L 414.72 246.835546 
" clip-path="url(#p4d50bb6020)" style="fill: none; stroke: #ff0000; stroke-width: 1.5; stroke-linecap: square"/>
   </g>
   <g id="line2d_13">
    <path d="M -1 295.488 
L 461.8 295.488 
" clip-path="url(#p4d50bb6020)" style="fill: none; stroke-dasharray: 5.55,2.4; stroke-dashoffset: 0; stroke: #2ca02c; stroke-width: 1.5"/>
   </g>
   <g id="line2d_14">
    <path d="M -1 236.731182 
L 461.8 236.731182 
" clip-path="url(#p4d50bb6020)" style="fill: none; stroke-dasharray: 5.55,2.4; stroke-dashoffset: 0; stroke: #d62728; stroke-width: 1.5"/>
   </g>
   <g id="patch_3">
    <path d="M 57.6 307.584 
L 57.6 41.472 
" style="fill: none; stroke: #000000; stroke-width: 0.8; stroke-linejoin: miter; stroke-linecap: square"/>
   </g>
   <g id="patch_4">
    <path d="M 414.72 307.584 
L 414.72 41.472 
" style="fill: none; stroke: #000000; stroke-width: 0.8; stroke-linejoin: miter; stroke-linecap: square"/>
   </g>
   <g id="patch_5">
    <path d="M 57.6 307.584 
L 414.72 307.584 
" style="fill: none; stroke: #000000; stroke-width: 0.8; stroke-linejoin: miter; stroke-linecap: square"/>
   </g>
   <g id="patch_6">
    <path d="M 57.6 41.472 
L 414.72 41.472 
" style="fill: none; stroke: #000000; stroke-width: 0.8; stroke-linejoin: miter; stroke-linecap: square"/>
   </g>
   <g id="legend_1">
    <g id="patch_7">
     <path d="M 306.121563 93.506375 
L 407.72 93.506375 
Q 409.72 93.506375 409.72 91.506375 
L 409.72 48.472 
Q 409.72 46.472 407.72 46.472 
L 306.121563 46.472 
Q 304.121563 46.472 304.121563 48.472 
L 304.121563 91.506375 
Q 304.121563 93.506375 306.121563 93.506375 
z
" style="fill: #ffffff; opacity: 0.8; stroke: #cccccc; stroke-linejoin: miter"/>
    </g>
    <g id="line2d_15">
     <path d="M 308.121563 54.570438 
L 318.121563 54.570438 
L 328.121563 54.570438 
" style="fill: none; stroke: #1f77b4; stroke-width: 1.5; stroke-linecap: square"/>
    </g>
    <g id="text_12">
     <!-- Py2 0.177mm -->
     <g transform="translate(336.121563 58.070438)scale(0.1 -0.1)">
      <defs>
       <path id="DejaVuSans-2e" d="M 684 794 
L 1344 794 
L 1344 0 
L 684 0 
L 684 794 
z
" transform="scale(0.015625)"/>
       <path id="DejaVuSans-37" d="M 525 4666 
L 3525 4666 
L 3525 4397 
L 1831 0 
L 1172 0 
L 2766 4134 
L 525 4134 
L 525 4666 
z
" transform="scale(0.015625)"/>
      </defs>
      <use xlink:href="#DejaVuSans-50"/>
      <use xlink:href="#DejaVuSans-79" x="60.302734"/>
      <use xlink:href="#DejaVuSans-32" x="119.482422"/>
      <use xlink:href="#DejaVuSans-20" x="183.105469"/>
      <use xlink:href="#DejaVuSans-30" x="214.892578"/>
      <use xlink:href="#DejaVuSans-2e" x="278.515625"/>
      <use xlink:href="#DejaVuSans-31" x="310.302734"/>
      <use xlink:href="#DejaVuSans-37" x="373.925781"/>
      <use xlink:href="#DejaVuSans-37" x="437.548828"/>
      <use xlink:href="#DejaVuSans-6d" x="501.171875"/>
      <use xlink:href="#DejaVuSans-6d" x="598.583984"/>
     </g>
    </g>
    <g id="line2d_16">
     <path d="M 308.121563 69.248563 
L 318.121563 69.248563 
L 328.121563 69.248563 
" style="fill: none; stroke-dasharray: 5.55,2.4; stroke-dashoffset: 0; stroke: #ff7f0e; stroke-width: 1.5"/>
    </g>
    <g id="text_13">
     <!-- Py1 0.177mm -->
     <g transform="translate(336.121563 72.748563)scale(0.1 -0.1)">
      <use xlink:href="#DejaVuSans-50"/>
      <use xlink:href="#DejaVuSans-79" x="60.302734"/>
      <use xlink:href="#DejaVuSans-31" x="119.482422"/>
      <use xlink:href="#DejaVuSans-20" x="183.105469"/>
      <use xlink:href="#DejaVuSans-30" x="214.892578"/>
      <use xlink:href="#DejaVuSans-2e" x="278.515625"/>
      <use xlink:href="#DejaVuSans-31" x="310.302734"/>
      <use xlink:href="#DejaVuSans-37" x="373.925781"/>
      <use xlink:href="#DejaVuSans-37" x="437.548828"/>
      <use xlink:href="#DejaVuSans-6d" x="501.171875"/>
      <use xlink:href="#DejaVuSans-6d" x="598.583984"/>
     </g>
    </g>
    <g id="line2d_17">
     <path d="M 308.121563 83.926688 
L 318.121563 83.926688 
L 328.121563 83.926688 
" style="fill: none; stroke: #ff0000; stroke-width: 1.5; stroke-linecap: square"/>
    </g>
    <g id="text_14">
     <!-- Bi -->
     <g transform="translate(336.121563 87.426688)scale(0.1 -0.1)">
      <defs>
       <path id="DejaVuSans-42" d="M 1259 2228 
L 1259 519 
L 2272 519 
Q 2781 519 3026 730 
Q 3272 941 3272 1375 
Q 3272 1813 3026 2020 
Q 2781 2228 2272 2228 
L 1259 2228 
z
M 1259 4147 
L 1259 2741 
L 2194 2741 
Q 2656 2741 2882 2914 
Q 3109 3088 3109 3444 
Q 3109 3797 2882 3972 
Q 2656 4147 2194 4147 
L 1259 4147 
z
M 628 4666 
L 2241 4666 
Q 2963 4666 3353 4366 
Q 3744 4066 3744 3513 
Q 3744 3084 3544 2831 
Q 3344 2578 2956 2516 
Q 3422 2416 3680 2098 
Q 3938 1781 3938 1306 
Q 3938 681 3513 340 
Q 3088 0 2303 0 
L 628 0 
L 628 4666 
z
" transform="scale(0.015625)"/>
      </defs>
      <use xlink:href="#DejaVuSans-42"/>
      <use xlink:href="#DejaVuSans-69" x="68.603516"/>
     </g>
    </g>
   </g>
  </g>
 </g>
 <defs>
  <clipPath id="p4d50bb6020">
   <rect x="57.6" y="41.472" width="357.12" height="266.112"/>
  </clipPath>
 </defs>
</svg>
