<?xml version="1.0" encoding="utf-8" standalone="no"?>
<!DOCTYPE svg PUBLIC "-//W3C//DTD SVG 1.1//EN"
  "http://www.w3.org/Graphics/SVG/1.1/DTD/svg11.dtd">
<svg xmlns:xlink="http://www.w3.org/1999/xlink" width="460.8pt" height="345.6pt" viewBox="0 0 460.8 345.6" xmlns="http://www.w3.org/2000/svg" version="1.1">
 <metadata>
  <rdf:RDF xmlns:dc="http://purl.org/dc/elements/1.1/" xmlns:cc="http://creativecommons.org/ns#" xmlns:rdf="http://www.w3.org/1999/02/22-rdf-syntax-ns#">
   <cc:Work>
    <dc:type rdf:resource="http://purl.org/dc/dcmitype/StillImage"/>
    <dc:date>2022-04-26T11:47:15.554461</dc:date>
    <dc:format>image/svg+xml</dc:format>
    <dc:creator>
     <cc:Agent>
      <dc:title>Matplotlib v3.5.1, https://matplotlib.org/</dc:title>
     </cc:Agent>
    </dc:creator>
   </cc:Work>
  </rdf:RDF>
 </metadata>
 <defs>
  <style type="text/css">*{stroke-linejoin: round; stroke-linecap: butt}</style>
 </defs>
 <g id="figure_1">
  <g id="patch_1">
   <path d="M 0 345.6 
L 460.8 345.6 
L 460.8 0 
L 0 0 
z
" style="fill: #ffffff"/>
  </g>
  <g id="axes_1">
   <g id="patch_2">
    <path d="M 57.6 307.584 
L 414.72 307.584 
L 414.72 41.472 
L 57.6 41.472 
z
" style="fill: #ffffff"/>
   </g>
   <g id="matplotlib.axis_1">
    <g id="xtick_1">
     <g id="line2d_1">
      <defs>
       <path id="m9dfb0a58a9" d="M 0 0 
L 0 3.5 
" style="stroke: #000000; stroke-width: 0.8"/>
      </defs>
      <g>
       <use xlink:href="#m9dfb0a58a9" x="94.30298" y="307.584" style="stroke: #000000; stroke-width: 0.8"/>
      </g>
     </g>
     <g id="text_1">
      <!-- 400 -->
      <g transform="translate(84.75923 322.182437)scale(0.1 -0.1)">
       <defs>
        <path id="DejaVuSans-34" d="M 2419 4116 
L 825 1625 
L 2419 1625 
L 2419 4116 
z
M 2253 4666 
L 3047 4666 
L 3047 1625 
L 3713 1625 
L 3713 1100 
L 3047 1100 
L 3047 0 
L 2419 0 
L 2419 1100 
L 313 1100 
L 313 1709 
L 2253 4666 
z
" transform="scale(0.015625)"/>
        <path id="DejaVuSans-30" d="M 2034 4250 
Q 1547 4250 1301 3770 
Q 1056 3291 1056 2328 
Q 1056 1369 1301 889 
Q 1547 409 2034 409 
Q 2525 409 2770 889 
Q 3016 1369 3016 2328 
Q 3016 3291 2770 3770 
Q 2525 4250 2034 4250 
z
M 2034 4750 
Q 2819 4750 3233 4129 
Q 3647 3509 3647 2328 
Q 3647 1150 3233 529 
Q 2819 -91 2034 -91 
Q 1250 -91 836 529 
Q 422 1150 422 2328 
Q 422 3509 836 4129 
Q 1250 4750 2034 4750 
z
" transform="scale(0.015625)"/>
       </defs>
       <use xlink:href="#DejaVuSans-34"/>
       <use xlink:href="#DejaVuSans-30" x="63.623047"/>
       <use xlink:href="#DejaVuSans-30" x="127.246094"/>
      </g>
     </g>
    </g>
    <g id="xtick_2">
     <g id="line2d_2">
      <g>
       <use xlink:href="#m9dfb0a58a9" x="167.708941" y="307.584" style="stroke: #000000; stroke-width: 0.8"/>
      </g>
     </g>
     <g id="text_2">
      <!-- 600 -->
      <g transform="translate(158.165191 322.182437)scale(0.1 -0.1)">
       <defs>
        <path id="DejaVuSans-36" d="M 2113 2584 
Q 1688 2584 1439 2293 
Q 1191 2003 1191 1497 
Q 1191 994 1439 701 
Q 1688 409 2113 409 
Q 2538 409 2786 701 
Q 3034 994 3034 1497 
Q 3034 2003 2786 2293 
Q 2538 2584 2113 2584 
z
M 3366 4563 
L 3366 3988 
Q 3128 4100 2886 4159 
Q 2644 4219 2406 4219 
Q 1781 4219 1451 3797 
Q 1122 3375 1075 2522 
Q 1259 2794 1537 2939 
Q 1816 3084 2150 3084 
Q 2853 3084 3261 2657 
Q 3669 2231 3669 1497 
Q 3669 778 3244 343 
Q 2819 -91 2113 -91 
Q 1303 -91 875 529 
Q 447 1150 447 2328 
Q 447 3434 972 4092 
Q 1497 4750 2381 4750 
Q 2619 4750 2861 4703 
Q 3103 4656 3366 4563 
z
" transform="scale(0.015625)"/>
       </defs>
       <use xlink:href="#DejaVuSans-36"/>
       <use xlink:href="#DejaVuSans-30" x="63.623047"/>
       <use xlink:href="#DejaVuSans-30" x="127.246094"/>
      </g>
     </g>
    </g>
    <g id="xtick_3">
     <g id="line2d_3">
      <g>
       <use xlink:href="#m9dfb0a58a9" x="241.114902" y="307.584" style="stroke: #000000; stroke-width: 0.8"/>
      </g>
     </g>
     <g id="text_3">
      <!-- 800 -->
      <g transform="translate(231.571152 322.182437)scale(0.1 -0.1)">
       <defs>
        <path id="DejaVuSans-38" d="M 2034 2216 
Q 1584 2216 1326 1975 
Q 1069 1734 1069 1313 
Q 1069 891 1326 650 
Q 1584 409 2034 409 
Q 2484 409 2743 651 
Q 3003 894 3003 1313 
Q 3003 1734 2745 1975 
Q 2488 2216 2034 2216 
z
M 1403 2484 
Q 997 2584 770 2862 
Q 544 3141 544 3541 
Q 544 4100 942 4425 
Q 1341 4750 2034 4750 
Q 2731 4750 3128 4425 
Q 3525 4100 3525 3541 
Q 3525 3141 3298 2862 
Q 3072 2584 2669 2484 
Q 3125 2378 3379 2068 
Q 3634 1759 3634 1313 
Q 3634 634 3220 271 
Q 2806 -91 2034 -91 
Q 1263 -91 848 271 
Q 434 634 434 1313 
Q 434 1759 690 2068 
Q 947 2378 1403 2484 
z
M 1172 3481 
Q 1172 3119 1398 2916 
Q 1625 2713 2034 2713 
Q 2441 2713 2670 2916 
Q 2900 3119 2900 3481 
Q 2900 3844 2670 4047 
Q 2441 4250 2034 4250 
Q 1625 4250 1398 4047 
Q 1172 3844 1172 3481 
z
" transform="scale(0.015625)"/>
       </defs>
       <use xlink:href="#DejaVuSans-38"/>
       <use xlink:href="#DejaVuSans-30" x="63.623047"/>
       <use xlink:href="#DejaVuSans-30" x="127.246094"/>
      </g>
     </g>
    </g>
    <g id="xtick_4">
     <g id="line2d_4">
      <g>
       <use xlink:href="#m9dfb0a58a9" x="314.520863" y="307.584" style="stroke: #000000; stroke-width: 0.8"/>
      </g>
     </g>
     <g id="text_4">
      <!-- 1000 -->
      <g transform="translate(301.795863 322.182437)scale(0.1 -0.1)">
       <defs>
        <path id="DejaVuSans-31" d="M 794 531 
L 1825 531 
L 1825 4091 
L 703 3866 
L 703 4441 
L 1819 4666 
L 2450 4666 
L 2450 531 
L 3481 531 
L 3481 0 
L 794 0 
L 794 531 
z
" transform="scale(0.015625)"/>
       </defs>
       <use xlink:href="#DejaVuSans-31"/>
       <use xlink:href="#DejaVuSans-30" x="63.623047"/>
       <use xlink:href="#DejaVuSans-30" x="127.246094"/>
       <use xlink:href="#DejaVuSans-30" x="190.869141"/>
      </g>
     </g>
    </g>
    <g id="xtick_5">
     <g id="line2d_5">
      <g>
       <use xlink:href="#m9dfb0a58a9" x="387.926824" y="307.584" style="stroke: #000000; stroke-width: 0.8"/>
      </g>
     </g>
     <g id="text_5">
      <!-- 1200 -->
      <g transform="translate(375.201824 322.182437)scale(0.1 -0.1)">
       <defs>
        <path id="DejaVuSans-32" d="M 1228 531 
L 3431 531 
L 3431 0 
L 469 0 
L 469 531 
Q 828 903 1448 1529 
Q 2069 2156 2228 2338 
Q 2531 2678 2651 2914 
Q 2772 3150 2772 3378 
Q 2772 3750 2511 3984 
Q 2250 4219 1831 4219 
Q 1534 4219 1204 4116 
Q 875 4013 500 3803 
L 500 4441 
Q 881 4594 1212 4672 
Q 1544 4750 1819 4750 
Q 2544 4750 2975 4387 
Q 3406 4025 3406 3419 
Q 3406 3131 3298 2873 
Q 3191 2616 2906 2266 
Q 2828 2175 2409 1742 
Q 1991 1309 1228 531 
z
" transform="scale(0.015625)"/>
       </defs>
       <use xlink:href="#DejaVuSans-31"/>
       <use xlink:href="#DejaVuSans-32" x="63.623047"/>
       <use xlink:href="#DejaVuSans-30" x="127.246094"/>
       <use xlink:href="#DejaVuSans-30" x="190.869141"/>
      </g>
     </g>
    </g>
    <g id="text_6">
     <!-- Temperature (K) -->
     <g transform="translate(195.720937 335.860562)scale(0.1 -0.1)">
      <defs>
       <path id="DejaVuSans-54" d="M -19 4666 
L 3928 4666 
L 3928 4134 
L 2272 4134 
L 2272 0 
L 1638 0 
L 1638 4134 
L -19 4134 
L -19 4666 
z
" transform="scale(0.015625)"/>
       <path id="DejaVuSans-65" d="M 3597 1894 
L 3597 1613 
L 953 1613 
Q 991 1019 1311 708 
Q 1631 397 2203 397 
Q 2534 397 2845 478 
Q 3156 559 3463 722 
L 3463 178 
Q 3153 47 2828 -22 
Q 2503 -91 2169 -91 
Q 1331 -91 842 396 
Q 353 884 353 1716 
Q 353 2575 817 3079 
Q 1281 3584 2069 3584 
Q 2775 3584 3186 3129 
Q 3597 2675 3597 1894 
z
M 3022 2063 
Q 3016 2534 2758 2815 
Q 2500 3097 2075 3097 
Q 1594 3097 1305 2825 
Q 1016 2553 972 2059 
L 3022 2063 
z
" transform="scale(0.015625)"/>
       <path id="DejaVuSans-6d" d="M 3328 2828 
Q 3544 3216 3844 3400 
Q 4144 3584 4550 3584 
Q 5097 3584 5394 3201 
Q 5691 2819 5691 2113 
L 5691 0 
L 5113 0 
L 5113 2094 
Q 5113 2597 4934 2840 
Q 4756 3084 4391 3084 
Q 3944 3084 3684 2787 
Q 3425 2491 3425 1978 
L 3425 0 
L 2847 0 
L 2847 2094 
Q 2847 2600 2669 2842 
Q 2491 3084 2119 3084 
Q 1678 3084 1418 2786 
Q 1159 2488 1159 1978 
L 1159 0 
L 581 0 
L 581 3500 
L 1159 3500 
L 1159 2956 
Q 1356 3278 1631 3431 
Q 1906 3584 2284 3584 
Q 2666 3584 2933 3390 
Q 3200 3197 3328 2828 
z
" transform="scale(0.015625)"/>
       <path id="DejaVuSans-70" d="M 1159 525 
L 1159 -1331 
L 581 -1331 
L 581 3500 
L 1159 3500 
L 1159 2969 
Q 1341 3281 1617 3432 
Q 1894 3584 2278 3584 
Q 2916 3584 3314 3078 
Q 3713 2572 3713 1747 
Q 3713 922 3314 415 
Q 2916 -91 2278 -91 
Q 1894 -91 1617 61 
Q 1341 213 1159 525 
z
M 3116 1747 
Q 3116 2381 2855 2742 
Q 2594 3103 2138 3103 
Q 1681 3103 1420 2742 
Q 1159 2381 1159 1747 
Q 1159 1113 1420 752 
Q 1681 391 2138 391 
Q 2594 391 2855 752 
Q 3116 1113 3116 1747 
z
" transform="scale(0.015625)"/>
       <path id="DejaVuSans-72" d="M 2631 2963 
Q 2534 3019 2420 3045 
Q 2306 3072 2169 3072 
Q 1681 3072 1420 2755 
Q 1159 2438 1159 1844 
L 1159 0 
L 581 0 
L 581 3500 
L 1159 3500 
L 1159 2956 
Q 1341 3275 1631 3429 
Q 1922 3584 2338 3584 
Q 2397 3584 2469 3576 
Q 2541 3569 2628 3553 
L 2631 2963 
z
" transform="scale(0.015625)"/>
       <path id="DejaVuSans-61" d="M 2194 1759 
Q 1497 1759 1228 1600 
Q 959 1441 959 1056 
Q 959 750 1161 570 
Q 1363 391 1709 391 
Q 2188 391 2477 730 
Q 2766 1069 2766 1631 
L 2766 1759 
L 2194 1759 
z
M 3341 1997 
L 3341 0 
L 2766 0 
L 2766 531 
Q 2569 213 2275 61 
Q 1981 -91 1556 -91 
Q 1019 -91 701 211 
Q 384 513 384 1019 
Q 384 1609 779 1909 
Q 1175 2209 1959 2209 
L 2766 2209 
L 2766 2266 
Q 2766 2663 2505 2880 
Q 2244 3097 1772 3097 
Q 1472 3097 1187 3025 
Q 903 2953 641 2809 
L 641 3341 
Q 956 3463 1253 3523 
Q 1550 3584 1831 3584 
Q 2591 3584 2966 3190 
Q 3341 2797 3341 1997 
z
" transform="scale(0.015625)"/>
       <path id="DejaVuSans-74" d="M 1172 4494 
L 1172 3500 
L 2356 3500 
L 2356 3053 
L 1172 3053 
L 1172 1153 
Q 1172 725 1289 603 
Q 1406 481 1766 481 
L 2356 481 
L 2356 0 
L 1766 0 
Q 1100 0 847 248 
Q 594 497 594 1153 
L 594 3053 
L 172 3053 
L 172 3500 
L 594 3500 
L 594 4494 
L 1172 4494 
z
" transform="scale(0.015625)"/>
       <path id="DejaVuSans-75" d="M 544 1381 
L 544 3500 
L 1119 3500 
L 1119 1403 
Q 1119 906 1312 657 
Q 1506 409 1894 409 
Q 2359 409 2629 706 
Q 2900 1003 2900 1516 
L 2900 3500 
L 3475 3500 
L 3475 0 
L 2900 0 
L 2900 538 
Q 2691 219 2414 64 
Q 2138 -91 1772 -91 
Q 1169 -91 856 284 
Q 544 659 544 1381 
z
M 1991 3584 
L 1991 3584 
z
" transform="scale(0.015625)"/>
       <path id="DejaVuSans-20" transform="scale(0.015625)"/>
       <path id="DejaVuSans-28" d="M 1984 4856 
Q 1566 4138 1362 3434 
Q 1159 2731 1159 2009 
Q 1159 1288 1364 580 
Q 1569 -128 1984 -844 
L 1484 -844 
Q 1016 -109 783 600 
Q 550 1309 550 2009 
Q 550 2706 781 3412 
Q 1013 4119 1484 4856 
L 1984 4856 
z
" transform="scale(0.015625)"/>
       <path id="DejaVuSans-4b" d="M 628 4666 
L 1259 4666 
L 1259 2694 
L 3353 4666 
L 4166 4666 
L 1850 2491 
L 4331 0 
L 3500 0 
L 1259 2247 
L 1259 0 
L 628 0 
L 628 4666 
z
" transform="scale(0.015625)"/>
       <path id="DejaVuSans-29" d="M 513 4856 
L 1013 4856 
Q 1481 4119 1714 3412 
Q 1947 2706 1947 2009 
Q 1947 1309 1714 600 
Q 1481 -109 1013 -844 
L 513 -844 
Q 928 -128 1133 580 
Q 1338 1288 1338 2009 
Q 1338 2731 1133 3434 
Q 928 4138 513 4856 
z
" transform="scale(0.015625)"/>
      </defs>
      <use xlink:href="#DejaVuSans-54"/>
      <use xlink:href="#DejaVuSans-65" x="44.083984"/>
      <use xlink:href="#DejaVuSans-6d" x="105.607422"/>
      <use xlink:href="#DejaVuSans-70" x="203.019531"/>
      <use xlink:href="#DejaVuSans-65" x="266.496094"/>
      <use xlink:href="#DejaVuSans-72" x="328.019531"/>
      <use xlink:href="#DejaVuSans-61" x="369.132812"/>
      <use xlink:href="#DejaVuSans-74" x="430.412109"/>
      <use xlink:href="#DejaVuSans-75" x="469.621094"/>
      <use xlink:href="#DejaVuSans-72" x="533"/>
      <use xlink:href="#DejaVuSans-65" x="571.863281"/>
      <use xlink:href="#DejaVuSans-20" x="633.386719"/>
      <use xlink:href="#DejaVuSans-28" x="665.173828"/>
      <use xlink:href="#DejaVuSans-4b" x="704.1875"/>
      <use xlink:href="#DejaVuSans-29" x="769.763672"/>
     </g>
    </g>
   </g>
   <g id="matplotlib.axis_2">
    <g id="ytick_1">
     <g id="line2d_6">
      <defs>
       <path id="m9ecb0cae6c" d="M 0 0 
L -3.5 0 
" style="stroke: #000000; stroke-width: 0.8"/>
      </defs>
      <g>
       <use xlink:href="#m9ecb0cae6c" x="57.6" y="266.999284" style="stroke: #000000; stroke-width: 0.8"/>
      </g>
     </g>
     <g id="text_7">
      <!-- $\mathdefault{10^{0}}$ -->
      <g transform="translate(33 270.798503)scale(0.1 -0.1)">
       <use xlink:href="#DejaVuSans-31" transform="translate(0 0.765625)"/>
       <use xlink:href="#DejaVuSans-30" transform="translate(63.623047 0.765625)"/>
       <use xlink:href="#DejaVuSans-30" transform="translate(128.203125 39.046875)scale(0.7)"/>
      </g>
     </g>
    </g>
    <g id="ytick_2">
     <g id="line2d_7">
      <g>
       <use xlink:href="#m9ecb0cae6c" x="57.6" y="210.021851" style="stroke: #000000; stroke-width: 0.8"/>
      </g>
     </g>
     <g id="text_8">
      <!-- $\mathdefault{10^{2}}$ -->
      <g transform="translate(33 213.82107)scale(0.1 -0.1)">
       <use xlink:href="#DejaVuSans-31" transform="translate(0 0.765625)"/>
       <use xlink:href="#DejaVuSans-30" transform="translate(63.623047 0.765625)"/>
       <use xlink:href="#DejaVuSans-32" transform="translate(128.203125 39.046875)scale(0.7)"/>
      </g>
     </g>
    </g>
    <g id="ytick_3">
     <g id="line2d_8">
      <g>
       <use xlink:href="#m9ecb0cae6c" x="57.6" y="153.044419" style="stroke: #000000; stroke-width: 0.8"/>
      </g>
     </g>
     <g id="text_9">
      <!-- $\mathdefault{10^{4}}$ -->
      <g transform="translate(33 156.843638)scale(0.1 -0.1)">
       <use xlink:href="#DejaVuSans-31" transform="translate(0 0.684375)"/>
       <use xlink:href="#DejaVuSans-30" transform="translate(63.623047 0.684375)"/>
       <use xlink:href="#DejaVuSans-34" transform="translate(128.203125 38.965625)scale(0.7)"/>
      </g>
     </g>
    </g>
    <g id="ytick_4">
     <g id="line2d_9">
      <g>
       <use xlink:href="#m9ecb0cae6c" x="57.6" y="96.066987" style="stroke: #000000; stroke-width: 0.8"/>
      </g>
     </g>
     <g id="text_10">
      <!-- $\mathdefault{10^{6}}$ -->
      <g transform="translate(33 99.866205)scale(0.1 -0.1)">
       <use xlink:href="#DejaVuSans-31" transform="translate(0 0.765625)"/>
       <use xlink:href="#DejaVuSans-30" transform="translate(63.623047 0.765625)"/>
       <use xlink:href="#DejaVuSans-36" transform="translate(128.203125 39.046875)scale(0.7)"/>
      </g>
     </g>
    </g>
    <g id="text_11">
     <!-- Pyrolysis number -->
     <g transform="translate(26.920312 217.554563)rotate(-90)scale(0.1 -0.1)">
      <defs>
       <path id="DejaVuSans-50" d="M 1259 4147 
L 1259 2394 
L 2053 2394 
Q 2494 2394 2734 2622 
Q 2975 2850 2975 3272 
Q 2975 3691 2734 3919 
Q 2494 4147 2053 4147 
L 1259 4147 
z
M 628 4666 
L 2053 4666 
Q 2838 4666 3239 4311 
Q 3641 3956 3641 3272 
Q 3641 2581 3239 2228 
Q 2838 1875 2053 1875 
L 1259 1875 
L 1259 0 
L 628 0 
L 628 4666 
z
" transform="scale(0.015625)"/>
       <path id="DejaVuSans-79" d="M 2059 -325 
Q 1816 -950 1584 -1140 
Q 1353 -1331 966 -1331 
L 506 -1331 
L 506 -850 
L 844 -850 
Q 1081 -850 1212 -737 
Q 1344 -625 1503 -206 
L 1606 56 
L 191 3500 
L 800 3500 
L 1894 763 
L 2988 3500 
L 3597 3500 
L 2059 -325 
z
" transform="scale(0.015625)"/>
       <path id="DejaVuSans-6f" d="M 1959 3097 
Q 1497 3097 1228 2736 
Q 959 2375 959 1747 
Q 959 1119 1226 758 
Q 1494 397 1959 397 
Q 2419 397 2687 759 
Q 2956 1122 2956 1747 
Q 2956 2369 2687 2733 
Q 2419 3097 1959 3097 
z
M 1959 3584 
Q 2709 3584 3137 3096 
Q 3566 2609 3566 1747 
Q 3566 888 3137 398 
Q 2709 -91 1959 -91 
Q 1206 -91 779 398 
Q 353 888 353 1747 
Q 353 2609 779 3096 
Q 1206 3584 1959 3584 
z
" transform="scale(0.015625)"/>
       <path id="DejaVuSans-6c" d="M 603 4863 
L 1178 4863 
L 1178 0 
L 603 0 
L 603 4863 
z
" transform="scale(0.015625)"/>
       <path id="DejaVuSans-73" d="M 2834 3397 
L 2834 2853 
Q 2591 2978 2328 3040 
Q 2066 3103 1784 3103 
Q 1356 3103 1142 2972 
Q 928 2841 928 2578 
Q 928 2378 1081 2264 
Q 1234 2150 1697 2047 
L 1894 2003 
Q 2506 1872 2764 1633 
Q 3022 1394 3022 966 
Q 3022 478 2636 193 
Q 2250 -91 1575 -91 
Q 1294 -91 989 -36 
Q 684 19 347 128 
L 347 722 
Q 666 556 975 473 
Q 1284 391 1588 391 
Q 1994 391 2212 530 
Q 2431 669 2431 922 
Q 2431 1156 2273 1281 
Q 2116 1406 1581 1522 
L 1381 1569 
Q 847 1681 609 1914 
Q 372 2147 372 2553 
Q 372 3047 722 3315 
Q 1072 3584 1716 3584 
Q 2034 3584 2315 3537 
Q 2597 3491 2834 3397 
z
" transform="scale(0.015625)"/>
       <path id="DejaVuSans-69" d="M 603 3500 
L 1178 3500 
L 1178 0 
L 603 0 
L 603 3500 
z
M 603 4863 
L 1178 4863 
L 1178 4134 
L 603 4134 
L 603 4863 
z
" transform="scale(0.015625)"/>
       <path id="DejaVuSans-6e" d="M 3513 2113 
L 3513 0 
L 2938 0 
L 2938 2094 
Q 2938 2591 2744 2837 
Q 2550 3084 2163 3084 
Q 1697 3084 1428 2787 
Q 1159 2491 1159 1978 
L 1159 0 
L 581 0 
L 581 3500 
L 1159 3500 
L 1159 2956 
Q 1366 3272 1645 3428 
Q 1925 3584 2291 3584 
Q 2894 3584 3203 3211 
Q 3513 2838 3513 2113 
z
" transform="scale(0.015625)"/>
       <path id="DejaVuSans-62" d="M 3116 1747 
Q 3116 2381 2855 2742 
Q 2594 3103 2138 3103 
Q 1681 3103 1420 2742 
Q 1159 2381 1159 1747 
Q 1159 1113 1420 752 
Q 1681 391 2138 391 
Q 2594 391 2855 752 
Q 3116 1113 3116 1747 
z
M 1159 2969 
Q 1341 3281 1617 3432 
Q 1894 3584 2278 3584 
Q 2916 3584 3314 3078 
Q 3713 2572 3713 1747 
Q 3713 922 3314 415 
Q 2916 -91 2278 -91 
Q 1894 -91 1617 61 
Q 1341 213 1159 525 
L 1159 0 
L 581 0 
L 581 4863 
L 1159 4863 
L 1159 2969 
z
" transform="scale(0.015625)"/>
      </defs>
      <use xlink:href="#DejaVuSans-50"/>
      <use xlink:href="#DejaVuSans-79" x="60.302734"/>
      <use xlink:href="#DejaVuSans-72" x="119.482422"/>
      <use xlink:href="#DejaVuSans-6f" x="158.345703"/>
      <use xlink:href="#DejaVuSans-6c" x="219.527344"/>
      <use xlink:href="#DejaVuSans-79" x="247.310547"/>
      <use xlink:href="#DejaVuSans-73" x="306.490234"/>
      <use xlink:href="#DejaVuSans-69" x="358.589844"/>
      <use xlink:href="#DejaVuSans-73" x="386.373047"/>
      <use xlink:href="#DejaVuSans-20" x="438.472656"/>
      <use xlink:href="#DejaVuSans-6e" x="470.259766"/>
      <use xlink:href="#DejaVuSans-75" x="533.638672"/>
      <use xlink:href="#DejaVuSans-6d" x="597.017578"/>
      <use xlink:href="#DejaVuSans-62" x="694.429688"/>
      <use xlink:href="#DejaVuSans-65" x="757.90625"/>
      <use xlink:href="#DejaVuSans-72" x="819.429688"/>
     </g>
    </g>
   </g>
   <g id="line2d_10">
    <path d="M 57.6 104.134687 
L 57.6 104.133141 
L 57.697997 104.288067 
L 59.802179 107.524775 
L 62.87899 111.923484 
L 65.72971 115.621199 
L 66.017095 115.969305 
L 67.038905 117.18198 
L 69.528469 119.901061 
L 71.730647 121.99913 
L 73.804366 123.683693 
L 73.908235 123.752768 
L 74.318208 124.043704 
L 76.135005 125.169978 
L 77.804991 125.950246 
L 79.371107 126.446382 
L 79.474976 126.457795 
L 79.676843 126.511224 
L 79.683082 126.500384 
L 81.089908 126.659837 
L 82.435806 126.588286 
L 83.72041 126.296957 
L 84.998775 125.791148 
L 85.127235 125.705039 
L 86.368897 124.92487 
L 87.629278 123.889676 
L 87.757738 123.741048 
L 89.036103 122.363643 
L 89.182915 122.15414 
L 90.467519 120.373929 
L 91.795066 118.157955 
L 93.195652 115.41233 
L 93.342463 115.054343 
L 94.792231 111.604202 
L 96.321644 107.367576 
L 97.973279 102.105907 
L 100.053236 94.660879 
L 102.292118 86.738328 
L 102.316342 86.662008 
L 103.27062 84.041971 
L 103.313562 83.943508 
L 104.004679 82.62833 
L 104.084325 82.549601 
L 104.212785 82.340617 
L 104.738739 81.847214 
L 104.818384 81.830373 
L 104.824624 81.798724 
L 105.289284 81.686409 
L 105.430223 81.7222 
L 105.436096 81.701976 
L 105.901122 81.899865 
L 106.164283 82.117327 
L 106.170155 82.108784 
L 106.22521 82.172703 
L 106.249801 82.182474 
L 106.879991 82.934758 
L 109.981393 88.970814 
L 121.499889 114.180774 
L 129.225866 129.38047 
L 132.284326 134.85726 
L 138.890862 145.386737 
L 139.221189 145.859647 
L 142.133204 149.836341 
L 142.340942 150.100355 
L 145.014388 153.341592 
L 147.216566 155.670943 
L 149.008773 157.256599 
L 150.519835 158.303892 
L 151.82279 158.940554 
L 153.02151 159.286901 
L 153.125746 159.287247 
L 153.29091 159.308833 
L 154.373648 159.319796 
L 155.474737 159.098478 
L 156.655105 158.618266 
L 158.123224 157.750469 
L 160.955593 155.982582 
L 161.035238 155.969305 
L 161.059462 155.936856 
L 161.934462 155.661625 
L 162.075034 155.657205 
L 162.178903 155.625772 
L 162.319843 155.631945 
L 162.325715 155.614352 
L 163.035551 155.666626 
L 163.237417 155.730211 
L 163.24329 155.718831 
L 163.953125 156.022878 
L 164.283452 156.232675 
L 165.078439 156.902531 
L 166.032716 157.97752 
L 168.19232 161.119455 
L 168.644867 161.847041 
L 175.355273 172.31043 
L 177.881907 175.490178 
L 179.570244 177.128562 
L 179.777982 177.287525 
L 181.044235 178.063656 
L 182.206619 178.368638 
L 183.240542 178.248309 
L 183.369002 178.183879 
L 184.341631 177.601419 
L 184.470092 177.464814 
L 185.466944 176.292545 
L 186.427461 174.674339 
L 187.705826 171.855435 
L 187.852638 171.438339 
L 189.932596 165.718881 
L 191.235552 162.385559 
L 191.278494 162.287041 
L 192.336641 160.095599 
L 192.379584 160.01674 
L 193.499025 158.152029 
L 193.578303 158.065009 
L 193.725115 157.808539 
L 196.722647 153.10147 
L 198.050194 150.46698 
L 199.389853 147.336073 
L 199.536665 146.903268 
L 200.94349 142.88248 
L 202.760288 136.932883 
L 204.570846 131.162831 
L 204.589197 131.165572 
L 204.595437 131.09537 
L 205.427493 129.104289 
L 205.445845 129.112071 
L 205.470069 129.019773 
L 206.100259 128.00623 
L 206.179904 127.944327 
L 206.308365 127.76906 
L 206.834319 127.382411 
L 206.913964 127.374391 
L 206.938188 127.340668 
L 207.384863 127.279571 
L 207.550027 127.301619 
L 208.118923 127.532038 
L 208.382083 127.717274 
L 208.387956 127.710218 
L 209.220012 128.453266 
L 209.733854 129.003887 
L 214.866032 134.55686 
L 214.951917 134.624513 
L 216.640254 135.98235 
L 216.725772 136.031608 
L 218.230594 136.951958 
L 218.334463 136.991096 
L 218.560921 137.09929 
L 219.882228 137.603472 
L 219.986098 137.615585 
L 220.187964 137.68063 
L 220.2922 137.687385 
L 220.457364 137.720177 
L 221.656083 137.84664 
L 221.76032 137.82617 
L 221.900892 137.840073 
L 221.907132 137.820553 
L 223.063275 137.668296 
L 223.191736 137.612927 
L 224.311177 137.191377 
L 225.454842 136.520157 
L 226.635577 135.566067 
L 227.89559 134.280742 
L 228.02405 134.096644 
L 229.308655 132.392232 
L 230.648313 130.276752 
L 230.795125 129.976576 
L 232.122672 127.365525 
L 233.462331 124.264328 
L 233.609143 123.835211 
L 234.893747 120.162354 
L 236.215054 115.734621 
L 236.361866 115.125809 
L 237.707765 109.634143 
L 239.236811 102.409096 
L 242.497504 86.579546 
L 242.540079 86.415703 
L 243.353784 83.744709 
L 243.396727 83.628416 
L 244.087844 82.084309 
L 244.167489 81.97077 
L 244.314301 81.70745 
L 244.944124 80.94211 
L 245.090936 80.815358 
L 245.739478 80.43343 
L 246.063565 80.333398 
L 246.228729 80.289582 
L 246.760922 80.224307 
L 248.002951 80.266034 
L 251.226573 80.699393 
L 256.383342 81.595181 
L 264.011323 83.60912 
L 266.92921 84.736525 
L 269.621006 86.014483 
L 272.226918 87.49891 
L 276.019437 90.126914 
L 279.793604 93.290147 
L 282.809488 96.173643 
L 287.177143 100.801116 
L 291.661146 105.940566 
L 298.922097 114.653354 
L 308.336411 125.869483 
L 309.321152 127.002731 
L 314.208888 132.446549 
L 314.741081 133.015346 
L 316.356012 134.714005 
L 320.14743 138.484331 
L 323.384633 141.406379 
L 323.549797 141.542958 
L 324.302208 142.174374 
L 324.467371 142.305455 
L 325.157387 142.864586 
L 325.304199 142.975848 
L 327.972506 144.934139 
L 328.100966 145.015244 
L 330.541714 146.525835 
L 330.644483 146.57691 
L 331.037205 146.78999 
L 333.294438 147.87783 
L 333.397206 147.913076 
L 333.723863 148.05376 
L 333.826631 148.086501 
L 334.149617 148.220355 
L 334.256056 148.250634 
L 334.542339 148.355644 
L 336.744518 149.025884 
L 339.11186 149.511277 
L 342.415128 149.937847 
L 346.426764 150.496891 
L 346.691026 150.556294 
L 346.819486 150.570835 
L 349.913547 151.278004 
L 350.185149 151.345643 
L 353.848107 152.164787 
L 353.976567 152.174338 
L 355.811716 152.341108 
L 357.397285 152.282986 
L 357.500053 152.256678 
L 357.665217 152.233723 
L 359.070941 151.918494 
L 360.454643 151.395205 
L 360.601455 151.305527 
L 361.930103 150.514896 
L 363.233059 149.478403 
L 364.554366 148.16299 
L 364.682827 147.990832 
L 366.022486 146.302332 
L 366.150946 146.090706 
L 367.512627 143.938299 
L 368.958724 141.258483 
L 369.087184 140.957787 
L 370.555304 137.658145 
L 372.082148 133.664358 
L 373.733782 128.704902 
L 375.623985 122.319741 
L 375.789149 121.669856 
L 375.833192 121.514771 
L 380.989961 103.196293 
L 381.034005 103.074057 
L 382.09105 100.358753 
L 382.135094 100.26148 
L 383.129745 98.267542 
L 383.210491 98.158295 
L 383.375655 97.852334 
L 383.456401 97.750446 
L 383.584862 97.520031 
L 384.597864 96.13159 
L 384.685951 96.029559 
L 385.944863 94.711247 
L 386.047632 94.613884 
L 388.209437 92.743278 
L 388.348909 92.64067 
L 388.514072 92.484248 
L 388.653543 92.381011 
L 388.818707 92.223752 
L 388.961848 92.11966 
L 389.090309 91.992904 
L 392.452302 88.954355 
L 396.467608 85.351156 
L 396.61442 85.231924 
L 398.607392 83.76228 
L 398.809258 83.64051 
L 399.000113 83.509696 
L 400.80957 82.501405 
L 401.077502 82.373214 
L 402.949354 81.616754 
L 403.334735 81.491658 
L 403.562294 81.413448 
L 403.973367 81.28702 
L 406.682047 80.591677 
L 407.250943 80.469603 
L 407.537227 80.404125 
L 408.131815 80.278963 
L 414.72 78.942957 
L 414.72 78.942957 
" clip-path="url(#p25fdc9a608)" style="fill: none; stroke: #1f77b4; stroke-width: 1.5; stroke-linecap: square"/>
   </g>
   <g id="line2d_11">
    <path d="M 57.6 73.62187 
L 57.6 73.620324 
L 57.697997 73.78063 
L 59.857233 77.218991 
L 60.634235 78.406895 
L 62.371387 80.972806 
L 65.264683 84.944269 
L 67.931889 88.244152 
L 68.139995 88.481707 
L 70.562392 91.110616 
L 70.709204 91.253434 
L 72.948085 93.333327 
L 73.051955 93.415053 
L 73.522854 93.803042 
L 75.46224 95.220269 
L 77.193152 96.218382 
L 78.783859 96.887353 
L 80.227387 97.279407 
L 80.331257 97.285078 
L 80.533123 97.330196 
L 80.63736 97.331925 
L 80.839226 97.370159 
L 80.943096 97.367677 
L 81.144962 97.398921 
L 81.248831 97.392183 
L 81.450698 97.41631 
L 81.554934 97.405262 
L 81.720098 97.40749 
L 83.041405 97.314356 
L 83.169865 97.274775 
L 84.44823 96.935131 
L 84.576691 96.867208 
L 85.818352 96.258297 
L 87.04203 95.410609 
L 88.302043 94.285515 
L 88.448855 94.106052 
L 89.715108 92.605759 
L 91.018064 90.71343 
L 92.363962 88.359786 
L 93.752436 85.47589 
L 95.214315 81.953666 
L 95.361127 81.519832 
L 96.927244 77.062452 
L 97.074055 76.55674 
L 98.823687 70.785662 
L 98.970498 70.21183 
L 102.781369 57.059377 
L 102.80596 56.992991 
L 103.576723 55.185406 
L 103.595074 55.192735 
L 103.619298 55.102798 
L 104.249488 54.131154 
L 104.329134 54.076632 
L 104.457594 53.914671 
L 104.922254 53.620988 
L 105.001899 53.62301 
L 105.02649 53.59078 
L 105.472799 53.601772 
L 105.674665 53.696565 
L 105.680904 53.680811 
L 105.735959 53.727206 
L 105.778901 53.733196 
L 106.004992 53.889592 
L 106.573888 54.477279 
L 107.149024 55.302966 
L 108.146244 57.113599 
L 109.773287 60.600311 
L 122.784493 89.490308 
L 129.984517 103.74288 
L 133.56893 110.172282 
L 135.183861 112.898147 
L 138.303615 117.84427 
L 141.282795 122.153964 
L 144.035519 125.75286 
L 146.37827 128.473054 
L 148.317656 130.407235 
L 149.96305 131.752088 
L 150.048568 131.801806 
L 151.43117 132.637011 
L 151.535039 132.673968 
L 151.761496 132.776113 
L 152.960583 133.182626 
L 153.064452 133.188422 
L 153.229616 133.218394 
L 154.330705 133.283578 
L 155.413443 133.118895 
L 156.575826 132.705067 
L 158.037706 131.935067 
L 158.166166 131.831013 
L 160.894299 130.224232 
L 160.973945 130.213045 
L 160.998535 130.181007 
L 161.873168 129.924487 
L 162.01374 129.922848 
L 162.117976 129.893064 
L 162.258549 129.901833 
L 162.264788 129.884178 
L 162.974257 129.94741 
L 163.176123 130.014105 
L 163.182363 130.002563 
L 163.891831 130.316376 
L 164.222158 130.530792 
L 165.017512 131.213259 
L 165.953438 132.28392 
L 167.152157 133.970236 
L 168.601925 136.282203 
L 169.91112 138.464511 
L 174.82308 146.295488 
L 177.31301 149.665129 
L 179.288732 151.784959 
L 180.671333 152.832025 
L 180.775202 152.882566 
L 181.062587 153.031593 
L 182.102749 153.356878 
L 183.001972 153.332295 
L 183.974601 152.945601 
L 184.103062 152.838708 
L 185.081563 151.912994 
L 186.121726 150.384551 
L 187.302093 147.97649 
L 188.709286 144.374146 
L 191.113331 137.989645 
L 191.155906 137.890392 
L 192.21442 135.681166 
L 192.256996 135.60178 
L 193.376437 133.737363 
L 193.456082 133.65169 
L 193.602894 133.397599 
L 196.887811 128.316577 
L 198.190767 125.721143 
L 199.512074 122.625317 
L 199.658886 122.191189 
L 201.065711 118.164575 
L 202.998857 111.912101 
L 203.145669 111.36198 
L 204.63214 106.775887 
L 204.650491 106.779522 
L 204.656731 106.71039 
L 205.48842 104.793727 
L 205.506772 104.802483 
L 205.531363 104.713333 
L 206.161553 103.763511 
L 206.240831 103.708942 
L 206.369292 103.547629 
L 206.895613 103.213198 
L 206.974891 103.212038 
L 206.999482 103.181283 
L 207.446157 103.16016 
L 207.611321 103.195883 
L 208.180217 103.46868 
L 208.467601 103.678951 
L 209.342233 104.518046 
L 209.911129 105.166499 
L 210.015366 105.28188 
L 210.645189 106.039549 
L 210.749426 106.158952 
L 211.379249 106.921283 
L 211.483485 107.039306 
L 212.076605 107.736269 
L 214.217857 110.046708 
L 216.028415 111.68712 
L 216.113933 111.745836 
L 217.680049 112.863738 
L 217.686289 112.855394 
L 219.086875 113.595123 
L 219.093114 113.583479 
L 220.371479 114.018705 
L 220.377718 114.003728 
L 221.595156 114.184681 
L 221.699026 114.168711 
L 221.839598 114.188467 
L 221.845838 114.169329 
L 223.001982 114.06628 
L 223.130442 114.016531 
L 224.249883 113.643226 
L 225.387675 113.052048 
L 225.516136 112.940438 
L 226.696871 112.009893 
L 227.920181 110.759162 
L 229.204785 109.122687 
L 230.526092 107.111316 
L 230.672904 106.8204 
L 232.000451 104.293283 
L 233.303407 101.328145 
L 234.588011 97.842815 
L 235.872616 93.699279 
L 237.193923 88.727165 
L 237.340735 88.049666 
L 238.790503 81.491019 
L 242.92546 62.04646 
L 242.968403 61.906976 
L 243.720814 59.854896 
L 243.800459 59.71374 
L 243.947271 59.383723 
L 244.577095 58.394102 
L 244.681331 58.271703 
L 245.311154 57.731273 
L 245.513021 57.628984 
L 245.678184 57.545671 
L 245.965935 57.450057 
L 246.779273 57.34321 
L 248.021302 57.426303 
L 248.47385 57.486311 
L 252.511178 58.191835 
L 257.362211 59.231006 
L 264.519292 61.429185 
L 269.253976 63.602089 
L 271.902463 65.151864 
L 274.490024 66.923954 
L 278.264558 69.974933 
L 281.157854 72.668351 
L 285.684433 77.402969 
L 291.049307 83.603108 
L 297.637492 91.655367 
L 308.605444 105.024113 
L 313.927376 111.123107 
L 318.025998 115.50126 
L 321.615549 119.023661 
L 324.753654 121.794048 
L 327.488026 123.92036 
L 329.954467 125.567704 
L 332.259414 126.848964 
L 334.461593 127.823089 
L 336.663771 128.555555 
L 339.049465 129.109195 
L 342.31236 129.612959 
L 346.368039 130.269889 
L 346.628631 130.335074 
L 346.735069 130.34724 
L 346.99566 130.414887 
L 347.102099 130.428209 
L 347.36269 130.498258 
L 347.469129 130.512705 
L 347.72972 130.585054 
L 347.836159 130.600569 
L 348.09675 130.675062 
L 348.203188 130.69156 
L 348.47112 130.760049 
L 354.666583 132.244459 
L 356.362261 132.362316 
L 357.885435 132.268803 
L 358.013895 132.235021 
L 359.379246 131.910493 
L 360.722575 131.365188 
L 362.043882 130.606208 
L 362.190694 130.483295 
L 363.512002 129.427848 
L 363.658814 129.267052 
L 364.980121 127.882809 
L 365.126933 127.680187 
L 366.473932 125.86871 
L 367.857635 123.6553 
L 367.986095 123.392431 
L 369.391819 120.63382 
L 370.859938 117.260149 
L 372.408804 113.133363 
L 374.097141 108.013398 
L 374.225602 107.541631 
L 376.137827 100.873076 
L 380.685326 84.671804 
L 380.725699 84.544016 
L 381.84514 81.534789 
L 381.889184 81.432952 
L 382.887505 79.335411 
L 382.964581 79.220136 
L 383.129745 78.897692 
L 383.210491 78.790236 
L 383.375655 78.487935 
L 383.456401 78.387837 
L 383.584862 78.160268 
L 384.597864 76.794247 
L 384.685951 76.694164 
L 385.882468 75.460133 
L 385.988907 75.364376 
L 388.025922 73.636454 
L 388.165394 73.537146 
L 388.330557 73.384696 
L 388.470028 73.284915 
L 388.635192 73.131829 
L 388.778333 73.031412 
L 388.906794 72.908008 
L 392.265117 69.978274 
L 392.393577 69.845162 
L 396.467608 66.273239 
L 396.61442 66.157179 
L 398.544997 64.769742 
L 398.746863 64.65137 
L 398.937718 64.523688 
L 400.688451 63.574368 
L 400.956382 63.449489 
L 402.828234 62.718409 
L 403.213616 62.59921 
L 403.441174 62.524382 
L 403.848577 62.404401 
L 406.436137 61.782633 
L 407.005034 61.670581 
L 407.294987 61.610369 
L 407.867554 61.499754 
L 414.72 60.252605 
L 414.72 60.252605 
" clip-path="url(#p25fdc9a608)" style="fill: none; stroke-dasharray: 5.55,2.4; stroke-dashoffset: 0; stroke: #ff7f0e; stroke-width: 1.5"/>
   </g>
   <g id="line2d_12">
    <path d="M 57.6 236.486467 
L 90.95677 238.206865 
L 127.617175 239.870783 
L 168.559349 241.502368 
L 214.627462 243.111528 
L 266.660177 244.701922 
L 325.56846 246.275392 
L 392.331182 247.831639 
L 414.72 248.308932 
L 414.72 248.308932 
" clip-path="url(#p25fdc9a608)" style="fill: none; stroke: #ff0000; stroke-width: 1.5; stroke-linecap: square"/>
   </g>
   <g id="line2d_13">
    <path d="M -1 295.488 
L 461.8 295.488 
" clip-path="url(#p25fdc9a608)" style="fill: none; stroke-dasharray: 5.55,2.4; stroke-dashoffset: 0; stroke: #2ca02c; stroke-width: 1.5"/>
   </g>
   <g id="line2d_14">
    <path d="M -1 238.510568 
L 461.8 238.510568 
" clip-path="url(#p25fdc9a608)" style="fill: none; stroke-dasharray: 5.55,2.4; stroke-dashoffset: 0; stroke: #d62728; stroke-width: 1.5"/>
   </g>
   <g id="patch_3">
    <path d="M 57.6 307.584 
L 57.6 41.472 
" style="fill: none; stroke: #000000; stroke-width: 0.8; stroke-linejoin: miter; stroke-linecap: square"/>
   </g>
   <g id="patch_4">
    <path d="M 414.72 307.584 
L 414.72 41.472 
" style="fill: none; stroke: #000000; stroke-width: 0.8; stroke-linejoin: miter; stroke-linecap: square"/>
   </g>
   <g id="patch_5">
    <path d="M 57.6 307.584 
L 414.72 307.584 
" style="fill: none; stroke: #000000; stroke-width: 0.8; stroke-linejoin: miter; stroke-linecap: square"/>
   </g>
   <g id="patch_6">
    <path d="M 57.6 41.472 
L 414.72 41.472 
" style="fill: none; stroke: #000000; stroke-width: 0.8; stroke-linejoin: miter; stroke-linecap: square"/>
   </g>
   <g id="legend_1">
    <g id="patch_7">
     <path d="M 64.6 302.584 
L 166.198438 302.584 
Q 168.198438 302.584 168.198438 300.584 
L 168.198438 257.549625 
Q 168.198438 255.549625 166.198438 255.549625 
L 64.6 255.549625 
Q 62.6 255.549625 62.6 257.549625 
L 62.6 300.584 
Q 62.6 302.584 64.6 302.584 
z
" style="fill: #ffffff; opacity: 0.8; stroke: #cccccc; stroke-linejoin: miter"/>
    </g>
    <g id="line2d_15">
     <path d="M 66.6 263.648062 
L 76.6 263.648062 
L 86.6 263.648062 
" style="fill: none; stroke: #1f77b4; stroke-width: 1.5; stroke-linecap: square"/>
    </g>
    <g id="text_12">
     <!-- Py2 0.177mm -->
     <g transform="translate(94.6 267.148062)scale(0.1 -0.1)">
      <defs>
       <path id="DejaVuSans-2e" d="M 684 794 
L 1344 794 
L 1344 0 
L 684 0 
L 684 794 
z
" transform="scale(0.015625)"/>
       <path id="DejaVuSans-37" d="M 525 4666 
L 3525 4666 
L 3525 4397 
L 1831 0 
L 1172 0 
L 2766 4134 
L 525 4134 
L 525 4666 
z
" transform="scale(0.015625)"/>
      </defs>
      <use xlink:href="#DejaVuSans-50"/>
      <use xlink:href="#DejaVuSans-79" x="60.302734"/>
      <use xlink:href="#DejaVuSans-32" x="119.482422"/>
      <use xlink:href="#DejaVuSans-20" x="183.105469"/>
      <use xlink:href="#DejaVuSans-30" x="214.892578"/>
      <use xlink:href="#DejaVuSans-2e" x="278.515625"/>
      <use xlink:href="#DejaVuSans-31" x="310.302734"/>
      <use xlink:href="#DejaVuSans-37" x="373.925781"/>
      <use xlink:href="#DejaVuSans-37" x="437.548828"/>
      <use xlink:href="#DejaVuSans-6d" x="501.171875"/>
      <use xlink:href="#DejaVuSans-6d" x="598.583984"/>
     </g>
    </g>
    <g id="line2d_16">
     <path d="M 66.6 278.326188 
L 76.6 278.326188 
L 86.6 278.326188 
" style="fill: none; stroke-dasharray: 5.55,2.4; stroke-dashoffset: 0; stroke: #ff7f0e; stroke-width: 1.5"/>
    </g>
    <g id="text_13">
     <!-- Py1 0.177mm -->
     <g transform="translate(94.6 281.826188)scale(0.1 -0.1)">
      <use xlink:href="#DejaVuSans-50"/>
      <use xlink:href="#DejaVuSans-79" x="60.302734"/>
      <use xlink:href="#DejaVuSans-31" x="119.482422"/>
      <use xlink:href="#DejaVuSans-20" x="183.105469"/>
      <use xlink:href="#DejaVuSans-30" x="214.892578"/>
      <use xlink:href="#DejaVuSans-2e" x="278.515625"/>
      <use xlink:href="#DejaVuSans-31" x="310.302734"/>
      <use xlink:href="#DejaVuSans-37" x="373.925781"/>
      <use xlink:href="#DejaVuSans-37" x="437.548828"/>
      <use xlink:href="#DejaVuSans-6d" x="501.171875"/>
      <use xlink:href="#DejaVuSans-6d" x="598.583984"/>
     </g>
    </g>
    <g id="line2d_17">
     <path d="M 66.6 293.004312 
L 76.6 293.004312 
L 86.6 293.004312 
" style="fill: none; stroke: #ff0000; stroke-width: 1.5; stroke-linecap: square"/>
    </g>
    <g id="text_14">
     <!-- Bi -->
     <g transform="translate(94.6 296.504312)scale(0.1 -0.1)">
      <defs>
       <path id="DejaVuSans-42" d="M 1259 2228 
L 1259 519 
L 2272 519 
Q 2781 519 3026 730 
Q 3272 941 3272 1375 
Q 3272 1813 3026 2020 
Q 2781 2228 2272 2228 
L 1259 2228 
z
M 1259 4147 
L 1259 2741 
L 2194 2741 
Q 2656 2741 2882 2914 
Q 3109 3088 3109 3444 
Q 3109 3797 2882 3972 
Q 2656 4147 2194 4147 
L 1259 4147 
z
M 628 4666 
L 2241 4666 
Q 2963 4666 3353 4366 
Q 3744 4066 3744 3513 
Q 3744 3084 3544 2831 
Q 3344 2578 2956 2516 
Q 3422 2416 3680 2098 
Q 3938 1781 3938 1306 
Q 3938 681 3513 340 
Q 3088 0 2303 0 
L 628 0 
L 628 4666 
z
" transform="scale(0.015625)"/>
      </defs>
      <use xlink:href="#DejaVuSans-42"/>
      <use xlink:href="#DejaVuSans-69" x="68.603516"/>
     </g>
    </g>
   </g>
  </g>
 </g>
 <defs>
  <clipPath id="p25fdc9a608">
   <rect x="57.6" y="41.472" width="357.12" height="266.112"/>
  </clipPath>
 </defs>
</svg>
